<svg width="400" height="299" viewBox="0 0 400 299" fill="none" xmlns="http://www.w3.org/2000/svg">
<path d="M200 298.576C310.457 298.576 400 287.857 400 274.635C400 261.412 310.457 250.693 200 250.693C89.5431 250.693 0 261.412 0 274.635C0 287.857 89.5431 298.576 200 298.576Z" fill="#DBE6F7"/>
<path d="M356.365 69.8407V235.409C356.365 242.234 350.832 247.767 344.005 247.767H61.8387C55.0117 247.767 49.4785 242.234 49.4785 235.409V69.8407C49.4785 63.0137 55.0108 57.4805 61.8387 57.4805H344.005C350.832 57.4805 356.365 63.0128 356.365 69.8407Z" fill="#3B3E7D"/>
<path d="M356.368 152.623V235.409C356.368 242.235 350.835 247.767 344.008 247.767H61.8409C55.0147 247.767 49.4824 242.234 49.4824 235.409V152.623H356.368Z" fill="#18285D"/>
<path d="M342.736 78.2555V226.992C342.736 231.368 339.189 234.918 334.813 234.918H71.0407C68.7019 234.918 66.598 233.903 65.1481 232.285C63.8823 230.887 63.1152 229.027 63.1152 226.991V78.2555C63.1152 73.8795 66.6646 70.3301 71.0407 70.3301H334.813C336.276 70.3301 337.645 70.7272 338.822 71.4206C341.163 72.7969 342.736 75.3452 342.736 78.2555Z" fill="white"/>
<path d="M342.734 78.2575V226.994C342.734 231.37 339.187 234.92 334.811 234.92H71.0387C68.6999 234.92 66.5961 233.905 65.1461 232.287C63.8803 230.889 63.1133 229.029 63.1133 226.993V78.2575C63.1133 73.8814 66.6627 70.332 71.0387 70.332H334.811C336.275 70.332 337.643 70.7291 338.82 71.4225C341.161 72.7988 342.734 75.3471 342.734 78.2575Z" fill="white"/>
<path d="M72.0449 133.698C72.0449 134.884 73.0057 135.844 74.1918 135.844H119.725C120.911 135.844 121.872 134.884 121.872 133.698C121.872 132.512 120.911 131.551 119.725 131.551H74.1918C73.0066 131.551 72.0449 132.512 72.0449 133.698Z" fill="#DBE6F7"/>
<path d="M72.0449 144.655C72.0449 145.841 73.0057 146.801 74.1918 146.801H119.725C120.911 146.801 121.872 145.841 121.872 144.655C121.872 143.469 120.911 142.508 119.725 142.508H74.1918C73.0066 142.508 72.0449 143.469 72.0449 144.655Z" fill="#DBE6F7"/>
<path d="M72.0449 155.316C72.0449 156.339 72.9934 157.169 74.1628 157.169H119.08C120.249 157.169 121.197 156.34 121.197 155.316C121.197 154.293 120.249 153.463 119.08 153.463H74.1628C72.9934 153.463 72.0449 154.293 72.0449 155.316Z" fill="#DBE6F7"/>
<path d="M72.0449 171.694C72.0449 172.88 73.0057 173.841 74.1918 173.841H119.725C120.911 173.841 121.872 172.88 121.872 171.694C121.872 170.508 120.911 169.547 119.725 169.547H74.1918C73.0066 169.547 72.0449 170.509 72.0449 171.694Z" fill="#DBE6F7"/>
<path d="M72.0449 182.649C72.0449 183.835 73.0057 184.796 74.1918 184.796H119.725C120.911 184.796 121.872 183.835 121.872 182.649C121.872 181.463 120.911 180.502 119.725 180.502H74.1918C73.0066 180.502 72.0449 181.463 72.0449 182.649Z" fill="#DBE6F7"/>
<path d="M72.0449 193.606C72.0449 194.792 73.0057 195.753 74.1918 195.753H119.725C120.911 195.753 121.872 194.792 121.872 193.606C121.872 192.42 120.911 191.459 119.725 191.459H74.1918C73.0066 191.459 72.0449 192.421 72.0449 193.606Z" fill="#DBE6F7"/>
<path d="M283.666 133.698C283.666 134.884 284.627 135.844 285.813 135.844H331.346C332.532 135.844 333.493 134.884 333.493 133.698C333.493 132.512 332.532 131.551 331.346 131.551H285.813C284.628 131.551 283.666 132.512 283.666 133.698Z" fill="#DBE6F7"/>
<path d="M283.666 144.655C283.666 145.841 284.627 146.801 285.813 146.801H331.346C332.532 146.801 333.493 145.841 333.493 144.655C333.493 143.469 332.532 142.508 331.346 142.508H285.813C284.628 142.508 283.666 143.469 283.666 144.655Z" fill="#DBE6F7"/>
<path d="M283.666 155.316C283.666 156.339 284.615 157.169 285.784 157.169H330.701C331.87 157.169 332.819 156.34 332.819 155.316C332.819 154.293 331.87 153.463 330.701 153.463H285.784C284.615 153.463 283.666 154.293 283.666 155.316Z" fill="#DBE6F7"/>
<path d="M283.666 171.694C283.666 172.88 284.627 173.841 285.813 173.841H331.346C332.532 173.841 333.493 172.88 333.493 171.694C333.493 170.508 332.532 169.547 331.346 169.547H285.813C284.628 169.547 283.666 170.509 283.666 171.694Z" fill="#DBE6F7"/>
<path d="M283.666 182.649C283.666 183.835 284.627 184.796 285.813 184.796H331.346C332.532 184.796 333.493 183.835 333.493 182.649C333.493 181.463 332.532 180.502 331.346 180.502H285.813C284.628 180.502 283.666 181.463 283.666 182.649Z" fill="#DBE6F7"/>
<path d="M283.666 193.606C283.666 194.792 284.627 195.753 285.813 195.753H331.346C332.532 195.753 333.493 194.792 333.493 193.606C333.493 192.42 332.532 191.459 331.346 191.459H285.813C284.628 191.459 283.666 192.421 283.666 193.606Z" fill="#DBE6F7"/>
<path d="M342.734 78.2575V86.5283H63.1133V78.2575C63.1133 73.8814 66.6627 70.332 71.0387 70.332H334.811C336.275 70.332 337.643 70.7291 338.82 71.4225C341.161 72.7988 342.734 75.3471 342.734 78.2575Z" fill="#DBE6F7"/>
<path d="M341.304 73.7228H64.543C65.9718 71.6724 68.3483 70.332 71.0395 70.332H334.81C337.501 70.332 339.878 71.6724 341.304 73.7228Z" fill="#021147"/>
<path d="M313.716 79.2749C313.716 80.8046 312.476 82.045 310.946 82.045C309.415 82.045 308.176 80.8046 308.176 79.2749C308.176 77.7452 309.416 76.5039 310.946 76.5039C312.476 76.5039 313.716 77.7443 313.716 79.2749Z" fill="#707FFF"/>
<path d="M322.691 79.2749C322.691 80.8046 321.451 82.045 319.921 82.045C318.391 82.045 317.15 80.8046 317.15 79.2749C317.15 77.7452 318.391 76.5039 319.921 76.5039C321.451 76.5039 322.691 77.7443 322.691 79.2749Z" fill="#3B3E7D"/>
<path d="M331.239 79.2749C331.239 80.8046 329.999 82.045 328.469 82.045C326.94 82.045 325.699 80.8046 325.699 79.2749C325.699 77.7452 326.94 76.5039 328.469 76.5039C329.999 76.5039 331.239 77.7443 331.239 79.2749Z" fill="#4F60D9"/>
<path d="M276.631 126.244V226.855H130.904V126.244H137.606L137.545 126.188L137.617 126.244H276.631Z" fill="#DBE6F7"/>
<path d="M276.629 122.15H130.977V222.763H276.629V122.15Z" fill="#1D38C8"/>
<path d="M276.629 118.469H130.977V219.081H276.629V118.469Z" fill="#4F60D9"/>
<g opacity="0.5">
<path d="M140.987 152.392V196.146C140.987 197.602 139.807 198.782 138.351 198.782C136.895 198.782 135.715 197.602 135.715 196.146V152.392C135.715 150.936 136.895 149.756 138.351 149.756C139.806 149.756 140.987 150.936 140.987 152.392Z" fill="#4F60D9"/>
</g>
<g opacity="0.5">
<path d="M140.987 139.003V143.432C140.987 144.888 139.807 146.068 138.351 146.068C136.895 146.068 135.715 144.888 135.715 143.432V139.003C135.715 137.548 136.895 136.367 138.351 136.367C139.807 136.367 140.987 137.548 140.987 139.003Z" fill="#4F60D9"/>
</g>
<path d="M189.772 170.537L135.196 219.08H130.977V216.515L186.634 167.012L189.772 170.537Z" fill="#1D38C8"/>
<path d="M276.628 216.856V219.08H272.027L217.451 170.537L220.589 167.012L276.628 216.856Z" fill="#1D38C8"/>
<path d="M276.625 118.467L254.56 138.092L208.599 178.967C205.863 181.403 201.736 181.403 198.998 178.967L153.047 138.098L130.973 118.467H276.625Z" fill="#1D38C8"/>
<path d="M254.56 102.392V138.09L240.556 150.544L235.73 154.838L228.238 161.5L223.412 165.794L215.92 172.456L211.094 176.75L208.6 178.967C205.864 181.403 201.737 181.403 198.999 178.967L196.506 176.75L191.679 172.456L184.188 165.794L179.36 161.5L171.869 154.838L167.042 150.544L153.047 138.097V102.392C153.047 99.1765 155.652 96.5703 158.868 96.5703H248.74C251.955 96.5703 254.56 99.1765 254.56 102.392Z" fill="#DBE6F7"/>
<path d="M189.82 110.47H165.225C164.154 110.47 163.285 109.602 163.285 108.53V108.116C163.285 107.045 164.154 106.176 165.225 106.176H189.819C190.891 106.176 191.759 107.045 191.759 108.116V108.53C191.76 109.602 190.891 110.47 189.82 110.47Z" fill="#BBD4F2"/>
<path d="M245.43 121.967H165.432C164.246 121.967 163.285 121.007 163.285 119.821C163.285 118.635 164.246 117.674 165.432 117.674H245.43C246.616 117.674 247.577 118.635 247.577 119.821C247.577 121.007 246.616 121.967 245.43 121.967Z" fill="#BBD4F2"/>
<path d="M245.43 132.923H165.432C164.246 132.923 163.285 131.962 163.285 130.776C163.285 129.59 164.246 128.629 165.432 128.629H245.43C246.616 128.629 247.577 129.59 247.577 130.776C247.577 131.961 246.616 132.923 245.43 132.923Z" fill="#BBD4F2"/>
<path d="M245.43 143.88H165.432C164.246 143.88 163.285 142.919 163.285 141.733C163.285 140.547 164.246 139.586 165.432 139.586H245.43C246.616 139.586 247.577 140.547 247.577 141.733C247.577 142.919 246.616 143.88 245.43 143.88Z" fill="#BBD4F2"/>
<path d="M240.556 150.543L235.729 154.836H171.869L167.041 150.543H240.556Z" fill="#BBD4F2"/>
<path d="M228.239 161.5L223.412 165.794H184.188L179.361 161.5H228.239Z" fill="#BBD4F2"/>
<path d="M215.921 172.455L211.094 176.749H196.506L191.68 172.455H215.921Z" fill="#BBD4F2"/>
<path d="M253.544 108.059H252.757C245.792 108.059 240.145 102.411 240.145 95.4459V94.6596C240.145 87.694 245.792 82.0469 252.757 82.0469H253.544C260.509 82.0469 266.156 87.694 266.156 94.6596V95.4459C266.156 102.412 260.509 108.059 253.544 108.059Z" fill="#4F60D9"/>
<path d="M255.84 108.059H255.054C248.089 108.059 242.441 102.411 242.441 95.4459V94.6596C242.441 87.694 248.089 82.0469 255.054 82.0469H255.84C262.806 82.0469 268.453 87.694 268.453 94.6596V95.4459C268.453 102.412 262.806 108.059 255.84 108.059Z" fill="#707FFF"/>
<path d="M253.747 98.4079L252.663 88.0023H259.166L258.082 98.4079H253.747ZM255.914 105.104C254.983 105.104 254.22 104.823 253.626 104.261C253.032 103.683 252.735 103.001 252.735 102.214C252.735 101.411 253.032 100.736 253.626 100.19C254.22 99.6444 254.983 99.3714 255.914 99.3714C256.862 99.3714 257.625 99.6444 258.203 100.19C258.797 100.736 259.094 101.411 259.094 102.214C259.094 103.001 258.797 103.683 258.203 104.261C257.625 104.823 256.862 105.104 255.914 105.104Z" fill="white"/>
<path d="M385.035 241.152V242.211C385.035 247.478 383.346 252.348 380.477 256.31C376.104 262.359 368.987 266.295 360.95 266.295H44.9013C36.8646 266.295 29.7473 262.359 25.3739 256.31C22.5056 252.348 20.8164 247.478 20.8164 242.211V241.152H385.035Z" fill="#18285D"/>
<path d="M162.105 241.15V241.392C162.105 243.3 163.383 244.845 164.958 244.845H239.311C240.887 244.845 242.164 243.299 242.164 241.392V241.15H162.105Z" fill="white"/>
<path d="M380.477 256.309C376.103 262.358 368.986 266.294 360.949 266.294H44.9005C36.8637 266.294 29.7465 262.358 25.373 256.309H380.477Z" fill="#021147"/>
<path d="M267.944 14.3245C267.866 14.3324 267.784 14.3219 267.706 14.2894C266.879 13.9405 266.395 13.7775 266.389 13.7766C266.136 13.6916 265.999 13.4181 266.083 13.1647C266.168 12.9114 266.442 12.7746 266.695 12.8588C266.716 12.8658 267.216 13.0332 268.081 13.3988C268.328 13.5022 268.442 13.7863 268.339 14.0326C268.269 14.1991 268.115 14.3061 267.944 14.3245Z" fill="#DBE6F7"/>
<path d="M292.601 40.2696C292.93 41.1471 293.239 42.0526 293.517 42.9599C293.587 43.1852 293.805 43.3228 294.03 43.2992C294.061 43.2956 294.092 43.2895 294.121 43.2808C294.376 43.2019 294.52 42.9318 294.441 42.6768C294.157 41.7502 293.843 40.8271 293.507 39.9312C293.413 39.6814 293.135 39.5543 292.884 39.6481C292.634 39.741 292.508 40.0198 292.601 40.2696Z" fill="#DBE6F7"/>
<path d="M294.268 45.6992C294.489 46.6083 294.69 47.5436 294.863 48.4807C294.909 48.7305 295.14 48.8997 295.389 48.8734C295.401 48.8726 295.414 48.8699 295.427 48.8682C295.69 48.8191 295.863 48.5666 295.814 48.3045C295.637 47.3499 295.433 46.397 295.207 45.4704C295.144 45.211 294.882 45.0523 294.623 45.1154C294.364 45.1776 294.205 45.4398 294.268 45.6992Z" fill="#DBE6F7"/>
<path d="M295.722 50.7483C295.458 50.7834 295.27 51.0254 295.305 51.2901C295.362 51.7275 295.414 52.1693 295.459 52.6033C295.513 53.1038 295.559 53.6157 295.599 54.1224C295.62 54.3889 295.852 54.5879 296.119 54.5669C296.123 54.566 296.127 54.566 296.132 54.5651C296.391 54.5379 296.583 54.3083 296.563 54.0462C296.523 53.5307 296.474 53.01 296.421 52.5007C296.374 52.0589 296.322 51.6092 296.264 51.1639C296.23 50.9026 295.994 50.7177 295.734 50.7448C295.73 50.7483 295.727 50.7483 295.722 50.7483Z" fill="#DBE6F7"/>
<path d="M291.52 37.6407C291.607 37.8362 291.809 37.9457 292.012 37.9247C292.061 37.9194 292.111 37.9063 292.159 37.8852C292.402 37.7765 292.512 37.4899 292.403 37.2462C292.009 36.3652 291.583 35.4868 291.135 34.6356C291.01 34.399 290.718 34.3087 290.481 34.4323C290.245 34.5568 290.154 34.8495 290.278 35.0853C290.716 35.919 291.134 36.779 291.52 37.6407Z" fill="#DBE6F7"/>
<path d="M270.278 15.4887C271.109 15.913 271.947 16.375 272.769 16.8624C272.862 16.9176 272.966 16.9378 273.066 16.9273C273.213 16.9115 273.351 16.8291 273.432 16.6923C273.567 16.4626 273.491 16.1655 273.262 16.0296C272.422 15.5326 271.565 15.0601 270.717 14.627C270.479 14.5061 270.187 14.5999 270.066 14.8374C269.945 15.0759 270.04 15.3678 270.278 15.4887Z" fill="#DBE6F7"/>
<path d="M277.488 20.0461C277.591 20.1241 277.714 20.1548 277.833 20.1425C277.961 20.1294 278.082 20.0654 278.166 19.9549C278.328 19.7428 278.288 19.4395 278.075 19.2773C277.309 18.6926 276.516 18.1228 275.717 17.5846C275.496 17.4356 275.196 17.4934 275.046 17.7152C274.896 17.937 274.955 18.2377 275.177 18.3867C275.959 18.9135 276.737 19.4728 277.488 20.0461Z" fill="#DBE6F7"/>
<path d="M285.615 27.9634C285.722 28.0966 285.885 28.1589 286.043 28.1422C286.132 28.1326 286.22 28.0984 286.294 28.0388C286.503 27.8722 286.537 27.5671 286.369 27.3585C285.768 26.6081 285.134 25.8648 284.485 25.1503C284.305 24.9531 283.999 24.9382 283.801 25.1179C283.603 25.2976 283.589 25.6035 283.769 25.8008C284.405 26.5012 285.026 27.2288 285.615 27.9634Z" fill="#DBE6F7"/>
<path d="M281.795 23.7591C281.902 23.8634 282.046 23.9081 282.183 23.8932C282.292 23.8818 282.397 23.8336 282.479 23.7494C282.665 23.5583 282.661 23.2515 282.469 23.0657C281.781 22.3959 281.061 21.7367 280.329 21.1056C280.126 20.9311 279.821 20.9539 279.647 21.1564C279.472 21.3589 279.495 21.664 279.697 21.8384C280.415 22.4573 281.121 23.1034 281.795 23.7591Z" fill="#DBE6F7"/>
<path d="M288.878 32.6156C288.979 32.7805 289.162 32.8637 289.341 32.8444C289.411 32.8374 289.479 32.8146 289.542 32.7761C289.77 32.6367 289.842 32.3386 289.703 32.1107C289.2 31.2885 288.666 30.4714 288.112 29.6825C287.959 29.4642 287.658 29.4107 287.438 29.5642C287.22 29.7176 287.167 30.0191 287.32 30.2383C287.862 31.0106 288.386 31.8109 288.878 32.6156Z" fill="#DBE6F7"/>
<path d="M247.307 0.00594317L243.41 14.7324L264.73 20.3738L268.626 5.64731L247.307 0.00594317Z" fill="#4F60D9"/>
<path d="M258.008 10.9843L264.116 20.2037L264.733 20.3667L264.833 19.9915L258.604 10.5898L258.008 10.9843Z" fill="#1D38C8"/>
<path d="M243.5 14.4001L243.414 14.7262L244.087 14.9041L253.956 9.91269L253.634 9.27539L243.5 14.4001Z" fill="#1D38C8"/>
<path d="M268.633 5.64188L255.464 12.3015L247.312 0L268.633 5.64188Z" fill="#707FFF"/>
<path d="M329.54 32.1477C326.6 32.1477 324.209 29.7563 324.209 26.817C324.209 23.8777 326.6 21.4863 329.54 21.4863C332.479 21.4863 334.87 23.8777 334.87 26.817C334.87 29.7563 332.479 32.1477 329.54 32.1477ZM329.54 23.1589C327.523 23.1589 325.882 24.7999 325.882 26.817C325.882 28.8341 327.523 30.4751 329.54 30.4751C331.557 30.4751 333.198 28.8341 333.198 26.817C333.198 24.7999 331.557 23.1589 329.54 23.1589Z" fill="#707FFF"/>
<path d="M356.63 37.5696C353.69 37.5696 351.299 35.1782 351.299 32.2389C351.299 29.2996 353.69 26.9082 356.63 26.9082C359.569 26.9082 361.96 29.2996 361.96 32.2389C361.959 35.1782 359.568 37.5696 356.63 37.5696ZM356.63 28.5808C354.612 28.5808 352.971 30.2218 352.971 32.2389C352.971 34.256 354.612 35.897 356.63 35.897C358.647 35.897 360.288 34.256 360.288 32.2389C360.287 30.2218 358.647 28.5808 356.63 28.5808Z" fill="#4F60D9"/>
<path d="M369.469 48.4534C369.007 48.4534 368.633 48.079 368.633 47.6171V43.93C368.633 43.4681 369.007 43.0938 369.469 43.0938C369.931 43.0938 370.305 43.4681 370.305 43.93V47.6171C370.305 48.0799 369.931 48.4534 369.469 48.4534Z" fill="#707FFF"/>
<path d="M369.469 54.9065C369.007 54.9065 368.633 54.5322 368.633 54.0702V50.3832C368.633 49.9212 369.007 49.5469 369.469 49.5469C369.931 49.5469 370.305 49.9212 370.305 50.3832V54.0702C370.305 54.5322 369.931 54.9065 369.469 54.9065Z" fill="#707FFF"/>
<path d="M374.643 49.8347H371.33C370.868 49.8347 370.494 49.4604 370.494 48.9984C370.494 48.5364 370.868 48.1621 371.33 48.1621H374.643C375.105 48.1621 375.479 48.5364 375.479 48.9984C375.479 49.4604 375.105 49.8347 374.643 49.8347Z" fill="#707FFF"/>
<path d="M367.604 49.8347H364.291C363.829 49.8347 363.455 49.4604 363.455 48.9984C363.455 48.5364 363.829 48.1621 364.291 48.1621H367.604C368.066 48.1621 368.44 48.5364 368.44 48.9984C368.44 49.4604 368.065 49.8347 367.604 49.8347Z" fill="#707FFF"/>
<path d="M341 42.4358C340.538 42.4358 340.164 42.0615 340.164 41.5995V37.9125C340.164 37.4505 340.538 37.0762 341 37.0762C341.462 37.0762 341.837 37.4505 341.837 37.9125V41.5995C341.837 42.0615 341.462 42.4358 341 42.4358Z" fill="#4F60D9"/>
<path d="M341 48.8909C340.538 48.8909 340.164 48.5165 340.164 48.0546V44.3675C340.164 43.9056 340.538 43.5312 341 43.5312C341.462 43.5312 341.837 43.9056 341.837 44.3675V48.0546C341.837 48.5165 341.462 48.8909 341 48.8909Z" fill="#4F60D9"/>
<path d="M346.174 43.8191H342.862C342.4 43.8191 342.025 43.4447 342.025 42.9828C342.025 42.5208 342.4 42.1465 342.862 42.1465H346.174C346.636 42.1465 347.011 42.5208 347.011 42.9828C347.011 43.4456 346.636 43.8191 346.174 43.8191Z" fill="#4F60D9"/>
<path d="M339.139 43.8191H335.827C335.365 43.8191 334.99 43.4447 334.99 42.9828C334.99 42.5208 335.365 42.1465 335.827 42.1465H339.139C339.601 42.1465 339.976 42.5208 339.976 42.9828C339.975 43.4456 339.6 43.8191 339.139 43.8191Z" fill="#4F60D9"/>
<path d="M17.6965 151.083C17.6965 154.022 15.3051 156.413 12.3658 156.413C9.42656 156.413 7.03516 154.022 7.03516 151.083C7.03516 148.143 9.42656 145.752 12.3658 145.752C15.3051 145.753 17.6965 148.144 17.6965 151.083ZM8.70773 151.083C8.70773 153.1 10.3488 154.741 12.3658 154.741C14.3829 154.741 16.0239 153.1 16.0239 151.083C16.0239 149.066 14.3829 147.425 12.3658 147.425C10.3488 147.425 8.70773 149.066 8.70773 151.083Z" fill="#707FFF"/>
<path d="M23.1223 123.995C23.1223 126.934 20.7309 129.325 17.7916 129.325C14.8523 129.325 12.4609 126.934 12.4609 123.995C12.4609 121.055 14.8523 118.664 17.7916 118.664C20.7309 118.664 23.1223 121.055 23.1223 123.995ZM14.1335 123.995C14.1335 126.012 15.7745 127.653 17.7916 127.653C19.8087 127.653 21.4497 126.012 21.4497 123.995C21.4497 121.978 19.8087 120.337 17.7916 120.337C15.7745 120.337 14.1335 121.978 14.1335 123.995Z" fill="#4F60D9"/>
<path d="M34.0002 111.155C34.0002 111.617 33.6259 111.991 33.1639 111.991H29.4769C29.0149 111.991 28.6406 111.617 28.6406 111.155C28.6406 110.693 29.0149 110.318 29.4769 110.318H33.1639C33.6259 110.319 34.0002 110.694 34.0002 111.155Z" fill="#707FFF"/>
<path d="M40.4534 111.155C40.4534 111.617 40.079 111.991 39.6171 111.991H35.93C35.4681 111.991 35.0938 111.617 35.0938 111.155C35.0938 110.693 35.4681 110.318 35.93 110.318H39.6171C40.079 110.319 40.4534 110.694 40.4534 111.155Z" fill="#707FFF"/>
<path d="M35.3835 105.981V109.294C35.3835 109.756 35.0092 110.13 34.5472 110.13C34.0853 110.13 33.7109 109.756 33.7109 109.294V105.981C33.7109 105.519 34.0853 105.145 34.5472 105.145C35.0092 105.145 35.3835 105.52 35.3835 105.981Z" fill="#707FFF"/>
<path d="M35.3835 113.02V116.333C35.3835 116.795 35.0092 117.169 34.5472 117.169C34.0853 117.169 33.7109 116.795 33.7109 116.333V113.02C33.7109 112.558 34.0853 112.184 34.5472 112.184C35.0092 112.184 35.3835 112.558 35.3835 113.02Z" fill="#707FFF"/>
<path d="M27.9885 139.625C27.9885 140.087 27.6142 140.462 27.1522 140.462H23.4652C23.0032 140.462 22.6289 140.087 22.6289 139.625C22.6289 139.163 23.0032 138.789 23.4652 138.789H27.1522C27.6142 138.789 27.9885 139.163 27.9885 139.625Z" fill="#4F60D9"/>
<path d="M34.4436 139.625C34.4436 140.087 34.0693 140.462 33.6073 140.462H29.9203C29.4583 140.462 29.084 140.087 29.084 139.625C29.084 139.163 29.4583 138.789 29.9203 138.789H33.6073C34.0693 138.789 34.4436 139.163 34.4436 139.625Z" fill="#4F60D9"/>
<path d="M29.3718 134.446V137.758C29.3718 138.22 28.9975 138.595 28.5355 138.595C28.0735 138.595 27.6992 138.22 27.6992 137.758V134.446C27.6992 133.984 28.0735 133.609 28.5355 133.609C28.9984 133.609 29.3718 133.985 29.3718 134.446Z" fill="#4F60D9"/>
<path d="M29.3718 141.487V144.799C29.3718 145.261 28.9975 145.636 28.5355 145.636C28.0735 145.636 27.6992 145.261 27.6992 144.799V141.487C27.6992 141.025 28.0735 140.65 28.5355 140.65C28.9984 140.65 29.3718 141.025 29.3718 141.487Z" fill="#4F60D9"/>
<path d="M101.785 24.2903V40.8022C101.785 42.985 103.556 44.7557 105.739 44.7557H135.72L144.771 48.0027C145.7 48.3367 146.59 47.4233 146.234 46.5037L142.81 37.6613V24.2895C142.81 22.1067 141.039 20.3359 138.854 20.3359H105.739C103.556 20.3368 101.785 22.1076 101.785 24.2903Z" fill="#707FFF"/>
<path d="M127.83 33.0158C127.83 34.5954 129.111 35.8762 130.69 35.8762C132.268 35.8762 133.55 34.5954 133.55 33.0158C133.55 31.4361 132.269 30.1562 130.69 30.1562C129.11 30.1562 127.83 31.4361 127.83 33.0158Z" fill="#4F60D9"/>
<path d="M118.777 33.0158C118.777 34.5954 120.058 35.8762 121.637 35.8762C123.217 35.8762 124.496 34.5954 124.496 33.0158C124.496 31.4361 123.217 30.1563 121.637 30.1563C120.058 30.1554 118.777 31.4361 118.777 33.0158Z" fill="#4F60D9"/>
<path d="M109.725 33.0158C109.725 34.5954 111.005 35.8762 112.585 35.8762C114.165 35.8762 115.445 34.5954 115.445 33.0158C115.445 31.4361 114.165 30.1563 112.585 30.1563C111.004 30.1554 109.725 31.4361 109.725 33.0158Z" fill="#4F60D9"/>
</svg>
