<svg width="40" height="41" viewBox="0 0 40 41" fill="none" xmlns="http://www.w3.org/2000/svg">
<path d="M18.1293 0.319824H20.3241C21.2764 0.319824 22.2274 0.387834 23.17 0.523333L24.3793 0.697183L25.2015 0.926992C26.1521 1.19271 27.0817 1.52843 27.9827 1.93141L28.8793 2.3324L29.3952 2.60925C30.2999 3.09483 31.166 3.64936 31.9856 4.26793L32.2543 4.47077L34.0043 5.98021L35.6293 7.74121L36.293 8.69533C36.4337 8.89756 36.5593 9.10983 36.669 9.33044L36.8759 9.74684C36.961 9.91824 37.0202 10.1014 37.0515 10.2902C37.1026 10.5988 37.0779 10.9153 36.9795 11.2122L36.9111 11.4189C36.8075 11.7314 36.6445 12.021 36.431 12.2717C36.1511 12.6003 35.7925 12.8526 35.3886 13.005L35.3191 13.0312C35.11 13.1102 34.8923 13.1641 34.6705 13.192L34.0043 13.2758H29.7923C29.6016 13.2758 29.4121 13.2449 29.2313 13.1842C28.9195 13.0796 28.6432 12.89 28.4335 12.6368L28.3214 12.5015C28.1939 12.3475 28.0862 12.178 28.0011 11.997L27.3849 10.6881C27.1321 10.1511 26.815 9.64675 26.4406 9.1862C26.0678 8.7277 25.6409 8.31599 25.1692 7.96001L25.1136 7.91803C24.6257 7.54982 24.0968 7.23947 23.5374 6.99318L22.9876 6.75116C22.5833 6.57314 22.1609 6.43938 21.7278 6.35222C21.3298 6.27212 20.9249 6.23178 20.5189 6.23178H19.7799C19.0991 6.23178 18.4116 6.32376 17.7541 6.50019C17.1786 6.65462 16.6147 6.87832 16.0908 7.16219C15.5353 7.46318 15.0194 7.83211 14.555 8.26049L14.1996 8.58836C13.9033 8.86169 13.6304 9.1594 13.3839 9.47836C13.0486 9.91214 12.764 10.3828 12.5354 10.8811L12.1294 11.7664L12.0084 12.172C11.8393 12.7394 11.7126 13.3186 11.6294 13.9047V14.911L11.6559 15.0979C11.7107 15.4838 11.4478 15.843 11.0634 15.9074C11.0241 15.914 10.9843 15.9173 10.9445 15.9173H0.927896C0.817351 15.9173 0.711906 15.8708 0.63736 15.7892C0.542675 15.6855 0.510414 15.5392 0.552702 15.4054L0.629375 15.1626L1.50437 12.6469L2.50437 10.6343L3.50437 8.99908L4.62937 7.48964L6.00437 5.98021C6.58687 5.39404 7.21268 4.85255 7.87649 4.36035L9.25436 3.3387L10.3068 2.75035C11.1041 2.30458 11.9325 1.9167 12.7855 1.58971C13.6801 1.24675 14.5993 0.971728 15.5353 0.766973L17.0043 0.445611L18.1293 0.319824Z" fill="white"/>
<path d="M28.3711 26.7052C28.3711 25.7489 29.1463 24.9736 30.1027 24.9736H38.5517C38.9843 24.9736 39.3167 25.3565 39.2559 25.7848C39.2493 25.8309 39.2383 25.8763 39.2229 25.9202L38.496 27.9925L37.496 30.1309L36.371 31.8919L35.371 33.1497L34.246 34.4076L34.2037 34.4502C33.4001 35.2589 32.5287 35.9974 31.5993 36.6576L30.871 37.1749L29.121 38.1812L28.5686 38.4406C27.6881 38.8541 26.7786 39.2028 25.8473 39.484L24.7461 39.8164L22.9961 40.1938L21.9961 40.3196H19.5081C18.3357 40.3196 17.1655 40.2165 16.0112 40.0115L15.6211 39.9422L13.7461 39.4391L11.2461 38.4328L10.2987 37.9032C9.43151 37.4183 8.60161 36.8696 7.81594 36.2614L7.37109 35.917L5.87109 34.5334L4.87109 33.5271L3.75655 32.0997C3.58335 31.8779 3.433 31.6391 3.30777 31.3871L3.09498 30.9588C2.94772 30.6625 2.87109 30.336 2.87109 30.0051C2.87109 29.6742 2.94772 29.3477 3.09498 29.0514L3.18289 28.8744C3.38887 28.4599 3.68843 28.0989 4.05791 27.8201L4.33842 27.6084C4.44285 27.5295 4.55933 27.4681 4.68337 27.4265C4.80769 27.3848 4.93796 27.3636 5.06909 27.3636H10.461C10.6493 27.3636 10.8359 27.3997 11.0105 27.47C11.2468 27.5651 11.4544 27.72 11.613 27.9194L11.7049 28.035C11.8152 28.1738 11.9069 28.3264 11.9776 28.489L12.3446 29.3332C12.6114 29.9468 12.948 30.5276 13.3478 31.064L13.4183 31.1585C13.7194 31.5626 14.0603 31.9353 14.4358 32.2713C14.8084 32.6045 15.2132 32.8998 15.6443 33.1529L15.8462 33.2714C16.2786 33.5252 16.7329 33.7395 17.2037 33.9118L17.2357 33.9235C17.6585 34.0782 18.0975 34.1975 18.5404 34.2785C19.0072 34.3639 19.4848 34.4076 19.9594 34.4076C20.6475 34.4076 21.3327 34.3173 21.9973 34.1389L22.0516 34.1244C22.5965 33.9781 23.125 33.7767 23.629 33.5231L23.8078 33.4332C24.5132 33.0782 25.1655 32.6265 25.746 32.0911L25.8109 32.0312C26.1834 31.6876 26.5206 31.3076 26.8175 30.8969C27.1851 30.3882 27.4883 29.8359 27.7202 29.2526L27.847 28.9336C28.0292 28.4751 28.1652 27.9995 28.253 27.5139L28.3435 27.0131C28.3618 26.9115 28.3711 26.8085 28.3711 26.7052Z" fill="#FD9024"/>
<path d="M18.0524 9.14921C18.5972 8.96647 19.168 8.87329 19.7426 8.87329H20.4526C20.8984 8.87329 21.3419 8.93876 21.7687 9.06761C22.1709 9.18905 22.5545 9.36559 22.9083 9.59219L23.0957 9.71218C23.5298 9.99015 23.9231 10.3271 24.2643 10.7134C24.5867 11.0784 24.8597 11.4841 25.0764 11.9202L25.879 13.5355C26.1241 14.0287 26.4609 14.4707 26.8713 14.8379L26.9401 14.8994C27.2283 15.1572 27.5546 15.3687 27.9076 15.5266C28.2996 15.7019 28.7188 15.8085 29.147 15.8416L30.125 15.9173H37.2112C37.5666 15.9173 37.9183 15.9899 38.2447 16.1307L38.4155 16.2043C38.5543 16.2642 38.6827 16.3456 38.7962 16.4455L39.5083 17.0724C39.5771 17.133 39.5966 17.2323 39.5558 17.3144C39.5216 17.3832 39.4514 17.4268 39.3745 17.4268H17.5933C17.121 17.4268 16.6552 17.3162 16.2333 17.1039C15.9955 16.9842 15.7745 16.8337 15.576 16.6562L15.1271 16.2546C14.878 16.0318 14.6736 15.7636 14.5249 15.4642C14.3441 15.1004 14.25 14.6996 14.25 14.2933V14.2689C14.25 14.0272 14.282 13.7866 14.3453 13.5533L14.4679 13.1007C14.5724 12.7152 14.7145 12.341 14.8922 11.9833L14.91 11.9475C15.1357 11.4933 15.4201 11.0707 15.7559 10.6906L15.811 10.6281C16.1025 10.2982 16.4351 10.007 16.8007 9.76174C17.1818 9.50602 17.5955 9.30247 18.0307 9.15649L18.0524 9.14921Z" fill="#FD9024"/>
<path d="M0.625 23.528C0.625 23.4237 0.709861 23.3393 0.814169 23.3399L22.8863 23.46C23.4496 23.463 23.9994 23.632 24.4672 23.9458C24.7371 24.1269 24.9742 24.3525 25.1684 24.6131L25.5785 25.1633C25.6094 25.2048 25.6365 25.249 25.6596 25.2953C25.719 25.415 25.75 25.5468 25.75 25.6804V26.3226C25.75 26.6795 25.6969 27.0344 25.5926 27.3756L25.4815 27.7389C25.3278 28.2414 25.1076 28.7212 24.8268 29.1653L24.7505 29.2859C24.5014 29.6798 24.1974 30.0361 23.8476 30.3441C23.5338 30.6204 23.1859 30.8554 22.8124 31.0433L22.7272 31.0862C22.3271 31.2875 21.9045 31.4404 21.4683 31.5417L21.0266 31.6443C20.6767 31.7255 20.3186 31.7666 19.9593 31.7666C19.5712 31.7666 19.1846 31.7187 18.8083 31.624L18.3617 31.5116C18.0382 31.4303 17.7246 31.3135 17.4266 31.1636C17.0605 30.9794 16.721 30.7466 16.4172 30.4715L16.2256 30.2979C15.8268 29.9367 15.4746 29.527 15.1774 29.0784C14.9762 28.7746 14.801 28.4543 14.6538 28.121L14.0031 26.6479C13.918 26.4552 13.8087 26.2743 13.6776 26.1095C13.4778 25.8581 13.2308 25.6482 12.9505 25.4915L12.25 25.0999L12.0396 25.0152C11.764 24.9043 11.4772 24.8235 11.1842 24.7744C10.9784 24.7399 10.7702 24.7211 10.5615 24.7181L2.43632 24.6046C2.0682 24.5994 1.70749 24.5004 1.38835 24.3169L1.20912 24.2138C1.07117 24.1345 0.950939 24.0278 0.855844 23.9002L0.66229 23.6405C0.638078 23.608 0.625 23.5686 0.625 23.528Z" fill="white"/>
<path d="M0 20.4456H17L20 21.7034L20.375 21.955V22.2066L0.25 22.0808L0 21.7034V20.4456Z" fill="white"/>
<path d="M20.25 18.8105H39.875L40 19.0621V20.4458L24.125 20.5716L21.625 19.5653L20.25 18.9363V18.8105Z" fill="#FD9024"/>
<path d="M0.25 17.3008H12.375L13.25 18.1813L14 18.8102V18.936H0.125L0 18.5586L0.25 17.3008Z" fill="white"/>
<path d="M26.3789 21.8291L39.8789 21.9549L39.7539 23.4643L39.6289 23.5901H27.8789L26.3789 22.0807V21.8291Z" fill="#FD9024"/>
</svg>
