<svg width="662" height="800" viewBox="0 0 662 800" fill="none" xmlns="http://www.w3.org/2000/svg">
<rect width="662" height="800" fill="#E6FFFC"/>
<mask id="mask0_2435_82732" style="mask-type:alpha" maskUnits="userSpaceOnUse" x="620" y="9" width="24" height="24">
<rect x="620" y="9" width="24" height="24" fill="#D9D9D9"/>
</mask>
<g mask="url(#mask0_2435_82732)">
<path d="M632.001 22.4L627.101 27.3C626.917 27.4834 626.684 27.575 626.401 27.575C626.117 27.575 625.884 27.4834 625.701 27.3C625.517 27.1167 625.426 26.8834 625.426 26.6C625.426 26.3167 625.517 26.0834 625.701 25.9L630.601 21L625.701 16.1C625.517 15.9167 625.426 15.6834 625.426 15.4C625.426 15.1167 625.517 14.8834 625.701 14.7C625.884 14.5167 626.117 14.425 626.401 14.425C626.684 14.425 626.917 14.5167 627.101 14.7L632.001 19.6L636.901 14.7C637.084 14.5167 637.317 14.425 637.601 14.425C637.884 14.425 638.117 14.5167 638.301 14.7C638.484 14.8834 638.576 15.1167 638.576 15.4C638.576 15.6834 638.484 15.9167 638.301 16.1L633.401 21L638.301 25.9C638.484 26.0834 638.576 26.3167 638.576 26.6C638.576 26.8834 638.484 27.1167 638.301 27.3C638.117 27.4834 637.884 27.575 637.601 27.575C637.317 27.575 637.084 27.4834 636.901 27.3L632.001 22.4Z" fill="#1B998B"/>
</g>
<path fill-rule="evenodd" clip-rule="evenodd" d="M159 254.938V347C159 351.418 162.582 355 167 355H301C305.418 355 309 351.418 309 347V213C309 208.582 305.418 205 301 205H189.552C195.359 205.038 199.199 211.068 196.76 216.352L191.611 227.509C190.593 229.715 190.633 232.265 191.72 234.439L196.211 243.422C198.871 248.741 195.003 255 189.056 255H160C159.661 255 159.328 254.979 159 254.938Z" fill="#1B998B" fill-opacity="0.2"/>
<g clip-path="url(#clip0_2435_82732)">
<path opacity="0.25" d="M262.334 264.667C261.009 264.668 259.703 264.987 258.526 265.596C257.349 266.205 256.335 267.086 255.567 268.167L240.467 261.46C240.718 260.318 240.725 259.136 240.489 257.991C240.252 256.846 239.777 255.764 239.095 254.815C238.413 253.865 237.538 253.07 236.529 252.481C235.519 251.892 234.396 251.522 233.234 251.395C232.072 251.268 230.896 251.387 229.783 251.745C228.67 252.102 227.645 252.69 226.774 253.47C225.903 254.25 225.206 255.205 224.728 256.272C224.25 257.339 224.002 258.494 224.001 259.663L207.954 271.7C207.214 271.468 206.443 271.344 205.667 271.333C203.457 271.333 201.338 272.211 199.775 273.774C198.212 275.337 197.334 277.456 197.334 279.667C197.334 281.877 198.212 283.996 199.775 285.559C201.338 287.122 203.457 288 205.667 288C205.717 288 205.761 287.987 205.811 287.987L208.941 302.073C207.688 302.629 206.592 303.484 205.75 304.565C204.908 305.645 204.345 306.917 204.112 308.267C203.879 309.617 203.983 311.004 204.415 312.304C204.846 313.604 205.592 314.778 206.586 315.721C207.58 316.664 208.791 317.347 210.113 317.709C211.434 318.071 212.824 318.102 214.16 317.798C215.496 317.495 216.736 316.866 217.771 315.968C218.805 315.069 219.602 313.93 220.091 312.65L233.151 314.823C231.758 313.667 230.53 312.326 229.501 310.837L220.634 309.36C220.586 307.835 220.118 306.352 219.281 305.077L226.071 298.287C226.212 296.175 226.696 294.1 227.504 292.143L216.924 302.72C215.564 301.815 213.967 301.332 212.334 301.333C212.284 301.333 212.241 301.347 212.194 301.347L209.061 287.26C210.927 286.421 212.422 284.927 213.261 283.06L227.347 286.193C227.347 286.24 227.334 286.283 227.334 286.333C227.339 287.724 227.697 289.091 228.374 290.307C229.022 289.12 229.791 288.003 230.667 286.973V284.667C230.667 283.783 231.019 282.935 231.644 282.31C232.269 281.684 233.117 281.333 234.001 281.333H237.334C237.613 281.353 237.889 281.409 238.154 281.5C239.225 281.056 240.334 280.71 241.467 280.463C240.089 279.076 238.262 278.225 236.314 278.063L234.994 267.523C236.644 266.968 238.079 265.909 239.097 264.497L254.204 271.21C253.899 272.509 253.938 273.864 254.317 275.143L244.487 280.06C244.881 280.037 245.271 280 245.667 280C247.367 280.006 249.059 280.233 250.701 280.677L255.811 278.123C256.625 279.167 257.676 280.003 258.877 280.56L258.001 284.367C259.019 285.187 259.953 286.106 260.791 287.11L262.124 281.31C262.197 281.313 262.264 281.333 262.334 281.333C264.544 281.333 266.664 280.455 268.227 278.892C269.789 277.33 270.667 275.21 270.667 273C270.667 270.79 269.789 268.67 268.227 267.107C266.664 265.545 264.544 264.667 262.334 264.667ZM210.667 304.667H214.001C214.885 304.667 215.733 305.018 216.358 305.643C216.983 306.268 217.334 307.116 217.334 308V311.333C217.334 312.217 216.983 313.065 216.358 313.69C215.733 314.315 214.885 314.667 214.001 314.667H210.667C209.783 314.667 208.935 314.315 208.31 313.69C207.685 313.065 207.334 312.217 207.334 311.333V308C207.334 307.116 207.685 306.268 208.31 305.643C208.935 305.018 209.783 304.667 210.667 304.667ZM207.334 284.667H204.001C203.117 284.667 202.269 284.315 201.644 283.69C201.019 283.065 200.667 282.217 200.667 281.333V278C200.667 277.116 201.019 276.268 201.644 275.643C202.269 275.018 203.117 274.667 204.001 274.667H207.334C208.218 274.667 209.066 275.018 209.691 275.643C210.316 276.268 210.667 277.116 210.667 278V281.333C210.652 281.669 210.585 282.001 210.467 282.317C210.265 282.992 209.852 283.585 209.288 284.008C208.724 284.431 208.039 284.662 207.334 284.667ZM228.074 282.94L213.987 279.807C213.987 279.76 214.001 279.717 214.001 279.67L230.057 267.627C230.59 267.783 231.137 267.886 231.691 267.933L233.007 278.477C231.923 278.842 230.925 279.427 230.076 280.195C229.227 280.963 228.546 281.897 228.074 282.94ZM237.334 261.333C237.334 262.217 236.983 263.065 236.358 263.69C235.733 264.315 234.885 264.667 234.001 264.667H230.667C229.783 264.667 228.935 264.315 228.31 263.69C227.685 263.065 227.334 262.217 227.334 261.333V258C227.349 257.664 227.417 257.332 227.534 257.017C227.736 256.341 228.149 255.748 228.713 255.325C229.277 254.902 229.962 254.671 230.667 254.667H234.001C234.885 254.667 235.733 255.018 236.358 255.643C236.983 256.268 237.334 257.116 237.334 258V261.333ZM267.334 274.667C267.334 275.551 266.983 276.398 266.358 277.024C265.733 277.649 264.885 278 264.001 278H260.667C259.783 278 258.935 277.649 258.31 277.024C257.685 276.398 257.334 275.551 257.334 274.667V271.333C257.334 270.449 257.685 269.601 258.31 268.976C258.935 268.351 259.783 268 260.667 268H264.001C264.885 268 265.733 268.351 266.358 268.976C266.983 269.601 267.334 270.449 267.334 271.333V274.667ZM253.977 321.333L256.277 323.63C255.242 324.208 254.094 324.554 252.912 324.644C251.731 324.734 250.543 324.567 249.432 324.153C248.322 323.74 247.314 323.09 246.479 322.248C245.644 321.407 245.002 320.394 244.597 319.28C244.954 319.297 245.307 319.333 245.667 319.333C246.304 319.313 246.939 319.261 247.571 319.177C247.806 319.808 248.229 320.353 248.782 320.739C249.335 321.124 249.993 321.332 250.667 321.333H253.977Z" fill="#1B998B"/>
<path d="M226.834 265.877C228.394 267.256 230.411 268.007 232.494 267.983C234.577 267.959 236.576 267.162 238.104 265.747C239.633 264.331 240.581 262.399 240.764 260.324C240.948 258.25 240.355 256.181 239.099 254.519C237.843 252.857 236.015 251.721 233.969 251.332C231.923 250.942 229.805 251.326 228.027 252.41C226.248 253.493 224.935 255.199 224.343 257.196C223.752 259.193 223.923 261.339 224.824 263.217L211.17 273.457C209.743 272.206 207.929 271.482 206.033 271.406C204.136 271.33 202.271 271.906 200.747 273.039C199.224 274.172 198.135 275.792 197.662 277.631C197.189 279.469 197.361 281.414 198.148 283.141C198.935 284.868 200.29 286.274 201.988 287.123C203.686 287.972 205.623 288.213 207.477 287.807C209.332 287.4 210.99 286.371 212.177 284.889C213.364 283.408 214.008 281.565 214 279.667C213.994 278.437 213.713 277.224 213.177 276.117L226.834 265.877ZM227.334 261.333V258C227.334 257.116 227.685 256.268 228.31 255.643C228.935 255.018 229.783 254.667 230.667 254.667H234C234.884 254.667 235.732 255.018 236.357 255.643C236.982 256.268 237.334 257.116 237.334 258V261.333C237.334 262.217 236.982 263.065 236.357 263.69C235.732 264.315 234.884 264.667 234 264.667H230.667C229.783 264.667 228.935 264.315 228.31 263.69C227.685 263.065 227.334 262.217 227.334 261.333ZM210.667 278V281.333C210.667 282.217 210.316 283.065 209.691 283.69C209.066 284.315 208.218 284.667 207.334 284.667H204C203.116 284.667 202.268 284.315 201.643 283.69C201.018 283.065 200.667 282.217 200.667 281.333V278C200.667 277.116 201.018 276.268 201.643 275.643C202.268 275.018 203.116 274.667 204 274.667H207.334C208.218 274.667 209.066 275.018 209.691 275.643C210.316 276.268 210.667 277.116 210.667 278ZM263.167 310.873C262.75 310.457 262.185 310.224 261.595 310.224C261.006 310.224 260.441 310.457 260.024 310.873L259.61 311.287L257.087 308.763C259.455 305.799 260.598 302.04 260.28 298.26C259.963 294.479 258.209 290.964 255.379 288.437C252.549 285.909 248.859 284.562 245.067 284.672C241.274 284.781 237.668 286.34 234.989 289.026C232.311 291.713 230.763 295.324 230.664 299.116C230.565 302.909 231.923 306.595 234.459 309.418C236.994 312.24 240.515 313.984 244.296 314.29C248.078 314.597 251.833 313.443 254.79 311.067L257.31 313.587L256.877 314.017C256.461 314.434 256.228 314.999 256.228 315.588C256.228 316.177 256.461 316.743 256.877 317.16L263.734 324.01C263.94 324.216 264.185 324.38 264.454 324.491C264.723 324.603 265.012 324.66 265.304 324.66C265.595 324.66 265.884 324.603 266.153 324.491C266.423 324.38 266.668 324.216 266.874 324.01L269.984 320.903C270.194 320.693 270.361 320.443 270.475 320.168C270.589 319.893 270.648 319.598 270.648 319.3C270.648 319.002 270.589 318.707 270.475 318.432C270.361 318.157 270.194 317.907 269.984 317.697L263.167 310.873ZM234.334 299.667C234.334 297.425 234.998 295.234 236.244 293.37C237.489 291.506 239.259 290.054 241.33 289.196C243.401 288.338 245.68 288.114 247.878 288.551C250.076 288.988 252.096 290.068 253.681 291.653C255.266 293.238 256.345 295.257 256.783 297.456C257.22 299.654 256.995 301.933 256.138 304.004C255.28 306.075 253.827 307.845 251.963 309.09C250.1 310.335 247.909 311 245.667 311C242.662 310.996 239.782 309.801 237.657 307.677C235.532 305.552 234.337 302.671 234.334 299.667Z" fill="#1B998B"/>
</g>
<path fill-rule="evenodd" clip-rule="evenodd" d="M362 205C357.582 205 354 208.582 354 213V347C354 351.418 357.582 355 362 355H496C500.418 355 504 351.418 504 347V253.245C502.63 254.343 500.892 255 499 255H469.944C463.997 255 460.129 248.742 462.789 243.422L467.28 234.439C468.367 232.265 468.407 229.715 467.389 227.509L462.24 216.352C459.793 211.052 463.665 205 469.503 205H362Z" fill="#1B998B" fill-opacity="0.2"/>
<g clip-path="url(#clip1_2435_82732)">
<path d="M418.934 267.859L416.619 268.803L418.508 273.433L420.822 272.488L418.934 267.859Z" fill="#1B998B"/>
<path d="M407.204 275.948L405.672 277.923L409.622 280.988L411.155 279.013L407.204 275.948Z" fill="#1B998B"/>
<path d="M401.089 288.819L400.75 291.296L405.704 291.975L406.043 289.498L401.089 288.819Z" fill="#1B998B"/>
<path d="M406.858 301.135L402.229 303.023L403.173 305.338L407.802 303.45L406.858 301.135Z" fill="#1B998B"/>
<path d="M413.382 310.806L410.316 314.756L412.291 316.289L415.357 312.339L413.382 310.806Z" fill="#1B998B"/>
<path d="M450.626 295.617L450.287 298.094L455.241 298.772L455.58 296.296L450.626 295.617Z" fill="#1B998B"/>
<path d="M453.155 282.25L448.525 284.138L449.47 286.453L454.099 284.565L453.155 282.25Z" fill="#1B998B"/>
<path d="M444.036 271.302L440.971 275.252L442.946 276.785L446.011 272.835L444.036 271.302Z" fill="#1B998B"/>
<path d="M430.66 266.379L429.98 271.333L432.457 271.673L433.137 266.719L430.66 266.379Z" fill="#1B998B"/>
<path d="M445.054 285.555C443.042 280.622 439.009 276.767 433.989 274.976C428.898 273.159 423.458 273.597 418.671 276.196C411.116 280.303 407.302 289.299 409.604 297.584C410.784 301.837 413.289 305.411 416.845 307.922C420.091 310.215 422.956 313.134 425.384 316.528L421.83 317.978L422.774 320.293L426.804 318.649C427.247 319.359 427.673 320.084 428.079 320.829L424.876 322.136L425.82 324.45L429.22 323.063C429.564 323.792 429.901 324.527 430.21 325.284L431.181 327.664L449.699 320.11L448.529 317.24C448.289 316.653 448.084 316.053 447.875 315.454L451.283 314.064L450.339 311.749L447.131 313.057C446.909 312.247 446.714 311.427 446.545 310.596L450.552 308.962L449.608 306.647L446.117 308.071C445.563 304.025 445.589 299.771 446.244 295.327C446.728 292.032 446.318 288.653 445.054 285.555ZM446.214 318.184L446.44 318.739L432.551 324.405L432.525 324.34C432.216 323.583 431.877 322.85 431.534 322.119L445.56 316.398C445.771 316.996 445.975 317.597 446.214 318.184ZM444.804 314.007L430.403 319.881C430.003 319.135 429.585 318.406 429.149 317.692L444.193 311.556C444.372 312.382 444.576 313.199 444.804 314.007ZM443.729 309.045L427.763 315.558C425.102 311.727 421.918 308.444 418.288 305.881C415.208 303.705 413.038 300.605 412.012 296.916C410.02 289.739 413.322 281.949 419.866 278.393C424.028 276.131 428.738 275.756 433.148 277.33C437.501 278.883 440.995 282.224 442.739 286.499C443.834 289.183 444.191 292.11 443.77 294.963C443.047 299.875 443.049 304.578 443.729 309.045Z" fill="#1B998B"/>
<path d="M431.984 284.936L431.015 287.24L436.707 289.634L434.314 295.326L436.618 296.295L439.981 288.299L431.984 284.936Z" fill="#95D6CE"/>
<path d="M421.543 291.104L419.238 290.135L415.875 298.132L423.872 301.495L424.841 299.19L419.149 296.797L421.543 291.104Z" fill="#95D6CE"/>
<path d="M426.307 284.397L426.988 302.156L429.485 302.06L428.804 284.302L426.307 284.397Z" fill="#95D6CE"/>
</g>
<path fill-rule="evenodd" clip-rule="evenodd" d="M167 400C162.582 400 159 403.582 159 408V506.524L175.32 497.101C180.377 494.182 186.755 497.487 187.287 503.301L188.406 515.537C188.627 517.957 189.937 520.146 191.965 521.485L200.346 527.018C205.309 530.295 205.089 537.649 199.938 540.623L183.697 550H301C305.418 550 309 546.418 309 542V408C309 403.582 305.418 400 301 400H167ZM161.001 547.293L159.411 544.539C159.755 545.566 160.301 546.5 161.001 547.293Z" fill="#1B998B" fill-opacity="0.2"/>
<path d="M227.814 470.466C228.847 472.329 228.74 474.616 227.536 476.373L224.761 480.424L248.972 497.011L252.251 495.192L250.995 465.871L246.09 466.081C243.962 466.172 241.964 465.052 240.931 463.19L240.798 462.95L244.077 461.131L236.801 448.014L217.125 458.929L224.402 472.046L227.681 470.227L227.814 470.466ZM246.251 469.827L247.409 469.777L248.184 487.86L241.337 475.517L238.057 477.336L244.904 489.679L229.974 479.451L230.63 478.495C232.649 475.546 232.827 471.772 231.093 468.647L230.96 468.408L237.519 464.77L237.652 465.009C239.385 468.134 242.681 469.981 246.251 469.827ZM222.224 460.389L235.341 453.113L238.979 459.671L225.862 466.948L222.224 460.389Z" fill="#1B998B"/>
<path fill-rule="evenodd" clip-rule="evenodd" d="M496 400C500.418 400 504 403.582 504 408V507.77L490.624 500.047C485.568 497.128 479.189 500.433 478.657 506.247L477.538 518.483C477.317 520.904 476.007 523.092 473.979 524.431L465.598 529.965C460.635 533.242 460.855 540.596 466.006 543.569L477.144 550H362C357.582 550 354 546.418 354 542V408C354 403.582 357.582 400 362 400H496Z" fill="#1B998B" fill-opacity="0.2"/>
<path d="M447.875 466.009L438.991 470.873L442.384 484.292L433.5 475.801L424.616 484.292L428.009 470.873L419.125 466.009L430.107 465.453L433.5 454.708L436.893 465.453L447.875 466.009ZM436.375 445.833V439.917C436.375 439.132 436.072 438.38 435.533 437.825C434.994 437.27 434.262 436.958 433.5 436.958C432.738 436.958 432.006 437.27 431.467 437.825C430.928 438.38 430.625 439.132 430.625 439.917V445.833C430.625 446.618 430.928 447.37 431.467 447.925C432.006 448.48 432.738 448.792 433.5 448.792C434.262 448.792 434.994 448.48 435.533 447.925C436.072 447.37 436.375 446.618 436.375 445.833ZM430.625 493.167V499.083C430.625 499.868 430.928 500.62 431.467 501.175C432.006 501.73 432.738 502.042 433.5 502.042C434.262 502.042 434.994 501.73 435.533 501.175C436.072 500.62 436.375 499.868 436.375 499.083V493.167C436.375 492.382 436.072 491.63 435.533 491.075C434.994 490.52 434.262 490.208 433.5 490.208C432.738 490.208 432.006 490.52 431.467 491.075C430.928 491.63 430.625 492.382 430.625 493.167ZM455.862 446.49C455.323 445.935 454.591 445.624 453.829 445.624C453.067 445.624 452.336 445.935 451.797 446.49L447.731 450.673C447.457 450.946 447.238 451.272 447.087 451.633C446.936 451.994 446.857 452.382 446.854 452.775C446.85 453.168 446.923 453.558 447.068 453.921C447.212 454.285 447.426 454.615 447.696 454.893C447.966 455.171 448.287 455.39 448.64 455.539C448.993 455.688 449.372 455.763 449.754 455.759C450.135 455.756 450.513 455.674 450.863 455.519C451.214 455.364 451.531 455.139 451.797 454.856L455.862 450.673C456.401 450.118 456.704 449.366 456.704 448.582C456.704 447.797 456.401 447.045 455.862 446.49ZM411.138 492.51C411.677 493.064 412.409 493.376 413.171 493.376C413.933 493.376 414.664 493.064 415.204 492.51L419.269 488.327C419.792 487.769 420.082 487.022 420.076 486.246C420.069 485.47 419.767 484.728 419.234 484.18C418.701 483.631 417.98 483.32 417.226 483.313C416.472 483.307 415.746 483.605 415.204 484.144L411.138 488.327C410.599 488.882 410.296 489.634 410.296 490.418C410.296 491.203 410.599 491.955 411.138 492.51ZM462.25 466.542H456.5C455.738 466.542 455.006 466.853 454.467 467.408C453.928 467.963 453.625 468.715 453.625 469.5C453.625 470.285 453.928 471.037 454.467 471.592C455.006 472.147 455.738 472.458 456.5 472.458H462.25C463.012 472.458 463.744 472.147 464.283 471.592C464.822 471.037 465.125 470.285 465.125 469.5C465.125 468.715 464.822 467.963 464.283 467.408C463.744 466.853 463.012 466.542 462.25 466.542ZM404.75 472.458H410.5C411.262 472.458 411.994 472.147 412.533 471.592C413.072 471.037 413.375 470.285 413.375 469.5C413.375 468.715 413.072 467.963 412.533 467.408C411.994 466.853 411.262 466.542 410.5 466.542H404.75C403.988 466.542 403.256 466.853 402.717 467.408C402.178 467.963 401.875 468.715 401.875 469.5C401.875 470.285 402.178 471.037 402.717 471.592C403.256 472.147 403.988 472.458 404.75 472.458ZM451.797 492.51C452.339 493.049 453.065 493.347 453.819 493.34C454.573 493.333 455.294 493.022 455.827 492.474C456.36 491.925 456.662 491.183 456.669 490.408C456.675 489.632 456.385 488.885 455.862 488.327L451.797 484.144C451.254 483.605 450.528 483.307 449.774 483.313C449.02 483.32 448.299 483.631 447.766 484.18C447.233 484.728 446.931 485.47 446.924 486.246C446.918 487.022 447.208 487.769 447.731 488.327L451.797 492.51ZM419.269 454.856C419.808 454.301 420.111 453.549 420.111 452.765C420.111 451.98 419.808 451.228 419.269 450.673L415.204 446.49C414.661 445.951 413.935 445.653 413.181 445.66C412.427 445.666 411.706 445.978 411.173 446.526C410.64 447.075 410.338 447.817 410.331 448.592C410.325 449.368 410.615 450.115 411.138 450.673L415.204 454.856C415.743 455.411 416.474 455.722 417.236 455.722C417.998 455.722 418.73 455.411 419.269 454.856Z" fill="#1B998B"/>
<path d="M285.783 280L293 287.217L300.217 280L293 272.783L285.783 280ZM366.227 209.545L356.545 212.773L359.773 222.455L369.455 219.227L366.227 209.545ZM331 280V281.25C331.473 281.25 331.906 280.982 332.118 280.559L331 280ZM295.375 281.25C296.065 281.25 296.625 280.69 296.625 280C296.625 279.31 296.065 278.75 295.375 278.75V281.25ZM300.125 278.75C299.435 278.75 298.875 279.31 298.875 280C298.875 280.69 299.435 281.25 300.125 281.25V278.75ZM304.875 281.25C305.565 281.25 306.125 280.69 306.125 280C306.125 279.31 305.565 278.75 304.875 278.75V281.25ZM309.625 278.75C308.935 278.75 308.375 279.31 308.375 280C308.375 280.69 308.935 281.25 309.625 281.25V278.75ZM314.375 281.25C315.065 281.25 315.625 280.69 315.625 280C315.625 279.31 315.065 278.75 314.375 278.75V281.25ZM319.125 278.75C318.435 278.75 317.875 279.31 317.875 280C317.875 280.69 318.435 281.25 319.125 281.25V278.75ZM323.875 281.25C324.565 281.25 325.125 280.69 325.125 280C325.125 279.31 324.565 278.75 323.875 278.75V281.25ZM328.625 278.75C327.935 278.75 327.375 279.31 327.375 280C327.375 280.69 327.935 281.25 328.625 281.25V278.75ZM333.261 278.273C333.57 277.656 333.319 276.905 332.702 276.596C332.084 276.288 331.334 276.538 331.025 277.155L333.261 278.273ZM333.311 272.584C333.002 273.201 333.252 273.952 333.87 274.261C334.487 274.57 335.238 274.319 335.547 273.702L333.311 272.584ZM337.832 269.13C338.141 268.513 337.891 267.762 337.273 267.453C336.656 267.145 335.905 267.395 335.596 268.012L337.832 269.13ZM337.882 263.441C337.573 264.058 337.824 264.809 338.441 265.118C339.058 265.427 339.809 265.176 340.118 264.559L337.882 263.441ZM342.404 259.988C342.712 259.37 342.462 258.619 341.845 258.311C341.227 258.002 340.476 258.252 340.168 258.87L342.404 259.988ZM342.453 254.298C342.145 254.916 342.395 255.666 343.012 255.975C343.63 256.284 344.381 256.034 344.689 255.416L342.453 254.298ZM346.975 250.845C347.284 250.227 347.034 249.476 346.416 249.168C345.799 248.859 345.048 249.109 344.739 249.727L346.975 250.845ZM347.025 245.155C346.716 245.773 346.966 246.524 347.584 246.832C348.201 247.141 348.952 246.891 349.261 246.273L347.025 245.155ZM351.547 241.702C351.855 241.084 351.605 240.334 350.988 240.025C350.37 239.716 349.619 239.966 349.311 240.584L351.547 241.702ZM351.596 236.012C351.288 236.63 351.538 237.381 352.155 237.689C352.773 237.998 353.524 237.748 353.832 237.13L351.596 236.012ZM356.118 232.559C356.427 231.942 356.176 231.191 355.559 230.882C354.942 230.573 354.191 230.824 353.882 231.441L356.118 232.559ZM356.168 226.87C355.859 227.487 356.109 228.238 356.727 228.547C357.344 228.855 358.095 228.605 358.404 227.988L356.168 226.87ZM360.689 223.416C360.998 222.799 360.748 222.048 360.13 221.739C359.513 221.43 358.762 221.681 358.453 222.298L360.689 223.416ZM360.739 217.727C360.43 218.344 360.681 219.095 361.298 219.404C361.916 219.712 362.666 219.462 362.975 218.845L360.739 217.727ZM293 281.25H295.375V278.75H293V281.25ZM300.125 281.25H304.875V278.75H300.125V281.25ZM309.625 281.25H314.375V278.75H309.625V281.25ZM319.125 281.25H323.875V278.75H319.125V281.25ZM328.625 281.25H331V278.75H328.625V281.25ZM332.118 280.559L333.261 278.273L331.025 277.155L329.882 279.441L332.118 280.559ZM335.547 273.702L337.832 269.13L335.596 268.012L333.311 272.584L335.547 273.702ZM340.118 264.559L342.404 259.988L340.168 258.87L337.882 263.441L340.118 264.559ZM344.689 255.416L346.975 250.845L344.739 249.727L342.453 254.298L344.689 255.416ZM349.261 246.273L351.547 241.702L349.311 240.584L347.025 245.155L349.261 246.273ZM353.832 237.13L356.118 232.559L353.882 231.441L351.596 236.012L353.832 237.13ZM358.404 227.988L360.689 223.416L358.453 222.298L356.168 226.87L358.404 227.988ZM362.975 218.845L364.118 216.559L361.882 215.441L360.739 217.727L362.975 218.845Z" fill="#1B998B" fill-opacity="0.5"/>
<path d="M331 475L331 280" stroke="#1B998B" stroke-opacity="0.5" stroke-width="2.5" stroke-linecap="square" stroke-linejoin="round" stroke-dasharray="5 5"/>
<path d="M292.241 540.161L302.161 537.759L299.759 527.839L289.84 530.241L292.241 540.161ZM389.34 475L382.123 467.783L374.906 475L382.123 482.217L389.34 475ZM332 475L332 473.75C331.564 473.75 331.16 473.977 330.933 474.349L332 475ZM298.353 532.544C298.713 531.955 298.526 531.185 297.937 530.826C297.348 530.466 296.578 530.652 296.219 531.242L298.353 532.544ZM298.79 527.027C298.431 527.617 298.617 528.386 299.206 528.745C299.796 529.105 300.565 528.919 300.924 528.33L298.79 527.027ZM303.496 524.115C303.855 523.526 303.669 522.757 303.08 522.397C302.49 522.038 301.721 522.224 301.362 522.813L303.496 524.115ZM303.933 518.599C303.574 519.188 303.76 519.957 304.349 520.317C304.938 520.676 305.708 520.49 306.067 519.901L303.933 518.599ZM308.639 515.687C308.998 515.097 308.812 514.328 308.223 513.969C307.633 513.609 306.864 513.795 306.505 514.384L308.639 515.687ZM309.076 510.17C308.716 510.759 308.903 511.529 309.492 511.888C310.081 512.248 310.85 512.062 311.21 511.472L309.076 510.17ZM313.781 507.258C314.141 506.669 313.955 505.899 313.365 505.54C312.776 505.18 312.007 505.367 311.647 505.956L313.781 507.258ZM314.219 501.742C313.859 502.331 314.045 503.1 314.635 503.46C315.224 503.819 315.993 503.633 316.353 503.044L314.219 501.742ZM318.924 498.829C319.284 498.24 319.098 497.471 318.508 497.111C317.919 496.752 317.15 496.938 316.79 497.527L318.924 498.829ZM319.362 493.313C319.002 493.902 319.188 494.672 319.778 495.031C320.367 495.391 321.136 495.204 321.496 494.615L319.362 493.313ZM324.067 490.401C324.427 489.812 324.24 489.042 323.651 488.683C323.062 488.323 322.293 488.509 321.933 489.099L324.067 490.401ZM324.504 484.884C324.145 485.474 324.331 486.243 324.92 486.603C325.51 486.962 326.279 486.776 326.639 486.187L324.504 484.884ZM329.21 481.972C329.57 481.383 329.383 480.614 328.794 480.254C328.205 479.895 327.435 480.081 327.076 480.67L329.21 481.972ZM329.647 476.456C329.288 477.045 329.474 477.814 330.063 478.174C330.653 478.534 331.422 478.347 331.781 477.758L329.647 476.456ZM334.506 476.25C335.197 476.25 335.756 475.69 335.756 475C335.756 474.309 335.197 473.75 334.506 473.75L334.506 476.25ZM339.518 473.75C338.828 473.75 338.268 474.309 338.268 475C338.268 475.69 338.828 476.25 339.518 476.25L339.518 473.75ZM344.531 476.25C345.221 476.25 345.781 475.69 345.781 475C345.781 474.309 345.221 473.75 344.531 473.75L344.531 476.25ZM349.543 473.75C348.853 473.75 348.293 474.309 348.293 475C348.293 475.69 348.853 476.25 349.543 476.25L349.543 473.75ZM354.555 476.25C355.246 476.25 355.805 475.69 355.805 475C355.805 474.309 355.246 473.75 354.555 473.75L354.555 476.25ZM359.567 473.75C358.877 473.75 358.317 474.309 358.317 475C358.317 475.69 358.877 476.25 359.567 476.25L359.567 473.75ZM364.58 476.25C365.27 476.25 365.83 475.69 365.83 475C365.83 474.309 365.27 473.75 364.58 473.75L364.58 476.25ZM369.592 473.75C368.902 473.75 368.342 474.309 368.342 475C368.342 475.69 368.902 476.25 369.592 476.25L369.592 473.75ZM374.604 476.25C375.295 476.25 375.854 475.69 375.854 475C375.854 474.31 375.295 473.75 374.604 473.75L374.604 476.25ZM379.617 473.75C378.926 473.75 378.367 474.31 378.367 475C378.367 475.69 378.926 476.25 379.617 476.25L379.617 473.75ZM297.067 534.651L298.353 532.544L296.219 531.242L294.933 533.349L297.067 534.651ZM300.924 528.33L303.496 524.115L301.362 522.813L298.79 527.027L300.924 528.33ZM306.067 519.901L308.639 515.687L306.505 514.384L303.933 518.599L306.067 519.901ZM311.21 511.472L313.781 507.258L311.647 505.956L309.076 510.17L311.21 511.472ZM316.353 503.044L318.924 498.829L316.79 497.527L314.219 501.742L316.353 503.044ZM321.496 494.615L324.067 490.401L321.933 489.099L319.362 493.313L321.496 494.615ZM326.639 486.187L329.21 481.972L327.076 480.67L324.504 484.884L326.639 486.187ZM331.781 477.758L333.067 475.651L330.933 474.349L329.647 476.456L331.781 477.758ZM332 476.25L334.506 476.25L334.506 473.75L332 473.75L332 476.25ZM339.518 476.25L344.531 476.25L344.531 473.75L339.518 473.75L339.518 476.25ZM349.543 476.25L354.555 476.25L354.555 473.75L349.543 473.75L349.543 476.25ZM359.567 476.25L364.58 476.25L364.58 473.75L359.567 473.75L359.567 476.25ZM369.592 476.25L374.604 476.25L374.604 473.75L369.592 473.75L369.592 476.25ZM379.617 476.25L382.123 476.25L382.123 473.75L379.617 473.75L379.617 476.25Z" fill="#1B998B" fill-opacity="0.5"/>
<path d="M238.73 512.58C245.467 495.157 252.792 490.361 272.341 490.895" stroke="#95D6CE" stroke-width="3"/>
<path d="M424 437.263C431.554 426.275 435.931 426.216 444 437.263" stroke="#95D6CE" stroke-width="1.5"/>
<defs>
<clipPath id="clip0_2435_82732">
<rect width="80" height="80" fill="white" transform="translate(194 248)"/>
</clipPath>
<clipPath id="clip1_2435_82732">
<rect width="60" height="60" fill="white" transform="translate(390 279.662) rotate(-22.1911)"/>
</clipPath>
</defs>
</svg>
