<svg width="662" height="800" viewBox="0 0 662 800" fill="none" xmlns="http://www.w3.org/2000/svg">
<rect width="662" height="800" fill="#F5ECC0"/>
<mask id="mask0_2435_82614" style="mask-type:alpha" maskUnits="userSpaceOnUse" x="620" y="9" width="24" height="24">
<rect x="620" y="9" width="24" height="24" fill="#D9D9D9"/>
</mask>
<g mask="url(#mask0_2435_82614)">
<path d="M632.001 22.4L627.101 27.3C626.917 27.4834 626.684 27.575 626.401 27.575C626.117 27.575 625.884 27.4834 625.701 27.3C625.517 27.1167 625.426 26.8834 625.426 26.6C625.426 26.3167 625.517 26.0834 625.701 25.9L630.601 21L625.701 16.1C625.517 15.9167 625.426 15.6834 625.426 15.4C625.426 15.1167 625.517 14.8834 625.701 14.7C625.884 14.5167 626.117 14.425 626.401 14.425C626.684 14.425 626.917 14.5167 627.101 14.7L632.001 19.6L636.901 14.7C637.084 14.5167 637.317 14.425 637.601 14.425C637.884 14.425 638.117 14.5167 638.301 14.7C638.484 14.8834 638.576 15.1167 638.576 15.4C638.576 15.6834 638.484 15.9167 638.301 16.1L633.401 21L638.301 25.9C638.484 26.0834 638.576 26.3167 638.576 26.6C638.576 26.8834 638.484 27.1167 638.301 27.3C638.117 27.4834 637.884 27.575 637.601 27.575C637.317 27.575 637.084 27.4834 636.901 27.3L632.001 22.4Z" fill="#AD8B23"/>
</g>
<path d="M582 532.4H82V532.65H582V532.4Z" fill="#EBEBEB"/>
<path d="M219.659 539.21H186.539V539.46H219.659V539.21Z" fill="#EBEBEB"/>
<path d="M293.891 548.37H253.141V548.62H293.891V548.37Z" fill="#EBEBEB"/>
<path d="M185.541 545.24H134.461V545.49H185.541V545.24Z" fill="#EBEBEB"/>
<path d="M531.9 540.89H438.76V541.14H531.9V540.89Z" fill="#EBEBEB"/>
<path d="M401.441 545.11H359.211V545.36H401.441V545.11Z" fill="#EBEBEB"/>
<path d="M319.001 487.8H125.911C124.398 487.797 122.948 487.195 121.88 486.124C120.811 485.053 120.211 483.603 120.211 482.09V210.66C120.224 209.156 120.83 207.718 121.897 206.658C122.965 205.598 124.407 205.003 125.911 205H319.001C320.515 205 321.968 205.602 323.039 206.672C324.109 207.743 324.711 209.196 324.711 210.71V482.09C324.711 483.604 324.109 485.057 323.039 486.128C321.968 487.198 320.515 487.8 319.001 487.8ZM125.911 205.2C124.465 205.203 123.078 205.779 122.057 206.803C121.035 207.826 120.461 209.214 120.461 210.66V482.09C120.461 483.536 121.035 484.924 122.057 485.947C123.078 486.971 124.465 487.547 125.911 487.55H319.001C320.447 487.545 321.833 486.968 322.856 485.945C323.879 484.922 324.456 483.536 324.461 482.09V210.66C324.456 209.214 323.879 207.828 322.856 206.805C321.833 205.782 320.447 205.205 319.001 205.2H125.911Z" fill="#EBEBEB"/>
<path d="M535.31 487.8H342.21C340.697 487.795 339.248 487.191 338.178 486.122C337.109 485.052 336.505 483.603 336.5 482.09V210.66C336.516 209.155 337.124 207.717 338.193 206.658C339.262 205.598 340.705 205.003 342.21 205H535.31C536.812 205.005 538.252 205.602 539.317 206.662C540.382 207.721 540.987 209.158 541 210.66V482.09C541.001 482.839 540.855 483.58 540.57 484.272C540.285 484.964 539.866 485.593 539.338 486.123C538.809 486.654 538.182 487.075 537.491 487.362C536.799 487.65 536.059 487.799 535.31 487.8ZM342.21 205.2C340.764 205.205 339.378 205.782 338.355 206.805C337.332 207.828 336.755 209.214 336.75 210.66V482.09C336.755 483.536 337.332 484.922 338.355 485.945C339.378 486.968 340.764 487.545 342.21 487.55H535.31C536.756 487.545 538.142 486.968 539.165 485.945C540.188 484.922 540.765 483.536 540.77 482.09V210.66C540.765 209.214 540.188 207.828 539.165 206.805C538.142 205.782 536.756 205.205 535.31 205.2H342.21Z" fill="#EBEBEB"/>
<path d="M323.16 266.672L325.928 265.12H327.528V276H325.64V267.232L324.008 268.128L323.16 266.672ZM330.103 270.384L330.423 265.12H335.991V266.928H332.119L331.975 269.328C332.349 269.232 332.749 269.184 333.175 269.184C334.231 269.184 335.058 269.461 335.655 270.016C336.253 270.56 336.551 271.365 336.551 272.432V272.864C336.551 273.461 336.429 274.011 336.183 274.512C335.938 275.013 335.543 275.413 334.999 275.712C334.466 276.011 333.757 276.16 332.871 276.16C332.381 276.16 331.869 276.101 331.335 275.984C330.813 275.867 330.237 275.669 329.607 275.392L330.199 273.744C330.765 273.968 331.239 274.133 331.623 274.24C332.018 274.336 332.413 274.384 332.807 274.384C333.405 274.384 333.853 274.261 334.151 274.016C334.461 273.771 334.615 273.387 334.615 272.864V272.432C334.615 271.963 334.477 271.589 334.199 271.312C333.933 271.035 333.501 270.896 332.903 270.896C332.637 270.896 332.359 270.933 332.071 271.008C331.783 271.072 331.474 271.168 331.143 271.296L330.103 270.384ZM346.048 269.408V271.696C346.048 273.083 345.723 274.176 345.072 274.976C344.421 275.765 343.467 276.16 342.208 276.16C340.949 276.16 339.995 275.765 339.344 274.976C338.693 274.176 338.368 273.083 338.368 271.696V269.408C338.368 268.021 338.693 266.933 339.344 266.144C339.995 265.355 340.949 264.96 342.208 264.96C343.467 264.96 344.421 265.355 345.072 266.144C345.723 266.933 346.048 268.021 346.048 269.408ZM344.112 269.408C344.112 267.627 343.477 266.736 342.208 266.736C341.557 266.736 341.077 266.96 340.768 267.408C340.459 267.856 340.304 268.523 340.304 269.408V271.696C340.304 272.581 340.459 273.253 340.768 273.712C341.077 274.16 341.557 274.384 342.208 274.384C343.477 274.384 344.112 273.488 344.112 271.696V269.408ZM355.814 269.408V271.696C355.814 273.083 355.488 274.176 354.838 274.976C354.187 275.765 353.232 276.16 351.974 276.16C350.715 276.16 349.76 275.765 349.11 274.976C348.459 274.176 348.134 273.083 348.134 271.696V269.408C348.134 268.021 348.459 266.933 349.11 266.144C349.76 265.355 350.715 264.96 351.974 264.96C353.232 264.96 354.187 265.355 354.838 266.144C355.488 266.933 355.814 268.021 355.814 269.408ZM353.878 269.408C353.878 267.627 353.243 266.736 351.974 266.736C351.323 266.736 350.843 266.96 350.534 267.408C350.224 267.856 350.07 268.523 350.07 269.408V271.696C350.07 272.581 350.224 273.253 350.534 273.712C350.843 274.16 351.323 274.384 351.974 274.384C353.243 274.384 353.878 273.488 353.878 271.696V269.408Z" fill="#A2845E"/>
<path d="M343 287.666C344.473 287.666 345.667 286.472 345.667 285C345.667 283.527 344.473 282.333 343 282.333C341.527 282.333 340.333 283.527 340.333 285C340.333 286.472 341.527 287.666 343 287.666ZM343.5 451.048V448.606H342.5V451.048H343.5ZM343.5 443.722V438.838H342.5V443.722H343.5ZM343.5 433.955V429.071H342.5V433.955H343.5ZM343.5 424.187V419.303H342.5V424.187H343.5ZM343.5 414.42V409.536H342.5V414.42H343.5ZM343.5 404.652V399.768H342.5V404.652H343.5ZM343.5 394.884V390.001H342.5V394.884H343.5ZM343.5 385.117V380.233H342.5V385.117H343.5ZM343.5 375.349V370.466H342.5V375.349H343.5ZM343.5 365.582V360.698H342.5V365.582H343.5ZM343.5 355.814V350.931H342.5V355.814H343.5ZM343.5 346.047V341.163H342.5V346.047H343.5ZM343.5 336.279V331.395H342.5V336.279H343.5ZM343.5 326.512V321.628H342.5V326.512H343.5ZM343.5 316.744V311.86H342.5V316.744H343.5ZM343.5 306.977V302.093H342.5V306.977H343.5ZM343.5 297.209V292.325H342.5V297.209H343.5ZM343.5 287.441V285H342.5V287.441H343.5Z" fill="#A2845E"/>
<path d="M326.1 571.07L319.84 602.83H340.85L338.72 571.07H326.1Z" fill="#AD8B23"/>
<path d="M345.74 571.07L354.74 602.83H368.82L357.28 571.07H345.74Z" fill="#AD8B23"/>
<path d="M365.201 571.07L383.721 602.83H399.701L375.631 571.07H365.201Z" fill="#AD8B23"/>
<path d="M383.99 571.07L414.68 602.83H433.79L395.44 571.07H383.99Z" fill="#AD8B23"/>
<path d="M318.26 571.07L309.26 602.83H295.18L306.72 571.07H318.26Z" fill="#AD8B23"/>
<path d="M298.801 571.07L280.281 602.83H264.301L288.371 571.07H298.801Z" fill="#AD8B23"/>
<path d="M280.011 571.07L249.321 602.83H230.211L268.561 571.07H280.011Z" fill="#AD8B23"/>
<path opacity="0.4" d="M326.1 571.07L319.84 602.83H340.85L338.72 571.07H326.1Z" fill="white"/>
<path opacity="0.4" d="M345.74 571.07L354.74 602.83H368.82L357.28 571.07H345.74Z" fill="white"/>
<path opacity="0.4" d="M365.201 571.07L383.721 602.83H399.701L375.631 571.07H365.201Z" fill="white"/>
<path opacity="0.4" d="M383.99 571.07L414.68 602.83H433.79L395.44 571.07H383.99Z" fill="white"/>
<path opacity="0.4" d="M318.26 571.07L309.26 602.83H295.18L306.72 571.07H318.26Z" fill="white"/>
<path opacity="0.4" d="M298.801 571.07L280.281 602.83H264.301L288.371 571.07H298.801Z" fill="white"/>
<path opacity="0.4" d="M280.011 571.07L249.321 602.83H230.211L268.561 571.07H280.011Z" fill="white"/>
<path d="M182.661 559.11C186.341 558.98 189.953 558.084 193.267 556.479C196.581 554.874 199.525 552.596 201.909 549.79C204.293 546.984 206.067 543.712 207.115 540.182C208.164 536.652 208.466 532.943 208.001 529.29C207.341 524.08 205.161 519.21 203.621 514.19C200.711 504.7 199.781 493.99 193.101 486.64C191.039 484.38 188.529 482.574 185.73 481.338C182.931 480.103 179.905 479.465 176.846 479.465C173.786 479.465 170.76 480.103 167.961 481.338C165.163 482.574 162.652 484.38 160.591 486.64C156.261 491.39 154.211 497.81 153.321 504.18C152.431 510.55 152.551 517 152.001 523.37C151.501 528.68 150.491 533.98 150.711 539.31C150.931 544.64 152.531 550.19 156.441 553.82C158.437 555.522 160.666 556.929 163.061 558C165.366 559.284 167.866 560.182 170.461 560.66C171.761 560.89 173.097 560.826 174.369 560.471C175.641 560.116 176.817 559.48 177.811 558.61C179.394 559.012 181.028 559.18 182.661 559.11Z" fill="#AD8B23"/>
<path opacity="0.7" d="M182.661 559.11C186.341 558.98 189.953 558.084 193.267 556.479C196.581 554.874 199.525 552.596 201.909 549.79C204.293 546.984 206.067 543.712 207.115 540.182C208.164 536.652 208.466 532.943 208.001 529.29C207.341 524.08 205.161 519.21 203.621 514.19C200.711 504.7 199.781 493.99 193.101 486.64C191.039 484.38 188.529 482.574 185.73 481.338C182.931 480.103 179.905 479.465 176.846 479.465C173.786 479.465 170.76 480.103 167.961 481.338C165.163 482.574 162.652 484.38 160.591 486.64C156.261 491.39 154.211 497.81 153.321 504.18C152.431 510.55 152.551 517 152.001 523.37C151.501 528.68 150.491 533.98 150.711 539.31C150.931 544.64 152.531 550.19 156.441 553.82C158.437 555.522 160.666 556.929 163.061 558C165.366 559.284 167.866 560.182 170.461 560.66C171.761 560.89 173.097 560.826 174.369 560.471C175.641 560.116 176.817 559.48 177.811 558.61C179.394 559.012 181.028 559.18 182.661 559.11Z" fill="white"/>
<path d="M170.43 578.5V577.17L172.64 575.3C172.64 575.3 175.28 548.3 175.73 540.48C176.18 532.66 176.73 520.34 173.85 511.4C176.401 517.496 178.217 523.874 179.26 530.4C179.26 530.4 182.68 518.1 188.75 510.27C188.75 510.27 181.35 529.17 182.35 546.75C182.848 556.74 184.102 566.679 186.1 576.48L187.42 577.36L187.53 578.47L170.43 578.5Z" fill="#AD8B23"/>
<path d="M177.18 535.12C177.18 535.12 175.26 526.6 170.09 522.38C170.09 522.38 174.42 528.38 175.84 538.46C177.26 548.54 178.77 542.14 178.77 542.14L177.18 535.12Z" fill="#AD8B23"/>
<path d="M174.921 558.17C174.305 556.079 172.928 554.295 171.061 553.17C171.061 553.17 173.061 555.09 173.981 561.24C174.901 567.39 177.201 564 177.201 564L177.381 560.61L174.921 558.17Z" fill="#AD8B23"/>
<path opacity="0.2" d="M174.001 561.23C173.001 555.08 171.081 553.16 171.081 553.16C172.504 554.038 173.653 555.295 174.401 556.79C175.001 550.24 175.561 543.71 175.751 540.48C175.751 539.84 175.821 539.16 175.851 538.48C174.431 528.36 170.111 522.4 170.111 522.4C173.111 524.85 175.021 528.76 176.111 531.6C176.201 524.94 175.811 517.42 173.891 511.42C176.443 517.516 178.259 523.894 179.301 530.42C179.301 530.42 182.721 518.12 188.791 510.29C188.791 510.29 181.391 529.19 182.391 546.77C182.89 556.76 184.143 566.699 186.141 576.5L187.461 577.38L187.571 578.49H170.431V577.16L172.641 575.29C172.641 575.29 173.271 568.78 174.001 561.23Z" fill="black"/>
<path d="M477.221 563.39C473.067 563.241 468.989 562.228 465.248 560.416C461.507 558.603 458.184 556.031 455.493 552.863C452.801 549.695 450.799 546.001 449.614 542.016C448.429 538.032 448.088 533.844 448.611 529.72C449.361 523.84 451.821 518.34 453.561 512.72C456.851 502 457.901 489.91 465.441 481.62C467.767 479.066 470.599 477.026 473.758 475.63C476.917 474.234 480.333 473.513 483.786 473.513C487.24 473.513 490.656 474.234 493.815 475.63C496.974 477.026 499.806 479.066 502.131 481.62C507.021 486.97 509.341 494.23 510.351 501.41C511.361 508.59 511.201 515.88 511.871 523.11C512.431 529.11 513.571 535.11 513.331 541.11C513.091 547.11 511.271 553.39 506.861 557.5C504.593 559.427 502.061 561.02 499.341 562.23C496.737 563.68 493.913 564.693 490.981 565.23C489.513 565.491 488.004 565.418 486.567 565.016C485.13 564.615 483.802 563.895 482.681 562.91C480.895 563.335 479.055 563.497 477.221 563.39Z" fill="#AD8B23"/>
<path opacity="0.7" d="M477.221 563.39C473.067 563.241 468.989 562.228 465.248 560.416C461.507 558.603 458.184 556.031 455.493 552.863C452.801 549.695 450.799 546.001 449.614 542.016C448.429 538.032 448.088 533.844 448.611 529.72C449.361 523.84 451.821 518.34 453.561 512.72C456.851 502 457.901 489.91 465.441 481.62C467.767 479.066 470.599 477.026 473.758 475.63C476.917 474.234 480.333 473.513 483.786 473.513C487.24 473.513 490.656 474.234 493.815 475.63C496.974 477.026 499.806 479.066 502.131 481.62C507.021 486.97 509.341 494.23 510.351 501.41C511.361 508.59 511.201 515.88 511.871 523.11C512.431 529.11 513.571 535.11 513.331 541.11C513.091 547.11 511.271 553.39 506.861 557.5C504.593 559.427 502.061 561.02 499.341 562.23C496.737 563.68 493.913 564.693 490.981 565.23C489.513 565.491 488.004 565.418 486.567 565.016C485.13 564.615 483.802 563.895 482.681 562.91C480.895 563.335 479.055 563.497 477.221 563.39Z" fill="white"/>
<path d="M491 585.27V583.78L488.51 581.66C488.51 581.66 485.51 551.15 485.02 542.36C484.53 533.57 483.9 519.62 487.14 509.53C484.261 516.418 482.217 523.626 481.05 531C481.05 531 477.19 517.12 470.34 508.27C470.34 508.27 478.69 529.61 477.57 549.46C476.999 560.73 475.582 571.942 473.33 583L471.84 584L471.71 585.24L491 585.27Z" fill="#AD8B23"/>
<path d="M483.4 536.31C483.4 536.31 485.56 526.69 491.4 521.92C491.4 521.92 486.51 528.65 484.91 540.08C483.31 551.51 481.59 544.22 481.59 544.22L483.4 536.31Z" fill="#AD8B23"/>
<path d="M486 562.33C486.693 559.964 488.249 557.944 490.36 556.67C490.36 556.67 488.13 558.84 487.07 565.78C486.01 572.72 483.42 568.86 483.42 568.86L483.23 565.04L486 562.33Z" fill="#AD8B23"/>
<path opacity="0.2" d="M487 565.78C488.06 558.84 490.29 556.67 490.29 556.67C488.676 557.656 487.373 559.077 486.53 560.77C485.86 553.38 485.23 546 485.02 542.36C485.02 541.63 484.94 540.86 484.9 540.07C486.5 528.65 491.39 521.92 491.39 521.92C487.99 524.69 485.84 529.1 484.63 532.31C484.53 524.79 484.97 516.31 487.14 509.53C484.261 516.418 482.217 523.626 481.05 531C481.05 531 477.19 517.12 470.34 508.27C470.34 508.27 478.69 529.61 477.57 549.46C476.999 560.73 475.582 571.942 473.33 583L471.84 584L471.71 585.24H491V583.75L488.51 581.63C488.51 581.63 487.81 574.31 487 565.78Z" fill="black"/>
<path d="M286.28 340.07H201.4V505.72H286.28V340.07Z" fill="#E6E6E6"/>
<path d="M270.85 340.07H201.4V505.72H270.85V340.07Z" fill="#F0F0F0"/>
<path d="M287.28 340.07H199.57V342.77H287.28V340.07Z" fill="#E0E0E0"/>
<path d="M287.28 334.66H199.57V337.36H287.28V334.66Z" fill="#E0E0E0"/>
<path d="M285.44 337.36H201.4V340.06H285.44V337.36Z" fill="#F0F0F0"/>
<path d="M221.03 349.82H207.99V362.86H221.03V349.82Z" fill="#E6E6E6"/>
<path d="M221.031 349.82H209.141V362.86H221.031V349.82Z" fill="#F5F5F5"/>
<path d="M240.79 349.82H227.75V362.86H240.79V349.82Z" fill="#E6E6E6"/>
<path d="M240.79 349.82H228.9V362.86H240.79V349.82Z" fill="#F5F5F5"/>
<path d="M260.54 349.82H247.5V362.86H260.54V349.82Z" fill="#E6E6E6"/>
<path d="M260.54 349.82H248.65V362.86H260.54V349.82Z" fill="#F5F5F5"/>
<path d="M221.03 369.03H207.99V382.07H221.03V369.03Z" fill="#E6E6E6"/>
<path d="M221.031 369.03H209.141V382.07H221.031V369.03Z" fill="#F5F5F5"/>
<path d="M240.79 369.03H227.75V382.07H240.79V369.03Z" fill="#E6E6E6"/>
<path d="M240.79 369.03H228.9V382.07H240.79V369.03Z" fill="#F5F5F5"/>
<path d="M260.54 369.03H247.5V382.07H260.54V369.03Z" fill="#E6E6E6"/>
<path d="M260.54 369.03H248.65V382.07H260.54V369.03Z" fill="#F5F5F5"/>
<path d="M221.03 404.2H207.99V417.24H221.03V404.2Z" fill="#E6E6E6"/>
<path d="M221.031 404.2H209.141V417.24H221.031V404.2Z" fill="#F5F5F5"/>
<path d="M240.79 404.2H227.75V417.24H240.79V404.2Z" fill="#E6E6E6"/>
<path d="M240.79 404.2H228.9V417.24H240.79V404.2Z" fill="#F5F5F5"/>
<path d="M260.54 404.2H247.5V417.24H260.54V404.2Z" fill="#E6E6E6"/>
<path d="M260.54 404.2H248.65V417.24H260.54V404.2Z" fill="#F5F5F5"/>
<path d="M221.03 423.41H207.99V436.45H221.03V423.41Z" fill="#E6E6E6"/>
<path d="M221.031 423.41H209.141V436.45H221.031V423.41Z" fill="#F5F5F5"/>
<path d="M240.79 423.41H227.75V436.45H240.79V423.41Z" fill="#E6E6E6"/>
<path d="M240.79 423.41H228.9V436.45H240.79V423.41Z" fill="#F5F5F5"/>
<path d="M260.54 423.41H247.5V436.45H260.54V423.41Z" fill="#E6E6E6"/>
<path d="M260.54 423.41H248.65V436.45H260.54V423.41Z" fill="#F5F5F5"/>
<path d="M221.03 462.5H207.99V475.54H221.03V462.5Z" fill="#E6E6E6"/>
<path d="M221.031 462.5H209.141V475.54H221.031V462.5Z" fill="#F5F5F5"/>
<path d="M240.79 462.5H227.75V475.54H240.79V462.5Z" fill="#E6E6E6"/>
<path d="M240.79 462.5H228.9V475.54H240.79V462.5Z" fill="#F5F5F5"/>
<path d="M260.54 462.5H247.5V475.54H260.54V462.5Z" fill="#E6E6E6"/>
<path d="M260.54 462.5H248.65V475.54H260.54V462.5Z" fill="#F5F5F5"/>
<path d="M221.03 481.71H207.99V494.75H221.03V481.71Z" fill="#E6E6E6"/>
<path d="M221.031 481.71H209.141V494.75H221.031V481.71Z" fill="#F5F5F5"/>
<path d="M240.79 481.71H227.75V494.75H240.79V481.71Z" fill="#E6E6E6"/>
<path d="M240.79 481.71H228.9V494.75H240.79V481.71Z" fill="#F5F5F5"/>
<path d="M260.54 481.71H247.5V494.75H260.54V481.71Z" fill="#E6E6E6"/>
<path d="M260.54 481.71H248.65V494.75H260.54V481.71Z" fill="#F5F5F5"/>
<path d="M286.28 391.24H201.4V392.45H286.28V391.24Z" fill="#E0E0E0"/>
<path d="M286.28 451.37H201.4V452.58H286.28V451.37Z" fill="#E0E0E0"/>
<path d="M187.069 389.67H128.359V532.53H187.069V389.67Z" fill="#E0E0E0"/>
<path d="M170.349 389.67H128.359V532.53H170.349V389.67Z" fill="#F0F0F0"/>
<path d="M148.31 401.41H132.68V409H148.31V401.41Z" fill="#E6E6E6"/>
<path d="M148.311 401.41H133.721V409H148.311V401.41Z" fill="#F5F5F5"/>
<path d="M166.39 401.41H150.76V409H166.39V401.41Z" fill="#E6E6E6"/>
<path d="M166.381 401.41H151.801V409H166.381V401.41Z" fill="#F5F5F5"/>
<path d="M148.31 415.69H132.68V423.28H148.31V415.69Z" fill="#E6E6E6"/>
<path d="M148.311 415.69H133.721V423.28H148.311V415.69Z" fill="#F5F5F5"/>
<path d="M166.39 415.69H150.76V423.28H166.39V415.69Z" fill="#E6E6E6"/>
<path d="M166.381 415.69H151.801V423.28H166.381V415.69Z" fill="#F5F5F5"/>
<path d="M148.31 433.94H132.68V441.53H148.31V433.94Z" fill="#E6E6E6"/>
<path d="M148.311 433.94H133.721V441.53H148.311V433.94Z" fill="#F5F5F5"/>
<path d="M166.39 433.94H150.76V441.53H166.39V433.94Z" fill="#E6E6E6"/>
<path d="M166.381 433.94H151.801V441.53H166.381V433.94Z" fill="#F5F5F5"/>
<path d="M148.31 444.42H132.68V452.01H148.31V444.42Z" fill="#E6E6E6"/>
<path d="M148.311 444.42H133.721V452.01H148.311V444.42Z" fill="#F5F5F5"/>
<path d="M166.39 444.42H150.76V452.01H166.39V444.42Z" fill="#E6E6E6"/>
<path d="M166.381 444.42H151.801V452.01H166.381V444.42Z" fill="#F5F5F5"/>
<path d="M148.31 461.65H132.68V469.24H148.31V461.65Z" fill="#E6E6E6"/>
<path d="M148.311 461.65H133.721V469.24H148.311V461.65Z" fill="#F5F5F5"/>
<path d="M166.39 461.65H150.76V469.24H166.39V461.65Z" fill="#E6E6E6"/>
<path d="M166.381 461.65H151.801V469.24H166.381V461.65Z" fill="#F5F5F5"/>
<path d="M148.31 472.13H132.68V479.72H148.31V472.13Z" fill="#E6E6E6"/>
<path d="M148.311 472.13H133.721V479.72H148.311V472.13Z" fill="#F5F5F5"/>
<path d="M166.39 472.13H150.76V479.72H166.39V472.13Z" fill="#E6E6E6"/>
<path d="M166.381 472.13H151.801V479.72H166.381V472.13Z" fill="#F5F5F5"/>
<path d="M148.31 490.88H132.68V498.47H148.31V490.88Z" fill="#E6E6E6"/>
<path d="M148.311 490.88H133.721V498.47H148.311V490.88Z" fill="#F5F5F5"/>
<path d="M166.39 490.88H150.76V498.47H166.39V490.88Z" fill="#E6E6E6"/>
<path d="M166.381 490.88H151.801V498.47H166.381V490.88Z" fill="#F5F5F5"/>
<path d="M148.31 504.72H132.68V512.31H148.31V504.72Z" fill="#E6E6E6"/>
<path d="M148.311 504.72H133.721V512.31H148.311V504.72Z" fill="#F5F5F5"/>
<path d="M166.39 504.72H150.76V512.31H166.39V504.72Z" fill="#E6E6E6"/>
<path d="M166.381 504.72H151.801V512.31H166.381V504.72Z" fill="#F5F5F5"/>
<path opacity="0.05" d="M187.069 427.95H128.359V429.26H187.069V427.95Z" fill="black"/>
<path opacity="0.05" d="M187.069 456.17H128.359V457.48H187.069V456.17Z" fill="black"/>
<path opacity="0.05" d="M187.069 484.64H128.359V485.94H187.069V484.64Z" fill="black"/>
<path d="M187.06 385.44H125.59V390H187.06V385.44Z" fill="#E0E0E0"/>
<path opacity="0.05" d="M187.07 385.44H173.02V390H187.07V385.44Z" fill="black"/>
<path d="M390.299 315.26H321.359V494.43H390.299V315.26Z" fill="#E6E6E6"/>
<path d="M364.78 315.26H295.84V494.43H364.78V315.26Z" fill="#F0F0F0"/>
<path d="M358.769 327.42H301.859V336.55H358.769V327.42Z" fill="#E6E6E6"/>
<path d="M358.761 327.42H304.061V336.55H358.761V327.42Z" fill="#F5F5F5"/>
<path d="M358.769 342.79H301.859V351.92H358.769V342.79Z" fill="#E6E6E6"/>
<path d="M358.761 342.79H304.061V351.92H358.761V342.79Z" fill="#F5F5F5"/>
<path d="M358.769 358.75H301.859V367.88H358.769V358.75Z" fill="#E6E6E6"/>
<path d="M358.761 358.75H304.061V367.88H358.761V358.75Z" fill="#F5F5F5"/>
<path d="M358.769 374.72H301.859V383.85H358.769V374.72Z" fill="#E6E6E6"/>
<path d="M358.761 374.72H304.061V383.85H358.761V374.72Z" fill="#F5F5F5"/>
<path d="M358.769 390.68H301.859V399.81H358.769V390.68Z" fill="#E6E6E6"/>
<path d="M358.761 390.68H304.061V399.81H358.761V390.68Z" fill="#F5F5F5"/>
<path d="M358.769 406.65H301.859V415.78H358.769V406.65Z" fill="#E6E6E6"/>
<path d="M358.761 406.65H304.061V415.78H358.761V406.65Z" fill="#F5F5F5"/>
<path d="M358.769 424.24H301.859V433.37H358.769V424.24Z" fill="#E6E6E6"/>
<path d="M358.761 424.24H304.061V433.37H358.761V424.24Z" fill="#F5F5F5"/>
<path d="M358.769 441.84H301.859V450.97H358.769V441.84Z" fill="#E6E6E6"/>
<path d="M358.761 441.84H304.061V450.97H358.761V441.84Z" fill="#F5F5F5"/>
<path d="M358.769 459.44H301.859V468.57H358.769V459.44Z" fill="#E6E6E6"/>
<path d="M358.761 459.44H304.061V468.57H358.761V459.44Z" fill="#F5F5F5"/>
<path d="M358.769 477.03H301.859V486.16H358.769V477.03Z" fill="#E6E6E6"/>
<path d="M358.761 477.03H304.061V486.16H358.761V477.03Z" fill="#F5F5F5"/>
<path d="M392.091 313.46H293.891V317.83H392.091V313.46Z" fill="#E0E0E0"/>
<path d="M392.091 305.57H293.891V309.94H392.091V305.57Z" fill="#E0E0E0"/>
<path d="M388.83 309.08H295.84V313.45H388.83V309.08Z" fill="#F0F0F0"/>
<path d="M390.3 327.42H371.09V336.55H390.3V327.42Z" fill="#E0E0E0"/>
<path d="M390.3 342.44H371.09V351.57H390.3V342.44Z" fill="#E0E0E0"/>
<path d="M390.3 357.47H371.09V366.6H390.3V357.47Z" fill="#E0E0E0"/>
<path d="M390.3 374.71H371.09V383.84H390.3V374.71Z" fill="#E0E0E0"/>
<path d="M390.3 390.68H371.09V399.81H390.3V390.68Z" fill="#E0E0E0"/>
<path d="M390.3 406.65H371.09V415.78H390.3V406.65Z" fill="#E0E0E0"/>
<path d="M390.3 424.24H371.09V433.37H390.3V424.24Z" fill="#E0E0E0"/>
<path d="M390.3 441.84H371.09V450.97H390.3V441.84Z" fill="#E0E0E0"/>
<path d="M390.3 459.43H371.09V468.56H390.3V459.43Z" fill="#E0E0E0"/>
<path d="M390.3 477.03H371.09V486.16H390.3V477.03Z" fill="#E0E0E0"/>
<path d="M546.341 452.69H540.811V461.34H546.341V452.69Z" fill="#E0E0E0"/>
<path d="M546.341 466.85H540.811V475.5H546.341V466.85Z" fill="#E0E0E0"/>
<path d="M546.341 480.6H540.811V489.25H546.341V480.6Z" fill="#E0E0E0"/>
<path d="M546.341 495.15H540.811V503.8H546.341V495.15Z" fill="#E0E0E0"/>
<path d="M546.341 509.3H540.811V517.95H546.341V509.3Z" fill="#E0E0E0"/>
<path d="M546.34 444H488.17V532.47H546.34V444Z" fill="#E6E6E6"/>
<path d="M536.52 444H488.18V532.47H536.52V444Z" fill="#F0F0F0"/>
<path d="M531.839 452.69H492.529V461.34H531.839V452.69Z" fill="#EBEBEB"/>
<path d="M531.839 466.85H492.529V475.5H531.839V466.85Z" fill="#EBEBEB"/>
<path d="M531.839 481H492.529V489.65H531.839V481Z" fill="#EBEBEB"/>
<path d="M531.839 495.15H492.529V503.8H531.839V495.15Z" fill="#EBEBEB"/>
<path d="M531.839 509.3H492.529V517.95H531.839V509.3Z" fill="#EBEBEB"/>
<path d="M531.831 452.69H493.971V461.34H531.831V452.69Z" fill="#F5F5F5"/>
<path d="M531.831 466.85H493.971V475.5H531.831V466.85Z" fill="#F5F5F5"/>
<path d="M531.831 481H493.971V489.65H531.831V481Z" fill="#F5F5F5"/>
<path d="M531.831 495.15H493.971V503.8H531.831V495.15Z" fill="#F5F5F5"/>
<path d="M531.831 509.3H493.971V517.95H531.831V509.3Z" fill="#F5F5F5"/>
<path d="M235.08 260.536H233.944V263H232.088V260.536H227.416V258.984C227.896 258.237 228.371 257.48 228.84 256.712C229.32 255.933 229.768 255.16 230.184 254.392C230.6 253.613 230.941 252.856 231.208 252.12H233.304C232.909 253.208 232.376 254.328 231.704 255.48C231.032 256.621 230.339 257.736 229.624 258.824H232.088V257.176H233.944V258.824H235.08V260.536ZM244.158 256.408V258.696C244.158 260.083 243.832 261.176 243.182 261.976C242.531 262.765 241.576 263.16 240.318 263.16C239.059 263.16 238.104 262.765 237.454 261.976C236.803 261.176 236.478 260.083 236.478 258.696V256.408C236.478 255.021 236.803 253.933 237.454 253.144C238.104 252.355 239.059 251.96 240.318 251.96C241.576 251.96 242.531 252.355 243.182 253.144C243.832 253.933 244.158 255.021 244.158 256.408ZM242.222 256.408C242.222 254.627 241.587 253.736 240.318 253.736C239.667 253.736 239.187 253.96 238.878 254.408C238.568 254.856 238.414 255.523 238.414 256.408V258.696C238.414 259.581 238.568 260.253 238.878 260.712C239.187 261.16 239.667 261.384 240.318 261.384C241.587 261.384 242.222 260.488 242.222 258.696V256.408ZM253.923 256.408V258.696C253.923 260.083 253.598 261.176 252.947 261.976C252.296 262.765 251.342 263.16 250.083 263.16C248.824 263.16 247.87 262.765 247.219 261.976C246.568 261.176 246.243 260.083 246.243 258.696V256.408C246.243 255.021 246.568 253.933 247.219 253.144C247.87 252.355 248.824 251.96 250.083 251.96C251.342 251.96 252.296 252.355 252.947 253.144C253.598 253.933 253.923 255.021 253.923 256.408ZM251.987 256.408C251.987 254.627 251.352 253.736 250.083 253.736C249.432 253.736 248.952 253.96 248.643 254.408C248.334 254.856 248.179 255.523 248.179 256.408V258.696C248.179 259.581 248.334 260.253 248.643 260.712C248.952 261.16 249.432 261.384 250.083 261.384C251.352 261.384 251.987 260.488 251.987 258.696V256.408Z" fill="#A2845E"/>
<path d="M243 274.666C244.473 274.666 245.667 273.472 245.667 272C245.667 270.527 244.473 269.333 243 269.333C241.527 269.333 240.333 270.527 240.333 272C240.333 273.472 241.527 274.666 243 274.666ZM243.5 438.048V435.606H242.5V438.048H243.5ZM243.5 430.722V425.838H242.5V430.722H243.5ZM243.5 420.955V416.071H242.5V420.955H243.5ZM243.5 411.187V406.303H242.5V411.187H243.5ZM243.5 401.42V396.536H242.5V401.42H243.5ZM243.5 391.652V386.768H242.5V391.652H243.5ZM243.5 381.884V377.001H242.5V381.884H243.5ZM243.5 372.117V367.233H242.5V372.117H243.5ZM243.5 362.349V357.466H242.5V362.349H243.5ZM243.5 352.582V347.698H242.5V352.582H243.5ZM243.5 342.814V337.931H242.5V342.814H243.5ZM243.5 333.047V328.163H242.5V333.047H243.5ZM243.5 323.279V318.395H242.5V323.279H243.5ZM243.5 313.512V308.628H242.5V313.512H243.5ZM243.5 303.744V298.86H242.5V303.744H243.5ZM243.5 293.977V289.093H242.5V293.977H243.5ZM243.5 284.209V279.325H242.5V284.209H243.5ZM243.5 274.441V272H242.5V274.441H243.5Z" fill="#A2845E"/>
<path d="M466.16 272.672L468.928 271.12H470.528V282H468.64V273.232L467.008 274.128L466.16 272.672ZM480.751 275.408V277.696C480.751 279.083 480.426 280.176 479.775 280.976C479.125 281.765 478.17 282.16 476.911 282.16C475.653 282.16 474.698 281.765 474.047 280.976C473.397 280.176 473.071 279.083 473.071 277.696V275.408C473.071 274.021 473.397 272.933 474.047 272.144C474.698 271.355 475.653 270.96 476.911 270.96C478.17 270.96 479.125 271.355 479.775 272.144C480.426 272.933 480.751 274.021 480.751 275.408ZM478.815 275.408C478.815 273.627 478.181 272.736 476.911 272.736C476.261 272.736 475.781 272.96 475.471 273.408C475.162 273.856 475.007 274.523 475.007 275.408V277.696C475.007 278.581 475.162 279.253 475.471 279.712C475.781 280.16 476.261 280.384 476.911 280.384C478.181 280.384 478.815 279.488 478.815 277.696V275.408ZM490.517 275.408V277.696C490.517 279.083 490.192 280.176 489.541 280.976C488.89 281.765 487.936 282.16 486.677 282.16C485.418 282.16 484.464 281.765 483.813 280.976C483.162 280.176 482.837 279.083 482.837 277.696V275.408C482.837 274.021 483.162 272.933 483.813 272.144C484.464 271.355 485.418 270.96 486.677 270.96C487.936 270.96 488.89 271.355 489.541 272.144C490.192 272.933 490.517 274.021 490.517 275.408ZM488.581 275.408C488.581 273.627 487.946 272.736 486.677 272.736C486.026 272.736 485.546 272.96 485.237 273.408C484.928 273.856 484.773 274.523 484.773 275.408V277.696C484.773 278.581 484.928 279.253 485.237 279.712C485.546 280.16 486.026 280.384 486.677 280.384C487.946 280.384 488.581 279.488 488.581 277.696V275.408ZM500.283 275.408V277.696C500.283 279.083 499.957 280.176 499.307 280.976C498.656 281.765 497.701 282.16 496.443 282.16C495.184 282.16 494.229 281.765 493.579 280.976C492.928 280.176 492.603 279.083 492.603 277.696V275.408C492.603 274.021 492.928 272.933 493.579 272.144C494.229 271.355 495.184 270.96 496.443 270.96C497.701 270.96 498.656 271.355 499.307 272.144C499.957 272.933 500.283 274.021 500.283 275.408ZM498.347 275.408C498.347 273.627 497.712 272.736 496.443 272.736C495.792 272.736 495.312 272.96 495.003 273.408C494.693 273.856 494.539 274.523 494.539 275.408V277.696C494.539 278.581 494.693 279.253 495.003 279.712C495.312 280.16 495.792 280.384 496.443 280.384C497.712 280.384 498.347 279.488 498.347 277.696V275.408Z" fill="#A2845E"/>
<path d="M486 293.666C487.473 293.666 488.667 292.472 488.667 291C488.667 289.527 487.473 288.333 486 288.333C484.527 288.333 483.333 289.527 483.333 291C483.333 292.472 484.527 293.666 486 293.666ZM486.5 457.048V454.606H485.5V457.048H486.5ZM486.5 449.722V444.838H485.5V449.722H486.5ZM486.5 439.955V435.071H485.5V439.955H486.5ZM486.5 430.187V425.303H485.5V430.187H486.5ZM486.5 420.42V415.536H485.5V420.42H486.5ZM486.5 410.652V405.768H485.5V410.652H486.5ZM486.5 400.884V396.001H485.5V400.884H486.5ZM486.5 391.117V386.233H485.5V391.117H486.5ZM486.5 381.349V376.466H485.5V381.349H486.5ZM486.5 371.582V366.698H485.5V371.582H486.5ZM486.5 361.814V356.931H485.5V361.814H486.5ZM486.5 352.047V347.163H485.5V352.047H486.5ZM486.5 342.279V337.395H485.5V342.279H486.5ZM486.5 332.512V327.628H485.5V332.512H486.5ZM486.5 322.744V317.86H485.5V322.744H486.5ZM486.5 312.977V308.093H485.5V312.977H486.5ZM486.5 303.209V298.325H485.5V303.209H486.5ZM486.5 293.441V291H485.5V293.441H486.5Z" fill="#A2845E"/>
<path d="M322.232 416H315.64V414.48C315.64 413.712 315.741 413.072 315.944 412.56C316.147 412.037 316.419 411.611 316.76 411.28C317.101 410.939 317.475 410.667 317.88 410.464L318.968 409.92C319.384 409.707 319.72 409.483 319.976 409.248C320.243 409.003 320.376 408.688 320.376 408.304V408.016C320.376 407.621 320.237 407.312 319.96 407.088C319.693 406.853 319.261 406.736 318.664 406.736C318.301 406.736 317.933 406.789 317.56 406.896C317.197 407.003 316.755 407.152 316.232 407.344L315.64 405.696C316.237 405.429 316.781 405.243 317.272 405.136C317.773 405.019 318.259 404.96 318.728 404.96C319.592 404.96 320.28 405.099 320.792 405.376C321.315 405.653 321.688 406.027 321.912 406.496C322.147 406.955 322.264 407.461 322.264 408.016V408.304C322.264 408.88 322.147 409.371 321.912 409.776C321.688 410.181 321.389 410.523 321.016 410.8C320.643 411.077 320.237 411.323 319.8 411.536L318.712 412.08C318.317 412.272 318.024 412.539 317.832 412.88C317.651 413.221 317.549 413.659 317.528 414.192H322.232V416ZM331.798 409.408V411.696C331.798 413.083 331.473 414.176 330.822 414.976C330.171 415.765 329.217 416.16 327.958 416.16C326.699 416.16 325.745 415.765 325.094 414.976C324.443 414.176 324.118 413.083 324.118 411.696V409.408C324.118 408.021 324.443 406.933 325.094 406.144C325.745 405.355 326.699 404.96 327.958 404.96C329.217 404.96 330.171 405.355 330.822 406.144C331.473 406.933 331.798 408.021 331.798 409.408ZM329.862 409.408C329.862 407.627 329.227 406.736 327.958 406.736C327.307 406.736 326.827 406.96 326.518 407.408C326.209 407.856 326.054 408.523 326.054 409.408V411.696C326.054 412.581 326.209 413.253 326.518 413.712C326.827 414.16 327.307 414.384 327.958 414.384C329.227 414.384 329.862 413.488 329.862 411.696V409.408ZM341.564 409.408V411.696C341.564 413.083 341.238 414.176 340.588 414.976C339.937 415.765 338.982 416.16 337.724 416.16C336.465 416.16 335.51 415.765 334.86 414.976C334.209 414.176 333.884 413.083 333.884 411.696V409.408C333.884 408.021 334.209 406.933 334.86 406.144C335.51 405.355 336.465 404.96 337.724 404.96C338.982 404.96 339.937 405.355 340.588 406.144C341.238 406.933 341.564 408.021 341.564 409.408ZM339.628 409.408C339.628 407.627 338.993 406.736 337.724 406.736C337.073 406.736 336.593 406.96 336.284 407.408C335.974 407.856 335.82 408.523 335.82 409.408V411.696C335.82 412.581 335.974 413.253 336.284 413.712C336.593 414.16 337.073 414.384 337.724 414.384C338.993 414.384 339.628 413.488 339.628 411.696V409.408Z" fill="#A2845E"/>
<path d="M331 426.667C332.473 426.667 333.667 425.473 333.667 424C333.667 422.527 332.473 421.333 331 421.333C329.527 421.333 328.333 422.527 328.333 424C328.333 425.473 329.527 426.667 331 426.667ZM331.5 544V541.5H330.5V544H331.5ZM331.5 536.5V531.5H330.5V536.5H331.5ZM331.5 526.5V521.5H330.5V526.5H331.5ZM331.5 516.5V511.5H330.5V516.5H331.5ZM331.5 506.5V501.5H330.5V506.5H331.5ZM331.5 496.5V491.5H330.5V496.5H331.5ZM331.5 486.5V481.5H330.5V486.5H331.5ZM331.5 476.5V471.5H330.5V476.5H331.5ZM331.5 466.5V461.5H330.5V466.5H331.5ZM331.5 456.5V451.5H330.5V456.5H331.5ZM331.5 446.5V441.5H330.5V446.5H331.5ZM331.5 436.5V431.5H330.5V436.5H331.5ZM331.5 426.5V424H330.5V426.5H331.5Z" fill="#A2845E"/>
<path d="M300.301 369.52H201.271V562.78H300.301V369.52Z" fill="#AD8B23"/>
<path opacity="0.4" d="M282.301 369.52H201.271V562.78H282.301V369.52Z" fill="white"/>
<path d="M301.471 369.52H199.141V372.67H301.471V369.52Z" fill="#AD8B23"/>
<path d="M301.471 363.21H199.141V366.37H301.471V363.21Z" fill="#AD8B23"/>
<path d="M299.321 366.37H201.271V369.52H299.321V366.37Z" fill="#F0F0F0"/>
<path d="M224.181 380.9H208.961V396.12H224.181V380.9Z" fill="#AD8B23"/>
<path opacity="0.2" d="M224.181 380.9H210.301V396.12H224.181V380.9Z" fill="white"/>
<path d="M247.232 380.9H232.012V396.12H247.232V380.9Z" fill="#AD8B23"/>
<path opacity="0.2" d="M247.232 380.9H233.352V396.12H247.232V380.9Z" fill="white"/>
<path d="M270.271 380.9H255.051V396.12H270.271V380.9Z" fill="#AD8B23"/>
<path opacity="0.2" d="M270.271 380.9H256.391V396.12H270.271V380.9Z" fill="white"/>
<path d="M224.181 403.31H208.961V418.53H224.181V403.31Z" fill="#AD8B23"/>
<path opacity="0.2" d="M224.181 403.31H210.301V418.53H224.181V403.31Z" fill="white"/>
<path d="M247.232 403.31H232.012V418.53H247.232V403.31Z" fill="#AD8B23"/>
<path opacity="0.2" d="M247.232 403.31H233.352V418.53H247.232V403.31Z" fill="white"/>
<path d="M270.271 403.31H255.051V418.53H270.271V403.31Z" fill="#AD8B23"/>
<path opacity="0.2" d="M270.271 403.31H256.391V418.53H270.271V403.31Z" fill="white"/>
<path d="M224.181 444.34H208.961V459.56H224.181V444.34Z" fill="#AD8B23"/>
<path opacity="0.2" d="M224.181 444.34H210.301V459.56H224.181V444.34Z" fill="white"/>
<path d="M247.232 444.34H232.012V459.56H247.232V444.34Z" fill="#AD8B23"/>
<path opacity="0.2" d="M247.232 444.34H233.352V459.56H247.232V444.34Z" fill="white"/>
<path d="M270.271 444.34H255.051V459.56H270.271V444.34Z" fill="#AD8B23"/>
<path opacity="0.2" d="M270.271 444.34H256.391V459.56H270.271V444.34Z" fill="white"/>
<path d="M224.181 466.75H208.961V481.97H224.181V466.75Z" fill="#AD8B23"/>
<path opacity="0.2" d="M224.181 466.75H210.301V481.97H224.181V466.75Z" fill="white"/>
<path d="M247.232 466.75H232.012V481.97H247.232V466.75Z" fill="#AD8B23"/>
<path opacity="0.2" d="M247.232 466.75H233.352V481.97H247.232V466.75Z" fill="white"/>
<path d="M270.271 466.75H255.051V481.97H270.271V466.75Z" fill="#AD8B23"/>
<path opacity="0.2" d="M270.271 466.75H256.391V481.97H270.271V466.75Z" fill="white"/>
<path d="M224.181 512.36H208.961V527.58H224.181V512.36Z" fill="#AD8B23"/>
<path opacity="0.2" d="M224.181 512.36H210.301V527.58H224.181V512.36Z" fill="white"/>
<path d="M247.232 512.36H232.012V527.58H247.232V512.36Z" fill="#AD8B23"/>
<path opacity="0.2" d="M247.232 512.36H233.352V527.58H247.232V512.36Z" fill="white"/>
<path d="M270.271 512.36H255.051V527.58H270.271V512.36Z" fill="#AD8B23"/>
<path opacity="0.2" d="M270.271 512.36H256.391V527.58H270.271V512.36Z" fill="white"/>
<path d="M224.181 534.77H208.961V549.99H224.181V534.77Z" fill="#AD8B23"/>
<path opacity="0.2" d="M224.181 534.77H210.301V549.99H224.181V534.77Z" fill="white"/>
<path d="M247.232 534.77H232.012V549.99H247.232V534.77Z" fill="#AD8B23"/>
<path opacity="0.2" d="M247.232 534.77H233.352V549.99H247.232V534.77Z" fill="white"/>
<path d="M270.271 534.77H255.051V549.99H270.271V534.77Z" fill="#AD8B23"/>
<path opacity="0.2" d="M270.271 534.77H256.391V549.99H270.271V534.77Z" fill="white"/>
<path opacity="0.2" d="M300.301 429.23H201.271V430.64H300.301V429.23Z" fill="white"/>
<path opacity="0.2" d="M300.301 499.37H201.271V500.78H300.301V499.37Z" fill="white"/>
<path d="M436.65 396.12H368.16V562.78H436.65V396.12Z" fill="#AD8B23"/>
<path opacity="0.4" d="M420.26 396.12H368.16V562.78H420.26V396.12Z" fill="white"/>
<path d="M391.441 409.81H373.211V418.66H391.441V409.81Z" fill="#AD8B23"/>
<path opacity="0.2" d="M391.44 409.81H374.42V418.66H391.44V409.81Z" fill="white"/>
<path d="M412.531 409.81H394.301V418.66H412.531V409.81Z" fill="#AD8B23"/>
<path opacity="0.2" d="M412.532 409.81H395.512V418.66H412.532V409.81Z" fill="white"/>
<path d="M391.441 426.47H373.211V435.32H391.441V426.47Z" fill="#AD8B23"/>
<path opacity="0.2" d="M391.44 426.47H374.42V435.32H391.44V426.47Z" fill="white"/>
<path d="M412.531 426.47H394.301V435.32H412.531V426.47Z" fill="#AD8B23"/>
<path opacity="0.2" d="M412.532 426.47H395.512V435.32H412.532V426.47Z" fill="white"/>
<path d="M391.441 447.76H373.211V456.61H391.441V447.76Z" fill="#AD8B23"/>
<path opacity="0.2" d="M391.44 447.76H374.42V456.61H391.44V447.76Z" fill="white"/>
<path d="M412.531 447.76H394.301V456.61H412.531V447.76Z" fill="#AD8B23"/>
<path opacity="0.2" d="M412.532 447.76H395.512V456.61H412.532V447.76Z" fill="white"/>
<path d="M391.441 459.99H373.211V468.84H391.441V459.99Z" fill="#AD8B23"/>
<path opacity="0.2" d="M391.44 459.99H374.42V468.84H391.44V459.99Z" fill="white"/>
<path d="M412.531 459.99H394.301V468.84H412.531V459.99Z" fill="#AD8B23"/>
<path opacity="0.2" d="M412.532 459.99H395.512V468.84H412.532V459.99Z" fill="white"/>
<path d="M391.441 480.09H373.211V488.94H391.441V480.09Z" fill="#AD8B23"/>
<path opacity="0.2" d="M391.44 480.09H374.42V488.94H391.44V480.09Z" fill="white"/>
<path d="M412.531 480.09H394.301V488.94H412.531V480.09Z" fill="#AD8B23"/>
<path opacity="0.2" d="M412.532 480.09H395.512V488.94H412.532V480.09Z" fill="white"/>
<path d="M391.441 492.32H373.211V501.17H391.441V492.32Z" fill="#AD8B23"/>
<path opacity="0.2" d="M391.44 492.32H374.42V501.17H391.44V492.32Z" fill="white"/>
<path d="M412.531 492.32H394.301V501.17H412.531V492.32Z" fill="#AD8B23"/>
<path opacity="0.2" d="M412.532 492.32H395.512V501.17H412.532V492.32Z" fill="white"/>
<path d="M391.441 514.19H373.211V523.04H391.441V514.19Z" fill="#AD8B23"/>
<path opacity="0.2" d="M391.44 514.19H374.42V523.04H391.44V514.19Z" fill="white"/>
<path d="M412.531 514.19H394.301V523.04H412.531V514.19Z" fill="#AD8B23"/>
<path opacity="0.2" d="M412.532 514.19H395.512V523.04H412.532V514.19Z" fill="white"/>
<path d="M391.441 530.35H373.211V539.2H391.441V530.35Z" fill="#AD8B23"/>
<path opacity="0.2" d="M391.44 530.35H374.42V539.2H391.44V530.35Z" fill="white"/>
<path d="M412.531 530.35H394.301V539.2H412.531V530.35Z" fill="#AD8B23"/>
<path opacity="0.2" d="M412.532 530.35H395.512V539.2H412.532V530.35Z" fill="white"/>
<path d="M436.661 391.19H364.941V396.51H436.661V391.19Z" fill="#AD8B23"/>
<path opacity="0.2" d="M436.661 391.19H420.271V396.51H436.661V391.19Z" fill="black"/>
<path d="M368.161 469.71H361.711V479.8H368.161V469.71Z" fill="#E0E0E0"/>
<path d="M368.161 486.22H361.711V496.31H368.161V486.22Z" fill="#E0E0E0"/>
<path d="M368.161 502.27H361.711V512.36H368.161V502.27Z" fill="#E0E0E0"/>
<path d="M368.161 519.24H361.711V529.33H368.161V519.24Z" fill="#E0E0E0"/>
<path d="M368.161 535.75H361.711V545.84H368.161V535.75Z" fill="#E0E0E0"/>
<path d="M368.161 459.57H300.301V562.78H368.161V459.57Z" fill="#AD8B23"/>
<path opacity="0.3" d="M356.701 459.56H300.301V562.78H356.701V459.56Z" fill="white"/>
<path d="M351.231 469.71H305.371V479.8H351.231V469.71Z" fill="#AD8B23"/>
<path d="M351.231 486.22H305.371V496.31H351.231V486.22Z" fill="#AD8B23"/>
<path d="M351.231 502.73H305.371V512.82H351.231V502.73Z" fill="#AD8B23"/>
<path d="M351.231 519.24H305.371V529.33H351.231V519.24Z" fill="#AD8B23"/>
<path d="M351.231 535.75H305.371V545.84H351.231V535.75Z" fill="#AD8B23"/>
<g opacity="0.1">
<path d="M351.231 469.71H307.061V479.8H351.231V469.71Z" fill="white"/>
<path d="M351.231 486.22H307.061V496.31H351.231V486.22Z" fill="white"/>
<path d="M351.231 502.73H307.061V512.82H351.231V502.73Z" fill="white"/>
<path d="M351.231 519.24H307.061V529.33H351.231V519.24Z" fill="white"/>
<path d="M351.231 535.75H307.061V545.84H351.231V535.75Z" fill="white"/>
</g>
<path d="M160.581 491.27H115.051V562.78H187.711V491.27V459.56L160.581 491.27Z" fill="#AD8B23"/>
<path d="M201.271 459.56H187.711V562.78H201.271V459.56Z" fill="#AD8B23"/>
<path opacity="0.7" d="M201.271 459.56H187.711V562.78H201.271V459.56Z" fill="white"/>
<path opacity="0.7" d="M300.301 372.67H282.291V562.78H300.301V372.67Z" fill="white"/>
<path opacity="0.6" d="M368.161 459.56H356.701V562.78H368.161V459.56Z" fill="white"/>
<path opacity="0.7" d="M436.661 396.51H420.271V562.78H436.661V396.51Z" fill="white"/>
<path opacity="0.5" d="M446.25 367.94H443.67V378.59H446.25V367.94Z" fill="white"/>
<path opacity="0.5" d="M446.25 385.86H443.67V396.51H446.25V385.86Z" fill="white"/>
<path opacity="0.5" d="M446.25 404.49H443.67V415.14H446.25V404.49Z" fill="white"/>
<path opacity="0.5" d="M446.25 423.12H443.67V433.77H446.25V423.12Z" fill="white"/>
<path opacity="0.5" d="M446.25 441.74H443.67V452.39H446.25V441.74Z" fill="white"/>
<path opacity="0.5" d="M446.25 460.37H443.67V471.02H446.25V460.37Z" fill="white"/>
<path opacity="0.5" d="M446.25 480.9H443.67V491.55H446.25V480.9Z" fill="white"/>
<path opacity="0.5" d="M446.25 501.43H443.67V512.08H446.25V501.43Z" fill="white"/>
<path opacity="0.5" d="M446.25 521.95H443.67V532.6H446.25V521.95Z" fill="white"/>
<path opacity="0.5" d="M446.25 542.48H443.67V553.13H446.25V542.48Z" fill="white"/>
<path d="M546.862 353.75H466.432V562.78H546.862V353.75Z" fill="#AD8B23"/>
<path d="M517.08 353.75H436.65V562.78H517.08V353.75Z" fill="#AD8B23"/>
<path opacity="0.7" d="M546.86 356.75H517.09V562.78H546.86V356.75Z" fill="white"/>
<path d="M546.861 367.94H524.451V378.59H546.861V367.94Z" fill="#AD8B23"/>
<path d="M546.861 385.46H524.451V396.11H546.861V385.46Z" fill="#AD8B23"/>
<path d="M546.861 402.99H524.451V413.64H546.861V402.99Z" fill="#AD8B23"/>
<path d="M546.861 423.11H524.451V433.76H546.861V423.11Z" fill="#AD8B23"/>
<path d="M546.861 441.74H524.451V452.39H546.861V441.74Z" fill="#AD8B23"/>
<path d="M546.861 460.37H524.451V471.02H546.861V460.37Z" fill="#AD8B23"/>
<path d="M546.861 480.89H524.451V491.54H546.861V480.89Z" fill="#AD8B23"/>
<path d="M546.861 501.42H524.451V512.07H546.861V501.42Z" fill="#AD8B23"/>
<path d="M546.861 521.95H524.451V532.6H546.861V521.95Z" fill="#AD8B23"/>
<path d="M546.861 542.48H524.451V553.13H546.861V542.48Z" fill="#AD8B23"/>
<path opacity="0.3" d="M546.861 367.94H524.451V378.59H546.861V367.94Z" fill="white"/>
<path opacity="0.3" d="M546.861 385.46H524.451V396.11H546.861V385.46Z" fill="white"/>
<path opacity="0.3" d="M546.861 402.99H524.451V413.64H546.861V402.99Z" fill="white"/>
<path opacity="0.3" d="M546.861 423.11H524.451V433.76H546.861V423.11Z" fill="white"/>
<path opacity="0.3" d="M546.861 441.74H524.451V452.39H546.861V441.74Z" fill="white"/>
<path opacity="0.3" d="M546.861 460.37H524.451V471.02H546.861V460.37Z" fill="white"/>
<path opacity="0.3" d="M546.861 480.89H524.451V491.54H546.861V480.89Z" fill="white"/>
<path opacity="0.3" d="M546.861 501.42H524.451V512.07H546.861V501.42Z" fill="white"/>
<path opacity="0.3" d="M546.861 521.95H524.451V532.6H546.861V521.95Z" fill="white"/>
<path opacity="0.3" d="M546.861 542.48H524.451V553.13H546.861V542.48Z" fill="white"/>
<path opacity="0.4" d="M517.08 353.75H436.65V562.78H517.08V353.75Z" fill="white"/>
<path d="M510.07 367.94H443.67V378.59H510.07V367.94Z" fill="#AD8B23"/>
<path opacity="0.2" d="M510.07 367.94H446.25V378.59H510.07V367.94Z" fill="white"/>
<path d="M510.07 385.86H443.67V396.51H510.07V385.86Z" fill="#AD8B23"/>
<path opacity="0.2" d="M510.07 385.86H446.25V396.51H510.07V385.86Z" fill="white"/>
<path d="M510.07 404.49H443.67V415.14H510.07V404.49Z" fill="#AD8B23"/>
<path opacity="0.2" d="M510.07 404.49H446.25V415.14H510.07V404.49Z" fill="white"/>
<path d="M510.07 423.12H443.67V433.77H510.07V423.12Z" fill="#AD8B23"/>
<path opacity="0.2" d="M510.07 423.12H446.25V433.77H510.07V423.12Z" fill="white"/>
<path d="M510.07 441.74H443.67V452.39H510.07V441.74Z" fill="#AD8B23"/>
<path opacity="0.2" d="M510.07 441.74H446.25V452.39H510.07V441.74Z" fill="white"/>
<path d="M510.07 460.37H443.67V471.02H510.07V460.37Z" fill="#AD8B23"/>
<path opacity="0.2" d="M510.07 460.37H446.25V471.02H510.07V460.37Z" fill="white"/>
<path d="M510.07 480.9H443.67V491.55H510.07V480.9Z" fill="#AD8B23"/>
<path opacity="0.2" d="M510.07 480.9H446.25V491.55H510.07V480.9Z" fill="white"/>
<path d="M510.07 501.43H443.67V512.08H510.07V501.43Z" fill="#AD8B23"/>
<path opacity="0.2" d="M510.07 501.43H446.25V512.08H510.07V501.43Z" fill="white"/>
<path d="M510.07 521.95H443.67V532.6H510.07V521.95Z" fill="#AD8B23"/>
<path opacity="0.2" d="M510.07 521.95H446.25V532.6H510.07V521.95Z" fill="white"/>
<path d="M510.07 542.48H443.67V553.13H510.07V542.48Z" fill="#AD8B23"/>
<path opacity="0.2" d="M510.07 542.48H446.25V553.13H510.07V542.48Z" fill="white"/>
<path d="M545.14 347.54H517.09V351.64H545.14V347.54Z" fill="#AD8B23"/>
<path d="M545.14 346.54H436.65V351.64H545.14V346.54Z" fill="#F0F0F0"/>
<path d="M548.951 351.65H434.381V356.75H548.951V351.65Z" fill="#AD8B23"/>
<path d="M548.951 342.44H434.381V347.54H548.951V342.44Z" fill="#AD8B23"/>
<path opacity="0.05" d="M548.951 351.65H434.381V356.75H548.951V351.65Z" fill="black"/>
<path opacity="0.05" d="M548.951 342.44H434.381V347.54H548.951V342.44Z" fill="black"/>
<path opacity="0.2" d="M436.65 440.53H368.16V442.05H436.65V440.53Z" fill="white"/>
<path opacity="0.2" d="M436.65 473.46H368.16V474.98H436.65V473.46Z" fill="white"/>
<path opacity="0.2" d="M436.65 506.67H368.16V508.19H436.65V506.67Z" fill="white"/>
<path opacity="0.2" d="M301.461 369.52H282.291V372.67H301.461V369.52Z" fill="black"/>
<path opacity="0.2" d="M301.461 363.21H282.291V366.36H301.461V363.21Z" fill="black"/>
<path opacity="0.2" d="M548.95 351.65H517.09V356.75H548.95V351.65Z" fill="black"/>
<path opacity="0.2" d="M548.95 342.44H517.09V347.54H548.95V342.44Z" fill="black"/>
<path opacity="0.4" d="M160.581 491.27H115.051V562.78H187.711V491.27V459.56L160.581 491.27Z" fill="white"/>
<path d="M132.451 505.77H121.641V516.58H132.451V505.77Z" fill="#AD8B23"/>
<path d="M154.451 505.77H143.641V516.58H154.451V505.77Z" fill="#AD8B23"/>
<path d="M176.451 505.77H165.641V516.58H176.451V505.77Z" fill="#AD8B23"/>
<path d="M132.451 523.96H121.641V534.77H132.451V523.96Z" fill="#AD8B23"/>
<path d="M154.451 523.96H143.641V534.77H154.451V523.96Z" fill="#AD8B23"/>
<path d="M176.451 523.96H165.641V534.77H176.451V523.96Z" fill="#AD8B23"/>
<path d="M132.451 542.15H121.641V552.96H132.451V542.15Z" fill="#AD8B23"/>
<path d="M154.451 542.15H143.641V552.96H154.451V542.15Z" fill="#AD8B23"/>
<path d="M176.451 542.15H165.641V552.96H176.451V542.15Z" fill="#AD8B23"/>
<path opacity="0.2" d="M133.65 505.77H122.84V516.58H133.65V505.77Z" fill="white"/>
<path opacity="0.2" d="M155.64 505.77H144.83V516.58H155.64V505.77Z" fill="white"/>
<path opacity="0.2" d="M177.64 505.77H166.83V516.58H177.64V505.77Z" fill="white"/>
<path opacity="0.2" d="M133.65 523.96H122.84V534.77H133.65V523.96Z" fill="white"/>
<path opacity="0.2" d="M155.64 523.96H144.83V534.77H155.64V523.96Z" fill="white"/>
<path opacity="0.2" d="M177.64 523.96H166.83V534.77H177.64V523.96Z" fill="white"/>
<path opacity="0.2" d="M133.65 542.15H122.84V552.96H133.65V542.15Z" fill="white"/>
<path opacity="0.2" d="M155.64 542.15H144.83V552.96H155.64V542.15Z" fill="white"/>
<path opacity="0.2" d="M177.64 542.15H166.83V552.96H177.64V542.15Z" fill="white"/>
</svg>
