<svg width="662" height="800" viewBox="0 0 662 800" fill="none" xmlns="http://www.w3.org/2000/svg">
<rect width="662" height="800" fill="#FFEEE9"/>
<mask id="mask0_2437_60331" style="mask-type:alpha" maskUnits="userSpaceOnUse" x="620" y="9" width="24" height="24">
<rect x="620" y="9" width="24" height="24" fill="#D9D9D9"/>
</mask>
<g mask="url(#mask0_2437_60331)">
<path d="M632.001 22.4L627.101 27.3C626.917 27.4834 626.684 27.575 626.401 27.575C626.117 27.575 625.884 27.4834 625.701 27.3C625.517 27.1167 625.426 26.8834 625.426 26.6C625.426 26.3167 625.517 26.0834 625.701 25.9L630.601 21L625.701 16.1C625.517 15.9167 625.426 15.6834 625.426 15.4C625.426 15.1167 625.517 14.8834 625.701 14.7C625.884 14.5167 626.117 14.425 626.401 14.425C626.684 14.425 626.917 14.5167 627.101 14.7L632.001 19.6L636.901 14.7C637.084 14.5167 637.317 14.425 637.601 14.425C637.884 14.425 638.117 14.5167 638.301 14.7C638.484 14.8834 638.576 15.1167 638.576 15.4C638.576 15.6834 638.484 15.9167 638.301 16.1L633.401 21L638.301 25.9C638.484 26.0834 638.576 26.3167 638.576 26.6C638.576 26.8834 638.484 27.1167 638.301 27.3C638.117 27.4834 637.884 27.575 637.601 27.575C637.317 27.575 637.084 27.4834 636.901 27.3L632.001 22.4Z" fill="#F46036"/>
</g>
<g filter="url(#filter0_d_2437_60331)">
<rect x="102" y="276" width="100" height="175" rx="8" fill="#FFDDD4"/>
<rect x="102.5" y="276.5" width="99" height="174" rx="7.5" stroke="#F46036"/>
<path d="M145.574 290V284.182H146.628V289.116H149.19V290H145.574ZM150.06 290V285.636H151.088V290H150.06ZM150.577 285.017C150.414 285.017 150.274 284.963 150.156 284.855C150.039 284.745 149.98 284.614 149.98 284.46C149.98 284.305 150.039 284.173 150.156 284.065C150.274 283.955 150.414 283.901 150.577 283.901C150.741 283.901 150.882 283.955 150.997 284.065C151.115 284.173 151.173 284.305 151.173 284.46C151.173 284.614 151.115 284.745 150.997 284.855C150.882 284.963 150.741 285.017 150.577 285.017ZM155.594 286.79L154.657 286.892C154.63 286.797 154.584 286.708 154.518 286.625C154.453 286.542 154.366 286.474 154.256 286.423C154.147 286.372 154.012 286.347 153.853 286.347C153.639 286.347 153.459 286.393 153.313 286.486C153.169 286.579 153.098 286.699 153.1 286.847C153.098 286.973 153.145 287.077 153.239 287.156C153.336 287.236 153.495 287.301 153.717 287.352L154.461 287.511C154.874 287.6 155.181 287.741 155.381 287.935C155.584 288.128 155.686 288.381 155.688 288.693C155.686 288.968 155.606 289.21 155.447 289.42C155.29 289.629 155.071 289.792 154.79 289.909C154.51 290.027 154.188 290.085 153.825 290.085C153.29 290.085 152.861 289.973 152.535 289.75C152.209 289.525 152.015 289.211 151.952 288.81L152.955 288.713C153.001 288.91 153.097 289.059 153.245 289.159C153.393 289.259 153.585 289.31 153.822 289.31C154.066 289.31 154.262 289.259 154.41 289.159C154.559 289.059 154.634 288.935 154.634 288.787C154.634 288.662 154.586 288.559 154.489 288.477C154.395 288.396 154.247 288.333 154.046 288.29L153.302 288.134C152.883 288.046 152.574 287.9 152.373 287.693C152.172 287.485 152.073 287.222 152.075 286.903C152.073 286.634 152.146 286.402 152.293 286.205C152.443 286.006 152.65 285.852 152.915 285.744C153.183 285.634 153.49 285.58 153.839 285.58C154.35 285.58 154.753 285.688 155.046 285.906C155.342 286.124 155.524 286.419 155.594 286.79ZM158.715 285.636V286.432H156.207V285.636H158.715ZM156.826 284.591H157.854V288.688C157.854 288.826 157.875 288.932 157.917 289.006C157.96 289.078 158.017 289.127 158.087 289.153C158.157 289.18 158.235 289.193 158.32 289.193C158.385 289.193 158.443 289.188 158.496 289.179C158.551 289.17 158.593 289.161 158.621 289.153L158.795 289.957C158.74 289.976 158.661 289.997 158.559 290.02C158.459 290.043 158.335 290.056 158.19 290.06C157.932 290.067 157.7 290.028 157.494 289.943C157.287 289.856 157.123 289.722 157.002 289.54C156.883 289.358 156.824 289.131 156.826 288.858V284.591Z" fill="#F46036"/>
<rect x="110.25" y="296.25" width="84.5" height="59.5" rx="5.75" fill="white"/>
<rect x="110.25" y="296.25" width="84.5" height="59.5" rx="5.75" stroke="#F46036" stroke-width="0.5"/>
<path d="M110 302C110 298.686 112.686 296 116 296H189C192.314 296 195 298.686 195 302V311H110V302Z" fill="#F46036"/>
<rect x="113" y="314" width="5" height="2.5" rx="1" fill="#D9D9D9"/>
<rect x="113" y="319" width="5" height="2.5" rx="1" fill="#D9D9D9"/>
<rect x="113" y="324" width="5" height="2.5" rx="1" fill="#D9D9D9"/>
<rect x="113" y="329" width="5" height="2.5" rx="1" fill="#D9D9D9"/>
<rect x="113" y="334" width="5" height="2.5" rx="1" fill="#D9D9D9"/>
<rect x="113" y="339" width="5" height="2.5" rx="1" fill="#D9D9D9"/>
<rect x="113" y="344" width="5" height="2.5" rx="1" fill="#D9D9D9"/>
<rect x="113" y="349" width="5" height="2.5" rx="1" fill="#D9D9D9"/>
<rect x="122.199" y="314" width="5" height="2.5" rx="1" fill="#D9D9D9"/>
<rect x="122.199" y="319" width="5" height="2.5" rx="1" fill="#D9D9D9"/>
<rect x="122.199" y="324" width="5" height="2.5" rx="1" fill="#D9D9D9"/>
<rect x="122.199" y="329" width="5" height="2.5" rx="1" fill="#D9D9D9"/>
<rect x="122.199" y="334" width="5" height="2.5" rx="1" fill="#D9D9D9"/>
<rect x="122.199" y="339" width="5" height="2.5" rx="1" fill="#D9D9D9"/>
<rect x="122.199" y="344" width="5" height="2.5" rx="1" fill="#D9D9D9"/>
<rect x="122.199" y="349" width="5" height="2.5" rx="1" fill="#D9D9D9"/>
<rect x="131.398" y="314" width="5" height="2.5" rx="1" fill="#D9D9D9"/>
<rect x="131.398" y="319" width="5" height="2.5" rx="1" fill="#D9D9D9"/>
<rect x="131.398" y="324" width="5" height="2.5" rx="1" fill="#D9D9D9"/>
<rect x="131.398" y="329" width="5" height="2.5" rx="1" fill="#D9D9D9"/>
<rect x="131.398" y="334" width="5" height="2.5" rx="1" fill="#D9D9D9"/>
<rect x="131.398" y="339" width="5" height="2.5" rx="1" fill="#D9D9D9"/>
<rect x="131.398" y="344" width="5" height="2.5" rx="1" fill="#D9D9D9"/>
<rect x="131.398" y="349" width="5" height="2.5" rx="1" fill="#D9D9D9"/>
<rect x="140.598" y="314" width="5" height="2.5" rx="1" fill="#D9D9D9"/>
<rect x="140.598" y="319" width="5" height="2.5" rx="1" fill="#D9D9D9"/>
<rect x="140.598" y="324" width="5" height="2.5" rx="1" fill="#D9D9D9"/>
<rect x="140.598" y="329" width="5" height="2.5" rx="1" fill="#D9D9D9"/>
<rect x="140.598" y="334" width="5" height="2.5" rx="1" fill="#D9D9D9"/>
<rect x="140.598" y="339" width="5" height="2.5" rx="1" fill="#D9D9D9"/>
<rect x="140.598" y="344" width="5" height="2.5" rx="1" fill="#D9D9D9"/>
<rect x="140.598" y="349" width="5" height="2.5" rx="1" fill="#D9D9D9"/>
<rect x="149.797" y="314" width="5" height="2.5" rx="1" fill="#D9D9D9"/>
<rect x="149.797" y="319" width="5" height="2.5" rx="1" fill="#D9D9D9"/>
<rect x="149.797" y="324" width="5" height="2.5" rx="1" fill="#D9D9D9"/>
<rect x="149.797" y="329" width="5" height="2.5" rx="1" fill="#D9D9D9"/>
<rect x="149.797" y="334" width="5" height="2.5" rx="1" fill="#D9D9D9"/>
<rect x="149.797" y="339" width="5" height="2.5" rx="1" fill="#D9D9D9"/>
<rect x="149.797" y="344" width="5" height="2.5" rx="1" fill="#D9D9D9"/>
<rect x="149.797" y="349" width="5" height="2.5" rx="1" fill="#D9D9D9"/>
<rect x="158.996" y="314" width="5" height="2.5" rx="1" fill="#D9D9D9"/>
<rect x="158.996" y="319" width="5" height="2.5" rx="1" fill="#D9D9D9"/>
<rect x="158.996" y="324" width="5" height="2.5" rx="1" fill="#D9D9D9"/>
<rect x="158.996" y="329" width="5" height="2.5" rx="1" fill="#D9D9D9"/>
<rect x="158.996" y="334" width="5" height="2.5" rx="1" fill="#D9D9D9"/>
<rect x="158.996" y="339" width="5" height="2.5" rx="1" fill="#D9D9D9"/>
<rect x="158.996" y="344" width="5" height="2.5" rx="1" fill="#D9D9D9"/>
<rect x="158.996" y="349" width="5" height="2.5" rx="1" fill="#D9D9D9"/>
<rect x="168.195" y="314" width="5" height="2.5" rx="1" fill="#D9D9D9"/>
<rect x="168.195" y="319" width="5" height="2.5" rx="1" fill="#D9D9D9"/>
<rect x="168.195" y="324" width="5" height="2.5" rx="1" fill="#D9D9D9"/>
<rect x="168.195" y="329" width="5" height="2.5" rx="1" fill="#D9D9D9"/>
<rect x="168.195" y="334" width="5" height="2.5" rx="1" fill="#D9D9D9"/>
<rect x="168.195" y="339" width="5" height="2.5" rx="1" fill="#D9D9D9"/>
<rect x="168.195" y="344" width="5" height="2.5" rx="1" fill="#D9D9D9"/>
<rect x="168.195" y="349" width="5" height="2.5" rx="1" fill="#D9D9D9"/>
<rect x="177.395" y="314" width="5" height="2.5" rx="1" fill="#D9D9D9"/>
<rect x="177.395" y="319" width="5" height="2.5" rx="1" fill="#D9D9D9"/>
<rect x="177.395" y="324" width="5" height="2.5" rx="1" fill="#D9D9D9"/>
<rect x="177.395" y="329" width="5" height="2.5" rx="1" fill="#D9D9D9"/>
<rect x="177.395" y="334" width="5" height="2.5" rx="1" fill="#D9D9D9"/>
<rect x="177.395" y="339" width="5" height="2.5" rx="1" fill="#D9D9D9"/>
<rect x="177.395" y="344" width="5" height="2.5" rx="1" fill="#D9D9D9"/>
<rect x="177.395" y="349" width="5" height="2.5" rx="1" fill="#D9D9D9"/>
<rect x="186.594" y="314" width="5" height="2.5" rx="1" fill="#D9D9D9"/>
<rect x="186.594" y="319" width="5" height="2.5" rx="1" fill="#D9D9D9"/>
<rect x="186.594" y="324" width="5" height="2.5" rx="1" fill="#D9D9D9"/>
<rect x="186.594" y="329" width="5" height="2.5" rx="1" fill="#D9D9D9"/>
<rect x="186.594" y="334" width="5" height="2.5" rx="1" fill="#D9D9D9"/>
<rect x="186.594" y="339" width="5" height="2.5" rx="1" fill="#D9D9D9"/>
<rect x="186.594" y="344" width="5" height="2.5" rx="1" fill="#D9D9D9"/>
<rect x="186.594" y="349" width="5" height="2.5" rx="1" fill="#D9D9D9"/>
<path d="M145 386.5C145 396.165 137.165 404 127.5 404C117.835 404 110 396.165 110 386.5C110 376.835 117.835 369 127.5 369C137.165 369 145 376.835 145 386.5ZM113.597 386.5C113.597 394.178 119.822 400.403 127.5 400.403C135.178 400.403 141.403 394.178 141.403 386.5C141.403 378.822 135.178 372.597 127.5 372.597C119.822 372.597 113.597 378.822 113.597 386.5Z" fill="url(#paint0_linear_2437_60331)"/>
<path d="M125.333 382L134 382.001M125.333 386L134 386.001M125.333 390L134 390.001M122 382.333H122.667V381.667H122V382.333ZM122 386.333H122.667V385.667H122V386.333ZM122 390.333H122.667V389.667H122V390.333Z" stroke="#F46036" stroke-linecap="round" stroke-linejoin="round"/>
<path d="M195 386.5C195 396.165 187.165 404 177.5 404C167.835 404 160 396.165 160 386.5C160 376.835 167.835 369 177.5 369C187.165 369 195 376.835 195 386.5ZM163.597 386.5C163.597 394.178 169.822 400.403 177.5 400.403C185.178 400.403 191.403 394.178 191.403 386.5C191.403 378.822 185.178 372.597 177.5 372.597C169.822 372.597 163.597 378.822 163.597 386.5Z" fill="url(#paint1_linear_2437_60331)"/>
<path d="M172 384H184M174.667 380V381.333M181.333 380V381.333M174 386H175.333M177.333 386H178.667M180.667 386H182M174 388H175.333M177.333 388H178.667M180.667 388H182M174 390H175.333M177.333 390H178.667M180.667 390H182M174.133 392H181.867C182.613 392 182.987 392 183.272 391.855C183.523 391.727 183.727 391.523 183.855 391.272C184 390.987 184 390.613 184 389.867V383.467C184 382.72 184 382.347 183.855 382.061C183.727 381.81 183.523 381.606 183.272 381.479C182.987 381.333 182.613 381.333 181.867 381.333H174.133C173.387 381.333 173.013 381.333 172.728 381.479C172.477 381.606 172.273 381.81 172.145 382.061C172 382.347 172 382.72 172 383.467V389.867C172 390.613 172 390.987 172.145 391.272C172.273 391.523 172.477 391.727 172.728 391.855C173.013 392 173.387 392 174.133 392Z" stroke="#F46036" stroke-linecap="round"/>
<path d="M107 418C107 415.791 108.791 414 111 414H117V444H111C108.791 444 107 442.209 107 440V418Z" fill="#FFFBFA"/>
<rect x="117" y="414" width="10" height="30" fill="#F46036" fill-opacity="0.05"/>
<rect x="127" y="414" width="10" height="30" fill="#F46036" fill-opacity="0.1"/>
<rect x="137" y="414" width="10" height="30" fill="#F46036" fill-opacity="0.25"/>
<rect x="147" y="414" width="10" height="30" fill="#F46036" fill-opacity="0.4"/>
<rect x="157" y="414" width="10" height="30" fill="#F46036" fill-opacity="0.55"/>
<rect x="167" y="414" width="10" height="30" fill="#F46036" fill-opacity="0.7"/>
<rect x="177" y="414" width="10" height="30" fill="#F46036" fill-opacity="0.85"/>
<path d="M187 414H193C195.209 414 197 415.791 197 418V440C197 442.209 195.209 444 193 444H187V414Z" fill="#F46036"/>
</g>
<g filter="url(#filter1_d_2437_60331)">
<rect x="341" y="491" width="100" height="105" rx="8" fill="#FFDDD4"/>
<rect x="341.5" y="491.5" width="99" height="104" rx="7.5" stroke="#F46036"/>
<circle cx="351" cy="508" r="4" fill="#DDB8AD"/>
<rect x="360" y="504" width="75" height="8" rx="4" fill="#DDB8AD"/>
<circle cx="351" cy="522" r="4" fill="#E1A695"/>
<rect x="360" y="518" width="75" height="8" rx="4" fill="#E1A695"/>
<circle cx="351" cy="536" r="4" fill="#E6957E"/>
<rect x="360" y="532" width="75" height="8" rx="4" fill="#E6957E"/>
<circle cx="351" cy="550" r="4" fill="#EB8366"/>
<rect x="360" y="546" width="75" height="8" rx="4" fill="#EB8366"/>
<circle cx="351" cy="564" r="4" fill="#EF724E"/>
<rect x="360" y="560" width="75" height="8" rx="4" fill="#EF724E"/>
<circle cx="351" cy="578" r="4" fill="#F46036"/>
<rect x="360" y="574" width="75" height="8" rx="4" fill="#F46036"/>
</g>
<g filter="url(#filter2_d_2437_60331)">
<rect x="461" y="276" width="100" height="105" rx="8" fill="#FFDDD4"/>
<rect x="461.5" y="276.5" width="99" height="104" rx="7.5" stroke="#F46036"/>
<path d="M498.554 287.145H497.491C497.461 286.971 497.405 286.816 497.324 286.682C497.242 286.545 497.141 286.43 497.02 286.335C496.899 286.241 496.76 286.17 496.605 286.122C496.452 286.073 496.286 286.048 496.108 286.048C495.792 286.048 495.511 286.128 495.267 286.287C495.023 286.444 494.831 286.675 494.693 286.98C494.555 287.283 494.486 287.653 494.486 288.091C494.486 288.536 494.555 288.911 494.693 289.216C494.833 289.519 495.025 289.748 495.267 289.903C495.511 290.057 495.791 290.134 496.105 290.134C496.279 290.134 496.442 290.111 496.594 290.065C496.747 290.018 496.884 289.949 497.006 289.858C497.129 289.767 497.232 289.655 497.315 289.523C497.401 289.39 497.459 289.239 497.491 289.068L498.554 289.074C498.514 289.35 498.428 289.61 498.295 289.852C498.165 290.095 497.993 290.309 497.781 290.494C497.569 290.678 497.321 290.822 497.037 290.926C496.753 291.028 496.438 291.08 496.091 291.08C495.58 291.08 495.123 290.961 494.722 290.724C494.32 290.488 494.004 290.146 493.773 289.699C493.542 289.252 493.426 288.716 493.426 288.091C493.426 287.464 493.543 286.928 493.776 286.483C494.009 286.036 494.326 285.694 494.727 285.457C495.129 285.221 495.583 285.102 496.091 285.102C496.415 285.102 496.716 285.148 496.994 285.239C497.273 285.33 497.521 285.463 497.739 285.639C497.956 285.813 498.135 286.027 498.276 286.281C498.418 286.533 498.51 286.821 498.554 287.145ZM500.729 291.088C500.453 291.088 500.204 291.039 499.982 290.94C499.763 290.84 499.588 290.692 499.46 290.497C499.333 290.302 499.269 290.062 499.269 289.776C499.269 289.529 499.315 289.326 499.406 289.165C499.496 289.004 499.621 288.875 499.778 288.778C499.935 288.682 500.112 288.609 500.309 288.56C500.508 288.509 500.713 288.472 500.925 288.449C501.181 288.422 501.388 288.399 501.548 288.378C501.707 288.355 501.822 288.321 501.894 288.276C501.968 288.228 502.005 288.155 502.005 288.057V288.04C502.005 287.826 501.942 287.66 501.815 287.543C501.688 287.425 501.505 287.366 501.266 287.366C501.014 287.366 500.815 287.421 500.667 287.531C500.521 287.641 500.423 287.771 500.371 287.92L499.411 287.784C499.487 287.519 499.612 287.297 499.786 287.119C499.96 286.939 500.174 286.805 500.425 286.716C500.677 286.625 500.956 286.58 501.261 286.58C501.471 286.58 501.68 286.604 501.888 286.653C502.097 286.703 502.287 286.784 502.46 286.898C502.632 287.009 502.77 287.162 502.874 287.355C502.98 287.548 503.033 287.79 503.033 288.08V291H502.045V290.401H502.011C501.948 290.522 501.86 290.635 501.746 290.741C501.635 290.846 501.494 290.93 501.323 290.994C501.155 291.057 500.957 291.088 500.729 291.088ZM500.996 290.332C501.203 290.332 501.382 290.292 501.533 290.21C501.685 290.127 501.801 290.017 501.883 289.881C501.966 289.744 502.008 289.596 502.008 289.435V288.92C501.976 288.947 501.921 288.972 501.843 288.994C501.767 289.017 501.682 289.037 501.587 289.054C501.493 289.071 501.399 289.086 501.306 289.099C501.213 289.113 501.133 289.124 501.065 289.134C500.911 289.154 500.774 289.188 500.653 289.236C500.531 289.283 500.436 289.349 500.366 289.435C500.296 289.518 500.261 289.626 500.261 289.759C500.261 289.948 500.33 290.091 500.468 290.188C500.606 290.284 500.782 290.332 500.996 290.332ZM505.096 285.182V291H504.067V285.182H505.096ZM508.085 291.085C507.648 291.085 507.27 290.994 506.952 290.812C506.635 290.629 506.392 290.369 506.222 290.034C506.051 289.697 505.966 289.3 505.966 288.844C505.966 288.395 506.051 288.001 506.222 287.662C506.394 287.321 506.634 287.056 506.943 286.866C507.252 286.675 507.615 286.58 508.031 286.58C508.3 286.58 508.554 286.623 508.793 286.71C509.033 286.795 509.245 286.928 509.429 287.108C509.615 287.288 509.76 287.517 509.866 287.795C509.973 288.072 510.026 288.402 510.026 288.784V289.099H506.449V288.406H509.04C509.038 288.209 508.995 288.034 508.912 287.881C508.829 287.725 508.712 287.603 508.562 287.514C508.415 287.425 508.242 287.381 508.045 287.381C507.835 287.381 507.651 287.432 507.491 287.534C507.332 287.634 507.208 287.767 507.119 287.932C507.032 288.095 506.988 288.274 506.986 288.469V289.074C506.986 289.328 507.032 289.545 507.125 289.727C507.218 289.907 507.348 290.045 507.514 290.142C507.681 290.237 507.876 290.284 508.099 290.284C508.249 290.284 508.384 290.263 508.506 290.222C508.627 290.178 508.732 290.115 508.821 290.031C508.91 289.948 508.977 289.845 509.023 289.722L509.983 289.83C509.922 290.083 509.807 290.305 509.636 290.494C509.468 290.682 509.252 290.828 508.989 290.932C508.725 291.034 508.424 291.085 508.085 291.085ZM511.924 288.443V291H510.896V286.636H511.879V287.378H511.93C512.03 287.134 512.19 286.939 512.41 286.795C512.631 286.652 512.905 286.58 513.231 286.58C513.532 286.58 513.794 286.644 514.018 286.773C514.243 286.902 514.417 287.088 514.54 287.332C514.665 287.577 514.727 287.873 514.725 288.222V291H513.697V288.381C513.697 288.089 513.621 287.861 513.469 287.696C513.32 287.531 513.112 287.449 512.847 287.449C512.667 287.449 512.507 287.489 512.367 287.568C512.229 287.646 512.12 287.759 512.04 287.906C511.963 288.054 511.924 288.233 511.924 288.443ZM517.39 291.077C517.047 291.077 516.74 290.989 516.469 290.812C516.199 290.636 515.985 290.381 515.827 290.045C515.67 289.71 515.592 289.303 515.592 288.824C515.592 288.339 515.671 287.93 515.83 287.597C515.991 287.261 516.208 287.009 516.481 286.838C516.754 286.666 517.058 286.58 517.393 286.58C517.648 286.58 517.859 286.623 518.023 286.71C518.188 286.795 518.319 286.899 518.415 287.02C518.512 287.139 518.587 287.252 518.64 287.358H518.683V285.182H519.714V291H518.702V290.312H518.64C518.587 290.419 518.51 290.531 518.41 290.651C518.309 290.768 518.177 290.868 518.012 290.952C517.847 291.035 517.64 291.077 517.39 291.077ZM517.677 290.233C517.895 290.233 518.08 290.174 518.234 290.057C518.387 289.937 518.504 289.772 518.583 289.56C518.663 289.348 518.702 289.1 518.702 288.818C518.702 288.536 518.663 288.291 518.583 288.082C518.505 287.874 518.39 287.712 518.237 287.597C518.085 287.481 517.898 287.423 517.677 287.423C517.448 287.423 517.256 287.483 517.103 287.602C516.95 287.722 516.834 287.886 516.756 288.097C516.679 288.307 516.64 288.547 516.64 288.818C516.64 289.091 516.679 289.334 516.756 289.548C516.836 289.76 516.952 289.928 517.106 290.051C517.261 290.172 517.451 290.233 517.677 290.233ZM522.065 291.088C521.789 291.088 521.54 291.039 521.318 290.94C521.098 290.84 520.924 290.692 520.795 290.497C520.669 290.302 520.605 290.062 520.605 289.776C520.605 289.529 520.651 289.326 520.741 289.165C520.832 289.004 520.956 288.875 521.114 288.778C521.271 288.682 521.448 288.609 521.645 288.56C521.844 288.509 522.049 288.472 522.261 288.449C522.517 288.422 522.724 288.399 522.884 288.378C523.043 288.355 523.158 288.321 523.23 288.276C523.304 288.228 523.341 288.155 523.341 288.057V288.04C523.341 287.826 523.277 287.66 523.151 287.543C523.024 287.425 522.841 287.366 522.602 287.366C522.35 287.366 522.151 287.421 522.003 287.531C521.857 287.641 521.759 287.771 521.707 287.92L520.747 287.784C520.823 287.519 520.948 287.297 521.122 287.119C521.296 286.939 521.509 286.805 521.761 286.716C522.013 286.625 522.292 286.58 522.597 286.58C522.807 286.58 523.016 286.604 523.224 286.653C523.433 286.703 523.623 286.784 523.795 286.898C523.968 287.009 524.106 287.162 524.21 287.355C524.316 287.548 524.369 287.79 524.369 288.08V291H523.381V290.401H523.347C523.284 290.522 523.196 290.635 523.082 290.741C522.971 290.846 522.83 290.93 522.659 290.994C522.491 291.057 522.293 291.088 522.065 291.088ZM522.332 290.332C522.539 290.332 522.718 290.292 522.869 290.21C523.021 290.127 523.137 290.017 523.219 289.881C523.302 289.744 523.344 289.596 523.344 289.435V288.92C523.312 288.947 523.257 288.972 523.179 288.994C523.103 289.017 523.018 289.037 522.923 289.054C522.829 289.071 522.735 289.086 522.642 289.099C522.549 289.113 522.469 289.124 522.401 289.134C522.247 289.154 522.11 289.188 521.989 289.236C521.867 289.283 521.772 289.349 521.702 289.435C521.632 289.518 521.597 289.626 521.597 289.759C521.597 289.948 521.666 290.091 521.804 290.188C521.942 290.284 522.118 290.332 522.332 290.332ZM525.403 291V286.636H526.401V287.364H526.446C526.526 287.112 526.662 286.918 526.855 286.781C527.05 286.643 527.273 286.574 527.523 286.574C527.58 286.574 527.643 286.577 527.713 286.582C527.785 286.586 527.845 286.593 527.892 286.602V287.548C527.848 287.533 527.779 287.52 527.685 287.509C527.592 287.495 527.502 287.489 527.415 287.489C527.227 287.489 527.059 287.529 526.909 287.611C526.761 287.69 526.645 287.801 526.56 287.943C526.474 288.085 526.432 288.249 526.432 288.435V291H525.403Z" fill="#F46036"/>
<rect x="468" y="298" width="85" height="15" rx="4" fill="#F46036"/>
<path d="M492.639 308V302.182H494.713C495.166 302.182 495.541 302.264 495.838 302.429C496.135 302.594 496.358 302.819 496.506 303.105C496.653 303.389 496.727 303.709 496.727 304.065C496.727 304.423 496.652 304.745 496.503 305.031C496.355 305.315 496.132 305.541 495.832 305.707C495.535 305.872 495.161 305.955 494.71 305.955H493.284V305.21H494.631C494.917 305.21 495.149 305.161 495.327 305.062C495.505 304.962 495.635 304.826 495.719 304.653C495.802 304.481 495.844 304.285 495.844 304.065C495.844 303.846 495.802 303.651 495.719 303.48C495.635 303.31 495.504 303.176 495.324 303.08C495.146 302.983 494.911 302.935 494.619 302.935H493.517V308H492.639ZM497.756 308V302.182H499.83C500.281 302.182 500.655 302.259 500.952 302.415C501.252 302.57 501.475 302.785 501.623 303.06C501.771 303.332 501.844 303.648 501.844 304.006C501.844 304.362 501.77 304.675 501.62 304.946C501.472 305.215 501.249 305.424 500.95 305.574C500.652 305.723 500.278 305.798 499.827 305.798H498.256V305.043H499.748C500.032 305.043 500.263 305.002 500.441 304.92C500.621 304.839 500.753 304.721 500.836 304.565C500.919 304.41 500.961 304.223 500.961 304.006C500.961 303.786 500.918 303.596 500.833 303.435C500.75 303.274 500.618 303.151 500.438 303.065C500.26 302.978 500.026 302.935 499.737 302.935H498.634V308H497.756ZM500.629 305.375L502.066 308H501.066L499.657 305.375H500.629ZM507.967 305.091C507.967 305.712 507.853 306.246 507.626 306.693C507.398 307.138 507.087 307.481 506.691 307.722C506.297 307.96 505.849 308.08 505.347 308.08C504.844 308.08 504.394 307.96 503.998 307.722C503.604 307.481 503.293 307.137 503.066 306.69C502.839 306.243 502.725 305.71 502.725 305.091C502.725 304.47 502.839 303.937 503.066 303.491C503.293 303.045 503.604 302.702 503.998 302.463C504.394 302.223 504.844 302.102 505.347 302.102C505.849 302.102 506.297 302.223 506.691 302.463C507.087 302.702 507.398 303.045 507.626 303.491C507.853 303.937 507.967 304.47 507.967 305.091ZM507.097 305.091C507.097 304.617 507.021 304.219 506.867 303.895C506.716 303.569 506.507 303.323 506.242 303.156C505.979 302.988 505.681 302.903 505.347 302.903C505.012 302.903 504.713 302.988 504.45 303.156C504.186 303.323 503.978 303.569 503.825 303.895C503.673 304.219 503.597 304.617 503.597 305.091C503.597 305.564 503.673 305.964 503.825 306.29C503.978 306.614 504.186 306.86 504.45 307.028C504.713 307.195 505.012 307.278 505.347 307.278C505.681 307.278 505.979 307.195 506.242 307.028C506.507 306.86 506.716 306.614 506.867 306.29C507.021 305.964 507.097 305.564 507.097 305.091ZM511.322 302.182H512.197V306.307C512.197 306.68 512.124 306.999 511.976 307.264C511.83 307.529 511.625 307.732 511.359 307.872C511.094 308.01 510.784 308.08 510.428 308.08C510.1 308.08 509.805 308.02 509.544 307.901C509.285 307.781 509.079 307.608 508.928 307.381C508.778 307.152 508.703 306.873 508.703 306.545H509.575C509.575 306.706 509.612 306.846 509.686 306.963C509.762 307.08 509.865 307.172 509.996 307.239C510.128 307.303 510.28 307.335 510.45 307.335C510.636 307.335 510.793 307.296 510.922 307.219C511.053 307.139 511.152 307.023 511.22 306.869C511.288 306.716 511.322 306.528 511.322 306.307V302.182ZM513.475 308V302.182H517.123V302.938H514.353V304.71H516.933V305.463H514.353V307.244H517.157V308H513.475ZM523.128 304.074H522.241C522.207 303.884 522.144 303.718 522.051 303.574C521.958 303.43 521.845 303.308 521.71 303.207C521.576 303.107 521.425 303.031 521.259 302.98C521.094 302.929 520.919 302.903 520.733 302.903C520.398 302.903 520.098 302.988 519.832 303.156C519.569 303.325 519.361 303.572 519.207 303.898C519.056 304.223 518.98 304.621 518.98 305.091C518.98 305.564 519.056 305.964 519.207 306.29C519.361 306.616 519.57 306.862 519.835 307.028C520.1 307.195 520.399 307.278 520.73 307.278C520.914 307.278 521.088 307.254 521.253 307.205C521.42 307.153 521.57 307.079 521.705 306.98C521.839 306.882 521.953 306.761 522.045 306.619C522.14 306.475 522.205 306.311 522.241 306.125L523.128 306.128C523.08 306.414 522.989 306.677 522.852 306.918C522.718 307.156 522.545 307.363 522.332 307.537C522.122 307.709 521.882 307.843 521.611 307.938C521.34 308.032 521.045 308.08 520.724 308.08C520.221 308.08 519.772 307.96 519.378 307.722C518.984 307.481 518.673 307.137 518.446 306.69C518.221 306.243 518.108 305.71 518.108 305.091C518.108 304.47 518.222 303.937 518.449 303.491C518.676 303.045 518.987 302.702 519.381 302.463C519.775 302.223 520.223 302.102 520.724 302.102C521.033 302.102 521.321 302.147 521.588 302.236C521.857 302.323 522.098 302.452 522.312 302.622C522.527 302.791 522.704 302.997 522.844 303.241C522.984 303.484 523.079 303.761 523.128 304.074ZM523.891 302.938V302.182H528.394V302.938H526.579V308H525.704V302.938H523.891Z" fill="white"/>
<path d="M470 372C468.895 372 468 371.105 468 370V366H553V370C553 371.105 552.105 372 551 372H470Z" fill="#FFFBFA"/>
<rect x="468" y="366" width="6" height="85" transform="rotate(-90 468 366)" fill="#F46036" fill-opacity="0.05"/>
<rect x="468" y="360" width="6" height="85" transform="rotate(-90 468 360)" fill="#F46036" fill-opacity="0.1"/>
<rect x="468" y="354" width="6" height="85" transform="rotate(-90 468 354)" fill="#F46036" fill-opacity="0.25"/>
<rect x="468" y="348" width="6" height="85" transform="rotate(-90 468 348)" fill="#F46036" fill-opacity="0.4"/>
<rect x="468" y="342" width="6" height="85" transform="rotate(-90 468 342)" fill="#F46036" fill-opacity="0.55"/>
<rect x="468" y="336" width="6" height="85" transform="rotate(-90 468 336)" fill="#F46036" fill-opacity="0.7"/>
<rect x="468" y="330" width="6" height="85" transform="rotate(-90 468 330)" fill="#F46036" fill-opacity="0.85"/>
<path d="M468 324V320C468 318.895 468.895 318 470 318H551C552.105 318 553 318.895 553 320V324H468Z" fill="#F46036"/>
</g>
<g filter="url(#filter3_d_2437_60331)">
<rect x="460" y="395" width="100" height="50" rx="8" fill="#FFDDD4"/>
<rect x="460.5" y="395.5" width="99" height="49" rx="7.5" stroke="#F46036"/>
<path d="M484.715 408.166C491.001 411.02 493.784 418.429 490.931 424.715C488.078 431.001 480.669 433.784 474.382 430.931C468.096 428.078 465.313 420.669 468.166 414.382C471.02 408.096 478.429 405.313 484.715 408.166ZM474.899 429.793C480.557 432.361 487.225 429.856 489.793 424.198C492.361 418.541 489.856 411.873 484.198 409.305C478.541 406.737 471.872 409.241 469.305 414.899C466.737 420.557 469.241 427.225 474.899 429.793Z" fill="url(#paint2_linear_2437_60331)"/>
<path fill-rule="evenodd" clip-rule="evenodd" d="M510.094 414.765C510.094 411.451 512.782 408.765 516.099 408.765C519.416 408.765 522.105 411.451 522.105 414.765C522.105 418.079 519.416 420.765 516.099 420.765C512.782 420.765 510.094 418.079 510.094 414.765Z" fill="url(#paint3_linear_2437_60331)"/>
<path fill-rule="evenodd" clip-rule="evenodd" d="M509.523 423.667C511.15 422.986 513.319 422.765 516.098 422.765C518.872 422.765 521.038 422.985 522.663 423.663C524.407 424.39 525.478 425.626 526.049 427.424C526.261 428.092 525.759 428.765 525.066 428.765H507.125C506.434 428.765 505.936 428.095 506.146 427.43C506.715 425.633 507.782 424.397 509.523 423.667Z" fill="url(#paint4_linear_2437_60331)"/>
<path fill-rule="evenodd" clip-rule="evenodd" d="M540.094 414.765C540.094 411.451 542.782 408.765 546.099 408.765C549.416 408.765 552.105 411.451 552.105 414.765C552.105 418.079 549.416 420.765 546.099 420.765C542.782 420.765 540.094 418.079 540.094 414.765Z" fill="url(#paint5_linear_2437_60331)"/>
<path fill-rule="evenodd" clip-rule="evenodd" d="M539.523 423.667C541.15 422.986 543.319 422.765 546.098 422.765C548.872 422.765 551.038 422.985 552.663 423.663C554.407 424.39 555.478 425.626 556.049 427.424C556.261 428.092 555.759 428.765 555.066 428.765H537.125C536.434 428.765 535.936 428.095 536.146 427.43C536.715 425.633 537.782 424.397 539.523 423.667Z" fill="url(#paint6_linear_2437_60331)"/>
</g>
<g filter="url(#filter4_d_2437_60331)">
<rect x="461" y="461" width="100" height="135" rx="8" fill="#FFDDD4"/>
<rect x="461.5" y="461.5" width="99" height="134" rx="7.5" stroke="#F46036"/>
<path d="M500.705 475V469.182H502.739C503.144 469.182 503.478 469.252 503.741 469.392C504.005 469.53 504.201 469.717 504.33 469.952C504.458 470.185 504.523 470.443 504.523 470.727C504.523 470.977 504.478 471.184 504.389 471.347C504.302 471.509 504.187 471.638 504.043 471.733C503.901 471.828 503.746 471.898 503.58 471.943V472C503.758 472.011 503.937 472.074 504.116 472.188C504.296 472.301 504.447 472.464 504.568 472.676C504.689 472.888 504.75 473.148 504.75 473.455C504.75 473.746 504.684 474.009 504.551 474.241C504.419 474.474 504.209 474.659 503.923 474.795C503.637 474.932 503.265 475 502.807 475H500.705ZM501.409 474.375H502.807C503.267 474.375 503.594 474.286 503.787 474.108C503.982 473.928 504.08 473.71 504.08 473.455C504.08 473.258 504.029 473.076 503.929 472.909C503.829 472.741 503.686 472.606 503.5 472.506C503.314 472.403 503.095 472.352 502.841 472.352H501.409V474.375ZM501.409 471.739H502.716C502.928 471.739 503.119 471.697 503.29 471.614C503.462 471.53 503.598 471.413 503.699 471.261C503.801 471.11 503.852 470.932 503.852 470.727C503.852 470.472 503.763 470.255 503.585 470.077C503.407 469.897 503.125 469.807 502.739 469.807H501.409V471.739ZM507.589 475.091C507.196 475.091 506.85 474.997 506.553 474.81C506.257 474.622 506.026 474.36 505.859 474.023C505.695 473.686 505.612 473.292 505.612 472.841C505.612 472.386 505.695 471.99 505.859 471.651C506.026 471.312 506.257 471.048 506.553 470.861C506.85 470.673 507.196 470.58 507.589 470.58C507.983 470.58 508.328 470.673 508.624 470.861C508.921 471.048 509.152 471.312 509.317 471.651C509.483 471.99 509.567 472.386 509.567 472.841C509.567 473.292 509.483 473.686 509.317 474.023C509.152 474.36 508.921 474.622 508.624 474.81C508.328 474.997 507.983 475.091 507.589 475.091ZM507.589 474.489C507.889 474.489 508.135 474.412 508.328 474.259C508.521 474.105 508.664 473.903 508.757 473.653C508.85 473.403 508.896 473.133 508.896 472.841C508.896 472.549 508.85 472.277 508.757 472.026C508.664 471.774 508.521 471.57 508.328 471.415C508.135 471.259 507.889 471.182 507.589 471.182C507.29 471.182 507.044 471.259 506.851 471.415C506.658 471.57 506.515 471.774 506.422 472.026C506.329 472.277 506.283 472.549 506.283 472.841C506.283 473.133 506.329 473.403 506.422 473.653C506.515 473.903 506.658 474.105 506.851 474.259C507.044 474.412 507.29 474.489 507.589 474.489ZM511.874 475.102C511.598 475.102 511.347 475.05 511.121 474.946C510.896 474.84 510.717 474.688 510.585 474.489C510.452 474.288 510.386 474.045 510.386 473.761C510.386 473.511 510.435 473.309 510.533 473.153C510.632 472.996 510.763 472.873 510.928 472.784C511.093 472.695 511.275 472.629 511.474 472.585C511.674 472.54 511.876 472.504 512.079 472.477C512.344 472.443 512.559 472.418 512.724 472.401C512.89 472.382 513.012 472.35 513.087 472.307C513.165 472.263 513.204 472.187 513.204 472.08V472.057C513.204 471.777 513.127 471.559 512.974 471.403C512.822 471.248 512.592 471.17 512.283 471.17C511.963 471.17 511.712 471.241 511.531 471.381C511.349 471.521 511.221 471.67 511.147 471.83L510.511 471.602C510.624 471.337 510.776 471.131 510.965 470.983C511.156 470.833 511.365 470.729 511.59 470.67C511.817 470.61 512.041 470.58 512.261 470.58C512.401 470.58 512.562 470.597 512.744 470.631C512.927 470.663 513.104 470.73 513.275 470.832C513.447 470.935 513.59 471.089 513.704 471.295C513.817 471.502 513.874 471.778 513.874 472.125V475H513.204V474.409H513.17C513.124 474.504 513.049 474.605 512.942 474.713C512.836 474.821 512.695 474.913 512.519 474.989C512.343 475.064 512.128 475.102 511.874 475.102ZM511.977 474.5C512.242 474.5 512.465 474.448 512.647 474.344C512.831 474.24 512.969 474.105 513.062 473.94C513.156 473.776 513.204 473.602 513.204 473.42V472.807C513.175 472.841 513.113 472.872 513.016 472.901C512.922 472.927 512.812 472.951 512.687 472.972C512.564 472.991 512.443 473.008 512.326 473.023C512.21 473.036 512.117 473.047 512.045 473.057C511.871 473.08 511.708 473.116 511.556 473.168C511.406 473.217 511.285 473.292 511.192 473.392C511.102 473.491 511.056 473.625 511.056 473.795C511.056 474.028 511.142 474.205 511.315 474.324C511.489 474.441 511.71 474.5 511.977 474.5ZM515.098 475V470.636H515.746V471.295H515.791C515.871 471.08 516.015 470.904 516.223 470.77C516.431 470.635 516.666 470.568 516.928 470.568C516.977 470.568 517.038 470.569 517.112 470.571C517.186 470.573 517.242 470.576 517.28 470.58V471.261C517.257 471.256 517.205 471.247 517.124 471.236C517.044 471.223 516.96 471.216 516.871 471.216C516.659 471.216 516.469 471.26 516.303 471.349C516.138 471.437 516.007 471.558 515.911 471.713C515.816 471.866 515.768 472.042 515.768 472.239V475H515.098ZM519.589 475.091C519.226 475.091 518.905 474.999 518.626 474.815C518.348 474.63 518.13 474.368 517.973 474.031C517.816 473.692 517.737 473.292 517.737 472.83C517.737 472.371 517.816 471.973 517.973 471.636C518.13 471.299 518.349 471.039 518.629 470.855C518.91 470.671 519.233 470.58 519.601 470.58C519.885 470.58 520.109 470.627 520.274 470.722C520.441 470.814 520.568 470.92 520.655 471.04C520.744 471.157 520.813 471.254 520.862 471.33H520.919V469.182H521.589V475H520.942V474.33H520.862C520.813 474.409 520.743 474.509 520.652 474.631C520.561 474.75 520.431 474.857 520.263 474.952C520.094 475.045 519.87 475.091 519.589 475.091ZM519.68 474.489C519.949 474.489 520.177 474.419 520.362 474.278C520.548 474.136 520.689 473.94 520.786 473.69C520.882 473.438 520.93 473.148 520.93 472.818C520.93 472.492 520.883 472.207 520.788 471.963C520.694 471.717 520.554 471.526 520.368 471.389C520.182 471.251 519.953 471.182 519.68 471.182C519.396 471.182 519.16 471.255 518.97 471.401C518.783 471.545 518.642 471.741 518.547 471.989C518.454 472.235 518.408 472.511 518.408 472.818C518.408 473.129 518.455 473.411 518.55 473.665C518.646 473.917 518.788 474.117 518.976 474.267C519.165 474.415 519.4 474.489 519.68 474.489Z" fill="black"/>
<path d="M466 481C466 479.895 466.895 479 468 479H476V589H468C466.895 589 466 588.105 466 587V481Z" fill="#FFFBFA"/>
<rect x="476" y="479" width="10" height="110" fill="#F46036" fill-opacity="0.05"/>
<rect x="486" y="479" width="10" height="110" fill="#F46036" fill-opacity="0.1"/>
<rect x="496" y="479" width="10" height="110" fill="#F46036" fill-opacity="0.25"/>
<rect x="506" y="479" width="10" height="110" fill="#F46036" fill-opacity="0.4"/>
<rect x="516" y="479" width="10" height="110" fill="#F46036" fill-opacity="0.55"/>
<rect x="526" y="479" width="10" height="110" fill="#F46036" fill-opacity="0.7"/>
<rect x="536" y="479" width="10" height="110" fill="#F46036" fill-opacity="0.85"/>
<path d="M546 479H554C555.105 479 556 479.895 556 481V587C556 588.105 555.105 589 554 589H546V479Z" fill="#F46036"/>
</g>
<g filter="url(#filter5_d_2437_60331)">
<rect x="221" y="276" width="100" height="320" rx="8" fill="#FFDDD4"/>
<rect x="221.5" y="276.5" width="99" height="319" rx="7.5" stroke="#F46036"/>
<path d="M264.574 290V284.182H265.628V289.116H268.19V290H264.574ZM269.06 290V285.636H270.088V290H269.06ZM269.577 285.017C269.414 285.017 269.274 284.963 269.156 284.855C269.039 284.745 268.98 284.614 268.98 284.46C268.98 284.305 269.039 284.173 269.156 284.065C269.274 283.955 269.414 283.901 269.577 283.901C269.741 283.901 269.882 283.955 269.997 284.065C270.115 284.173 270.173 284.305 270.173 284.46C270.173 284.614 270.115 284.745 269.997 284.855C269.882 284.963 269.741 285.017 269.577 285.017ZM274.594 286.79L273.657 286.892C273.63 286.797 273.584 286.708 273.518 286.625C273.453 286.542 273.366 286.474 273.256 286.423C273.147 286.372 273.012 286.347 272.853 286.347C272.639 286.347 272.459 286.393 272.313 286.486C272.169 286.579 272.098 286.699 272.1 286.847C272.098 286.973 272.145 287.077 272.239 287.156C272.336 287.236 272.495 287.301 272.717 287.352L273.461 287.511C273.874 287.6 274.181 287.741 274.381 287.935C274.584 288.128 274.686 288.381 274.688 288.693C274.686 288.968 274.606 289.21 274.447 289.42C274.29 289.629 274.071 289.792 273.79 289.909C273.51 290.027 273.188 290.085 272.825 290.085C272.29 290.085 271.861 289.973 271.535 289.75C271.209 289.525 271.015 289.211 270.952 288.81L271.955 288.713C272.001 288.91 272.097 289.059 272.245 289.159C272.393 289.259 272.585 289.31 272.822 289.31C273.066 289.31 273.262 289.259 273.41 289.159C273.559 289.059 273.634 288.935 273.634 288.787C273.634 288.662 273.586 288.559 273.489 288.477C273.395 288.396 273.247 288.333 273.046 288.29L272.302 288.134C271.883 288.046 271.574 287.9 271.373 287.693C271.172 287.485 271.073 287.222 271.075 286.903C271.073 286.634 271.146 286.402 271.293 286.205C271.443 286.006 271.65 285.852 271.915 285.744C272.183 285.634 272.49 285.58 272.839 285.58C273.35 285.58 273.753 285.688 274.046 285.906C274.342 286.124 274.524 286.419 274.594 286.79ZM277.715 285.636V286.432H275.207V285.636H277.715ZM275.826 284.591H276.854V288.688C276.854 288.826 276.875 288.932 276.917 289.006C276.96 289.078 277.017 289.127 277.087 289.153C277.157 289.18 277.235 289.193 277.32 289.193C277.385 289.193 277.443 289.188 277.496 289.179C277.551 289.17 277.593 289.161 277.621 289.153L277.795 289.957C277.74 289.976 277.661 289.997 277.559 290.02C277.459 290.043 277.335 290.056 277.19 290.06C276.932 290.067 276.7 290.028 276.494 289.943C276.287 289.856 276.123 289.722 276.002 289.54C275.883 289.358 275.824 289.131 275.826 288.858V284.591Z" fill="#F46036"/>
<rect x="231" y="300" width="80" height="12" rx="4" fill="url(#paint7_linear_2437_60331)"/>
<rect width="80" height="12" rx="4" transform="matrix(-1 0 0 1 311 327)" fill="url(#paint8_linear_2437_60331)"/>
<rect x="231" y="354" width="80" height="12" rx="4" fill="url(#paint9_linear_2437_60331)"/>
<rect width="80" height="12" rx="4" transform="matrix(-1 0 0 1 311 381)" fill="url(#paint10_linear_2437_60331)"/>
<rect x="231" y="408" width="80" height="12" rx="4" fill="url(#paint11_linear_2437_60331)"/>
<rect width="80" height="12" rx="4" transform="matrix(-1 0 0 1 311 435)" fill="url(#paint12_linear_2437_60331)"/>
<rect x="231" y="462" width="80" height="12" rx="4" fill="url(#paint13_linear_2437_60331)"/>
<rect width="80" height="12" rx="4" transform="matrix(-1 0 0 1 311 489)" fill="url(#paint14_linear_2437_60331)"/>
<path d="M263 551.5C263 561.165 255.165 569 245.5 569C235.835 569 228 561.165 228 551.5C228 541.835 235.835 534 245.5 534C255.165 534 263 541.835 263 551.5ZM231.597 551.5C231.597 559.178 237.822 565.403 245.5 565.403C253.178 565.403 259.403 559.178 259.403 551.5C259.403 543.822 253.178 537.597 245.5 537.597C237.822 537.597 231.597 543.822 231.597 551.5Z" fill="url(#paint15_linear_2437_60331)"/>
<path d="M313 551.5C313 561.165 305.165 569 295.5 569C285.835 569 278 561.165 278 551.5C278 541.835 285.835 534 295.5 534C305.165 534 313 541.835 313 551.5ZM281.597 551.5C281.597 559.178 287.822 565.403 295.5 565.403C303.178 565.403 309.403 559.178 309.403 551.5C309.403 543.822 303.178 537.597 295.5 537.597C287.822 537.597 281.597 543.822 281.597 551.5Z" fill="url(#paint16_linear_2437_60331)"/>
<path d="M301 546.5L294.999 554L291 550L290 551.204L294.999 556.203L302 547.203L301 546.5Z" fill="#F46036"/>
<path fill-rule="evenodd" clip-rule="evenodd" d="M248.5 547V550.054L251.5 553.304V556L247.9 554.5H247.443C247.499 554.814 247.543 555.255 247.428 555.642C247.311 556.038 246.992 556.481 246.757 556.779C246.631 556.939 246.511 557.079 246.423 557.179C246.379 557.229 246.342 557.269 246.316 557.298C246.303 557.312 246.293 557.323 246.286 557.33L246.277 557.34L246.275 557.342L246.274 557.343L245.89 557.749L245.529 557.323L245.528 557.322L245.525 557.319L245.518 557.31C245.511 557.302 245.502 557.29 245.49 557.276C245.467 557.248 245.434 557.207 245.394 557.156C245.315 557.056 245.209 556.915 245.097 556.753C244.891 556.454 244.61 556.003 244.53 555.597C244.456 555.224 244.533 554.807 244.615 554.5H244.1L240.5 556V553.304L243.5 550.054V547C243.5 546.57 243.694 546.201 243.919 545.913C244.146 545.623 244.437 545.376 244.707 545.181C244.98 544.983 245.25 544.825 245.45 544.717C245.551 544.663 245.635 544.62 245.695 544.591C245.725 544.576 245.749 544.565 245.766 544.557L245.787 544.548L245.793 544.545L245.794 544.544L245.796 544.544L246 544.452L246.205 544.544L246.206 544.544L246.207 544.545L246.213 544.548L246.234 544.557C246.251 544.565 246.275 544.576 246.305 544.591C246.365 544.62 246.449 544.663 246.55 544.717C246.75 544.825 247.02 544.983 247.293 545.181C247.563 545.376 247.854 545.623 248.081 545.913C248.306 546.201 248.5 546.57 248.5 547ZM245.66 554.5C245.642 554.553 245.623 554.61 245.605 554.671C245.519 554.963 245.478 555.237 245.511 555.403C245.547 555.583 245.711 555.881 245.921 556.186L245.935 556.206C245.947 556.191 245.959 556.176 245.972 556.16C246.212 555.855 246.413 555.548 246.469 555.358C246.52 555.187 246.505 554.913 246.449 554.626C246.44 554.582 246.431 554.54 246.422 554.5H245.66ZM248.5 553.667V551.529L250.5 553.695V554.5L248.5 553.667ZM247.5 547V553.5H244.5V547C244.5 546.877 244.556 546.721 244.706 546.53C244.854 546.341 245.063 546.157 245.293 545.991C245.52 545.826 245.75 545.692 245.925 545.597C245.951 545.583 245.977 545.57 246 545.557C246.023 545.57 246.049 545.583 246.075 545.597C246.25 545.692 246.48 545.826 246.707 545.991C246.937 546.157 247.146 546.341 247.294 546.53C247.444 546.721 247.5 546.877 247.5 547ZM243.5 551.529V553.667L241.5 554.5V553.695L243.5 551.529Z" fill="#F46036"/>
</g>
<g filter="url(#filter6_d_2437_60331)">
<rect x="341" y="276" width="100" height="190" rx="8" fill="#FFDDD4"/>
<rect x="341.5" y="276.5" width="99" height="189" rx="7.5" stroke="#F46036"/>
<path d="M375.318 285.065V284.182H379.96V285.065H378.162V290H377.116V285.065H375.318ZM380.81 290V285.636H381.838V290H380.81ZM381.327 285.017C381.164 285.017 381.024 284.963 380.906 284.855C380.789 284.745 380.73 284.614 380.73 284.46C380.73 284.305 380.789 284.173 380.906 284.065C381.024 283.955 381.164 283.901 381.327 283.901C381.491 283.901 381.632 283.955 381.747 284.065C381.865 284.173 381.923 284.305 381.923 284.46C381.923 284.614 381.865 284.745 381.747 284.855C381.632 284.963 381.491 285.017 381.327 285.017ZM382.896 290V285.636H383.879V286.378H383.93C384.021 286.128 384.171 285.933 384.381 285.793C384.592 285.651 384.843 285.58 385.134 285.58C385.43 285.58 385.679 285.652 385.881 285.795C386.086 285.937 386.23 286.132 386.313 286.378H386.359C386.455 286.135 386.618 285.942 386.847 285.798C387.078 285.652 387.352 285.58 387.668 285.58C388.07 285.58 388.397 285.706 388.651 285.96C388.905 286.214 389.032 286.584 389.032 287.071V290H388.001V287.23C388.001 286.959 387.929 286.761 387.785 286.636C387.641 286.509 387.465 286.446 387.256 286.446C387.008 286.446 386.814 286.524 386.674 286.679C386.536 286.832 386.467 287.032 386.467 287.278V290H385.458V287.188C385.458 286.962 385.39 286.782 385.254 286.648C385.119 286.513 384.943 286.446 384.725 286.446C384.577 286.446 384.443 286.484 384.322 286.56C384.201 286.634 384.104 286.739 384.032 286.875C383.96 287.009 383.924 287.167 383.924 287.347V290H382.896ZM392.007 290.085C391.57 290.085 391.192 289.994 390.874 289.812C390.557 289.629 390.314 289.369 390.143 289.034C389.973 288.697 389.888 288.3 389.888 287.844C389.888 287.395 389.973 287.001 390.143 286.662C390.316 286.321 390.556 286.056 390.865 285.866C391.174 285.675 391.536 285.58 391.953 285.58C392.222 285.58 392.476 285.623 392.714 285.71C392.955 285.795 393.167 285.928 393.351 286.108C393.536 286.288 393.682 286.517 393.788 286.795C393.894 287.072 393.947 287.402 393.947 287.784V288.099H390.371V287.406H392.962C392.96 287.209 392.917 287.034 392.834 286.881C392.75 286.725 392.634 286.603 392.484 286.514C392.337 286.425 392.164 286.381 391.967 286.381C391.757 286.381 391.572 286.432 391.413 286.534C391.254 286.634 391.13 286.767 391.041 286.932C390.954 287.095 390.91 287.274 390.908 287.469V288.074C390.908 288.328 390.954 288.545 391.047 288.727C391.14 288.907 391.269 289.045 391.436 289.142C391.603 289.237 391.798 289.284 392.021 289.284C392.171 289.284 392.306 289.263 392.428 289.222C392.549 289.178 392.654 289.115 392.743 289.031C392.832 288.948 392.899 288.845 392.945 288.722L393.905 288.83C393.844 289.083 393.729 289.305 393.558 289.494C393.39 289.682 393.174 289.828 392.911 289.932C392.647 290.034 392.346 290.085 392.007 290.085ZM395.846 284.182V290H394.817V284.182H395.846ZM396.903 290V285.636H397.932V290H396.903ZM397.42 285.017C397.258 285.017 397.117 284.963 397 284.855C396.883 284.745 396.824 284.614 396.824 284.46C396.824 284.305 396.883 284.173 397 284.065C397.117 283.955 397.258 283.901 397.42 283.901C397.585 283.901 397.725 283.955 397.841 284.065C397.958 284.173 398.017 284.305 398.017 284.46C398.017 284.614 397.958 284.745 397.841 284.855C397.725 284.963 397.585 285.017 397.42 285.017ZM400.018 287.443V290H398.989V285.636H399.972V286.378H400.023C400.124 286.134 400.284 285.939 400.504 285.795C400.725 285.652 400.999 285.58 401.325 285.58C401.626 285.58 401.888 285.644 402.112 285.773C402.337 285.902 402.511 286.088 402.634 286.332C402.759 286.577 402.821 286.873 402.819 287.222V290H401.79V287.381C401.79 287.089 401.715 286.861 401.563 286.696C401.414 286.531 401.206 286.449 400.941 286.449C400.761 286.449 400.601 286.489 400.461 286.568C400.323 286.646 400.214 286.759 400.134 286.906C400.057 287.054 400.018 287.233 400.018 287.443ZM405.796 290.085C405.359 290.085 404.981 289.994 404.663 289.812C404.346 289.629 404.103 289.369 403.933 289.034C403.762 288.697 403.677 288.3 403.677 287.844C403.677 287.395 403.762 287.001 403.933 286.662C404.105 286.321 404.345 286.056 404.654 285.866C404.963 285.675 405.326 285.58 405.742 285.58C406.011 285.58 406.265 285.623 406.504 285.71C406.744 285.795 406.956 285.928 407.14 286.108C407.326 286.288 407.471 286.517 407.577 286.795C407.683 287.072 407.737 287.402 407.737 287.784V288.099H404.16V287.406H406.751C406.749 287.209 406.706 287.034 406.623 286.881C406.54 286.725 406.423 286.603 406.273 286.514C406.126 286.425 405.953 286.381 405.756 286.381C405.546 286.381 405.362 286.432 405.202 286.534C405.043 286.634 404.919 286.767 404.83 286.932C404.743 287.095 404.699 287.274 404.697 287.469V288.074C404.697 288.328 404.743 288.545 404.836 288.727C404.929 288.907 405.058 289.045 405.225 289.142C405.392 289.237 405.587 289.284 405.81 289.284C405.96 289.284 406.095 289.263 406.217 289.222C406.338 289.178 406.443 289.115 406.532 289.031C406.621 288.948 406.688 288.845 406.734 288.722L407.694 288.83C407.633 289.083 407.518 289.305 407.347 289.494C407.179 289.682 406.963 289.828 406.7 289.932C406.436 290.034 406.135 290.085 405.796 290.085Z" fill="#F46036"/>
<path d="M383 375.5C383 385.165 375.165 393 365.5 393C355.835 393 348 385.165 348 375.5C348 365.835 355.835 358 365.5 358C375.165 358 383 365.835 383 375.5ZM349.75 375.5C349.75 384.198 356.802 391.25 365.5 391.25C374.198 391.25 381.25 384.198 381.25 375.5C381.25 366.802 374.198 359.75 365.5 359.75C356.802 359.75 349.75 366.802 349.75 375.5Z" fill="url(#paint17_linear_2437_60331)"/>
<path d="M360 373H372M362.667 369V370.333M369.333 369V370.333M362 375H363.333M365.333 375H366.667M368.667 375H370M362 377H363.333M365.333 377H366.667M368.667 377H370M362 379H363.333M365.333 379H366.667M368.667 379H370M362.133 381H369.867C370.613 381 370.987 381 371.272 380.855C371.523 380.727 371.727 380.523 371.855 380.272C372 379.987 372 379.613 372 378.867V372.467C372 371.72 372 371.347 371.855 371.061C371.727 370.81 371.523 370.606 371.272 370.479C370.987 370.333 370.613 370.333 369.867 370.333H362.133C361.387 370.333 361.013 370.333 360.728 370.479C360.477 370.606 360.273 370.81 360.145 371.061C360 371.347 360 371.72 360 372.467V378.867C360 379.613 360 379.987 360.145 380.272C360.273 380.523 360.477 380.727 360.728 380.855C361.013 381 361.387 381 362.133 381Z" stroke="#F46036" stroke-linecap="round"/>
<path d="M383 424.5C383 434.165 375.165 442 365.5 442C355.835 442 348 434.165 348 424.5C348 414.835 355.835 407 365.5 407C375.165 407 383 414.835 383 424.5ZM349.75 424.5C349.75 433.198 356.802 440.25 365.5 440.25C374.198 440.25 381.25 433.198 381.25 424.5C381.25 415.802 374.198 408.75 365.5 408.75C356.802 408.75 349.75 415.802 349.75 424.5Z" fill="url(#paint18_linear_2437_60331)"/>
<path d="M384 326.5C384 336.165 376.165 344 366.5 344C356.835 344 349 336.165 349 326.5C349 316.835 356.835 309 366.5 309C376.165 309 384 316.835 384 326.5ZM350.75 326.5C350.75 335.198 357.802 342.25 366.5 342.25C375.198 342.25 382.25 335.198 382.25 326.5C382.25 317.802 375.198 310.75 366.5 310.75C357.802 310.75 350.75 317.802 350.75 326.5Z" fill="url(#paint19_linear_2437_60331)"/>
<path d="M433 375.5C433 385.165 425.165 393 415.5 393C405.835 393 398 385.165 398 375.5C398 365.835 405.835 358 415.5 358C425.165 358 433 365.835 433 375.5ZM399.75 375.5C399.75 384.198 406.802 391.25 415.5 391.25C424.198 391.25 431.25 384.198 431.25 375.5C431.25 366.802 424.198 359.75 415.5 359.75C406.802 359.75 399.75 366.802 399.75 375.5Z" fill="url(#paint20_linear_2437_60331)"/>
<path d="M433 424.5C433 434.165 425.165 442 415.5 442C405.835 442 398 434.165 398 424.5C398 414.835 405.835 407 415.5 407C425.165 407 433 414.835 433 424.5ZM399.75 424.5C399.75 433.198 406.802 440.25 415.5 440.25C424.198 440.25 431.25 433.198 431.25 424.5C431.25 415.802 424.198 408.75 415.5 408.75C406.802 408.75 399.75 415.802 399.75 424.5Z" fill="url(#paint21_linear_2437_60331)"/>
<path d="M434 326.5C434 336.165 426.165 344 416.5 344C406.835 344 399 336.165 399 326.5C399 316.835 406.835 309 416.5 309C426.165 309 434 316.835 434 326.5ZM400.75 326.5C400.75 335.198 407.802 342.25 416.5 342.25C425.198 342.25 432.25 335.198 432.25 326.5C432.25 317.802 425.198 310.75 416.5 310.75C407.802 310.75 400.75 317.802 400.75 326.5Z" fill="url(#paint22_linear_2437_60331)"/>
<path d="M424.375 329.409H412.833V319.715C412.833 319.37 412.554 319.09 412.208 319.09C411.863 319.09 411.583 319.37 411.583 319.715V329.409H409.625C409.28 329.409 409 329.689 409 330.034C409 330.379 409.28 330.659 409.625 330.659H411.583V332.285C411.583 332.63 411.863 332.91 412.208 332.91C412.554 332.91 412.833 332.63 412.833 332.285V330.659H424.375C424.72 330.659 425 330.379 425 330.034C425 329.689 424.72 329.409 424.375 329.409Z" fill="#F46036"/>
<path d="M414.374 328.355C414.834 328.355 415.208 327.981 415.208 327.522C415.208 327.332 415.143 327.157 415.035 327.016L416.543 323.383L418.083 326.559C418.01 326.683 417.967 326.827 417.967 326.981C417.967 327.441 418.341 327.814 418.8 327.814C419.26 327.814 419.634 327.441 419.634 326.981C419.634 326.865 419.61 326.754 419.566 326.654L420.146 325.909C420.191 325.917 420.237 325.921 420.284 325.921C420.328 325.921 420.37 325.917 420.411 325.911L420.951 326.644C420.905 326.747 420.879 326.861 420.879 326.981C420.879 327.441 421.253 327.814 421.712 327.814C422.172 327.814 422.545 327.441 422.545 326.981C422.545 326.808 422.492 326.646 422.401 326.513L423.53 324.249C423.961 324.217 424.302 323.857 424.302 323.418C424.302 322.959 423.928 322.585 423.469 322.585C423.009 322.585 422.636 322.959 422.636 323.418C422.636 323.592 422.689 323.753 422.78 323.886L421.65 326.151C421.641 326.152 421.633 326.152 421.624 326.153L421.061 325.388C421.097 325.295 421.118 325.194 421.118 325.088C421.118 324.629 420.744 324.255 420.284 324.255C419.825 324.255 419.451 324.629 419.451 325.088C419.451 325.19 419.47 325.287 419.504 325.378L418.899 326.154C418.87 326.151 418.84 326.149 418.81 326.148L417.213 322.855C417.312 322.718 417.372 322.55 417.372 322.368C417.372 321.908 416.998 321.534 416.538 321.534C416.079 321.534 415.705 321.908 415.705 322.368C415.705 322.548 415.763 322.715 415.861 322.851L414.266 326.696C413.858 326.75 413.541 327.099 413.541 327.522C413.541 327.981 413.915 328.355 414.374 328.355Z" fill="#F46036"/>
<g clip-path="url(#clip0_2437_60331)">
<path fill-rule="evenodd" clip-rule="evenodd" d="M359 318H360.067V332.933H375V334H359V318ZM361.133 320.133H364.333V321.2H361.133V320.133ZM362.2 323.333H367.533V324.4H362.2V323.333ZM364.333 326.533H367.533V327.6H364.333V326.533ZM367.533 329.733H375V330.8H367.533V329.733Z" fill="#F46036"/>
</g>
<path d="M413.333 371L422 371.001M413.333 375L422 375.001M413.333 379L422 379.001M410 371.333H410.667V370.667H410V371.333ZM410 375.333H410.667V374.667H410V375.333ZM410 379.333H410.667V378.667H410V379.333Z" stroke="#F46036" stroke-linecap="round" stroke-linejoin="round"/>
<g clip-path="url(#clip1_2437_60331)">
<path d="M367.333 422.333H361.11C360.993 422.333 360.88 422.287 360.796 422.203C360.713 422.12 360.666 422.007 360.666 421.889V420.111C360.666 419.993 360.713 419.88 360.796 419.797C360.88 419.714 360.993 419.667 361.11 419.667H367.333C367.451 419.667 367.564 419.714 367.647 419.797C367.73 419.88 367.777 419.993 367.777 420.111V421.889C367.777 422.007 367.73 422.12 367.647 422.203C367.564 422.287 367.451 422.333 367.333 422.333ZM361.555 421.445H366.888V420.529H361.555V421.445Z" fill="#F46036"/>
<path d="M367.333 423.258H361.11C360.993 423.258 360.88 423.305 360.796 423.388C360.713 423.471 360.666 423.584 360.666 423.702V425.444C360.666 425.562 360.713 425.675 360.796 425.759C360.88 425.842 360.993 425.889 361.11 425.889H366.159L367.777 424.244V423.702C367.777 423.584 367.73 423.471 367.647 423.388C367.564 423.305 367.451 423.258 367.333 423.258ZM366.888 425H361.555V424.111H366.888V425Z" fill="#F46036"/>
<path d="M362.915 431.004V430.978L363.058 430.36H359.778V418.778H368.666V423.333L369.555 422.493V418.333C369.555 418.215 369.509 418.102 369.425 418.019C369.342 417.936 369.229 417.889 369.111 417.889H359.333C359.215 417.889 359.102 417.936 359.019 418.019C358.935 418.102 358.889 418.215 358.889 418.333V430.778C358.889 430.896 358.935 431.009 359.019 431.092C359.102 431.175 359.215 431.222 359.333 431.222H362.889C362.892 431.149 362.901 431.076 362.915 431.004Z" fill="#F46036"/>
<path d="M367.778 425.52L367.432 425.871C367.518 425.853 367.596 425.811 367.658 425.748C367.72 425.686 367.762 425.606 367.778 425.52Z" fill="#F46036"/>
<path d="M360.666 428.973C360.666 429.091 360.713 429.204 360.796 429.288C360.88 429.371 360.993 429.418 361.11 429.418H363.262L363.395 428.84L363.453 428.596V428.573H361.555V427.667H364.373L365.262 426.778H361.11C360.993 426.778 360.88 426.825 360.796 426.908C360.713 426.991 360.666 427.104 360.666 427.222V428.973Z" fill="#F46036"/>
<path d="M372.885 424.409L371.387 422.911C371.321 422.845 371.242 422.792 371.155 422.756C371.068 422.72 370.974 422.701 370.88 422.701C370.786 422.701 370.693 422.72 370.606 422.756C370.519 422.792 370.44 422.845 370.374 422.911L364.28 429.04L363.778 431.178C363.759 431.27 363.759 431.365 363.777 431.458C363.795 431.55 363.831 431.638 363.883 431.716C363.935 431.795 364.002 431.862 364.08 431.915C364.158 431.967 364.246 432.004 364.338 432.022C364.384 432.027 364.43 432.027 364.476 432.022C364.53 432.031 364.586 432.031 364.64 432.022L366.796 431.547L372.885 425.445C372.951 425.378 373.004 425.3 373.04 425.213C373.076 425.127 373.095 425.034 373.095 424.94C373.095 424.846 373.076 424.753 373.04 424.667C373.004 424.58 372.951 424.502 372.885 424.436V424.409ZM366.343 430.738L364.716 431.098L365.111 429.485L369.68 424.867L370.934 426.12L366.343 430.738ZM371.436 425.618L370.183 424.365L370.889 423.667L372.151 424.929L371.436 425.618Z" fill="#F46036"/>
</g>
<g clip-path="url(#clip2_2437_60331)">
<path d="M415.001 430.267V419.733C415.001 418.733 414.574 418.333 413.514 418.333H410.821C409.761 418.333 409.334 418.733 409.334 419.733V430.267C409.334 431.267 409.761 431.667 410.821 431.667H413.514C414.574 431.667 415.001 431.267 415.001 430.267Z" stroke="#F46036" stroke-linecap="round" stroke-linejoin="round"/>
<path d="M422.667 425.6V419.733C422.667 418.733 422.24 418.333 421.18 418.333H418.487C417.427 418.333 417 418.733 417 419.733V425.6C417 426.6 417.427 427 418.487 427H421.18C422.24 427 422.667 426.6 422.667 425.6Z" stroke="#F46036" stroke-linecap="round" stroke-linejoin="round"/>
</g>
</g>
<g filter="url(#filter7_d_2437_60331)">
<rect x="102" y="465" width="100" height="65" rx="8" fill="#FFDDD4"/>
<rect x="102.5" y="465.5" width="99" height="64" rx="7.5" stroke="#F46036"/>
<rect x="110.25" y="472.25" width="84.5" height="49.5" rx="5.75" fill="white"/>
<rect x="110.25" y="472.25" width="84.5" height="49.5" rx="5.75" stroke="#F46036" stroke-width="0.5"/>
<path d="M110 478C110 474.686 112.686 472 116 472H189C192.314 472 195 474.686 195 478V484H110V478Z" fill="#F46036"/>
<rect x="116" y="487" width="5" height="2.5" rx="1" fill="#D9D9D9"/>
<rect x="116" y="491" width="5" height="2.5" rx="1" fill="#D9D9D9"/>
<rect x="116" y="495" width="5" height="2.5" rx="1" fill="#D9D9D9"/>
<rect x="116" y="499" width="5" height="2.5" rx="1" fill="#D9D9D9"/>
<rect x="116" y="503" width="5" height="2.5" rx="1" fill="#D9D9D9"/>
<rect x="116" y="507" width="5" height="2.5" rx="1" fill="#D9D9D9"/>
<rect x="116" y="511" width="5" height="2.5" rx="1" fill="#D9D9D9"/>
<rect x="116" y="515" width="5" height="2.5" rx="1" fill="#D9D9D9"/>
<rect x="124.5" y="487" width="5" height="2.5" rx="1" fill="#D9D9D9"/>
<rect x="124.5" y="491" width="5" height="2.5" rx="1" fill="#D9D9D9"/>
<rect x="124.5" y="495" width="5" height="2.5" rx="1" fill="#D9D9D9"/>
<rect x="124.5" y="499" width="5" height="2.5" rx="1" fill="#D9D9D9"/>
<rect x="124.5" y="503" width="5" height="2.5" rx="1" fill="#D9D9D9"/>
<rect x="124.5" y="507" width="5" height="2.5" rx="1" fill="#D9D9D9"/>
<rect x="124.5" y="511" width="5" height="2.5" rx="1" fill="#D9D9D9"/>
<rect x="124.5" y="515" width="5" height="2.5" rx="1" fill="#D9D9D9"/>
<rect x="133" y="487" width="5" height="2.5" rx="1" fill="#D9D9D9"/>
<rect x="133" y="491" width="5" height="2.5" rx="1" fill="#D9D9D9"/>
<rect x="133" y="495" width="5" height="2.5" rx="1" fill="#D9D9D9"/>
<rect x="133" y="499" width="5" height="2.5" rx="1" fill="#D9D9D9"/>
<rect x="133" y="503" width="5" height="2.5" rx="1" fill="#D9D9D9"/>
<rect x="133" y="507" width="5" height="2.5" rx="1" fill="#D9D9D9"/>
<rect x="133" y="511" width="5" height="2.5" rx="1" fill="#D9D9D9"/>
<rect x="133" y="515" width="5" height="2.5" rx="1" fill="#D9D9D9"/>
<rect x="141.5" y="487" width="5" height="2.5" rx="1" fill="#D9D9D9"/>
<rect x="141.5" y="491" width="5" height="2.5" rx="1" fill="#D9D9D9"/>
<rect x="141.5" y="495" width="5" height="2.5" rx="1" fill="#D9D9D9"/>
<rect x="141.5" y="499" width="5" height="2.5" rx="1" fill="#D9D9D9"/>
<rect x="141.5" y="503" width="5" height="2.5" rx="1" fill="#D9D9D9"/>
<rect x="141.5" y="507" width="5" height="2.5" rx="1" fill="#D9D9D9"/>
<rect x="141.5" y="511" width="5" height="2.5" rx="1" fill="#D9D9D9"/>
<rect x="141.5" y="515" width="5" height="2.5" rx="1" fill="#D9D9D9"/>
<rect x="150" y="487" width="5" height="2.5" rx="1" fill="#D9D9D9"/>
<rect x="150" y="491" width="5" height="2.5" rx="1" fill="#D9D9D9"/>
<rect x="150" y="495" width="5" height="2.5" rx="1" fill="#D9D9D9"/>
<rect x="150" y="499" width="5" height="2.5" rx="1" fill="#D9D9D9"/>
<rect x="150" y="503" width="5" height="2.5" rx="1" fill="#D9D9D9"/>
<rect x="150" y="507" width="5" height="2.5" rx="1" fill="#D9D9D9"/>
<rect x="150" y="511" width="5" height="2.5" rx="1" fill="#D9D9D9"/>
<rect x="150" y="515" width="5" height="2.5" rx="1" fill="#D9D9D9"/>
<rect x="158.5" y="487" width="5" height="2.5" rx="1" fill="#D9D9D9"/>
<rect x="158.5" y="491" width="5" height="2.5" rx="1" fill="#D9D9D9"/>
<rect x="158.5" y="495" width="5" height="2.5" rx="1" fill="#D9D9D9"/>
<rect x="158.5" y="499" width="5" height="2.5" rx="1" fill="#D9D9D9"/>
<rect x="158.5" y="503" width="5" height="2.5" rx="1" fill="#D9D9D9"/>
<rect x="158.5" y="507" width="5" height="2.5" rx="1" fill="#D9D9D9"/>
<rect x="158.5" y="511" width="5" height="2.5" rx="1" fill="#D9D9D9"/>
<rect x="158.5" y="515" width="5" height="2.5" rx="1" fill="#D9D9D9"/>
<rect x="167" y="487" width="5" height="2.5" rx="1" fill="#D9D9D9"/>
<rect x="167" y="491" width="5" height="2.5" rx="1" fill="#D9D9D9"/>
<rect x="167" y="495" width="5" height="2.5" rx="1" fill="#D9D9D9"/>
<rect x="167" y="499" width="5" height="2.5" rx="1" fill="#D9D9D9"/>
<rect x="167" y="503" width="5" height="2.5" rx="1" fill="#D9D9D9"/>
<rect x="167" y="507" width="5" height="2.5" rx="1" fill="#D9D9D9"/>
<rect x="167" y="511" width="5" height="2.5" rx="1" fill="#D9D9D9"/>
<rect x="167" y="515" width="5" height="2.5" rx="1" fill="#D9D9D9"/>
<rect x="175.5" y="487" width="5" height="2.5" rx="1" fill="#D9D9D9"/>
<rect x="175.5" y="491" width="5" height="2.5" rx="1" fill="#D9D9D9"/>
<rect x="175.5" y="495" width="5" height="2.5" rx="1" fill="#D9D9D9"/>
<rect x="175.5" y="499" width="5" height="2.5" rx="1" fill="#D9D9D9"/>
<rect x="175.5" y="503" width="5" height="2.5" rx="1" fill="#D9D9D9"/>
<rect x="175.5" y="507" width="5" height="2.5" rx="1" fill="#D9D9D9"/>
<rect x="175.5" y="511" width="5" height="2.5" rx="1" fill="#D9D9D9"/>
<rect x="175.5" y="515" width="5" height="2.5" rx="1" fill="#D9D9D9"/>
<rect x="184" y="487" width="5" height="2.5" rx="1" fill="#D9D9D9"/>
<rect x="184" y="491" width="5" height="2.5" rx="1" fill="#D9D9D9"/>
<rect x="184" y="495" width="5" height="2.5" rx="1" fill="#D9D9D9"/>
<rect x="184" y="499" width="5" height="2.5" rx="1" fill="#D9D9D9"/>
<rect x="184" y="503" width="5" height="2.5" rx="1" fill="#D9D9D9"/>
<rect x="184" y="507" width="5" height="2.5" rx="1" fill="#D9D9D9"/>
<rect x="184" y="511" width="5" height="2.5" rx="1" fill="#D9D9D9"/>
<rect x="184" y="515" width="5" height="2.5" rx="1" fill="#D9D9D9"/>
</g>
<g filter="url(#filter8_d_2437_60331)">
<rect x="102" y="531" width="100" height="65" rx="8" fill="#FFDDD4"/>
<rect x="102.5" y="531.5" width="99" height="64" rx="7.5" stroke="#F46036"/>
<rect x="110.25" y="538.25" width="84.5" height="49.5" rx="5.75" fill="white"/>
<rect x="110.25" y="538.25" width="84.5" height="49.5" rx="5.75" stroke="#F46036" stroke-width="0.5"/>
<path d="M110 544C110 540.686 112.686 538 116 538H189C192.314 538 195 540.686 195 544V550H110V544Z" fill="#F46036"/>
<rect x="116" y="553" width="5" height="2.5" rx="1" fill="#D9D9D9"/>
<rect x="116" y="557" width="5" height="2.5" rx="1" fill="#D9D9D9"/>
<rect x="116" y="561" width="5" height="2.5" rx="1" fill="#D9D9D9"/>
<rect x="116" y="565" width="5" height="2.5" rx="1" fill="#D9D9D9"/>
<rect x="116" y="569" width="5" height="2.5" rx="1" fill="#D9D9D9"/>
<rect x="116" y="573" width="5" height="2.5" rx="1" fill="#D9D9D9"/>
<rect x="116" y="577" width="5" height="2.5" rx="1" fill="#D9D9D9"/>
<rect x="116" y="581" width="5" height="2.5" rx="1" fill="#D9D9D9"/>
<rect x="124.5" y="553" width="5" height="2.5" rx="1" fill="#D9D9D9"/>
<rect x="124.5" y="557" width="5" height="2.5" rx="1" fill="#D9D9D9"/>
<rect x="124.5" y="561" width="5" height="2.5" rx="1" fill="#D9D9D9"/>
<rect x="124.5" y="565" width="5" height="2.5" rx="1" fill="#D9D9D9"/>
<rect x="124.5" y="569" width="5" height="2.5" rx="1" fill="#D9D9D9"/>
<rect x="124.5" y="573" width="5" height="2.5" rx="1" fill="#D9D9D9"/>
<rect x="124.5" y="577" width="5" height="2.5" rx="1" fill="#D9D9D9"/>
<rect x="124.5" y="581" width="5" height="2.5" rx="1" fill="#D9D9D9"/>
<rect x="133" y="553" width="5" height="2.5" rx="1" fill="#D9D9D9"/>
<rect x="133" y="557" width="5" height="2.5" rx="1" fill="#D9D9D9"/>
<rect x="133" y="561" width="5" height="2.5" rx="1" fill="#D9D9D9"/>
<rect x="133" y="565" width="5" height="2.5" rx="1" fill="#D9D9D9"/>
<rect x="133" y="569" width="5" height="2.5" rx="1" fill="#D9D9D9"/>
<rect x="133" y="573" width="5" height="2.5" rx="1" fill="#D9D9D9"/>
<rect x="133" y="577" width="5" height="2.5" rx="1" fill="#D9D9D9"/>
<rect x="133" y="581" width="5" height="2.5" rx="1" fill="#D9D9D9"/>
<rect x="141.5" y="553" width="5" height="2.5" rx="1" fill="#D9D9D9"/>
<rect x="141.5" y="557" width="5" height="2.5" rx="1" fill="#D9D9D9"/>
<rect x="141.5" y="561" width="5" height="2.5" rx="1" fill="#D9D9D9"/>
<rect x="141.5" y="565" width="5" height="2.5" rx="1" fill="#D9D9D9"/>
<rect x="141.5" y="569" width="5" height="2.5" rx="1" fill="#D9D9D9"/>
<rect x="141.5" y="573" width="5" height="2.5" rx="1" fill="#D9D9D9"/>
<rect x="141.5" y="577" width="5" height="2.5" rx="1" fill="#D9D9D9"/>
<rect x="141.5" y="581" width="5" height="2.5" rx="1" fill="#D9D9D9"/>
<rect x="150" y="553" width="5" height="2.5" rx="1" fill="#D9D9D9"/>
<rect x="150" y="557" width="5" height="2.5" rx="1" fill="#D9D9D9"/>
<rect x="150" y="561" width="5" height="2.5" rx="1" fill="#D9D9D9"/>
<rect x="150" y="565" width="5" height="2.5" rx="1" fill="#D9D9D9"/>
<rect x="150" y="569" width="5" height="2.5" rx="1" fill="#D9D9D9"/>
<rect x="150" y="573" width="5" height="2.5" rx="1" fill="#D9D9D9"/>
<rect x="150" y="577" width="5" height="2.5" rx="1" fill="#D9D9D9"/>
<rect x="150" y="581" width="5" height="2.5" rx="1" fill="#D9D9D9"/>
<rect x="158.5" y="553" width="5" height="2.5" rx="1" fill="#D9D9D9"/>
<rect x="158.5" y="557" width="5" height="2.5" rx="1" fill="#D9D9D9"/>
<rect x="158.5" y="561" width="5" height="2.5" rx="1" fill="#D9D9D9"/>
<rect x="158.5" y="565" width="5" height="2.5" rx="1" fill="#D9D9D9"/>
<rect x="158.5" y="569" width="5" height="2.5" rx="1" fill="#D9D9D9"/>
<rect x="158.5" y="573" width="5" height="2.5" rx="1" fill="#D9D9D9"/>
<rect x="158.5" y="577" width="5" height="2.5" rx="1" fill="#D9D9D9"/>
<rect x="158.5" y="581" width="5" height="2.5" rx="1" fill="#D9D9D9"/>
<rect x="167" y="553" width="5" height="2.5" rx="1" fill="#D9D9D9"/>
<rect x="167" y="557" width="5" height="2.5" rx="1" fill="#D9D9D9"/>
<rect x="167" y="561" width="5" height="2.5" rx="1" fill="#D9D9D9"/>
<rect x="167" y="565" width="5" height="2.5" rx="1" fill="#D9D9D9"/>
<rect x="167" y="569" width="5" height="2.5" rx="1" fill="#D9D9D9"/>
<rect x="167" y="573" width="5" height="2.5" rx="1" fill="#D9D9D9"/>
<rect x="167" y="577" width="5" height="2.5" rx="1" fill="#D9D9D9"/>
<rect x="167" y="581" width="5" height="2.5" rx="1" fill="#D9D9D9"/>
<rect x="175.5" y="553" width="5" height="2.5" rx="1" fill="#D9D9D9"/>
<rect x="175.5" y="557" width="5" height="2.5" rx="1" fill="#D9D9D9"/>
<rect x="175.5" y="561" width="5" height="2.5" rx="1" fill="#D9D9D9"/>
<rect x="175.5" y="565" width="5" height="2.5" rx="1" fill="#D9D9D9"/>
<rect x="175.5" y="569" width="5" height="2.5" rx="1" fill="#D9D9D9"/>
<rect x="175.5" y="573" width="5" height="2.5" rx="1" fill="#D9D9D9"/>
<rect x="175.5" y="577" width="5" height="2.5" rx="1" fill="#D9D9D9"/>
<rect x="175.5" y="581" width="5" height="2.5" rx="1" fill="#D9D9D9"/>
<rect x="184" y="553" width="5" height="2.5" rx="1" fill="#D9D9D9"/>
<rect x="184" y="557" width="5" height="2.5" rx="1" fill="#D9D9D9"/>
<rect x="184" y="561" width="5" height="2.5" rx="1" fill="#D9D9D9"/>
<rect x="184" y="565" width="5" height="2.5" rx="1" fill="#D9D9D9"/>
<rect x="184" y="569" width="5" height="2.5" rx="1" fill="#D9D9D9"/>
<rect x="184" y="573" width="5" height="2.5" rx="1" fill="#D9D9D9"/>
<rect x="184" y="577" width="5" height="2.5" rx="1" fill="#D9D9D9"/>
<rect x="184" y="581" width="5" height="2.5" rx="1" fill="#D9D9D9"/>
</g>
<path d="M333.041 178.714H328.959V184.918H333.041V178.714Z" fill="#FBAB95"/>
<path d="M333.039 184.918H328.96C327.324 184.918 325.94 186.13 325.724 187.752L324.469 197.163H337.53L336.275 187.752C336.059 186.13 334.675 184.918 333.039 184.918Z" fill="#F67754"/>
<path d="M339.162 197.163H322.836V201.245H339.162V197.163Z" fill="#F46036"/>
<path d="M321.455 214.026C321.455 207.335 325.729 205.175 331.001 205.175C336.273 205.175 340.546 207.335 340.546 214.026C340.546 220.718 336.273 227.775 331.001 227.775C325.729 227.775 321.455 220.718 321.455 214.026Z" fill="#FBAB95"/>
<path d="M324.834 210.893C324.834 206.57 327.595 205.176 331.001 205.176C334.407 205.176 337.167 206.571 337.167 210.893C337.167 215.216 334.406 219.776 331.001 219.776C327.595 219.776 324.834 215.216 324.834 210.893Z" fill="#F2CFC5"/>
<path d="M351.408 214.306H310.592V210.225L318.755 201.245H343.245L351.408 210.225V214.306Z" fill="#F67754"/>
<path d="M351.408 210.225H310.592V214.306H351.408V210.225Z" fill="#F46036"/>
<path d="M333.857 178.714H328.142C327.015 178.714 326.102 177.801 326.102 176.673C326.102 175.546 327.015 174.633 328.142 174.633H333.857C334.984 174.633 335.897 175.546 335.897 176.673C335.897 177.801 334.984 178.714 333.857 178.714Z" fill="#F67754"/>
<path d="M331 226.551C327.587 226.551 324.163 222.58 323.035 217.315L320.641 217.828C321.829 223.379 325.77 229 331 229C336.231 229 340.172 223.379 341.36 217.828L338.965 217.315C337.838 222.58 334.414 226.551 331 226.551Z" fill="#FFDDD4"/>
<path d="M343.787 200.02H340.388V195.939H338.603L337.49 187.59C337.249 185.789 335.945 184.347 334.265 183.866V179.91C335.873 179.709 337.122 178.335 337.122 176.673C337.122 174.873 335.657 173.408 333.857 173.408H332.224V149H329.775V173.408H328.143C326.342 173.408 324.877 174.873 324.877 176.673C324.877 178.335 326.126 179.709 327.735 179.91V183.866C326.055 184.346 324.751 185.789 324.51 187.59L323.397 195.939H321.612V200.02H318.213L309.367 209.751V215.53H324.521C325.855 218.881 328.331 221 331 221C333.669 221 336.145 218.881 337.479 215.531H352.633V209.752L343.787 200.02ZM331.816 179.939V183.694H330.184V179.939H331.816ZM327.327 176.673C327.327 176.223 327.693 175.857 328.143 175.857H333.857C334.307 175.857 334.673 176.223 334.673 176.673C334.673 177.123 334.307 177.49 333.857 177.49H328.143C327.693 177.49 327.327 177.124 327.327 176.673ZM326.938 187.914C327.073 186.904 327.942 186.143 328.961 186.143H333.039C334.058 186.143 334.927 186.904 335.062 187.914L336.132 195.939H325.868L326.938 187.914ZM324.061 198.388H337.939V200.02H324.061V198.388ZM319.297 202.469H342.703L348.64 209H313.36L319.297 202.469ZM331 218.551C329.62 218.551 328.188 217.367 327.217 215.531H334.784C333.812 217.367 332.38 218.551 331 218.551ZM311.816 213.082V211.449H350.184V213.082H311.816Z" fill="#FFC3B3"/>
<rect x="302" y="147" width="59" height="2.5" fill="#F46036"/>
<defs>
<filter id="filter0_d_2437_60331" x="102" y="276" width="110" height="185" filterUnits="userSpaceOnUse" color-interpolation-filters="sRGB">
<feFlood flood-opacity="0" result="BackgroundImageFix"/>
<feColorMatrix in="SourceAlpha" type="matrix" values="0 0 0 0 0 0 0 0 0 0 0 0 0 0 0 0 0 0 127 0" result="hardAlpha"/>
<feOffset dx="6" dy="6"/>
<feGaussianBlur stdDeviation="2"/>
<feComposite in2="hardAlpha" operator="out"/>
<feColorMatrix type="matrix" values="0 0 0 0 0 0 0 0 0 0 0 0 0 0 0 0 0 0 0.25 0"/>
<feBlend mode="normal" in2="BackgroundImageFix" result="effect1_dropShadow_2437_60331"/>
<feBlend mode="normal" in="SourceGraphic" in2="effect1_dropShadow_2437_60331" result="shape"/>
</filter>
<filter id="filter1_d_2437_60331" x="341" y="491" width="110" height="115" filterUnits="userSpaceOnUse" color-interpolation-filters="sRGB">
<feFlood flood-opacity="0" result="BackgroundImageFix"/>
<feColorMatrix in="SourceAlpha" type="matrix" values="0 0 0 0 0 0 0 0 0 0 0 0 0 0 0 0 0 0 127 0" result="hardAlpha"/>
<feOffset dx="6" dy="6"/>
<feGaussianBlur stdDeviation="2"/>
<feComposite in2="hardAlpha" operator="out"/>
<feColorMatrix type="matrix" values="0 0 0 0 0 0 0 0 0 0 0 0 0 0 0 0 0 0 0.25 0"/>
<feBlend mode="normal" in2="BackgroundImageFix" result="effect1_dropShadow_2437_60331"/>
<feBlend mode="normal" in="SourceGraphic" in2="effect1_dropShadow_2437_60331" result="shape"/>
</filter>
<filter id="filter2_d_2437_60331" x="461" y="276" width="110" height="115" filterUnits="userSpaceOnUse" color-interpolation-filters="sRGB">
<feFlood flood-opacity="0" result="BackgroundImageFix"/>
<feColorMatrix in="SourceAlpha" type="matrix" values="0 0 0 0 0 0 0 0 0 0 0 0 0 0 0 0 0 0 127 0" result="hardAlpha"/>
<feOffset dx="6" dy="6"/>
<feGaussianBlur stdDeviation="2"/>
<feComposite in2="hardAlpha" operator="out"/>
<feColorMatrix type="matrix" values="0 0 0 0 0 0 0 0 0 0 0 0 0 0 0 0 0 0 0.25 0"/>
<feBlend mode="normal" in2="BackgroundImageFix" result="effect1_dropShadow_2437_60331"/>
<feBlend mode="normal" in="SourceGraphic" in2="effect1_dropShadow_2437_60331" result="shape"/>
</filter>
<filter id="filter3_d_2437_60331" x="460" y="395" width="110" height="60" filterUnits="userSpaceOnUse" color-interpolation-filters="sRGB">
<feFlood flood-opacity="0" result="BackgroundImageFix"/>
<feColorMatrix in="SourceAlpha" type="matrix" values="0 0 0 0 0 0 0 0 0 0 0 0 0 0 0 0 0 0 127 0" result="hardAlpha"/>
<feOffset dx="6" dy="6"/>
<feGaussianBlur stdDeviation="2"/>
<feComposite in2="hardAlpha" operator="out"/>
<feColorMatrix type="matrix" values="0 0 0 0 0 0 0 0 0 0 0 0 0 0 0 0 0 0 0.25 0"/>
<feBlend mode="normal" in2="BackgroundImageFix" result="effect1_dropShadow_2437_60331"/>
<feBlend mode="normal" in="SourceGraphic" in2="effect1_dropShadow_2437_60331" result="shape"/>
</filter>
<filter id="filter4_d_2437_60331" x="461" y="461" width="110" height="145" filterUnits="userSpaceOnUse" color-interpolation-filters="sRGB">
<feFlood flood-opacity="0" result="BackgroundImageFix"/>
<feColorMatrix in="SourceAlpha" type="matrix" values="0 0 0 0 0 0 0 0 0 0 0 0 0 0 0 0 0 0 127 0" result="hardAlpha"/>
<feOffset dx="6" dy="6"/>
<feGaussianBlur stdDeviation="2"/>
<feComposite in2="hardAlpha" operator="out"/>
<feColorMatrix type="matrix" values="0 0 0 0 0 0 0 0 0 0 0 0 0 0 0 0 0 0 0.25 0"/>
<feBlend mode="normal" in2="BackgroundImageFix" result="effect1_dropShadow_2437_60331"/>
<feBlend mode="normal" in="SourceGraphic" in2="effect1_dropShadow_2437_60331" result="shape"/>
</filter>
<filter id="filter5_d_2437_60331" x="221" y="276" width="110" height="330" filterUnits="userSpaceOnUse" color-interpolation-filters="sRGB">
<feFlood flood-opacity="0" result="BackgroundImageFix"/>
<feColorMatrix in="SourceAlpha" type="matrix" values="0 0 0 0 0 0 0 0 0 0 0 0 0 0 0 0 0 0 127 0" result="hardAlpha"/>
<feOffset dx="6" dy="6"/>
<feGaussianBlur stdDeviation="2"/>
<feComposite in2="hardAlpha" operator="out"/>
<feColorMatrix type="matrix" values="0 0 0 0 0 0 0 0 0 0 0 0 0 0 0 0 0 0 0.25 0"/>
<feBlend mode="normal" in2="BackgroundImageFix" result="effect1_dropShadow_2437_60331"/>
<feBlend mode="normal" in="SourceGraphic" in2="effect1_dropShadow_2437_60331" result="shape"/>
</filter>
<filter id="filter6_d_2437_60331" x="341" y="276" width="110" height="200" filterUnits="userSpaceOnUse" color-interpolation-filters="sRGB">
<feFlood flood-opacity="0" result="BackgroundImageFix"/>
<feColorMatrix in="SourceAlpha" type="matrix" values="0 0 0 0 0 0 0 0 0 0 0 0 0 0 0 0 0 0 127 0" result="hardAlpha"/>
<feOffset dx="6" dy="6"/>
<feGaussianBlur stdDeviation="2"/>
<feComposite in2="hardAlpha" operator="out"/>
<feColorMatrix type="matrix" values="0 0 0 0 0 0 0 0 0 0 0 0 0 0 0 0 0 0 0.25 0"/>
<feBlend mode="normal" in2="BackgroundImageFix" result="effect1_dropShadow_2437_60331"/>
<feBlend mode="normal" in="SourceGraphic" in2="effect1_dropShadow_2437_60331" result="shape"/>
</filter>
<filter id="filter7_d_2437_60331" x="102" y="465" width="110" height="75" filterUnits="userSpaceOnUse" color-interpolation-filters="sRGB">
<feFlood flood-opacity="0" result="BackgroundImageFix"/>
<feColorMatrix in="SourceAlpha" type="matrix" values="0 0 0 0 0 0 0 0 0 0 0 0 0 0 0 0 0 0 127 0" result="hardAlpha"/>
<feOffset dx="6" dy="6"/>
<feGaussianBlur stdDeviation="2"/>
<feComposite in2="hardAlpha" operator="out"/>
<feColorMatrix type="matrix" values="0 0 0 0 0 0 0 0 0 0 0 0 0 0 0 0 0 0 0.25 0"/>
<feBlend mode="normal" in2="BackgroundImageFix" result="effect1_dropShadow_2437_60331"/>
<feBlend mode="normal" in="SourceGraphic" in2="effect1_dropShadow_2437_60331" result="shape"/>
</filter>
<filter id="filter8_d_2437_60331" x="102" y="531" width="110" height="75" filterUnits="userSpaceOnUse" color-interpolation-filters="sRGB">
<feFlood flood-opacity="0" result="BackgroundImageFix"/>
<feColorMatrix in="SourceAlpha" type="matrix" values="0 0 0 0 0 0 0 0 0 0 0 0 0 0 0 0 0 0 127 0" result="hardAlpha"/>
<feOffset dx="6" dy="6"/>
<feGaussianBlur stdDeviation="2"/>
<feComposite in2="hardAlpha" operator="out"/>
<feColorMatrix type="matrix" values="0 0 0 0 0 0 0 0 0 0 0 0 0 0 0 0 0 0 0.25 0"/>
<feBlend mode="normal" in2="BackgroundImageFix" result="effect1_dropShadow_2437_60331"/>
<feBlend mode="normal" in="SourceGraphic" in2="effect1_dropShadow_2437_60331" result="shape"/>
</filter>
<linearGradient id="paint0_linear_2437_60331" x1="127.5" y1="369" x2="127.5" y2="404" gradientUnits="userSpaceOnUse">
<stop stop-color="#FADFD7"/>
<stop offset="1" stop-color="#F46036"/>
</linearGradient>
<linearGradient id="paint1_linear_2437_60331" x1="177.5" y1="369" x2="177.5" y2="404" gradientUnits="userSpaceOnUse">
<stop stop-color="#FADFD7"/>
<stop offset="1" stop-color="#F46036"/>
</linearGradient>
<linearGradient id="paint2_linear_2437_60331" x1="468.166" y1="414.382" x2="490.931" y2="424.715" gradientUnits="userSpaceOnUse">
<stop stop-color="#FADFD7"/>
<stop offset="1" stop-color="#F46036"/>
</linearGradient>
<linearGradient id="paint3_linear_2437_60331" x1="516.099" y1="408.765" x2="516.099" y2="420.765" gradientUnits="userSpaceOnUse">
<stop stop-color="#F46036"/>
<stop offset="1" stop-color="#F8F8F8"/>
</linearGradient>
<linearGradient id="paint4_linear_2437_60331" x1="516.098" y1="422.765" x2="516.098" y2="428.765" gradientUnits="userSpaceOnUse">
<stop stop-color="#F46036"/>
<stop offset="1" stop-color="#F8F8F8"/>
</linearGradient>
<linearGradient id="paint5_linear_2437_60331" x1="546.099" y1="408.765" x2="546.099" y2="420.765" gradientUnits="userSpaceOnUse">
<stop stop-color="#F46036"/>
<stop offset="1" stop-color="#F8F8F8"/>
</linearGradient>
<linearGradient id="paint6_linear_2437_60331" x1="546.098" y1="422.765" x2="546.098" y2="428.765" gradientUnits="userSpaceOnUse">
<stop stop-color="#F46036"/>
<stop offset="1" stop-color="#F8F8F8"/>
</linearGradient>
<linearGradient id="paint7_linear_2437_60331" x1="231" y1="306" x2="311" y2="306" gradientUnits="userSpaceOnUse">
<stop stop-color="#FAE4DE"/>
<stop offset="0.915" stop-color="#FFA388"/>
</linearGradient>
<linearGradient id="paint8_linear_2437_60331" x1="0" y1="6" x2="80" y2="6" gradientUnits="userSpaceOnUse">
<stop stop-color="#FAE4DE"/>
<stop offset="0.915" stop-color="#FFA388"/>
</linearGradient>
<linearGradient id="paint9_linear_2437_60331" x1="231" y1="360" x2="311" y2="360" gradientUnits="userSpaceOnUse">
<stop stop-color="#FAE4DE"/>
<stop offset="0.915" stop-color="#FFA388"/>
</linearGradient>
<linearGradient id="paint10_linear_2437_60331" x1="0" y1="6" x2="80" y2="6" gradientUnits="userSpaceOnUse">
<stop stop-color="#FAE4DE"/>
<stop offset="0.915" stop-color="#FFA388"/>
</linearGradient>
<linearGradient id="paint11_linear_2437_60331" x1="231" y1="414" x2="311" y2="414" gradientUnits="userSpaceOnUse">
<stop stop-color="#FAE4DE"/>
<stop offset="0.915" stop-color="#FFA388"/>
</linearGradient>
<linearGradient id="paint12_linear_2437_60331" x1="0" y1="6" x2="80" y2="6" gradientUnits="userSpaceOnUse">
<stop stop-color="#FAE4DE"/>
<stop offset="0.915" stop-color="#FFA388"/>
</linearGradient>
<linearGradient id="paint13_linear_2437_60331" x1="231" y1="468" x2="311" y2="468" gradientUnits="userSpaceOnUse">
<stop stop-color="#FAE4DE"/>
<stop offset="0.915" stop-color="#FFA388"/>
</linearGradient>
<linearGradient id="paint14_linear_2437_60331" x1="0" y1="6" x2="80" y2="6" gradientUnits="userSpaceOnUse">
<stop stop-color="#FAE4DE"/>
<stop offset="0.915" stop-color="#FFA388"/>
</linearGradient>
<linearGradient id="paint15_linear_2437_60331" x1="245.5" y1="534" x2="245.5" y2="569" gradientUnits="userSpaceOnUse">
<stop stop-color="#FADFD7"/>
<stop offset="1" stop-color="#F46036"/>
</linearGradient>
<linearGradient id="paint16_linear_2437_60331" x1="295.5" y1="534" x2="295.5" y2="569" gradientUnits="userSpaceOnUse">
<stop stop-color="#FADFD7"/>
<stop offset="1" stop-color="#F46036"/>
</linearGradient>
<linearGradient id="paint17_linear_2437_60331" x1="365.5" y1="358" x2="365.5" y2="393" gradientUnits="userSpaceOnUse">
<stop stop-color="#FADFD7"/>
<stop offset="1" stop-color="#F46036"/>
</linearGradient>
<linearGradient id="paint18_linear_2437_60331" x1="365.5" y1="407" x2="365.5" y2="442" gradientUnits="userSpaceOnUse">
<stop stop-color="#FADFD7"/>
<stop offset="1" stop-color="#F46036"/>
</linearGradient>
<linearGradient id="paint19_linear_2437_60331" x1="366.5" y1="309" x2="366.5" y2="344" gradientUnits="userSpaceOnUse">
<stop stop-color="#FADFD7"/>
<stop offset="1" stop-color="#F46036"/>
</linearGradient>
<linearGradient id="paint20_linear_2437_60331" x1="415.5" y1="358" x2="415.5" y2="393" gradientUnits="userSpaceOnUse">
<stop stop-color="#FADFD7"/>
<stop offset="1" stop-color="#F46036"/>
</linearGradient>
<linearGradient id="paint21_linear_2437_60331" x1="415.5" y1="407" x2="415.5" y2="442" gradientUnits="userSpaceOnUse">
<stop stop-color="#FADFD7"/>
<stop offset="1" stop-color="#F46036"/>
</linearGradient>
<linearGradient id="paint22_linear_2437_60331" x1="416.5" y1="309" x2="416.5" y2="344" gradientUnits="userSpaceOnUse">
<stop stop-color="#FADFD7"/>
<stop offset="1" stop-color="#F46036"/>
</linearGradient>
<clipPath id="clip0_2437_60331">
<rect width="16" height="16" fill="white" transform="translate(359 318)"/>
</clipPath>
<clipPath id="clip1_2437_60331">
<rect width="16" height="16" fill="white" transform="translate(358 416)"/>
</clipPath>
<clipPath id="clip2_2437_60331">
<rect width="16" height="16" fill="white" transform="translate(408 417)"/>
</clipPath>
</defs>
</svg>
