<svg width="662" height="800" viewBox="0 0 662 800" fill="none" xmlns="http://www.w3.org/2000/svg">
<rect width="662" height="800" fill="#FFE5CB"/>
<mask id="mask0_2435_82578" style="mask-type:alpha" maskUnits="userSpaceOnUse" x="620" y="9" width="24" height="24">
<rect x="620" y="9" width="24" height="24" fill="#D9D9D9"/>
</mask>
<g mask="url(#mask0_2435_82578)">
<path d="M632.001 22.4L627.101 27.3C626.917 27.4834 626.684 27.575 626.401 27.575C626.117 27.575 625.884 27.4834 625.701 27.3C625.517 27.1167 625.426 26.8834 625.426 26.6C625.426 26.3167 625.517 26.0834 625.701 25.9L630.601 21L625.701 16.1C625.517 15.9167 625.426 15.6834 625.426 15.4C625.426 15.1167 625.517 14.8834 625.701 14.7C625.884 14.5167 626.117 14.425 626.401 14.425C626.684 14.425 626.917 14.5167 627.101 14.7L632.001 19.6L636.901 14.7C637.084 14.5167 637.317 14.425 637.601 14.425C637.884 14.425 638.117 14.5167 638.301 14.7C638.484 14.8834 638.576 15.1167 638.576 15.4C638.576 15.6834 638.484 15.9167 638.301 16.1L633.401 21L638.301 25.9C638.484 26.0834 638.576 26.3167 638.576 26.6C638.576 26.8834 638.484 27.1167 638.301 27.3C638.117 27.4834 637.884 27.575 637.601 27.575C637.317 27.575 637.084 27.4834 636.901 27.3L632.001 22.4Z" fill="#F68C1F"/>
</g>
<path d="M330.89 560.56C437.972 560.56 524.78 555.492 524.78 549.24C524.78 542.988 437.972 537.92 330.89 537.92C223.808 537.92 137 542.988 137 549.24C137 555.492 223.808 560.56 330.89 560.56Z" fill="#FAB064"/>
<path d="M374.639 368.57L375.479 369.28C375.789 369.552 376.138 369.81 376.474 370.068C377.146 370.598 377.766 371.128 378.541 371.632C379.936 372.652 381.422 373.583 382.908 374.513C385.905 376.36 389.046 377.963 392.301 379.306C395.541 380.687 398.88 381.827 402.288 382.717C403.141 382.95 404.019 383.105 404.872 383.298L406.164 383.583C406.435 383.583 406.164 383.583 406.164 383.647C405.988 383.689 405.821 383.763 405.673 383.867C405.557 383.983 405.557 383.983 405.608 383.957C405.864 383.579 406.064 383.165 406.203 382.73C406.661 381.239 406.943 379.7 407.043 378.143C407.198 376.451 407.249 374.668 407.236 372.872C407.236 369.267 406.952 365.585 406.668 361.89C406.384 358.195 405.931 354.487 405.453 350.766C404.975 347.045 404.446 343.324 403.89 339.655L408.748 338.543C410.888 345.918 412.613 353.406 413.916 360.973C414.593 364.821 415.063 368.702 415.324 372.601C415.476 374.612 415.523 376.631 415.466 378.647C415.448 380.873 415.166 383.09 414.627 385.249C414.262 386.631 413.668 387.941 412.87 389.125C412.311 389.933 411.616 390.637 410.815 391.206C409.896 391.862 408.84 392.304 407.727 392.498C406.769 392.659 405.791 392.659 404.833 392.498L403.347 392.252C402.353 392.084 401.345 391.955 400.363 391.735C396.401 390.949 392.512 389.834 388.735 388.402C384.959 386.953 381.308 385.199 377.817 383.156C376.073 382.11 374.368 381.012 372.714 379.81C371.887 379.216 371.073 378.518 370.259 377.95C369.859 377.614 369.458 377.291 369.058 376.929C368.657 376.567 368.282 376.27 367.766 375.779L374.639 368.57Z" fill="#E4897B"/>
<path d="M360.594 362.691C374.806 360.766 386.228 372.226 386.228 372.226L373.23 392.278C373.23 392.278 359.302 383.363 356.848 377.291C354.315 370.973 353.32 363.635 360.594 362.691Z" fill="#F68C1F"/>
<path opacity="0.6" d="M360.594 362.691C374.806 360.766 386.228 372.226 386.228 372.226L373.23 392.278C373.23 392.278 359.302 383.363 356.848 377.291C354.315 370.973 353.32 363.635 360.594 362.691Z" fill="#FAFAFA"/>
<path d="M404.007 341.399L399.291 331.941L411.656 331.838C411.656 331.838 411.901 338.44 408.774 342.174L404.007 341.399Z" fill="#E4897B"/>
<path d="M401.487 321.773L410.687 323.414L411.656 331.838L399.291 331.942L401.487 321.773Z" fill="#E4897B"/>
<path d="M374.601 354.668C374.511 345.275 366.009 341.994 366.009 341.994C366.009 341.994 376.643 321.864 371.177 308.505C365.712 295.145 347.702 292.794 341.991 299.034C331.952 298.608 328.761 313.027 328.761 313.027C328.761 313.027 320.363 314.435 318.102 320.546C315.841 326.657 322.727 333.544 322.727 333.544C322.727 333.544 313.141 334.836 309.613 342.213C306.086 349.591 308.257 359.384 318.851 367.834C334.252 380.108 362.56 364.707 362.56 364.707C362.56 364.707 374.705 365.469 374.601 354.668Z" fill="#263238"/>
<path d="M372.779 364.009C372.779 364.009 377.947 366.27 360.686 434.449L312.882 430.302C315.362 410.922 316.435 398.88 310.582 358.105C317.402 357.298 324.273 356.992 331.138 357.187C338.417 357.297 345.679 357.923 352.869 359.061C359.584 360.377 366.229 362.028 372.779 364.009Z" fill="#F68C1F"/>
<path opacity="0.6" d="M372.779 364.009C372.779 364.009 377.947 366.27 360.686 434.449L312.882 430.302C315.362 410.922 316.435 398.88 310.582 358.105C317.402 357.298 324.273 356.992 331.138 357.187C338.417 357.297 345.679 357.923 352.869 359.061C359.584 360.377 366.229 362.028 372.779 364.009Z" fill="#FAFAFA"/>
<path d="M360.389 360.676C357.908 360.082 355.221 359.513 352.766 359.061C345.576 357.919 338.314 357.288 331.035 357.175C328.541 357.084 326.048 357.084 323.709 357.175L325.311 360.224C325.595 360.766 332.417 373.493 345.376 380.715L348.942 382.705L352.262 380.34C360.634 374.358 361.875 366.58 360.389 360.676Z" fill="#FAFAFA"/>
<path d="M335.31 332.898C336.073 340.017 336.331 352.95 331.047 357.188C331.047 357.188 337.093 368.674 348.541 375.043C358.67 367.834 352.778 359.061 352.778 359.061C345.143 356.477 345.84 350.766 347.61 345.443L335.31 332.898Z" fill="#E4897B"/>
<path d="M340.338 338.014L347.65 345.443C347.205 346.678 346.868 347.949 346.643 349.242C343.71 348.557 339.446 345.495 339.395 342.342C339.453 340.856 339.772 339.391 340.338 338.014Z" fill="#CE6F64"/>
<path d="M335.001 316.747C333.593 328.376 332.753 333.298 337.495 340.288C344.627 350.779 359.252 349.952 364.097 338.996C368.464 329.099 370.027 311.709 359.575 305.055C357.283 303.58 354.653 302.714 351.933 302.54C349.213 302.366 346.494 302.889 344.033 304.06C341.572 305.231 339.451 307.011 337.87 309.232C336.29 311.452 335.302 314.039 335.001 316.747Z" fill="#E4897B"/>
<path d="M344.017 302.419C352.996 304.745 344.12 332.058 329.805 324.138C329.805 324.138 330.451 312.6 334.43 307.703C336.837 304.786 340.265 302.896 344.017 302.419Z" fill="#263238"/>
<path d="M343.064 303.931C346.94 310.236 375.688 322.187 366.023 308.621C356.359 295.055 343.064 303.931 343.064 303.931Z" fill="#263238"/>
<path d="M331.307 326.812C331.146 329.078 331.884 331.315 333.361 333.04C335.351 335.301 337.974 333.931 338.801 331.192C339.537 328.737 339.395 324.603 336.746 323.337C336.162 323.079 335.523 322.97 334.886 323.019C334.249 323.068 333.634 323.273 333.095 323.617C332.557 323.961 332.112 324.433 331.8 324.99C331.488 325.548 331.319 326.174 331.307 326.812Z" fill="#E4897B"/>
<path d="M351.887 323.169C351.719 324.099 352.081 324.952 352.688 325.068C353.295 325.185 353.98 324.513 354.109 323.57C354.238 322.626 353.928 321.774 353.308 321.67C352.688 321.567 352.106 322.29 351.887 323.169Z" fill="#263238"/>
<path d="M362.442 325.107C362.274 326.038 362.635 326.89 363.243 327.007C363.85 327.123 364.535 326.451 364.664 325.508C364.793 324.565 364.483 323.712 363.863 323.609C363.243 323.505 362.674 324.164 362.442 325.107Z" fill="#263238"/>
<path d="M363.645 323.582L366.009 323.35C366.009 323.35 364.536 324.874 363.645 323.582Z" fill="#263238"/>
<path d="M359.393 326.167C359.845 328.46 360.605 330.681 361.654 332.769C361.112 333.022 360.521 333.153 359.923 333.153C359.324 333.153 358.734 333.022 358.191 332.769L359.393 326.167Z" fill="#DE5753"/>
<path d="M354.264 335.869C353.004 335.674 351.808 335.179 350.779 334.426C349.749 333.673 348.915 332.684 348.347 331.541C348.326 331.485 348.327 331.422 348.351 331.366C348.375 331.311 348.42 331.267 348.476 331.244C348.503 331.231 348.533 331.224 348.562 331.223C348.592 331.222 348.622 331.227 348.65 331.238C348.678 331.249 348.703 331.266 348.724 331.287C348.745 331.308 348.762 331.333 348.773 331.36C349.318 332.425 350.106 333.346 351.073 334.049C352.041 334.752 353.161 335.216 354.342 335.404C354.404 335.404 354.463 335.429 354.506 335.472C354.55 335.516 354.574 335.575 354.574 335.637C354.574 335.699 354.55 335.758 354.506 335.801C354.463 335.845 354.404 335.869 354.342 335.869H354.264Z" fill="#263238"/>
<path d="M349.366 315.83C349.268 315.832 349.171 315.803 349.09 315.746C349.009 315.689 348.949 315.608 348.917 315.515C348.885 315.421 348.884 315.32 348.914 315.226C348.944 315.131 349.003 315.049 349.082 314.991C349.763 314.442 350.565 314.066 351.422 313.893C352.279 313.72 353.165 313.755 354.005 313.996C354.062 314.016 354.116 314.048 354.161 314.088C354.207 314.129 354.244 314.179 354.27 314.234C354.297 314.289 354.312 314.349 354.315 314.41C354.318 314.471 354.309 314.532 354.289 314.59C354.269 314.648 354.237 314.701 354.196 314.747C354.156 314.792 354.106 314.829 354.051 314.856C353.996 314.882 353.936 314.897 353.875 314.9C353.814 314.904 353.752 314.895 353.695 314.874C353.001 314.684 352.273 314.662 351.569 314.81C350.866 314.958 350.208 315.273 349.651 315.727C349.568 315.789 349.469 315.825 349.366 315.83Z" fill="#263238"/>
<path d="M368.49 321.541C368.421 321.541 368.353 321.526 368.291 321.497C368.228 321.468 368.173 321.425 368.128 321.373C367.687 320.804 367.118 320.347 366.467 320.039C365.816 319.732 365.101 319.582 364.381 319.603C364.258 319.614 364.136 319.577 364.04 319.5C363.943 319.423 363.881 319.312 363.864 319.19C363.857 319.129 363.862 319.068 363.88 319.009C363.897 318.951 363.925 318.897 363.964 318.85C364.003 318.803 364.05 318.764 364.104 318.736C364.158 318.707 364.217 318.69 364.278 318.686C365.152 318.641 366.025 318.807 366.821 319.172C367.617 319.536 368.314 320.087 368.852 320.779C368.936 320.868 368.983 320.986 368.983 321.108C368.983 321.231 368.936 321.349 368.852 321.438C368.748 321.516 368.619 321.553 368.49 321.541Z" fill="#263238"/>
<path d="M314.108 375.263C312.165 379.118 310.009 382.862 307.648 386.477C305.323 390.043 302.868 393.532 300.219 396.891C297.543 400.262 294.674 403.476 291.628 406.516C290.051 408.002 288.514 409.514 286.821 410.909L285.529 411.969L285.219 412.227L284.806 412.55C284.533 412.772 284.249 412.979 283.953 413.17C282.778 413.975 281.501 414.618 280.155 415.082C277.619 415.909 274.941 416.204 272.286 415.948C269.909 415.71 267.567 415.194 265.309 414.411C261.128 412.952 257.14 410.986 253.436 408.558C246.309 403.935 239.744 398.497 233.875 392.356L237.312 388.751C240.4 391.232 243.655 393.7 246.989 395.935C250.254 398.222 253.654 400.31 257.17 402.188C260.518 404.027 264.052 405.504 267.713 406.594C271.201 407.563 274.702 407.731 277.118 406.723C278.483 406.13 279.704 405.248 280.697 404.139C282.131 402.847 283.462 401.413 284.819 400.018C287.467 397.136 289.922 394.049 292.338 390.974C294.754 387.899 296.938 384.514 299.057 381.154C300.129 379.475 301.15 377.769 302.157 376.064C303.165 374.358 304.134 372.563 304.974 370.96L314.108 375.263Z" fill="#E4897B"/>
<path d="M240.58 390.288L235.981 380.779L228.332 390.495C228.332 390.495 233.397 394.72 238.319 394.565L240.58 390.288Z" fill="#E4897B"/>
<path d="M230.955 378.001L226.627 386.283L228.332 390.495L235.981 380.779L230.955 378.001Z" fill="#E4897B"/>
<path d="M310.479 358.105C304.613 359.138 296.383 375.973 296.383 375.973L312.494 390.534C312.494 390.534 322.934 376.516 322.313 368.867C321.784 362.342 317.946 356.787 310.479 358.105Z" fill="#F68C1F"/>
<path opacity="0.6" d="M310.479 358.105C304.613 359.138 296.383 375.973 296.383 375.973L312.494 390.534C312.494 390.534 322.934 376.516 322.313 368.867C321.784 362.342 317.946 356.787 310.479 358.105Z" fill="#FAFAFA"/>
<path d="M353.037 321.67L355.401 321.425C355.401 321.425 353.929 322.975 353.037 321.67Z" fill="#263238"/>
<path opacity="0.6" d="M255.839 248.039L217.971 492.835L431.048 525.755L468.917 280.946L255.839 248.039ZM343.386 387.278C333.605 385.764 324.494 381.384 317.204 374.691C309.914 367.998 304.773 359.293 302.431 349.677C300.089 340.061 300.653 329.967 304.049 320.672C307.445 311.376 313.523 303.297 321.512 297.456C329.501 291.615 339.043 288.275 348.931 287.858C358.819 287.442 368.608 289.967 377.06 295.115C385.513 300.264 392.248 307.803 396.414 316.78C400.581 325.757 401.991 335.768 400.466 345.546C398.424 358.646 391.265 370.4 380.562 378.225C369.859 386.05 356.488 389.306 343.386 387.278Z" fill="#F68C1F"/>
<g style="mix-blend-mode:multiply" opacity="0.3">
<path d="M424.614 516.466H424.291L210.891 483.403V483.08L248.863 238H249.173L462.573 271.062V271.385L424.614 516.466ZM211.627 482.874L424.071 515.729L461.837 271.54L249.392 238.736L211.627 482.874Z" fill="#F68C1F"/>
</g>
<path d="M351.06 389.81C348.391 389.807 345.725 389.6 343.088 389.19C329.833 387.122 317.895 380.001 309.777 369.321C301.66 358.641 297.994 345.232 299.549 331.908C301.105 318.583 307.76 306.379 318.119 297.856C328.479 289.332 341.736 285.152 355.111 286.193C368.485 287.233 380.937 293.413 389.853 303.436C398.77 313.459 403.458 326.546 402.934 339.95C402.41 353.355 396.714 366.036 387.042 375.332C377.371 384.628 364.475 389.817 351.06 389.81ZM343.682 385.366C353.078 386.817 362.694 385.451 371.313 381.438C379.933 377.425 387.169 370.947 392.106 362.822C397.044 354.697 399.462 345.29 399.054 335.792C398.646 326.293 395.431 317.128 389.815 309.456C384.199 301.785 376.434 295.95 367.503 292.691C358.571 289.432 348.874 288.895 339.637 291.146C330.399 293.398 322.037 298.338 315.608 305.342C309.178 312.346 304.969 321.099 303.514 330.494C301.579 343.095 304.722 355.949 312.252 366.236C319.783 376.523 331.086 383.402 343.682 385.366Z" fill="#FAFAFA"/>
<path d="M302.227 402.423L255.291 395.165L253.66 405.712L300.596 412.97L302.227 402.423Z" fill="#F68C1F"/>
<path opacity="0.6" d="M302.227 402.423L255.291 395.165L253.66 405.712L300.596 412.97L302.227 402.423Z" fill="#FAFAFA"/>
<path d="M340.165 408.291L308.41 403.381L306.779 413.928L338.534 418.838L340.165 408.291Z" fill="#F68C1F"/>
<path opacity="0.6" d="M340.165 408.291L308.41 403.381L306.779 413.928L338.534 418.838L340.165 408.291Z" fill="#FAFAFA"/>
<path d="M421.706 442.782L251.977 416.537L250.346 427.084L420.075 453.329L421.706 442.782Z" fill="#FAFAFA"/>
<path d="M334.294 451.644L249.746 438.834L248.145 449.399L332.693 462.21L334.294 451.644Z" fill="#FAFAFA"/>
<path d="M403.817 462.977L347.355 454.247L345.725 464.793L402.186 473.524L403.817 462.977Z" fill="#FAFAFA"/>
<path d="M380.738 482.376L245.049 461.395L243.418 471.942L379.107 492.923L380.738 482.376Z" fill="#FAFAFA"/>
<path d="M471.191 525.756H469.899C469.904 522.549 469.509 519.355 468.723 516.246L470.015 515.936C470.814 519.148 471.209 522.446 471.191 525.756ZM466.127 509.063C463.284 503.113 458.987 497.977 453.633 494.127L454.382 493.081C459.911 497.051 464.354 502.347 467.302 508.481L466.127 509.063Z" fill="#F68C1F"/>
<path opacity="0.6" d="M471.191 525.756H469.899C469.904 522.549 469.509 519.355 468.723 516.246L470.015 515.936C470.814 519.148 471.209 522.446 471.191 525.756ZM466.127 509.063C463.284 503.113 458.987 497.977 453.633 494.127L454.382 493.081C459.911 497.051 464.354 502.347 467.302 508.481L466.127 509.063Z" fill="#FAFAFA"/>
<path d="M431.048 490.135C424.003 490.135 417.116 492.224 411.259 496.138C405.401 500.052 400.835 505.615 398.139 512.124C395.443 518.632 394.738 525.795 396.112 532.704C397.487 539.614 400.879 545.961 405.861 550.943C410.842 555.924 417.189 559.317 424.099 560.691C431.009 562.066 438.171 561.36 444.68 558.664C451.189 555.968 456.752 551.403 460.666 545.545C464.58 539.687 466.669 532.8 466.669 525.755C466.669 516.308 462.916 507.248 456.236 500.568C449.556 493.887 440.495 490.135 431.048 490.135ZM431.048 556.763C424.916 556.763 418.92 554.945 413.821 551.537C408.722 548.13 404.747 543.287 402.401 537.621C400.054 531.955 399.44 525.721 400.636 519.706C401.832 513.691 404.786 508.166 409.122 503.829C413.459 499.492 418.984 496.539 424.999 495.343C431.014 494.146 437.249 494.76 442.915 497.107C448.581 499.454 453.423 503.429 456.831 508.528C460.238 513.627 462.056 519.622 462.056 525.755C462.056 533.979 458.79 541.866 452.974 547.681C447.159 553.496 439.272 556.763 431.048 556.763Z" fill="#F68C1F"/>
<path opacity="0.6" d="M431.048 490.135C424.003 490.135 417.116 492.224 411.259 496.138C405.401 500.052 400.835 505.615 398.139 512.124C395.443 518.632 394.738 525.795 396.112 532.704C397.487 539.614 400.879 545.961 405.861 550.943C410.842 555.924 417.189 559.317 424.099 560.691C431.009 562.066 438.171 561.36 444.68 558.664C451.189 555.968 456.752 551.403 460.666 545.545C464.58 539.687 466.669 532.8 466.669 525.755C466.669 516.308 462.916 507.248 456.236 500.568C449.556 493.887 440.495 490.135 431.048 490.135ZM431.048 556.763C424.916 556.763 418.92 554.945 413.821 551.537C408.722 548.13 404.747 543.287 402.401 537.621C400.054 531.955 399.44 525.721 400.636 519.706C401.832 513.691 404.786 508.166 409.122 503.829C413.459 499.492 418.984 496.539 424.999 495.343C431.014 494.146 437.249 494.76 442.915 497.107C448.581 499.454 453.423 503.429 456.831 508.528C460.238 513.627 462.056 519.622 462.056 525.755C462.056 533.979 458.79 541.866 452.974 547.681C447.159 553.496 439.272 556.763 431.048 556.763Z" fill="#FAFAFA"/>
<path d="M431.048 556.75C448.166 556.75 462.043 542.873 462.043 525.755C462.043 508.637 448.166 494.76 431.048 494.76C413.93 494.76 400.053 508.637 400.053 525.755C400.053 542.873 413.93 556.75 431.048 556.75Z" fill="#F68C1F"/>
<path opacity="0.2" d="M431.048 556.75C448.166 556.75 462.043 542.873 462.043 525.755C462.043 508.637 448.166 494.76 431.048 494.76C413.93 494.76 400.053 508.637 400.053 525.755C400.053 542.873 413.93 556.75 431.048 556.75Z" fill="black"/>
<path d="M426.229 545.368L408.037 527.176L412.611 522.615L426.229 536.233L449.498 512.964L454.058 517.538L426.229 545.368Z" fill="#FAFAFA"/>
<path opacity="0.5" d="M562.06 400C563.684 400 565.002 398.682 564.981 397.058C564.215 338.448 540.601 282.403 499.099 240.901C456.903 198.705 399.674 175 340 175C280.326 175 223.097 198.705 180.901 240.901C139.399 282.403 115.785 338.448 115.019 397.058C114.998 398.682 116.317 400 117.94 400C119.564 400 120.879 398.682 120.901 397.058C121.666 340.008 144.661 285.458 185.059 245.059C226.152 203.967 281.886 180.881 340 180.881C398.114 180.881 453.848 203.967 494.941 245.059C535.339 285.458 558.334 340.008 559.099 397.058C559.121 398.682 560.436 400 562.06 400Z" fill="#F68C1F"/>
<path opacity="0.5" d="M562.06 376C563.684 376 565.002 374.682 564.981 373.058C564.215 314.448 540.601 258.403 499.099 216.901C456.903 174.705 399.674 151 340 151C280.326 151 223.097 174.705 180.901 216.901C139.399 258.403 115.785 314.448 115.019 373.058C114.998 374.682 116.317 376 117.94 376C119.564 376 120.879 374.682 120.901 373.058C121.666 316.008 144.661 261.458 185.059 221.059C226.152 179.967 281.886 156.881 340 156.881C398.114 156.881 453.848 179.967 494.941 221.059C535.339 261.458 558.334 316.008 559.099 373.058C559.121 374.682 560.436 376 562.06 376Z" fill="url(#paint0_linear_2435_82578)"/>
<defs>
<linearGradient id="paint0_linear_2435_82578" x1="101" y1="360" x2="565" y2="354.5" gradientUnits="userSpaceOnUse">
<stop stop-color="#FFE5CB"/>
<stop offset="0.5" stop-color="#F68C1F"/>
<stop offset="1" stop-color="#FFE5CB"/>
</linearGradient>
</defs>
</svg>
