<svg width="662" height="800" viewBox="0 0 662 800" fill="none" xmlns="http://www.w3.org/2000/svg">
<rect width="662" height="800" fill="url(#paint0_linear_4181_90239)"/>
<mask id="mask0_4181_90239" style="mask-type:alpha" maskUnits="userSpaceOnUse" x="620" y="9" width="24" height="24">
<rect x="620" y="9" width="24" height="24" fill="#D9D9D9"/>
</mask>
<g mask="url(#mask0_4181_90239)">
<path d="M632.001 22.4L627.101 27.3C626.917 27.4834 626.684 27.575 626.401 27.575C626.117 27.575 625.884 27.4834 625.701 27.3C625.517 27.1167 625.426 26.8834 625.426 26.6C625.426 26.3167 625.517 26.0834 625.701 25.9L630.601 21L625.701 16.1C625.517 15.9167 625.426 15.6834 625.426 15.4C625.426 15.1167 625.517 14.8834 625.701 14.7C625.884 14.5167 626.117 14.425 626.401 14.425C626.684 14.425 626.917 14.5167 627.101 14.7L632.001 19.6L636.901 14.7C637.084 14.5167 637.317 14.425 637.601 14.425C637.884 14.425 638.117 14.5167 638.301 14.7C638.484 14.8834 638.576 15.1167 638.576 15.4C638.576 15.6834 638.484 15.9167 638.301 16.1L633.401 21L638.301 25.9C638.484 26.0834 638.576 26.3167 638.576 26.6C638.576 26.8834 638.484 27.1167 638.301 27.3C638.117 27.4834 637.884 27.575 637.601 27.575C637.317 27.575 637.084 27.4834 636.901 27.3L632.001 22.4Z" fill="white"/>
</g>
<rect x="227" y="197" width="280" height="200" rx="20" fill="#FAFAEF"/>
<rect x="243" y="350" width="120" height="30" rx="15" fill="#3E78B2"/>
<rect x="428" y="350" width="65" height="30" rx="15" fill="#3E78B2"/>
<rect x="413" y="218" width="80" height="20" rx="5" fill="#D9D9D9"/>
<rect x="413" y="248" width="80" height="20" rx="5" fill="#D9D9D9"/>
<rect x="413" y="278" width="80" height="20" rx="5" fill="#D9D9D9"/>
<circle cx="396" cy="365" r="15" fill="#D9D9D9"/>
<circle cx="391" cy="228" r="10" fill="#D9D9D9"/>
<circle cx="391" cy="258" r="10" fill="#D9D9D9"/>
<circle cx="391" cy="288" r="10" fill="#D9D9D9"/>
<path d="M428.25 388.75C427.5 388.75 426.375 388.75 426 388.75C426 388 425.25 386.5 424.5 385.75C423.75 385 422.25 384.25 420.375 384.25C419.625 384.25 418.875 384.25 418.125 384.625C417.75 383.875 417.375 383.5 417 382.75C416.25 382 415.125 381.25 412.875 381.25C412.125 381.25 411.375 381.25 411 381.625V375.25C411 373 409.5 370 405.75 370C404.25 370 402.75 370.75 401.625 371.5C399.75 373.75 399.75 376.75 399.75 376.75V392.875C397.5 393.25 395.625 394 394.5 395.125C392.25 397.75 392.25 401.125 392.25 405.625C392.25 406.375 392.25 407.5 392.25 408.25C392.25 413.5 394.875 416.125 397.5 418.75L398.625 420.25C403.5 424.75 407.625 426.25 417.75 426.25C428.625 426.25 433.5 420.25 433.5 407.125V397.75C433.5 395.125 432.75 389.875 428.25 388.75ZM429.75 397.75V407.5C429.75 420.25 424.875 422.875 417.75 422.875C408.75 422.875 405.375 421.75 401.625 418C401.25 417.625 400.875 417.25 400.125 416.5C397.5 413.5 396 412 396 408.25C396 407.5 396 406.375 396 405.625C396 401.875 396 399.25 397.125 397.75C397.5 397.375 398.625 397 399.75 397V398.875L398.625 404.5C398.625 404.875 398.625 404.875 399 405.25C399.375 405.625 399.75 405.25 399.75 405.25L403.5 400.75C403.5 400.375 403.5 400 403.5 400V376.75C403.5 376.375 403.5 374.875 404.25 374.125C404.625 374.125 405 373.75 405.75 373.75C406.875 373.75 407.25 374.875 407.25 375.25V386.875V391.375C407.25 392.5 408 393.625 409.125 393.625C410.25 393.625 411 392.5 411 391.75V386.875C411 386.5 411.375 385 412.875 385C414 385 414.75 385.375 414.75 386.5V391.375C414.75 392.5 415.5 393.625 416.625 393.625C417.75 393.625 418.5 392.5 418.5 391.75V389.125C418.5 388.75 418.875 388 420.375 388C421.125 388 421.5 388.375 421.5 388.375C422.25 388.75 422.25 389.875 422.25 389.875V392.875C422.25 394 423 394.75 423.75 394.75C424.875 394.75 425.625 394.375 425.625 393.25C425.625 392.875 426 392.5 426.375 392.125C426.375 392.125 426.75 392.125 427.125 392.125C429.375 392.875 429.75 396.625 429.75 397.75C429.75 397.375 429.75 397.375 429.75 397.75Z" fill="#3E78B2"/>
<path d="M260.799 369V361.727H263.391C263.957 361.727 264.426 361.83 264.798 362.036C265.169 362.242 265.447 362.524 265.632 362.881C265.817 363.237 265.909 363.637 265.909 364.082C265.909 364.529 265.816 364.932 265.629 365.289C265.444 365.644 265.165 365.926 264.79 366.134C264.419 366.34 263.951 366.443 263.388 366.443H261.605V365.513H263.288C263.646 365.513 263.936 365.451 264.158 365.328C264.381 365.203 264.544 365.032 264.648 364.817C264.753 364.601 264.805 364.356 264.805 364.082C264.805 363.807 264.753 363.563 264.648 363.35C264.544 363.137 264.38 362.97 264.155 362.849C263.932 362.729 263.639 362.668 263.274 362.668H261.896V369H260.799ZM267.195 369V361.727H269.788C270.351 361.727 270.819 361.824 271.191 362.018C271.565 362.213 271.844 362.481 272.029 362.825C272.213 363.165 272.306 363.56 272.306 364.007C272.306 364.452 272.212 364.844 272.025 365.183C271.84 365.519 271.561 365.78 271.187 365.967C270.815 366.154 270.348 366.248 269.784 366.248H267.82V365.303H269.685C270.04 365.303 270.329 365.252 270.551 365.151C270.776 365.049 270.941 364.901 271.045 364.707C271.149 364.513 271.201 364.279 271.201 364.007C271.201 363.732 271.148 363.495 271.041 363.293C270.937 363.092 270.773 362.938 270.548 362.832C270.325 362.723 270.033 362.668 269.671 362.668H268.293V369H267.195ZM270.786 365.719L272.583 369H271.333L269.571 365.719H270.786ZM279.958 365.364C279.958 366.14 279.816 366.808 279.532 367.366C279.248 367.923 278.859 368.351 278.364 368.652C277.871 368.95 277.311 369.099 276.684 369.099C276.054 369.099 275.492 368.95 274.997 368.652C274.505 368.351 274.117 367.922 273.833 367.363C273.548 366.804 273.406 366.138 273.406 365.364C273.406 364.587 273.548 363.921 273.833 363.364C274.117 362.806 274.505 362.377 274.997 362.079C275.492 361.778 276.054 361.628 276.684 361.628C277.311 361.628 277.871 361.778 278.364 362.079C278.859 362.377 279.248 362.806 279.532 363.364C279.816 363.921 279.958 364.587 279.958 365.364ZM278.872 365.364C278.872 364.772 278.776 364.273 278.584 363.869C278.395 363.461 278.134 363.154 277.803 362.945C277.474 362.735 277.101 362.629 276.684 362.629C276.265 362.629 275.891 362.735 275.562 362.945C275.233 363.154 274.972 363.461 274.781 363.869C274.591 364.273 274.497 364.772 274.497 365.364C274.497 365.955 274.591 366.455 274.781 366.862C274.972 367.267 275.233 367.575 275.562 367.786C275.891 367.994 276.265 368.098 276.684 368.098C277.101 368.098 277.474 367.994 277.803 367.786C278.134 367.575 278.395 367.267 278.584 366.862C278.776 366.455 278.872 365.955 278.872 365.364ZM281.326 369V361.727H285.836V362.672H282.424V364.888H285.513V365.829H282.424V369H281.326ZM288.283 361.727V369H287.186V361.727H288.283ZM289.881 369V361.727H290.978V368.055H294.274V369H289.881ZM295.526 369V361.727H300.085V362.672H296.623V364.888H299.847V365.829H296.623V368.055H300.128V369H295.526ZM304.197 369V361.727H306.79C307.356 361.727 307.824 361.83 308.196 362.036C308.568 362.242 308.846 362.524 309.031 362.881C309.215 363.237 309.308 363.637 309.308 364.082C309.308 364.529 309.214 364.932 309.027 365.289C308.842 365.644 308.563 365.926 308.189 366.134C307.817 366.34 307.35 366.443 306.786 366.443H305.004V365.513H306.687C307.044 365.513 307.334 365.451 307.557 365.328C307.779 365.203 307.943 365.032 308.047 364.817C308.151 364.601 308.203 364.356 308.203 364.082C308.203 363.807 308.151 363.563 308.047 363.35C307.943 363.137 307.778 362.97 307.553 362.849C307.331 362.729 307.037 362.668 306.673 362.668H305.295V369H304.197ZM311.691 361.727V369H310.594V361.727H311.691ZM319.33 364.092H318.222C318.179 363.856 318.1 363.647 317.984 363.467C317.868 363.287 317.726 363.135 317.558 363.009C317.39 362.884 317.201 362.789 316.993 362.725C316.787 362.661 316.568 362.629 316.336 362.629C315.917 362.629 315.542 362.735 315.21 362.945C314.881 363.156 314.621 363.465 314.429 363.872C314.24 364.279 314.145 364.777 314.145 365.364C314.145 365.955 314.24 366.455 314.429 366.862C314.621 367.269 314.883 367.577 315.214 367.786C315.545 367.994 315.918 368.098 316.333 368.098C316.562 368.098 316.78 368.067 316.986 368.006C317.194 367.942 317.383 367.848 317.551 367.725C317.719 367.602 317.861 367.452 317.977 367.274C318.095 367.094 318.177 366.888 318.222 366.656L319.33 366.66C319.271 367.017 319.156 367.346 318.985 367.647C318.817 367.945 318.601 368.203 318.335 368.421C318.073 368.637 317.772 368.804 317.433 368.922C317.095 369.04 316.726 369.099 316.325 369.099C315.696 369.099 315.135 368.95 314.642 368.652C314.15 368.351 313.762 367.922 313.477 367.363C313.196 366.804 313.055 366.138 313.055 365.364C313.055 364.587 313.197 363.921 313.481 363.364C313.765 362.806 314.153 362.377 314.646 362.079C315.138 361.778 315.698 361.628 316.325 361.628C316.711 361.628 317.071 361.683 317.405 361.795C317.741 361.904 318.043 362.065 318.311 362.278C318.578 362.488 318.799 362.746 318.975 363.052C319.15 363.355 319.268 363.702 319.33 364.092ZM320.284 362.672V361.727H325.913V362.672H323.643V369H322.55V362.672H320.284ZM331.833 361.727H332.934V366.511C332.934 367.02 332.815 367.471 332.575 367.864C332.336 368.254 332 368.562 331.567 368.787C331.134 369.009 330.626 369.121 330.044 369.121C329.463 369.121 328.957 369.009 328.524 368.787C328.09 368.562 327.754 368.254 327.515 367.864C327.276 367.471 327.156 367.02 327.156 366.511V361.727H328.254V366.422C328.254 366.751 328.326 367.043 328.47 367.299C328.617 367.555 328.824 367.756 329.092 367.903C329.359 368.047 329.677 368.119 330.044 368.119C330.413 368.119 330.731 368.047 330.999 367.903C331.269 367.756 331.475 367.555 331.617 367.299C331.761 367.043 331.833 366.751 331.833 366.422V361.727ZM334.529 369V361.727H337.122C337.685 361.727 338.153 361.824 338.525 362.018C338.899 362.213 339.178 362.481 339.363 362.825C339.547 363.165 339.64 363.56 339.64 364.007C339.64 364.452 339.546 364.844 339.359 365.183C339.174 365.519 338.895 365.78 338.521 365.967C338.149 366.154 337.682 366.248 337.118 366.248H335.154V365.303H337.019C337.374 365.303 337.663 365.252 337.885 365.151C338.11 365.049 338.275 364.901 338.379 364.707C338.483 364.513 338.535 364.279 338.535 364.007C338.535 363.732 338.482 363.495 338.375 363.293C338.271 363.092 338.107 362.938 337.882 362.832C337.659 362.723 337.367 362.668 337.005 362.668H335.627V369H334.529ZM338.12 365.719L339.917 369H338.667L336.905 365.719H338.12ZM340.975 369V361.727H345.534V362.672H342.072V364.888H345.297V365.829H342.072V368.055H345.577V369H340.975Z" fill="#FAFAEF"/>
<path d="M445.476 361.727H446.577V366.511C446.577 367.02 446.457 367.471 446.218 367.864C445.979 368.254 445.643 368.562 445.21 368.787C444.776 369.009 444.268 369.121 443.686 369.121C443.106 369.121 442.599 369.009 442.166 368.787C441.733 368.562 441.397 368.254 441.158 367.864C440.919 367.471 440.799 367.02 440.799 366.511V361.727H441.896V366.422C441.896 366.751 441.969 367.043 442.113 367.299C442.26 367.555 442.467 367.756 442.734 367.903C443.002 368.047 443.319 368.119 443.686 368.119C444.055 368.119 444.374 368.047 444.641 367.903C444.911 367.756 445.117 367.555 445.259 367.299C445.404 367.043 445.476 366.751 445.476 366.422V361.727ZM448.172 369V361.727H450.764C451.33 361.727 451.799 361.83 452.171 362.036C452.542 362.242 452.82 362.524 453.005 362.881C453.19 363.237 453.282 363.637 453.282 364.082C453.282 364.529 453.189 364.932 453.002 365.289C452.817 365.644 452.538 365.926 452.164 366.134C451.792 366.34 451.324 366.443 450.761 366.443H448.978V365.513H450.661C451.019 365.513 451.309 365.451 451.531 365.328C451.754 365.203 451.917 365.032 452.021 364.817C452.126 364.601 452.178 364.356 452.178 364.082C452.178 363.807 452.126 363.563 452.021 363.35C451.917 363.137 451.753 362.97 451.528 362.849C451.305 362.729 451.012 362.668 450.647 362.668H449.269V369H448.172ZM454.569 369V361.727H455.666V368.055H458.961V369H454.569ZM466.247 365.364C466.247 366.14 466.105 366.808 465.821 367.366C465.537 367.923 465.148 368.351 464.653 368.652C464.16 368.95 463.601 369.099 462.973 369.099C462.343 369.099 461.781 368.95 461.286 368.652C460.794 368.351 460.406 367.922 460.122 367.363C459.838 366.804 459.695 366.138 459.695 365.364C459.695 364.587 459.838 363.921 460.122 363.364C460.406 362.806 460.794 362.377 461.286 362.079C461.781 361.778 462.343 361.628 462.973 361.628C463.601 361.628 464.16 361.778 464.653 362.079C465.148 362.377 465.537 362.806 465.821 363.364C466.105 363.921 466.247 364.587 466.247 365.364ZM465.161 365.364C465.161 364.772 465.065 364.273 464.873 363.869C464.684 363.461 464.423 363.154 464.092 362.945C463.763 362.735 463.39 362.629 462.973 362.629C462.554 362.629 462.18 362.735 461.851 362.945C461.522 363.154 461.262 363.461 461.07 363.869C460.88 364.273 460.786 364.772 460.786 365.364C460.786 365.955 460.88 366.455 461.07 366.862C461.262 367.267 461.522 367.575 461.851 367.786C462.18 367.994 462.554 368.098 462.973 368.098C463.39 368.098 463.763 367.994 464.092 367.786C464.423 367.575 464.684 367.267 464.873 366.862C465.065 366.455 465.161 365.955 465.161 365.364ZM467.868 369H466.704L469.321 361.727H470.589L473.206 369H472.041L469.985 363.048H469.928L467.868 369ZM468.064 366.152H471.842V367.075H468.064V366.152ZM476.61 369H474.256V361.727H476.685C477.398 361.727 478.01 361.873 478.521 362.164C479.032 362.453 479.424 362.868 479.696 363.411C479.971 363.95 480.108 364.598 480.108 365.353C480.108 366.111 479.97 366.762 479.693 367.306C479.418 367.851 479.02 368.27 478.5 368.563C477.979 368.854 477.349 369 476.61 369ZM475.353 368.041H476.55C477.104 368.041 477.565 367.937 477.931 367.729C478.298 367.518 478.573 367.214 478.755 366.816C478.938 366.416 479.029 365.928 479.029 365.353C479.029 364.782 478.938 364.298 478.755 363.901C478.575 363.503 478.307 363.201 477.949 362.995C477.592 362.789 477.148 362.686 476.618 362.686H475.353V368.041Z" fill="#FAFAEF"/>
<g clip-path="url(#clip0_4181_90239)">
<rect x="243" y="218" width="120" height="120" rx="8" fill="#DDDDDD"/>
<g clip-path="url(#clip1_4181_90239)">
<path d="M293.172 343.264L302.997 316.397L299.955 309.868H306.043L302.997 316.397L312.822 343.264L306.65 351.79C319.167 349.697 339.143 338.587 348.832 338.587L345.441 323.959C344.4 322.898 343.175 321.999 341.761 321.27C334.649 317.631 327.297 314.603 319.859 311.747C319.303 311.537 318.642 311.116 318.415 310.628C317.804 309.285 317.387 307.864 316.946 306.46C316.678 305.554 316.441 304.713 315.454 304.276C315.186 304.157 314.948 303.638 314.948 303.309C315.006 300.043 314.246 296.614 316.668 293.765C316.743 293.677 316.773 293.552 316.827 293.447C318.133 290.588 318.36 287.315 320.185 284.653C320.232 284.592 320.246 284.507 320.253 284.429C320.466 282.394 320.683 280.373 320.86 278.341C320.88 278.09 320.656 277.643 320.443 277.565C319.435 277.212 319.49 276.401 319.496 275.594C319.496 271.626 319.496 271.05 319.49 267.082C319.49 264.775 318.811 262.727 317.068 261.157C315.084 259.376 313.039 257.65 311.004 255.927C310.024 255.093 309.936 254.452 310.855 253.536C311.265 253.133 311.781 252.841 312.259 252.502C312.154 252.342 312.052 252.19 311.95 252.034C311.33 252.034 310.709 251.952 310.112 252.044C307.857 252.407 305.591 252.726 303.377 253.248C299.148 254.245 295.041 255.568 291.609 258.403C289.262 260.336 287.386 262.588 287.149 265.779C287.034 267.451 287.047 269.13 287.034 270.802C287.017 273.529 287.057 272.864 286.996 275.584C286.983 276.025 286.735 276.757 286.423 276.856C285.324 277.212 285.29 277.917 285.44 278.836C285.548 279.467 285.47 280.129 285.606 280.746C285.986 282.448 286.393 284.151 286.884 285.83C287.244 287.078 287.956 288.258 288.156 289.53C288.546 292.066 289.492 294.271 291.205 296.187C291.483 296.506 291.7 297.035 291.666 297.459C291.531 299.405 291.334 301.359 291.069 303.302C291.012 303.679 290.615 304.242 290.293 304.313C288.994 304.581 288.797 305.581 288.485 306.595C288.078 307.928 287.644 309.258 287.128 310.55C286.966 310.953 286.562 311.37 286.165 311.547C283.859 312.551 281.509 313.477 279.186 314.45C276.713 315.491 274.214 316.485 271.803 317.631C269.313 318.825 266.899 320.161 264.46 321.467C263.026 322.237 261.686 323.091 260.563 324.139L257.172 338.59C273.692 338.59 282.319 350.531 299.507 352.003L293.172 343.264ZM319.103 329.04H333.378V331.583H319.103V329.04Z" fill="#3E78B2"/>
</g>
</g>
<path d="M100.001 341.5C106.359 341.5 111.512 346.649 111.512 353C111.512 359.351 106.359 364.5 100.001 364.5C93.6433 364.5 88.4902 359.351 88.4902 353C88.4902 346.649 93.6433 341.5 100.001 341.5Z" fill="#FAFAEF" stroke="#FAFAEF"/>
<path d="M100.002 369.5C105.193 369.5 109.249 369.89 112.334 371.021L112.938 371.258C116.073 372.565 118.065 374.714 119.208 377.832L119.425 378.469C119.745 379.479 118.988 380.5 117.937 380.5H82.0547C81.0742 380.5 80.3513 379.608 80.5264 378.67L80.5742 378.481C81.6367 375.126 83.5804 372.813 86.7354 371.4L87.0449 371.267C90.2001 369.945 94.4535 369.5 100.002 369.5Z" fill="#FAFAEF" stroke="#FAFAEF"/>
<circle cx="100" cy="361" r="35.75" stroke="#FAFAEF" stroke-width="0.5"/>
<circle cx="100" cy="361" r="31.9" stroke="#FAFAEF" stroke-width="0.2"/>
<circle cx="190" cy="339" r="23.75" stroke="#FAFAEF" stroke-width="0.5"/>
<circle cx="189.999" cy="339" r="21.2333" stroke="#FAFAEF" stroke-width="0.2"/>
<circle cx="148" cy="249" r="65.5" stroke="#FAFAEF"/>
<path d="M148 435.667C149.473 435.667 150.667 434.473 150.667 433C150.667 431.527 149.473 430.333 148 430.333C146.527 430.333 145.333 431.527 145.333 433C145.333 434.473 146.527 435.667 148 435.667ZM148 185.667C149.473 185.667 150.667 184.473 150.667 183C150.667 181.527 149.473 180.333 148 180.333C146.527 180.333 145.333 181.527 145.333 183C145.333 184.473 146.527 185.667 148 185.667ZM148.5 433L148.5 183H147.5L147.5 433H148.5Z" fill="#FAFAEF"/>
<path d="M554 494.667C555.473 494.667 556.667 493.473 556.667 492C556.667 490.527 555.473 489.333 554 489.333C552.527 489.333 551.333 490.527 551.333 492C551.333 493.473 552.527 494.667 554 494.667ZM554 244.667C555.473 244.667 556.667 243.473 556.667 242C556.667 240.527 555.473 239.333 554 239.333C552.527 239.333 551.333 240.527 551.333 242C551.333 243.473 552.527 244.667 554 244.667ZM554.5 492V242H553.5V492H554.5Z" fill="#FAFAEF"/>
<path d="M558 463V343" stroke="#FAFAEF" stroke-width="2" stroke-linecap="round"/>
<path d="M216.667 249C216.667 247.527 215.473 246.333 214 246.333C212.527 246.333 211.333 247.527 211.333 249C211.333 250.473 212.527 251.667 214 251.667C215.473 251.667 216.667 250.473 216.667 249ZM84.6667 249C84.6667 247.527 83.4728 246.333 82 246.333C80.5272 246.333 79.3333 247.527 79.3333 249C79.3333 250.473 80.5272 251.667 82 251.667C83.4728 251.667 84.6667 250.473 84.6667 249ZM214 248.5L82 248.5V249.5L214 249.5V248.5Z" fill="#FAFAEF"/>
<rect x="104" y="205" width="88" height="88" rx="10" fill="#3E78B2"/>
<circle cx="148" cy="469" r="35.75" stroke="#FAFAEF" stroke-width="0.5"/>
<circle cx="148" cy="469" r="31.9" stroke="#FAFAEF" stroke-width="0.2"/>
<circle cx="471" cy="460" r="35.5" stroke="#FAFAEF"/>
<circle cx="471" cy="460" r="31.75" stroke="#FAFAEF" stroke-width="0.5"/>
<circle cx="554" cy="222" r="19.5" stroke="#FAFAEF"/>
<circle cx="554" cy="222" r="17.5278" stroke="#FAFAEF" stroke-width="0.5"/>
<circle cx="553.5" cy="329.5" r="7.25" fill="#FAFAEF" stroke="#FAFAEF" stroke-width="0.5"/>
<path d="M578 456.333C580.946 456.333 583.333 453.946 583.333 451C583.333 448.054 580.946 445.667 578 445.667C575.054 445.667 572.667 448.054 572.667 451C572.667 453.946 575.054 456.333 578 456.333ZM579 351C579 350.448 578.552 350 578 350C577.448 350 577 350.448 577 351H579ZM579 451V351H577V451H579Z" fill="#FAFAEF"/>
<circle cx="577.5" cy="414.5" r="7.25" fill="#FAFAEF" stroke="#FAFAEF" stroke-width="0.5"/>
<circle cx="578" cy="349" r="4.75" fill="#FAFAEF" stroke="#FAFAEF" stroke-width="0.5"/>
<g clip-path="url(#clip2_4181_90239)">
<path d="M136.75 472.022C136.75 471.043 135.957 470.25 134.979 470.25H131.021C130.043 470.25 129.25 471.043 129.25 472.022V484H136.75V472.022Z" fill="#FAFAEF"/>
<path d="M168 486.5H128V489H168V486.5Z" fill="#FAFAEF"/>
<path d="M146.75 465.773C146.75 464.793 145.957 464 144.979 464H141.021C140.043 464 139.25 464.793 139.25 465.773V484H146.75V465.773Z" fill="#FAFAEF"/>
<path d="M156.75 458.273C156.75 457.293 155.957 456.5 154.979 456.5H151.021C150.043 456.5 149.25 457.293 149.25 458.273V484H156.75V458.273Z" fill="#FAFAEF"/>
<path d="M166.75 450.773C166.75 449.793 165.957 449 164.979 449H161.021C160.043 449 159.25 449.793 159.25 450.773V484H166.75V450.773Z" fill="#FAFAEF"/>
</g>
<path d="M442.75 559.957C442.75 558.462 441.904 557.25 440.861 557.25H436.639C435.596 557.25 434.75 558.462 434.75 559.957V576.25C434.75 577.355 435.645 578.25 436.75 578.25H440.75C441.855 578.25 442.75 577.355 442.75 576.25V559.957Z" fill="#3E78B2"/>
<path d="M458 552.773C458 551.793 457.207 551 456.229 551H452.271C451.293 551 450.5 551.793 450.5 552.773V569C450.5 570.105 451.395 571 452.5 571H456C457.105 571 458 570.105 458 569V552.773Z" fill="#3E78B2"/>
<path d="M521.5 534.773C521.5 533.793 520.707 533 519.729 533H515.771C514.793 533 514 533.793 514 534.773V551C514 552.105 514.895 553 516 553H519.5C520.605 553 521.5 552.105 521.5 551V534.773Z" fill="#3E78B2"/>
<path d="M473.75 545.563C473.75 544.423 472.904 543.5 471.861 543.5H467.639C466.596 543.5 465.75 544.423 465.75 545.563V573.5C465.75 574.605 466.645 575.5 467.75 575.5H471.75C472.855 575.5 473.75 574.605 473.75 573.5V545.563Z" fill="#3E78B2"/>
<path d="M488.75 525.431C488.75 524.088 488.009 523 487.097 523H483.403C482.491 523 481.75 524.088 481.75 525.431V569C481.75 570.105 482.645 571 483.75 571H486.75C487.855 571 488.75 570.105 488.75 569V525.431Z" fill="#3E78B2"/>
<path d="M505 535.431C505 534.088 504.259 533 503.347 533H499.653C498.741 533 498 534.088 498 535.431V579C498 580.105 498.895 581 500 581H503C504.105 581 505 580.105 505 579V535.431Z" fill="#3E78B2"/>
<path fill-rule="evenodd" clip-rule="evenodd" d="M128.5 236C128.5 225.23 137.23 216.5 148 216.5C158.77 216.5 167.5 225.23 167.5 236C167.5 246.77 158.77 255.5 148 255.5C137.23 255.5 128.5 246.77 128.5 236Z" fill="white"/>
<path fill-rule="evenodd" clip-rule="evenodd" d="M126.651 264.933C131.932 262.719 138.976 262 148 262C157.006 262 164.039 262.716 169.316 264.919C174.979 267.283 178.455 271.299 180.309 277.141C180.997 279.312 179.369 281.5 177.118 281.5H118.863C116.621 281.5 115.002 279.322 115.685 277.163C117.533 271.321 120.997 267.303 126.651 264.933Z" fill="white"/>
<path d="M475.166 446.021H473.083C473.083 446.942 473.688 447.755 474.572 448.017L475.166 446.021ZM477.937 447.17L476.945 449.001C477.755 449.441 478.758 449.295 479.41 448.643L477.937 447.17ZM483.83 453.062L482.357 451.589C481.705 452.241 481.559 453.244 481.998 454.055L483.83 453.062ZM484.979 455.833L482.982 456.428C483.245 457.311 484.057 457.917 484.979 457.917V455.833ZM484.979 464.167V462.083C484.057 462.083 483.245 462.689 482.982 463.573L484.979 464.167ZM483.83 466.938L481.998 465.945C481.559 466.756 481.705 467.759 482.357 468.411L483.83 466.938ZM477.937 472.83L479.41 471.357C478.758 470.705 477.755 470.56 476.945 470.999L477.937 472.83ZM475.166 473.979L474.572 471.983C473.688 472.246 473.083 473.058 473.083 473.979H475.166ZM466.833 473.979H468.916C468.916 473.058 468.31 472.246 467.427 471.983L466.833 473.979ZM464.061 472.83L465.054 470.999C464.243 470.559 463.24 470.705 462.588 471.357L464.061 472.83ZM458.169 466.938L459.642 468.411C460.294 467.759 460.44 466.756 460.001 465.945L458.169 466.938ZM457.02 464.167L459.017 463.572C458.754 462.689 457.942 462.083 457.02 462.083V464.167ZM457.02 455.833V457.917C457.942 457.917 458.754 457.311 459.017 456.428L457.02 455.833ZM458.169 453.062L460.001 454.055C460.44 453.244 460.294 452.241 459.642 451.589L458.169 453.062ZM464.061 447.17L462.588 448.643C463.24 449.295 464.243 449.441 465.054 449.001L464.061 447.17ZM466.833 446.021L467.427 448.017C468.31 447.755 468.916 446.942 468.916 446.021H466.833ZM468.916 439.167C466.615 439.167 464.749 441.032 464.749 443.333H468.916V439.167ZM473.083 439.167H468.916V443.333H473.083V439.167ZM477.249 443.333C477.249 441.032 475.384 439.167 473.083 439.167V443.333H477.249ZM477.249 446.021V443.333H473.083V446.021H477.249ZM478.93 445.338C477.931 444.797 476.87 444.354 475.76 444.024L474.572 448.017C475.402 448.264 476.196 448.596 476.945 449.001L478.93 445.338ZM478.365 443.795L476.464 445.696L479.41 448.643L481.311 446.742L478.365 443.795ZM484.258 443.795C482.63 442.168 479.992 442.168 478.365 443.795L481.311 446.742L484.258 443.795ZM487.204 446.742L484.258 443.795L481.311 446.742L484.258 449.688L487.204 446.742ZM487.204 452.634C488.831 451.007 488.831 448.369 487.204 446.742L484.258 449.688L487.204 452.634ZM485.303 454.535L487.204 452.634L484.258 449.688L482.357 451.589L485.303 454.535ZM486.976 455.239C486.645 454.129 486.203 453.069 485.661 452.07L481.998 454.055C482.404 454.803 482.735 455.598 482.982 456.428L486.976 455.239ZM484.979 457.917H487.666V453.75H484.979V457.917ZM487.666 457.917H491.833C491.833 455.616 489.967 453.75 487.666 453.75V457.917ZM487.666 457.917V462.083H491.833V457.917H487.666ZM487.666 462.083V466.25C489.967 466.25 491.833 464.385 491.833 462.083H487.666ZM487.666 462.083H484.979V466.25H487.666V462.083ZM485.661 467.93C486.203 466.932 486.645 465.871 486.976 464.761L482.982 463.573C482.735 464.403 482.404 465.197 481.998 465.945L485.661 467.93ZM487.204 467.366L485.303 465.465L482.357 468.411L484.258 470.312L487.204 467.366ZM487.204 473.258C488.831 471.631 488.831 468.993 487.204 467.366L484.258 470.312L487.204 473.258ZM484.258 476.205L487.204 473.258L484.258 470.312L481.311 473.258L484.258 476.205ZM478.365 476.205C479.992 477.832 482.63 477.832 484.258 476.205L481.311 473.258L478.365 476.205ZM476.464 474.304L478.365 476.205L481.311 473.258L479.41 471.357L476.464 474.304ZM475.76 475.976C476.87 475.646 477.931 475.204 478.93 474.662L476.945 470.999C476.196 471.404 475.402 471.736 474.572 471.983L475.76 475.976ZM477.249 476.667V473.979H473.083V476.667H477.249ZM473.083 480.833C475.384 480.833 477.249 478.968 477.249 476.667H473.083V480.833ZM468.916 480.833H473.083V476.667H468.916V480.833ZM464.749 476.667C464.749 478.968 466.615 480.833 468.916 480.833V476.667H464.749ZM464.749 473.979V476.667H468.916V473.979H464.749ZM463.069 474.662C464.068 475.204 465.129 475.646 466.238 475.976L467.427 471.983C466.597 471.736 465.803 471.404 465.054 470.999L463.069 474.662ZM463.634 476.205L465.535 474.304L462.588 471.357L460.687 473.258L463.634 476.205ZM457.741 476.205C459.368 477.832 462.006 477.832 463.634 476.205L460.687 473.258L457.741 476.205ZM454.795 473.258L457.741 476.205L460.687 473.258L457.741 470.312L454.795 473.258ZM454.795 467.366C453.168 468.993 453.168 471.631 454.795 473.258L457.741 470.312L454.795 467.366ZM456.696 465.465L454.795 467.366L457.741 470.312L459.642 468.411L456.696 465.465ZM455.023 464.761C455.353 465.871 455.796 466.932 456.337 467.93L460.001 465.945C459.595 465.197 459.264 464.403 459.017 463.572L455.023 464.761ZM457.02 462.083H454.333V466.25H457.02V462.083ZM454.333 462.083H450.166C450.166 464.385 452.031 466.25 454.333 466.25V462.083ZM454.333 462.083V457.917H450.166V462.083H454.333ZM454.333 457.917V453.75C452.031 453.75 450.166 455.616 450.166 457.917H454.333ZM454.333 457.917H457.02V453.75H454.333V457.917ZM456.337 452.07C455.796 453.069 455.353 454.13 455.023 455.239L459.017 456.428C459.264 455.598 459.595 454.803 460.001 454.055L456.337 452.07ZM454.795 452.634L456.696 454.535L459.642 451.589L457.741 449.688L454.795 452.634ZM454.795 446.742C453.168 448.369 453.168 451.007 454.795 452.634L457.741 449.688L454.795 446.742ZM457.741 443.796L454.795 446.742L457.741 449.688L460.687 446.742L457.741 443.796ZM463.634 443.796C462.006 442.168 459.368 442.168 457.741 443.796L460.687 446.742L463.634 443.796ZM465.535 445.696L463.634 443.796L460.687 446.742L462.588 448.643L465.535 445.696ZM466.238 444.024C465.129 444.354 464.068 444.797 463.069 445.338L465.054 449.001C465.803 448.596 466.597 448.264 467.427 448.017L466.238 444.024ZM464.749 443.333V446.021H468.916V443.333H464.749Z" fill="#FAFAEF"/>
<path d="M471 466.25C474.452 466.25 477.25 463.452 477.25 460C477.25 456.548 474.452 453.75 471 453.75C467.548 453.75 464.75 456.548 464.75 460C464.75 463.452 467.548 466.25 471 466.25Z" stroke="#FAFAEF" stroke-width="2" stroke-linecap="round" stroke-linejoin="round"/>
<path d="M381.086 474.66C381.086 470.513 378.561 465.689 375.451 463.894L304.133 422.718C301.023 420.922 298.498 422.831 298.498 426.978V487.082C298.498 491.229 301.023 496.053 304.133 497.849L375.451 539.024C378.561 540.82 381.086 538.911 381.086 534.765V474.66Z" fill="#3E78B2"/>
<path d="M302.24 421.624C300.933 420.87 298.953 420.788 297.821 421.441L295.771 422.625C295.132 422.994 295.213 423.638 295.95 424.064L376.667 470.666C379.569 468.991 379.204 466.06 375.853 464.125L302.24 421.624Z" fill="#3E78B2"/>
<path d="M380.444 473.206C380.444 469.622 378.262 467.972 375.573 469.524C375.329 469.665 375.131 470.044 375.131 470.37V539.813C375.131 540.791 375.726 541.241 376.459 540.818L379.01 539.345C379.802 538.888 380.444 537.66 380.444 536.604V473.206Z" fill="#3E78B2"/>
<path d="M378.372 473.769C378.372 470.99 376.679 467.756 374.595 466.553L299.158 422.999C296.179 421.279 293.762 423.107 293.762 427.078V484.632C293.762 488.603 296.179 493.222 299.158 494.942L372.976 537.561C375.954 539.28 378.372 537.452 378.372 533.482V473.769Z" fill="#3E78B2"/>
<path d="M376.093 472.321C376.093 471.225 375.426 469.951 374.604 469.477L297.327 424.86C296.505 424.386 295.838 424.89 295.838 425.986V488.184C295.838 489.279 296.505 490.554 297.327 491.029L374.604 535.645C375.426 536.119 376.093 535.615 376.093 534.519V472.321Z" fill="#FAFAEF"/>
<path d="M295.12 489.518C293.222 488.423 290.347 488.304 288.704 489.253L242.849 515.727C236.933 519.143 237.676 525.118 244.507 529.062L313.83 569.085C317.625 571.276 323.374 571.515 326.661 569.617L377.28 540.392C378.924 539.443 378.717 537.784 376.82 536.688L295.12 489.518Z" fill="#3E78B2"/>
<path d="M298.154 487.696C296.29 486.62 293.467 486.503 291.853 487.434L244.48 514.785C239.961 517.394 240.529 521.959 245.747 524.971L315.205 565.073C318.932 567.225 324.579 567.459 327.807 565.596L377.519 536.894C379.133 535.962 378.931 534.332 377.067 533.256L298.154 487.696ZM344.68 452.199L328.739 442.996V444.266C328.739 445.318 329.379 446.541 330.168 446.997L343.251 454.55C344.04 455.005 344.68 454.521 344.68 453.47V452.199Z" fill="#3E78B2"/>
<path d="M287.453 547.076L271.512 537.872V540.365C271.512 542.429 272.769 544.83 274.316 545.724L284.648 551.689C286.196 552.582 287.453 551.632 287.453 549.568V547.076ZM295.424 495.83L290.11 498.898L295.424 501.966L300.738 498.898L295.424 495.83Z" fill="#3E78B2"/>
<path d="M295.423 496.201L290.752 498.898L295.423 501.595L300.095 498.898L295.423 496.201Z" fill="#3E78B2"/>
<path d="M290.109 498.898L284.795 501.966L290.109 505.034L295.422 501.966L290.109 498.898Z" fill="#3E78B2"/>
<path d="M290.109 499.269L285.438 501.966L290.109 504.663L294.78 501.966L290.109 499.269Z" fill="#3E78B2"/>
<path d="M290.109 505.034L284.795 508.101L290.109 511.169L295.422 508.101L290.109 505.034Z" fill="#3E78B2"/>
<path d="M290.109 505.404L285.438 508.101L290.109 510.799L294.78 508.101L290.109 505.404Z" fill="#3E78B2"/>
<path d="M290.109 511.169L284.795 514.237L290.109 517.305L295.422 514.237L290.109 511.169Z" fill="#3E78B2"/>
<path d="M290.109 511.54L285.438 514.237L290.109 516.935L294.78 514.237L290.109 511.54Z" fill="#3E78B2"/>
<path d="M290.109 517.305L284.795 520.373L290.109 523.441L295.422 520.373L290.109 517.305Z" fill="#3E78B2"/>
<path d="M290.109 517.676L285.438 520.373L290.109 523.07L294.78 520.373L290.109 517.676Z" fill="#3E78B2"/>
<path d="M300.738 498.898L295.424 501.966L300.738 505.034L306.051 501.966L300.738 498.898Z" fill="#3E78B2"/>
<path d="M300.738 499.269L296.066 501.966L300.738 504.663L305.409 501.966L300.738 499.269Z" fill="#3E78B2"/>
<path d="M295.423 501.966L290.109 505.034L295.423 508.101L300.737 505.034L295.423 501.966Z" fill="#3E78B2"/>
<path d="M295.423 502.337L290.752 505.034L295.423 507.731L300.095 505.034L295.423 502.337Z" fill="#3E78B2"/>
<path d="M295.423 508.102L290.109 511.169L295.423 514.237L300.737 511.169L295.423 508.102Z" fill="#3E78B2"/>
<path d="M295.423 508.472L290.752 511.169L295.423 513.866L300.095 511.169L295.423 508.472Z" fill="#3E78B2"/>
<path d="M295.423 514.237L290.109 517.305L295.423 520.373L300.737 517.305L295.423 514.237Z" fill="#3E78B2"/>
<path d="M295.423 514.608L290.752 517.305L295.423 520.002L300.095 517.305L295.423 514.608Z" fill="#3E78B2"/>
<path d="M295.423 520.373L290.109 523.441L295.423 526.509L300.737 523.441L295.423 520.373Z" fill="#3E78B2"/>
<path d="M295.423 520.744L290.752 523.441L295.423 526.138L300.095 523.441L295.423 520.744Z" fill="#3E78B2"/>
<path d="M306.052 501.966L300.738 505.034L306.052 508.101L311.366 505.034L306.052 501.966Z" fill="#3E78B2"/>
<path d="M306.05 502.337L301.379 505.034L306.05 507.731L310.722 505.034L306.05 502.337Z" fill="#3E78B2"/>
<path d="M300.738 505.034L295.424 508.101L300.738 511.169L306.051 508.101L300.738 505.034Z" fill="#3E78B2"/>
<path d="M300.738 505.404L296.066 508.101L300.738 510.799L305.409 508.101L300.738 505.404Z" fill="#3E78B2"/>
<path d="M300.738 511.169L295.424 514.237L300.738 517.305L306.051 514.237L300.738 511.169Z" fill="#3E78B2"/>
<path d="M300.738 511.54L296.066 514.237L300.738 516.935L305.409 514.237L300.738 511.54Z" fill="#3E78B2"/>
<path d="M300.738 517.305L295.424 520.373L300.738 523.441L306.051 520.373L300.738 517.305Z" fill="#3E78B2"/>
<path d="M300.738 517.676L296.066 520.373L300.738 523.07L305.409 520.373L300.738 517.676Z" fill="#3E78B2"/>
<path d="M300.738 523.441L295.424 526.509L300.738 529.577L306.051 526.509L300.738 523.441Z" fill="#3E78B2"/>
<path d="M300.738 523.812L296.066 526.509L300.738 529.206L305.409 526.509L300.738 523.812Z" fill="#3E78B2"/>
<path d="M311.365 505.034L306.051 508.101L311.365 511.169L316.678 508.101L311.365 505.034Z" fill="#3E78B2"/>
<path d="M311.365 505.404L306.693 508.101L311.365 510.799L316.036 508.101L311.365 505.404Z" fill="#3E78B2"/>
<path d="M306.052 508.102L300.738 511.169L306.052 514.237L311.366 511.169L306.052 508.102Z" fill="#3E78B2"/>
<path d="M306.05 508.472L301.379 511.169L306.05 513.866L310.722 511.169L306.05 508.472Z" fill="#3E78B2"/>
<path d="M306.052 514.237L300.738 517.305L306.052 520.373L311.366 517.305L306.052 514.237Z" fill="#3E78B2"/>
<path d="M306.05 514.608L301.379 517.305L306.05 520.002L310.722 517.305L306.05 514.608Z" fill="#3E78B2"/>
<path d="M306.052 520.373L300.738 523.441L306.052 526.509L311.366 523.441L306.052 520.373Z" fill="#3E78B2"/>
<path d="M306.05 520.744L301.379 523.441L306.05 526.138L310.722 523.441L306.05 520.744Z" fill="#3E78B2"/>
<path d="M306.052 526.509L300.738 529.577L306.052 532.645L311.366 529.577L306.052 526.509Z" fill="#3E78B2"/>
<path d="M306.05 526.88L301.379 529.577L306.05 532.274L310.722 529.577L306.05 526.88Z" fill="#3E78B2"/>
<path d="M316.679 508.102L311.365 511.169L316.679 514.237L321.993 511.169L316.679 508.102Z" fill="#3E78B2"/>
<path d="M316.679 508.472L312.008 511.169L316.679 513.866L321.351 511.169L316.679 508.472Z" fill="#3E78B2"/>
<path d="M311.365 511.169L306.051 514.237L311.365 517.305L316.678 514.237L311.365 511.169Z" fill="#3E78B2"/>
<path d="M311.365 511.54L306.693 514.237L311.365 516.935L316.036 514.237L311.365 511.54Z" fill="#3E78B2"/>
<path d="M311.365 517.305L306.051 520.373L311.365 523.441L316.678 520.373L311.365 517.305Z" fill="#3E78B2"/>
<path d="M311.365 517.676L306.693 520.373L311.365 523.07L316.036 520.373L311.365 517.676Z" fill="#3E78B2"/>
<path d="M311.365 523.441L306.051 526.509L311.365 529.577L316.678 526.509L311.365 523.441Z" fill="#3E78B2"/>
<path d="M311.365 523.812L306.693 526.509L311.365 529.206L316.036 526.509L311.365 523.812Z" fill="#3E78B2"/>
<path d="M311.365 529.577L306.051 532.645L311.365 535.713L316.678 532.645L311.365 529.577Z" fill="#3E78B2"/>
<path d="M311.365 529.948L306.693 532.645L311.365 535.342L316.036 532.645L311.365 529.948Z" fill="#3E78B2"/>
<path d="M321.992 511.169L316.678 514.237L321.992 517.305L327.306 514.237L321.992 511.169Z" fill="#3E78B2"/>
<path d="M321.992 511.54L317.32 514.237L321.992 516.935L326.663 514.237L321.992 511.54Z" fill="#3E78B2"/>
<path d="M316.679 514.237L311.365 517.305L316.679 520.373L321.993 517.305L316.679 514.237Z" fill="#3E78B2"/>
<path d="M316.679 514.608L312.008 517.305L316.679 520.002L321.351 517.305L316.679 514.608Z" fill="#3E78B2"/>
<path d="M316.679 520.373L311.365 523.441L316.679 526.509L321.993 523.441L316.679 520.373Z" fill="#3E78B2"/>
<path d="M316.679 520.744L312.008 523.441L316.679 526.138L321.351 523.441L316.679 520.744Z" fill="#3E78B2"/>
<path d="M316.679 526.509L311.365 529.577L316.679 532.645L321.993 529.577L316.679 526.509Z" fill="#3E78B2"/>
<path d="M316.679 526.88L312.008 529.577L316.679 532.274L321.351 529.577L316.679 526.88Z" fill="#3E78B2"/>
<path d="M316.679 532.645L311.365 535.713L316.679 538.78L321.993 535.713L316.679 532.645Z" fill="#3E78B2"/>
<path d="M316.679 533.016L312.008 535.713L316.679 538.41L321.351 535.713L316.679 533.016Z" fill="#3E78B2"/>
<path d="M327.306 514.237L321.992 517.305L327.306 520.373L332.62 517.305L327.306 514.237Z" fill="#3E78B2"/>
<path d="M327.306 514.608L322.635 517.305L327.306 520.002L331.977 517.305L327.306 514.608Z" fill="#3E78B2"/>
<path d="M321.992 517.305L316.678 520.373L321.992 523.441L327.306 520.373L321.992 517.305Z" fill="#3E78B2"/>
<path d="M321.992 517.676L317.32 520.373L321.992 523.07L326.663 520.373L321.992 517.676Z" fill="#3E78B2"/>
<path d="M321.992 523.441L316.678 526.509L321.992 529.577L327.306 526.509L321.992 523.441Z" fill="#3E78B2"/>
<path d="M321.992 523.812L317.32 526.509L321.992 529.206L326.663 526.509L321.992 523.812Z" fill="#3E78B2"/>
<path d="M321.992 529.577L316.678 532.645L321.992 535.713L327.306 532.645L321.992 529.577Z" fill="#3E78B2"/>
<path d="M321.992 529.948L317.32 532.645L321.992 535.342L326.663 532.645L321.992 529.948Z" fill="#3E78B2"/>
<path d="M332.62 517.305L327.307 520.373L332.62 523.441L337.934 520.373L332.62 517.305Z" fill="#3E78B2"/>
<path d="M332.62 517.676L327.949 520.373L332.62 523.07L337.292 520.373L332.62 517.676Z" fill="#3E78B2"/>
<path d="M327.306 520.373L321.992 523.441L327.306 526.509L332.62 523.441L327.306 520.373Z" fill="#3E78B2"/>
<path d="M327.306 520.744L322.635 523.441L327.306 526.138L331.977 523.441L327.306 520.744Z" fill="#3E78B2"/>
<path d="M327.306 526.509L321.992 529.577L327.306 532.645L332.62 529.577L327.306 526.509Z" fill="#3E78B2"/>
<path d="M327.306 526.88L322.635 529.577L327.306 532.274L331.977 529.577L327.306 526.88Z" fill="#3E78B2"/>
<path d="M327.306 532.645L321.992 535.713L327.306 538.78L332.62 535.713L327.306 532.645Z" fill="#3E78B2"/>
<path d="M327.306 533.016L322.635 535.713L327.306 538.41L331.977 535.713L327.306 533.016Z" fill="#3E78B2"/>
<path d="M337.933 520.373L332.619 523.441L337.933 526.509L343.247 523.441L337.933 520.373Z" fill="#3E78B2"/>
<path d="M337.933 520.744L333.262 523.441L337.933 526.138L342.604 523.441L337.933 520.744Z" fill="#3E78B2"/>
<path d="M332.62 523.441L327.307 526.509L332.62 529.577L337.934 526.509L332.62 523.441Z" fill="#3E78B2"/>
<path d="M332.62 523.812L327.949 526.509L332.62 529.206L337.292 526.509L332.62 523.812Z" fill="#3E78B2"/>
<path d="M332.62 529.577L327.307 532.645L332.62 535.713L337.934 532.645L332.62 529.577Z" fill="#3E78B2"/>
<path d="M332.62 529.948L327.949 532.645L332.62 535.342L337.292 532.645L332.62 529.948Z" fill="#3E78B2"/>
<path d="M343.247 523.441L337.934 526.509L343.247 529.577L348.561 526.509L343.247 523.441Z" fill="#3E78B2"/>
<path d="M343.247 523.812L338.576 526.509L343.247 529.206L347.919 526.509L343.247 523.812Z" fill="#3E78B2"/>
<path d="M337.933 526.509L332.619 529.577L337.933 532.645L343.247 529.577L337.933 526.509Z" fill="#3E78B2"/>
<path d="M337.933 526.88L333.262 529.577L337.933 532.274L342.604 529.577L337.933 526.88Z" fill="#3E78B2"/>
<path d="M337.933 532.645L332.619 535.713L337.933 538.78L343.247 535.713L337.933 532.645Z" fill="#3E78B2"/>
<path d="M337.933 533.016L333.262 535.713L337.933 538.41L342.604 535.713L337.933 533.016Z" fill="#3E78B2"/>
<path d="M348.562 526.509L343.248 529.577L348.562 532.645L353.876 529.577L348.562 526.509Z" fill="#3E78B2"/>
<path d="M348.562 526.88L343.891 529.577L348.562 532.274L353.233 529.577L348.562 526.88Z" fill="#3E78B2"/>
<path d="M343.247 529.577L337.934 532.645L343.247 535.713L348.561 532.645L343.247 529.577Z" fill="#3E78B2"/>
<path d="M343.247 529.948L338.576 532.645L343.247 535.342L347.919 532.645L343.247 529.948Z" fill="#3E78B2"/>
<path d="M353.874 529.577L348.561 532.645L353.874 535.713L359.188 532.645L353.874 529.577Z" fill="#3E78B2"/>
<path d="M353.874 529.948L349.203 532.645L353.874 535.342L358.546 532.645L353.874 529.948Z" fill="#3E78B2"/>
<path d="M359.189 532.645L353.875 535.713L359.189 538.78L364.503 535.713L359.189 532.645Z" fill="#3E78B2"/>
<path d="M359.189 533.016L354.518 535.713L359.189 538.41L363.86 535.713L359.189 533.016Z" fill="#3E78B2"/>
<path d="M348.562 532.645L343.248 535.713L348.562 538.78L353.876 535.713L348.562 532.645Z" fill="#3E78B2"/>
<path d="M348.562 533.016L343.891 535.713L348.562 538.41L353.233 535.713L348.562 533.016Z" fill="#3E78B2"/>
<path d="M284.241 526.188C283.068 525.511 281.29 525.437 280.274 526.024L263.709 535.588L295.591 553.995L312.157 544.431C313.173 543.845 313.045 542.819 311.872 542.142L284.241 526.188Z" fill="#3E78B2"/>
<g clip-path="url(#clip3_4181_90239)">
<path d="M343.939 476.962L349.006 479.853L349.034 479.903L349.034 482.149L348.978 482.186L344.93 479.849L344.93 482.267L348.619 484.397L348.647 484.448L348.647 486.728L344.93 484.582L344.93 487.951C344.931 488.178 344.88 488.249 344.659 488.122C344.439 487.995 343.337 487.358 343.201 487.28C343.065 487.202 342.931 486.934 342.93 486.796L342.93 477.824C342.93 477.27 343.104 476.689 343.939 476.962Z" fill="#FD9024"/>
<path d="M309.401 456.947L310.147 457.378C310.181 457.397 310.215 457.419 310.248 457.444L310.775 457.84L311.219 458.245C311.253 458.276 311.286 458.309 311.318 458.345L311.765 458.843L312.129 459.287C312.161 459.327 312.191 459.368 312.221 459.412L312.507 459.836L312.892 460.457L313.249 461.128L313.411 461.502C313.431 461.548 313.449 461.595 313.465 461.641L313.523 461.816C313.542 461.872 313.555 461.928 313.562 461.982C313.573 462.07 313.567 462.15 313.546 462.216L313.531 462.261C313.508 462.331 313.472 462.387 313.425 462.426C313.363 462.477 313.285 462.499 313.197 462.488L313.18 462.486C313.135 462.48 313.087 462.467 313.038 462.446L312.892 462.383L311.965 461.848C311.923 461.824 311.882 461.792 311.842 461.753C311.773 461.686 311.713 461.601 311.666 461.507L311.642 461.458C311.614 461.401 311.59 461.342 311.571 461.283L311.39 460.714C311.365 460.637 311.334 460.56 311.297 460.484L311.16 460.202C311.123 460.127 311.082 460.055 311.036 459.987L310.841 459.698C310.797 459.633 310.75 459.572 310.699 459.516L310.406 459.192C310.359 459.14 310.31 459.093 310.26 459.052L310.13 458.945C310.084 458.908 310.037 458.875 309.99 458.848L309.631 458.641C309.57 458.605 309.508 458.579 309.448 458.564L309.207 458.502C309.153 458.489 309.101 458.484 309.052 458.487L308.847 458.502C308.795 458.506 308.747 458.52 308.703 458.543L308.483 458.66C308.453 458.675 308.426 458.695 308.402 458.719L308.297 458.822C308.263 458.854 308.235 458.894 308.212 458.941L308.081 459.208L308.014 459.439C308.004 459.474 307.996 459.512 307.991 459.552L307.979 459.652C307.974 459.69 307.971 459.729 307.971 459.77L307.971 459.959C307.971 459.969 307.972 459.98 307.973 459.991L307.977 460.026C307.989 460.135 307.931 460.197 307.847 460.166C307.838 460.162 307.83 460.158 307.821 460.153L305.595 458.868C305.585 458.862 305.576 458.854 305.567 458.844C305.542 458.815 305.529 458.774 305.534 458.744L305.553 458.644L305.745 458.091L305.965 457.687L306.185 457.382L306.432 457.126L306.735 456.902L306.889 456.804C306.914 456.789 306.941 456.776 306.97 456.767L307.449 456.617L307.899 456.575C307.929 456.572 307.96 456.572 307.992 456.576L308.471 456.632C308.504 456.636 308.539 456.644 308.573 456.654L309.153 456.837L309.401 456.947Z" fill="#3E78B2"/>
<path d="M311.656 464.758L314.075 466.155L314.047 466.371L313.882 466.841L313.663 467.278L313.415 467.601L313.195 467.806L312.948 467.995L312.673 468.169L312.206 468.297L311.821 468.341L311.409 468.335L310.859 468.217L310.474 468.095L310.254 468.001L309.32 467.462L308.852 467.092L308.44 466.721L307.89 466.138L307.396 465.52L307.038 464.982L306.708 464.426L306.489 464.033L306.186 463.394L306.049 462.982L306.049 462.717L306.186 462.464L306.406 462.391L306.489 462.406L307.78 463.152L307.918 463.297L308.028 463.527L308.22 464.17L308.468 464.711L308.715 465.119L309.045 465.542L309.347 465.85L309.65 466.091L310.034 466.313L310.447 466.418L310.886 466.406L311.216 466.231L311.436 465.993L311.601 465.59L311.656 465.256L311.656 464.758Z" fill="#FD9024"/>
<path d="M309.566 459.301L310.061 459.586L310.335 459.845L310.638 460.252L310.858 460.677L311.188 461.665L311.435 462.074L311.682 462.349L312.04 462.589L313.716 463.557L313.909 463.768L314.129 464.127L314.101 464.178L309.126 461.305L308.906 461.046L308.659 460.637L308.549 460.308L308.549 460.042L308.631 459.724L308.769 459.471L308.989 459.299L309.236 459.243L309.566 459.301Z" fill="#FD9024"/>
<path d="M305.553 460.803L310.638 463.772L310.885 464.115L311.05 464.476L311.077 464.558L311.077 464.923L310.967 465.292L310.775 465.546L310.555 465.651L310.28 465.659L309.923 465.552L309.676 465.409L309.346 465.119L309.126 464.859L308.851 464.402L308.686 464.008L308.466 463.283L308.356 463.053L308.109 462.744L307.972 462.599L307.807 462.47L305.828 461.294L305.635 461.05L305.553 460.87L305.553 460.803Z" fill="#3E78B2"/>
<path d="M305.416 459.96L309.154 462.118L309.814 462.831L309.896 462.945L309.896 463.012L305.471 460.424L305.416 460.292L305.416 459.96Z" fill="#3E78B2"/>
<path d="M309.869 462.099L314.184 464.591L314.212 464.673L314.212 465.038L310.721 463.056L310.171 462.473L309.869 462.132L309.869 462.099Z" fill="#FD9024"/>
<path d="M305.471 459.161L308.137 460.701L308.33 461.044L308.494 461.306L308.494 461.339L305.444 459.577L305.416 459.462L305.471 459.161Z" fill="#3E78B2"/>
<path d="M311.215 463.674L314.183 465.421L314.156 465.804L314.128 465.821L311.545 464.329L311.215 463.74L311.215 463.674Z" fill="#FD9024"/>
<path d="M332.223 484.378C332.223 484.29 332.24 484.239 332.276 484.223C332.311 484.208 332.354 484.215 332.403 484.243C332.454 484.273 332.498 484.316 332.533 484.372C332.571 484.429 332.589 484.502 332.589 484.59C332.589 484.676 332.571 484.727 332.533 484.744C332.498 484.761 332.454 484.755 332.403 484.726C332.354 484.697 332.311 484.654 332.276 484.595C332.24 484.536 332.223 484.464 332.223 484.378Z" fill="#3E78B2"/>
<path d="M323.497 477.052L322.935 479.28L322.666 479.124L322.255 477.214C322.243 477.157 322.231 477.099 322.219 477.04C322.207 476.981 322.196 476.924 322.187 476.871C322.177 476.818 322.168 476.772 322.16 476.734C322.154 476.695 322.15 476.667 322.148 476.649C322.146 476.664 322.142 476.688 322.136 476.721C322.132 476.752 322.125 476.788 322.116 476.83C322.106 476.872 322.095 476.917 322.083 476.965C322.073 477.012 322.061 477.059 322.048 477.105L321.648 478.537L321.379 478.381L320.82 475.507L321.098 475.667L321.427 477.415C321.438 477.477 321.449 477.538 321.459 477.598C321.469 477.656 321.478 477.714 321.486 477.771C321.496 477.827 321.503 477.88 321.509 477.931C321.515 477.982 321.521 478.032 321.527 478.081C321.533 478.037 321.539 477.991 321.545 477.945C321.553 477.899 321.562 477.853 321.571 477.806C321.581 477.757 321.592 477.709 321.604 477.661C321.616 477.613 321.628 477.566 321.639 477.52L322.012 476.195L322.287 476.354L322.675 478.129C322.688 478.191 322.701 478.255 322.713 478.319C322.725 478.38 322.736 478.44 322.746 478.498C322.755 478.556 322.763 478.612 322.769 478.666C322.777 478.718 322.784 478.766 322.79 478.81C322.796 478.754 322.804 478.696 322.814 478.638C322.823 478.577 322.835 478.514 322.849 478.451C322.863 478.387 322.878 478.323 322.893 478.258L323.219 476.892L323.497 477.052Z" fill="#3E78B2"/>
<path d="M326.002 479.727C326.002 479.925 325.981 480.093 325.939 480.231C325.898 480.367 325.836 480.469 325.753 480.538C325.672 480.608 325.571 480.639 325.449 480.63C325.328 480.623 325.188 480.573 325.029 480.481C324.863 480.385 324.719 480.271 324.597 480.138C324.475 480.004 324.373 479.856 324.292 479.695C324.211 479.531 324.151 479.357 324.112 479.172C324.072 478.987 324.053 478.796 324.053 478.598C324.053 478.336 324.088 478.128 324.159 477.974C324.23 477.819 324.338 477.729 324.482 477.702C324.627 477.677 324.811 477.728 325.032 477.855C325.243 477.977 325.42 478.134 325.564 478.327C325.708 478.518 325.816 478.733 325.889 478.972C325.964 479.211 326.002 479.463 326.002 479.727ZM324.334 478.764C324.334 478.979 324.358 479.178 324.408 479.361C324.457 479.544 324.533 479.707 324.635 479.85C324.74 479.993 324.871 480.111 325.029 480.202C325.188 480.294 325.318 480.328 325.419 480.302C325.522 480.278 325.597 480.203 325.647 480.076C325.696 479.95 325.721 479.779 325.721 479.565C325.721 479.243 325.665 478.96 325.555 478.715C325.445 478.468 325.27 478.275 325.032 478.138C324.872 478.046 324.74 478.011 324.635 478.034C324.533 478.056 324.457 478.13 324.408 478.256C324.358 478.38 324.334 478.55 324.334 478.764Z" fill="#3E78B2"/>
<path d="M327.385 479.297C327.561 479.398 327.705 479.509 327.817 479.629C327.931 479.747 328.016 479.876 328.071 480.015C328.127 480.154 328.154 480.304 328.154 480.467C328.154 480.602 328.134 480.704 328.092 480.77C328.051 480.837 327.997 480.879 327.932 480.896C327.869 480.912 327.802 480.915 327.731 480.905L328.311 482.383L328 482.204L327.489 480.854L327.069 480.612L327.069 481.666L326.803 481.513L326.803 478.961L327.385 479.297ZM327.371 479.567L327.069 479.393L327.069 480.34L327.385 480.523C327.5 480.589 327.593 480.625 327.666 480.632C327.739 480.636 327.792 480.611 327.826 480.559C327.861 480.508 327.879 480.429 327.879 480.322C327.879 480.21 327.86 480.11 327.823 480.022C327.788 479.934 327.732 479.854 327.657 479.779C327.582 479.705 327.487 479.634 327.371 479.567Z" fill="#3E78B2"/>
<path d="M330.518 483.657L330.205 483.476L329.457 481.825L329.241 481.929L329.241 482.919L328.975 482.766L328.975 480.214L329.241 480.367L329.241 481.625C329.3 481.579 329.36 481.532 329.421 481.486C329.482 481.441 329.543 481.395 329.604 481.349L330.175 480.907L330.486 481.086L329.649 481.714L330.518 483.657Z" fill="#3E78B2"/>
<path d="M335.162 483.786C335.438 483.946 335.64 484.127 335.766 484.331C335.892 484.535 335.955 484.756 335.955 484.994C335.955 485.099 335.94 485.192 335.911 485.273C335.883 485.352 335.837 485.411 335.772 485.45C335.707 485.488 335.62 485.499 335.511 485.482C335.403 485.462 335.27 485.407 335.112 485.316L334.87 485.176L334.87 486.169L334.604 486.016L334.604 483.464L335.162 483.786ZM335.139 484.048L334.87 483.892L334.87 484.9L335.083 485.023C335.217 485.101 335.328 485.148 335.417 485.166C335.506 485.182 335.572 485.164 335.615 485.113C335.658 485.061 335.68 484.974 335.68 484.85C335.68 484.686 335.637 484.538 335.55 484.407C335.463 484.276 335.326 484.156 335.139 484.048Z" fill="#3E78B2"/>
<path d="M337.92 487.93L336.74 487.249L336.74 484.697L337.92 485.378L337.92 485.661L337.006 485.133L337.006 485.93L337.867 486.427L337.867 486.706L337.006 486.209L337.006 487.12L337.92 487.648L337.92 487.93Z" fill="#3E78B2"/>
<path d="M339.356 486.208C339.531 486.309 339.675 486.42 339.788 486.54C339.902 486.658 339.987 486.787 340.042 486.926C340.097 487.065 340.125 487.216 340.125 487.378C340.125 487.513 340.104 487.615 340.063 487.681C340.021 487.748 339.968 487.79 339.903 487.807C339.84 487.823 339.773 487.826 339.702 487.816L340.282 489.295L339.971 489.115L339.459 487.765L339.04 487.523L339.04 488.577L338.773 488.424L338.773 485.872L339.356 486.208ZM339.341 486.478L339.04 486.304L339.04 487.251L339.356 487.434C339.47 487.5 339.564 487.536 339.637 487.543C339.71 487.547 339.763 487.523 339.797 487.47C339.832 487.419 339.85 487.34 339.85 487.233C339.85 487.121 339.831 487.021 339.794 486.933C339.758 486.845 339.703 486.765 339.628 486.69C339.553 486.616 339.457 486.545 339.341 486.478Z" fill="#3E78B2"/>
<path d="M341.21 489.83L340.943 489.677L340.943 487.125L342.123 487.806L342.123 488.088L341.21 487.561L341.21 488.465L342.067 488.96L342.067 489.243L341.21 488.747L341.21 489.83Z" fill="#3E78B2"/>
<path d="M344.09 491.494L342.91 490.812L342.91 488.26L344.09 488.942L344.09 489.224L343.176 488.697L343.176 489.494L344.037 489.99L344.037 490.269L343.176 489.772L343.176 490.684L344.09 491.211L344.09 491.494Z" fill="#3E78B2"/>
<path d="M345.851 490.158C345.739 490.093 345.637 490.058 345.547 490.054C345.456 490.047 345.379 490.07 345.316 490.124C345.253 490.176 345.205 490.257 345.171 490.366C345.138 490.473 345.121 490.606 345.121 490.766C345.121 490.975 345.147 491.173 345.201 491.359C345.256 491.545 345.337 491.711 345.443 491.856C345.552 492.002 345.687 492.122 345.848 492.215C345.941 492.269 346.029 492.31 346.111 492.338C346.194 492.367 346.275 492.39 346.354 492.407L346.354 492.686C346.275 492.676 346.193 492.655 346.108 492.623C346.026 492.591 345.926 492.542 345.81 492.475C345.595 492.351 345.416 492.194 345.272 492.004C345.128 491.813 345.019 491.598 344.946 491.358C344.875 491.12 344.84 490.867 344.84 490.6C344.84 490.407 344.862 490.243 344.905 490.108C344.95 489.975 345.015 489.874 345.1 489.806C345.187 489.74 345.293 489.712 345.419 489.723C345.546 489.731 345.691 489.783 345.854 489.877C345.963 489.94 346.067 490.013 346.168 490.098C346.268 490.182 346.358 490.271 346.437 490.364L346.33 490.574C346.265 490.501 346.192 490.426 346.111 490.351C346.032 490.277 345.946 490.213 345.851 490.158Z" fill="#3E78B2"/>
<path d="M348.021 493.763L347.755 493.609L347.755 491.34L347.096 490.959L347.096 490.677L348.678 491.59L348.678 491.872L348.021 491.493L348.021 493.763Z" fill="#3E78B2"/>
<path d="M350.569 495.233L349.389 494.552L349.389 492L350.569 492.681L350.569 492.963L349.655 492.436L349.655 493.233L350.516 493.73L350.516 494.008L349.655 493.512L349.655 494.423L350.569 494.951L350.569 495.233Z" fill="#3E78B2"/>
<path d="M353.08 495.383C353.08 495.668 353.036 495.882 352.947 496.024C352.86 496.167 352.735 496.24 352.571 496.243C352.408 496.247 352.21 496.181 351.977 496.047L351.389 495.707L351.389 493.155L352.039 493.531C352.252 493.653 352.437 493.808 352.592 493.993C352.748 494.178 352.868 494.388 352.953 494.623C353.038 494.855 353.08 495.109 353.08 495.383ZM352.799 495.231C352.799 495.005 352.768 494.801 352.705 494.619C352.643 494.438 352.553 494.279 352.432 494.14C352.314 494 352.17 493.882 352.001 493.784L351.655 493.584L351.655 495.585L351.942 495.751C352.228 495.916 352.442 495.955 352.583 495.868C352.727 495.779 352.799 495.567 352.799 495.231Z" fill="#3E78B2"/>
<path d="M320.107 466.423C320.084 466.06 319.976 465.725 319.782 465.418C319.591 465.112 319.301 464.847 318.911 464.621C318.662 464.478 318.458 464.397 318.299 464.378C318.143 464.358 318.028 464.387 317.953 464.466C317.877 464.545 317.838 464.662 317.836 464.818C317.83 464.944 317.849 465.072 317.892 465.201C317.938 465.329 318.01 465.464 318.109 465.604C318.207 465.741 318.333 465.887 318.486 466.042C318.639 466.197 318.821 466.361 319.032 466.536L319.76 467.145C320.252 467.554 320.672 467.963 321.022 468.371C321.372 468.779 321.658 469.187 321.88 469.595C322.103 469.999 322.266 470.404 322.37 470.81C322.477 471.218 322.532 471.627 322.535 472.037C322.532 472.741 322.386 473.254 322.097 473.576C321.808 473.898 321.395 474.032 320.857 473.976C320.322 473.922 319.679 473.679 318.928 473.245C318.156 472.799 317.483 472.273 316.908 471.665C316.336 471.058 315.891 470.377 315.573 469.62C315.258 468.862 315.099 468.034 315.096 467.134L317.385 468.456C317.399 468.792 317.467 469.108 317.588 469.401C317.71 469.695 317.88 469.963 318.1 470.205C318.323 470.448 318.587 470.659 318.893 470.836C319.151 470.984 319.366 471.07 319.539 471.093C319.713 471.117 319.844 471.086 319.934 471.001C320.023 470.917 320.07 470.788 320.072 470.615C320.07 470.449 320.025 470.28 319.938 470.108C319.854 469.934 319.716 469.742 319.522 469.532C319.328 469.319 319.067 469.074 318.737 468.796L317.853 468.055C317.067 467.395 316.447 466.693 315.993 465.949C315.542 465.204 315.318 464.412 315.321 463.576C315.318 462.893 315.469 462.384 315.772 462.049C316.078 461.713 316.502 461.557 317.042 461.583C317.586 461.61 318.208 461.827 318.911 462.232C319.627 462.646 320.247 463.149 320.77 463.741C321.294 464.333 321.697 464.974 321.98 465.665C322.266 466.354 322.411 467.051 322.413 467.754L320.107 466.423Z" fill="#3E78B2"/>
<path d="M324.973 465.985C325.123 466.071 325.245 466.288 325.245 466.469L325.245 476.544C325.245 476.725 325.123 476.802 324.973 476.715L323.123 475.647C322.973 475.56 322.852 475.343 322.852 475.162L322.852 465.088C322.852 464.907 322.973 464.83 323.123 464.916L324.973 465.985Z" fill="#3E78B2"/>
<path d="M351.426 481.258C351.576 481.345 351.698 481.561 351.698 481.742L351.698 491.817C351.698 491.998 351.576 492.075 351.426 491.988L349.576 490.92C349.426 490.833 349.305 490.616 349.305 490.435L349.305 480.361C349.305 480.18 349.426 480.103 349.576 480.19L351.426 481.258Z" fill="#FD9024"/>
<path d="M326.209 477.428C326.059 477.342 325.937 477.125 325.937 476.944L325.937 469.552C325.937 469.371 326.059 469.294 326.209 469.381L328.059 470.449C328.209 470.536 328.331 470.752 328.331 470.934L328.331 478.326C328.331 478.507 328.209 478.583 328.059 478.497L326.209 477.428ZM327.134 469.077C326.81 468.89 326.533 468.6 326.302 468.208C326.07 467.816 325.955 467.439 325.955 467.075C325.955 466.712 326.07 466.468 326.302 466.343C326.533 466.218 326.81 466.249 327.134 466.436C327.461 466.624 327.738 466.914 327.966 467.304C328.198 467.696 328.313 468.074 328.313 468.437C328.313 468.8 328.198 469.044 327.966 469.169C327.738 469.296 327.461 469.265 327.134 469.077Z" fill="#3E78B2"/>
<path d="M332.164 480.887C331.441 480.47 330.823 479.94 330.308 479.297C329.794 478.651 329.399 477.937 329.125 477.157C328.85 476.373 328.713 475.569 328.713 474.745C328.713 473.921 328.85 473.277 329.125 472.814C329.399 472.347 329.794 472.089 330.308 472.04C330.823 471.988 331.441 472.171 332.164 472.588C332.817 472.965 333.382 473.434 333.859 473.996C334.338 474.556 334.71 475.172 334.973 475.844C335.236 476.513 335.334 476.735 335.372 477.474L333.152 476.616C333.12 476.175 333.019 475.796 332.849 475.477C332.681 475.157 332.464 474.92 332.198 474.766C331.99 474.646 331.808 474.614 331.652 474.671C331.496 474.724 331.375 474.872 331.288 475.116C331.201 475.356 331.158 475.696 331.158 476.136C331.158 476.576 331.201 476.968 331.288 477.311C331.375 477.651 331.496 477.939 331.652 478.176C331.808 478.41 331.99 478.586 332.198 478.706C332.375 478.808 332.531 478.849 332.667 478.83C332.802 478.807 332.912 478.724 332.996 478.58C333.083 478.435 333.135 478.227 333.152 477.958L335.372 479.583C335.317 480.228 335.229 480.484 334.969 480.861C334.708 481.235 334.34 481.427 333.863 481.438C333.389 481.451 332.823 481.267 332.164 480.887Z" fill="#3E78B2"/>
<path d="M339.029 484.851C338.318 484.441 337.705 483.923 337.191 483.298C336.679 482.67 336.285 481.968 336.008 481.189C335.733 480.409 335.596 479.586 335.596 478.719C335.596 477.888 335.734 477.242 336.012 476.78C336.289 476.319 336.681 476.061 337.187 476.007C337.692 475.953 338.289 476.125 338.977 476.522C339.48 476.812 339.935 477.17 340.343 477.593C340.75 478.017 341.098 478.493 341.387 479.019C341.677 479.542 341.899 480.104 342.055 480.704C342.211 481.304 342.289 481.924 342.289 482.563L342.289 483.234L336.341 479.8L336.341 478.207L340.087 480.369C340.084 480.137 340.035 479.906 339.94 479.677C339.847 479.445 339.721 479.234 339.562 479.045C339.406 478.853 339.229 478.7 339.029 478.585C338.836 478.473 338.658 478.421 338.496 478.429C338.334 478.433 338.204 478.495 338.106 478.613C338.011 478.732 337.96 478.907 337.954 479.138L337.954 480.856C337.954 481.115 337.999 481.371 338.089 481.626C338.178 481.88 338.307 482.113 338.474 482.325C338.642 482.537 338.844 482.712 339.081 482.848C339.246 482.944 339.396 483.002 339.532 483.025C339.671 483.049 339.789 483.037 339.887 482.989C339.986 482.938 340.058 482.85 340.104 482.727L342.289 484.376C342.132 484.819 342.036 484.886 341.756 485.137C341.476 485.384 341.104 485.487 340.642 485.447C340.182 485.405 339.645 485.207 339.029 484.851Z" fill="#3E78B2"/>
<path d="M355.494 494.36C354.771 493.943 354.153 493.413 353.638 492.77C353.124 492.124 352.729 491.411 352.455 490.63C352.18 489.847 352.043 489.042 352.043 488.218C352.043 487.394 352.18 486.75 352.455 486.287C352.729 485.82 353.124 485.562 353.638 485.514C354.153 485.461 354.771 485.644 355.494 486.061C356.216 486.478 356.835 487.01 357.349 487.656C357.864 488.299 358.258 489.012 358.533 489.796C358.807 490.576 358.944 491.378 358.944 492.203C358.944 493.027 358.807 493.673 358.533 494.139C358.258 494.603 357.864 494.86 357.349 494.913C356.835 494.961 356.216 494.777 355.494 494.36ZM355.511 492.232C355.713 492.349 355.888 492.368 356.036 492.289C356.183 492.21 356.297 492.042 356.378 491.785C356.459 491.528 356.5 491.189 356.5 490.77C356.5 490.348 356.459 489.963 356.378 489.616C356.297 489.265 356.183 488.965 356.036 488.716C355.888 488.466 355.713 488.283 355.511 488.167C355.297 488.043 355.114 488.019 354.961 488.095C354.807 488.171 354.69 488.337 354.609 488.594C354.528 488.848 354.488 489.186 354.488 489.609C354.488 490.028 354.528 490.413 354.609 490.763C354.69 491.114 354.807 491.416 354.961 491.668C355.114 491.921 355.297 492.109 355.511 492.232Z" fill="#FD9024"/>
</g>
<path fill-rule="evenodd" clip-rule="evenodd" d="M180.272 333.365C180 333.9 180 334.6 180 336V342C180 343.4 180 344.1 180.272 344.635C180.512 345.105 180.895 345.488 181.365 345.727C181.9 346 182.6 346 184 346H196C197.4 346 198.1 346 198.635 345.727C199.105 345.487 199.487 345.105 199.727 344.635C200 344.1 200 343.4 200 342V336C200 334.6 200 333.9 199.727 333.365C199.488 332.895 199.105 332.512 198.635 332.272C198.1 332 197.4 332 196 332H184C182.6 332 181.9 332 181.365 332.272C180.894 332.512 180.512 332.894 180.272 333.365ZM182.647 334H197.353C197.46 334 197.565 334.034 197.651 334.098C197.737 334.162 197.801 334.252 197.832 334.355C197.863 334.458 197.861 334.568 197.824 334.669C197.788 334.77 197.72 334.856 197.631 334.916L190.556 339.648C190.391 339.758 190.198 339.817 190 339.817C189.802 339.817 189.609 339.758 189.444 339.648L182.369 334.916C182.28 334.856 182.212 334.77 182.176 334.669C182.139 334.568 182.137 334.458 182.168 334.355C182.199 334.252 182.263 334.162 182.349 334.098C182.435 334.034 182.54 334 182.647 334Z" fill="#FAFAEF"/>
<path d="M549 473V353" stroke="#FAFAEF" stroke-width="2" stroke-linecap="round"/>
<path d="M597 617H97" stroke="url(#paint1_linear_4181_90239)" stroke-width="2" stroke-linecap="round"/>
<path d="M594.5 392C594.5 392.276 594.724 392.5 595 392.5C595.276 392.5 595.5 392.276 595.5 392H594.5ZM595 214.667C596.473 214.667 597.667 213.473 597.667 212C597.667 210.527 596.473 209.333 595 209.333C593.527 209.333 592.333 210.527 592.333 212C592.333 213.473 593.527 214.667 595 214.667ZM595.5 392V212H594.5V392H595.5Z" fill="#FAFAEF"/>
<path d="M593 377V227" stroke="#FAFAEF" stroke-linecap="round"/>
<path d="M591 382V232" stroke="#FAFAEF" stroke-linecap="round"/>
<path d="M597 373V223" stroke="#FAFAEF" stroke-linecap="round"/>
<path d="M75.5 593C75.5 593.276 75.7239 593.5 76 593.5C76.2761 593.5 76.5 593.276 76.5 593H75.5ZM76 415.667C77.4728 415.667 78.6667 414.473 78.6667 413C78.6667 411.527 77.4728 410.333 76 410.333C74.5272 410.333 73.3333 411.527 73.3333 413C73.3333 414.473 74.5272 415.667 76 415.667ZM76.5 593L76.5 413H75.5L75.5 593H76.5Z" fill="#FAFAEF"/>
<path d="M74 578L74 428" stroke="#FAFAEF" stroke-linecap="round"/>
<path d="M72 583L72 433" stroke="#FAFAEF" stroke-linecap="round"/>
<path d="M78 574L78 424" stroke="#FAFAEF" stroke-linecap="round"/>
<defs>
<linearGradient id="paint0_linear_4181_90239" x1="662" y1="686.364" x2="-123.033" y2="40.4394" gradientUnits="userSpaceOnUse">
<stop stop-color="#81C5E5"/>
<stop offset="0.28" stop-color="#7AA7D5"/>
<stop offset="0.55" stop-color="#5F9FE1"/>
<stop offset="0.725" stop-color="#81C5E5"/>
</linearGradient>
<linearGradient id="paint1_linear_4181_90239" x1="97" y1="616.5" x2="597" y2="616.5" gradientUnits="userSpaceOnUse">
<stop stop-color="#94948D" stop-opacity="0.2"/>
<stop offset="0.49892" stop-color="#F4F4E9"/>
<stop offset="1" stop-color="#94948D" stop-opacity="0.2"/>
</linearGradient>
<clipPath id="clip0_4181_90239">
<rect x="243" y="218" width="120" height="120" rx="8" fill="white"/>
</clipPath>
<clipPath id="clip1_4181_90239">
<rect width="100" height="100" fill="white" transform="translate(253 252)"/>
</clipPath>
<clipPath id="clip2_4181_90239">
<rect width="40" height="40" fill="white" transform="translate(128 449)"/>
</clipPath>
<clipPath id="clip3_4181_90239">
<rect width="65" height="20" fill="white" transform="matrix(0.866025 0.5 -2.20305e-08 1 304 451)"/>
</clipPath>
</defs>
</svg>
