<svg width="662" height="800" viewBox="0 0 662 800" fill="none" xmlns="http://www.w3.org/2000/svg">
<rect width="662" height="800" fill="#FFD3D9"/>
<mask id="mask0_4230_57664" style="mask-type:alpha" maskUnits="userSpaceOnUse" x="620" y="9" width="24" height="24">
<rect x="620" y="9" width="24" height="24" fill="#D9D9D9"/>
</mask>
<g mask="url(#mask0_4230_57664)">
<path d="M632.001 22.4L627.101 27.3C626.917 27.4834 626.684 27.575 626.401 27.575C626.117 27.575 625.884 27.4834 625.701 27.3C625.517 27.1167 625.426 26.8834 625.426 26.6C625.426 26.3167 625.517 26.0834 625.701 25.9L630.601 21L625.701 16.1C625.517 15.9167 625.426 15.6834 625.426 15.4C625.426 15.1167 625.517 14.8834 625.701 14.7C625.884 14.5167 626.117 14.425 626.401 14.425C626.684 14.425 626.917 14.5167 627.101 14.7L632.001 19.6L636.901 14.7C637.084 14.5167 637.317 14.425 637.601 14.425C637.884 14.425 638.117 14.5167 638.301 14.7C638.484 14.8834 638.576 15.1167 638.576 15.4C638.576 15.6834 638.484 15.9167 638.301 16.1L633.401 21L638.301 25.9C638.484 26.0834 638.576 26.3167 638.576 26.6C638.576 26.8834 638.484 27.1167 638.301 27.3C638.117 27.4834 637.884 27.575 637.601 27.575C637.317 27.575 637.084 27.4834 636.901 27.3L632.001 22.4Z" fill="#E71D36"/>
</g>
<path d="M458.934 450.167L469.267 458.167C470.6 459.5 473.6 460.167 475.6 460.167H488.267C492.267 460.167 496.6 457.167 497.6 453.167L505.6 428.833C507.267 424.167 504.267 420.166 499.267 420.166H485.934C483.934 420.166 482.267 418.5 482.6 416.166L484.267 405.5C484.934 402.5 482.934 399.166 479.934 398.166C477.267 397.166 473.934 398.5 472.6 400.5L458.934 420.833" stroke="#E71D36" stroke-width="3" stroke-miterlimit="10"/>
<path d="M441.934 450.167V417.5C441.934 412.833 443.934 411.167 448.6 411.167H451.934C456.6 411.167 458.6 412.833 458.6 417.5V450.167C458.6 454.833 456.6 456.5 451.934 456.5H448.6C443.934 456.5 441.934 454.833 441.934 450.167Z" stroke="#E71D36" stroke-width="3" stroke-linecap="round" stroke-linejoin="round"/>
<path d="M266.123 475.56C265.64 475.247 257.563 467.981 255.557 465.392C253.595 462.804 249.812 462.122 247.836 461.084C245.845 460.046 232.706 455.723 229.549 457.969C226.434 460.202 222.14 461.581 220.476 457.969C218.841 454.329 218.016 453.817 215.712 453.305C213.409 452.793 214.56 450.035 214.404 447.617C214.219 445.185 212.911 442.612 211.261 444.346C209.612 446.081 204.009 450.561 203.199 448.285C202.374 446.067 198.406 436.739 204.35 435.004C210.266 433.283 215.215 434.307 216.708 435.857C218.187 437.407 219.324 441.73 221.159 441.204C222.979 440.678 221.983 437.393 222.638 434.648C223.292 431.918 227.6 428.278 229.549 424.481C231.525 420.67 231.852 418.437 234.312 417.385C236.815 416.361 238.123 414.982 240.427 413.247C242.745 411.512 246.343 409.99 247.694 409.094C249.016 408.213 254.932 405.298 256.894 405.824C258.871 406.35 260.179 405.639 258.544 402.71C256.894 399.78 254.761 390.978 251.633 387.01C248.504 383.043 248.163 381.976 246.684 378.208C245.205 374.397 243.541 371.126 242.39 373.714C241.238 376.317 238.778 379.772 237.455 376.473C236.147 373.203 236.303 373.359 234.654 371.809C233.018 370.273 231.682 369.903 229.392 369.221C227.089 368.524 224.785 369.392 224.941 371.638C225.098 373.899 222.78 377.881 224.287 380.81C225.766 383.754 227.089 386.868 225.098 387.892C223.135 388.916 225.098 395.159 223.135 394.96C221.159 394.803 220.177 395.159 220.177 392.883C220.177 390.651 221.159 387.195 217.518 387.195C213.906 387.195 211.759 385.304 209.128 383.398C206.483 381.507 204.35 382.517 205.004 378.222C205.659 373.899 204.692 372.349 207.635 369.932C210.607 367.529 211.276 366.135 213.409 367.173C215.556 368.211 217.021 368.211 218.372 367.003C219.68 365.794 222.14 366.306 222.14 364.756C222.14 363.22 219.338 363.22 219.68 360.632C219.993 358.015 221.329 359.409 221.813 355.086C222.296 350.777 218.684 344.222 215.058 345.075C211.418 345.957 205.843 350.948 204.692 348.701C203.526 346.454 201.222 347.492 196.771 349.042C192.32 350.592 173.876 347.492 172.568 345.928C172.568 345.928 169.425 343.696 167.776 344.904C166.141 346.113 159.542 345.587 157.566 345.246C155.575 344.904 153.769 347.478 151.323 346.639C148.82 345.757 140.103 344.037 138.141 342.657C136.136 341.278 133.164 341.278 131.884 340.595C130.561 339.884 125.769 339.557 124.802 340.923C123.821 342.302 120.195 344.734 118.375 346.44C116.569 348.175 114.45 347.848 116.242 351.474C118.048 355.086 111.634 357.347 113.27 361.3C114.905 365.239 112.943 375.947 119.527 378.037C126.125 380.114 131.557 381.308 135.339 378.222C139.15 375.108 144.91 375.108 146.716 378.564C148.522 382.005 149.517 387.181 155.433 390.11C161.348 393.068 166.468 401.529 166.141 405.326C165.828 409.123 166.325 421.708 172.383 428.974C178.498 436.227 184.755 449.352 185.224 446.238C185.722 443.124 185.722 440.009 187.059 442.256C188.353 444.517 191.822 451.428 197.425 452.623C203.042 453.831 205.843 454.158 207.962 456.263C210.095 458.325 211.93 459.52 214.219 460.572C216.523 461.61 222.126 464.724 223.278 466.8C224.444 468.876 223.946 471.635 222.78 474.749C221.642 477.864 220.32 480.964 221.955 483.907C223.619 486.837 227.074 495.312 229.89 497.203C232.691 499.109 235.464 502.209 234.81 506.532C234.156 510.812 231.028 529.284 231.355 533.436C231.696 537.56 227.586 551.197 230.871 556.729C234.156 562.261 239.787 563.996 242.247 563.27C244.707 562.602 242.745 562.417 241.579 559.829C240.427 557.227 240.584 553.956 241.906 551.553C243.243 549.121 243.243 547.742 242.574 544.983C241.906 542.239 242.247 540.66 243.883 538.613C245.546 536.536 252.457 531.019 254.605 528.602C256.724 526.184 270.261 509.603 272.067 508.21C273.873 506.83 277.983 503.56 279.32 498.398C280.642 493.221 285.406 483.04 282.121 480.423C278.808 477.821 266.621 475.915 266.123 475.56Z" fill="#E71D36" fill-opacity="0.2"/>
<path d="M299.056 329.888C299.995 328.068 302.27 323.475 303.493 320.958H251.305C251.93 323.73 254.191 334.012 253.765 338.178C253.267 343.027 254.76 341.307 256.068 343.212C257.391 345.104 257.064 348.047 256.239 350.28C255.4 352.526 254.917 357.532 257.576 363.405C260.192 369.278 263.321 376.687 265.952 377.042C268.611 377.383 267.942 381.18 269.763 379.801C271.569 378.393 271.881 375.322 273.389 370.828C274.868 366.349 274.868 363.049 278.664 360.817C282.461 358.57 292.984 351.332 295.288 348.715C297.606 346.127 300.237 345.089 299.412 340.624C298.559 336.116 297.748 332.49 299.056 329.888Z" fill="#E71D36" fill-opacity="0.2"/>
<path d="M556.004 350.265C554.027 348.886 542.181 339.401 537.062 340.61C531.986 341.818 522.899 337.837 521.42 336.969C519.941 336.102 507.768 332.376 501.341 332.134C498.141 332.021 484.703 329.034 479.086 326.631C473.483 324.214 468.72 312.311 458.026 314.203C456.647 314.459 443.706 316.279 440.407 319.222C437.136 322.166 435.629 325.593 433.823 326.29C432.017 326.987 426.741 326.631 426.741 329.234C426.741 331.822 428.562 339.771 426.429 338.207C424.281 336.657 422.134 333.03 421.167 335.789C420.186 338.562 418.494 340.112 417.527 339.06C416.56 338.036 411.568 339.06 410.928 340.795C410.274 342.529 403.847 346.468 401.074 347.023C398.272 347.535 397.106 348.929 395.627 349.625C394.149 350.308 382.929 355.498 380.81 353.579C378.663 351.687 378.009 352.896 376.686 353.252C376.686 353.252 372.733 352.555 370.273 349.441C367.784 346.341 367.301 347.364 364.499 344.435C361.712 341.506 361.044 338.576 358.242 339.785C355.469 340.979 343.61 353.237 338.988 358.755C334.395 364.301 326.147 369.975 330.257 373.942C334.395 377.909 336.514 377.398 337.026 379.616C337.538 381.848 338.021 384.28 338.675 385.162C339.329 386.029 343.283 389.115 345.259 384.977C347.264 380.825 347.563 377.909 349.881 378.606C352.185 379.289 352.668 380.853 351.502 383.953C350.35 387.067 349.54 391.888 345.586 391.717C341.633 391.547 337.367 389.115 336.016 389.641C334.708 390.153 333.912 391.362 332.404 392.571C330.925 393.779 326.304 399.467 323.175 400.335C320.061 401.216 316.278 400.505 318.411 403.079C320.545 405.653 323.673 411.37 320.715 411.199C317.757 411.014 312.809 410.517 312.482 413.446C312.155 416.361 310.846 418.096 311.5 420.172C312.155 422.248 314.302 426.216 316.918 424.836C319.592 423.429 324.683 422.078 325.991 418.963C327.313 415.849 328.806 412.422 332.091 412.578C335.376 412.749 343.297 417.072 342.799 418.622C342.302 420.172 340.666 423.798 342.643 422.59C344.605 421.381 346.255 420.001 347.407 419.49C348.558 418.963 350.066 421.224 350.535 422.078C351.033 422.959 354.332 424.666 354.986 421.893C355.654 419.134 356.308 421.224 358.257 422.078C360.262 422.959 366.177 423.628 366.974 424.324C367.827 425.007 369.633 427.083 367.315 429.842C365.011 432.601 362.352 433.667 358.584 431.577C354.787 429.501 350.663 433.312 346.411 431.235C342.117 429.159 344.093 426.23 338.988 424.168C333.912 422.092 322.365 424.666 318.724 425.704C315.098 426.728 314.942 427.097 313.463 428.804C311.984 430.539 302.271 441.744 302.271 448.129C302.271 454.514 305.883 471.792 317.572 470.057C329.276 468.322 336.357 469.36 335.049 472.801C333.712 476.271 334.395 477.124 336.528 481.092C338.661 485.045 343.624 511.466 344.435 515.761C345.274 520.098 343.795 525.601 349.227 524.734C354.673 523.88 360.432 522.515 362.722 517.496C365.04 512.49 365.381 506.802 368.339 503.873C371.311 500.929 374.937 500.929 375.25 496.791C375.563 492.638 374.425 482.827 376.402 480.551C378.378 478.319 387.593 467.952 388.574 463.814C389.57 459.676 390.878 458.638 387.095 458.638C383.313 458.638 376.885 458.126 375.051 454.67C373.259 451.215 368.964 444.659 368.964 443.124C368.964 441.574 371.609 441.73 372.904 445.015C374.226 448.271 378.819 458.14 384.095 456.036C389.371 453.959 396.794 451.57 396.95 448.271C397.106 445.015 394.646 441.204 391.987 441.403C389.342 441.574 386.555 439.668 386.555 437.777C386.555 435.871 387.038 436.582 390.167 437.777C393.324 438.985 394.291 441.033 399.069 441.403C403.847 441.73 409.293 446.394 411.91 448.485C414.555 450.561 419.148 464.71 420.314 466.075C421.451 467.483 422.802 467.483 423.94 464.696C425.106 461.923 430.04 453.149 432.842 450.703C435.643 448.286 435.8 445.029 437.435 447.091C439.085 449.167 446.166 454.343 446.664 457.458C447.162 460.558 446.337 467.284 447.816 465.222C449.295 463.146 450.461 458.837 451.741 460.742C453.077 462.662 453.077 465.592 456.192 463.345C459.334 461.112 464.766 460.231 461.809 455.396C458.851 450.561 460.827 447.631 462.662 447.461C464.468 447.276 476.825 445.043 477.152 438.289C477.479 431.562 472.858 427.936 475.048 424.481C477.152 421.025 480.281 417.925 480.963 420.001C481.617 422.078 479.314 428.79 482.271 427.766C485.244 426.728 488.699 426.728 488.699 424.637C488.699 422.561 488.031 417.371 489.367 416.02C490.69 414.64 500.374 405.497 501.54 401.871C502.692 398.244 504.839 395.144 503.019 392.386C501.199 389.627 498.084 390.48 500.545 387.039C503.019 383.583 507.143 380.398 510.271 380.128C520.268 379.26 517.452 391.632 517.609 394.377C517.808 397.135 517.808 404.061 519.273 400.605C520.752 397.149 522.472 392.912 525.444 389.982C528.416 387.053 530.037 385.148 530.236 382.56C530.407 379.971 530.535 379.118 533.365 377.725C536.166 376.345 548.509 371.51 549.661 368.24C550.799 364.983 548.182 362.011 551.14 362.21C554.098 362.367 556.899 365.652 558.393 363.931C559.886 362.21 563.171 359.11 563 357.375C562.801 355.626 558.009 351.645 556.004 350.265Z" fill="#E71D36" fill-opacity="0.2"/>
<path d="M502.832 408.256C501.837 410.517 501.354 410.858 499.875 415.522C498.367 420.172 498.865 418.964 497.372 421.893C495.893 424.837 493.447 425.149 490.959 427.083C488.47 428.989 487.816 432.757 487.816 432.757C485.683 435.687 496.547 428.605 500.33 426.372C504.127 424.14 503.145 421.537 503.472 417.911C503.799 414.285 504.823 413.759 506.43 412.209C508.066 410.673 506.757 407.559 505.975 405.326C505.108 403.065 503.799 406.023 502.832 408.256Z" fill="#E71D36" fill-opacity="0.2"/>
<path d="M469.06 486.609C470.197 485.742 469.373 483.85 471.179 484.192C472.999 484.519 474.634 485.585 476.81 484.376C478.929 483.154 480.749 483.665 480.422 481.618C480.109 479.542 480.422 476.783 479.938 475.076C479.441 473.342 476.483 472.815 474.321 474.735C472.203 476.641 469.245 479.57 469.245 478.518C469.245 477.508 470.539 474.735 469.885 473C469.245 471.28 470.197 469.73 466.927 471.109C463.628 472.488 461.822 472.147 460.67 474.053C459.518 475.958 458.196 479.229 456.233 477.153C454.242 475.091 448.483 470.782 448.483 470.782C448.014 470.256 441.43 464.895 443.734 468.535C446.023 472.175 449.479 478.376 451.142 480.622C452.763 482.869 454.584 485.457 456.56 484.248C458.551 483.04 458.878 482.698 461.523 484.248C464.097 485.756 467.908 487.476 469.06 486.609Z" fill="#E71D36" fill-opacity="0.2"/>
<path d="M509.432 481.788C506.275 480.409 507.597 479.186 503.8 478.518C500.004 477.849 496.889 478.518 495.88 477.835C494.884 477.138 489.964 475.418 490.618 477.835C491.287 480.267 495.723 480.935 496.861 481.632C498.013 482.329 495.226 483.879 497.344 485.073C499.477 486.268 500.971 488.529 503.772 487.832C506.573 487.135 507.569 488.699 509.844 489.041C512.162 489.382 514.466 488.699 513.513 487.647C512.517 486.623 511.878 485.23 512.034 484.035C512.19 482.826 512.532 483.153 509.432 481.788Z" fill="#E71D36" fill-opacity="0.2"/>
<path d="M507.767 497.146C506.615 493.691 503.814 487.32 503.174 490.406C502.505 493.52 498.055 495.739 496.391 495.568C494.883 495.411 495.737 493.847 495.737 492.454C495.737 491.074 494.869 489.695 491.115 490.733C487.304 491.771 486.522 495.397 485.498 495.056C484.531 494.729 481.872 494.018 480.237 495.938C478.601 497.843 477.094 501.455 475.146 502.152C473.141 502.849 466.557 503.702 466.557 506.489C466.557 509.234 468.22 513.372 468.05 515.633C467.879 517.894 464.864 523.041 468.875 524.606C471.178 525.516 472.814 525.644 475.487 524.279C478.118 522.885 489.465 519.259 490.959 520.453C492.438 521.662 494.841 524.506 495.907 525.118C497.998 526.355 498.566 529.256 501.368 529.938C504.127 530.635 506.302 530.976 507.44 530.976C508.606 530.976 512.701 529.597 513.697 527.165C514.678 524.734 516.498 519.06 517.323 516.287C518.176 513.528 518.958 510.428 516.498 507.996C514.024 505.607 508.919 500.602 507.767 497.146Z" fill="#E71D36" fill-opacity="0.2"/>
<circle cx="411" cy="560" r="49.5" stroke="#E71D36"/>
<circle cx="410.999" cy="560" r="44.1944" stroke="#E71D36" stroke-width="0.5"/>
<g clip-path="url(#clip0_4230_57664)">
<path d="M411 530C394.43 530 381 543.43 381 560C381 576.57 394.43 590 411 590C427.57 590 441 576.57 441 560C441 543.43 427.57 530 411 530ZM402.609 572.551H396.762V553.836H402.609V572.551ZM399.527 551.492H399.48C397.359 551.492 395.988 550.063 395.988 548.246C395.988 546.395 397.406 545 399.562 545C401.719 545 403.043 546.395 403.09 548.246C403.102 550.051 401.73 551.492 399.527 551.492ZM426 572.551H419.367V562.871C419.367 560.34 418.336 558.605 416.051 558.605C414.305 558.605 413.332 559.777 412.887 560.902C412.723 561.301 412.746 561.863 412.746 562.438V572.551H406.172C406.172 572.551 406.254 555.395 406.172 553.836H412.746V556.777C413.133 555.488 415.23 553.66 418.582 553.66C422.742 553.66 426 556.355 426 562.145V572.551Z" fill="#0288D1"/>
</g>
<circle cx="148" cy="380" r="48.75" stroke="#E71D36" stroke-width="2.5"/>
<circle cx="147.999" cy="380" r="43.1944" stroke="#E71D36" stroke-width="2.5"/>
<circle cx="492" cy="271" r="48.75" stroke="#E71D36" stroke-width="2.5"/>
<circle cx="491.999" cy="271" r="43.1944" stroke="#E71D36" stroke-width="2.5"/>
<path d="M406.333 272.333V297.333C406.333 330.667 389.666 347.333 356.333 347.333H352.166C349.583 347.333 347.083 348.583 345.499 350.667L332.999 367.333C327.499 374.667 318.499 374.667 312.999 367.333L300.499 350.667C299.166 348.833 296.083 347.333 293.833 347.333H289.666C256.333 347.333 239.666 339 239.666 297.333V255.667C239.666 222.333 256.333 205.667 289.666 205.667H339.666" stroke="#E71D36" stroke-width="5" stroke-miterlimit="10" stroke-linecap="round" stroke-linejoin="round"/>
<path d="M385.499 247.333C397.005 247.333 406.333 238.006 406.333 226.5C406.333 214.994 397.005 205.667 385.499 205.667C373.994 205.667 364.666 214.994 364.666 226.5C364.666 238.006 373.994 247.333 385.499 247.333Z" stroke="#E71D36" stroke-width="5" stroke-linecap="round" stroke-linejoin="round"/>
<path d="M356.303 280.667H356.377" stroke="#E71D36" stroke-width="20" stroke-linecap="round" stroke-linejoin="round"/>
<path d="M322.961 280.667H323.036" stroke="#E71D36" stroke-width="20" stroke-linecap="round" stroke-linejoin="round"/>
<path d="M289.621 280.667H289.696" stroke="#E71D36" stroke-width="20" stroke-linecap="round" stroke-linejoin="round"/>
<path d="M364.5 575.167C368.182 575.167 371.167 572.182 371.167 568.5C371.167 564.818 368.182 561.833 364.5 561.833C360.818 561.833 357.833 564.818 357.833 568.5C357.833 572.182 360.818 575.167 364.5 575.167ZM323 381.667C326.682 381.667 329.667 378.682 329.667 375C329.667 371.318 326.682 368.333 323 368.333C319.318 368.333 316.333 371.318 316.333 375C316.333 378.682 319.318 381.667 323 381.667ZM323 568.5H321.75C321.75 569.19 322.31 569.75 323 569.75V568.5ZM364.5 567.25H361.906V569.75H364.5V567.25ZM356.719 567.25H351.531V569.75H356.719V567.25ZM346.344 567.25H341.156V569.75H346.344V567.25ZM335.969 567.25H330.781V569.75H335.969V567.25ZM325.594 567.25H323V569.75H325.594V567.25ZM324.25 568.5V565.954H321.75V568.5H324.25ZM324.25 560.862V555.77H321.75V560.862H324.25ZM324.25 550.678V545.586H321.75V550.678H324.25ZM324.25 540.493V535.401H321.75V540.493H324.25ZM324.25 530.309V525.217H321.75V530.309H324.25ZM324.25 520.125V515.033H321.75V520.125H324.25ZM324.25 509.941V504.849H321.75V509.941H324.25ZM324.25 499.757V494.664H321.75V499.757H324.25ZM324.25 489.572V484.48H321.75V489.572H324.25ZM324.25 479.388V474.296H321.75V479.388H324.25ZM324.25 469.204V464.112H321.75V469.204H324.25ZM324.25 459.02V453.928H321.75V459.02H324.25ZM324.25 448.836V443.743H321.75V448.836H324.25ZM324.25 438.651V433.559H321.75V438.651H324.25ZM324.25 428.467V423.375H321.75V428.467H324.25ZM324.25 418.283V413.191H321.75V418.283H324.25ZM324.25 408.099V403.007H321.75V408.099H324.25ZM324.25 397.915V392.822H321.75V397.915H324.25ZM324.25 387.73V382.638H321.75V387.73H324.25ZM324.25 377.546V375H321.75V377.546H324.25Z" fill="#E71D36"/>
<path d="M246.333 496C237.129 496 229.667 503.462 229.667 512.667M227.471 531.516L213 546M219.667 512.667C219.667 527.394 231.606 539.333 246.333 539.333C261.061 539.333 273 527.394 273 512.667C273 497.939 261.061 486 246.333 486C231.606 486 219.667 497.939 219.667 512.667Z" stroke="#E71D36" stroke-width="3" stroke-linecap="round" stroke-linejoin="round"/>
<path d="M388 345.667C391.682 345.667 394.667 342.682 394.667 339C394.667 335.318 391.682 332.333 388 332.333C384.318 332.333 381.333 335.318 381.333 339C381.333 342.682 384.318 345.667 388 345.667ZM495 327.167C498.682 327.167 501.667 324.182 501.667 320.5C501.667 316.818 498.682 313.833 495 313.833C491.318 313.833 488.333 316.818 488.333 320.5C488.333 324.182 491.318 327.167 495 327.167ZM495 339V340.25C495.69 340.25 496.25 339.69 496.25 339H495ZM388 340.25H390.432V337.75H388V340.25ZM395.295 340.25H400.159V337.75H395.295V340.25ZM405.023 340.25H409.886V337.75H405.023V340.25ZM414.75 340.25H419.614V337.75H414.75V340.25ZM424.477 340.25H429.341V337.75H424.477V340.25ZM434.205 340.25H439.068V337.75H434.205V340.25ZM443.932 340.25H448.795V337.75H443.932V340.25ZM453.659 340.25H458.523V337.75H453.659V340.25ZM463.386 340.25H468.25V337.75H463.386V340.25ZM473.114 340.25H477.977V337.75H473.114V340.25ZM482.841 340.25H487.705V337.75H482.841V340.25ZM492.568 340.25H495V337.75H492.568V340.25ZM496.25 339V336.688H493.75V339H496.25ZM496.25 332.062V327.438H493.75V332.062H496.25ZM496.25 322.812V320.5H493.75V322.812H496.25Z" fill="#E71D36"/>
<path d="M156 340.167C159.682 340.167 162.667 337.182 162.667 333.5C162.667 329.818 159.682 326.833 156 326.833C152.318 326.833 149.333 329.818 149.333 333.5C149.333 337.182 152.318 340.167 156 340.167ZM239 298.667C242.682 298.667 245.667 295.682 245.667 292C245.667 288.318 242.682 285.333 239 285.333C235.318 285.333 232.333 288.318 232.333 292C232.333 295.682 235.318 298.667 239 298.667ZM239 310.5V311.75C239.69 311.75 240.25 311.19 240.25 310.5H239ZM156 310.5V309.25C155.31 309.25 154.75 309.81 154.75 310.5H156ZM157.25 333.5V330.625H154.75V333.5H157.25ZM157.25 324.875V319.125H154.75V324.875H157.25ZM157.25 313.375V310.5H154.75V313.375H157.25ZM156 311.75H158.594V309.25H156V311.75ZM163.781 311.75H168.969V309.25H163.781V311.75ZM174.156 311.75H179.344V309.25H174.156V311.75ZM184.531 311.75H189.719V309.25H184.531V311.75ZM194.906 311.75H200.094V309.25H194.906V311.75ZM205.281 311.75H210.469V309.25H205.281V311.75ZM215.656 311.75H220.844V309.25H215.656V311.75ZM226.031 311.75H231.219V309.25H226.031V311.75ZM236.406 311.75H239V309.25H236.406V311.75ZM240.25 310.5V308.188H237.75V310.5H240.25ZM240.25 303.562V298.938H237.75V303.562H240.25ZM240.25 294.312V292H237.75V294.312H240.25Z" fill="#E71D36"/>
<path d="M507 244.75H477C470.787 244.75 465.75 249.787 465.75 256V286C465.75 292.213 470.787 297.25 477 297.25H507C513.213 297.25 518.25 292.213 518.25 286V256C518.25 249.787 513.213 244.75 507 244.75Z" fill="url(#paint0_radial_4230_57664)"/>
<path d="M507 244.75H477C470.787 244.75 465.75 249.787 465.75 256V286C465.75 292.213 470.787 297.25 477 297.25H507C513.213 297.25 518.25 292.213 518.25 286V256C518.25 249.787 513.213 244.75 507 244.75Z" fill="url(#paint1_radial_4230_57664)"/>
<path d="M507 244.75H477C470.787 244.75 465.75 249.787 465.75 256V286C465.75 292.213 470.787 297.25 477 297.25H507C513.213 297.25 518.25 292.213 518.25 286V256C518.25 249.787 513.213 244.75 507 244.75Z" fill="url(#paint2_radial_4230_57664)"/>
<path d="M505.125 260.688C505.125 262.241 503.866 263.5 502.312 263.5C500.759 263.5 499.5 262.241 499.5 260.688C499.5 259.134 500.759 257.875 502.312 257.875C503.866 257.875 505.125 259.134 505.125 260.688Z" fill="white"/>
<path fill-rule="evenodd" clip-rule="evenodd" d="M492 280.375C497.178 280.375 501.375 276.178 501.375 271C501.375 265.822 497.178 261.625 492 261.625C486.822 261.625 482.625 265.822 482.625 271C482.625 276.178 486.822 280.375 492 280.375ZM492 276.625C495.107 276.625 497.625 274.107 497.625 271C497.625 267.893 495.107 265.375 492 265.375C488.893 265.375 486.375 267.893 486.375 271C486.375 274.107 488.893 276.625 492 276.625Z" fill="white"/>
<path fill-rule="evenodd" clip-rule="evenodd" d="M473.25 270.25C473.25 263.949 473.25 260.799 474.476 258.393C475.555 256.276 477.276 254.555 479.393 253.476C481.799 252.25 484.949 252.25 491.25 252.25H492.75C499.051 252.25 502.201 252.25 504.607 253.476C506.724 254.555 508.445 256.276 509.524 258.393C510.75 260.799 510.75 263.949 510.75 270.25V271.75C510.75 278.051 510.75 281.201 509.524 283.607C508.445 285.724 506.724 287.445 504.607 288.524C502.201 289.75 499.051 289.75 492.75 289.75H491.25C484.949 289.75 481.799 289.75 479.393 288.524C477.276 287.445 475.555 285.724 474.476 283.607C473.25 281.201 473.25 278.051 473.25 271.75V270.25ZM491.25 256H492.75C495.962 256 498.146 256.003 499.834 256.141C501.478 256.275 502.319 256.519 502.905 256.817C504.316 257.537 505.463 258.684 506.182 260.095C506.481 260.682 506.725 261.522 506.859 263.166C506.997 264.854 507 267.038 507 270.25V271.75C507 274.962 506.997 277.146 506.859 278.834C506.725 280.478 506.481 281.319 506.182 281.905C505.463 283.316 504.316 284.463 502.905 285.182C502.319 285.481 501.478 285.725 499.834 285.859C498.146 285.997 495.962 286 492.75 286H491.25C488.038 286 485.854 285.997 484.166 285.859C482.522 285.725 481.682 285.481 481.095 285.182C479.684 284.463 478.537 283.316 477.817 281.905C477.519 281.319 477.275 280.478 477.141 278.834C477.003 277.146 477 274.962 477 271.75V270.25C477 267.038 477.003 264.854 477.141 263.166C477.275 261.522 477.519 260.682 477.817 260.095C478.537 258.684 479.684 257.537 481.095 256.817C481.682 256.519 482.522 256.275 484.166 256.141C485.854 256.003 488.038 256 491.25 256Z" fill="white"/>
<g clip-path="url(#clip1_4230_57664)">
<path fill-rule="evenodd" clip-rule="evenodd" d="M149.638 404H126.649C125.186 404 124 402.814 124 401.351V358.649C124 357.186 125.186 356 126.649 356H169.351C170.814 356 172 357.186 172 358.649V401.351C172 402.814 170.814 404 169.351 404H157.119V385.412H163.359L164.293 378.168H157.119V373.543C157.119 371.445 157.702 370.016 160.709 370.016L164.545 370.014V363.535C163.882 363.447 161.605 363.25 158.956 363.25C153.425 363.25 149.638 366.626 149.638 372.825V378.168H143.383V385.412H149.638V404Z" fill="#4460A0"/>
</g>
<path d="M192 278.5C185.096 278.5 179.5 272.904 179.5 266C179.5 259.096 185.096 253.5 192 253.5C198.904 253.5 204.5 259.096 204.5 266C204.5 267.503 204.235 268.944 203.748 270.279C203.573 270.76 203.266 271.179 202.889 271.526L202.721 271.681C201.565 272.748 199.828 272.885 198.518 272.012C197.57 271.38 197 270.315 197 269.175V266M197 266C197 268.761 194.761 271 192 271C189.239 271 187 268.761 187 266C187 263.239 189.239 261 192 261C194.761 261 197 263.239 197 266Z" stroke="#E71D36" stroke-width="3" stroke-linecap="round"/>
<path d="M181.583 247.954C184.647 246.181 188.205 245.167 191.999 245.167C203.505 245.167 212.833 254.494 212.833 266C212.833 277.506 203.505 286.833 191.999 286.833C180.493 286.833 171.166 277.506 171.166 266C171.166 262.205 172.181 258.648 173.953 255.583" stroke="#E71D36" stroke-width="3" stroke-linecap="round"/>
<defs>
<radialGradient id="paint0_radial_4230_57664" cx="0" cy="0" r="1" gradientUnits="userSpaceOnUse" gradientTransform="translate(484.5 284.125) rotate(-55.3758) scale(47.8493)">
<stop stop-color="#B13589"/>
<stop offset="0.79309" stop-color="#C62F94"/>
<stop offset="1" stop-color="#8A3AC8"/>
</radialGradient>
<radialGradient id="paint1_radial_4230_57664" cx="0" cy="0" r="1" gradientUnits="userSpaceOnUse" gradientTransform="translate(482.625 299.125) rotate(-65.1363) scale(42.3641)">
<stop stop-color="#E0E8B7"/>
<stop offset="0.444662" stop-color="#FB8A2E"/>
<stop offset="0.71474" stop-color="#E2425C"/>
<stop offset="1" stop-color="#E2425C" stop-opacity="0"/>
</radialGradient>
<radialGradient id="paint2_radial_4230_57664" cx="0" cy="0" r="1" gradientUnits="userSpaceOnUse" gradientTransform="translate(462.938 246.625) rotate(-8.1301) scale(72.9204 15.5969)">
<stop offset="0.156701" stop-color="#406ADC"/>
<stop offset="0.467799" stop-color="#6A45BE"/>
<stop offset="1" stop-color="#6A45BE" stop-opacity="0"/>
</radialGradient>
<clipPath id="clip0_4230_57664">
<rect width="60" height="60" fill="white" transform="translate(381 530)"/>
</clipPath>
<clipPath id="clip1_4230_57664">
<rect width="48" height="48" fill="white" transform="translate(124 356)"/>
</clipPath>
</defs>
</svg>
