<svg width="662" height="800" viewBox="0 0 662 800" fill="none" xmlns="http://www.w3.org/2000/svg">
<rect width="662" height="800" fill="#F1D6FF"/>
<path fill-rule="evenodd" clip-rule="evenodd" d="M299.148 227.426C323.833 237.479 320.593 277.236 341.017 294.359C354.865 305.97 377.325 297.668 393.211 306.286C412.284 316.634 433.525 328.606 441.406 348.822C449.219 368.865 437.144 390.824 434.487 412.171C431.567 435.631 439.108 462.656 424.887 481.543C410.712 500.368 384.073 504.85 361.018 509.74C340.582 514.074 319.796 511.393 299.148 508.212C280.553 505.347 256.234 507.664 245.825 491.993C233.352 473.212 256.205 444.209 244.034 425.231C233.705 409.125 203.291 420.44 190.697 406.035C179.121 392.795 175.768 370.949 182.299 354.62C189 337.866 215.961 337.643 224.426 321.707C235.649 300.579 221.985 270.684 236.845 251.934C250.881 234.223 278.217 218.901 299.148 227.426Z" fill="url(#paint0_linear_7820_59117)"/>
<mask id="mask0_7820_59117" style="mask-type:alpha" maskUnits="userSpaceOnUse" x="620" y="9" width="24" height="24">
<rect x="620" y="9" width="24" height="24" fill="#D9D9D9"/>
</mask>
<g mask="url(#mask0_7820_59117)">
<path d="M632.001 22.4L627.101 27.3C626.917 27.4834 626.684 27.575 626.401 27.575C626.117 27.575 625.884 27.4834 625.701 27.3C625.517 27.1167 625.426 26.8834 625.426 26.6C625.426 26.3167 625.517 26.0834 625.701 25.9L630.601 21L625.701 16.1C625.517 15.9167 625.426 15.6834 625.426 15.4C625.426 15.1167 625.517 14.8834 625.701 14.7C625.884 14.5167 626.117 14.425 626.401 14.425C626.684 14.425 626.917 14.5167 627.101 14.7L632.001 19.6L636.901 14.7C637.084 14.5167 637.317 14.425 637.601 14.425C637.884 14.425 638.117 14.5167 638.301 14.7C638.484 14.8834 638.576 15.1167 638.576 15.4C638.576 15.6834 638.484 15.9167 638.301 16.1L633.401 21L638.301 25.9C638.484 26.0834 638.576 26.3167 638.576 26.6C638.576 26.8834 638.484 27.1167 638.301 27.3C638.117 27.4834 637.884 27.575 637.601 27.575C637.317 27.575 637.084 27.4834 636.901 27.3L632.001 22.4Z" fill="#AF52DE"/>
</g>
<g clip-path="url(#clip0_7820_59117)">
<path d="M456 414.344V273.719C456 267.258 450.742 262 444.281 262H217.719C211.258 262 206 267.258 206 273.719V414.344C206 420.805 211.258 426.062 217.719 426.062H248.984L210.289 506.398C209.352 508.344 210.172 510.672 212.117 511.609C212.664 511.875 213.242 512 213.812 512C215.266 512 216.664 511.187 217.336 509.789L256.398 428.68C256.805 427.828 256.828 426.914 256.617 426.062H413.164C412.977 426.812 412.945 427.609 413.242 428.383L428.867 468.938L444.492 509.492C445.094 511.047 446.57 511.992 448.141 511.992C448.609 511.992 449.086 511.906 449.547 511.734C451.562 510.953 452.562 508.695 451.789 506.688L420.719 426.062H444.281C450.742 426.062 456 420.805 456 414.344ZM210.289 414.344V273.719C209.942 270.887 215.273 265.497 217.719 266.167H444.281C447.03 265.598 451.678 270.913 451 273.719L450.583 414.344C450.963 417.275 446.857 421.965 444.281 421.167H217.719C215.248 422.488 209.945 417.975 210.289 414.344Z" fill="#AF52DE"/>
<path d="M221.114 275.881L220.006 275.949C219.987 275.854 219.946 275.769 219.884 275.693C219.821 275.616 219.739 275.554 219.636 275.509C219.536 275.461 219.416 275.438 219.276 275.438C219.088 275.438 218.93 275.477 218.801 275.557C218.672 275.634 218.608 275.739 218.608 275.869C218.608 275.973 218.65 276.062 218.733 276.134C218.816 276.205 218.959 276.263 219.162 276.307L219.952 276.466C220.376 276.553 220.692 276.693 220.901 276.886C221.109 277.08 221.213 277.333 221.213 277.648C221.213 277.934 221.129 278.185 220.96 278.401C220.794 278.616 220.564 278.785 220.273 278.906C219.983 279.026 219.649 279.085 219.27 279.085C218.692 279.085 218.232 278.965 217.889 278.724C217.548 278.482 217.348 278.152 217.29 277.736L218.48 277.673C218.516 277.849 218.603 277.984 218.741 278.077C218.88 278.168 219.057 278.213 219.273 278.213C219.485 278.213 219.655 278.172 219.784 278.091C219.915 278.008 219.981 277.901 219.983 277.77C219.981 277.66 219.935 277.57 219.844 277.5C219.753 277.428 219.613 277.373 219.423 277.335L218.668 277.185C218.241 277.099 217.924 276.952 217.716 276.741C217.509 276.531 217.406 276.263 217.406 275.938C217.406 275.657 217.482 275.416 217.634 275.213C217.787 275.01 218.002 274.854 218.278 274.744C218.557 274.634 218.883 274.58 219.256 274.58C219.807 274.58 220.241 274.696 220.557 274.929C220.875 275.162 221.061 275.479 221.114 275.881ZM223.185 273.182V279H221.975V273.182H223.185ZM224.155 279V274.636H225.365V279H224.155ZM224.763 274.074C224.583 274.074 224.429 274.014 224.3 273.895C224.173 273.774 224.109 273.629 224.109 273.46C224.109 273.294 224.173 273.151 224.3 273.031C224.429 272.91 224.583 272.849 224.763 272.849C224.943 272.849 225.096 272.91 225.223 273.031C225.352 273.151 225.416 273.294 225.416 273.46C225.416 273.629 225.352 273.774 225.223 273.895C225.096 274.014 224.943 274.074 224.763 274.074ZM228.306 279.085C227.859 279.085 227.475 278.991 227.153 278.801C226.833 278.61 226.586 278.345 226.414 278.006C226.244 277.667 226.158 277.277 226.158 276.835C226.158 276.388 226.245 275.996 226.417 275.659C226.591 275.32 226.838 275.056 227.158 274.866C227.478 274.675 227.859 274.58 228.3 274.58C228.681 274.58 229.014 274.649 229.3 274.787C229.586 274.925 229.813 275.119 229.979 275.369C230.146 275.619 230.238 275.913 230.255 276.25H229.113C229.081 276.032 228.996 275.857 228.857 275.724C228.721 275.59 228.542 275.523 228.32 275.523C228.133 275.523 227.969 275.574 227.829 275.676C227.691 275.777 227.583 275.923 227.505 276.116C227.427 276.31 227.388 276.544 227.388 276.818C227.388 277.097 227.426 277.333 227.502 277.528C227.58 277.723 227.689 277.872 227.829 277.974C227.969 278.077 228.133 278.128 228.32 278.128C228.459 278.128 228.583 278.099 228.692 278.043C228.804 277.986 228.896 277.903 228.968 277.795C229.042 277.686 229.09 277.554 229.113 277.401H230.255C230.236 277.734 230.145 278.027 229.982 278.281C229.821 278.533 229.599 278.73 229.315 278.872C229.031 279.014 228.694 279.085 228.306 279.085ZM233.018 279.085C232.57 279.085 232.183 278.994 231.859 278.812C231.537 278.629 231.289 278.369 231.115 278.034C230.941 277.697 230.854 277.298 230.854 276.838C230.854 276.389 230.941 275.995 231.115 275.656C231.289 275.317 231.535 275.053 231.851 274.864C232.169 274.674 232.542 274.58 232.97 274.58C233.258 274.58 233.526 274.626 233.774 274.719C234.024 274.81 234.242 274.947 234.428 275.131C234.615 275.314 234.761 275.545 234.865 275.824C234.969 276.1 235.021 276.424 235.021 276.795V277.128H231.337V276.378H233.882C233.882 276.204 233.844 276.049 233.768 275.915C233.693 275.78 233.588 275.675 233.453 275.599C233.321 275.522 233.166 275.483 232.99 275.483C232.806 275.483 232.643 275.526 232.501 275.611C232.361 275.694 232.251 275.807 232.172 275.949C232.092 276.089 232.052 276.245 232.05 276.418V277.131C232.05 277.347 232.089 277.533 232.169 277.69C232.25 277.848 232.365 277.969 232.513 278.054C232.661 278.139 232.836 278.182 233.038 278.182C233.173 278.182 233.296 278.163 233.408 278.125C233.519 278.087 233.615 278.03 233.695 277.955C233.774 277.879 233.835 277.786 233.876 277.676L234.996 277.75C234.939 278.019 234.822 278.254 234.646 278.455C234.472 278.653 234.247 278.809 233.97 278.92C233.696 279.03 233.378 279.085 233.018 279.085ZM238.158 274.636V275.545H235.464V274.636H238.158ZM236.081 279V274.321C236.081 274.005 236.143 273.742 236.266 273.534C236.391 273.326 236.561 273.17 236.777 273.065C236.993 272.961 237.238 272.909 237.513 272.909C237.698 272.909 237.868 272.923 238.021 272.952C238.177 272.98 238.292 273.006 238.368 273.028L238.152 273.938C238.105 273.922 238.046 273.908 237.976 273.895C237.908 273.882 237.838 273.875 237.766 273.875C237.588 273.875 237.464 273.917 237.393 274C237.323 274.081 237.288 274.196 237.288 274.344V279H236.081ZM240.107 273.182V279H238.897V273.182H240.107ZM243.048 279.085C242.607 279.085 242.225 278.991 241.903 278.804C241.583 278.615 241.336 278.351 241.162 278.014C240.988 277.675 240.901 277.282 240.901 276.835C240.901 276.384 240.988 275.991 241.162 275.653C241.336 275.314 241.583 275.051 241.903 274.864C242.225 274.674 242.607 274.58 243.048 274.58C243.49 274.58 243.87 274.674 244.19 274.864C244.512 275.051 244.76 275.314 244.935 275.653C245.109 275.991 245.196 276.384 245.196 276.835C245.196 277.282 245.109 277.675 244.935 278.014C244.76 278.351 244.512 278.615 244.19 278.804C243.87 278.991 243.49 279.085 243.048 279.085ZM243.054 278.148C243.255 278.148 243.422 278.091 243.557 277.977C243.691 277.862 243.793 277.705 243.861 277.506C243.931 277.307 243.966 277.08 243.966 276.827C243.966 276.573 243.931 276.347 243.861 276.148C243.793 275.949 243.691 275.792 243.557 275.676C243.422 275.561 243.255 275.503 243.054 275.503C242.851 275.503 242.681 275.561 242.543 275.676C242.406 275.792 242.303 275.949 242.233 276.148C242.165 276.347 242.131 276.573 242.131 276.827C242.131 277.08 242.165 277.307 242.233 277.506C242.303 277.705 242.406 277.862 242.543 277.977C242.681 278.091 242.851 278.148 243.054 278.148ZM246.69 279.074C246.503 279.074 246.342 279.008 246.207 278.875C246.075 278.741 246.009 278.58 246.009 278.392C246.009 278.206 246.075 278.047 246.207 277.915C246.342 277.782 246.503 277.716 246.69 277.716C246.872 277.716 247.031 277.782 247.168 277.915C247.304 278.047 247.372 278.206 247.372 278.392C247.372 278.517 247.34 278.632 247.276 278.736C247.213 278.838 247.131 278.92 247.028 278.983C246.926 279.044 246.813 279.074 246.69 279.074ZM249.61 279.082C249.332 279.082 249.084 279.034 248.866 278.938C248.648 278.839 248.476 278.694 248.349 278.503C248.224 278.31 248.161 278.069 248.161 277.781C248.161 277.539 248.206 277.335 248.295 277.17C248.384 277.006 248.505 276.873 248.658 276.773C248.812 276.672 248.986 276.597 249.181 276.545C249.378 276.494 249.585 276.458 249.8 276.438C250.054 276.411 250.259 276.386 250.414 276.364C250.569 276.339 250.682 276.303 250.752 276.256C250.822 276.208 250.857 276.138 250.857 276.045V276.028C250.857 275.848 250.8 275.709 250.687 275.611C250.575 275.512 250.416 275.463 250.21 275.463C249.992 275.463 249.818 275.511 249.69 275.608C249.561 275.703 249.476 275.822 249.434 275.966L248.315 275.875C248.371 275.61 248.483 275.381 248.65 275.188C248.817 274.992 249.031 274.843 249.295 274.739C249.56 274.633 249.867 274.58 250.215 274.58C250.458 274.58 250.69 274.608 250.911 274.665C251.135 274.722 251.333 274.81 251.505 274.929C251.679 275.048 251.817 275.202 251.917 275.389C252.017 275.575 252.067 275.797 252.067 276.057V279H250.92V278.395H250.886C250.816 278.531 250.722 278.652 250.604 278.756C250.487 278.858 250.346 278.938 250.181 278.997C250.016 279.054 249.826 279.082 249.61 279.082ZM249.957 278.247C250.135 278.247 250.292 278.212 250.428 278.142C250.565 278.07 250.672 277.973 250.749 277.852C250.827 277.731 250.866 277.594 250.866 277.44V276.977C250.828 277.002 250.776 277.025 250.71 277.045C250.645 277.064 250.572 277.082 250.491 277.099C250.409 277.115 250.328 277.129 250.246 277.142C250.165 277.153 250.091 277.164 250.025 277.173C249.883 277.194 249.759 277.227 249.653 277.273C249.547 277.318 249.464 277.38 249.406 277.457C249.347 277.533 249.317 277.628 249.317 277.741C249.317 277.906 249.377 278.032 249.496 278.119C249.618 278.205 249.771 278.247 249.957 278.247ZM253.006 280.636V274.636H254.2V275.369H254.254C254.307 275.252 254.383 275.133 254.484 275.011C254.586 274.888 254.719 274.786 254.881 274.705C255.046 274.621 255.251 274.58 255.495 274.58C255.813 274.58 256.107 274.663 256.376 274.83C256.645 274.994 256.86 275.243 257.021 275.577C257.182 275.908 257.262 276.324 257.262 276.824C257.262 277.311 257.183 277.722 257.026 278.057C256.871 278.39 256.659 278.643 256.39 278.815C256.123 278.986 255.824 279.071 255.492 279.071C255.257 279.071 255.058 279.032 254.893 278.955C254.73 278.877 254.596 278.779 254.492 278.662C254.388 278.543 254.308 278.422 254.254 278.301H254.217V280.636H253.006ZM254.191 276.818C254.191 277.078 254.227 277.304 254.299 277.497C254.371 277.69 254.475 277.841 254.612 277.949C254.748 278.055 254.914 278.108 255.109 278.108C255.306 278.108 255.472 278.054 255.609 277.946C255.745 277.836 255.848 277.685 255.918 277.491C255.99 277.296 256.026 277.072 256.026 276.818C256.026 276.566 255.991 276.345 255.921 276.153C255.851 275.962 255.748 275.812 255.612 275.705C255.475 275.597 255.308 275.543 255.109 275.543C254.912 275.543 254.745 275.595 254.609 275.699C254.474 275.803 254.371 275.951 254.299 276.142C254.227 276.333 254.191 276.559 254.191 276.818ZM258.069 280.636V274.636H259.262V275.369H259.316C259.369 275.252 259.446 275.133 259.546 275.011C259.648 274.888 259.781 274.786 259.944 274.705C260.109 274.621 260.313 274.58 260.558 274.58C260.876 274.58 261.169 274.663 261.438 274.83C261.707 274.994 261.922 275.243 262.083 275.577C262.244 275.908 262.325 276.324 262.325 276.824C262.325 277.311 262.246 277.722 262.089 278.057C261.933 278.39 261.721 278.643 261.452 278.815C261.185 278.986 260.886 279.071 260.555 279.071C260.32 279.071 260.12 279.032 259.955 278.955C259.792 278.877 259.659 278.779 259.555 278.662C259.451 278.543 259.371 278.422 259.316 278.301H259.279V280.636H258.069ZM259.254 276.818C259.254 277.078 259.29 277.304 259.362 277.497C259.433 277.69 259.538 277.841 259.674 277.949C259.81 278.055 259.976 278.108 260.171 278.108C260.368 278.108 260.535 278.054 260.671 277.946C260.808 277.836 260.911 277.685 260.981 277.491C261.053 277.296 261.089 277.072 261.089 276.818C261.089 276.566 261.054 276.345 260.984 276.153C260.914 275.962 260.81 275.812 260.674 275.705C260.538 275.597 260.37 275.543 260.171 275.543C259.974 275.543 259.808 275.595 259.671 275.699C259.537 275.803 259.433 275.951 259.362 276.142C259.29 276.333 259.254 276.559 259.254 276.818ZM265.665 272.909L263.79 279.875H262.748L264.623 272.909H265.665ZM267.651 279L265.987 273.182H267.33L268.293 277.224H268.342L269.404 273.182H270.555L271.614 277.233H271.665L272.629 273.182H273.972L272.308 279H271.109L270.001 275.196H269.955L268.85 279H267.651ZM276.111 279.085C275.67 279.085 275.288 278.991 274.966 278.804C274.646 278.615 274.399 278.351 274.224 278.014C274.05 277.675 273.963 277.282 273.963 276.835C273.963 276.384 274.05 275.991 274.224 275.653C274.399 275.314 274.646 275.051 274.966 274.864C275.288 274.674 275.67 274.58 276.111 274.58C276.552 274.58 276.933 274.674 277.253 274.864C277.575 275.051 277.823 275.314 277.997 275.653C278.171 275.991 278.259 276.384 278.259 276.835C278.259 277.282 278.171 277.675 277.997 278.014C277.823 278.351 277.575 278.615 277.253 278.804C276.933 278.991 276.552 279.085 276.111 279.085ZM276.116 278.148C276.317 278.148 276.485 278.091 276.619 277.977C276.754 277.862 276.855 277.705 276.923 277.506C276.993 277.307 277.028 277.08 277.028 276.827C277.028 276.573 276.993 276.347 276.923 276.148C276.855 275.949 276.754 275.792 276.619 275.676C276.485 275.561 276.317 275.503 276.116 275.503C275.914 275.503 275.743 275.561 275.605 275.676C275.469 275.792 275.366 275.949 275.295 276.148C275.227 276.347 275.193 276.573 275.193 276.827C275.193 277.08 275.227 277.307 275.295 277.506C275.366 277.705 275.469 277.862 275.605 277.977C275.743 278.091 275.914 278.148 276.116 278.148ZM279.045 279V274.636H280.219V275.398H280.264C280.344 275.127 280.477 274.922 280.665 274.784C280.852 274.644 281.068 274.574 281.312 274.574C281.373 274.574 281.438 274.578 281.509 274.585C281.579 274.593 281.64 274.603 281.693 274.616V275.69C281.636 275.673 281.558 275.658 281.457 275.645C281.357 275.632 281.265 275.625 281.182 275.625C281.004 275.625 280.845 275.664 280.705 275.741C280.566 275.817 280.456 275.923 280.375 276.06C280.295 276.196 280.256 276.353 280.256 276.531V279H279.045ZM283.415 277.744L283.418 276.293H283.594L284.992 274.636H286.381L284.504 276.83H284.217L283.415 277.744ZM282.319 279V273.182H283.529V279H282.319ZM285.046 279L283.762 277.099L284.569 276.244L286.464 279H285.046ZM290.606 275.881L289.498 275.949C289.479 275.854 289.438 275.769 289.376 275.693C289.313 275.616 289.231 275.554 289.129 275.509C289.028 275.461 288.908 275.438 288.768 275.438C288.58 275.438 288.422 275.477 288.293 275.557C288.165 275.634 288.1 275.739 288.1 275.869C288.1 275.973 288.142 276.062 288.225 276.134C288.308 276.205 288.451 276.263 288.654 276.307L289.444 276.466C289.868 276.553 290.184 276.693 290.393 276.886C290.601 277.08 290.705 277.333 290.705 277.648C290.705 277.934 290.621 278.185 290.452 278.401C290.286 278.616 290.057 278.785 289.765 278.906C289.475 279.026 289.141 279.085 288.762 279.085C288.184 279.085 287.724 278.965 287.381 278.724C287.04 278.482 286.841 278.152 286.782 277.736L287.972 277.673C288.008 277.849 288.095 277.984 288.234 278.077C288.372 278.168 288.549 278.213 288.765 278.213C288.977 278.213 289.147 278.172 289.276 278.091C289.407 278.008 289.473 277.901 289.475 277.77C289.473 277.66 289.427 277.57 289.336 277.5C289.245 277.428 289.105 277.373 288.915 277.335L288.16 277.185C287.734 277.099 287.416 276.952 287.208 276.741C287.002 276.531 286.898 276.263 286.898 275.938C286.898 275.657 286.974 275.416 287.126 275.213C287.279 275.01 287.494 274.854 287.771 274.744C288.049 274.634 288.375 274.58 288.748 274.58C289.299 274.58 289.733 274.696 290.049 274.929C290.367 275.162 290.553 275.479 290.606 275.881ZM291.467 280.636V274.636H292.661V275.369H292.714C292.768 275.252 292.844 275.133 292.945 275.011C293.047 274.888 293.179 274.786 293.342 274.705C293.507 274.621 293.712 274.58 293.956 274.58C294.274 274.58 294.568 274.663 294.837 274.83C295.106 274.994 295.321 275.243 295.482 275.577C295.643 275.908 295.723 276.324 295.723 276.824C295.723 277.311 295.644 277.722 295.487 278.057C295.332 278.39 295.12 278.643 294.851 278.815C294.584 278.986 294.285 279.071 293.953 279.071C293.718 279.071 293.518 279.032 293.354 278.955C293.191 278.877 293.057 278.779 292.953 278.662C292.849 278.543 292.769 278.422 292.714 278.301H292.678V280.636H291.467ZM292.652 276.818C292.652 277.078 292.688 277.304 292.76 277.497C292.832 277.69 292.936 277.841 293.072 277.949C293.209 278.055 293.375 278.108 293.57 278.108C293.767 278.108 293.933 278.054 294.07 277.946C294.206 277.836 294.309 277.685 294.379 277.491C294.451 277.296 294.487 277.072 294.487 276.818C294.487 276.566 294.452 276.345 294.382 276.153C294.312 275.962 294.209 275.812 294.072 275.705C293.936 275.597 293.768 275.543 293.57 275.543C293.373 275.543 293.206 275.595 293.07 275.699C292.935 275.803 292.832 275.951 292.76 276.142C292.688 276.333 292.652 276.559 292.652 276.818ZM297.774 279.082C297.496 279.082 297.248 279.034 297.03 278.938C296.812 278.839 296.64 278.694 296.513 278.503C296.388 278.31 296.325 278.069 296.325 277.781C296.325 277.539 296.37 277.335 296.459 277.17C296.548 277.006 296.669 276.873 296.822 276.773C296.976 276.672 297.15 276.597 297.345 276.545C297.542 276.494 297.749 276.458 297.964 276.438C298.218 276.411 298.423 276.386 298.578 276.364C298.733 276.339 298.846 276.303 298.916 276.256C298.986 276.208 299.021 276.138 299.021 276.045V276.028C299.021 275.848 298.964 275.709 298.851 275.611C298.739 275.512 298.58 275.463 298.374 275.463C298.156 275.463 297.982 275.511 297.854 275.608C297.725 275.703 297.64 275.822 297.598 275.966L296.479 275.875C296.536 275.61 296.647 275.381 296.814 275.188C296.981 274.992 297.196 274.843 297.459 274.739C297.724 274.633 298.031 274.58 298.379 274.58C298.622 274.58 298.854 274.608 299.075 274.665C299.299 274.722 299.497 274.81 299.669 274.929C299.843 275.048 299.981 275.202 300.081 275.389C300.181 275.575 300.232 275.797 300.232 276.057V279H299.084V278.395H299.05C298.98 278.531 298.886 278.652 298.768 278.756C298.651 278.858 298.51 278.938 298.345 278.997C298.18 279.054 297.99 279.082 297.774 279.082ZM298.121 278.247C298.299 278.247 298.456 278.212 298.592 278.142C298.729 278.07 298.836 277.973 298.913 277.852C298.991 277.731 299.03 277.594 299.03 277.44V276.977C298.992 277.002 298.94 277.025 298.874 277.045C298.809 277.064 298.736 277.082 298.655 277.099C298.573 277.115 298.492 277.129 298.411 277.142C298.329 277.153 298.255 277.164 298.189 277.173C298.047 277.194 297.923 277.227 297.817 277.273C297.711 277.318 297.628 277.38 297.57 277.457C297.511 277.533 297.482 277.628 297.482 277.741C297.482 277.906 297.541 278.032 297.661 278.119C297.782 278.205 297.935 278.247 298.121 278.247ZM303.142 279.085C302.695 279.085 302.311 278.991 301.989 278.801C301.669 278.61 301.422 278.345 301.25 278.006C301.08 277.667 300.994 277.277 300.994 276.835C300.994 276.388 301.08 275.996 301.253 275.659C301.427 275.32 301.674 275.056 301.994 274.866C302.314 274.675 302.695 274.58 303.136 274.58C303.517 274.58 303.85 274.649 304.136 274.787C304.422 274.925 304.649 275.119 304.815 275.369C304.982 275.619 305.074 275.913 305.091 276.25H303.949C303.917 276.032 303.831 275.857 303.693 275.724C303.557 275.59 303.378 275.523 303.156 275.523C302.969 275.523 302.805 275.574 302.665 275.676C302.527 275.777 302.419 275.923 302.341 276.116C302.263 276.31 302.224 276.544 302.224 276.818C302.224 277.097 302.262 277.333 302.338 277.528C302.416 277.723 302.525 277.872 302.665 277.974C302.805 278.077 302.969 278.128 303.156 278.128C303.295 278.128 303.419 278.099 303.528 278.043C303.64 277.986 303.732 277.903 303.804 277.795C303.878 277.686 303.926 277.554 303.949 277.401H305.091C305.072 277.734 304.981 278.027 304.818 278.281C304.657 278.533 304.435 278.73 304.151 278.872C303.866 279.014 303.53 279.085 303.142 279.085ZM307.854 279.085C307.406 279.085 307.019 278.994 306.695 278.812C306.373 278.629 306.125 278.369 305.951 278.034C305.777 277.697 305.69 277.298 305.69 276.838C305.69 276.389 305.777 275.995 305.951 275.656C306.125 275.317 306.371 275.053 306.687 274.864C307.005 274.674 307.378 274.58 307.806 274.58C308.094 274.58 308.362 274.626 308.61 274.719C308.86 274.81 309.078 274.947 309.263 275.131C309.451 275.314 309.597 275.545 309.701 275.824C309.805 276.1 309.857 276.424 309.857 276.795V277.128H306.173V276.378H308.718C308.718 276.204 308.68 276.049 308.604 275.915C308.529 275.78 308.424 275.675 308.289 275.599C308.156 275.522 308.002 275.483 307.826 275.483C307.642 275.483 307.479 275.526 307.337 275.611C307.197 275.694 307.087 275.807 307.008 275.949C306.928 276.089 306.888 276.245 306.886 276.418V277.131C306.886 277.347 306.925 277.533 307.005 277.69C307.086 277.848 307.201 277.969 307.349 278.054C307.496 278.139 307.672 278.182 307.874 278.182C308.009 278.182 308.132 278.163 308.244 278.125C308.355 278.087 308.451 278.03 308.531 277.955C308.61 277.879 308.671 277.786 308.712 277.676L309.832 277.75C309.775 278.019 309.658 278.254 309.482 278.455C309.308 278.653 309.083 278.809 308.806 278.92C308.531 279.03 308.214 279.085 307.854 279.085ZM315.018 273.182V279H313.788V274.349H313.754L312.422 275.185V274.094L313.862 273.182H315.018Z" fill="#AF52DE"/>
<path d="M388.425 337.412C388.425 341.83 392.007 345.412 396.425 345.412H400.712V354C400.712 358.418 397.13 362 392.712 362H384.137C379.718 362 376.137 358.418 376.137 354V336.209C376.137 331.791 379.719 328.209 384.137 328.209H388.425V337.412ZM405 311.621C409.418 311.621 413 315.203 413 319.621V337.412C413 341.83 409.418 345.412 405 345.412H400.712V336.209C400.712 331.791 397.13 328.209 392.712 328.209H388.425V319.621C388.425 315.203 392.007 311.621 396.425 311.621H405Z" fill="#C59DDA"/>
<path d="M282.376 346.954C286.794 346.954 290.376 343.372 290.376 338.954V331.908H302.688C307.107 331.908 310.688 335.49 310.688 339.908V354C310.688 358.418 307.107 362 302.688 362H277.312C272.893 362 269.312 358.418 269.312 354V346.954H282.376ZM249 324.862C249 320.444 252.582 316.862 257 316.862H282.376C286.794 316.862 290.376 320.444 290.376 324.862V331.908H277.312C272.893 331.908 269.312 335.49 269.312 339.908V346.954H257C252.582 346.954 249 343.372 249 338.954V324.862Z" fill="#C59DDA"/>
<path d="M344.816 339.725C344.816 335.307 341.234 331.725 336.816 331.725H333.808V324.862C333.808 320.444 337.389 316.862 341.808 316.862H347.826C352.244 316.863 355.826 320.444 355.826 324.862V339.138C355.826 343.556 352.244 347.137 347.826 347.138H344.816V339.725ZM330.798 362C326.38 362 322.798 358.418 322.798 354V339.725C322.798 335.306 326.38 331.725 330.798 331.725H333.808V339.138C333.808 343.556 337.389 347.138 341.808 347.138H344.816V354C344.816 358.418 341.235 362 336.816 362H330.798Z" fill="#C59DDA"/>
<path d="M281.587 396.266C281.587 399.23 283.99 401.633 286.954 401.633H387.316C388.799 401.633 390 402.834 390 404.316C390 405.799 388.799 407 387.316 407H278.367C275.403 407 273 404.597 273 401.633C273 398.669 275.403 396.266 278.367 396.266H281.587ZM390 393.583C390 395.064 388.799 396.266 387.317 396.266H281.587C281.587 393.302 283.989 390.899 286.953 390.899H387.317C388.799 390.899 390 392.101 390 393.583Z" fill="#AF52DE"/>
</g>
<path d="M169 517H494" stroke="#AF52DE" stroke-width="8" stroke-linecap="round"/>
<path d="M194 527H469" stroke="#AF52DE" stroke-width="6" stroke-linecap="round"/>
<path d="M219 537H444" stroke="#AF52DE" stroke-width="6" stroke-linecap="round"/>
<g filter="url(#filter0_n_7820_59117)">
<path d="M194 267C194 271.418 190.418 275 186 275H152C147.582 275 144 271.418 144 267V233C144 228.582 147.582 225 152 225H186C190.418 225 194 228.582 194 233V267ZM519 267C519 271.418 515.418 275 511 275H477C472.582 275 469 271.418 469 267V233C469 228.582 472.582 225 477 225H511C515.418 225 519 228.582 519 233V267Z" fill="#AF52DE" fill-opacity="0.2"/>
</g>
<defs>
<filter id="filter0_n_7820_59117" x="144" y="225" width="375" height="50" filterUnits="userSpaceOnUse" color-interpolation-filters="sRGB">
<feFlood flood-opacity="0" result="BackgroundImageFix"/>
<feBlend mode="normal" in="SourceGraphic" in2="BackgroundImageFix" result="shape"/>
<feTurbulence type="fractalNoise" baseFrequency="0.02777777798473835 0.02777777798473835" stitchTiles="stitch" numOctaves="3" result="noise" seed="1249" />
<feColorMatrix in="noise" type="luminanceToAlpha" result="alphaNoise" />
<feComponentTransfer in="alphaNoise" result="coloredNoise1">
<feFuncA type="discrete" tableValues="1 1 1 1 1 1 1 1 1 1 1 1 1 1 1 1 1 1 1 1 1 1 1 1 1 1 1 1 1 1 1 1 1 1 1 1 1 1 1 1 1 1 1 1 1 1 1 1 1 1 1 0 0 0 0 0 0 0 0 0 0 0 0 0 0 0 0 0 0 0 0 0 0 0 0 0 0 0 0 0 0 0 0 0 0 0 0 0 0 0 0 0 0 0 0 0 0 0 0 0 "/>
</feComponentTransfer>
<feComposite operator="in" in2="shape" in="coloredNoise1" result="noise1Clipped" />
<feComponentTransfer in="alphaNoise" result="coloredNoise2">
<feFuncA type="discrete" tableValues="0 0 0 0 0 0 0 0 0 0 0 0 0 0 0 0 0 0 0 0 0 0 0 0 0 0 0 0 0 0 0 0 0 0 0 0 0 0 0 0 0 0 0 0 0 0 0 0 0 1 1 1 1 1 1 1 1 1 1 1 1 1 1 1 1 1 1 1 1 1 1 1 1 1 1 1 1 1 1 1 1 1 1 1 1 1 1 1 1 1 1 1 1 1 1 1 1 1 1 1 "/>
</feComponentTransfer>
<feComposite operator="in" in2="shape" in="coloredNoise2" result="noise2Clipped" />
<feFlood flood-color="rgba(0, 0, 0, 0.25)" result="color1Flood" />
<feComposite operator="in" in2="noise1Clipped" in="color1Flood" result="color1" />
<feFlood flood-color="rgba(255, 255, 255, 0.25)" result="color2Flood" />
<feComposite operator="in" in2="noise2Clipped" in="color2Flood" result="color2" />
<feMerge result="effect1_noise_7820_59117">
<feMergeNode in="shape" />
<feMergeNode in="color1" />
<feMergeNode in="color2" />
</feMerge>
</filter>
<linearGradient id="paint0_linear_7820_59117" x1="311.5" y1="225" x2="311.5" y2="512" gradientUnits="userSpaceOnUse">
<stop stop-color="#AF52DE" stop-opacity="0.19"/>
<stop offset="1" stop-color="white" stop-opacity="0.15"/>
</linearGradient>
<clipPath id="clip0_7820_59117">
<rect width="250" height="250" fill="white" transform="translate(206 262)"/>
</clipPath>
</defs>
</svg>
