<svg width="50" height="50" viewBox="0 0 50 50" fill="none" xmlns="http://www.w3.org/2000/svg">
<path fill-rule="evenodd" clip-rule="evenodd" d="M24.9984 0.519531C11.1937 0.519531 0 11.7561 0 25.6202C0 36.7077 7.16249 46.1152 17.0984 49.4346C18.3484 49.6652 18.8047 48.8902 18.8047 48.2251C18.8047 47.6289 18.7828 46.0509 18.7703 43.9567C11.8156 45.4736 10.3484 40.5918 10.3484 40.5918C9.21251 37.6929 7.57345 36.9211 7.57345 36.9211C5.30313 35.3634 7.7453 35.3947 7.7453 35.3947C10.2531 35.572 11.5734 37.9815 11.5734 37.9815C13.8047 41.817 17.425 40.7095 18.85 40.0663C19.0766 38.4443 19.7234 37.3384 20.4375 36.7109C14.8859 36.0771 9.04999 33.9249 9.04999 24.3072C9.04999 21.5667 10.0234 19.3266 11.6234 17.5712C11.3656 16.9359 10.5078 14.3852 11.8672 10.9294C11.8672 10.9294 13.9672 10.2548 18.7422 13.502C20.7375 12.9451 22.875 12.6675 25.0016 12.6565C27.125 12.6675 29.2641 12.9451 31.2609 13.502C36.0328 10.2548 38.1282 10.9294 38.1282 10.9294C39.4922 14.3852 38.6344 16.9359 38.3766 17.5712C39.9797 19.3266 40.9469 21.5667 40.9469 24.3072C40.9469 33.9484 35.1016 36.0708 29.5328 36.692C30.4297 37.4669 31.2297 38.998 31.2297 41.3401C31.2297 44.6955 31.1984 47.4015 31.1984 48.2251C31.1984 48.8965 31.6485 49.6777 32.9172 49.4314C42.8438 46.1058 50 36.7046 50 25.6202C50 11.7561 38.8062 0.519531 24.9984 0.519531Z" fill="#3E75C3"/>
</svg>
