<svg width="50" height="50" viewBox="0 0 50 50" fill="none" xmlns="http://www.w3.org/2000/svg">
<path d="M46.7984 27.825L44.3453 20.4688L39.4953 5.87502C39.4379 5.70978 39.3301 5.56667 39.1872 5.46579C39.0443 5.36491 38.8734 5.31131 38.6984 5.31252C38.524 5.31196 38.3538 5.36586 38.2115 5.4667C38.0692 5.56754 37.9619 5.71029 37.9047 5.87502L33.0547 20.4594H16.9453L12.0953 5.8719C12.0379 5.70749 11.9305 5.56516 11.7882 5.46485C11.6458 5.36453 11.4757 5.31127 11.3016 5.31252C11.127 5.3115 10.9566 5.36521 10.8142 5.46612C10.6718 5.56702 10.5647 5.71003 10.5078 5.87502L5.66406 20.4594L3.21406 27.825C3.10563 28.1532 3.10573 28.5076 3.21436 28.8357C3.32298 29.1638 3.53435 29.4482 3.81718 29.6469L25.0047 44.6844L46.1859 29.6469C46.4701 29.4492 46.683 29.1653 46.7933 28.8372C46.9036 28.5091 46.9054 28.1542 46.7984 27.825Z" fill="#FC6D26"/>
<path d="M24.9984 44.6758L33.0547 20.457H16.9453L24.9984 44.6758Z" fill="#E24329"/>
<path d="M24.9984 44.6758L16.9391 20.457H5.66406L24.9984 44.6758Z" fill="#FC6D26"/>
<path d="M5.65625 20.4648L3.20625 27.8211C3.09782 28.1493 3.09792 28.5036 3.20654 28.8318C3.31517 29.1599 3.52653 29.4443 3.80937 29.643L25 44.6867L5.65625 20.468V20.4648Z" fill="#FCA326"/>
<path d="M5.66406 20.4672H16.9516L12.0953 5.88283C12.038 5.7181 11.9308 5.57535 11.7885 5.47451C11.6462 5.37367 11.476 5.31977 11.3016 5.32033C11.1266 5.31912 10.9557 5.37272 10.8128 5.4736C10.6699 5.57449 10.5621 5.71759 10.5047 5.88283L5.66406 20.4672Z" fill="#E24329"/>
<path d="M25 44.6758L33.0562 20.457H44.35L25 44.6758Z" fill="#FC6D26"/>
<path d="M44.3437 20.4648L46.7906 27.8211C46.8996 28.1492 46.8997 28.5038 46.7911 28.832C46.6824 29.1602 46.4707 29.4447 46.1875 29.643L25 44.6742L44.3375 20.4648H44.3437Z" fill="#FCA326"/>
<path d="M44.3437 20.4672H33.0625L37.9094 5.88285C37.9664 5.71735 38.074 5.57398 38.2171 5.47303C38.3601 5.37208 38.5312 5.31867 38.7062 5.32035C39.0656 5.32035 39.3844 5.54848 39.5 5.88285L44.35 20.4672H44.3437Z" fill="#E24329"/>
</svg>
