<svg width="16" height="16" viewBox="0 0 16 16" fill="none" xmlns="http://www.w3.org/2000/svg">
<path fill-rule="evenodd" clip-rule="evenodd" d="M2.471 11.318C2.86072 11.3169 3.23415 11.1616 3.50963 10.8859C3.78511 10.6102 3.94021 10.2367 3.941 9.84698V8.37698H2.471C2.08146 8.37777 1.70806 8.53273 1.43243 8.80799C1.15679 9.08325 1.00132 9.45643 1 9.84598C1.001 10.657 1.659 11.315 2.47 11.316L2.471 11.318ZM6.153 8.37598C5.76328 8.37703 5.38985 8.53238 5.11437 8.80805C4.83889 9.08372 4.68379 9.45726 4.683 9.84698V13.53C4.685 14.341 5.343 14.998 6.153 15C6.54254 14.9989 6.91583 14.8437 7.19128 14.5683C7.46673 14.2928 7.62194 13.9195 7.623 13.53V9.84598C7.62194 9.45643 7.46673 9.08315 7.19128 8.8077C6.91583 8.53225 6.54254 8.37703 6.153 8.37598Z" fill="#E01E5A"/>
<path fill-rule="evenodd" clip-rule="evenodd" d="M4.683 2.471C4.684 3.282 5.342 3.94 6.153 3.941H7.623V2.471C7.62221 2.08146 7.46725 1.70806 7.19199 1.43243C6.91672 1.15679 6.54354 1.00132 6.154 1C5.76446 1.00106 5.39117 1.15627 5.11572 1.43172C4.84027 1.70717 4.68506 2.08046 4.684 2.47L4.683 2.471ZM7.623 6.153C7.62194 5.76346 7.46673 5.39017 7.19128 5.11472C6.91583 4.83927 6.54254 4.68406 6.153 4.683H2.47C2.08046 4.68406 1.70717 4.83927 1.43172 5.11472C1.15627 5.39017 1.00106 5.76346 1 6.153C1.002 6.965 1.66 7.622 2.47 7.623H6.154C6.54354 7.62194 6.91683 7.46673 7.19228 7.19128C7.46773 6.91583 7.62194 6.54254 7.623 6.153Z" fill="#36C5F0"/>
<path fill-rule="evenodd" clip-rule="evenodd" d="M9.844 7.624C10.2335 7.62294 10.6068 7.46773 10.8823 7.19228C11.1577 6.91683 11.3129 6.54354 11.314 6.154V2.47C11.3129 2.08063 11.1579 1.70749 10.8826 1.43207C10.6074 1.15665 10.2344 1.00132 9.845 1C9.45546 1.00106 9.08217 1.15627 8.80672 1.43172C8.53127 1.70717 8.37606 2.08046 8.375 2.47V6.154C8.377 6.964 9.033 7.622 9.844 7.624ZM13.526 4.683C13.1365 4.68406 12.7632 4.83927 12.4877 5.11472C12.2123 5.39017 12.0571 5.76346 12.056 6.153V7.623H13.526C13.9155 7.62221 14.2889 7.46725 14.5646 7.19199C14.8402 6.91672 14.9957 6.54354 14.997 6.154C14.9959 5.76446 14.8407 5.39117 14.5653 5.11572C14.2898 4.84027 13.9165 4.68506 13.527 4.684L13.526 4.683Z" fill="#2EB67D"/>
<path fill-rule="evenodd" clip-rule="evenodd" d="M8.375 9.84705C8.377 10.6581 9.034 11.3161 9.845 11.3171H13.528C13.9174 11.316 14.2905 11.1609 14.5659 10.8857C14.8414 10.6105 14.9967 10.2374 14.998 9.84805C14.9969 9.45851 14.8417 9.08522 14.5663 8.80977C14.2908 8.53432 13.9175 8.37911 13.528 8.37805H9.845C9.45546 8.37911 9.08217 8.53432 8.80672 8.80977C8.53127 9.08522 8.37606 9.45751 8.375 9.84705ZM11.315 13.5291C11.3139 13.1395 11.1587 12.7662 10.8833 12.4908C10.6078 12.2153 10.2345 12.0601 9.845 12.0591H8.375V13.5291C8.377 14.3411 9.034 14.9981 9.845 14.9991C10.2345 14.998 10.6078 14.8428 10.8833 14.5673C11.1587 14.2919 11.3139 13.9186 11.315 13.5291Z" fill="#ECB22E"/>
</svg>
