<svg width="50" height="50" viewBox="0 0 50 50" fill="none" xmlns="http://www.w3.org/2000/svg">
<path d="M33.6422 21.4844H44.9422C46.0109 21.4844 46.8766 22.3469 46.8766 23.4125V33.6875C46.8757 34.6199 46.6913 35.543 46.3337 36.4041C45.9761 37.2652 45.4525 38.0474 44.7926 38.7061C44.1327 39.3648 43.3496 39.8871 42.4878 40.2432C41.6261 40.5992 40.7027 40.7821 39.7703 40.7812H39.7391C38.8067 40.7821 37.8833 40.5992 37.0215 40.2432C36.1598 39.8871 35.3766 39.3648 34.7168 38.7061C34.0569 38.0474 33.5332 37.2652 33.1757 36.4041C32.8181 35.543 32.6336 34.6199 32.6328 33.6875V22.4969C32.6328 21.9375 33.0859 21.4844 33.6422 21.4844ZM41.2828 19.4531C43.8078 19.4531 45.8578 17.4062 45.8578 14.8844C45.8578 12.3594 43.8078 10.3125 41.2797 10.3125C38.7516 10.3125 36.7016 12.3594 36.7016 14.8844C36.7016 17.4062 38.7516 19.4531 41.2797 19.4531H41.2828Z" fill="#5059C9"/>
<path d="M27.0349 19.4531C27.9027 19.4544 28.7623 19.2846 29.5644 18.9536C30.3666 18.6225 31.0957 18.1366 31.7101 17.5237C32.3244 16.9108 32.812 16.1829 33.145 15.3815C33.4779 14.5801 33.6497 13.7209 33.6505 12.8531C33.6501 11.9848 33.4785 11.1251 33.1456 10.3231C32.8126 9.52114 32.3248 8.79269 31.7101 8.17941C31.0953 7.56613 30.3657 7.08006 29.563 6.74899C28.7603 6.41793 27.9001 6.24837 27.0318 6.25001C26.1642 6.24919 25.305 6.41925 24.5032 6.75049C23.7014 7.08173 22.9726 7.56765 22.3586 8.18052C21.7446 8.79338 21.2573 9.52119 20.9245 10.3224C20.5918 11.1236 20.4201 11.9825 20.4193 12.85C20.4193 16.4969 23.3786 19.4531 27.0318 19.4531H27.0349ZM35.8536 21.4844H17.1974C16.6915 21.4967 16.2112 21.7093 15.862 22.0755C15.5127 22.4417 15.3232 22.9316 15.3349 23.4375V35.1563C15.267 38.1936 16.4073 41.1338 18.5055 43.331C20.6037 45.5283 23.4882 46.8029 26.5255 46.875C29.5634 46.8037 32.4486 45.5294 34.5475 43.3321C36.6464 41.1348 37.7872 38.1942 37.7193 35.1563V23.4375C37.7251 23.1868 37.6814 22.9373 37.5908 22.7034C37.5002 22.4695 37.3644 22.2558 37.1911 22.0744C37.0179 21.893 36.8106 21.7476 36.5811 21.6463C36.3516 21.5451 36.1044 21.4901 35.8536 21.4844Z" fill="#7B83EB"/>
<path opacity="0.1" d="M27.545 21.4844V37.9063C27.5426 38.3992 27.3455 38.8711 26.9966 39.2194C26.6478 39.5677 26.1755 39.764 25.6825 39.7656H16.2294C15.638 38.2997 15.3335 36.7339 15.3325 35.1531V23.4375C15.3267 23.1869 15.3704 22.9376 15.4611 22.7039C15.5517 22.4702 15.6876 22.2567 15.8609 22.0755C16.0342 21.8944 16.2415 21.7492 16.471 21.6483C16.7004 21.5474 16.9475 21.4928 17.1982 21.4875H27.5419L27.545 21.4844Z" fill="black"/>
<path opacity="0.2" d="M26.524 21.4836V38.9211C26.5199 39.4135 26.3222 39.8845 25.9737 40.2325C25.6252 40.5804 25.1539 40.7772 24.6615 40.7805H16.7083C16.3569 40.1359 16.0771 39.4547 15.874 38.7492C15.5185 37.5844 15.3374 36.3733 15.3365 35.1555V23.4305C15.3306 23.1801 15.3742 22.9311 15.4647 22.6976C15.5551 22.4641 15.6907 22.2507 15.8637 22.0696C16.0367 21.8885 16.2436 21.7433 16.4727 21.6422C16.7018 21.5411 16.9486 21.4861 17.199 21.4805H26.5271L26.524 21.4836Z" fill="black"/>
<path opacity="0.2" d="M26.524 21.4836V36.8898C26.5199 37.3823 26.3222 37.8533 25.9737 38.2012C25.6252 38.5491 25.1539 38.746 24.6615 38.7492H15.874C15.5185 37.5844 15.3374 36.3733 15.3365 35.1555V23.4305C15.3306 23.1801 15.3742 22.9311 15.4647 22.6976C15.5551 22.4641 15.6907 22.2507 15.8637 22.0696C16.0367 21.8885 16.2436 21.7433 16.4727 21.6422C16.7018 21.5411 16.9486 21.4861 17.199 21.4805H26.5271L26.524 21.4836Z" fill="black"/>
<path opacity="0.2" d="M25.5075 21.4836V36.8898C25.5035 37.3823 25.3058 37.8533 24.9573 38.2012C24.6088 38.5491 24.1375 38.746 23.645 38.7492H15.87C15.5146 37.5844 15.3335 36.3733 15.3325 35.1555V23.4305C15.3267 23.1801 15.3703 22.9311 15.4608 22.6976C15.5512 22.4641 15.6868 22.2507 15.8598 22.0696C16.0327 21.8885 16.2397 21.7433 16.4688 21.6422C16.6979 21.5411 16.9447 21.4861 17.195 21.4805L25.5075 21.4836Z" fill="black"/>
<path opacity="0.1" d="M27.5422 16.2344V19.4344C27.3703 19.4437 27.2078 19.4531 27.0328 19.4531C26.8609 19.4531 26.6984 19.4437 26.5234 19.4344C25.1278 19.3268 23.8023 18.7789 22.7381 17.8697C21.6738 16.9604 20.9257 15.7367 20.6016 14.375H25.6797C26.1721 14.3766 26.6439 14.5725 26.9927 14.9201C27.3414 15.2677 27.5389 15.7389 27.5422 16.2312V16.2344Z" fill="black"/>
<path opacity="0.2" d="M26.5234 17.2508V19.4352C25.3093 19.3423 24.1445 18.9158 23.1574 18.2028C22.1703 17.4898 21.3994 16.518 20.9297 15.3945H24.6641C25.1559 15.397 25.6269 15.5932 25.975 15.9407C26.3231 16.2882 26.5202 16.7589 26.5234 17.2508Z" fill="black"/>
<path opacity="0.2" d="M26.5234 17.2508V19.4352C25.3093 19.3423 24.1445 18.9158 23.1574 18.2028C22.1703 17.4898 21.3994 16.518 20.9297 15.3945H24.6641C25.1559 15.397 25.6269 15.5932 25.975 15.9407C26.3231 16.2882 26.5202 16.7589 26.5234 17.2508Z" fill="black"/>
<path opacity="0.2" d="M25.5078 17.25V19.2719C24.4926 19.0321 23.5485 18.5555 22.7528 17.8809C21.9571 17.2063 21.3323 16.353 20.9297 15.3906H23.6484C24.1408 15.3931 24.6123 15.5898 24.9605 15.9379C25.3087 16.2861 25.5053 16.7576 25.5078 17.25Z" fill="black"/>
<path d="M4.99063 15.3906H23.6437C24.675 15.3906 25.5094 16.225 25.5094 17.2531V35.8719C25.5094 36.1167 25.4611 36.3592 25.3673 36.5853C25.2735 36.8115 25.136 37.017 24.9628 37.19C24.7895 37.363 24.5838 37.5001 24.3575 37.5935C24.1311 37.6869 23.8886 37.7348 23.6437 37.7344H4.9875C4.74291 37.7344 4.50072 37.6862 4.27475 37.5926C4.04878 37.499 3.84346 37.3618 3.67051 37.1889C3.49756 37.0159 3.36037 36.8106 3.26677 36.5846C3.17318 36.3587 3.125 36.1165 3.125 35.8719V17.2531C3.125 16.2219 3.95937 15.3906 4.99063 15.3906Z" fill="url(#paint0_linear_22250_31048)"/>
<path d="M19.225 22.4766H15.4969V32.6109H13.1219V22.4766H9.40625V20.5078H19.2219L19.225 22.4766Z" fill="white"/>
<defs>
<linearGradient id="paint0_linear_22250_31048" x1="7.0125" y1="13.9375" x2="21.5812" y2="39.2125" gradientUnits="userSpaceOnUse">
<stop stop-color="#5A62C3"/>
<stop offset="0.5" stop-color="#4D55BD"/>
<stop offset="1" stop-color="#3940AB"/>
</linearGradient>
</defs>
</svg>
