<svg width="25" height="26" viewBox="0 0 25 26" fill="none" xmlns="http://www.w3.org/2000/svg">
<rect y="25.5" width="25" height="25" rx="4" transform="rotate(-90 0 25.5)" fill="#001F3F"/>
<path d="M15.396 7H13.25V5.75C13.25 5.55109 13.171 5.36032 13.0303 5.21967C12.8897 5.07902 12.6989 5 12.5 5C12.3011 5 12.1103 5.07902 11.9697 5.21967C11.829 5.36032 11.75 5.55109 11.75 5.75V7H9.604C9.55449 6.99991 9.50607 7.01453 9.46487 7.04199C9.42368 7.06945 9.39157 7.10853 9.37261 7.15427C9.35365 7.20001 9.3487 7.25034 9.35838 7.2989C9.36806 7.34745 9.39195 7.39204 9.427 7.427L12.323 10.323C12.3462 10.3463 12.3738 10.3648 12.4042 10.3774C12.4346 10.39 12.4671 10.3964 12.5 10.3964C12.5329 10.3964 12.5654 10.39 12.5958 10.3774C12.6262 10.3648 12.6538 10.3463 12.677 10.323L15.573 7.427C15.6081 7.39204 15.6319 7.34745 15.6416 7.2989C15.6513 7.25034 15.6464 7.20001 15.6274 7.15427C15.6084 7.10853 15.5763 7.06945 15.5351 7.04199C15.4939 7.01453 15.4455 6.99991 15.396 7ZM13.25 20.25C13.25 20.4489 13.171 20.6397 13.0303 20.7803C12.8897 20.921 12.6989 21 12.5 21C12.3011 21 12.1103 20.921 11.9697 20.7803C11.829 20.6397 11.75 20.4489 11.75 20.25V19H9.604C9.55449 19.0001 9.50607 18.9855 9.46487 18.958C9.42368 18.9305 9.39157 18.8915 9.37261 18.8457C9.35365 18.8 9.3487 18.7497 9.35838 18.7011C9.36806 18.6525 9.39195 18.608 9.427 18.573L12.323 15.677C12.3462 15.6537 12.3738 15.6352 12.4042 15.6226C12.4346 15.61 12.4671 15.6036 12.5 15.6036C12.5329 15.6036 12.5654 15.61 12.5958 15.6226C12.6262 15.6352 12.6538 15.6537 12.677 15.677L15.573 18.573C15.6081 18.608 15.6319 18.6525 15.6416 18.7011C15.6513 18.7497 15.6464 18.8 15.6274 18.8457C15.6084 18.8915 15.5763 18.9305 15.5351 18.958C15.4939 18.9855 15.4455 19.0001 15.396 19H13.25V20.25ZM6.75 13.75C6.94891 13.75 7.13968 13.671 7.28033 13.5303C7.42098 13.3897 7.5 13.1989 7.5 13C7.5 12.8011 7.42098 12.6103 7.28033 12.4697C7.13968 12.329 6.94891 12.25 6.75 12.25H6.25C6.05109 12.25 5.86032 12.329 5.71967 12.4697C5.57902 12.6103 5.5 12.8011 5.5 13C5.5 13.1989 5.57902 13.3897 5.71967 13.5303C5.86032 13.671 6.05109 13.75 6.25 13.75H6.75ZM10.5 13C10.5 13.1989 10.421 13.3897 10.2803 13.5303C10.1397 13.671 9.94891 13.75 9.75 13.75H9.25C9.05109 13.75 8.86032 13.671 8.71967 13.5303C8.57902 13.3897 8.5 13.1989 8.5 13C8.5 12.8011 8.57902 12.6103 8.71967 12.4697C8.86032 12.329 9.05109 12.25 9.25 12.25H9.75C9.94891 12.25 10.1397 12.329 10.2803 12.4697C10.421 12.6103 10.5 12.8011 10.5 13ZM12.75 13.75C12.9489 13.75 13.1397 13.671 13.2803 13.5303C13.421 13.3897 13.5 13.1989 13.5 13C13.5 12.8011 13.421 12.6103 13.2803 12.4697C13.1397 12.329 12.9489 12.25 12.75 12.25H12.25C12.0511 12.25 11.8603 12.329 11.7197 12.4697C11.579 12.6103 11.5 12.8011 11.5 13C11.5 13.1989 11.579 13.3897 11.7197 13.5303C11.8603 13.671 12.0511 13.75 12.25 13.75H12.75ZM16.5 13C16.5 13.1989 16.421 13.3897 16.2803 13.5303C16.1397 13.671 15.9489 13.75 15.75 13.75H15.25C15.0511 13.75 14.8603 13.671 14.7197 13.5303C14.579 13.3897 14.5 13.1989 14.5 13C14.5 12.8011 14.579 12.6103 14.7197 12.4697C14.8603 12.329 15.0511 12.25 15.25 12.25H15.75C15.9489 12.25 16.1397 12.329 16.2803 12.4697C16.421 12.6103 16.5 12.8011 16.5 13ZM18.75 13.75C18.9489 13.75 19.1397 13.671 19.2803 13.5303C19.421 13.3897 19.5 13.1989 19.5 13C19.5 12.8011 19.421 12.6103 19.2803 12.4697C19.1397 12.329 18.9489 12.25 18.75 12.25H18.25C18.0511 12.25 17.8603 12.329 17.7197 12.4697C17.579 12.6103 17.5 12.8011 17.5 13C17.5 13.1989 17.579 13.3897 17.7197 13.5303C17.8603 13.671 18.0511 13.75 18.25 13.75H18.75Z" fill="white"/>
</svg>
