<svg width="120" height="77" viewBox="0 0 120 77" fill="none" xmlns="http://www.w3.org/2000/svg">
<path d="M35.1806 18.8321L17.2285 30.3906L34.9113 55.8335L52.8634 44.275L35.1806 18.8321Z" fill="#F5F5F5"/>
<path d="M43.587 43.0663L43.3838 44.2798L34.459 43.0416L34.6622 41.8281L43.587 43.0663Z" fill="#E0E0E0"/>
<path d="M39.0927 38.7422L40.3727 38.9193L38.9535 47.377L37.6719 47.1983L39.0927 38.7422Z" fill="#E0E0E0"/>
<path d="M30.8785 27.9924C30.8913 28.0093 29.0929 29.1905 26.8609 30.6258C24.6289 32.0611 22.8097 33.213 22.7969 33.1945C22.7841 33.176 24.5825 31.9964 26.8145 30.5596C29.0465 29.1228 30.8577 27.9739 30.8785 27.9924Z" fill="#E0E0E0"/>
<path d="M37.4737 26.3908C37.4865 26.4092 34.4945 28.3558 30.7921 30.7397C27.0897 33.1236 24.0721 35.0409 24.0625 35.024C24.0529 35.0071 27.0385 33.0574 30.7457 30.6735C34.4529 28.2896 37.4609 26.3723 37.4737 26.3908Z" fill="#E0E0E0"/>
<path d="M38.7979 28.297C38.8107 28.3155 35.8187 30.2636 32.1163 32.6475C28.4139 35.0314 25.3963 36.9487 25.3867 36.9302C25.3771 36.9118 28.3659 34.9652 32.0699 32.5797C35.7739 30.1943 38.7851 28.2785 38.7979 28.297Z" fill="#E0E0E0"/>
<path d="M40.1203 30.2033C40.1332 30.2217 37.1412 32.1698 33.4388 34.5522C29.7364 36.9346 26.7188 38.855 26.7188 38.8365C26.7188 38.818 29.6963 36.8699 33.4003 34.486C37.1044 32.1021 40.1075 30.1848 40.1203 30.2033Z" fill="#E0E0E0"/>
<path d="M41.4389 32.1095C41.4517 32.128 38.4597 34.0745 34.7573 36.4585C31.0549 38.8424 28.0373 40.7597 28.0293 40.7412C28.0213 40.7227 31.0117 38.7762 34.7189 36.3922C38.4261 34.0083 41.4389 32.091 41.4389 32.1095Z" fill="#E0E0E0"/>
<path d="M95.2097 35.8786L80.1328 45.5859L94.9831 66.9532L110.06 57.2459L95.2097 35.8786Z" fill="#F5F5F5"/>
<path d="M102.271 56.2348L102.1 57.2543L94.6035 56.2148L94.7763 55.1953L102.271 56.2348Z" fill="#E0E0E0"/>
<path d="M98.4963 52.6016L99.5715 52.7509L98.3795 59.8534L97.3027 59.704L98.4963 52.6016Z" fill="#E0E0E0"/>
<path d="M91.5936 43.5786C91.6064 43.5971 90.0976 44.5904 88.2224 45.7962C86.3472 47.0021 84.8176 47.9661 84.8048 47.9522C84.792 47.9384 86.3024 46.942 88.176 45.7346C90.0496 44.5273 91.5808 43.5525 91.5936 43.5786Z" fill="#E0E0E0"/>
<path d="M97.1373 42.2345C97.1501 42.253 94.6397 43.8916 91.5373 45.892C88.4349 47.8925 85.8957 49.5033 85.8829 49.4848C85.8701 49.4664 88.3805 47.8278 91.4829 45.8258C94.5853 43.8238 97.1197 42.2161 97.1373 42.2345Z" fill="#E0E0E0"/>
<path d="M98.2486 43.8361C98.2614 43.8545 95.751 45.4931 92.6486 47.4951C89.5462 49.4971 87.007 51.1049 86.9942 51.0864C86.9814 51.0679 89.4838 49.437 92.5942 47.435C95.7046 45.433 98.239 43.8191 98.2486 43.8361Z" fill="#E0E0E0"/>
<path d="M99.3599 45.4298C99.3727 45.4483 96.8607 47.0868 93.7599 49.0888C90.6591 51.0908 88.1183 52.6986 88.1055 52.6801C88.0927 52.6616 90.6031 51.0246 93.7055 49.0211C96.8079 47.0175 99.3487 45.4144 99.3599 45.4298Z" fill="#E0E0E0"/>
<path d="M100.479 47.0314C100.492 47.0499 97.9815 48.6869 94.8791 50.6889C91.7767 52.6909 89.2375 54.2987 89.2247 54.2817C89.2119 54.2648 91.7223 52.6247 94.8247 50.6227C97.9271 48.6207 100.458 47.0129 100.479 47.0314Z" fill="#E0E0E0"/>
<path d="M71.3571 19.7656L54.9062 11.2969L41.9505 34.6118L58.4013 43.0806L71.3571 19.7656Z" fill="#F5F5F5"/>
<path d="M55.5873 35.7845L54.5441 36.1279L51.8945 29.0793L52.9393 28.7344L55.5873 35.7845Z" fill="#E0E0E0"/>
<path d="M57.1857 30.7266L57.5665 31.7383L50.2929 34.1361L49.9121 33.1243L57.1857 30.7266Z" fill="#E0E0E0"/>
<path d="M62.3537 20.3276C62.3409 20.3507 60.6737 19.516 58.6273 18.4642C56.5809 17.4124 54.9345 16.5392 54.9473 16.5161C54.9601 16.493 56.6289 17.3277 58.6753 18.3795C60.7217 19.4313 62.3665 20.303 62.3537 20.3276Z" fill="#E0E0E0"/>
<path d="M66.3037 24.5219C66.2909 24.545 63.5293 23.1467 60.1357 21.4003C56.7421 19.654 54.0029 18.2187 54.0157 18.1956C54.0285 18.1725 56.7885 19.5693 60.1821 21.3172C63.5757 23.0651 66.3165 24.4988 66.3037 24.5219Z" fill="#E0E0E0"/>
<path d="M65.333 26.2641C65.3202 26.2872 62.5586 24.8904 59.165 23.1425C55.7714 21.3946 53.0322 19.9609 53.045 19.9378C53.0578 19.9147 55.8178 21.313 59.2114 23.0594C62.605 24.8057 65.3458 26.241 65.333 26.2641Z" fill="#E0E0E0"/>
<path d="M64.3642 28.0127C64.3514 28.0358 61.5898 26.639 58.1962 24.8926C54.8026 23.1463 52.0634 21.7156 52.0762 21.6879C52.089 21.6602 54.849 23.0616 58.2426 24.8079C61.6362 26.5543 64.377 27.9896 64.3642 28.0127Z" fill="#E0E0E0"/>
<path d="M63.3955 29.7548C63.3827 29.7779 60.6211 28.3811 57.2275 26.6347C53.8339 24.8884 51.0931 23.4531 51.1075 23.43C51.1219 23.4069 53.8803 24.8037 57.2739 26.55C60.6675 28.2964 63.4083 29.7317 63.3955 29.7548Z" fill="#E0E0E0"/>
<path opacity="0.2" d="M63.4792 0H63.0664V6.77292H63.4792V0Z" fill="black"/>
<path d="M53.6367 14.9647H72.9103C72.9103 14.9647 71.1311 6.77344 63.1279 6.77344C56.0095 6.77344 53.6367 14.9647 53.6367 14.9647Z" fill="#FF725E"/>
<path d="M63.4792 0H63.0664V6.77292H63.4792V0Z" fill="#FF725E"/>
<path d="M106.187 67.7353C106.187 67.7569 85.5069 67.7754 60.0013 67.7754C34.4957 67.7754 13.8125 67.7615 13.8125 67.7353C13.8125 67.7092 34.4893 67.6953 60.0013 67.6953C85.5133 67.6953 106.187 67.7122 106.187 67.7353Z" fill="#263238"/>
<path d="M18.9255 58.0875C19.196 58.1063 19.4598 58.1773 19.7012 58.2964C19.9426 58.4154 20.1565 58.5801 20.3303 58.7805C20.6759 59.1836 20.9206 59.6578 21.0455 60.1665C21.3159 61.1398 21.1495 62.2901 20.8615 63.2588C19.7671 62.8815 19.0903 61.7573 18.7815 61.1659C18.3015 60.2327 18.0151 58.2615 18.9207 58.0859" fill="#FF725E"/>
<path d="M22.4383 64.4403C22.2739 64.195 22.18 63.9122 22.1659 63.6206C22.1519 63.329 22.2182 63.0391 22.3583 62.7802C22.5027 62.5237 22.6988 62.2975 22.935 62.1148C23.1713 61.9321 23.443 61.7965 23.7343 61.716C24.0015 61.6359 24.3119 61.6036 24.5439 61.753C24.6485 61.8291 24.7299 61.9308 24.7797 62.0476C24.8295 62.1643 24.8459 62.2918 24.8271 62.4167C24.7851 62.6669 24.6746 62.9019 24.5071 63.0974C23.9743 63.7919 23.3279 64.3694 22.4271 64.4403" fill="#FF725E"/>
<path d="M22.56 67.6976C22.5363 67.6322 22.5196 67.5646 22.5104 67.4959C22.4816 67.3511 22.4432 67.1648 22.3968 66.9415C22.2532 66.33 22.2132 65.7003 22.2784 65.0765C22.3538 64.4498 22.6019 63.8538 22.9968 63.3502C23.1175 63.1996 23.2566 63.0636 23.4112 62.9452C23.4532 62.9131 23.497 62.8833 23.5424 62.8558C23.5568 62.8443 23.573 62.835 23.5904 62.8281C23.388 62.9945 23.2031 63.1797 23.0384 63.381C22.6643 63.8851 22.4287 64.472 22.3536 65.0873C22.2512 65.8049 22.3776 66.4625 22.4512 66.9353C22.4896 67.1709 22.5216 67.3619 22.5392 67.4943C22.5518 67.5614 22.5588 67.6294 22.56 67.6976Z" fill="#263238"/>
<path d="M19.2793 59.5703C19.2976 59.5946 19.3126 59.621 19.3241 59.6489C19.3529 59.7105 19.3913 59.7875 19.4361 59.8845C19.5337 60.0893 19.6697 60.3865 19.8345 60.7546C20.1641 61.4922 20.6057 62.5179 21.0665 63.6606C21.5273 64.8032 21.9193 65.8458 22.1865 66.605C22.3241 66.9839 22.4313 67.2919 22.5065 67.5059C22.5401 67.6076 22.5657 67.6892 22.5865 67.7523C22.5979 67.7806 22.606 67.8101 22.6105 67.8401C22.5943 67.814 22.5814 67.7861 22.5721 67.757C22.5481 67.6954 22.5177 67.6153 22.4777 67.5152L22.1401 66.622C21.8537 65.8689 21.4537 64.8279 20.9945 63.6867C20.5353 62.5456 20.1001 61.5169 19.7833 60.7746C19.6233 60.4096 19.5001 60.1124 19.4089 59.8953C19.3673 59.7967 19.3337 59.7182 19.3081 59.655C19.2961 59.6276 19.2864 59.5993 19.2793 59.5703Z" fill="#263238"/>
<path d="M21.2592 65.5442C20.93 65.0167 20.475 64.5721 19.9319 64.2473C19.3888 63.9224 18.7732 63.7267 18.136 63.6762C17.816 63.6546 17.4224 63.707 17.2784 63.9842C17.1344 64.2614 17.3264 64.6002 17.5472 64.825C18.0163 65.2974 18.6202 65.6255 19.2828 65.768C19.9454 65.9105 20.637 65.8611 21.2704 65.6258" fill="#FF725E"/>
<path d="M18.6289 64.5092C18.6967 64.5059 18.7648 64.5085 18.8321 64.5169C18.911 64.521 18.9895 64.5297 19.0673 64.543C19.1585 64.56 19.2657 64.5692 19.3777 64.6C19.5029 64.6255 19.6263 64.6584 19.7473 64.6986C19.8875 64.7419 20.0248 64.7934 20.1585 64.8526C20.4661 64.9852 20.757 65.1511 21.0257 65.3469C21.2913 65.5474 21.5318 65.7769 21.7425 66.0307C21.8335 66.1412 21.9174 66.2569 21.9937 66.3772C22.0627 66.4811 22.1257 66.5885 22.1825 66.699C22.2306 66.789 22.2733 66.8816 22.3105 66.9762C22.3426 67.0463 22.3699 67.1183 22.3921 67.1918C22.4158 67.2533 22.4335 67.3167 22.4449 67.3813C22.4273 67.3813 22.3505 67.1164 22.1345 66.7221C22.0757 66.6163 22.0111 66.5134 21.9409 66.4141C21.8629 66.2975 21.7786 66.1849 21.6881 66.0769C21.2696 65.5791 20.7359 65.1825 20.1297 64.9188C19.9905 64.8603 19.8577 64.8048 19.7281 64.7648C19.6091 64.7231 19.4879 64.6876 19.3649 64.6585C18.9169 64.54 18.6273 64.5261 18.6289 64.5092Z" fill="#263238"/>
<path d="M47.8395 36.1209L42.1755 64.1181L41.4395 67.7833L79.1995 67.6077C80.8955 67.6 82.3995 66.1509 82.9419 63.998L89.6395 37.5669C90.0539 35.933 89.1451 34.2328 87.8587 34.2344L49.6315 34.2729C48.7995 34.2713 48.0539 35.029 47.8395 36.1209Z" fill="#FF725E"/>
<g opacity="0.5">
<path d="M47.8395 36.1209L42.1755 64.1181L41.4395 67.7833L79.1995 67.6077C80.8955 67.6 82.3995 66.1509 82.9419 63.998L89.6395 37.5669C90.0539 35.933 89.1451 34.2328 87.8587 34.2344L49.6315 34.2729C48.7995 34.2713 48.0539 35.029 47.8395 36.1209Z" fill="black"/>
</g>
<path d="M75.582 62.216L71.582 31.1989C71.422 29.9284 70.3676 28.9798 69.1244 28.9844L60.3564 29.0106C60.0306 29.0141 59.7089 29.0815 59.411 29.2086C59.1131 29.3356 58.8452 29.5198 58.6236 29.7498L54.4636 34.011L30.0796 34.1372C28.59 34.1449 27.4444 35.5032 27.6412 37.0278L31.3548 65.6949C31.5148 66.9639 32.5692 67.911 33.8092 67.9094L76.3132 67.8278C81.046 67.9217 81.4988 66.5773 81.4988 66.5773C76.0652 67.7339 75.582 62.2238 75.582 62.216Z" fill="#FF725E"/>
<g opacity="0.5">
<path d="M57.2548 56.0134L55.8212 57.4949L44.7812 47.9346L46.2148 46.4531L57.2548 56.0134Z" fill="white"/>
<path d="M55.2209 46.125L56.8049 47.4971L46.8161 57.8228L45.2305 56.4507L55.2209 46.125Z" fill="white"/>
</g>
<path d="M81.6515 15.9837C81.5997 15.9627 81.5552 15.9279 81.5232 15.8835C81.4912 15.839 81.473 15.7867 81.4707 15.7327L81.4067 14.3036C81.4044 14.2592 81.4129 14.2149 81.4316 14.1742C81.4502 14.1335 81.4784 14.0975 81.5139 14.0691C81.5495 14.0407 81.5914 14.0207 81.6364 14.0106C81.6813 14.0005 81.7282 14.0006 81.7731 14.011C81.897 14.0367 82.025 14.0378 82.1494 14.0142C82.2737 13.9907 82.3918 13.9429 82.4963 13.8739C82.5925 13.8153 82.6752 13.7383 82.7393 13.6477C82.8035 13.5571 82.8476 13.4549 82.8691 13.3472C82.8836 13.2382 82.8752 13.1276 82.8444 13.0217C82.8136 12.9159 82.7611 12.8171 82.6899 12.7312C82.6149 12.6335 82.5206 12.5509 82.4125 12.4883C82.3043 12.4257 82.1843 12.3842 82.0595 12.3663C81.8077 12.3528 81.5586 12.4215 81.3524 12.5612C81.1463 12.701 80.9951 12.9036 80.9235 13.1363C80.8996 13.2068 80.8483 13.2657 80.7804 13.3007C80.7125 13.3358 80.6332 13.3443 80.559 13.3244C80.4847 13.3046 80.4213 13.2579 80.3819 13.1942C80.3425 13.1304 80.3302 13.0545 80.3475 12.9823C80.4563 12.6163 80.6928 12.2975 81.0171 12.0796C81.3414 11.8617 81.7338 11.7579 82.1283 11.7857C82.3336 11.812 82.5313 11.8778 82.7097 11.9791C82.8881 12.0804 83.0435 12.2152 83.1667 12.3755C83.2865 12.524 83.3742 12.6942 83.4245 12.8759C83.4748 13.0577 83.4867 13.2472 83.4595 13.4335C83.4231 13.6194 83.3476 13.7963 83.2375 13.9531C83.1274 14.1099 82.9852 14.2433 82.8195 14.3452C82.5794 14.5007 82.2991 14.5887 82.0099 14.5993L82.0595 15.7019C82.0613 15.7503 82.0505 15.7985 82.0279 15.8418C82.0052 15.8851 81.9716 15.9222 81.9302 15.9497C81.8887 15.9772 81.8406 15.9942 81.7905 15.999C81.7404 16.0039 81.6898 15.9965 81.6435 15.9776L81.6515 15.9837Z" fill="#FF725E"/>
<path d="M82.0906 16.5631C82.0939 16.6096 82.0829 16.656 82.0588 16.6965C82.0348 16.7369 81.9988 16.7696 81.9555 16.7904C81.9121 16.8112 81.8633 16.8191 81.8153 16.8132C81.7672 16.8073 81.7221 16.7878 81.6856 16.7571C81.649 16.7265 81.6228 16.6862 81.6101 16.6412C81.5974 16.5962 81.5989 16.5486 81.6143 16.5044C81.6298 16.4602 81.6585 16.4214 81.6968 16.3929C81.7352 16.3644 81.7814 16.3476 81.8298 16.3444C81.8618 16.3421 81.8941 16.3459 81.9246 16.3557C81.9551 16.3655 81.9833 16.381 82.0076 16.4013C82.0319 16.4217 82.0517 16.4464 82.0659 16.4742C82.0802 16.502 82.0885 16.5322 82.0906 16.5631Z" fill="#FF725E"/>
<path d="M76.5107 13.9646C76.5176 13.9341 76.5224 13.9033 76.5251 13.8722C76.5251 13.8044 76.5427 13.7182 76.5555 13.5965C76.5712 13.4472 76.5974 13.299 76.6339 13.153C76.6547 13.0668 76.6659 12.9713 76.6979 12.8743C76.7299 12.7773 76.7619 12.6725 76.7971 12.5663C76.9823 12.0398 77.2523 11.5446 77.5971 11.0987C78.049 10.5213 78.6219 10.0417 79.2787 9.6911C79.6525 9.48822 80.0507 9.32998 80.4643 9.21986C80.9107 9.10596 81.3705 9.04799 81.8323 9.04738C82.0755 9.04362 82.3188 9.05597 82.5603 9.08434C82.6835 9.09666 82.8051 9.12746 82.9283 9.14748C83.0529 9.16802 83.1758 9.19683 83.2963 9.23372C83.8006 9.36936 84.2803 9.57867 84.7187 9.85434C85.6934 10.4628 86.4359 11.3602 86.8339 12.4107C87.0482 12.9735 87.1566 13.5685 87.1539 14.1679C87.1605 14.7853 87.0471 15.3985 86.8195 15.9758L86.7475 16.1514L86.7379 16.1745L86.7475 16.1976C87.1491 17.0862 87.5475 17.9594 87.9235 18.8048L87.9907 18.7309L85.5907 17.8454L85.5619 17.8346L85.5379 17.8562C84.903 18.4483 84.1258 18.88 83.2755 19.1128C82.5489 19.3053 81.7882 19.3474 81.0436 19.2361C80.2989 19.1249 79.5872 18.863 78.9555 18.4676C78.438 18.141 77.982 17.7322 77.6067 17.2587C77.0628 16.5675 76.7105 15.7546 76.5827 14.8963C76.5635 14.7423 76.5475 14.6129 76.5331 14.4959C76.5187 14.3789 76.5331 14.2834 76.5251 14.2018C76.5171 14.1201 76.5251 14.0662 76.5251 14.0216C76.5331 14.0204 76.5403 14.0164 76.5453 14.0103C76.5503 14.0042 76.5528 13.9966 76.5522 13.9888C76.5516 13.9811 76.548 13.9738 76.542 13.9685C76.5361 13.9633 76.5284 13.9603 76.5203 13.9603C76.5122 13.9603 76.5044 13.9633 76.4985 13.9685C76.4926 13.9738 76.489 13.9811 76.4884 13.9888C76.4878 13.9966 76.4902 14.0042 76.4952 14.0103C76.5003 14.0164 76.5075 14.0204 76.5155 14.0216C76.5155 14.0662 76.5155 14.1263 76.5155 14.2018C76.5155 14.2772 76.5155 14.3819 76.5155 14.499C76.5155 14.616 76.5427 14.75 76.5587 14.9025C76.6113 15.2729 76.703 15.6372 76.8323 15.9897C77.0154 16.4553 77.2618 16.8954 77.5651 17.2987C77.9419 17.7807 78.4012 18.1973 78.9235 18.5307C79.563 18.936 80.2848 19.2057 81.0409 19.322C81.797 19.4383 82.5702 19.3985 83.3091 19.2052C84.1696 18.97 84.9566 18.5341 85.6003 17.9363L85.5475 17.947L87.9475 18.8372L88.0675 18.8818L88.0147 18.7632C87.6339 17.9178 87.2403 17.0461 86.8403 16.156V16.2007L86.9139 16.0205C87.1473 15.4306 87.2635 14.8037 87.2563 14.1725C87.2613 13.5604 87.1529 12.9523 86.9363 12.3769C86.5297 11.3053 85.7707 10.391 84.7747 9.77272C84.3253 9.49062 83.833 9.2776 83.3155 9.14132C83.1931 9.10402 83.0679 9.07571 82.9411 9.05662C82.8163 9.03506 82.6931 9.00426 82.5683 8.99348C82.3236 8.96424 82.0772 8.95086 81.8307 8.95344C81.3615 8.95535 80.8946 9.01644 80.4419 9.13516C80.0228 9.24971 79.6194 9.41205 79.2403 9.61872C78.5769 9.97793 78.0004 10.4687 77.5491 11.0586C77.2053 11.5119 76.939 12.0152 76.7603 12.5493C76.7267 12.6602 76.6947 12.7665 76.6659 12.8573C76.6404 12.9502 76.6201 13.0442 76.6051 13.1392C76.5708 13.2861 76.5483 13.4354 76.5379 13.5858C76.5283 13.7043 76.5219 13.7952 76.5171 13.863C76.5104 13.8964 76.5082 13.9306 76.5107 13.9646Z" fill="#263238"/>
</svg>
