<svg width="15" height="14" viewBox="0 0 15 14" fill="none" xmlns="http://www.w3.org/2000/svg">
<path fill-rule="evenodd" clip-rule="evenodd" d="M13.724 1.20131H8.659V0.0078125L0.333496 1.29281V12.5563L8.659 13.9903V12.2213H13.724C13.8774 12.2291 14.0276 12.1758 14.1418 12.0731C14.2561 11.9704 14.325 11.8267 14.3335 11.6733V1.74881C14.3248 1.59554 14.2559 1.45193 14.1417 1.34934C14.0275 1.24676 13.8773 1.19354 13.724 1.20131ZM13.804 11.7643H8.642L8.6335 10.8198H9.877V9.71981H8.624L8.618 9.06981H9.877V7.96981H8.6085L8.6025 7.31981H9.877V6.21981H8.5985V5.56981H9.877V4.46981H8.5985V3.81981H9.877V2.71981H8.5985V1.71981H13.804V11.7643Z" fill="#20744A"/>
<path d="M12.7386 2.71875H10.5771V3.81875H12.7386V2.71875Z" fill="#20744A"/>
<path d="M12.7386 4.46875H10.5771V5.56875H12.7386V4.46875Z" fill="#20744A"/>
<path d="M12.7386 6.21875H10.5771V7.31875H12.7386V6.21875Z" fill="#20744A"/>
<path d="M12.7386 7.96875H10.5771V9.06875H12.7386V7.96875Z" fill="#20744A"/>
<path d="M12.7386 9.71875H10.5771V10.8187H12.7386V9.71875Z" fill="#20744A"/>
<path fill-rule="evenodd" clip-rule="evenodd" d="M2.50704 4.33622L3.58004 4.27472L4.25454 6.12922L5.05154 4.19822L6.12454 4.13672L4.82154 6.76972L6.12454 9.40922L4.99004 9.33272L4.22404 7.32072L3.45754 9.25622L2.41504 9.16422L3.62604 6.83272L2.50704 4.33622Z" fill="white"/>
</svg>
