<svg width="120" height="120" viewBox="0 0 120 120" fill="none" xmlns="http://www.w3.org/2000/svg">
<path d="M60.2686 115.763C90.8088 115.763 115.567 101.472 115.567 83.8426C115.567 66.2133 90.8088 51.9219 60.2686 51.9219C29.7284 51.9219 4.9707 66.2133 4.9707 83.8426C4.9707 101.472 29.7284 115.763 60.2686 115.763Z" fill="#F5F5F5"/>
<path d="M104.843 16.6798L103.359 15.8235C103.367 15.7656 103.372 15.7059 103.372 15.6415V15.2117C103.372 14.4468 102.835 13.5171 102.172 13.1347C101.904 12.9799 101.657 12.9403 101.458 12.9967C101.349 11.9098 100.595 10.6805 99.6782 10.1513C98.6872 9.57915 97.8842 10.0431 97.8842 11.1871V11.8301C97.8842 12.1265 97.9389 12.4395 98.0361 12.7503L96.804 12.0389C96.4365 11.8267 96.1387 11.9988 96.1387 12.4229C96.1387 12.8472 96.4365 13.363 96.804 13.5751L104.843 18.2163C105.21 18.4284 105.508 18.2563 105.508 17.8323C105.508 17.4077 105.21 16.8919 104.843 16.6798Z" fill="#EBEBEB"/>
<path d="M85.0168 11.9609L85.835 12.2756V10.4729C85.835 9.04396 86.9748 8.70124 88.2124 9.41572C89.4499 10.1302 90.4533 11.8678 90.4533 13.297V13.5588C90.7341 13.4468 91.0968 13.4902 91.4932 13.7192C92.3839 14.2332 93.1058 15.4839 93.1058 16.512V16.6311L94.2468 17.2899C94.8333 17.6285 95.3088 18.452 95.3088 19.129C95.3088 19.806 94.8333 20.0806 94.2468 19.742L85.0171 14.4132C84.4305 14.0746 83.9551 13.2512 83.9551 12.5739C83.9548 11.8968 84.4303 11.6223 85.0168 11.9609Z" fill="#EBEBEB"/>
<path d="M87.881 105.508C97.0768 105.508 104.531 101.204 104.531 95.8944C104.531 90.5852 97.0768 86.2812 87.881 86.2812C78.6851 86.2812 71.2305 90.5852 71.2305 95.8944C71.2305 101.204 78.6851 105.508 87.881 105.508Z" fill="#E0E0E0"/>
<path d="M24.2627 96.9286L51.3572 81.2853C51.6534 81.1145 51.6534 80.8373 51.3572 80.6661L49.4113 79.5427C49.1151 79.3718 48.6351 79.3718 48.339 79.5427L37.3398 85.8931C37.0436 86.064 36.5636 86.064 36.2675 85.8931L16.215 74.3158C15.9188 74.1449 15.4388 74.1446 15.1427 74.3158L14.2026 74.8584C13.9064 75.0293 13.9064 75.3065 14.2026 75.4773L34.2767 87.0667C34.5728 87.2376 34.5726 87.5145 34.2762 87.6852L21.2447 95.1866C20.9483 95.3573 20.948 95.634 21.2442 95.8051L23.1903 96.9286C23.4865 97.0994 23.9667 97.0994 24.2627 96.9286Z" fill="#E0E0E0"/>
<path d="M26.3147 93.8497L28.2263 92.7575C28.2263 92.7575 29.1431 87.705 28.4574 83.3619C27.4934 77.2556 23.3358 75.1494 21.8258 75.7564C20.3157 76.3633 19.9607 78.1722 22.6878 81.7004C24.2968 83.7822 26.3663 88.1828 26.3147 93.8497Z" fill="#87CEEB"/>
<g opacity="0.15">
<path d="M26.3147 93.8497L28.2263 92.7575C28.2263 92.7575 29.1431 87.705 28.4574 83.3619C27.4934 77.2556 23.3358 75.1494 21.8258 75.7564C20.3157 76.3633 19.9607 78.1722 22.6878 81.7004C24.2968 83.7822 26.3663 88.1828 26.3147 93.8497Z" fill="black"/>
</g>
<path d="M27.0086 91.4242C27.0021 91.4242 26.9961 91.4237 26.9896 91.4228C26.9152 91.4124 26.8629 91.3438 26.8732 91.2692C27.6633 85.5524 25.3643 79.2891 22.7812 76.7648C22.7274 76.7124 22.7265 76.6258 22.779 76.572C22.8318 76.5187 22.918 76.5173 22.9718 76.5699C25.6019 79.14 27.9448 85.5053 27.1432 91.3064C27.1341 91.3745 27.0755 91.4242 27.0086 91.4242Z" fill="white"/>
<path d="M21.0117 96.9124C20.7098 97.0859 20.0873 96.7067 19.8487 96.5466C19.4405 96.2728 19.1097 95.8849 18.8901 95.4462C18.6345 94.9357 18.57 94.3888 18.6501 93.8238C18.6917 93.531 18.7737 93.2454 18.8553 92.9613C18.9355 92.6821 19.0159 92.403 19.0961 92.1239C19.1753 91.8484 19.2552 91.5635 19.2189 91.2793C19.1457 90.7067 18.6374 90.3054 18.1752 89.9593C17.6642 89.5765 17.1319 89.0716 17.1348 88.3821C17.1369 87.8502 17.4125 87.3561 17.7422 86.9385C18.072 86.5209 18.4632 86.152 18.761 85.7113C18.9756 85.3941 19.1429 85.0213 19.1081 84.64C19.0865 84.4031 18.9881 84.1799 18.8748 83.9706C18.6314 83.5218 18.3101 83.1105 18.1423 82.6283C17.9745 82.1461 17.9983 81.5461 18.3746 81.201C18.6837 80.9178 19.1426 80.8782 19.5609 80.9058C19.9478 80.9315 20.3258 81.106 20.6645 81.2941C21.7591 81.9028 22.3836 83.199 23.5452 83.6675C23.9933 83.8482 24.4841 83.8876 24.9511 84.0112C25.4181 84.1345 25.8943 84.3731 26.1105 84.8051C26.5368 85.6566 25.7457 86.7061 26.0455 87.6102C26.3107 88.4101 27.0881 88.7164 27.5246 89.4373C27.7157 89.7527 27.7596 90.1173 27.7289 90.4847C27.6768 91.1065 27.5856 91.5628 27.2873 92.2542C27.0408 92.8257 26.316 93.8483 26.316 93.8483C26.2973 93.8665 21.0581 96.8857 21.0117 96.9124Z" fill="#87CEEB"/>
<path d="M24.1154 95.2555C24.1135 95.2555 24.1118 95.2555 24.1118 95.2555C24.0345 95.2523 23.9762 95.1887 23.9793 95.1136C24.2044 89.7026 21.6549 83.729 19.8009 81.9935C19.7462 81.9422 19.7431 81.856 19.7944 81.8008C19.846 81.7461 19.932 81.7432 19.9872 81.7943C21.8784 83.5648 24.4797 89.6378 24.2517 95.1249C24.2486 95.1981 24.1881 95.2555 24.1154 95.2555Z" fill="white"/>
<path d="M23.3047 88.8648C23.2915 88.8648 23.2778 88.8629 23.2646 88.8588C21.5263 88.3214 19.3593 88.2266 19.3379 88.2259C19.2626 88.2228 19.2043 88.1592 19.2071 88.0841C19.2103 88.009 19.2674 87.9497 19.349 87.9533C19.3711 87.9542 21.5721 88.0505 23.345 88.5984C23.4167 88.6205 23.4573 88.697 23.435 88.7688C23.4167 88.8274 23.363 88.8648 23.3047 88.8648Z" fill="white"/>
<path d="M42.2845 76.2537V75.5469L29.7207 82.8146L30.3202 83.1681L42.2845 76.2537Z" fill="#37474F"/>
<path d="M26.6194 28.4146C26.683 28.4513 26.7154 28.525 26.699 28.5967L16.29 74.8073L15.9924 76.1182C15.8422 76.1271 15.6919 76.0975 15.5772 76.0356C15.5743 76.0327 15.5714 76.0327 15.5683 76.0296L14.8709 75.6259C14.8075 75.5892 14.7751 75.5153 14.7912 75.4438L25.4772 28.0061C25.5022 27.8957 25.6267 27.841 25.7246 27.8976L26.6194 28.4146Z" fill="#37474F"/>
<path d="M27.9247 27.7812L17.1855 75.4421C17.1682 75.5182 17.1202 75.5837 17.0527 75.6226L16.3543 76.0268C16.2543 76.0858 16.1247 76.1151 15.9922 76.1151L16.2898 74.8042L26.7259 28.4732L27.9247 27.7812Z" fill="#455A64"/>
<path d="M29.1236 92.0115V93.39C28.9822 93.39 28.8437 93.3605 28.7376 93.3017C28.7348 93.2988 28.7319 93.2988 28.7288 93.2957L28.0808 92.9215C27.9747 92.8596 27.9248 92.7771 27.9248 92.6976L27.9219 51.3125L29.1207 52.0047L29.1236 92.0115Z" fill="#37474F"/>
<path d="M30.3228 51.3125L30.3199 92.6803V92.7099C30.317 92.7864 30.2609 92.8601 30.1608 92.9189L29.5157 93.2931C29.4096 93.3579 29.2653 93.3874 29.124 93.3874V92.0088L29.1211 52.002L30.3228 51.3125Z" fill="#455A64"/>
<path d="M44.6564 84.4255C44.5738 84.4255 44.426 84.3983 44.2834 84.317L43.6165 83.9313C43.5308 83.8819 43.471 83.7976 43.4523 83.7004L36.3145 46.4688L37.5133 47.1609L44.4001 83.0853L44.6564 84.4255Z" fill="#37474F"/>
<path d="M45.853 83.7244C45.853 83.7273 45.853 83.7273 45.853 83.7302C45.853 83.8128 45.797 83.8922 45.6878 83.957L45.078 84.3105L45.0487 84.3283C44.9398 84.3902 44.7984 84.4226 44.6568 84.4226L44.4005 83.0824L37.5137 47.158L38.7156 46.4688L45.8412 83.6714C45.8412 83.6743 45.8441 83.6774 45.8441 83.6803L45.853 83.7244Z" fill="#455A64"/>
<path d="M29.9082 84.7804L43.4812 76.9439V75.5625L29.9082 83.3987V84.7804Z" fill="#455A64"/>
<path d="M44.0685 10.9113L44.0687 10.9103C44.0687 10.9103 44.0596 10.9053 44.0452 10.8971C44.0236 10.8846 44.0015 10.8726 43.9799 10.8604C43.6317 10.665 42.1917 9.85337 39.0851 8.06897C36.6057 6.64481 33.5277 6.73073 30.1929 8.65625C21.9866 13.395 15.335 27.479 15.3359 40.1138C15.3367 47.6157 17.6822 52.9202 21.3052 55C23.4842 56.2509 25.7205 57.5181 26.2298 57.8066C26.248 57.8171 26.2667 57.8274 26.2852 57.838C26.3191 57.857 26.338 57.868 26.338 57.868L26.339 57.8675C28.8026 59.2382 31.8453 59.1326 35.1391 57.2306C43.3442 52.4925 49.9958 38.4083 49.9958 25.773C49.996 18.2994 47.6683 13.0077 44.0685 10.9113Z" fill="#87CEEB"/>
<path opacity="0.1" d="M44.0685 10.9113L44.0687 10.9103C44.0687 10.9103 44.0596 10.9053 44.0452 10.8971C44.0236 10.8846 44.0015 10.8726 43.9799 10.8604C43.6317 10.665 42.1917 9.85337 39.0851 8.06897C36.6057 6.64481 33.5277 6.73073 30.1929 8.65625C21.9866 13.395 15.335 27.479 15.3359 40.1138C15.3367 47.6157 17.6822 52.9202 21.3052 55C23.4842 56.2509 25.7205 57.5181 26.2298 57.8066C26.248 57.8171 26.2667 57.8274 26.2852 57.838C26.3191 57.857 26.338 57.868 26.338 57.868L26.339 57.8675C28.8026 59.2382 31.8453 59.1326 35.1391 57.2306C43.3442 52.4925 49.9958 38.4083 49.9958 25.773C49.996 18.2994 47.6683 13.0077 44.0685 10.9113Z" fill="black"/>
<path opacity="0.1" d="M46.8244 41.7353L18.1221 25.1641C16.3687 29.9321 15.3355 35.1353 15.3359 40.1139C15.3367 47.6158 17.6822 52.9203 21.3052 55.0001C23.4842 56.251 25.7205 57.5182 26.2298 57.8067C26.248 57.8173 26.2667 57.8276 26.2852 57.8381C26.3191 57.8571 26.338 57.8681 26.338 57.8681L26.339 57.8677C28.8026 59.2383 31.8453 59.1327 35.1391 57.2307C39.8812 54.4925 44.104 48.6327 46.8244 41.7353Z" fill="black"/>
<path opacity="0.1" d="M15.3652 41.5391C15.6444 48.2886 17.9155 53.0574 21.3052 55.0033C23.4842 56.2542 25.7205 57.5214 26.2298 57.8099C26.248 57.8204 26.2668 57.8307 26.2852 57.8413C26.3191 57.8603 26.338 57.8713 26.338 57.8713L26.339 57.8708C28.8026 59.2415 31.8453 59.1359 35.1391 57.2339C36.2493 56.5926 37.3308 55.7785 38.3714 54.8219L15.3652 41.5391Z" fill="black"/>
<path d="M35.1363 11.4766C26.9299 16.2152 20.2783 30.2991 20.2793 42.9341C20.2805 55.5689 26.9331 61.9705 35.1382 57.2324C43.3433 52.4943 49.9949 38.4101 49.9949 25.7749C49.9951 13.1396 43.3426 6.73807 35.1363 11.4766Z" fill="#87CEEB"/>
<path d="M35.1371 16.0179C28.5604 19.8154 23.2297 31.1026 23.2305 41.2284C23.2314 51.3543 28.5628 56.4845 35.1385 52.6872C41.7143 48.89 47.0452 37.6028 47.0452 27.4767C47.0452 17.3506 41.7138 12.2204 35.1371 16.0179Z" fill="#FAFAFA"/>
<path d="M35.136 20.5592C30.1889 23.4157 26.179 31.9062 26.1797 39.5228C26.1804 47.1397 30.1908 50.9987 35.1372 48.1424C40.0836 45.2862 44.0935 36.7957 44.0935 29.1786C44.0935 21.5617 40.0831 17.7025 35.136 20.5592Z" fill="#87CEEB"/>
<path d="M35.1369 25.1082C31.8193 27.0238 29.1304 32.7174 29.1309 37.825C29.1313 42.9327 31.8208 45.5206 35.1378 43.6052C38.4549 41.6897 41.1438 35.9962 41.1438 30.8883C41.1436 25.7806 38.4544 23.1927 35.1369 25.1082Z" fill="#FAFAFA"/>
<path d="M35.1377 29.6495C33.4498 30.6242 32.0818 33.521 32.082 36.1197C32.0823 38.7184 33.4505 40.035 35.1382 39.0606C36.8259 38.086 38.1939 35.1894 38.1939 32.5905C38.1939 29.9915 36.8256 28.6749 35.1377 29.6495Z" fill="#455A64"/>
<path d="M91.0551 90.9375C90.9923 91.3904 90.7859 91.7605 91.3763 92.8081C91.8342 93.6202 92.4975 93.9569 92.9235 94.2519C93.3495 94.5471 93.8401 95.0012 94.2095 95.4586C94.5378 95.8652 94.911 96.3325 95.5571 96.7621C95.9603 97.0301 96.9855 96.9274 97.4516 96.6574C97.9177 96.3874 98.0504 95.9545 97.9194 95.1713C97.7915 94.4065 95.3689 94.4257 95.3689 94.4257L91.0551 90.9375Z" fill="#3E5A65"/>
<path d="M97.5141 86.1641L97.3934 93.5045C97.3946 93.9369 95.0253 94.4753 94.5083 93.4898C94.4951 93.4613 94.4318 92.345 94.1536 91.2374C93.9693 90.5028 93.6559 89.2195 93.6559 89.2195C93.3849 87.6919 93.2656 86.5629 93.2656 86.5629L97.5141 86.1641Z" fill="#FFA8A7"/>
<path d="M86.6072 89.5451C86.6072 89.5451 85.491 96.3371 85.4583 96.7103C85.4259 97.0835 84.3716 97.3283 83.5921 97.3024C82.7876 97.2758 82.3499 96.9179 82.3583 96.7497L82.166 89.5L86.6072 89.5451Z" fill="#FFA8A7"/>
<path d="M87.602 80.4974C87.602 80.4974 87.6992 79.1887 88.4718 75.2423C89.0075 72.5054 89.4558 69.5685 89.4558 69.5685C89.4558 69.5685 90.4239 73.1094 90.9795 75.9026C91.3835 77.933 91.7867 79.8453 92.571 83.7141C93.2399 87.0136 93.8185 88.7553 93.8185 88.7553C95.3228 89.5547 97.5241 88.6377 97.5241 88.6377C97.5241 88.6377 97.6158 86.2783 97.5848 83.3639C97.5445 79.5801 96.7179 78.1 96.7179 78.1C96.7179 78.1 96.399 72.999 96.2454 69.2356C96.0277 63.8939 96.1955 58.9178 94.9371 54.7566C94.7432 54.7046 82.929 49.5462 82.6285 56.6102C82.5543 58.3542 82.4255 63.0002 82.3004 66.7264C82.0883 73.0439 82.1475 77.7419 82.1396 79.894C82.0971 81.9638 82.0777 83.9051 82.1171 87.7699C82.1341 89.4575 82.2342 90.8884 82.2342 90.8884C83.6485 91.8376 86.6763 90.6753 86.6763 90.6753C86.6763 90.6753 86.8103 89.0154 87.2293 86.6687C87.9625 82.5599 87.602 80.4974 87.602 80.4974Z" fill="#3E5A65"/>
<g opacity="0.2">
<path d="M87.5684 64.8304C86.9029 64.6391 85.5673 63.8538 85.3201 63.3556C85.035 62.7808 84.9716 59.769 84.969 59.6411L84.9668 59.5333L89.8273 59.1875L89.8412 59.2933C90.0862 61.1692 90.1138 62.1419 90.1273 62.6097L90.1321 62.7654C90.151 63.2524 88.238 64.7197 88.0453 64.8381C88.003 64.864 87.9507 64.8781 87.8866 64.8808C87.8019 64.8844 87.6973 64.8676 87.5684 64.8304ZM85.1979 59.7443C85.22 60.6736 85.3136 62.8326 85.5231 63.255C85.7247 63.6613 86.9706 64.4226 87.631 64.6125C87.8658 64.6801 87.9245 64.6468 87.9265 64.6451C88.3433 64.3893 89.9161 63.0486 89.9055 62.7743L89.9005 62.6161C89.8875 62.1611 89.8609 61.2239 89.63 59.4287L85.1979 59.7443Z" fill="black"/>
</g>
<g opacity="0.2">
<path d="M96.0722 63.5311L96.1166 63.2942C95.2946 62.8973 94.0963 62.2378 94.0054 62.0146C93.8933 61.74 93.6823 59.8178 93.5981 58.9817C93.8477 58.9178 94.5883 58.7333 95.7154 58.495L95.6686 58.2734C94.2636 58.5703 93.4548 58.7846 93.4466 58.7868L93.3535 58.8115L93.3629 58.9073C93.3912 59.1953 93.6451 61.7318 93.7954 62.1C93.9523 62.4847 95.7288 63.365 96.0722 63.5311Z" fill="black"/>
</g>
<path d="M82.1429 88.9609L82.1652 89.5009C82.1652 89.5009 82.6001 90.0685 84.4613 90.1077C86.3225 90.1468 86.8087 89.6593 86.8087 89.6593L86.8694 89.2081C87.1658 89.2773 87.1017 89.6305 86.9105 90.5121C86.7192 91.3933 86.5512 92.1539 86.3609 92.337C86.1703 92.5201 85.1676 92.8295 84.0686 92.7805C82.9697 92.7318 82.2581 92.2751 82.0665 92.0113C81.875 91.7473 81.8093 90.6916 81.7565 90.1233C81.7034 89.5547 81.8198 88.9835 82.1429 88.9609Z" fill="#87CEEB"/>
<path d="M93.0935 86.0759L93.2253 86.614C93.2253 86.614 93.6505 87.0897 95.506 86.9375C97.3614 86.7856 97.5815 86.2574 97.5815 86.2574L97.5865 85.8203C97.9821 85.8798 98.0838 86.1921 97.984 87.0885C97.8841 87.9849 97.7951 88.7586 97.6242 88.9602C97.4536 89.1618 96.4876 89.5725 95.3896 89.6366C94.2913 89.7006 93.7725 89.3608 93.5548 89.1179C93.3371 88.875 93.1437 87.7204 93.0328 87.1605C92.9217 86.6003 92.7748 86.1316 93.0935 86.0759Z" fill="#87CEEB"/>
<path opacity="0.2" d="M89.457 69.5664L90.3042 65.3762C90.3042 65.3762 91.9362 64.7359 92.4904 62.6719C92.4904 62.6719 92.6315 64.5864 90.9597 65.561L89.9176 69.5534L90.3333 72.9948L89.457 69.5664Z" fill="black"/>
<path d="M75.6592 99.2347C75.4892 99.2191 75.5087 99.7241 75.5677 99.9408C75.6268 100.158 76.3194 100.884 77.5523 101.141C78.7852 101.398 80.4882 101.168 81.2188 101.139C81.9493 101.109 83.2103 101.465 83.9389 101.572C84.6678 101.678 85.9794 101.432 86.4116 101.021C86.5811 100.86 86.5969 100.623 86.5907 100.418C86.5763 99.9341 86.5319 99.8364 86.4757 99.8405L75.6592 99.2347Z" fill="#3E5A65"/>
<path d="M86.2401 95.9242C86.3051 95.6609 86.3752 95.3969 86.3932 95.1264C86.4083 94.9023 86.3863 94.6707 86.2984 94.4621C86.2235 94.284 86.0327 94.1976 85.8587 94.1328L85.7519 94.7976C85.6103 94.9327 85.2129 94.9951 85.049 95.1022C84.6808 95.3422 84.6095 95.838 84.515 96.2671C84.4931 96.3663 84.4665 96.4685 84.4029 96.5477C84.0731 96.9586 83.9771 96.2407 83.9606 96.048C83.9363 95.7694 83.9116 95.4593 83.7047 95.2711C83.5307 95.113 83.2223 95.0472 82.9934 95.0261C82.7431 95.003 82.4431 95.0119 82.3048 94.7907L82.2883 94.3644C82.0744 94.3402 81.7711 94.3819 81.6818 94.6162C81.6405 94.7247 81.6501 94.8449 81.6621 94.9603C81.6952 95.28 81.7406 95.5987 81.8047 95.9139C81.8524 96.149 81.911 96.3847 81.9124 96.6247C81.9127 96.6713 81.9083 96.7162 81.9035 96.7608C81.8361 96.8688 81.7559 96.9665 81.6623 97.0164C81.2786 97.2202 80.8322 97.2828 80.404 97.3107C79.7719 97.3515 79.2345 97.254 78.5222 97.2447C77.8888 97.2365 77.1755 97.3167 76.6252 97.6303C76.1042 97.9272 75.6235 98.3777 75.6602 99.3209C75.9703 99.8261 76.2868 100.121 76.7875 100.343C77.3803 100.604 78.0119 100.679 78.6547 100.745C79.4073 100.823 80.4455 100.691 81.1996 100.648C81.886 100.609 82.5093 100.733 83.0815 100.848C84.0362 101.04 84.6943 101.092 85.5604 100.828C85.8885 100.728 86.2975 100.533 86.4494 100.171C86.5183 99.6881 86.4453 99.1589 86.3601 98.681C86.3428 98.5843 86.3231 98.4881 86.3015 98.3926C86.2747 98.2733 86.2449 98.1545 86.2135 98.0359C86.1662 97.8574 86.1623 97.6603 86.1304 97.4758C86.1189 97.4083 86.0829 97.2288 86.0366 97.0169C86.0558 96.8067 86.0899 96.5981 86.1326 96.391C86.165 96.2347 86.2019 96.079 86.2401 95.9242Z" fill="#2E84AD"/>
<path d="M81.4655 97.1083C80.7769 97.6234 80.703 98.5433 80.703 98.5433C80.7172 98.9076 80.0747 98.9325 80.0605 98.5682C80.0605 98.5682 80.195 97.8225 80.6404 97.2926C80.6404 97.2926 81.0613 97.0051 81.4655 97.1083Z" fill="#FAFAFA"/>
<path d="M80.0656 97.3177C80.0656 97.3177 79.5702 97.6943 79.3628 98.5434C79.3511 98.8127 78.7912 98.7827 78.8029 98.5134C78.8029 98.5134 78.8898 97.6523 79.5076 97.2947C79.6856 97.1727 80.0082 97.2104 80.0656 97.3177Z" fill="#FAFAFA"/>
<path d="M78.9642 97.2629C78.6707 97.2571 78.0498 97.6565 77.7452 98.5589C77.4406 99.4613 77.6067 100.6 77.6067 100.6C77.6067 100.6 76.7375 100.541 75.9738 99.8225C75.7614 99.6226 75.6344 99.4546 75.5653 99.3046C75.4899 98.7125 75.6303 98.2179 75.8761 97.9267C76.3064 97.4165 76.9669 97.0831 78.0092 97.0308C79.1785 96.972 79.2786 97.2835 79.2786 97.2835L78.9642 97.2629Z" fill="#FAFAFA"/>
<path d="M91.6944 89.9772C92.2728 89.6388 93.9437 90.4017 93.9437 90.4017L94.0421 90.7941C94.0421 90.7941 94.1124 91.0728 94.1467 91.2086C94.235 91.518 94.6382 91.6188 94.9154 91.6605C95.3465 91.7253 96.4469 91.6464 97.111 91.2787C97.416 91.1097 97.4366 90.9261 97.4366 90.9261C97.4328 90.8143 97.4431 90.5162 97.4431 90.5162C97.6294 90.5095 97.843 90.6019 97.8118 91.0053C97.7573 91.7095 97.6956 92.9419 97.8043 93.5829C97.8578 93.8983 97.9462 94.2703 97.9937 94.5866C98.0256 94.7997 98.017 95.4276 97.7362 95.6798C97.7347 95.681 97.733 95.6817 97.7314 95.6829C97.6613 95.7744 97.5708 95.8598 97.4489 95.9354C96.8395 96.3146 95.7775 96.2503 95.2697 95.7566C94.6366 95.1415 94.1902 94.583 93.3029 93.8457C92.7782 93.4099 92.2699 93.2009 91.8444 92.663C91.8444 92.663 91.8444 92.663 91.8442 92.6609C91.6469 92.4101 91.4666 92.0868 91.3126 91.638C90.9986 90.7313 91.1004 90.3257 91.6944 89.9772Z" fill="#2E84AD"/>
<path d="M93.3747 92.2607C93.5434 91.7836 93.8427 91.4565 94.1552 91.2338C94.1187 91.0881 94.0801 90.9407 94.0431 90.7891C93.2463 91.1635 92.9679 91.8374 92.8906 92.0656C92.8073 92.3342 93.1892 92.4861 93.3747 92.2607Z" fill="#FAFAFA"/>
<path d="M94.2399 92.6313C94.2877 92.4974 94.3453 92.375 94.4122 92.2639C94.3618 92.0656 94.3076 91.8516 94.25 91.625C93.9418 91.9468 93.806 92.2855 93.7559 92.4362C93.6726 92.7048 94.0544 92.8569 94.2399 92.6313Z" fill="#FAFAFA"/>
<path d="M91.8452 92.6604C91.8452 92.6604 91.8452 92.6604 91.845 92.6582C91.8394 92.5882 91.743 90.9391 93.9445 90.3991C93.9411 90.3871 93.9049 90.2434 93.8902 90.1848L93.89 90.1826C93.6788 89.9957 93.3344 89.7667 92.8789 89.7036C92.0756 89.5927 91.4888 89.8718 91.1482 90.4507C90.8074 91.0274 91.3988 92.3738 91.8452 92.6604Z" fill="#FAFAFA"/>
<path d="M79.0112 44.8111C78.0814 44.5915 76.4158 44.0971 74.5642 43.4513C72.5254 42.7404 70.404 42.1049 70.0474 42.0413C69.3668 41.9199 68.3895 41.9839 67.784 41.8205C67.0558 41.6239 66.3324 41.5659 65.7003 41.1048C65.5205 40.9738 65.3473 40.7962 65.3329 40.5742C65.3254 40.4611 65.3609 40.3488 65.3552 40.2355C65.346 40.0599 65.2385 39.8955 65.2563 39.7205C65.2808 39.4788 65.5354 39.3029 65.5443 39.06C65.5484 38.9535 65.5032 38.8517 65.4872 38.7463C65.4574 38.5531 65.6487 38.2961 65.7538 38.142C65.8107 38.0587 65.9708 37.9157 65.881 37.8084C65.7721 37.6783 65.5325 37.4184 64.8653 36.8597C64.1984 36.3007 63.8336 35.7893 64.1115 35.4696C64.4969 35.0261 65.2018 35.5992 66.0939 36.2237C66.5916 36.5719 67.0793 36.9341 67.5824 37.2747C67.7787 37.4074 68.5752 38.0561 68.7845 37.7319C68.8496 37.6311 68.846 37.5017 68.8352 37.3822C68.8131 37.1335 68.7708 36.8863 68.7648 36.637C68.7588 36.3874 68.7912 36.1306 68.9093 35.9107C68.9537 35.8279 69.012 35.7492 69.0929 35.701C69.1738 35.6527 69.2801 35.6403 69.3615 35.6875C69.445 35.7363 69.4851 35.8335 69.5194 35.9239C69.6334 36.2242 69.7472 36.5244 69.8612 36.8247C70.0496 37.321 70.1909 37.8305 70.4931 38.2767C70.6916 38.5695 71.0252 38.9604 71.348 39.1119C71.588 39.2247 73.1876 39.6103 73.7101 39.7363C74.6129 39.954 79.7403 41.0122 79.8413 41.035L93.6468 39.5323L93.4556 44.0321C93.4556 44.0321 80.8294 45.2405 79.0112 44.8111Z" fill="#FFA8A7"/>
<path d="M92.9766 39.0861C93.9142 38.9601 95.3298 38.9697 96.1333 40.0229C96.9368 41.076 96.9286 41.9114 96.9193 43.2569C96.9097 44.609 96.2528 46.9968 96.2528 46.9968L92.9766 39.0861Z" fill="#87CEEB"/>
<path d="M67.8669 39.2373C67.8717 39.3079 67.8561 39.3794 67.8081 39.4298C67.7603 39.4797 67.6883 39.5001 67.6192 39.5011C67.5501 39.502 67.4822 39.4862 67.4143 39.4739C67.3595 39.4641 67.2854 39.4684 67.2715 39.5222C67.2631 39.5543 67.2837 39.5865 67.3051 39.6119C67.3912 39.7137 67.5079 39.784 67.6091 39.8707C67.7419 39.9842 67.901 40.2023 67.7534 40.3617C67.6624 40.4599 67.5489 40.5033 67.4155 40.4899C67.3207 40.4803 67.228 40.4519 67.133 40.4491C67.1162 40.4486 67.0927 40.456 67.096 40.4726C67.0975 40.4791 67.1027 40.4836 67.1078 40.4877C67.2275 40.5863 67.378 40.678 67.4584 40.8122C67.5079 40.8945 67.5595 41.0068 67.5191 41.1033C67.4714 41.2178 67.2859 41.2761 67.1738 41.2826C67.1551 41.2838 67.1363 41.2847 67.1176 41.2859C67.1111 41.2927 67.1126 41.2955 67.1145 41.2977C67.1191 41.302 67.1248 41.3044 67.1308 41.3066C67.1654 41.3193 67.2011 41.3289 67.2374 41.3356C67.4191 41.3687 67.5919 41.2319 67.6411 41.0606C67.6963 40.8686 67.6216 40.7411 67.5127 40.6315C67.661 40.6485 67.7949 40.6243 67.9497 40.4587C68.2007 40.1903 68.0344 39.965 67.8232 39.7634C67.9067 39.7483 67.9718 39.7144 68.0227 39.6693C68.0632 40.1111 68.1897 40.5952 68.4902 41.0227C68.4902 41.0227 68.1899 40.2542 68.2245 39.4257C68.2163 39.298 68.2435 39.1571 68.2622 39.0309C68.2792 38.914 68.3015 38.7976 68.3284 38.6827C68.3723 38.4955 68.4213 38.3049 68.5056 38.1328C68.3815 38.2053 68.2742 38.3066 68.1923 38.4247C68.1208 38.5279 68.1244 38.6829 67.9682 38.7002C67.8787 38.7103 67.7915 38.6695 67.7135 38.6246C67.6355 38.5795 67.5583 38.5279 67.4695 38.5123C67.4503 38.5089 67.4275 38.5084 67.415 38.5235C67.3972 38.5449 67.415 38.5768 67.4332 38.5979C67.5883 38.7777 67.7935 38.9332 67.8542 39.1629C67.8609 39.1869 67.8652 39.2121 67.8669 39.2373Z" fill="#F28F8F"/>
<path d="M86.9707 37.4398L87.4296 41.8399L91.8235 42.0806L91.4733 36.9766L86.9707 37.4398Z" fill="#FFA8A7"/>
<path d="M84.4033 32.1719C84.4033 32.1719 83.2887 33.6815 83.3982 33.8416C83.5074 34.0014 84.2588 34.1804 84.2588 34.1804L84.4033 32.1719Z" fill="#F28F8F"/>
<path d="M87.4962 27.9992C85.3862 28.3282 84.7348 29.2134 84.3616 32.5174C83.9716 35.9701 84.2673 37.0774 84.6971 37.5682C84.9875 37.8992 86.6915 38.047 87.5651 37.8555C88.6588 37.6158 91.1402 36.8826 92.3738 35.2011C93.8246 33.2228 94.3252 30.4638 92.9495 29.2477C91.0134 27.5362 88.355 27.8655 87.4962 27.9992Z" fill="#FFA8A7"/>
<path d="M84.1211 29.1017C84.2678 29.2745 84.4473 29.4183 84.6314 29.5517C84.9009 29.7473 85.1839 29.9245 85.4774 30.0821C85.7529 30.23 86.0577 30.3279 86.3035 30.5237C86.6675 30.8139 86.6973 31.1744 86.6839 31.61C86.6752 31.8951 86.6553 32.2484 86.6392 32.6317C86.615 33.2069 86.9589 33.6639 87.179 32.9026C87.179 32.9026 87.5771 31.64 88.6475 31.8584C89.7251 32.0785 89.7482 33.2979 89.1827 34.2248C88.8388 34.7888 88.0084 34.592 88.0084 34.592C88.0084 34.592 87.7334 36.1776 88.9807 37.555C88.9807 37.555 89.8127 38.048 91.5287 37.7765C92.7775 36.2388 93.55 35.5008 94.2436 34.1532C95.7107 31.3028 95.1755 29.4368 94.2023 28.6107C94.0725 27.2542 93.0451 26.5945 91.8518 26.2525C90.0674 25.7413 88.3209 26.7236 86.5557 26.2282C86.2687 26.1478 85.972 26.0621 85.6965 25.9532C85.5839 25.9085 85.4572 25.8639 85.3451 25.9102C85.2031 25.969 85.1531 26.1466 85.1551 26.3004C85.1599 26.6463 85.3456 26.9847 85.6353 27.1743C85.5998 27.151 85.4241 27.1894 85.3754 27.1899C85.2751 27.1911 85.1745 27.1872 85.0742 27.1844C84.8803 27.1788 84.6832 27.1392 84.4898 27.1114C84.3551 27.092 84.2167 27.0725 84.0842 27.1035C83.7799 27.1745 83.5898 27.5024 83.5823 27.8146C83.5747 28.1268 83.7095 28.424 83.8581 28.6988C83.9183 28.8099 83.9812 28.9198 84.0568 29.0208C84.0772 29.0487 84.0988 29.0756 84.1211 29.1017Z" fill="#3E5A65"/>
<path d="M84.6973 37.566C84.9322 37.8338 86.0917 37.9814 86.9888 37.927L87.0519 37.9229L86.9893 37.4297C86.9893 37.4297 85.5543 37.7779 84.6973 37.566Z" fill="#F28F8F"/>
<path d="M95.889 41.3932C95.3497 40.0933 94.1778 38.8602 92.6701 39.1108C92.32 39.1691 91.9878 39.1979 91.6559 39.2576C91.4776 39.9949 89.1284 40.0643 87.1981 39.6174L84.9349 39.8876C83.5506 40.353 82.4384 43.0244 82.2407 47.08C82.0429 51.1355 82.2618 57.4076 82.3408 60.23C85.7687 61.6616 89.1256 61.5268 91.119 61.1303C95.2688 60.3052 95.9449 58.5232 95.9449 58.5232L95.6248 51.2627C95.6315 49.6837 96.2027 47.542 96.3232 46.527C96.693 43.4108 96.2168 42.1835 95.889 41.3932Z" fill="#2E84AD"/>
<path d="M54.8338 44.3278C54.6603 44.4435 54.5305 44.7061 54.5439 44.9141C54.5506 45.0183 54.5919 45.0891 54.6531 45.1193C54.7143 45.1496 62.5222 49.0249 62.5222 49.0249L62.9338 48.1964C62.9338 48.1964 55.1245 44.3204 55.0633 44.2899C55.0018 44.2599 54.9207 44.27 54.8338 44.3278Z" fill="#2E84AD"/>
<path d="M54.6523 45.1167C53.6873 44.6396 51.7227 43.1484 51.7227 43.1484C51.7227 43.1484 54.583 44.0424 55.0623 44.2875L54.6523 45.1167Z" fill="#2E84AD"/>
<path opacity="0.2" d="M62.7019 48.2307L54.9598 44.413L51.7227 43.1484L54.8472 44.7224L62.6736 48.6308L62.7019 48.2307Z" fill="white"/>
<path d="M62.701 48.2341C62.5275 48.3498 62.3977 48.6123 62.4111 48.8206C62.4246 49.0287 62.5762 49.1038 62.7497 48.9879C62.9233 48.8722 63.0531 48.6097 63.0397 48.4016C63.0262 48.1933 62.8745 48.1184 62.701 48.2341Z" fill="#3E5A65"/>
<path d="M62.4252 48.4383C63.521 46.4199 68.9205 43.737 73.3898 45.9464C77.8591 48.1558 86.1381 56.721 88.3276 61.1919C83.0851 62.0926 72.3724 61.2687 68.0604 59.137C63.7485 57.0051 61.4923 53.1375 62.4252 48.4383Z" fill="#87CEEB"/>
<path opacity="0.7" d="M62.4252 48.4383C63.521 46.4199 68.9205 43.737 73.3898 45.9464C77.8591 48.1558 86.1381 56.721 88.3276 61.1919C83.0851 62.0926 72.3724 61.2687 68.0604 59.137C63.7485 57.0051 61.4923 53.1375 62.4252 48.4383Z" fill="white"/>
<path d="M66.2448 55.5039C66.0244 52.0916 67.8434 47.9936 70.3072 46.3508C71.3491 45.656 72.3395 45.512 73.1522 45.8348C68.7311 43.8318 63.5016 46.4526 62.4252 48.4354C61.4923 53.1346 63.7485 57.0022 68.0606 59.1342C68.0632 59.1354 68.0659 59.1368 68.0685 59.138C67.0617 58.628 66.3645 57.3579 66.2448 55.5039Z" fill="#87CEEB"/>
<path opacity="0.15" d="M68.0606 59.136C72.3724 61.2677 83.0846 62.0913 88.3272 61.1909C83.7444 61.2811 75.3516 59.8077 70.5924 57.2973C66.66 55.223 63.2044 51.5947 62.4252 48.4375C61.4923 53.1367 63.7485 57.0043 68.0606 59.136Z" fill="black"/>
<path opacity="0.5" d="M62.4258 48.4412C66.6426 46.7418 71.0341 47.6519 74.0082 49.244C76.9823 50.8362 86.0435 57.8665 88.3278 61.1948C88.3278 61.1948 81.8219 52.1819 74.756 48.0006C67.6902 43.8193 62.4258 48.4412 62.4258 48.4412Z" fill="white"/>
<path d="M97.6366 69.7849C96.9308 70.7768 94.3839 69.508 91.6153 67.2551V67.2536L90.1561 64.1375L90.6673 66.4523C89.0074 64.9952 87.3349 63.2437 85.9844 61.4639C86.7903 61.4089 87.5744 61.3218 88.3285 61.1953L92.1968 63.0637C92.1968 63.0637 98.821 68.1215 97.6366 69.7849Z" fill="#87CEEB"/>
<path opacity="0.15" d="M97.6366 69.7849C96.9308 70.7768 94.3839 69.508 91.6153 67.2551V67.2536L90.1561 64.1375L90.6673 66.4523C89.0074 64.9952 87.3349 63.2437 85.9844 61.4639C86.7903 61.4089 87.5744 61.3218 88.3285 61.1953L92.1968 63.0637C92.1968 63.0637 98.821 68.1215 97.6366 69.7849Z" fill="black"/>
<g opacity="0.15">
<path d="M85.9844 61.4639C86.6441 62.3334 87.3814 63.1955 88.1557 64.0204C87.3118 63.0803 86.8215 61.9052 86.8215 61.9052L88.3563 61.64L92.197 63.0637L88.3287 61.1953C87.5744 61.3218 86.7903 61.4089 85.9844 61.4639Z" fill="black"/>
</g>
<path d="M92.1957 63.0625L88.3274 61.1941C87.2966 60.3097 87.0756 59.8797 86.0508 59.0891C88.0977 58.9084 89.8303 58.8513 91.2849 58.8988L90.3797 60.1957L92.7729 58.9914C94.8965 59.1952 96.2575 59.6749 97.0257 60.3328C99.3384 62.3109 96.4238 63.9491 92.1957 63.0625Z" fill="#87CEEB"/>
<path opacity="0.5" d="M90.3797 60.1958L91.2849 58.8988C89.8303 58.8513 88.0977 58.9082 86.0508 59.0891C86.0508 59.0891 90.0626 59.0476 90.6965 59.1573L90.3797 60.1958Z" fill="white"/>
<path opacity="0.5" d="M94.3199 63.3079C97.2999 63.3501 98.9238 61.9567 97.0256 60.3335C96.2574 59.6757 94.8966 59.1959 92.7728 58.9922L91.5762 59.5943L92.913 59.2243C92.913 59.2243 95.6449 59.5003 96.8658 60.8488C97.6148 61.6761 96.764 63.2884 94.3199 63.3079Z" fill="white"/>
<path d="M84.3083 45.9656C81.778 50.7479 80.3339 53.972 79.5385 54.7777C78.7432 55.5834 72.7477 60.298 70.5791 60.5135C68.4105 60.729 66.4717 60.0664 66.2836 58.9626C66.1845 58.3808 66.2721 58.0283 66.2721 58.0283C66.2721 58.0283 66.7914 58.3931 66.8176 58.402C67.4778 58.6278 68.4786 58.5529 68.9579 58.1869C69.6618 57.6493 68.0687 57.2178 67.6974 56.7767C67.2229 56.2132 67.426 55.6038 68.6224 56.1272C69.6661 56.584 70.5925 56.9485 71.3317 56.9245C72.0709 56.9005 76.3355 52.4404 76.3355 52.4404C76.3355 52.4404 78.6203 47.6132 79.6835 45.0371C81.6815 40.1953 83.637 40.2205 84.6983 40.1953L84.3083 45.9656Z" fill="#FFA8A7"/>
<path d="M84.9359 39.8906C83.8977 39.9936 83.1218 40.0401 82.2525 40.4981C81.1994 41.0527 80.8291 42.0446 80.3515 43.1311C79.4399 45.2042 78.5762 47.0875 78.5762 47.0875C78.9211 48.0225 80.8511 50.268 82.6024 49.6154C82.6024 49.6154 84.076 47.0717 84.844 45.4296C85.5597 43.8996 85.702 41.1542 84.9359 39.8906Z" fill="#87CEEB"/>
</svg>
