<svg width="120" height="107" viewBox="0 0 120 107" fill="none" xmlns="http://www.w3.org/2000/svg">
<path d="M17.5764 97.437C41.0072 109.676 78.9961 109.676 102.427 97.437C125.858 85.1978 125.858 65.3493 102.427 53.1101C78.9961 40.8709 41.0072 40.8683 17.5738 53.1101C-5.85965 65.3519 -5.85705 85.1952 17.5764 97.437Z" fill="#427D76" fill-opacity="0.31"/>
<path d="M32.9947 0.198351L33.1506 0.107363C33.2901 0.0367798 33.4441 0 33.6004 0C33.7566 0 33.9107 0.0367798 34.0501 0.107363L59.5503 14.8319C59.6812 14.9174 59.7902 15.0326 59.8683 15.1681C59.9465 15.3036 59.9916 15.4556 60 15.6118V51.1518C59.9912 51.3079 59.9459 51.4598 59.8678 51.5952C59.7897 51.7306 59.6809 51.8459 59.5503 51.9317L59.3943 52.0201C59.2552 52.0919 59.101 52.1294 58.9445 52.1294C58.7881 52.1294 58.6338 52.0919 58.4948 52.0201L32.9947 37.2982C32.8634 37.213 32.7542 37.0979 32.6761 36.9623C32.5979 36.8267 32.5529 36.6746 32.5449 36.5183V0.978251C32.5532 0.822017 32.5982 0.669939 32.6763 0.534408C32.7545 0.398878 32.8636 0.283731 32.9947 0.198351Z" fill="#FAFAFA"/>
<path d="M60.0005 33.3773V15.6086C59.9961 15.4514 59.9503 15.2981 59.8679 15.1641L58.4121 16.0064V51.9728L58.4927 52.017C58.6317 52.0888 58.786 52.1262 58.9424 52.1262C59.0989 52.1262 59.2531 52.0888 59.3922 52.017L59.5482 51.9286C59.6788 51.8427 59.7876 51.7275 59.8657 51.592C59.9438 51.4566 59.9891 51.3047 59.9979 51.1487L60.0005 33.3773Z" fill="#E0E0E0"/>
<path d="M32.9947 0.717274L58.4948 15.4392C58.6255 15.525 58.7342 15.6403 58.8123 15.7757C58.8904 15.9112 58.9357 16.063 58.9445 16.2191V51.7591C58.9445 52.0477 58.7418 52.1647 58.4948 52.0191L32.9947 37.2972C32.8634 37.212 32.7542 37.0969 32.6761 36.9613C32.5979 36.8257 32.5529 36.6736 32.5449 36.5173V0.97724C32.5449 0.691277 32.7451 0.574292 32.9947 0.717274Z" fill="#F5F5F5"/>
<path d="M36.1626 4.98908L55.3274 16.0533C55.4586 16.1385 55.5678 16.2536 55.646 16.3892C55.7242 16.5247 55.7691 16.6769 55.7771 16.8332V18.2318C55.7771 18.5177 55.577 18.6347 55.3274 18.4917L36.1626 7.43276C36.032 7.34693 35.9232 7.23167 35.8451 7.09624C35.767 6.9608 35.7217 6.80895 35.7129 6.65286V5.24904C35.7129 4.96048 35.9157 4.8331 36.1626 4.98908Z" fill="#E0E0E0"/>
<path d="M40.2206 17.4118C41.2514 16.8167 41.2513 14.8868 40.2204 13.1013C39.1896 11.3158 37.5183 10.3508 36.4875 10.9459C35.4567 11.541 35.4568 13.4709 36.4877 15.2564C37.5185 17.0419 39.1898 18.007 40.2206 17.4118Z" fill="#E0E0E0"/>
<path d="M38.3727 12.1116C37.8528 11.8152 37.4473 12.0544 37.4473 12.6445C37.4639 12.966 37.5565 13.2789 37.7173 13.5577C37.8782 13.8365 38.1028 14.0732 38.3727 14.2485C38.8927 14.5449 39.2982 14.3057 39.2982 13.7286C39.2832 13.405 39.1914 13.0896 39.0305 12.8085C38.8696 12.5273 38.6441 12.2885 38.3727 12.1116Z" fill="#427D76"/>
<path d="M38.6156 14.683L38.0957 14.3788C37.2534 13.8953 36.5723 14.2878 36.5723 15.2575V15.3901C37.0096 16.1379 37.6226 16.7679 38.3582 17.2254C39.0471 17.6232 39.6581 17.6778 40.1416 17.449V17.3112C40.1113 16.7841 39.9574 16.2715 39.6923 15.8149C39.4272 15.3584 39.0584 14.9706 38.6156 14.683Z" fill="#427D76"/>
<path d="M36.277 18.4641L40.4365 20.8636C40.5969 20.9646 40.7313 21.1019 40.8289 21.2645C40.9264 21.4271 40.9844 21.6103 40.998 21.7994C40.998 22.1348 40.7381 22.2622 40.4365 22.0828L36.277 19.6859C36.1161 19.5852 35.9812 19.4479 35.8832 19.2854C35.7852 19.1228 35.7268 18.9394 35.7129 18.75C35.7129 18.4121 35.9651 18.2847 36.277 18.4641Z" fill="#E0E0E0"/>
<path d="M36.277 20.9016L40.4365 23.3011C40.5966 23.4019 40.7308 23.5389 40.8283 23.7009C40.9258 23.863 40.984 24.0458 40.998 24.2344C40.998 24.5724 40.7381 24.6998 40.4365 24.5204L36.277 22.1209C36.116 22.0203 35.9809 21.8831 35.8829 21.7205C35.7849 21.5579 35.7266 21.3744 35.7129 21.185C35.7129 20.8496 35.9651 20.7223 36.277 20.9016Z" fill="#E0E0E0"/>
<path d="M36.2757 23.3393L40.4352 25.7388C40.5941 25.8393 40.7274 25.9756 40.8244 26.1367C40.9215 26.2978 40.9796 26.4794 40.9941 26.6669C40.9941 27.0022 40.7341 27.1296 40.4326 26.9502L36.2731 24.5533C36.1122 24.4526 35.9773 24.3154 35.8793 24.1528C35.7813 23.9902 35.7229 23.8068 35.709 23.6175C35.7116 23.2873 35.9638 23.1599 36.2757 23.3393Z" fill="#E0E0E0"/>
<path d="M36.2757 25.7766L40.4352 28.1761C40.5948 28.2772 40.7285 28.4143 40.8256 28.5764C40.9226 28.7384 40.9804 28.921 40.9941 29.1094C40.9941 29.4474 40.7341 29.5748 40.4326 29.3954L36.2731 26.9959C36.1121 26.8953 35.977 26.7581 35.879 26.5955C35.781 26.4329 35.7227 26.2494 35.709 26.06C35.7116 25.7246 35.9638 25.5973 36.2757 25.7766Z" fill="#E0E0E0"/>
<path d="M36.277 29.441L40.4365 31.8379C40.5999 31.9451 40.7358 32.0892 40.8333 32.2585C40.9309 32.4278 40.9873 32.6177 40.998 32.8128V35.1707C40.998 35.5294 40.7381 35.675 40.4365 35.4957L36.277 33.0988C36.1129 32.9922 35.9762 32.8483 35.8782 32.6789C35.7801 32.5095 35.7235 32.3193 35.7129 32.1239V29.766C35.7129 29.4046 35.9651 29.2695 36.277 29.441Z" fill="#427D76"/>
<path d="M44.7217 13.5878L55.2139 19.6502C55.374 19.751 55.5082 19.8879 55.6058 20.05C55.7033 20.2121 55.7614 20.3948 55.7755 20.5835C55.7755 20.9214 55.5155 21.0488 55.2139 20.8694L44.7217 14.8122C44.5616 14.7114 44.4274 14.5745 44.3299 14.4124C44.2323 14.2503 44.1742 14.0676 44.1602 13.8789C44.1602 13.5358 44.4123 13.411 44.7217 13.5878Z" fill="#427D76"/>
<path d="M44.7217 16.0266L55.2139 22.0838C55.374 22.1846 55.5082 22.3215 55.6058 22.4836C55.7033 22.6457 55.7614 22.8284 55.7755 23.0171C55.7755 23.355 55.5155 23.4824 55.2139 23.303L44.7217 17.2458C44.5616 17.145 44.4274 17.0081 44.3299 16.846C44.2323 16.6839 44.1742 16.5012 44.1602 16.3125C44.1602 15.9746 44.4123 15.8472 44.7217 16.0266Z" fill="#427D76"/>
<path d="M44.7217 18.4641L55.2139 24.5213C55.374 24.6221 55.5082 24.759 55.6058 24.9211C55.7033 25.0832 55.7614 25.2659 55.7755 25.4546C55.7755 25.7925 55.5155 25.9199 55.2139 25.7405L44.7217 19.6833C44.5616 19.5825 44.4274 19.4456 44.3299 19.2835C44.2323 19.1214 44.1742 18.9387 44.1602 18.75C44.1602 18.4121 44.4123 18.2847 44.7217 18.4641Z" fill="#427D76"/>
<path d="M80.6266 22.6882L81.6145 22.1188C81.7889 22.0304 81.9818 21.9844 82.1773 21.9844C82.3729 21.9844 82.5657 22.0304 82.7401 22.1188L104.837 34.8832C105.001 34.9898 105.138 35.1336 105.236 35.303C105.334 35.4725 105.391 35.6626 105.401 35.8581V63.8227C105.391 64.0181 105.334 64.2083 105.236 64.3777C105.138 64.5471 105.001 64.691 104.837 64.7976L103.852 65.3669C103.678 65.4553 103.485 65.5014 103.289 65.5014C103.094 65.5014 102.901 65.4553 102.726 65.3669L80.6162 52.6025C80.4528 52.4954 80.3169 52.3513 80.2194 52.182C80.1218 52.0126 80.0654 51.8228 80.0547 51.6277V23.663C80.0666 23.467 80.1246 23.2765 80.2239 23.1071C80.3233 22.9377 80.4613 22.7942 80.6266 22.6882Z" fill="#455A64"/>
<path d="M105.409 49.842V35.861C105.403 35.6643 105.346 35.4726 105.243 35.3047L102.24 37.0387V65.0839L102.734 65.3698C102.909 65.4582 103.101 65.5043 103.297 65.5043C103.493 65.5043 103.685 65.4582 103.86 65.3698L104.845 64.8005C105.009 64.6939 105.146 64.5501 105.244 64.3807C105.342 64.2112 105.399 64.0211 105.409 63.8256V49.842Z" fill="#263238"/>
<path d="M80.6253 23.3424L102.722 36.1068C102.886 36.214 103.022 36.358 103.119 36.5274C103.217 36.6967 103.273 36.8866 103.284 37.0817V65.0463C103.284 65.405 103.024 65.5506 102.722 65.3712L80.6123 52.6069C80.4489 52.4997 80.313 52.3556 80.2155 52.1863C80.1179 52.017 80.0615 51.8271 80.0508 51.632V23.6674C80.0638 23.3086 80.316 23.163 80.6253 23.3424Z" fill="#37474F"/>
<path d="M101.149 37.011L82.21 26.0768C81.898 25.8974 81.6484 26.043 81.6484 26.4018V47.6618C81.6592 47.857 81.7156 48.0468 81.8131 48.2161C81.9106 48.3855 82.0466 48.5295 82.21 48.6367L101.149 59.5709C101.461 59.7503 101.713 59.6047 101.713 59.246V37.9859C101.702 37.7904 101.645 37.6003 101.547 37.4309C101.449 37.2614 101.313 37.1176 101.149 37.011Z" fill="white"/>
<path d="M86.0307 30.8295C86.5608 31.1761 87.0018 31.6426 87.3179 32.1914C87.6341 32.7401 87.8165 33.3557 87.8505 33.9881C87.8505 35.1527 87.0342 35.6233 86.0307 35.0409C85.5003 34.6947 85.0592 34.2282 84.743 33.6793C84.4268 33.1305 84.2445 32.5148 84.2109 31.8823C84.2083 30.7151 85.0246 30.2445 86.0307 30.8295Z" fill="#427D76"/>
<path d="M90.7681 43.759L87.3885 38.648C86.84 37.8213 85.8937 37.7771 85.2724 38.5518L81.6484 43.0414V47.6611C81.659 47.8565 81.7157 48.0467 81.8137 48.2161C81.9117 48.3855 82.0484 48.5293 82.2126 48.6359L101.149 59.5545C101.461 59.7339 101.713 59.5883 101.713 59.2296V47.2451L97.0073 37.2858C96.5835 36.3889 95.788 36.3265 95.2343 37.148L90.7681 43.759Z" fill="#427D76"/>
<path d="M85.4141 85.7783L91.6091 82.2012C91.937 81.9877 92.2098 81.6998 92.4054 81.361C92.601 81.0222 92.7139 80.6421 92.7348 80.2514V45.0493C92.7135 44.6587 92.6004 44.2787 92.4049 43.94C92.2093 43.6012 91.9367 43.3133 91.6091 43.0996L49.5101 18.7927C49.1613 18.6157 48.7756 18.5234 48.3845 18.5234C47.9933 18.5234 47.6077 18.6157 47.2588 18.7927L41.0612 22.3698C40.7336 22.5836 40.461 22.8715 40.2655 23.2102C40.0699 23.549 39.9569 23.929 39.9355 24.3196V59.5216C39.9569 59.9122 40.0699 60.2922 40.2655 60.631C40.461 60.9697 40.7336 61.2576 41.0612 61.4714L83.1758 85.7783C83.523 85.9531 83.9063 86.0442 84.295 86.0442C84.6837 86.0442 85.067 85.9531 85.4141 85.7783Z" fill="#427D76"/>
<path d="M92.7264 45.0476C92.713 44.6558 92.6003 44.2738 92.3988 43.9375L83.2324 49.2356V85.8078C83.5742 85.9678 83.9479 86.0481 84.3253 86.0427C84.7026 86.0373 85.0739 85.9463 85.4109 85.7765L91.6111 82.1968C91.9369 81.9826 92.2076 81.6947 92.4013 81.3564C92.5951 81.0181 92.7064 80.639 92.7264 80.2497V45.0476Z" fill="#295B56"/>
<path d="M83.1628 47.9839L41.0612 23.677C40.4399 23.3183 39.9355 23.6094 39.9355 24.3269V59.516C39.9569 59.9066 40.0699 60.2866 40.2655 60.6254C40.461 60.9641 40.7336 61.252 41.0612 61.4658L83.1758 85.7727C83.7971 86.1314 84.3015 85.8403 84.3015 85.1228V49.9207C84.2767 49.5312 84.1607 49.153 83.9629 48.8166C83.7652 48.4802 83.4911 48.195 83.1628 47.9839Z" fill="#295B56"/>
<path d="M86.8562 45.8412C87.1837 46.0549 87.4563 46.3428 87.6519 46.6816C87.8475 47.0203 87.9605 47.4004 87.9818 47.7909V84.2903L89.0373 83.6819V47.18C89.016 46.7894 88.9029 46.4094 88.7074 46.0707C88.5118 45.7319 88.2392 45.444 87.9116 45.2302L44.6844 20.2734L43.6289 20.8844L86.8562 45.8412Z" fill="#263238"/>
<path d="M87.9137 45.2277L44.7592 20.3125L43.6699 20.9026L86.8608 45.8386C87.1933 46.046 87.4671 46.3351 87.6563 46.6783L88.7118 46.07C88.5227 45.7252 88.2478 45.435 87.9137 45.2277Z" fill="#295B56"/>
<path d="M81.3686 39.6259L80.6251 39.1969C80.4506 39.1086 80.2578 39.0625 80.0623 39.0625C79.8667 39.0625 79.6739 39.1086 79.4994 39.1969L76.6398 40.8451L76.1641 40.7022V41.3105C76.1706 41.3806 76.1957 41.4477 76.2368 41.5048C76.278 41.5619 76.3336 41.607 76.398 41.6354L77.3833 42.2048C77.5578 42.2932 77.7506 42.3392 77.9461 42.3392C78.1417 42.3392 78.3345 42.2932 78.509 42.2048L81.6078 40.4162C81.6717 40.3874 81.7268 40.3422 81.7675 40.2851C81.8081 40.228 81.8329 40.1611 81.8391 40.0912V39.4803L81.3686 39.6259Z" fill="#263238"/>
<path d="M81.6143 39.1491L80.6264 38.5798C80.452 38.4914 80.2591 38.4453 80.0636 38.4453C79.868 38.4453 79.6752 38.4914 79.5007 38.5798L76.4045 40.3709C76.3363 40.3933 76.2769 40.4366 76.2347 40.4947C76.1926 40.5529 76.1699 40.6228 76.1699 40.6946C76.1699 40.7664 76.1926 40.8363 76.2347 40.8945C76.2769 40.9526 76.3363 40.9959 76.4045 41.0183L77.3898 41.5902C77.5643 41.6786 77.7571 41.7246 77.9526 41.7246C78.1482 41.7246 78.341 41.6786 78.5155 41.5902L81.6143 39.799C81.6822 39.776 81.7412 39.7322 81.7829 39.674C81.8247 39.6157 81.8472 39.5458 81.8472 39.4741C81.8472 39.4023 81.8247 39.3324 81.7829 39.2742C81.7412 39.2159 81.6822 39.1721 81.6143 39.1491Z" fill="#427D76"/>
<path d="M56.0249 24.9931L55.2918 24.5642C55.1168 24.4758 54.9236 24.4297 54.7276 24.4297C54.5316 24.4297 54.3384 24.4758 54.1635 24.5642L51.3039 26.2124L50.8281 26.0694V26.6699C50.8346 26.74 50.8598 26.8071 50.9009 26.8642C50.942 26.9213 50.9977 26.9664 51.0621 26.9949L52.0474 27.5642C52.2218 27.6526 52.4146 27.6986 52.6102 27.6986C52.8058 27.6986 52.9986 27.6526 53.173 27.5642L56.2718 25.7756C56.3361 25.7473 56.3915 25.7022 56.4322 25.645C56.4729 25.5878 56.4975 25.5206 56.5032 25.4507V24.8501L56.0249 24.9931Z" fill="#263238"/>
<path d="M56.2688 24.5267L55.2809 23.9548C55.1065 23.8664 54.9137 23.8203 54.7181 23.8203C54.5225 23.8203 54.3297 23.8664 54.1553 23.9548L51.0591 25.7459C50.9912 25.769 50.9322 25.8127 50.8904 25.871C50.8486 25.9293 50.8262 25.9992 50.8262 26.0709C50.8262 26.1426 50.8486 26.2125 50.8904 26.2708C50.9322 26.3291 50.9912 26.3728 51.0591 26.3959L52.0443 26.9652C52.2188 27.0536 52.4116 27.0996 52.6072 27.0996C52.8027 27.0996 52.9955 27.0536 53.17 26.9652L56.2688 25.1766C56.3367 25.1536 56.3957 25.1098 56.4375 25.0515C56.4792 24.9933 56.5017 24.9234 56.5017 24.8517C56.5017 24.7799 56.4792 24.71 56.4375 24.6518C56.3957 24.5935 56.3367 24.5497 56.2688 24.5267Z" fill="#427D76"/>
<path d="M64.2242 24.8515V28.5092L62.1133 29.7285V24.1496C62.1133 23.861 62.3135 23.7466 62.563 23.8896L64.2242 24.8515Z" fill="#263238"/>
<path d="M75.3106 28.7219V35.52L73.7508 36.4273L72.6953 35.8163V30.2401C72.6864 30.084 72.6412 29.9321 72.5631 29.7967C72.485 29.6613 72.3762 29.546 72.2455 29.4602L64.2256 24.8458L62.5722 23.8839C62.3122 23.7409 62.1224 23.8553 62.1224 24.1438V29.7201L61.0644 29.1092V22.3137C61.0619 22.2843 61.0619 22.2547 61.0644 22.2253C61.0853 22.0851 61.1357 21.951 61.2124 21.8318C61.289 21.7126 61.3901 21.611 61.5089 21.5338L62.177 21.1464C62.3165 21.0758 62.4705 21.0391 62.6268 21.0391C62.783 21.0391 62.9371 21.0758 63.0765 21.1464L74.8478 27.942C74.981 28.0262 75.0924 28.1408 75.1729 28.2763C75.2533 28.4119 75.3005 28.5646 75.3106 28.7219Z" fill="#427D76"/>
<path d="M73.73 29.6289V36.427L72.6745 35.8161V30.2398C72.6656 30.0837 72.6204 29.9319 72.5423 29.7964C72.4642 29.661 72.3554 29.5457 72.2248 29.4599L64.2256 24.8455L62.5722 23.8836C62.3122 23.7406 62.1224 23.855 62.1224 24.1436V29.7199L61.0644 29.1089V22.3134C61.0619 22.284 61.0619 22.2544 61.0644 22.225C61.1034 22.0041 61.288 21.9261 61.5089 22.0535L73.2802 28.849C73.4107 28.935 73.5194 29.0503 73.5975 29.1857C73.6755 29.3211 73.7209 29.4728 73.73 29.6289Z" fill="#295B56"/>
<path d="M89.569 98.0003L90.6245 97.3894L89.569 66.9603C89.5578 66.765 89.5009 66.575 89.4029 66.4057C89.3049 66.2364 89.1686 66.0924 89.0049 65.9854L69.0108 54.4403C68.6601 54.2156 68.3876 53.8877 68.2309 53.5018L67.5992 51.682C67.4432 51.2977 67.1704 50.9721 66.8193 50.7513L57.3955 45.4792C57.0835 45.305 56.8262 45.4532 56.8262 45.812V78.4508C56.8376 78.646 56.8946 78.8359 56.9925 79.0052C57.0905 79.1745 57.2267 79.3185 57.3903 79.4257L89.569 98.0003Z" fill="#427D76"/>
<path opacity="0.2" d="M89.569 98.0003L90.6245 97.3894L89.569 66.9603C89.5578 66.765 89.5009 66.575 89.4029 66.4057C89.3049 66.2364 89.1686 66.0924 89.0049 65.9854L69.0108 54.4403C68.6601 54.2156 68.3876 53.8877 68.2309 53.5018L67.5992 51.682C67.4432 51.2977 67.1704 50.9721 66.8193 50.7513L57.3955 45.4792C57.0835 45.305 56.8262 45.4532 56.8262 45.812V78.4508C56.8376 78.646 56.8946 78.8359 56.9925 79.0052C57.0905 79.1745 57.2267 79.3185 57.3903 79.4257L89.569 98.0003Z" fill="black"/>
<path d="M74.1783 46.442L96.5094 59.3364C96.6406 59.4216 96.7498 59.5367 96.828 59.6723C96.9062 59.8078 96.9511 59.96 96.9591 60.1163V96.8756C96.9591 97.1641 96.759 97.2785 96.5094 97.1355L74.1783 84.2438C74.0474 84.1581 73.9386 84.0429 73.8605 83.9074C73.7824 83.7719 73.7372 83.62 73.7285 83.4639V46.702C73.7285 46.4264 73.9287 46.299 74.1783 46.442Z" fill="white"/>
<g opacity="0.5">
<path d="M96.7129 97.3264C96.6211 97.3228 96.5316 97.296 96.4529 97.2484L74.1218 84.354C73.9702 84.2578 73.8438 84.1266 73.7533 83.9715C73.6629 83.8163 73.6109 83.6417 73.6019 83.4624V46.7005C73.5903 46.6211 73.6028 46.5401 73.6377 46.4679C73.6727 46.3958 73.7286 46.3358 73.798 46.2957C73.8675 46.2557 73.9474 46.2374 74.0274 46.2433C74.1074 46.2492 74.1837 46.2789 74.2466 46.3287L96.5777 59.2205C96.7294 59.3173 96.8558 59.4489 96.9462 59.6045C97.0367 59.7601 97.0886 59.935 97.0977 60.1147V96.874C97.1039 96.9528 97.0892 97.0319 97.0549 97.1031C97.0207 97.1744 96.9681 97.2353 96.9027 97.2796C96.8449 97.3122 96.7793 97.3284 96.7129 97.3264ZM73.9788 46.5107C73.9609 46.5065 73.9422 46.5065 73.9242 46.5107C73.8999 46.5332 73.8813 46.5613 73.87 46.5925C73.8586 46.6237 73.855 46.6571 73.8592 46.6901V83.4624C73.869 83.5941 73.9087 83.7218 73.9754 83.8358C74.042 83.9498 74.1339 84.0471 74.244 84.1201L96.5751 97.0144C96.6016 97.0351 96.6329 97.0489 96.666 97.0543C96.6992 97.0598 96.7332 97.0568 96.7649 97.0456C96.7896 97.0234 96.8085 96.9953 96.8198 96.9641C96.8311 96.9328 96.8346 96.8992 96.8299 96.8662V60.1147C96.8217 59.9812 96.7828 59.8514 96.716 59.7355C96.6492 59.6196 96.5565 59.5207 96.4451 59.4466L74.114 46.5549C74.0739 46.5279 74.0271 46.5126 73.9788 46.5107Z" fill="#99D6CF"/>
</g>
<path d="M76.4043 51.3859L86.8939 57.4432C87.0546 57.5439 87.1893 57.6812 87.2869 57.8438C87.3845 58.0064 87.4422 58.1898 87.4555 58.379C87.4555 58.7144 87.1955 58.8418 86.8939 58.6624L76.4043 52.6078C76.2434 52.507 76.1084 52.3698 76.0104 52.2072C75.9124 52.0446 75.8541 51.8612 75.8401 51.6719C75.8297 51.3339 76.0897 51.2066 76.4043 51.3859Z" fill="#37474F"/>
<path d="M76.4038 55.0476L94.2869 65.3709C94.4476 65.4712 94.5825 65.608 94.6805 65.7701C94.7785 65.9323 94.8369 66.1152 94.851 66.3041C94.851 66.6421 94.5911 66.7695 94.2895 66.5901L76.4064 56.2668C76.2453 56.1662 76.1103 56.029 76.0123 55.8664C75.9142 55.7038 75.856 55.5203 75.8423 55.3309C75.8293 55.0086 76.0892 54.8682 76.4038 55.0476Z" fill="#99D6CF"/>
<path d="M76.4038 58.6995L94.2869 69.0228C94.4476 69.1232 94.5825 69.2599 94.6805 69.4221C94.7785 69.5842 94.8369 69.7672 94.851 69.9561C94.851 70.2941 94.5911 70.4214 94.2895 70.2421L76.4064 59.9188C76.2453 59.8182 76.1103 59.681 76.0123 59.5184C75.9142 59.3558 75.856 59.1723 75.8423 58.9829C75.8293 58.6424 76.0892 58.5202 76.4038 58.6995Z" fill="#99D6CF"/>
<path d="M76.4043 62.3545L94.2874 72.6778C94.4484 72.7784 94.5835 72.9156 94.6815 73.0782C94.7795 73.2408 94.8378 73.4243 94.8515 73.6137C94.8515 73.9491 94.5915 74.0764 94.29 73.8971L76.4043 63.579C76.2436 63.4787 76.1087 63.3419 76.0107 63.1797C75.9127 63.0176 75.8543 62.8346 75.8401 62.6457C75.8297 62.3025 76.0897 62.1752 76.4043 62.3545Z" fill="#99D6CF"/>
<path d="M76.4038 66.0188L94.2869 76.342C94.448 76.4426 94.583 76.5798 94.681 76.7424C94.7791 76.9051 94.8373 77.0885 94.851 77.2779C94.851 77.6133 94.5911 77.7407 94.2895 77.5613L76.4064 67.238C76.2457 67.1377 76.1109 67.0009 76.0128 66.8387C75.9148 66.6766 75.8564 66.4937 75.8423 66.3047C75.8293 65.9668 76.0892 65.8394 76.4038 66.0188Z" fill="#99D6CF"/>
<path d="M76.4038 69.675L94.2869 79.9983C94.4478 80.099 94.5827 80.2363 94.6808 80.3988C94.7788 80.5614 94.8371 80.7448 94.851 80.9342C94.851 81.2721 94.5911 81.3995 94.2895 81.2201L76.4064 70.8942C76.2457 70.7939 76.1109 70.6571 76.0128 70.495C75.9148 70.3329 75.8564 70.1499 75.8423 69.961C75.8293 69.623 76.0892 69.4956 76.4038 69.675Z" fill="#99D6CF"/>
<path d="M76.4043 73.3313L94.2874 83.6546C94.4481 83.7549 94.5829 83.8917 94.6809 84.0539C94.7789 84.216 94.8374 84.399 94.8515 84.5879C94.8515 84.9258 94.5915 85.0532 94.29 84.8739L76.4043 74.5506C76.2432 74.45 76.1082 74.3128 76.0102 74.1502C75.9121 73.9875 75.8539 73.8041 75.8401 73.6147C75.8297 73.2793 76.0897 73.152 76.4043 73.3313Z" fill="#99D6CF"/>
<path d="M76.4038 76.9954L94.2869 87.3187C94.4476 87.419 94.5825 87.5558 94.6805 87.7179C94.7785 87.8801 94.8369 88.063 94.851 88.252C94.851 88.5899 94.5911 88.7173 94.2895 88.5379L76.4064 78.2146C76.2453 78.1141 76.1103 77.9769 76.0123 77.8142C75.9142 77.6516 75.856 77.4681 75.8423 77.2788C75.8293 76.9434 76.0892 76.816 76.4038 76.9954Z" fill="#99D6CF"/>
<path d="M71.0103 48.2715L93.3414 61.1659C93.473 61.2509 93.5826 61.366 93.6612 61.5015C93.7398 61.6371 93.7853 61.7893 93.7938 61.9458V98.7051C93.7938 98.991 93.591 99.108 93.3414 98.965L71.0103 86.0707C70.8793 85.9851 70.7704 85.8699 70.6922 85.7344C70.6141 85.5989 70.569 85.4469 70.5605 85.2908V48.5315C70.5605 48.2481 70.7633 48.1285 71.0103 48.2715Z" fill="white"/>
<path d="M93.5441 99.1485C93.4522 99.1449 93.3628 99.1181 93.2841 99.0705L70.953 86.1788C70.801 86.0823 70.6744 85.9507 70.5839 85.7951C70.4934 85.6394 70.4417 85.4643 70.433 85.2845V48.5252C70.4228 48.4462 70.4361 48.366 70.4714 48.2946C70.5067 48.2233 70.5624 48.164 70.6314 48.1242C70.7003 48.0844 70.7795 48.066 70.859 48.0712C70.9384 48.0764 71.0146 48.105 71.0778 48.1535L93.4089 61.0452C93.5611 61.1415 93.6877 61.2731 93.7783 61.4287C93.8688 61.5844 93.9204 61.7596 93.9288 61.9395V98.6988C93.9349 98.7775 93.9198 98.8563 93.885 98.9272C93.8503 98.9981 93.7972 99.0583 93.7313 99.1017C93.6742 99.1339 93.6096 99.1501 93.5441 99.1485ZM70.81 48.3328C70.7918 48.3324 70.7739 48.3369 70.758 48.3458C70.7326 48.3677 70.7132 48.3956 70.7013 48.4269C70.6895 48.4582 70.6858 48.492 70.6904 48.5252V85.2845C70.6986 85.418 70.7376 85.5478 70.8043 85.6638C70.8711 85.7797 70.9638 85.8785 71.0752 85.9526L93.4063 98.847C93.4283 98.8764 93.4603 98.8968 93.4963 98.9042C93.5323 98.9117 93.5698 98.9058 93.6017 98.8876C93.6336 98.8694 93.6578 98.8402 93.6697 98.8054C93.6816 98.7706 93.6804 98.7327 93.6663 98.6988V61.9395C93.658 61.8057 93.6187 61.6757 93.5515 61.5597C93.4843 61.4437 93.3909 61.345 93.2789 61.2714L70.9478 48.377C70.9065 48.3506 70.859 48.3354 70.81 48.3328Z" fill="#99D6CF"/>
<path d="M73.2301 53.2063L83.7198 59.2635C83.8809 59.3641 84.0159 59.5012 84.1139 59.6639C84.2119 59.8265 84.2702 60.01 84.2839 60.1994C84.2839 60.5347 84.024 60.6621 83.7198 60.4827L73.2301 54.4255C73.0694 54.3252 72.9346 54.1884 72.8366 54.0262C72.7386 53.8641 72.6801 53.6812 72.666 53.4922C72.6712 53.1543 72.9234 53.0269 73.2301 53.2063Z" fill="#99D6CF"/>
<path d="M73.2301 56.8688L91.1133 67.1921C91.2734 67.2934 91.4076 67.4309 91.5051 67.5934C91.6026 67.7559 91.6607 67.939 91.6748 68.128C91.6748 68.4659 91.4148 68.5933 91.1133 68.4139L73.2301 58.088C73.0694 57.9877 72.9346 57.8509 72.8366 57.6888C72.7386 57.5267 72.6801 57.3437 72.666 57.1548C72.6712 56.8246 72.9234 56.6894 73.2301 56.8688Z" fill="#99D6CF"/>
<path d="M73.2301 60.5266L91.1185 70.8603C91.2786 70.9611 91.4128 71.098 91.5103 71.2601C91.6078 71.4222 91.6659 71.6049 91.68 71.7936C91.68 72.1316 91.42 72.2589 91.1185 72.0796L73.2301 61.7459C73.0691 61.6453 72.9341 61.5081 72.836 61.3455C72.738 61.1829 72.6797 60.9994 72.666 60.81C72.6712 60.4746 72.9234 60.3473 73.2301 60.5266Z" fill="#99D6CF"/>
<path d="M73.2301 64.183L91.1185 74.4984C91.2786 74.5992 91.4128 74.7362 91.5103 74.8983C91.6078 75.0604 91.6659 75.2431 91.68 75.4317C91.68 75.7697 91.42 75.8971 91.1185 75.7177L73.2301 65.3996C73.0691 65.299 72.9341 65.1618 72.836 64.9992C72.738 64.8366 72.6797 64.6531 72.666 64.4637C72.6712 64.131 72.9234 64.0036 73.2301 64.183Z" fill="#99D6CF"/>
<path d="M73.2301 67.8469L91.1133 78.1702C91.2737 78.2712 91.4081 78.4085 91.5057 78.5711C91.6032 78.7337 91.6611 78.9169 91.6748 79.106C91.6748 79.4414 91.4148 79.5688 91.1133 79.3894L73.2301 69.0661C73.0694 68.9658 72.9346 68.829 72.8366 68.6669C72.7386 68.5047 72.6801 68.3218 72.666 68.1328C72.6712 67.7949 72.9234 67.6675 73.2301 67.8469Z" fill="#99D6CF"/>
<path d="M73.2301 71.5031L91.1133 81.8264C91.2737 81.9274 91.4081 82.0648 91.5057 82.2274C91.6032 82.3899 91.6611 82.5732 91.6748 82.7623C91.6748 83.0976 91.4148 83.225 91.1133 83.0457L73.2301 72.7224C73.0694 72.622 72.9346 72.4853 72.8366 72.3231C72.7386 72.161 72.6801 71.978 72.666 71.7891C72.6712 71.4511 72.9234 71.3238 73.2301 71.5031Z" fill="#99D6CF"/>
<path d="M73.2301 75.1594L91.1133 85.4827C91.2737 85.5837 91.4081 85.721 91.5057 85.8836C91.6032 86.0462 91.6611 86.2294 91.6748 86.4185C91.6748 86.7565 91.4148 86.8839 91.1133 86.7045L73.2301 76.3786C73.0694 76.2783 72.9346 76.1415 72.8366 75.9794C72.7386 75.8172 72.6801 75.6343 72.666 75.4453C72.6712 75.1074 72.9234 74.98 73.2301 75.1594Z" fill="#99D6CF"/>
<path d="M73.2301 78.8235L91.1133 89.1468C91.2734 89.2476 91.4076 89.3845 91.5051 89.5466C91.6026 89.7087 91.6607 89.8914 91.6748 90.0801C91.6748 90.418 91.4148 90.5454 91.1133 90.366L73.2301 80.0428C73.0691 79.9422 72.9341 79.805 72.836 79.6424C72.738 79.4797 72.6797 79.2963 72.666 79.1069C72.6712 78.7715 72.9234 78.6441 73.2301 78.8235Z" fill="#99D6CF"/>
<path d="M89.5689 98.0036L84.4086 69.987C84.3117 69.5909 84.0683 69.2463 83.7275 69.0225L52.1181 50.7728C51.8087 50.5935 51.5982 50.7364 51.6736 51.0874L56.7169 78.4645C56.8138 78.8606 57.0572 79.2052 57.398 79.429L89.5689 98.0036Z" fill="#427D76"/>
<path d="M50.4948 63.8971V82.0947C50.5054 82.2902 50.562 82.4803 50.6601 82.6498C50.7581 82.8192 50.8947 82.963 51.0589 83.0696L63.6595 90.3487C63.8225 90.4509 64.0102 90.5068 64.2026 90.5103C64.3949 90.5138 64.5846 90.4647 64.7511 90.3685C64.9177 90.2722 65.0549 90.1324 65.1479 89.964C65.2409 89.7956 65.2863 89.605 65.2791 89.4128V71.2125C65.2684 71.0174 65.212 70.8275 65.1144 70.6582C65.0169 70.4889 64.881 70.3448 64.7176 70.2376L52.1144 62.9586C51.9516 62.8565 51.7641 62.8007 51.572 62.7971C51.3799 62.7935 51.1904 62.8423 51.0239 62.9382C50.8575 63.0341 50.7202 63.1736 50.627 63.3416C50.5338 63.5096 50.4881 63.6998 50.4948 63.8919V63.8971Z" fill="#455A64"/>
<path d="M65.2808 80.3166V71.2178C65.2741 71.0223 65.2178 70.8317 65.117 70.6641L63.5312 71.5791V90.2967L63.6612 90.3721C63.829 90.4608 64.0153 90.5087 64.205 90.5119C64.3947 90.515 64.5825 90.4734 64.7531 90.3903C64.9085 90.2832 65.0365 90.141 65.1268 89.9753C65.2172 89.8096 65.2672 89.6249 65.273 89.4363L65.2808 80.3166Z" fill="#263238"/>
<path d="M51.0602 63.5813L63.6608 70.8604C63.825 70.967 63.9616 71.1108 64.0597 71.2802C64.1577 71.4496 64.2143 71.6398 64.2249 71.8353V90.0459C64.2249 90.4047 63.965 90.5503 63.6608 90.3709L51.0602 83.0918C50.8961 82.9852 50.7594 82.8414 50.6614 82.672C50.5633 82.5026 50.5067 82.3124 50.4961 82.1169V63.9193C50.4961 63.5397 50.7483 63.3941 51.0602 63.5813Z" fill="#37474F"/>
<path d="M52.1149 65.4033L62.6046 71.4579C62.7684 71.5648 62.9049 71.7087 63.0029 71.8781C63.1009 72.0474 63.1577 72.2374 63.1687 72.4328V85.7664C63.1687 86.1252 62.9087 86.2708 62.6046 86.0914L52.1149 80.0342C51.9507 79.9276 51.8141 79.7837 51.716 79.6143C51.618 79.4449 51.5614 79.2548 51.5508 79.0593V65.7308C51.5508 65.3721 51.8029 65.2265 52.1149 65.4033Z" fill="white"/>
<path d="M54.0916 68.5252C54.4544 68.762 54.7562 69.0811 54.9725 69.4564C55.1889 69.8318 55.3137 70.2529 55.3368 70.6855C55.3368 71.481 54.7805 71.8033 54.0916 71.4056C53.7285 71.1689 53.4263 70.8499 53.2095 70.4746C52.9927 70.0992 52.8674 69.6781 52.8438 69.2453C52.8438 68.4446 53.4027 68.1222 54.0916 68.5252Z" fill="#427D76"/>
<path d="M59.418 73.2562L56.8184 77.0778L54.8556 74.1193C54.7972 74.0101 54.7115 73.9179 54.6068 73.8518C54.5021 73.7857 54.382 73.7479 54.2583 73.7421C54.1346 73.7363 54.0115 73.7628 53.9012 73.8189C53.7908 73.875 53.6968 73.9588 53.6286 74.0621L51.5488 76.6618V79.0587C51.5594 79.2541 51.6161 79.4443 51.7141 79.6137C51.8121 79.7831 51.9488 79.927 52.113 80.0336L62.6026 86.0908C62.9146 86.2702 63.1667 86.1246 63.1667 85.7658V79.1029L60.4423 73.3368C60.2005 72.8169 59.7404 72.7805 59.418 73.2562Z" fill="#427D76"/>
<path opacity="0.2" d="M59.418 73.2562L56.8184 77.0778L54.8556 74.1193C54.7972 74.0101 54.7115 73.9179 54.6068 73.8518C54.5021 73.7857 54.382 73.7479 54.2583 73.7421C54.1346 73.7363 54.0115 73.7628 53.9012 73.8189C53.7908 73.875 53.6968 73.9588 53.6286 74.0621L51.5488 76.6618V79.0587C51.5594 79.2541 51.6161 79.4443 51.7141 79.6137C51.8121 79.7831 51.9488 79.927 52.113 80.0336L62.6026 86.0908C62.9146 86.2702 63.1667 86.1246 63.1667 85.7658V79.1029L60.4423 73.3368C60.2005 72.8169 59.7404 72.7805 59.418 73.2562Z" fill="black"/>
<path d="M10.8178 60.5534C14.8699 58.1106 18.2219 54.6619 20.5485 50.5421C22.8752 46.4222 24.0975 41.7709 24.097 37.0394V27.8054C24.097 27.5194 24.2997 27.4024 24.5467 27.5454L47.9437 41.0481C48.0744 41.1339 48.1831 41.2492 48.2612 41.3846C48.3393 41.52 48.3846 41.6719 48.3934 41.828V51.062C48.3907 55.7724 47.1761 60.4029 44.8665 64.5082C42.5568 68.6134 39.2298 72.0555 35.2053 74.5032C35.039 74.6021 34.849 74.6542 34.6555 74.6542C34.462 74.6542 34.272 74.6021 34.1057 74.5032L10.8204 61.0785C10.7659 61.0597 10.7185 61.0245 10.6849 60.9776C10.6513 60.9307 10.6331 60.8746 10.6328 60.8169C10.6325 60.7592 10.6502 60.7028 10.6833 60.6556C10.7165 60.6084 10.7635 60.5727 10.8178 60.5534Z" fill="white"/>
<path d="M34.6542 74.7959C34.4385 74.7962 34.2266 74.7387 34.0406 74.6295L10.7554 61.1866C10.6815 61.1558 10.6184 61.1039 10.574 61.0372C10.5296 60.9706 10.5059 60.8924 10.5059 60.8123C10.5059 60.7322 10.5296 60.654 10.574 60.5873C10.6184 60.5207 10.6815 60.4687 10.7554 60.4379C14.7781 57.9968 18.1062 54.5631 20.4206 50.4662C22.7349 46.3692 23.9578 41.7464 23.9721 37.0409V27.8017C23.9664 27.7231 23.9816 27.6443 24.0163 27.5735C24.0511 27.5027 24.104 27.4424 24.1697 27.3988C24.2401 27.3631 24.3189 27.3471 24.3976 27.3526C24.4763 27.3581 24.5521 27.3848 24.6169 27.43L48.0139 40.9326C48.1655 41.0289 48.2919 41.16 48.3823 41.3152C48.4728 41.4704 48.5247 41.6449 48.5338 41.8243V51.0583C48.517 55.7907 47.2899 60.4401 44.9693 64.5644C42.6487 68.6887 39.3116 72.1509 35.2755 74.6217C35.0888 74.7368 34.8735 74.7971 34.6542 74.7959ZM10.8854 60.6615C10.8074 60.7083 10.7632 60.7629 10.7632 60.8149C10.7632 60.8669 10.8074 60.9163 10.8854 60.9605L34.1706 74.406C34.3172 74.4921 34.4841 74.5376 34.6542 74.5376C34.8242 74.5376 34.9911 74.4921 35.1377 74.406C39.133 71.9564 42.4356 68.5258 44.7315 64.4403C47.0275 60.3548 48.2406 55.75 48.2556 51.0635V41.8243C48.2471 41.6909 48.2079 41.5612 48.1412 41.4454C48.0745 41.3295 47.982 41.2306 47.8709 41.1562L24.4739 27.6535C24.4476 27.6335 24.4168 27.6201 24.3842 27.6147C24.3515 27.6092 24.3181 27.6119 24.2867 27.6223C24.2613 27.6442 24.2418 27.6721 24.23 27.7034C24.2182 27.7347 24.2145 27.7685 24.2191 27.8017V37.0357C24.2047 41.7867 22.9703 46.4543 20.6342 50.5912C18.2981 54.7281 14.9385 58.1957 10.8776 60.6615H10.8854Z" fill="#84CFC7"/>
<path d="M38.3937 39.1975L44.6615 42.8162C44.8216 42.917 44.9558 43.054 45.0534 43.2161C45.1509 43.3781 45.209 43.5609 45.2231 43.7495C45.2231 44.0875 44.9631 44.2149 44.6615 44.0355L38.3937 40.4167C38.2333 40.3157 38.0989 40.1784 38.0013 40.0158C37.9038 39.8532 37.8459 39.67 37.8322 39.4809C37.8244 39.1507 38.0766 39.0181 38.3937 39.1975Z" fill="#84CFC7"/>
<path d="M34.6565 42.5239C34.6565 42.8593 34.3965 42.9866 34.0924 42.8073L27.8272 39.1911C27.6671 39.0903 27.5328 38.9534 27.4353 38.7913C27.3378 38.6292 27.2797 38.4465 27.2656 38.2578C27.2656 37.9199 27.5256 37.7925 27.8272 37.9719L34.0924 41.588C34.2534 41.6886 34.3884 41.8258 34.4865 41.9884C34.5845 42.151 34.6427 42.3345 34.6565 42.5239Z" fill="#84CFC7"/>
<path d="M44.9094 53.3214C44.8626 53.6308 44.5663 53.7348 44.2543 53.5554L27.4319 43.843C27.2789 43.7532 27.1538 43.6229 27.0703 43.4665C26.9868 43.31 26.9482 43.1335 26.9587 42.9565C27.0055 42.6472 27.2889 42.5406 27.5982 42.72L44.4259 52.4349C44.5801 52.524 44.7069 52.6539 44.7922 52.8103C44.8775 52.9666 44.918 53.1435 44.9094 53.3214Z" fill="#84CFC7"/>
<path d="M44.2158 56.5815C44.1326 56.8701 43.8102 56.9585 43.4983 56.7791L26.6758 47.0641C26.5279 46.9829 26.409 46.8577 26.3354 46.7059C26.2618 46.554 26.2372 46.3831 26.2651 46.2166C26.3457 45.9255 26.6576 45.8345 26.967 46.0139L43.792 55.7288C43.9419 55.8099 44.0631 55.9354 44.139 56.088C44.2148 56.2407 44.2417 56.413 44.2158 56.5815Z" fill="#84CFC7"/>
<path d="M43.1675 59.6316C43.0557 59.9045 42.71 59.9773 42.3876 59.798L25.5626 50.0856C25.418 50.0117 25.3038 49.8899 25.2392 49.7409C25.1747 49.592 25.164 49.4253 25.209 49.2693C25.2422 49.203 25.2897 49.1448 25.3481 49.099C25.4065 49.0533 25.4743 49.021 25.5467 49.0046C25.619 48.9882 25.6941 48.988 25.7665 49.0041C25.839 49.0202 25.9069 49.0522 25.9655 49.0977L42.8139 58.8127C42.9576 58.8882 43.0711 59.0106 43.1354 59.1597C43.1998 59.3087 43.2111 59.4752 43.1675 59.6316Z" fill="#84CFC7"/>
<path d="M41.7943 62.5016C41.7022 62.6279 41.5639 62.7127 41.4095 62.7375C41.2552 62.7624 41.0973 62.7252 40.9702 62.6342L24.1477 52.927C24.0073 52.8602 23.8978 52.7421 23.8417 52.5971C23.7856 52.452 23.7872 52.291 23.8462 52.1471C23.8898 52.0841 23.9455 52.0304 24.0101 51.9892C24.0747 51.9479 24.1468 51.92 24.2223 51.9069C24.2978 51.8938 24.3751 51.8959 24.4498 51.9131C24.5245 51.9302 24.595 51.962 24.6573 52.0067L41.4823 61.7191C41.6239 61.7855 41.735 61.9034 41.7929 62.0487C41.8509 62.194 41.8513 62.3559 41.7943 62.5016Z" fill="#84CFC7"/>
<path d="M32.0791 61.7666C31.9642 61.8829 31.8125 61.9558 31.65 61.9728C31.4874 61.9899 31.3239 61.9501 31.1874 61.8602L21.7558 56.4191C21.6887 56.3889 21.6287 56.3448 21.5799 56.2897C21.5311 56.2346 21.4946 56.1698 21.4727 56.0995C21.4508 56.0292 21.4441 55.9551 21.453 55.882C21.462 55.8089 21.4863 55.7386 21.5244 55.6756C21.6368 55.5583 21.7867 55.484 21.9481 55.4655C22.1095 55.447 22.2723 55.4854 22.4083 55.5742L31.8425 61.0335C32.1545 61.2025 32.2611 61.5405 32.0791 61.7666Z" fill="#84CFC7"/>
<path d="M28.6361 66.8125C28.6361 66.8125 23.6968 70.0725 17.7617 70.2987C18.9706 70.998 21.6976 71.2865 23.8033 70.998C23.8033 70.998 23.5096 72.2224 21.3857 73.7874C21.3857 73.7874 24.8432 74.7207 31.0538 68.2059L28.6361 66.8125Z" fill="#84CFC7"/>
<path d="M33.8603 68.0341C32.8022 69.1104 30.6679 69.2014 29.2095 68.3591C27.751 67.5168 27.5223 66.0636 28.5803 64.9795C29.6384 63.8954 31.5777 63.6225 33.0362 64.4596C34.4946 65.2967 34.9183 66.9631 33.8603 68.0341Z" fill="#84CFC7"/>
<path opacity="0.2" d="M33.8603 68.0341C32.8022 69.1104 30.6679 69.2014 29.2095 68.3591C27.751 67.5168 27.5223 66.0636 28.5803 64.9795C29.6384 63.8954 31.5777 63.6225 33.0362 64.4596C34.4946 65.2967 34.9183 66.9631 33.8603 68.0341Z" fill="black"/>
<path d="M33.8603 67.7064C32.8022 68.7826 30.6679 68.871 29.2095 68.0313C27.751 67.1916 27.5223 65.7332 28.5803 64.6518C29.6384 63.5703 31.5777 63.2921 33.0362 64.1318C34.4946 64.9715 34.9183 66.6301 33.8603 67.7064Z" fill="#84CFC7"/>
<path d="M31.4085 67.8202C30.7723 67.8269 30.1452 67.6684 29.5887 67.3601C29.0688 67.0611 28.7568 66.6712 28.7022 66.2578C28.689 66.0639 28.72 65.8695 28.7929 65.6894C28.8659 65.5092 28.9789 65.348 29.1233 65.218C29.6684 64.7033 30.3938 64.4232 31.1433 64.4381C31.6661 64.4335 32.1809 64.5671 32.6355 64.8254C32.8933 64.9569 33.1182 65.1449 33.2933 65.3753C33.4684 65.6058 33.5892 65.8728 33.6468 66.1564C33.6724 66.341 33.6537 66.529 33.5922 66.7048C33.5308 66.8807 33.4283 67.0394 33.2932 67.1677C32.7734 67.6215 32.0976 67.8555 31.4085 67.8202Z" fill="#84CFC7"/>
<path opacity="0.3" d="M31.4085 67.8202C30.7723 67.8269 30.1452 67.6684 29.5887 67.3601C29.0688 67.0611 28.7568 66.6712 28.7022 66.2578C28.689 66.0639 28.72 65.8695 28.7929 65.6894C28.8659 65.5092 28.9789 65.348 29.1233 65.218C29.6684 64.7033 30.3938 64.4232 31.1433 64.4381C31.6661 64.4335 32.1809 64.5671 32.6355 64.8254C32.8933 64.9569 33.1182 65.1449 33.2933 65.3753C33.4684 65.6058 33.5892 65.8728 33.6468 66.1564C33.6724 66.341 33.6537 66.529 33.5922 66.7048C33.5308 66.8807 33.4283 67.0394 33.2932 67.1677C32.7734 67.6215 32.0976 67.8555 31.4085 67.8202Z" fill="black"/>
<path d="M32.6468 65.1457C32.1918 64.8886 31.6773 64.7551 31.1546 64.7584C30.4051 64.7435 29.6798 65.0236 29.1347 65.5383C28.9245 65.7408 28.7796 66.0015 28.7188 66.287C28.7778 66.5197 28.8874 66.7365 29.0397 66.922C29.192 67.1076 29.3833 67.2573 29.6 67.3606C30.1566 67.6689 30.7836 67.8275 31.4198 67.8208C32.1128 67.8581 32.7929 67.6229 33.315 67.1657C33.5057 66.9803 33.6299 66.7373 33.6685 66.4741C33.6086 66.1903 33.4856 65.9236 33.3088 65.6937C33.132 65.4638 32.9058 65.2765 32.6468 65.1457Z" fill="#84CFC7"/>
<path opacity="0.2" d="M32.6468 65.1457C32.1918 64.8886 31.6773 64.7551 31.1546 64.7584C30.4051 64.7435 29.6798 65.0236 29.1347 65.5383C28.9245 65.7408 28.7796 66.0015 28.7188 66.287C28.7778 66.5197 28.8874 66.7365 29.0397 66.922C29.192 67.1076 29.3833 67.2573 29.6 67.3606C30.1566 67.6689 30.7836 67.8275 31.4198 67.8208C32.1128 67.8581 32.7929 67.6229 33.315 67.1657C33.5057 66.9803 33.6299 66.7373 33.6685 66.4741C33.6086 66.1903 33.4856 65.9236 33.3088 65.6937C33.132 65.4638 32.9058 65.2765 32.6468 65.1457Z" fill="black"/>
</svg>
