<svg width="16" height="16" viewBox="0 0 16 16" fill="none" xmlns="http://www.w3.org/2000/svg">
<path d="M7.83333 7.5H5.5V10.6667H10.1667V7.5H7.83333Z" stroke="#8E8E93" stroke-width="1.5" stroke-linejoin="round"/>
<path fill-rule="evenodd" clip-rule="evenodd" d="M4.16667 2C4.12246 2 4.08007 2.01756 4.04882 2.04882C4.01756 2.08007 4 2.12246 4 2.16667V13.1667C4 13.2109 4.01756 13.2533 4.04882 13.2845C4.08007 13.3158 4.12246 13.3333 4.16667 13.3333H11.5C11.5442 13.3333 11.5866 13.3158 11.6179 13.2845C11.6491 13.2533 11.6667 13.2109 11.6667 13.1667V4.83333H9.33333C9.20073 4.83333 9.07355 4.78065 8.97978 4.68689C8.88601 4.59312 8.83333 4.46594 8.83333 4.33333V2H4.16667ZM9.83333 2.70708L10.9596 3.83333H9.83333V2.70708ZM3 2.16667C3 1.52233 3.52233 1 4.16667 1H9.33333C9.46592 1 9.59308 1.05267 9.68692 1.14642L12.5203 3.97975C12.5667 4.02619 12.6035 4.08131 12.6286 4.14198C12.6537 4.20265 12.6667 4.26767 12.6667 4.33333V13.1667C12.6667 13.811 12.1443 14.3333 11.5 14.3333H4.16667C3.52233 14.3333 3 13.811 3 13.1667V2.16667Z" fill="#8E8E93"/>
</svg>
