<svg width="80" height="80" viewBox="0 0 80 80" fill="none" xmlns="http://www.w3.org/2000/svg">
<path d="M36.249 0H42.0688C43.021 0 43.9721 0.068009 44.9146 0.203508L48.749 0.754717L51.8211 1.61346C52.7717 1.87917 53.7014 2.2149 54.6024 2.61787L57.749 4.02516L60.1398 5.30829C61.0446 5.79387 61.9106 6.3484 62.7302 6.96696L64.499 8.30188L67.999 11.3208L71.249 14.8428L72.5764 16.751C72.8577 17.1554 73.109 17.58 73.3283 18.0212L73.7421 18.854C73.9124 19.1968 74.0308 19.563 74.0933 19.9407C74.1956 20.558 74.1462 21.1908 73.9494 21.7848L73.8125 22.1981C73.6055 22.8232 73.2794 23.4024 72.8524 23.9038C72.2926 24.5609 71.5753 25.0655 70.7676 25.3703L70.6286 25.4228C70.2103 25.5806 69.7749 25.6886 69.3313 25.7444L67.999 25.9119H59.575C59.1935 25.9119 58.8145 25.8501 58.4529 25.7288C57.8294 25.5196 57.2767 25.1404 56.8573 24.6339L56.6332 24.3633C56.3781 24.0552 56.1628 23.7163 55.9924 23.3544L54.7602 20.7366C54.2546 19.6625 53.6204 18.6538 52.8714 17.7327C52.1259 16.8157 51.2721 15.9923 50.3288 15.2804L50.2175 15.1964C49.2418 14.46 48.1839 13.8393 47.0651 13.3467L45.9656 12.8626C45.1569 12.5066 44.3121 12.2391 43.4458 12.0648C42.6499 11.9046 41.84 11.8239 41.0281 11.8239H39.55C38.1886 11.8239 36.8134 12.0079 35.4985 12.3607C34.3475 12.6696 33.2197 13.117 32.1719 13.6847C31.061 14.2867 30.0292 15.0246 29.1004 15.8813L28.3895 16.5371C27.7969 17.0837 27.2512 17.6791 26.7581 18.317C26.0875 19.1846 25.5182 20.1258 25.0611 21.1225L24.249 22.8931L23.9246 23.981C23.6413 24.9315 23.429 25.9019 23.2896 26.8839L23.249 27.1698V29.1824L23.302 29.556C23.4116 30.3278 22.8858 31.0462 22.117 31.1752C22.0385 31.1883 21.959 31.195 21.8793 31.195H1.84602C1.62494 31.195 1.41405 31.102 1.26495 30.9387C1.07559 30.7313 1.01106 30.4388 1.09564 30.171L1.24898 29.6855L2.99898 24.6541L4.99898 20.6289L6.99898 17.3585L9.24898 14.3396L11.999 11.3208L12.6861 10.6294C13.3937 9.91729 14.1539 9.25952 14.9603 8.6616L18.499 6.03773L21.7426 4.22441C22.5791 3.75675 23.4482 3.34982 24.343 3.00677L26.8391 2.0499C27.7777 1.6901 28.7421 1.40157 29.724 1.18676L33.999 0.251572L36.249 0Z" fill="#001F3F"/>
<path d="M56.75 52.7713C56.75 50.8586 58.3005 49.3081 60.2132 49.3081H77.1114C77.9765 49.3081 78.6413 50.0739 78.5197 50.9304C78.5066 51.0227 78.4845 51.1134 78.4536 51.2013L77 55.3458L75 59.6226L72.75 63.1446L70.75 65.6603L68.5 68.176L67.2077 69.4765C66.404 70.2852 65.5327 71.0237 64.6032 71.6839L61.75 73.7106L58.25 75.7232L55.8225 76.8631C54.942 77.2766 54.0325 77.6253 53.1013 77.9065L49.5 78.9936L46 79.7483L44 79.9999H37.262C36.0896 79.9999 34.9195 79.8968 33.7651 79.6918L31.25 79.2452L27.5 78.2389L22.5 76.2263L19.3027 74.4389C18.4354 73.954 17.6055 73.4053 16.8199 72.7971L14.75 71.1949L11.75 68.4276L9.75 66.415L7.52091 63.5602C7.17452 63.1165 6.87381 62.639 6.62336 62.135L6.19777 61.2785C5.90326 60.6857 5.75 60.0329 5.75 59.371C5.75 58.7091 5.90326 58.0563 6.19777 57.4635L6.3736 57.1097C6.78555 56.2806 7.38467 55.5587 8.12363 55.001L8.68467 54.5775C8.89351 54.4199 9.12648 54.2971 9.37455 54.2139C9.6232 54.1305 9.88374 54.088 10.146 54.088H20.9299C21.3065 54.088 21.6795 54.1602 22.0289 54.3009C22.5015 54.4911 22.9167 54.8008 23.2337 55.1996L23.4175 55.4308C23.6382 55.7084 23.8216 56.0137 23.963 56.3389L24.697 58.0272C25.2306 59.2544 25.9038 60.416 26.7035 61.4889L26.8444 61.6779C27.4466 62.4859 28.1284 63.2315 28.8795 63.9033C29.6247 64.5698 30.4343 65.1605 31.2965 65.6666L31.7003 65.9037C32.565 66.4113 33.4737 66.8399 34.4152 67.1845L34.4792 67.2079C35.3249 67.5173 36.2028 67.7557 37.0886 67.9178C38.0224 68.0886 38.9775 68.176 39.9267 68.176C41.303 68.176 42.6732 67.9954 44.0024 67.6387L44.1111 67.6095C45.2009 67.3171 46.2579 66.9142 47.2658 66.4071L47.6234 66.2271C49.0342 65.5173 50.339 64.6139 51.4998 63.5431L51.6297 63.4233C52.3747 62.7361 53.0491 61.976 53.6428 61.1545C54.3781 60.1371 54.9845 59.0326 55.4482 57.8661L55.7018 57.228C56.0664 56.3109 56.3384 55.3598 56.5139 54.3887L56.6948 53.3871C56.7315 53.1839 56.75 52.9778 56.75 52.7713Z" fill="#FD9024"/>
<path d="M36.1048 17.6588C37.1944 17.2933 38.336 17.1069 39.4853 17.1069H40.9052C41.7969 17.1069 42.6838 17.2379 43.5374 17.4956C44.3419 17.7385 45.109 18.0915 45.8167 18.5447L46.1915 18.7847C47.0596 19.3406 47.8462 20.0146 48.5287 20.7872C49.1734 21.5171 49.7195 22.3286 50.1528 23.2007L51.7581 26.4314C52.2482 27.4178 52.9218 28.3018 53.7427 29.0361L53.8803 29.1592C54.4566 29.6747 55.1093 30.0978 55.8151 30.4135C56.5992 30.7642 57.4377 30.9773 58.2941 31.0436L60.25 31.195H74.4225C75.1333 31.195 75.8367 31.3402 76.4894 31.6217L76.831 31.769C77.1086 31.8887 77.3656 32.0515 77.5925 32.2512L79.0166 33.5052C79.1543 33.6264 79.1932 33.825 79.1116 33.9892C79.0432 34.1268 78.9028 34.2138 78.7491 34.2138H35.1866C34.242 34.2138 33.3105 33.9927 32.4667 33.5681C31.991 33.3288 31.5489 33.0277 31.1521 32.6727L30.2542 31.8696C29.756 31.4239 29.3472 30.8874 29.0497 30.2888C28.6882 29.5611 28.5 28.7595 28.5 27.947V27.8981C28.5 27.4147 28.5641 26.9335 28.6905 26.4669L28.9358 25.5618C29.1448 24.7908 29.429 24.0423 29.7845 23.3269L29.82 23.2554C30.2714 22.3469 30.8402 21.5017 31.5117 20.7414L31.622 20.6166C32.2049 19.9567 32.8701 19.3744 33.6013 18.8838C34.3637 18.3724 35.1911 17.9653 36.0614 17.6733L36.1048 17.6588Z" fill="#FD9024"/>
<path d="M1.25 46.4162C1.25 46.2076 1.41972 46.0388 1.62834 46.0399L45.7727 46.28C46.8992 46.2861 47.9989 46.6241 48.9345 47.2517C49.4742 47.6138 49.9485 48.0651 50.3369 48.5863L51.157 49.6867C51.2189 49.7697 51.2732 49.8581 51.3192 49.9508C51.4381 50.1901 51.5 50.4536 51.5 50.7208V52.0053C51.5 52.7191 51.3939 53.4288 51.1852 54.1114L50.9631 54.8379C50.6557 55.843 50.2153 56.8024 49.6536 57.6907L49.501 57.932C49.0029 58.7197 48.3949 59.4323 47.6954 60.0482C47.0677 60.6009 46.3719 61.0709 45.6248 61.4467L45.4545 61.5324C44.6543 61.935 43.8091 62.2409 42.9366 62.4435L42.0532 62.6486C41.3534 62.8111 40.6372 62.8932 39.9187 62.8932C39.1425 62.8932 38.3693 62.7974 37.6166 62.608L36.7235 62.3834C36.0765 62.2206 35.4493 61.9872 34.8533 61.6873C34.1211 61.3189 33.4421 60.8533 32.8345 60.3031L32.4513 59.956C31.6536 59.2335 30.9492 58.4141 30.3548 57.5168C29.9524 56.9093 29.602 56.2688 29.3076 55.6022L28.0063 52.6558C27.8361 52.2706 27.6173 51.9087 27.3553 51.579C26.9556 51.0763 26.4616 50.6565 25.9011 50.3431L24.5 49.5599L24.0792 49.3905C23.528 49.1686 22.9544 49.0071 22.3685 48.9089C21.9567 48.8398 21.5404 48.8022 21.123 48.7964L4.87264 48.5693C4.13641 48.559 3.41499 48.3609 2.77669 47.9939L2.41824 47.7878C2.14234 47.6291 1.90188 47.4156 1.71169 47.1604L1.32458 46.6411C1.27616 46.5761 1.25 46.4972 1.25 46.4162Z" fill="#001F3F"/>
<path d="M0 40.2515H34L40 42.7672L40.75 43.2703V43.7735L0.5 43.5219L0 42.7672V40.2515Z" fill="#001F3F"/>
<path d="M40.5 36.9812H79.75L80 37.4843V40.2516L48.25 40.5032L43.25 38.4906L40.5 37.2328V36.9812Z" fill="#FD9024"/>
<path d="M0.5 33.9622H24.75L26.5 35.7232L28 36.981V37.2326H0.25L0 36.4779L0.5 33.9622Z" fill="#001F3F"/>
<path d="M52.75 43.0188L79.75 43.2704L79.5 46.2892L79.25 46.5408H55.75L52.75 43.5219V43.0188Z" fill="#FD9024"/>
</svg>
