<svg width="13" height="12" viewBox="0 0 13 12" fill="none" xmlns="http://www.w3.org/2000/svg">
<path d="M8.32617 7.87161C8.83711 7.87161 9.2513 8.31214 9.2513 8.85556V9.98119L9.24713 10.0422C9.08285 11.2377 8.07323 11.8125 6.37906 11.8125C4.691 11.8125 3.66526 11.2442 3.44384 10.0625L3.4362 9.98008V8.85556C3.4362 8.31214 3.85039 7.87161 4.36133 7.87161H8.32617ZM8.58728 4.49802L11.7624 4.49806C12.2733 4.49806 12.6875 4.93859 12.6875 5.48202V6.60764L12.6833 6.66863C12.5191 7.8641 11.5094 8.43895 9.81526 8.43895L9.72633 8.43805C9.5632 7.81793 9.04568 7.35523 8.42069 7.31257L8.32617 7.30935L7.83864 7.30976C8.37786 6.84592 8.72266 6.13651 8.72266 5.34145C8.72266 5.04571 8.67495 4.76182 8.58728 4.49802ZM0.92513 4.49806L4.10022 4.49802C4.01255 4.76182 3.96484 5.04571 3.96484 5.34145C3.96484 6.08974 4.27026 6.76216 4.75575 7.22539L4.84886 7.30976L4.36133 7.30935C3.69407 7.30935 3.1318 7.78748 2.96087 8.43918L2.94286 8.43895C1.2548 8.43895 0.229063 7.87068 0.00764565 6.68895L0 6.60653V5.48202C0 4.93859 0.414195 4.49806 0.92513 4.49806ZM6.34375 3.37355C7.36562 3.37355 8.19401 4.25461 8.19401 5.34145C8.19401 6.42829 7.36562 7.30935 6.34375 7.30935C5.32188 7.30935 4.49349 6.42829 4.49349 5.34145C4.49349 4.25461 5.32188 3.37355 6.34375 3.37355ZM9.77995 0C10.8018 0 11.6302 0.88106 11.6302 1.9679C11.6302 3.05475 10.8018 3.93581 9.77995 3.93581C8.75808 3.93581 7.92969 3.05475 7.92969 1.9679C7.92969 0.88106 8.75808 0 9.77995 0ZM2.90755 0C3.92942 0 4.75781 0.88106 4.75781 1.9679C4.75781 3.05475 3.92942 3.93581 2.90755 3.93581C1.88568 3.93581 1.05729 3.05475 1.05729 1.9679C1.05729 0.88106 1.88568 0 2.90755 0Z" fill="#8E8E93"/>
</svg>
