<svg width="15" height="8" viewBox="0 0 15 8" fill="none" xmlns="http://www.w3.org/2000/svg">
<path d="M8.91667 0.75H10.6667C11.0497 0.75 11.429 0.825442 11.7828 0.972018C12.1367 1.11859 12.4582 1.33343 12.7291 1.60427C12.9999 1.87511 13.2147 2.19664 13.3613 2.55051C13.5079 2.90437 13.5833 3.28364 13.5833 3.66667C13.5833 4.04969 13.5079 4.42896 13.3613 4.78283C13.2147 5.13669 12.9999 5.45822 12.7291 5.72906C12.4582 5.9999 12.1367 6.21474 11.7828 6.36132C11.429 6.50789 11.0497 6.58333 10.6667 6.58333H8.91667M5.41667 6.58333H3.66667C3.28364 6.58333 2.90437 6.50789 2.55051 6.36132C2.19664 6.21474 1.87511 5.9999 1.60427 5.72906C1.05729 5.18208 0.75 4.44022 0.75 3.66667C0.75 2.89312 1.05729 2.15125 1.60427 1.60427C2.15125 1.05729 2.89312 0.75 3.66667 0.75H5.41667M4.83333 3.66667H9.5" stroke="#001F3F" stroke-width="1.5" stroke-linecap="round" stroke-linejoin="round"/>
</svg>
