<svg width="20" height="20" viewBox="0 0 20 20" fill="none" xmlns="http://www.w3.org/2000/svg">
<g clip-path="url(#clip0_20504_61975)">
<path d="M19.9744 10.7135C19.991 10.4778 20 10.24 20 10C20 4.47715 15.5229 0 10 0C4.47715 0 0 4.47715 0 10C0 14.6004 3.10664 18.4746 7.33629 19.6407L19.9744 10.7135Z" fill="#89C429"/>
<path d="M19.9745 10.7169L12.3045 3.04688L4.65234 16.9599L7.33648 19.6441C8.18461 19.8779 9.07769 20.0034 10.0002 20.0034C15.2831 20.0034 19.6086 15.9067 19.9745 10.7169Z" fill="#709E21"/>
<path d="M10.8723 13.0469L9.98887 3.04688H4.65234V12.1773L10.8723 13.0469Z" fill="white"/>
<path d="M15.3479 12.1773V6.09035L13.174 5.22078L12.3044 3.04688H9.98877L10.0027 13.0469L15.3479 12.1773Z" fill="#E8E6E6"/>
<path d="M12.3042 6.09035V3.04688L15.3477 6.09035H12.3042Z" fill="white"/>
<path d="M15.348 12.1719H4.65234V16.9545H15.348V12.1719Z" fill="#B3DA73"/>
<path d="M8.88359 13.8645L8.57906 14.2252C8.44313 14.0596 8.24211 13.9562 8.05875 13.9562C7.73062 13.9562 7.4823 14.2163 7.4823 14.5563C7.4823 14.9021 7.73062 15.1652 8.05875 15.1652C8.2332 15.1652 8.43422 15.0706 8.57906 14.9228L8.88652 15.248C8.66477 15.4756 8.33668 15.6264 8.03219 15.6264C7.4084 15.6264 6.94434 15.1682 6.94434 14.5621C6.94434 13.965 7.42027 13.5156 8.05 13.5156C8.35742 13.5157 8.67664 13.6516 8.88359 13.8645Z" fill="white"/>
<path d="M10.8113 13.7384L10.6132 14.1493C10.3945 14.0221 10.1196 13.9335 9.95103 13.9335C9.81502 13.9335 9.72342 13.9837 9.72342 14.0843C9.72342 14.442 10.8172 14.238 10.8172 14.9859C10.8172 15.3998 10.4506 15.6186 9.98947 15.6186C9.64361 15.6186 9.28885 15.4885 9.04346 15.2875L9.2474 14.8825C9.46025 15.0687 9.77955 15.1929 9.99537 15.1929C10.1609 15.1929 10.2644 15.1308 10.2644 15.0125C10.2644 14.646 9.17057 14.8648 9.17057 14.1316C9.17057 13.7502 9.49869 13.5078 9.99541 13.5078C10.294 13.5078 10.5985 13.5995 10.8113 13.7384Z" fill="white"/>
<path d="M11.7724 15.6006L10.9683 13.5312H11.5299L12.0591 15.0537L12.5883 13.5312H13.1292L12.3163 15.6006H11.7724Z" fill="white"/>
</g>
<defs>
<clipPath id="clip0_20504_61975">
<rect width="20" height="20" fill="white"/>
</clipPath>
</defs>
</svg>
