<svg width="22" height="27" viewBox="0 0 22 27" fill="none" xmlns="http://www.w3.org/2000/svg">
<path d="M13.5 1H3.5C2.83696 1 2.20107 1.26339 1.73223 1.73223C1.26339 2.20107 1 2.83696 1 3.5V23.5C1 24.163 1.26339 24.7989 1.73223 25.2678C2.20107 25.7366 2.83696 26 3.5 26H18.5C19.163 26 19.7989 25.7366 20.2678 25.2678C20.7366 24.7989 21 24.163 21 23.5V8.5M13.5 1L21 8.5M13.5 1V8.5H21M16 14.75H6M16 19.75H6M8.5 9.75H6" stroke="#8E8E93" stroke-width="2" stroke-linecap="round" stroke-linejoin="round"/>
</svg>
