<svg width="13" height="10" viewBox="0 0 13 10" fill="none" xmlns="http://www.w3.org/2000/svg">
<path d="M10.6492 0.765703C9.83543 0.407994 8.96526 0.148017 8.0556 0C7.94389 0.189766 7.81337 0.445 7.72337 0.648046C6.75634 0.511417 5.79823 0.511417 4.84897 0.648046C4.75903 0.445 4.62549 0.189766 4.5128 0C3.60212 0.148017 2.73101 0.408943 1.91725 0.7676C0.275864 3.09789 -0.16909 5.37034 0.0533839 7.61051C1.14204 8.37434 2.19707 8.83829 3.23429 9.14189C3.4904 8.8108 3.7188 8.4588 3.9156 8.08777C3.5408 7.954 3.18189 7.78891 2.84274 7.5972C2.93274 7.53463 3.02074 7.46914 3.10577 7.40177C5.17434 8.31074 7.42177 8.31074 9.46566 7.40177C9.55166 7.46914 9.63966 7.53463 9.72863 7.5972C9.38852 7.78983 9.02857 7.95491 8.65383 8.08874C8.85057 8.4588 9.078 8.81172 9.33509 9.14286C10.3733 8.83926 11.4293 8.37526 12.518 7.61051C12.779 5.0136 12.0721 2.762 10.6492 0.765703ZM4.19737 6.23286C3.5764 6.23286 3.0672 5.68817 3.0672 5.02497C3.0672 4.36177 3.56554 3.81617 4.19737 3.81617C4.8292 3.81617 5.3384 4.3608 5.32754 5.02497C5.32857 5.68817 4.8292 6.23286 4.19737 6.23286ZM8.374 6.23286C7.75303 6.23286 7.24383 5.68817 7.24383 5.02497C7.24383 4.36177 7.74217 3.81617 8.374 3.81617C9.00583 3.81617 9.51509 4.3608 9.50417 5.02497C9.50417 5.68817 9.00583 6.23286 8.374 6.23286Z" fill="#5865F2"/>
</svg>
