<svg width="15" height="17" viewBox="0 0 15 17" fill="none" xmlns="http://www.w3.org/2000/svg">
<path d="M5.21783 10.8164C5.07036 10.8164 4.95117 10.9359 4.95117 11.0831C4.95117 11.2302 5.07036 11.3497 5.21783 11.3497H6.28448C6.43195 11.3497 6.55114 11.2302 6.55114 11.0831C6.55114 10.9359 6.43195 10.8164 6.28448 10.8164H5.21783Z" fill="#FF8D28" stroke="#FF8D28" stroke-width="0.3"/>
<path d="M6.81783 6.01562H5.21783C5.07036 6.01562 4.95117 6.13509 4.95117 6.28228C4.95117 6.42947 5.07036 6.54894 5.21783 6.54894H6.81783C6.9653 6.54894 7.08448 6.42947 7.08448 6.28228C7.08448 6.13509 6.9653 6.01562 6.81783 6.01562Z" fill="#FF8D28" stroke="#FF8D28" stroke-width="0.3"/>
<path d="M7.35064 8.14659H7.88398C8.03145 8.14659 8.15064 8.02712 8.15064 7.87994C8.15064 7.73275 8.03145 7.61328 7.88398 7.61328H7.35064C7.20317 7.61328 7.08398 7.73275 7.08398 7.87994C7.08398 8.02712 7.20317 8.14659 7.35064 8.14659Z" fill="#FF8D28" stroke="#FF8D28" stroke-width="0.3"/>
<path d="M11.0837 15.6164H1.4837C1.04264 15.6164 0.683703 15.2574 0.683703 14.8164V3.08306C0.683703 2.93587 0.564516 2.81641 0.417047 2.81641C0.269578 2.81641 0.150391 2.93587 0.150391 3.08306V14.8164C0.150359 15.5516 0.748516 16.1497 1.4837 16.1497H11.0837C11.2312 16.1497 11.3504 16.0302 11.3504 15.8831C11.3504 15.7359 11.2312 15.6164 11.0837 15.6164Z" fill="#FF8D28" stroke="#FF8D28" stroke-width="0.3"/>
<path d="M13.7499 3.34844H11.6165C11.1755 3.34844 10.8165 2.9895 10.8165 2.54844V1.74844C10.8165 1.60125 10.6973 1.48178 10.5499 1.48178C10.4024 1.48178 10.2832 1.60125 10.2832 1.74844V2.54844C10.2832 3.28363 10.8813 3.88178 11.6165 3.88178H13.4832V12.6818C13.4832 13.1228 13.1243 13.4818 12.6832 13.4818H3.61655C3.17548 13.4818 2.81655 13.1228 2.81655 12.6818V1.48178C2.81655 1.04072 3.17548 0.681781 3.61655 0.681781H10.4395L12.4947 2.73697C12.599 2.84125 12.7675 2.84125 12.8717 2.73697C12.976 2.63269 12.976 2.46416 12.8717 2.35991L10.7384 0.226562C10.6885 0.176438 10.6208 0.148438 10.5499 0.148438H3.61655C2.88133 0.148438 2.2832 0.746562 2.2832 1.48178V12.6818C2.2832 13.417 2.88133 14.0151 3.61655 14.0151H12.6832C13.4184 14.0151 14.0165 13.417 14.0165 12.6818V3.61509C14.0165 3.46791 13.8973 3.34844 13.7499 3.34844Z" fill="#FF8D28" stroke="#FF8D28" stroke-width="0.3"/>
<path d="M12.1501 14.55H2.55014C2.10908 14.55 1.75011 14.1911 1.75011 13.75V2.01666C1.75011 1.86947 1.63092 1.75 1.48345 1.75C1.33598 1.75 1.2168 1.86947 1.2168 2.01666V13.75C1.2168 14.4852 1.81492 15.0833 2.55014 15.0833H12.1501C12.2976 15.0833 12.4168 14.9639 12.4168 14.8167C12.4168 14.6695 12.2976 14.55 12.1501 14.55Z" fill="#FF8D28" stroke="#FF8D28" stroke-width="0.3"/>
<path d="M8.68448 9.4815C8.68448 9.33431 8.5653 9.21484 8.41783 9.21484H5.21783C5.07036 9.21484 4.95117 9.33431 4.95117 9.4815C4.95117 9.62869 5.07036 9.74816 5.21783 9.74816H8.41783C8.5653 9.74816 8.68448 9.62869 8.68448 9.4815Z" fill="#FF8D28" stroke="#FF8D28" stroke-width="0.3"/>
<path d="M5.21783 8.14659H6.28448C6.43195 8.14659 6.55114 8.02712 6.55114 7.87994C6.55114 7.73275 6.43195 7.61328 6.28448 7.61328H5.21783C5.07036 7.61328 4.95117 7.73275 4.95117 7.87994C4.95117 8.02712 5.07036 8.14659 5.21783 8.14659Z" fill="#FF8D28" stroke="#FF8D28" stroke-width="0.3"/>
<path d="M8.41783 3.88281H5.21783C5.07036 3.88281 4.95117 4.00228 4.95117 4.14947C4.95117 4.29666 5.07036 4.41613 5.21783 4.41613H8.41783C8.5653 4.41613 8.68448 4.29666 8.68448 4.14947C8.68448 4.00228 8.5653 3.88281 8.41783 3.88281Z" fill="#FF8D28" stroke="#FF8D28" stroke-width="0.3"/>
<path d="M11.0836 7.61328H8.95025C8.80278 7.61328 8.68359 7.73275 8.68359 7.87994C8.68359 8.02713 8.80278 8.14659 8.95025 8.14659H11.0836C11.2311 8.14659 11.3502 8.02713 11.3502 7.87994C11.3502 7.73275 11.2311 7.61328 11.0836 7.61328Z" fill="#FF8D28" stroke="#FF8D28" stroke-width="0.3"/>
<path d="M10.5505 6.01562H7.88384C7.73638 6.01562 7.61719 6.13509 7.61719 6.28228C7.61719 6.42947 7.73638 6.54894 7.88384 6.54894H10.5505C10.698 6.54894 10.8172 6.42947 10.8172 6.28228C10.8172 6.13509 10.698 6.01562 10.5505 6.01562Z" fill="#FF8D28" stroke="#FF8D28" stroke-width="0.3"/>
<path d="M7.35064 11.3497H11.084C11.2315 11.3497 11.3506 11.2302 11.3506 11.0831C11.3506 10.9359 11.2315 10.8164 11.084 10.8164H7.35064C7.20317 10.8164 7.08398 10.9359 7.08398 11.0831C7.08398 11.2302 7.20317 11.3497 7.35064 11.3497Z" fill="#FF8D28" stroke="#FF8D28" stroke-width="0.3"/>
<path d="M10.5501 9.74816C10.6976 9.74816 10.8168 9.62869 10.8168 9.4815C10.8168 9.33431 10.6976 9.21484 10.5501 9.21484H9.48345C9.33598 9.21484 9.2168 9.33431 9.2168 9.4815C9.2168 9.62869 9.33598 9.74816 9.48345 9.74816H10.5501Z" fill="#FF8D28" stroke="#FF8D28" stroke-width="0.3"/>
</svg>
