<svg width="15" height="16" viewBox="0 0 15 16" fill="none" xmlns="http://www.w3.org/2000/svg">
<path d="M5.21588 10.6641C5.06841 10.6641 4.94922 10.7835 4.94922 10.9307C4.94922 11.0779 5.06841 11.1974 5.21588 11.1974H6.28253C6.43 11.1974 6.54919 11.0779 6.54919 10.9307C6.54919 10.7835 6.43 10.6641 6.28253 10.6641H5.21588Z" fill="white" stroke="white" stroke-width="0.3"/>
<path d="M6.81588 5.86719H5.21588C5.06841 5.86719 4.94922 5.98666 4.94922 6.13384C4.94922 6.28103 5.06841 6.4005 5.21588 6.4005H6.81588C6.96334 6.4005 7.08253 6.28103 7.08253 6.13384C7.08253 5.98666 6.96334 5.86719 6.81588 5.86719Z" fill="white" stroke="white" stroke-width="0.3"/>
<path d="M7.34869 8.00206H7.88203C8.0295 8.00206 8.14869 7.88259 8.14869 7.73541C8.14869 7.58822 8.0295 7.46875 7.88203 7.46875H7.34869C7.20122 7.46875 7.08203 7.58822 7.08203 7.73541C7.08203 7.88259 7.20122 8.00206 7.34869 8.00206Z" fill="white" stroke="white" stroke-width="0.3"/>
<path d="M11.0817 15.464H1.48175C1.04069 15.464 0.68175 15.1051 0.68175 14.664V2.93072C0.68175 2.78353 0.562563 2.66406 0.415094 2.66406C0.267625 2.66406 0.148438 2.78353 0.148438 2.93072V14.6641C0.148406 15.3993 0.746563 15.9974 1.48175 15.9974H11.0817C11.2292 15.9974 11.3484 15.8779 11.3484 15.7307C11.3484 15.5835 11.2292 15.464 11.0817 15.464Z" fill="white" stroke="white" stroke-width="0.3"/>
<path d="M13.7479 3.2H11.6146C11.1735 3.2 10.8146 2.84106 10.8146 2.4V1.6C10.8146 1.45281 10.6954 1.33334 10.5479 1.33334C10.4004 1.33334 10.2812 1.45281 10.2812 1.6V2.4C10.2812 3.13519 10.8794 3.73334 11.6146 3.73334H13.4812V12.5333C13.4812 12.9744 13.1223 13.3333 12.6812 13.3333H3.61459C3.17353 13.3333 2.81459 12.9744 2.81459 12.5333V1.33334C2.81459 0.892281 3.17353 0.533344 3.61459 0.533344H10.4375L12.4927 2.58853C12.597 2.69281 12.7655 2.69281 12.8698 2.58853C12.974 2.48425 12.974 2.31572 12.8698 2.21147L10.7364 0.078125C10.6866 0.028 10.6188 0 10.5479 0H3.61459C2.87937 0 2.28125 0.598125 2.28125 1.33334V12.5333C2.28125 13.2685 2.87937 13.8667 3.61459 13.8667H12.6812C13.4164 13.8667 14.0146 13.2686 14.0146 12.5333V3.46666C14.0146 3.31947 13.8954 3.2 13.7479 3.2Z" fill="white" stroke="white" stroke-width="0.3"/>
<path d="M12.1482 14.4016H2.54819C2.10712 14.4016 1.74816 14.0426 1.74816 13.6016V1.86822C1.74816 1.72103 1.62897 1.60156 1.4815 1.60156C1.33403 1.60156 1.21484 1.72103 1.21484 1.86822V13.6016C1.21484 14.3368 1.81297 14.9349 2.54819 14.9349H12.1482C12.2957 14.9349 12.4148 14.8154 12.4148 14.6683C12.4148 14.5211 12.2956 14.4016 12.1482 14.4016Z" fill="white" stroke="white" stroke-width="0.3"/>
<path d="M8.68253 9.33697C8.68253 9.18978 8.56334 9.07031 8.41587 9.07031H5.21588C5.06841 9.07031 4.94922 9.18978 4.94922 9.33697C4.94922 9.48416 5.06841 9.60363 5.21588 9.60363H8.41587C8.56334 9.60363 8.68253 9.48416 8.68253 9.33697Z" fill="white" stroke="white" stroke-width="0.3"/>
<path d="M5.21588 8.00206H6.28253C6.43 8.00206 6.54919 7.88259 6.54919 7.73541C6.54919 7.58822 6.43 7.46875 6.28253 7.46875H5.21588C5.06841 7.46875 4.94922 7.58822 4.94922 7.73541C4.94922 7.88259 5.06841 8.00206 5.21588 8.00206Z" fill="white" stroke="white" stroke-width="0.3"/>
<path d="M8.41587 3.73438H5.21588C5.06841 3.73438 4.94922 3.85384 4.94922 4.00103C4.94922 4.14822 5.06841 4.26769 5.21588 4.26769H8.41587C8.56334 4.26769 8.68253 4.14822 8.68253 4.00103C8.68253 3.85384 8.56334 3.73438 8.41587 3.73438Z" fill="white" stroke="white" stroke-width="0.3"/>
<path d="M11.0836 7.46875H8.95025C8.80278 7.46875 8.68359 7.58822 8.68359 7.73541C8.68359 7.88259 8.80278 8.00206 8.95025 8.00206H11.0836C11.2311 8.00206 11.3502 7.88259 11.3502 7.73541C11.3502 7.58822 11.2311 7.46875 11.0836 7.46875Z" fill="white" stroke="white" stroke-width="0.3"/>
<path d="M10.5466 5.86719H7.87994C7.73247 5.86719 7.61328 5.98666 7.61328 6.13384C7.61328 6.28103 7.73247 6.4005 7.87994 6.4005H10.5466C10.6941 6.4005 10.8133 6.28103 10.8133 6.13384C10.8133 5.98666 10.6941 5.86719 10.5466 5.86719Z" fill="white" stroke="white" stroke-width="0.3"/>
<path d="M7.34869 11.1974H11.082C11.2295 11.1974 11.3487 11.0779 11.3487 10.9307C11.3487 10.7835 11.2295 10.6641 11.082 10.6641H7.34869C7.20122 10.6641 7.08203 10.7835 7.08203 10.9307C7.08203 11.0779 7.20122 11.1974 7.34869 11.1974Z" fill="white" stroke="white" stroke-width="0.3"/>
<path d="M10.5482 9.60363C10.6956 9.60363 10.8148 9.48416 10.8148 9.33697C10.8148 9.18978 10.6956 9.07031 10.5482 9.07031H9.4815C9.33403 9.07031 9.21484 9.18978 9.21484 9.33697C9.21484 9.48416 9.33403 9.60363 9.4815 9.60363H10.5482Z" fill="white" stroke="white" stroke-width="0.3"/>
</svg>
