<svg width="20" height="20" viewBox="0 0 20 20" fill="none" xmlns="http://www.w3.org/2000/svg">
<g clip-path="url(#clip0_20504_61988)">
<path d="M10 20C15.5228 20 20 15.5228 20 10C20 4.47715 15.5228 0 10 0C4.47715 0 0 4.47715 0 10C0 15.5228 4.47715 20 10 20Z" fill="#273B7A"/>
<path d="M10.7728 19.9655C15.071 19.6273 18.605 16.5717 19.6574 12.5158L14.126 6.98438L10.4041 11.8152L11.7071 13.1181L6.08643 15.2791L10.7728 19.9655Z" fill="#121149"/>
<path d="M11.5796 4.4375H6.70359C6.24543 4.4375 5.87402 4.80895 5.87402 5.26707V14.7257C5.87402 15.1838 6.24547 15.5552 6.70359 15.5552H13.2963C13.7545 15.5552 14.1259 15.1838 14.1259 14.7257V6.98379L11.5796 4.4375Z" fill="#00A94C"/>
<path d="M12.4091 6.98375H14.1258L11.5796 4.4375V6.15422C11.5796 6.61234 11.951 6.98375 12.4091 6.98375Z" fill="#00CE8C"/>
<path d="M7.24805 9.70312V13.0846H12.7516V9.70312H7.24805ZM12.4821 10.7986H9.5341V9.9725H12.4821V10.7986ZM9.5341 11.068H12.4821V11.7565H9.5341V11.068ZM9.26477 11.7564H7.51742V11.0679H9.26477V11.7564ZM9.26477 9.9725V10.7986H7.51742V9.9725H9.26477ZM7.51742 12.0258H9.26477V12.8152H7.51742V12.0258ZM9.5341 12.8152V12.0258H12.4821V12.8152H9.5341Z" fill="white"/>
</g>
<defs>
<clipPath id="clip0_20504_61988">
<rect width="20" height="20" fill="white"/>
</clipPath>
</defs>
</svg>
