<svg width="79" height="93" viewBox="0 0 79 93" fill="none" xmlns="http://www.w3.org/2000/svg">
<path fill-rule="evenodd" clip-rule="evenodd" d="M67.4957 69.1867C67.1013 68.9215 66.7577 68.5353 66.2304 68.5915C66.0284 68.6138 66.0725 68.4333 66.0706 68.3146C66.0614 66.1757 66.0552 64.039 66.0469 61.9016C66.0463 61.746 66.0547 61.6182 66.2117 61.5323C67.7226 60.7036 68.3745 59.0811 69.2973 57.6937C70.2846 56.2127 70.6198 54.6102 70.3805 52.8393C70.3158 52.3585 70.5232 52.1421 70.9248 52.0421C71.4084 51.9214 71.8905 52.064 72.0572 52.4216C72.4677 53.3093 72.821 54.2322 72.9304 55.2202C73.0201 56.0306 72.7532 56.8211 72.6616 57.6234C72.5944 58.2105 72.4695 58.7912 72.3681 59.386C72.5011 59.4897 72.6554 59.435 72.7978 59.4368C74.4721 59.4335 76.1464 59.4268 77.8211 59.4205C78.5269 59.4179 78.873 59.6351 78.9726 60.14C79.0951 60.7689 78.7885 61.4097 78.2483 61.7085C78.1233 61.777 77.897 61.7163 77.8821 61.9279C77.868 62.1433 78.1008 62.1203 78.2167 62.2069C78.8241 62.6533 78.7146 63.5783 78.0149 64.1158C77.8467 64.244 77.5194 64.1861 77.5119 64.4532C77.5087 64.6659 77.8149 64.6624 77.9537 64.8119C78.4446 65.3314 78.2046 66.3061 77.4747 66.7019C77.3809 66.7523 77.2649 66.762 77.181 66.8254C77.0981 66.8861 77.0166 66.9536 77.1781 67.0764C77.905 67.6328 77.892 68.4105 77.1637 68.9803C77.0922 69.0361 77.0192 69.0936 76.946 69.15C76.6812 69.361 76.3679 69.3592 76.065 69.3612C73.4392 69.3764 70.8135 69.3837 68.188 69.3915C67.9415 69.3924 67.6926 69.385 67.4957 69.1867Z" fill="#FED7AF"/>
<path fill-rule="evenodd" clip-rule="evenodd" d="M60.0173 65.4368C60.013 64.079 60.0146 62.7196 60.0002 61.3623C59.9975 61.0858 60.0233 60.9502 60.3372 60.9528C61.8738 60.9676 63.4083 60.9617 64.9442 60.9376C65.2456 60.9333 65.2927 61.0448 65.2917 61.3336C65.2917 64.0669 65.2979 66.8001 65.3188 69.5336C65.3218 69.8812 65.2341 69.9799 64.9106 69.9754C63.4206 69.9626 61.9306 69.9639 60.442 69.9947C60.0712 70.0025 60.0197 69.8623 60.0225 69.5123C60.0372 68.1539 60.0213 66.796 60.0173 65.4368Z" fill="#FED7AF"/>
<path d="M57.0277 17.3906L58.5615 19.605L61.1416 20.3793L59.5095 22.5224L59.57 25.2153L57.0277 24.3255L54.4853 25.2153L54.5461 22.5224L52.9141 20.3793L55.4939 19.605L57.0277 17.3906Z" fill="#FF9500"/>
<path d="M4.11391 55.0938L5.6477 57.3082L8.22751 58.0825L6.59549 60.2256L6.65624 62.9187L4.11391 62.0286L1.57127 62.9187L1.63202 60.2256L0 58.0825L2.58011 57.3082L4.11391 55.0938Z" fill="#FF9500"/>
<path d="M22.7952 79.4531L23.562 80.5602L24.8519 80.9476L24.0359 82.019L24.0664 83.3654L22.7952 82.9206L21.5238 83.3654L21.5543 82.019L20.7383 80.9476L22.0282 80.5602L22.7952 79.4531Z" fill="#FF9500"/>
<path d="M71.9632 51.9922L72.7303 53.0995L74.0202 53.4867L73.2042 54.5584L73.2344 55.9048L71.9632 55.4599L70.692 55.9048L70.7223 54.5584L69.9062 53.4867L71.1965 53.0995L71.9632 51.9922Z" fill="#FF9500"/>
<path d="M48.1859 12.7734L48.9526 13.8808L50.2425 14.2679L49.4265 15.3393L49.457 16.6861L48.1859 16.2409L46.9144 16.6861L46.9449 15.3393L46.1289 14.2679L47.4188 13.8808L48.1859 12.7734Z" fill="#FF9500"/>
<path d="M39.1796 11.8769L52.0907 30.5173L69.4775 34.3623L73.8084 37.0364L60.0704 55.0757L60.5814 77.7451L39.1796 70.2538L17.7777 77.7451L13.4468 75.071L18.2888 55.0757L4.55078 37.0364L26.2685 30.5173L34.8487 9.20312L39.1796 11.8769Z" fill="#FF9500"/>
<path opacity="0.1" d="M39.1796 11.8769L52.0907 30.5173L69.4775 34.3623L73.8084 37.0364L60.0704 55.0757L60.5814 77.7451L39.1796 70.2538L17.7777 77.7451L13.4468 75.071L18.2888 55.0757L4.55078 37.0364L26.2685 30.5173L34.8487 9.20312L39.1796 11.8769Z" fill="black"/>
<path d="M34.8475 9.20312L47.7587 27.8432L69.4763 34.3623L55.7383 52.4019L56.2494 75.071L34.8475 67.5797L13.4457 75.071L13.9568 52.4019L0.21875 34.3623L21.9364 27.8432L34.8475 9.20312Z" fill="#FF9500"/>
<g opacity="0.2">
<path d="M13.7247 62.7416L13.9574 52.4084L10.9805 48.4976L41.1578 18.3203L47.7584 27.8495L48.4173 28.049L13.7247 62.7416Z" fill="#FED7AF"/>
<path d="M66.8995 33.594L31.8654 68.6281L21.8164 72.146L61.8765 32.0859L66.8995 33.594Z" fill="#FED7AF"/>
<path d="M11.5342 30.9688L3.64311 38.8599L0.820312 35.1546L2.20451 33.7704L11.5342 30.9688Z" fill="#FED7AF"/>
<path d="M40.1096 16.8027L9.8718 47.0404L9.59375 46.6747L39.8466 16.4219L40.1096 16.8027Z" fill="#FED7AF"/>
<path d="M56.0232 65.0162L48.6307 72.4087L48.1562 72.2425L56.0081 64.3906L56.0232 65.0162Z" fill="#FED7AF"/>
</g>
<path d="M41.0898 83.1406V89.9374H42.4305V92.2543L44.7474 89.9374H64.3716V83.1406H41.0898Z" fill="#FED7AF"/>
<path d="M41.091 83.1367C41.1097 85.4282 41.1699 87.6934 41.1813 89.9335L41.091 89.8431L42.4316 89.835L42.5296 89.8344L42.5302 89.9335L42.5441 92.2504L42.3525 92.1709L44.6576 89.8422L44.695 89.8044H44.7488L64.373 89.7854L64.2249 89.9335L64.2367 83.1367L64.373 83.273C57.6675 83.2643 47.9028 83.1908 41.091 83.1367ZM41.091 83.1367C47.9687 83.0986 57.5859 82.9926 64.3727 83.0004H64.509L64.5093 83.1367L64.5211 89.9335L64.5214 90.0816H64.373L44.7488 90.0625L44.8401 90.0248L42.5114 92.3298L42.318 92.5212L42.3195 92.2504L42.3334 89.9335L42.4316 90.0317L41.091 90.0236L41 90.023L41.0003 89.9332C41.0121 87.6423 41.0722 85.3765 41.091 83.1367Z" fill="#263238"/>
<path d="M44.5654 84.9297L45.0952 85.7191L46.0101 85.979L45.4228 86.7267L45.4582 87.6769L44.5654 87.3496L43.6727 87.6769L43.7083 86.7267L43.1211 85.979L44.0356 85.7191L44.5654 84.9297Z" fill="#FF9500"/>
<path d="M48.6517 84.9297L49.1815 85.7191L50.096 85.979L49.5088 86.7267L49.5441 87.6769L48.6517 87.3496L47.7589 87.6769L47.7943 86.7267L47.207 85.979L48.1216 85.7191L48.6517 84.9297Z" fill="#FF9500"/>
<path d="M52.7334 84.9297L53.2632 85.7191L54.1777 85.979L53.5908 86.7267L53.6262 87.6769L52.7334 87.3496L51.8406 87.6769L51.8763 86.7267L51.2891 85.979L52.2036 85.7191L52.7334 84.9297Z" fill="#FF9500"/>
<path d="M56.8193 84.9297L57.3494 85.7191L58.264 85.979L57.6768 86.7267L57.7121 87.6769L56.8193 87.3496L55.9266 87.6769L55.9622 86.7267L55.375 85.979L56.2895 85.7191L56.8193 84.9297Z" fill="#FF9500"/>
<path d="M60.9056 87.3496V84.9297L60.3755 85.7191L59.4609 85.979L60.0482 86.7267L60.0128 87.6769L60.9056 87.3496Z" fill="#FF9500"/>
<path d="M60.9079 84.9297L61.4621 85.7028C61.6743 85.7312 62.0868 85.8654 62.3661 85.9316L62.4371 85.95L62.3918 86.0098L61.8164 86.7669L61.83 86.7246L61.8708 87.6745L61.8753 87.7785L61.7768 87.7431L60.8822 87.4209H60.9342L60.0396 87.7431L59.9407 87.7788L59.9453 87.6748L59.9861 86.7249L60 86.7672L59.4245 86.0102L59.3789 85.95L59.4502 85.9313C59.7283 85.866 60.1423 85.73 60.3539 85.7028C60.3533 85.7025 60.9079 84.9297 60.9079 84.9297ZM60.9079 84.9297L60.4025 85.7357C60.1064 85.8518 59.7827 85.9267 59.4771 86.0271L59.5028 85.9485L60.1015 86.6871C60.1185 86.7053 60.1166 86.7071 60.1154 86.7295L60.0855 87.6796L59.9912 87.611L60.8822 87.2789C60.9091 87.2674 60.9085 87.2683 60.9342 87.2789L61.8248 87.6113L61.7308 87.6796L61.7009 86.7295C61.6991 86.7056 61.6994 86.7044 61.7148 86.6871L62.3135 85.9485L62.3389 86.0268C62.0331 85.9267 61.7097 85.8512 61.4135 85.7354C61.4132 85.7354 60.9079 84.9297 60.9079 84.9297Z" fill="#263238"/>
<path d="M9.82031 0.109375V11.6786H11.161V13.9955L13.4779 11.6786H37.1029V0.109375H9.82031Z" fill="#FED7AF"/>
<path d="M9.81709 0.110011L9.86424 5.91397C9.88661 7.84338 9.8993 9.76101 9.90172 11.6789L9.81709 11.5943L11.1578 11.5895L11.2469 11.5892L11.2472 11.6792L11.2557 13.9961L11.0883 13.9269L13.3967 11.6016L13.4287 11.5695C17.3634 11.5596 27.3855 11.5357 31.1933 11.5299L37.0994 11.5441L36.9643 11.6792L36.9897 0.110313L37.0994 0.220021C30.2984 0.213976 16.6172 0.152323 9.81709 0.110011ZM9.81709 0.110011C16.6151 0.0686061 30.3014 0.00725327 37.0994 0.00030206L37.2088 0L37.2091 0.110011L37.2345 11.6789L37.2348 11.8137L37.0994 11.814C30.5105 11.847 20.1402 11.8001 13.4746 11.7889L13.5526 11.7566L11.2273 14.0647L11.0589 14.2318L11.0599 13.9955L11.0683 11.6786L11.1578 11.7681L9.81709 11.7633L9.73217 11.763C9.71706 8.362 9.80742 3.55297 9.81709 0.110011Z" fill="#263238"/>
<path d="M19.2021 5.91957C19.2021 7.73897 17.7273 9.21414 15.9079 9.21414C14.0884 9.21414 12.6133 7.73928 12.6133 5.91957C12.6133 4.09987 14.0881 2.625 15.9079 2.625C17.7273 2.625 19.2021 4.09987 19.2021 5.91957Z" fill="#FF9500"/>
<path d="M15.9507 6.47952C16.5232 6.47952 16.9873 6.01541 16.9873 5.44289C16.9873 4.87037 16.5232 4.40625 15.9507 4.40625C15.3782 4.40625 14.9141 4.87037 14.9141 5.44289C14.9141 6.01541 15.3782 6.47952 15.9507 6.47952Z" fill="#FED7AF"/>
<path d="M14.1602 8.29911V8.72676C14.4563 8.91082 14.7852 9.05135 15.1427 9.13809C16.0669 9.36385 16.9938 9.19037 17.743 8.72525V8.29911C17.743 7.31234 16.9415 6.50781 15.9518 6.50781C14.9617 6.50781 14.1602 7.31234 14.1602 8.29911Z" fill="#FED7AF"/>
<path d="M33.886 3.90625H21.5312V4.09423H33.886V3.90625Z" fill="#FF9500"/>
<path d="M33.886 5.19531H21.5312V5.3833H33.886V5.19531Z" fill="#FF9500"/>
<path d="M33.886 6.46875H21.5312V6.65673H33.886V6.46875Z" fill="#FF9500"/>
<path d="M27.6547 7.75781H21.5312V7.9458H27.6547V7.75781Z" fill="#FF9500"/>
</svg>
