<svg width="26" height="16" viewBox="0 0 26 16" fill="none" xmlns="http://www.w3.org/2000/svg">
<path fill-rule="evenodd" clip-rule="evenodd" d="M0.044894 4.55804C0.0454656 4.42689 0.0719257 4.29715 0.122757 4.17625C0.173588 4.05535 0.247789 3.94568 0.341104 3.85353C0.434419 3.76137 0.545011 3.68855 0.666535 3.63924C0.788059 3.58993 0.918124 3.56509 1.04927 3.56616L11.0506 3.64404C11.603 3.64829 12.0768 4.09841 12.1089 4.64929L12.1735 5.75779L15.5085 0.458788C15.5774 0.347933 15.668 0.252096 15.7747 0.176994C15.8815 0.101892 16.0023 0.0490633 16.1299 0.0216602C16.2576 -0.00574284 16.3894 -0.00715949 16.5176 0.0174955C16.6458 0.0421506 16.7677 0.0923721 16.876 0.165163L25.2505 5.71129C25.4722 5.85799 25.6266 6.08663 25.6799 6.34705C25.7333 6.60747 25.6811 6.87841 25.5349 7.10041L20.0641 15.4137C19.7601 15.8755 19.1333 16.0137 18.6645 15.7224L12.1735 11.6893V15.0005C12.1735 15.5529 11.7256 16.0005 11.1744 16.0005H0.994894C0.863787 16.0007 0.733943 15.9749 0.612846 15.9247C0.491748 15.8744 0.381791 15.8007 0.289311 15.7078C0.196831 15.6149 0.123658 15.5045 0.0740071 15.3832C0.0243565 15.2619 -0.000789404 15.1319 1.88848e-05 15.0008L0.044894 4.55804ZM1.52339 5.39479L1.49977 14.3712L10.7656 14.3803L10.7613 10.6578L10.017 10.1429C9.79089 9.98666 9.72014 9.66666 9.85989 9.42916L10.8076 7.81966L10.7494 5.35104L1.52339 5.39479ZM16.493 1.81966L11.6826 9.29341L19.3033 14.0834L24.0048 6.76604L16.493 1.81966Z" fill="#9BB2DC"/>
<path d="M14.1836 9.82031C14.7359 9.82031 15.1836 9.3726 15.1836 8.82031C15.1836 8.26803 14.7359 7.82031 14.1836 7.82031C13.6313 7.82031 13.1836 8.26803 13.1836 8.82031C13.1836 9.3726 13.6313 9.82031 14.1836 9.82031Z" fill="#9BB2DC"/>
<path d="M17.5586 9.19531C18.1109 9.19531 18.5586 8.7476 18.5586 8.19531C18.5586 7.64303 18.1109 7.19531 17.5586 7.19531C17.0063 7.19531 16.5586 7.64303 16.5586 8.19531C16.5586 8.7476 17.0063 9.19531 17.5586 9.19531Z" fill="#9BB2DC"/>
<path d="M21.0586 8.57031C21.6109 8.57031 22.0586 8.1226 22.0586 7.57031C22.0586 7.01803 21.6109 6.57031 21.0586 6.57031C20.5063 6.57031 20.0586 7.01803 20.0586 7.57031C20.0586 8.1226 20.5063 8.57031 21.0586 8.57031Z" fill="#9BB2DC"/>
<path d="M3.18359 8.44531C3.73588 8.44531 4.18359 7.9976 4.18359 7.44531C4.18359 6.89303 3.73588 6.44531 3.18359 6.44531C2.63131 6.44531 2.18359 6.89303 2.18359 7.44531C2.18359 7.9976 2.63131 8.44531 3.18359 8.44531Z" fill="#9BB2DC"/>
<path d="M6.05859 11.0703C6.61088 11.0703 7.05859 10.6226 7.05859 10.0703C7.05859 9.51803 6.61088 9.07031 6.05859 9.07031C5.50631 9.07031 5.05859 9.51803 5.05859 10.0703C5.05859 10.6226 5.50631 11.0703 6.05859 11.0703Z" fill="#9BB2DC"/>
<path d="M8.80859 8.32031C9.36088 8.32031 9.80859 7.8726 9.80859 7.32031C9.80859 6.76803 9.36088 6.32031 8.80859 6.32031C8.25631 6.32031 7.80859 6.76803 7.80859 7.32031C7.80859 7.8726 8.25631 8.32031 8.80859 8.32031Z" fill="#9BB2DC"/>
<path d="M3.30859 13.5703C3.86088 13.5703 4.30859 13.1226 4.30859 12.5703C4.30859 12.018 3.86088 11.5703 3.30859 11.5703C2.75631 11.5703 2.30859 12.018 2.30859 12.5703C2.30859 13.1226 2.75631 13.5703 3.30859 13.5703Z" fill="#9BB2DC"/>
<path d="M8.80859 13.5703C9.36088 13.5703 9.80859 13.1226 9.80859 12.5703C9.80859 12.018 9.36088 11.5703 8.80859 11.5703C8.25631 11.5703 7.80859 12.018 7.80859 12.5703C7.80859 13.1226 8.25631 13.5703 8.80859 13.5703Z" fill="#9BB2DC"/>
</svg>
