<svg width="16" height="16" viewBox="0 0 16 16" fill="none" xmlns="http://www.w3.org/2000/svg">
<path d="M11.756 5.28645V3.39045C12.269 3.15095 12.597 2.63795 12.6 2.06995V2.02545C12.5975 1.22095 11.9465 0.566951 11.139 0.564451H11.0945C10.287 0.566951 9.63354 1.21795 9.63104 2.02545V2.06995C9.63354 2.63245 9.95904 3.14295 10.467 3.38495L10.475 3.38995V5.29095C9.75104 5.40045 9.06604 5.70245 8.49604 6.16345L8.50404 6.15845L3.28504 2.09345C3.75654 0.332951 1.45954 -0.794549 0.355537 0.655951C-0.751463 2.10395 0.939037 4.02045 2.51454 3.10395L2.50654 3.10895L7.63654 7.10095C7.18354 7.78345 6.94104 8.58295 6.94404 9.40045C6.94404 10.2935 7.22804 11.1245 7.70954 11.804L7.70154 11.791L6.13904 13.351C6.01404 13.312 5.88404 13.291 5.75354 13.2885H5.75104C4.54554 13.2885 3.93854 14.7495 4.79254 15.6035C5.64654 16.455 7.10754 15.851 7.10754 14.645C7.10504 14.5095 7.08154 14.374 7.04004 14.2465L7.04254 14.257L8.58704 12.7125C9.60804 13.491 10.931 13.757 12.173 13.4315C13.4125 13.1035 14.436 12.226 14.941 11.046C15.449 9.86645 15.3835 8.51995 14.764 7.39495C14.147 6.26995 13.0425 5.49395 11.777 5.29095L11.751 5.28595L11.756 5.28645ZM11.1125 11.539C9.20904 11.534 8.26104 9.23145 9.61004 7.88795C10.9565 6.54395 13.256 7.49745 13.256 9.40095V9.40345C13.256 10.583 12.3005 11.539 11.118 11.539H11.1125Z" fill="#FF7A59"/>
</svg>
