<svg width="98" height="99" viewBox="0 0 98 99" fill="none" xmlns="http://www.w3.org/2000/svg">
<path d="M54.2172 15.3934L48.4156 21.6474C48.1866 21.8911 47.8706 22.0346 47.5364 22.0466C47.2021 22.0586 46.8767 21.9381 46.6308 21.7113L32.4021 8.46093C32.1571 8.23263 32.0128 7.91643 32.0008 7.58179C31.9888 7.24715 32.1101 6.92143 32.3382 6.67619L38.1595 0.422228C38.2722 0.299624 38.4082 0.200622 38.5595 0.130963C38.7108 0.0613046 38.8745 0.0223724 39.0409 0.016427C39.2074 0.0104816 39.3734 0.0376387 39.5293 0.0963254C39.6852 0.155012 39.8279 0.244062 39.9491 0.35831L54.1729 13.6087C54.3573 13.7802 54.4863 14.0028 54.5432 14.2481C54.6002 14.4934 54.5825 14.7501 54.4925 14.9853C54.431 15.1395 54.3371 15.2786 54.2172 15.3934Z" fill="#FF725E"/>
<path opacity="0.3" d="M54.472 15.0097L41.5314 12.9005L38.5273 0.11723C38.7567 0.0116195 39.0121 -0.0237313 39.2615 0.0156431C39.5108 0.0550175 39.743 0.167353 39.9286 0.338478L54.1524 13.5888C54.3458 13.7637 54.4803 13.9942 54.5375 14.2486C54.5947 14.503 54.5718 14.7689 54.472 15.0097Z" fill="black"/>
<path d="M54.472 15.0104L41.8707 11.2541L38.5273 0.162152C38.7567 0.0565414 39.0121 0.0211905 39.2615 0.060565C39.5108 0.0999394 39.743 0.212274 39.9286 0.383399L54.1524 13.6337C54.3368 13.8052 54.4657 14.0279 54.5227 14.2732C54.5796 14.5185 54.562 14.7752 54.472 15.0104Z" fill="#FF725E"/>
<path opacity="0.2" d="M54.472 15.0104L41.8707 11.2541L38.5273 0.162152C38.7567 0.0565414 39.0121 0.0211905 39.2615 0.060565C39.5108 0.0999394 39.743 0.212274 39.9286 0.383399L54.1524 13.6337C54.3368 13.8052 54.4657 14.0279 54.5227 14.2732C54.5796 14.5185 54.562 14.7752 54.472 15.0104Z" fill="white"/>
<path d="M59.2771 25.6942L65.6687 33.1576C65.7909 33.3004 65.8826 33.4666 65.9383 33.646C65.994 33.8254 66.0126 34.0143 65.9928 34.2012C65.973 34.388 65.9153 34.5689 65.8232 34.7327C65.7312 34.8964 65.6067 35.0397 65.4573 35.1538L51.5727 45.9704C51.3394 46.1109 51.0621 46.1595 50.7949 46.1068C50.5277 46.0541 50.2897 45.9038 50.1272 45.6852L45.127 39.9819C45.033 39.8723 44.9552 39.7497 44.8959 39.6181C44.8031 39.4372 44.7644 39.2334 44.7845 39.0311C44.8045 38.8288 44.8825 38.6365 45.009 38.4774L57.3006 25.6401C57.4926 25.4322 57.7461 25.2914 58.024 25.2383C58.3018 25.1853 58.5894 25.2227 58.8444 25.3451C59.0095 25.4329 59.1563 25.5514 59.2771 25.6942Z" fill="#FF725E"/>
<path opacity="0.3" d="M58.8443 25.3581L55.7911 38.9379L44.9155 39.6311C44.8226 39.4503 44.7839 39.2464 44.804 39.0441C44.824 38.8418 44.902 38.6496 45.0286 38.4905L57.3202 25.6531C57.5107 25.4496 57.7607 25.3115 58.0344 25.2585C58.3081 25.2055 58.5916 25.2404 58.8443 25.3581Z" fill="black"/>
<path d="M58.8444 25.3594L53.7262 39.77L44.9057 39.6324C44.8129 39.4515 44.7742 39.2477 44.7942 39.0454C44.8143 38.8431 44.8922 38.6509 45.0188 38.4917L57.3104 25.6544C57.5016 25.4487 57.7534 25.3093 58.0292 25.2562C58.305 25.2032 58.5905 25.2393 58.8444 25.3594Z" fill="#FF725E"/>
<path opacity="0.2" d="M58.8444 25.3594L53.7262 39.77L44.9057 39.6324C44.8129 39.4515 44.7742 39.2477 44.7942 39.0454C44.8143 38.8431 44.8922 38.6509 45.0188 38.4917L57.3104 25.6544C57.5016 25.4487 57.7534 25.3093 58.0292 25.2562C58.305 25.2032 58.5905 25.2393 58.8444 25.3594Z" fill="white"/>
<path d="M70.2718 92.7845C70.2724 93.8736 69.9276 94.9276 69.2988 95.759C68.67 96.5903 67.798 97.145 66.8379 97.3244C55.0208 99.5553 42.9532 99.5553 31.136 97.3244C30.18 97.1403 29.3132 96.5834 28.6891 95.7524C28.065 94.9213 27.724 93.8699 27.7266 92.7845V48.6387H70.2912L70.2718 92.7845Z" fill="#FF725E"/>
<path opacity="0.3" d="M27.7031 49.4355V55.6323C30.2651 56.6951 38.6767 57.4744 48.9879 57.4744C59.2991 57.4744 67.7253 56.6951 70.2727 55.6323V49.4355H27.7031Z" fill="black"/>
<path d="M71.0714 54.1609C71.0714 55.5615 61.408 56.6951 48.9878 56.6951C36.5677 56.6951 26.9043 55.5615 26.9043 54.1609L26.5 48.6562H71.5L71.0714 54.1609Z" fill="#FF725E"/>
<path d="M48.9878 51.1846C61.4075 51.1846 71.4757 50.0524 71.4757 48.6558C71.4757 47.2591 61.4075 46.127 48.9878 46.127C36.5681 46.127 26.5 47.2591 26.5 48.6558C26.5 50.0524 36.5681 51.1846 48.9878 51.1846Z" fill="#FF725E"/>
<path opacity="0.3" d="M48.9878 51.1846C61.4075 51.1846 71.4757 50.0524 71.4757 48.6558C71.4757 47.2591 61.4075 46.127 48.9878 46.127C36.5681 46.127 26.5 47.2591 26.5 48.6558C26.5 50.0524 36.5681 51.1846 48.9878 51.1846Z" fill="black"/>
<path opacity="0.2" d="M33.4129 89.6792C32.9753 89.6778 32.5561 89.4827 32.2467 89.1365C31.9374 88.7903 31.763 88.3212 31.7617 87.8317V62.5214C31.763 62.0318 31.9374 61.5627 32.2467 61.2166C32.5561 60.8704 32.9753 60.6753 33.4129 60.6738C33.85 60.6767 34.2685 60.8723 34.5776 61.2181C34.8867 61.564 35.0615 62.0323 35.064 62.5214V87.8317C35.0615 88.3208 34.8867 88.7891 34.5776 89.1349C34.2685 89.4808 33.85 89.6764 33.4129 89.6792Z" fill="black"/>
<path opacity="0.2" d="M64.5691 89.6792C64.1316 89.6778 63.7124 89.4827 63.403 89.1365C63.0936 88.7903 62.9193 88.3212 62.918 87.8317V62.5214C62.9193 62.0318 63.0936 61.5627 63.403 61.2166C63.7124 60.8704 64.1316 60.6753 64.5691 60.6738C65.0062 60.6767 65.4247 60.8723 65.7338 61.2181C66.0429 61.564 66.2177 62.0323 66.2203 62.5214V87.8317C66.2177 88.3208 66.0429 88.7891 65.7338 89.1349C65.4247 89.4808 65.0062 89.6764 64.5691 89.6792Z" fill="black"/>
<path opacity="0.2" d="M54.1805 89.6792C53.7433 89.6764 53.3248 89.4808 53.0157 89.1349C52.7066 88.7891 52.5319 88.3208 52.5293 87.8317V62.5214C52.5319 62.0323 52.7066 61.564 53.0157 61.2181C53.3248 60.8723 53.7433 60.6767 54.1805 60.6738C54.618 60.6753 55.0372 60.8704 55.3466 61.2166C55.6559 61.5627 55.8303 62.0318 55.8316 62.5214V87.8317C55.8303 88.3212 55.6559 88.7903 55.3466 89.1365C55.0372 89.4827 54.618 89.6778 54.1805 89.6792Z" fill="black"/>
<path opacity="0.2" d="M43.7976 89.6792C43.3605 89.6764 42.942 89.4808 42.6329 89.1349C42.3238 88.7891 42.149 88.3208 42.1465 87.8317V62.5214C42.149 62.0323 42.3238 61.564 42.6329 61.2181C42.942 60.8723 43.3605 60.6767 43.7976 60.6738C44.2351 60.6753 44.6544 60.8704 44.9638 61.2166C45.2731 61.5627 45.4475 62.0318 45.4488 62.5214V87.8317C45.4475 88.3212 45.2731 88.7903 44.9638 89.1365C44.6544 89.4827 44.2351 89.6778 43.7976 89.6792Z" fill="black"/>
</svg>
