<svg width="50" height="50" viewBox="0 0 50 50" fill="none" xmlns="http://www.w3.org/2000/svg">
<path d="M40.5848 17.8676C42.727 17.8676 44.4796 19.6202 44.4796 21.7624V45.1314C44.4796 47.2736 42.727 49.0263 40.5848 49.0263H9.42609C7.28393 49.0263 5.53125 47.2736 5.53125 45.1314V21.7624C5.53125 19.6202 7.28393 17.8676 9.42609 17.8676H40.5848Z" fill="#9CE0FF"/>
<path d="M40.582 50H9.42324C6.74553 50 4.55469 47.8091 4.55469 45.1314V21.7624C4.55469 19.0847 6.74553 16.8939 9.42324 16.8939H40.582C43.2597 16.8939 45.4505 19.0847 45.4505 21.7624V45.1314C45.4505 47.8091 43.2597 50 40.582 50ZM9.42324 18.8413C7.81662 18.8413 6.50211 20.1558 6.50211 21.7624V45.1314C6.50211 46.7381 7.81662 48.0526 9.42324 48.0526H40.582C42.1886 48.0526 43.5031 46.7381 43.5031 45.1314V21.7624C43.5031 20.1558 42.1886 18.8413 40.582 18.8413H9.42324Z" fill="#00AEEF"/>
<path d="M25.005 27.6047C24.4694 27.6047 24.0312 27.1665 24.0312 26.631V2.7751C24.0312 2.23956 24.4694 1.80139 25.005 1.80139C25.5405 1.80139 25.9787 2.23956 25.9787 2.7751V26.631C25.9787 27.1665 25.5405 27.6047 25.005 27.6047Z" fill="#C6490F"/>
<path d="M25.005 33.4469C24.4694 33.4469 24.0312 33.0088 24.0312 32.4732V31.0127C24.0312 30.4771 24.4694 30.0389 25.005 30.0389C25.5405 30.0389 25.9787 30.4771 25.9787 31.0127V32.4732C25.9787 33.0088 25.5405 33.4469 25.005 33.4469Z" fill="#C6490F"/>
<path d="M33.6224 10.5648C33.379 10.5648 33.1356 10.4674 32.9408 10.2726L25.0051 2.3369L17.0694 10.2726C16.6799 10.6621 16.0957 10.6621 15.7062 10.2726C15.3167 9.88315 15.3167 9.29893 15.7062 8.90944L24.3235 0.292113C24.713 -0.097371 25.2972 -0.097371 25.6867 0.292113L34.304 8.90944C34.6935 9.29893 34.6935 9.88315 34.304 10.2726C34.1093 10.4674 33.8659 10.5648 33.6224 10.5648Z" fill="#C6490F"/>
</svg>
