<svg width="50" height="50" viewBox="0 0 50 50" fill="none" xmlns="http://www.w3.org/2000/svg">
<path d="M40.5296 17.9612C42.6655 17.9612 44.4131 19.7087 44.4131 21.8447V45.1456C44.4131 47.2816 42.6655 49.0291 40.5296 49.0291H9.46162C7.3257 49.0291 5.57812 47.2816 5.57812 45.1456V21.8447C5.57812 19.7087 7.3257 17.9612 9.46162 17.9612H40.5296Z" fill="#9CE0FF"/>
<path d="M40.5317 50H9.46374C6.79384 50 4.60938 47.8155 4.60938 45.1456V21.8447C4.60938 19.1748 6.79384 16.9903 9.46374 16.9903H40.5317C43.2016 16.9903 45.3861 19.1748 45.3861 21.8447V45.1456C45.3861 47.8155 43.2016 50 40.5317 50ZM9.46374 18.932C7.8618 18.932 6.55112 20.2427 6.55112 21.8447V45.1456C6.55112 46.7476 7.8618 48.0582 9.46374 48.0582H40.5317C42.1336 48.0582 43.4443 46.7476 43.4443 45.1456V21.8447C43.4443 20.2427 42.1336 18.932 40.5317 18.932H9.46374Z" fill="#00AEEF"/>
<path d="M25.0021 34.1262C24.4681 34.1262 24.0312 33.6893 24.0312 33.1553V6.79611C24.0312 6.26213 24.4681 5.82524 25.0021 5.82524C25.5361 5.82524 25.973 6.26213 25.973 6.79611V33.1553C25.973 33.6893 25.5361 34.1262 25.0021 34.1262Z" fill="#6EA62A"/>
<path d="M25.0021 3.39806C24.4681 3.39806 24.0312 2.96116 24.0312 2.42718V0.970874C24.0312 0.436893 24.4681 0 25.0021 0C25.5361 0 25.973 0.436893 25.973 0.970874V2.42718C25.973 2.96116 25.5361 3.39806 25.0021 3.39806Z" fill="#6EA62A"/>
<path d="M25.0006 35.9223C24.7579 35.9223 24.5152 35.8252 24.321 35.6311L15.7288 27.0388C15.3404 26.6505 15.3404 26.068 15.7288 25.6796C16.1171 25.2913 16.6996 25.2913 17.088 25.6796L25.0006 33.5922L32.9132 25.6796C33.3016 25.2913 33.8841 25.2913 34.2724 25.6796C34.6608 26.068 34.6608 26.6505 34.2724 27.0388L25.6802 35.6311C25.486 35.8252 25.2433 35.9223 25.0006 35.9223Z" fill="#6EA62A"/>
</svg>
