<svg width="20" height="20" viewBox="0 0 20 20" fill="none" xmlns="http://www.w3.org/2000/svg">
<g clip-path="url(#clip0_20503_61962)">
<path d="M19.9744 10.7135C19.991 10.4778 20 10.24 20 10C20 4.47715 15.5229 0 10 0C4.47715 0 0 4.47715 0 10C0 14.6004 3.10664 18.4746 7.33629 19.6407L19.9744 10.7135Z" fill="#C30B15"/>
<path d="M19.9745 10.7169L12.3045 3.04688L4.65234 16.9599L7.33648 19.6441C8.18461 19.8779 9.07769 20.0034 10.0002 20.0034C15.2831 20.0034 19.6086 15.9067 19.9745 10.7169Z" fill="#85080E"/>
<path d="M10.8723 13.0469L9.98887 3.04688H4.65234V12.1773L10.8723 13.0469Z" fill="white"/>
<path d="M15.3479 12.1773V6.09035L13.174 5.22078L12.3044 3.04688H9.98877L10.0027 13.0469L15.3479 12.1773Z" fill="#E8E6E6"/>
<path d="M12.3042 6.09035V3.04688L15.3477 6.09035H12.3042Z" fill="white"/>
<path d="M15.348 12.1719H4.65234V16.9545H15.348V12.1719Z" fill="#FC0F1A"/>
<path d="M8.00271 13.5312C8.53189 13.5312 8.83635 13.7914 8.83635 14.2525C8.83635 14.7374 8.53186 15.0182 8.00271 15.0182H7.62728V15.6006H7.10107V13.5312H8.00271ZM7.62728 14.6043H7.97611C8.20674 14.6043 8.33971 14.489 8.33971 14.2703C8.33971 14.0545 8.20666 13.9451 7.97611 13.9451H7.62728V14.6043Z" fill="white"/>
<path d="M10.0754 13.5312C10.7258 13.5312 11.1751 13.951 11.1751 14.5659C11.1751 15.1779 10.7198 15.6006 10.0547 15.6006H9.18555V13.5312H10.0754ZM9.7118 15.1808H10.0872C10.4095 15.1808 10.64 14.9325 10.64 14.5689C10.64 14.2023 10.3976 13.951 10.0636 13.951H9.71176V15.1808H9.7118Z" fill="white"/>
<path d="M12.0531 13.9451V14.424H12.9813V14.8379H12.0531V15.6006H11.5269V13.5312H13.0611V13.9451H12.0531V13.9451Z" fill="white"/>
</g>
<defs>
<clipPath id="clip0_20503_61962">
<rect width="20" height="20" fill="white"/>
</clipPath>
</defs>
</svg>
