<svg width="100" height="100" viewBox="0 0 100 100" fill="none" xmlns="http://www.w3.org/2000/svg">
<g clip-path="url(#clip0_5422_88794)">
<path d="M72.7588 76.5992L16.6204 79.6519C16.2388 79.6718 15.865 79.5376 15.5809 79.2788C15.2968 79.02 15.1255 78.6577 15.1045 78.2711L11.2012 4.58273C11.181 4.196 11.3132 3.81696 11.5688 3.52896C11.8244 3.24097 12.1824 3.0676 12.5641 3.04697L68.7002 -0.00576801C69.0819 -0.0262421 69.4561 0.107713 69.7403 0.366643C70.0246 0.625574 70.1957 0.988279 70.2161 1.37501L74.1193 75.0634C74.13 75.2549 74.1032 75.4466 74.0405 75.6275C73.9778 75.8084 73.8804 75.975 73.754 76.1177C73.6276 76.2604 73.4746 76.3764 73.3038 76.459C73.133 76.5417 72.9478 76.5893 72.7588 76.5992Z" fill="#FED7AF"/>
<path d="M71.7164 76.6551L19.0873 79.5177C18.9206 79.5269 18.7538 79.5027 18.5963 79.4465C18.4389 79.3903 18.2939 79.3033 18.1697 79.1903C18.0455 79.0773 17.9445 78.9407 17.8725 78.7881C17.8004 78.6356 17.7588 78.4701 17.7499 78.3013L13.8652 4.96978C13.8561 4.80093 13.88 4.63191 13.9354 4.47241C13.9908 4.3129 14.0768 4.16603 14.1883 4.04019C14.2998 3.91436 14.4347 3.81202 14.5853 3.73903C14.7358 3.66605 14.8991 3.62384 15.0658 3.61484L67.6973 0.752306C67.8646 0.742151 68.0323 0.765602 68.1907 0.82131C68.3491 0.877017 68.495 0.963885 68.6202 1.07692C68.7453 1.18995 68.8472 1.32693 68.9199 1.47997C68.9926 1.63301 69.0348 1.79911 69.0439 1.96871L72.9263 75.3025C72.9354 75.472 72.9112 75.6417 72.8551 75.8016C72.7991 75.9616 72.7123 76.1087 72.5998 76.2345C72.4873 76.3602 72.3513 76.4622 72.1997 76.5344C72.0481 76.6066 71.8838 76.6476 71.7164 76.6551Z" fill="#001F3F"/>
<path d="M69.9674 76.7484L17.3336 79.6086C17.1669 79.6181 16.9999 79.5941 16.8424 79.5381C16.6848 79.482 16.5397 79.395 16.4154 79.2819C16.2912 79.1689 16.1902 79.0321 16.1182 78.8794C16.0463 78.7267 16.0048 78.5611 15.9962 78.3922L12.1115 5.06068C12.1018 4.89132 12.1252 4.72168 12.1803 4.5615C12.2355 4.40131 12.3212 4.25372 12.4328 4.12719C12.5443 4.00066 12.6794 3.89768 12.8303 3.82415C12.9812 3.75062 13.145 3.70798 13.3122 3.69869L65.9436 0.845552C66.279 0.827578 66.6077 0.944609 66.8582 1.17114C67.1087 1.39767 67.2607 1.71534 67.281 2.05491L71.1658 75.3864C71.1758 75.5556 71.1527 75.7252 71.0978 75.8854C71.0429 76.0456 70.9574 76.1932 70.846 76.3197C70.7347 76.4463 70.5997 76.5493 70.4489 76.6229C70.2982 76.6964 70.1345 76.7391 69.9674 76.7484Z" fill="#F68C1F"/>
<path d="M69.9684 76.7465H70.0102C70.038 76.7465 70.0797 76.7465 70.133 76.73C70.2989 76.7 70.4568 76.6352 70.5966 76.5398C70.8248 76.3858 70.9986 76.162 71.0926 75.9011C71.2178 75.5888 71.1413 75.1966 71.1297 74.7622C71.0347 73.0221 70.8979 70.4531 70.7148 67.1491C70.3602 60.5341 69.8456 50.9649 69.2128 39.1414C68.8953 33.2285 68.5499 26.752 68.1791 19.7988C67.9952 16.3234 67.8043 12.7321 67.6066 9.02497C67.5077 7.17141 67.408 5.2928 67.3076 3.38914C67.2797 2.91949 67.2612 2.43105 67.2241 1.9614C67.1914 1.7325 67.0959 1.51753 66.9483 1.34105C66.8008 1.16457 66.6072 1.0337 66.3897 0.963391C66.163 0.902549 65.9266 0.888178 65.6943 0.921123L64.9758 0.958694L63.5341 1.03854L13.3225 3.76487C13.0559 3.77984 12.8015 3.88307 12.5984 4.0587C12.3953 4.23433 12.2547 4.47264 12.1983 4.73705C12.1715 4.87066 12.1645 5.00758 12.1774 5.1433L12.2006 5.56363L12.2447 6.40431C12.3049 7.52678 12.3644 8.64455 12.4231 9.75763C12.5406 11.9853 12.6572 14.1982 12.7731 16.3962C13.008 20.789 13.2398 25.1153 13.4685 29.375C13.9181 37.8827 14.3516 46.0899 14.7665 53.9096C15.1814 61.7293 15.5685 69.1569 15.9254 76.1101C15.9463 76.5445 15.9694 76.9766 15.9926 77.4087L16.0274 78.0521C16.0257 78.263 16.0482 78.4734 16.0946 78.6791C16.1534 78.8758 16.2596 79.0546 16.4037 79.1993C16.5477 79.344 16.7251 79.4501 16.9198 79.508C17.1161 79.5614 17.3209 79.575 17.5224 79.5479L18.1459 79.5151L23.0134 79.2521L32.1875 78.7566L59.8325 77.2748L67.3493 76.8756L69.3032 76.777C69.7436 76.7535 69.9708 76.7465 69.9708 76.7465L69.3032 76.7887L67.3493 76.9014L59.8348 77.3218L32.1875 78.8411L23.0273 79.3436L18.1598 79.609L17.5386 79.6442C17.3254 79.6711 17.1091 79.6567 16.9012 79.6019C16.6909 79.5393 16.4993 79.4245 16.3439 79.2678C16.1884 79.1112 16.0741 78.9177 16.0112 78.7049C15.9605 78.4927 15.9356 78.2751 15.937 78.0568L15.9022 77.411C15.8791 76.9813 15.8559 76.5469 15.8327 76.1124C15.4642 69.1592 15.0678 61.7317 14.6529 53.912C14.238 46.0923 13.8023 37.8874 13.3503 29.3773C13.1231 25.1239 12.8913 20.7984 12.6549 16.4009C12.5359 14.2091 12.4185 11.9963 12.3026 9.76232C12.2423 8.64768 12.1828 7.52991 12.1241 6.40901L12.0801 5.57538L12.0569 5.15269C12.0439 5.0075 12.0517 4.86117 12.0801 4.71826C12.1414 4.42668 12.2959 4.16373 12.5197 3.97014C12.7434 3.77655 13.024 3.66313 13.3178 3.64745L63.5225 0.923471L64.9665 0.845978L65.6827 0.806057C65.9269 0.772234 66.1753 0.789011 66.4129 0.855372C66.6503 0.9321 66.8617 1.07497 67.0228 1.26765C67.1838 1.46034 67.2882 1.69505 67.3238 1.94496C67.3609 2.4334 67.3771 2.90306 67.4049 3.3821C67.5069 5.28732 67.6066 7.16593 67.7039 9.01793C67.8986 12.7235 68.0879 16.3155 68.2718 19.7941C68.6357 26.7473 68.9671 33.2238 69.287 39.1367C69.9059 50.9602 70.4065 60.5317 70.7519 67.1444C70.9234 70.4508 71.0555 73.0151 71.1436 74.7622C71.1552 75.1919 71.2294 75.5888 71.1019 75.9081C71.0059 76.172 70.8277 76.3971 70.5943 76.5492C70.4546 76.6439 70.2965 76.7072 70.1307 76.7347C70.077 76.7425 70.0227 76.7464 69.9684 76.7465Z" fill="#263238"/>
<path d="M15.2512 10.6576C15.8862 10.6576 16.4009 10.1361 16.4009 9.49286C16.4009 8.8496 15.8862 8.32812 15.2512 8.32812C14.6163 8.32812 14.1016 8.8496 14.1016 9.49286C14.1016 10.1361 14.6163 10.6576 15.2512 10.6576Z" fill="#263238"/>
<path d="M15.4643 8.65932L9.22669 8.99825C9.12954 9.00353 9.05501 9.0876 9.06022 9.18602L9.07362 9.43927C9.07883 9.5377 9.16181 9.6132 9.25896 9.60793L15.4966 9.26899C15.5938 9.26371 15.6683 9.17965 15.6631 9.08122L15.6497 8.82798C15.6445 8.72955 15.5615 8.65404 15.4643 8.65932Z" fill="#001F3F"/>
<path d="M15.4993 9.279C15.5431 9.26727 15.5826 9.24278 15.6128 9.20855C15.6291 9.18627 15.6403 9.16057 15.6455 9.13335C15.6507 9.10612 15.6499 9.07805 15.643 9.05121C15.643 8.98311 15.643 8.89858 15.6244 8.81639C15.6188 8.79505 15.609 8.77508 15.5957 8.75766C15.5823 8.74024 15.5656 8.72573 15.5465 8.71499C15.5275 8.70425 15.5065 8.6975 15.4849 8.69516C15.4632 8.69281 15.4413 8.6949 15.4205 8.70132L15.0681 8.72481L14.2082 8.78116L9.24106 9.07C9.2214 9.07116 9.20236 9.07738 9.18573 9.08806C9.16911 9.09874 9.15544 9.11354 9.14602 9.13105C9.13704 9.14929 9.13228 9.16937 9.13212 9.18976V9.28134V9.45746C9.13449 9.47733 9.14194 9.49623 9.15373 9.51229C9.16552 9.52835 9.18124 9.54102 9.19934 9.54904C9.21847 9.55278 9.23814 9.55278 9.25728 9.54904H9.34536H9.52152L9.86919 9.53026L11.1904 9.46216L13.4294 9.35414L14.9383 9.29074L15.3509 9.279C15.3987 9.2741 15.4468 9.2741 15.4946 9.279C15.4477 9.29169 15.3995 9.29878 15.3509 9.30013L14.9407 9.333L13.4341 9.43398L11.1973 9.57018L9.87383 9.64532L9.52847 9.66411H9.35231H9.26423C9.2254 9.66827 9.18617 9.66178 9.15066 9.64532C9.11355 9.62933 9.08121 9.6038 9.05682 9.57127C9.03243 9.53874 9.01684 9.50032 9.01159 9.45981L9 9.27195V9.18037C9.00014 9.13882 9.00965 9.09786 9.02781 9.06061C9.04665 9.0237 9.07481 8.99252 9.10942 8.97024C9.14403 8.94797 9.18386 8.93539 9.22483 8.9338L14.2036 8.68019L15.0635 8.64261L15.4158 8.62853C15.4733 8.61872 15.5323 8.62952 15.5827 8.65905C15.6055 8.67426 15.625 8.69395 15.6401 8.71694C15.6553 8.73993 15.6657 8.76576 15.6708 8.79291C15.6708 8.88918 15.6708 8.96433 15.6708 9.02773C15.6747 9.05889 15.6724 9.09054 15.6641 9.12079C15.6557 9.15104 15.6414 9.17929 15.6221 9.20385C15.5595 9.29778 15.4993 9.279 15.4993 9.279Z" fill="#263238"/>
<path d="M15.4917 9.77651L9.25403 10.1154C9.15688 10.1207 9.08235 10.2048 9.08756 10.3032L9.10097 10.5565C9.10618 10.6549 9.18916 10.7304 9.2863 10.7251L15.524 10.3862C15.6211 10.3809 15.6956 10.2968 15.6904 10.1984L15.677 9.94516C15.6718 9.84674 15.5888 9.77123 15.4917 9.77651Z" fill="#001F3F"/>
<path d="M15.5246 10.3876C15.568 10.3749 15.6073 10.3505 15.6382 10.3171C15.6545 10.2948 15.6657 10.2691 15.6709 10.2419C15.6761 10.2147 15.6752 10.1866 15.6683 10.1598C15.6683 10.0917 15.6683 10.0048 15.6498 9.92495C15.6442 9.90362 15.6344 9.88364 15.621 9.86622C15.6076 9.8488 15.5909 9.83429 15.5719 9.82355C15.5528 9.81281 15.5319 9.80607 15.5102 9.80372C15.4885 9.80137 15.4666 9.80347 15.4458 9.80988L15.0935 9.83571L14.2335 9.89207L9.25712 10.1786C9.23694 10.18 9.21745 10.1866 9.20044 10.1977C9.18343 10.2087 9.16944 10.224 9.15977 10.242C9.15014 10.2599 9.14609 10.2804 9.14818 10.3007V10.3899V10.566C9.15055 10.5859 9.158 10.6048 9.16979 10.6209C9.18158 10.6369 9.1973 10.6496 9.2154 10.6576C9.23426 10.6636 9.25448 10.6636 9.27334 10.6576H9.36142H9.53758L9.88526 10.6388L11.2064 10.5707L13.4455 10.4627L14.9544 10.3993H15.367C15.4147 10.3928 15.463 10.3928 15.5107 10.3993C15.4636 10.4106 15.4154 10.4169 15.367 10.4181L14.9567 10.4533L13.4501 10.5543L11.2134 10.6881L9.88989 10.7633L9.54453 10.7844H9.36838H9.2803C9.24132 10.7865 9.20241 10.7793 9.16672 10.7633C9.12962 10.7473 9.09727 10.7218 9.07288 10.6892C9.04849 10.6567 9.0329 10.6183 9.02765 10.5778V10.3923V10.3007C9.02554 10.2592 9.03434 10.2178 9.05315 10.1809C9.07258 10.1443 9.10083 10.1133 9.13528 10.0907C9.16972 10.0681 9.20924 10.0547 9.25016 10.0518L14.2289 9.80519L15.0888 9.76761L15.4411 9.75353C15.4986 9.74372 15.5576 9.75452 15.608 9.78405C15.6307 9.7988 15.6502 9.81805 15.6654 9.84066C15.6805 9.86326 15.691 9.88874 15.6961 9.91556C15.6961 10.0118 15.6961 10.0893 15.6961 10.1504C15.7015 10.1812 15.6999 10.2128 15.6915 10.2429C15.6831 10.273 15.668 10.3008 15.6474 10.3242C15.5849 10.4063 15.52 10.3876 15.5246 10.3876Z" fill="#263238"/>
<path d="M16.6399 13.9073C16.6539 14.1398 16.5993 14.3713 16.4831 14.5723C16.3669 14.7734 16.1942 14.9348 15.9871 15.0361C15.7801 15.1374 15.5479 15.174 15.3202 15.1413C15.0926 15.1085 14.8797 15.0079 14.7086 14.8522C14.5375 14.6965 14.4161 14.4928 14.3596 14.2669C14.3032 14.041 14.3144 13.8033 14.3917 13.5839C14.4691 13.3645 14.6091 13.1734 14.794 13.0348C14.9789 12.8963 15.2003 12.8166 15.43 12.8059C15.734 12.7918 16.0313 12.8994 16.2577 13.1054C16.4841 13.3115 16.6214 13.5995 16.6399 13.9073Z" fill="#263238"/>
<path d="M15.6245 13.1281L9.38684 13.467C9.28969 13.4723 9.21516 13.5564 9.22037 13.6548L9.23378 13.908C9.23899 14.0064 9.32197 14.082 9.41912 14.0767L15.6568 13.7377C15.7539 13.7325 15.8284 13.6484 15.8232 13.55L15.8098 13.2967C15.8046 13.1983 15.7216 13.1228 15.6245 13.1281Z" fill="#001F3F"/>
<path d="M15.6633 13.736C15.7072 13.723 15.7465 13.6978 15.7769 13.6632C15.7932 13.6414 15.8043 13.6161 15.8096 13.5892C15.8148 13.5624 15.8139 13.5347 15.807 13.5082C15.807 13.4401 15.807 13.3532 15.7885 13.2734C15.7829 13.2521 15.7731 13.2321 15.7597 13.2147C15.7464 13.1972 15.7296 13.1827 15.7106 13.172C15.6916 13.1613 15.6706 13.1545 15.6489 13.1522C15.6273 13.1498 15.6054 13.1519 15.5845 13.1583L15.2322 13.1842L14.3723 13.2382L9.39353 13.527C9.37359 13.5282 9.3543 13.5346 9.33761 13.5458C9.32093 13.5569 9.30744 13.5723 9.2985 13.5904C9.28899 13.6085 9.2842 13.6287 9.28459 13.6491V13.7384V13.9145C9.28697 13.9343 9.29442 13.9532 9.3062 13.9693C9.31799 13.9854 9.33371 13.998 9.35181 14.0061C9.37083 14.0109 9.39074 14.0109 9.40976 14.0061H9.49783H9.67399L10.0217 13.9873L11.3428 13.9192L13.5819 13.8111L15.0908 13.7477H15.5034C15.5511 13.7413 15.5994 13.7413 15.6471 13.7477C15.5997 13.7572 15.5517 13.7635 15.5034 13.7665L15.0931 13.8018L13.5865 13.9027L11.3498 14.0366L10.0263 14.1117L9.68095 14.1329H9.50479H9.41671C9.37774 14.135 9.33883 14.1277 9.30314 14.1117C9.26603 14.0957 9.23368 14.0702 9.20929 14.0377C9.1849 14.0051 9.16932 13.9667 9.16407 13.9262V13.7407V13.6468C9.16387 13.6059 9.17341 13.5657 9.19188 13.5294C9.2104 13.492 9.23843 13.4604 9.27306 13.4377C9.3077 13.4149 9.34768 13.402 9.3889 13.4002L14.3676 13.1489L15.2276 13.1114L15.5799 13.0973C15.6373 13.0875 15.6963 13.0983 15.7468 13.1278C15.7695 13.1425 15.789 13.1618 15.8041 13.1844C15.8192 13.207 15.8297 13.2325 15.8348 13.2593C15.8348 13.3556 15.8348 13.4307 15.8348 13.4941C15.8394 13.5249 15.8375 13.5564 15.8291 13.5864C15.8207 13.6163 15.806 13.6441 15.7862 13.6679C15.7329 13.7548 15.6587 13.736 15.6633 13.736Z" fill="#263238"/>
<path d="M15.6479 14.2374L9.41028 14.5764C9.31313 14.5817 9.2386 14.6657 9.24381 14.7641L9.25722 15.0174C9.26243 15.1158 9.34541 15.1913 9.44255 15.1861L15.6802 14.8471C15.7774 14.8418 15.8519 14.7578 15.8467 14.6593L15.8333 14.4061C15.8281 14.3077 15.7451 14.2322 15.6479 14.2374Z" fill="#001F3F"/>
<path d="M15.6849 14.8438C15.7287 14.8321 15.7682 14.8076 15.7984 14.7734C15.8149 14.7512 15.8262 14.7255 15.8314 14.6982C15.8366 14.6709 15.8357 14.6428 15.8286 14.616C15.8286 14.5479 15.8286 14.4634 15.81 14.3812C15.8044 14.3599 15.7947 14.3399 15.7813 14.3225C15.7679 14.305 15.7512 14.2905 15.7322 14.2798C15.7131 14.2691 15.6922 14.2623 15.6705 14.26C15.6488 14.2576 15.6269 14.2597 15.6061 14.2661L15.2538 14.2896L14.3938 14.346L9.4174 14.6348C9.39706 14.6356 9.37729 14.6418 9.36016 14.653C9.34303 14.6642 9.32918 14.6798 9.32005 14.6982C9.31436 14.7165 9.31436 14.7362 9.32005 14.7546V14.8461V15.0223C9.32243 15.0421 9.32988 15.061 9.34167 15.0771C9.35345 15.0932 9.36917 15.1058 9.38727 15.1138C9.40641 15.1176 9.42608 15.1176 9.44522 15.1138H9.5333H9.70945L10.0571 15.0951L11.3783 15.027L13.6174 14.9189L15.1263 14.8555H15.5389C15.5866 14.8505 15.6348 14.8505 15.6826 14.8555C15.6357 14.8685 15.5874 14.8756 15.5389 14.8767L15.1309 14.9095L13.622 15.0105L11.3853 15.1467L10.0641 15.2219L9.71641 15.2407H9.54025H9.45217C9.41334 15.2448 9.37411 15.2383 9.3386 15.2219C9.30149 15.2059 9.26915 15.1803 9.24476 15.1478C9.22037 15.1153 9.20478 15.0769 9.19953 15.0364V14.8485V14.7569C9.19741 14.7154 9.20621 14.6741 9.22502 14.6372C9.24386 14.6002 9.27201 14.5691 9.30663 14.5468C9.34124 14.5245 9.38106 14.5119 9.42204 14.5103L14.3892 14.2661L15.2491 14.2286L15.6014 14.2145C15.6589 14.2047 15.7179 14.2155 15.7683 14.245C15.7911 14.2602 15.8106 14.2799 15.8257 14.3029C15.8409 14.3259 15.8513 14.3517 15.8564 14.3788C15.8564 14.4751 15.8564 14.5503 15.8564 14.6137C15.8615 14.6448 15.8598 14.6768 15.8514 14.7072C15.843 14.7376 15.8281 14.7658 15.8077 14.7898C15.7931 14.8082 15.7743 14.8228 15.7529 14.8322C15.7315 14.8416 15.7081 14.8456 15.6849 14.8438Z" fill="#263238"/>
<path d="M15.7395 19.8685C16.3744 19.8685 16.8892 19.3471 16.8892 18.7038C16.8892 18.0605 16.3744 17.5391 15.7395 17.5391C15.1046 17.5391 14.5898 18.0605 14.5898 18.7038C14.5898 19.3471 15.1046 19.8685 15.7395 19.8685Z" fill="#263238"/>
<path d="M15.8745 17.8624L9.63684 18.2014C9.53969 18.2067 9.46516 18.2907 9.47037 18.3891L9.48378 18.6424C9.48899 18.7408 9.57197 18.8163 9.66912 18.8111L15.9068 18.4721C16.0039 18.4668 16.0784 18.3828 16.0732 18.2843L16.0598 18.0311C16.0546 17.9327 15.9716 17.8572 15.8745 17.8624Z" fill="#001F3F"/>
<path d="M15.9113 18.4677C15.9552 18.4547 15.9946 18.4295 16.0249 18.3949C16.0412 18.3726 16.0525 18.347 16.0581 18.3199C16.0637 18.2927 16.0635 18.2646 16.0574 18.2376C16.0574 18.1718 16.0574 18.085 16.0365 18.0028C16.0309 17.9814 16.0211 17.9615 16.0077 17.944C15.9944 17.9266 15.9777 17.9121 15.9586 17.9014C15.9396 17.8906 15.9186 17.8839 15.897 17.8815C15.8753 17.8792 15.8534 17.8813 15.8325 17.8877L15.4802 17.9135L14.6203 17.9675L9.64387 18.2611C9.62352 18.2618 9.60375 18.2681 9.58662 18.2793C9.56949 18.2904 9.55564 18.306 9.54652 18.3245C9.54082 18.3428 9.54082 18.3625 9.54652 18.3808V18.4724V18.6485C9.54889 18.6684 9.55634 18.6873 9.56813 18.7034C9.57992 18.7194 9.59564 18.7321 9.61373 18.7401C9.63275 18.745 9.65266 18.745 9.67168 18.7401H9.75976H9.93592L10.2836 18.7213L11.6048 18.6532L13.8438 18.5452L15.3527 18.4818H15.7653C15.813 18.4753 15.8613 18.4753 15.909 18.4818C15.8616 18.4916 15.8136 18.4978 15.7653 18.5006L15.3574 18.5335L13.8484 18.6368L11.6117 18.7707L10.2905 18.8458L9.94287 18.8646L9.76671 18.8763H9.67863C9.63966 18.8784 9.60075 18.8712 9.56506 18.8552C9.52795 18.8392 9.49561 18.8137 9.47122 18.7811C9.44683 18.7486 9.43124 18.7102 9.42599 18.6697V18.4842V18.3902C9.42429 18.3495 9.43307 18.3091 9.45149 18.2728C9.47001 18.2355 9.49803 18.2038 9.53267 18.1811C9.5673 18.1584 9.60729 18.1455 9.6485 18.1437L14.6272 17.8924L15.4872 17.8525L15.8395 17.8384C15.8972 17.8304 15.9558 17.842 16.0064 17.8713C16.0293 17.8857 16.0491 17.9049 16.0642 17.9275C16.0794 17.9502 16.0897 17.9758 16.0944 18.0028C16.0944 18.099 16.0944 18.1742 16.0944 18.2376C16.0997 18.2684 16.098 18.3 16.0896 18.3301C16.0812 18.3602 16.0662 18.3879 16.0458 18.4114C15.9623 18.4959 15.9067 18.4677 15.9113 18.4677Z" fill="#263238"/>
<path d="M15.9018 18.9718L9.66418 19.3108C9.56703 19.316 9.49251 19.4001 9.49772 19.4985L9.51112 19.7518C9.51633 19.8502 9.59931 19.9257 9.69646 19.9204L15.9341 19.5815C16.0313 19.5762 16.1058 19.4921 16.1006 19.3937L16.0872 19.1405C16.082 19.0421 15.999 18.9665 15.9018 18.9718Z" fill="#001F3F"/>
<path d="M15.9362 19.5859C15.9808 19.5746 16.0212 19.5501 16.0521 19.5154C16.0673 19.4926 16.0778 19.4669 16.083 19.4399C16.0882 19.4129 16.0879 19.385 16.0822 19.3581C16.0822 19.29 16.0822 19.2055 16.0613 19.1233C16.0557 19.102 16.0459 19.082 16.0326 19.0646C16.0192 19.0471 16.0025 19.0326 15.9834 19.0219C15.9644 19.0111 15.9434 19.0044 15.9218 19.0021C15.9001 18.9997 15.8782 19.0018 15.8573 19.0082L15.505 19.0317L14.6451 19.0881L9.66868 19.3769C9.64868 19.3779 9.62925 19.384 9.61223 19.3947C9.5952 19.4054 9.58113 19.4203 9.57133 19.438C9.56697 19.4573 9.56697 19.4773 9.57133 19.4967V19.5882V19.7644C9.57413 19.7841 9.58175 19.8028 9.59348 19.8188C9.60522 19.8348 9.62071 19.8476 9.63855 19.8559C9.65845 19.8599 9.67892 19.8599 9.69882 19.8559H9.78689H9.96073L10.3084 19.8372L11.6296 19.7691L13.8686 19.661L15.3799 19.5976L15.7901 19.5859C15.8379 19.5809 15.8861 19.5809 15.9338 19.5859C15.887 19.5989 15.8387 19.606 15.7901 19.607L15.3822 19.6399L13.8733 19.7409L11.6365 19.8771L10.3154 19.9522L9.96769 19.971H9.79153H9.70345C9.66462 19.9752 9.62539 19.9687 9.58988 19.9522C9.5532 19.9359 9.52133 19.9102 9.49736 19.8777C9.4734 19.8452 9.45816 19.807 9.45312 19.7667V19.5788V19.4873C9.45312 19.425 9.47754 19.3653 9.52101 19.3212C9.56448 19.2772 9.62344 19.2524 9.68491 19.2524L14.6637 18.9988L15.5004 18.9706L15.855 18.9566C15.9117 18.9469 15.97 18.9577 16.0196 18.9871C16.0424 19.0023 16.0619 19.022 16.077 19.045C16.0922 19.068 16.1026 19.0938 16.1077 19.1209C16.1077 19.2172 16.1077 19.2924 16.1077 19.3558C16.1119 19.3868 16.11 19.4183 16.1021 19.4486C16.0941 19.4788 16.0802 19.5071 16.0613 19.5319C16.0462 19.5503 16.027 19.5649 16.0052 19.5743C15.9834 19.5837 15.9598 19.5877 15.9362 19.5859Z" fill="#263238"/>
<path d="M17.1437 23.3738C17.1581 23.6063 17.104 23.8379 16.9881 24.0391C16.8723 24.2404 16.7 24.4021 16.4931 24.5039C16.2862 24.6056 16.0542 24.6427 15.8264 24.6104C15.5987 24.5781 15.3856 24.4779 15.2142 24.3225C15.0429 24.1672 14.921 23.9637 14.8641 23.738C14.8073 23.5122 14.818 23.2745 14.8948 23.0549C14.9717 22.8354 15.1114 22.644 15.296 22.505C15.4806 22.3661 15.7018 22.286 15.9315 22.2748C16.2355 22.26 16.533 22.367 16.7599 22.5726C16.9867 22.7782 17.1246 23.066 17.1437 23.3738Z" fill="#263238"/>
<path d="M16.1284 22.5968L9.89075 22.9358C9.7936 22.941 9.71907 23.0251 9.72428 23.1235L9.73768 23.3768C9.74289 23.4752 9.82587 23.5507 9.92302 23.5454L16.1607 23.2065C16.2578 23.2012 16.3324 23.1171 16.3271 23.0187L16.3137 22.7655C16.3085 22.6671 16.2255 22.5915 16.1284 22.5968Z" fill="#001F3F"/>
<path d="M16.1627 23.1908C16.2077 23.1803 16.2483 23.1557 16.2786 23.1203C16.2944 23.0978 16.3054 23.0721 16.3106 23.045C16.3158 23.0178 16.3151 22.9899 16.3087 22.963C16.3087 22.8949 16.2971 22.8104 16.2878 22.7282C16.2825 22.7067 16.2729 22.6865 16.2596 22.6689C16.2463 22.6513 16.2296 22.6366 16.2105 22.6258C16.1913 22.6151 16.1702 22.6084 16.1485 22.6062C16.1267 22.604 16.1047 22.6063 16.0839 22.6131L15.7315 22.6366L14.8716 22.693L9.8952 22.9818C9.88028 22.9824 9.86562 22.986 9.85207 22.9923C9.83852 22.9987 9.82633 23.0077 9.81621 23.0188C9.8061 23.0299 9.79824 23.0429 9.7931 23.0571C9.78796 23.0713 9.78564 23.0864 9.78626 23.1015V23.1931V23.3692C9.78905 23.389 9.79667 23.4077 9.80841 23.4237C9.82014 23.4397 9.83563 23.4524 9.85347 23.4608C9.87325 23.4659 9.89396 23.4659 9.91374 23.4608H10.0018H10.1757L10.5233 23.442L11.8445 23.3739L14.0836 23.2659L15.5948 23.2025H16.0051C16.0529 23.1985 16.1009 23.1985 16.1488 23.2025C16.1019 23.2155 16.0536 23.2226 16.0051 23.2237L15.5971 23.2565L14.0882 23.3599L11.8515 23.4937L10.5303 23.5689L10.1826 23.5876H10.0065H9.91837C9.8794 23.5897 9.84049 23.5825 9.8048 23.5665C9.76813 23.5502 9.73625 23.5245 9.71229 23.492C9.68832 23.4595 9.67308 23.4212 9.66805 23.381L9.65646 23.1955V23.1015C9.65476 23.0608 9.66354 23.0204 9.68195 22.9841C9.70048 22.9468 9.7285 22.9151 9.76314 22.8924C9.79777 22.8697 9.83776 22.8568 9.87897 22.855L14.8577 22.6014L15.7176 22.5638L16.0723 22.5497C16.1292 22.541 16.1874 22.5526 16.2368 22.5826C16.2598 22.597 16.2795 22.6162 16.2947 22.6388C16.3099 22.6615 16.3202 22.6871 16.3249 22.7141C16.3249 22.8104 16.3249 22.8855 16.3249 22.9489C16.33 22.9799 16.3285 23.0117 16.3205 23.042C16.3125 23.0724 16.2982 23.1007 16.2786 23.125C16.2229 23.219 16.158 23.1908 16.1627 23.1908Z" fill="#263238"/>
<path d="M16.1518 23.7062L9.91419 24.0451C9.81704 24.0504 9.74251 24.1345 9.74772 24.2329L9.76112 24.4862C9.76633 24.5846 9.84931 24.6601 9.94646 24.6548L16.1841 24.3159C16.2813 24.3106 16.3558 24.2265 16.3506 24.1281L16.3372 23.8749C16.332 23.7764 16.249 23.7009 16.1518 23.7062Z" fill="#001F3F"/>
<path d="M16.1977 24.321C16.2428 24.3105 16.2834 24.2859 16.3136 24.2505C16.3294 24.228 16.3402 24.2023 16.3454 24.1751C16.3506 24.148 16.35 24.1201 16.3438 24.0932C16.3438 24.0251 16.3438 23.9406 16.3229 23.8584C16.3176 23.8369 16.308 23.8167 16.2947 23.7991C16.2814 23.7815 16.2647 23.7668 16.2455 23.756C16.2264 23.7453 16.2053 23.7386 16.1835 23.7364C16.1618 23.7342 16.1398 23.7365 16.1189 23.7433L15.7666 23.7668L14.9067 23.8231L9.93027 24.112C9.91056 24.1129 9.89143 24.119 9.87477 24.1297C9.85811 24.1405 9.84448 24.1554 9.83524 24.173C9.82494 24.1908 9.8201 24.2112 9.82133 24.2317V24.321V24.4994C9.82387 24.519 9.83141 24.5375 9.8432 24.5531C9.85499 24.5688 9.87063 24.5811 9.88855 24.5887C9.90734 24.5977 9.92807 24.6017 9.94882 24.6004H10.0369H10.2131L10.5584 24.5816L11.8796 24.5135L14.1186 24.4032L15.6299 24.3421L16.0401 24.3304C16.0879 24.3252 16.1361 24.3252 16.1838 24.3304C16.1377 24.3433 16.0903 24.3504 16.0425 24.3515L15.6322 24.3844L14.1233 24.4854L11.8865 24.6216L10.5654 24.6967L10.2177 24.7155H10.0438H9.95345C9.91467 24.7182 9.87578 24.7118 9.83988 24.6967C9.8032 24.6804 9.77133 24.6547 9.74736 24.6222C9.7234 24.5897 9.70816 24.5514 9.70312 24.5112V24.3233V24.2317C9.70312 24.1695 9.72754 24.1097 9.77101 24.0657C9.81448 24.0217 9.87344 23.9969 9.93491 23.9969L14.9137 23.7433L15.7759 23.7057L16.1282 23.6916C16.1849 23.6807 16.2436 23.6916 16.2928 23.7222C16.3153 23.7371 16.3347 23.7564 16.3498 23.779C16.3649 23.8016 16.3755 23.8269 16.3809 23.8537C16.3809 23.9523 16.3809 24.0274 16.3809 24.0885C16.3864 24.1195 16.3852 24.1514 16.3771 24.1818C16.3691 24.2123 16.3546 24.2405 16.3345 24.2646C16.3187 24.2855 16.2977 24.3017 16.2737 24.3116C16.2496 24.3215 16.2234 24.3247 16.1977 24.321Z" fill="#263238"/>
<path d="M16.2434 29.3373C16.8783 29.3373 17.3931 28.8158 17.3931 28.1726C17.3931 27.5293 16.8783 27.0078 16.2434 27.0078C15.6085 27.0078 15.0938 27.5293 15.0938 28.1726C15.0938 28.8158 15.6085 29.3373 16.2434 29.3373Z" fill="#263238"/>
<path d="M16.3784 27.3312L10.1407 27.6701C10.0436 27.6754 9.96907 27.7595 9.97428 27.8579L9.98768 28.1111C9.99289 28.2096 10.0759 28.2851 10.173 28.2798L16.4107 27.9409C16.5078 27.9356 16.5823 27.8515 16.5771 27.7531L16.5637 27.4998C16.5585 27.4014 16.4755 27.3259 16.3784 27.3312Z" fill="#001F3F"/>
<path d="M16.4139 27.9332C16.4589 27.9227 16.4995 27.8981 16.5298 27.8627C16.5457 27.8402 16.5566 27.8145 16.5618 27.7874C16.567 27.7602 16.5663 27.7323 16.5599 27.7054C16.5599 27.6373 16.5599 27.5528 16.539 27.4706C16.5338 27.4491 16.5242 27.4289 16.5108 27.4113C16.4975 27.3937 16.4808 27.379 16.4617 27.3682C16.4426 27.3575 16.4215 27.3508 16.3997 27.3486C16.3779 27.3464 16.3559 27.3487 16.3351 27.3555L15.9828 27.379L15.1228 27.4353L10.1464 27.7242C10.1264 27.7251 10.107 27.7315 10.0903 27.7426C10.0736 27.7538 10.0601 27.7693 10.0514 27.7876C10.0411 27.8045 10.0363 27.8242 10.0375 27.8439V27.9355V28.1116C10.0403 28.1314 10.0479 28.1501 10.0596 28.1661C10.0714 28.1821 10.0869 28.1948 10.1047 28.2032C10.1245 28.2083 10.1452 28.2083 10.165 28.2032H10.253H10.4292L10.7746 28.1844L12.098 28.1163L14.3348 28.0083L15.846 27.9449L16.2563 27.9332C16.3041 27.9296 16.3521 27.9296 16.4 27.9332C16.3539 27.9461 16.3064 27.9532 16.2586 27.9543L15.8483 27.9872L14.3394 28.0882L12.1027 28.2244L10.7815 28.2995L10.4338 28.3183H10.26H10.1719C10.1323 28.3222 10.0924 28.3157 10.056 28.2995C10.024 28.2817 9.99661 28.2564 9.97607 28.2258C9.95553 28.1952 9.94242 28.1601 9.93781 28.1234V27.9379V27.8439C9.9357 27.8024 9.94449 27.7611 9.9633 27.7242C9.98214 27.6873 10.0103 27.6561 10.0449 27.6338C10.0795 27.6115 10.1193 27.599 10.1603 27.5974L15.1391 27.3438L16.0013 27.3062L16.3536 27.2921C16.4106 27.283 16.4689 27.2946 16.5182 27.325C16.5412 27.3394 16.5609 27.3586 16.5761 27.3812C16.5912 27.4039 16.6015 27.4295 16.6063 27.4565C16.6063 27.5528 16.6063 27.6279 16.6063 27.6913C16.6118 27.7223 16.6106 27.7542 16.6026 27.7846C16.5945 27.8151 16.58 27.8433 16.5599 27.8674C16.4742 27.952 16.4116 27.9355 16.4139 27.9332Z" fill="#263238"/>
<path d="M16.4057 28.4406L10.1681 28.7795C10.0709 28.7848 9.99641 28.8689 10.0016 28.9673L10.015 29.2205C10.0202 29.3189 10.1032 29.3945 10.2004 29.3892L16.438 29.0502C16.5352 29.045 16.6097 28.9609 16.6045 28.8625L16.5911 28.6092C16.5859 28.5108 16.5029 28.4353 16.4057 28.4406Z" fill="#001F3F"/>
<path d="M16.4269 29.0445C16.4719 29.0341 16.5125 29.0094 16.5428 28.9741C16.5585 28.9515 16.5694 28.9258 16.5746 28.8987C16.5797 28.8716 16.5792 28.8436 16.5729 28.8167C16.5729 28.7486 16.5729 28.6641 16.5521 28.5819C16.5465 28.5606 16.5367 28.5407 16.5233 28.5233C16.5099 28.506 16.4931 28.4916 16.474 28.4811C16.4549 28.4705 16.4339 28.464 16.4123 28.462C16.3906 28.4599 16.3688 28.4624 16.3481 28.4692L15.9958 28.4927L15.1382 28.549L10.1687 28.8355C10.1489 28.8362 10.1297 28.8422 10.113 28.853C10.0963 28.8637 10.0827 28.8788 10.0737 28.8966C10.0644 28.9147 10.0597 28.9349 10.0598 28.9553V29.0445V29.223C10.0627 29.2424 10.0704 29.2607 10.0822 29.2763C10.0939 29.2918 10.1093 29.3042 10.127 29.3122C10.1466 29.3182 10.1676 29.3182 10.1872 29.3122H10.2753H10.4515L10.7968 29.2958L12.1203 29.2277L14.3594 29.1173L15.8683 29.0563L16.2785 29.0445C16.3263 29.0394 16.3745 29.0394 16.4223 29.0445C16.3762 29.0574 16.3287 29.0645 16.2809 29.0656L15.8706 29.0985L14.364 29.1995L12.125 29.3333L10.8038 29.4108L10.4561 29.4296H10.2823H10.1942C10.1546 29.4324 10.115 29.426 10.0783 29.4108C10.0416 29.3945 10.0097 29.3689 9.98578 29.3363C9.96181 29.3038 9.94657 29.2656 9.94154 29.2253V29.0375V28.9459C9.94014 28.9042 9.94974 28.8628 9.96935 28.8261C9.98799 28.7896 10.0158 28.7586 10.05 28.7363C10.0841 28.7141 10.1235 28.7013 10.1641 28.6993L15.1451 28.4457L16.005 28.4081L16.3574 28.394C16.4148 28.3844 16.4737 28.3952 16.5242 28.4246C16.5685 28.4556 16.5992 28.5027 16.61 28.5561C16.61 28.6547 16.61 28.7298 16.61 28.7909C16.6157 28.8215 16.6145 28.8531 16.6065 28.8832C16.5985 28.9133 16.5838 28.9411 16.5636 28.9647C16.4964 29.0586 16.4269 29.0445 16.4269 29.0445Z" fill="#263238"/>
<path d="M17.6438 32.8448C17.6578 33.0773 17.6033 33.3088 17.487 33.5098C17.3708 33.7109 17.1981 33.8723 16.991 33.9736C16.784 34.0749 16.5518 34.1115 16.3241 34.0788C16.0965 34.046 15.8836 33.9454 15.7125 33.7897C15.5414 33.634 15.42 33.4303 15.3636 33.2044C15.3071 32.9785 15.3183 32.7408 15.3957 32.5214C15.473 32.302 15.613 32.1109 15.7979 31.9723C15.9828 31.8338 16.2042 31.7541 16.4339 31.7434C16.7379 31.7293 17.0352 31.8369 17.2616 32.0429C17.488 32.249 17.6253 32.537 17.6438 32.8448Z" fill="#263238"/>
<path d="M16.6284 32.0578L10.3907 32.3967C10.2936 32.402 10.2191 32.486 10.2243 32.5845L10.2377 32.8377C10.2429 32.9361 10.3259 33.0116 10.423 33.0064L16.6607 32.6674C16.7578 32.6622 16.8323 32.5781 16.8271 32.4797L16.8137 32.2264C16.8085 32.128 16.7255 32.0525 16.6284 32.0578Z" fill="#001F3F"/>
<path d="M16.6574 32.6656C16.7024 32.6551 16.743 32.6305 16.7733 32.5951C16.7891 32.5726 16.8 32.5469 16.8052 32.5198C16.8104 32.4926 16.8098 32.4647 16.8034 32.4378C16.8034 32.3697 16.8034 32.2852 16.7825 32.203C16.7772 32.1815 16.7676 32.1613 16.7543 32.1437C16.741 32.1261 16.7243 32.1114 16.7052 32.1006C16.686 32.0899 16.6649 32.0832 16.6432 32.081C16.6214 32.0788 16.5994 32.0811 16.5786 32.0879L16.2262 32.1114L15.3686 32.1678L10.3992 32.4566C10.3792 32.4578 10.3599 32.4642 10.3432 32.4754C10.3266 32.4865 10.3131 32.5019 10.3041 32.52C10.2949 32.5373 10.2901 32.5567 10.2902 32.5763V32.6679V32.8441C10.293 32.8638 10.3006 32.8825 10.3124 32.8985C10.3241 32.9145 10.3396 32.9272 10.3574 32.9356C10.3774 32.9392 10.3978 32.9392 10.4177 32.9356H10.5058H10.6819L11.0273 32.9168L12.3508 32.8487L14.5898 32.7407L16.0988 32.6773H16.509C16.5568 32.6722 16.605 32.6722 16.6527 32.6773C16.6066 32.6902 16.5591 32.6973 16.5113 32.6985L16.1011 32.7313L14.5945 32.8323L12.3554 32.9685L11.0342 33.0437L10.6866 33.0624H10.5127H10.4247C10.3851 33.0664 10.3452 33.0599 10.3088 33.0437C10.2721 33.0273 10.2402 33.0017 10.2163 32.9692C10.1923 32.9366 10.177 32.8984 10.172 32.8581V32.6703V32.5787C10.1706 32.537 10.1802 32.4956 10.1998 32.4589C10.2185 32.4224 10.2463 32.3914 10.2804 32.3691C10.3146 32.3469 10.3539 32.3341 10.3945 32.3321L15.3756 32.0785L16.2355 32.0409L16.5878 32.0269C16.6453 32.0172 16.7042 32.028 16.7547 32.0574C16.7995 32.0889 16.8302 32.137 16.8405 32.1912C16.8405 32.2875 16.8405 32.3627 16.8521 32.4261C16.856 32.4572 16.8537 32.4889 16.8453 32.5191C16.837 32.5494 16.8227 32.5776 16.8034 32.6022C16.7877 32.6259 16.7655 32.6445 16.7396 32.6558C16.7137 32.667 16.6851 32.6704 16.6574 32.6656Z" fill="#263238"/>
<path d="M16.6557 33.1671L10.4181 33.5061C10.3209 33.5113 10.2464 33.5954 10.2516 33.6938L10.265 33.9471C10.2702 34.0455 10.3532 34.121 10.4504 34.1157L16.688 33.7768C16.7852 33.7715 16.8597 33.6875 16.8545 33.589L16.8411 33.3358C16.8359 33.2374 16.7529 33.1619 16.6557 33.1671Z" fill="#001F3F"/>
<path d="M16.6862 33.7804C16.7312 33.77 16.7718 33.7453 16.8021 33.71C16.8184 33.6877 16.8295 33.662 16.8348 33.6348C16.84 33.6075 16.8391 33.5795 16.8322 33.5526C16.8322 33.4845 16.8322 33.3977 16.8136 33.3178C16.8078 33.2964 16.7978 33.2765 16.7841 33.2591C16.7705 33.2417 16.7535 33.2274 16.7343 33.2168C16.715 33.2063 16.6938 33.1998 16.672 33.1978C16.6502 33.1958 16.6282 33.1983 16.6074 33.2051L16.255 33.2286L15.3974 33.2849L10.4187 33.5714C10.3989 33.573 10.3798 33.5797 10.3631 33.5908C10.3465 33.6019 10.333 33.617 10.3237 33.6348C10.3144 33.653 10.3097 33.6731 10.3098 33.6935V33.7828V33.9612C10.3133 33.9807 10.3215 33.999 10.3336 34.0146C10.3458 34.0301 10.3614 34.0424 10.3793 34.0505C10.3982 34.0564 10.4184 34.0564 10.4372 34.0505H10.5253H10.7015L11.0491 34.034L12.3703 33.9636L14.6094 33.8556L16.1183 33.7945H16.5285C16.5762 33.7878 16.6246 33.7878 16.6723 33.7945C16.6262 33.8072 16.5786 33.8135 16.5309 33.8133L16.1206 33.8485L14.614 33.9495L12.375 34.0833L11.0538 34.1585L10.7084 34.1796H10.5323H10.4442C10.4054 34.1826 10.3665 34.1761 10.3306 34.1608C10.2935 34.1448 10.2612 34.1193 10.2368 34.0868C10.2124 34.0543 10.1968 34.0158 10.1915 33.9753V33.7875V33.6959C10.1901 33.6542 10.1997 33.6128 10.2194 33.5761C10.2379 33.5388 10.2659 33.5071 10.3005 33.4844C10.3352 33.4617 10.3752 33.4488 10.4164 33.447L15.3951 33.1957L16.255 33.1581L16.6074 33.144C16.6648 33.1344 16.7237 33.1452 16.7742 33.1746C16.7967 33.1893 16.8159 33.2086 16.8306 33.2313C16.8454 33.2539 16.8554 33.2794 16.86 33.3061C16.86 33.4024 16.86 33.4798 16.86 33.5409C16.8647 33.5717 16.8629 33.6032 16.8545 33.6332C16.846 33.6632 16.8313 33.691 16.8113 33.7147C16.7464 33.7992 16.6838 33.7804 16.6862 33.7804Z" fill="#263238"/>
<path d="M17.8938 37.5791C17.9078 37.8117 17.8533 38.0432 17.737 38.2442C17.6208 38.4452 17.4481 38.6067 17.241 38.708C17.034 38.8093 16.8018 38.8459 16.5741 38.8132C16.3465 38.7804 16.1336 38.6798 15.9625 38.5241C15.7914 38.3684 15.67 38.1646 15.6136 37.9388C15.5571 37.7129 15.5683 37.4752 15.6457 37.2558C15.723 37.0364 15.863 36.8452 16.0479 36.7067C16.2328 36.5682 16.4542 36.4885 16.6839 36.4778C16.9879 36.4637 17.2852 36.5712 17.5116 36.7773C17.738 36.9834 17.8753 37.2714 17.8938 37.5791Z" fill="#263238"/>
<path d="M16.8784 36.7921L10.6407 37.1311C10.5436 37.1363 10.4691 37.2204 10.4743 37.3188L10.4877 37.5721C10.4929 37.6705 10.5759 37.746 10.673 37.7407L16.9107 37.4018C17.0078 37.3965 17.0823 37.3125 17.0771 37.214L17.0637 36.9608C17.0585 36.8624 16.9755 36.7869 16.8784 36.7921Z" fill="#001F3F"/>
<path d="M16.915 37.4024C16.9601 37.392 17.0007 37.3673 17.0309 37.332C17.0472 37.3097 17.0584 37.284 17.0636 37.2568C17.0689 37.2295 17.068 37.2015 17.0611 37.1746C17.0611 37.1065 17.0611 37.022 17.0425 36.9398C17.0367 36.9184 17.0266 36.8984 17.013 36.8809C16.9994 36.8635 16.9825 36.849 16.9633 36.8383C16.9441 36.8275 16.9229 36.8208 16.9011 36.8185C16.8793 36.8162 16.8572 36.8183 16.8362 36.8247L16.4839 36.8482L15.6263 36.9046L10.6476 37.1934C10.6279 37.1946 10.6089 37.2008 10.5922 37.2115C10.5756 37.2222 10.562 37.237 10.5525 37.2545C10.5436 37.2727 10.5388 37.2928 10.5386 37.3132V37.4048V37.5809C10.5407 37.6006 10.548 37.6193 10.5599 37.635C10.5718 37.6508 10.5876 37.6629 10.6058 37.6701C10.6249 37.675 10.6448 37.675 10.6638 37.6701H10.7519H10.928L11.2757 37.6513L12.5969 37.5832L14.8359 37.4729L16.3449 37.4118H16.7551C16.8029 37.4067 16.851 37.4067 16.8988 37.4118C16.8528 37.425 16.8053 37.4321 16.7574 37.4329L16.3472 37.4658L14.8406 37.5668L12.6015 37.703L11.2803 37.7781L10.935 37.7969H10.7588H10.6707C10.6319 37.8011 10.5927 37.7946 10.5572 37.7781C10.5201 37.7621 10.4877 37.7366 10.4633 37.7041C10.4389 37.6715 10.4234 37.6331 10.4181 37.5926V37.4048V37.3132C10.4167 37.2715 10.4263 37.2301 10.4459 37.1934C10.4648 37.1565 10.4929 37.1253 10.5275 37.1031C10.5621 37.0808 10.602 37.0682 10.6429 37.0666L15.6217 36.813L16.4816 36.7754L16.8339 36.7613C16.8914 36.7515 16.9504 36.7623 17.0008 36.7919C17.0231 36.8068 17.0421 36.8262 17.0569 36.8488C17.0716 36.8714 17.0817 36.8967 17.0866 36.9234C17.0866 37.022 17.0866 37.0971 17.0866 37.1582C17.0905 37.1894 17.0882 37.221 17.0798 37.2513C17.0715 37.2815 17.0572 37.3097 17.0379 37.3343C17.0247 37.3552 17.0065 37.3724 16.985 37.3843C16.9636 37.3962 16.9395 37.4024 16.915 37.4024Z" fill="#263238"/>
<path d="M16.9018 37.9015L10.6642 38.2404C10.567 38.2457 10.4925 38.3298 10.4977 38.4282L10.5111 38.6815C10.5163 38.7799 10.5993 38.8554 10.6965 38.8501L16.9341 38.5112C17.0313 38.5059 17.1058 38.4218 17.1006 38.3234L17.0872 38.0702C17.082 37.9717 16.999 37.8962 16.9018 37.9015Z" fill="#001F3F"/>
<path d="M16.9408 38.5173C16.9847 38.5043 17.024 38.479 17.0544 38.4445C17.0708 38.4227 17.0821 38.3974 17.0873 38.3705C17.0925 38.3436 17.0916 38.3159 17.0845 38.2895C17.0845 38.2214 17.0845 38.1345 17.066 38.0546C17.0604 38.0333 17.0506 38.0133 17.0372 37.9959C17.0238 37.9785 17.0071 37.964 16.9881 37.9532C16.9691 37.9425 16.9481 37.9358 16.9264 37.9334C16.9048 37.9311 16.8828 37.9332 16.862 37.9396L16.5097 37.9654L15.6498 38.0194L10.671 38.3083C10.6512 38.3099 10.6321 38.3165 10.6155 38.3276C10.5989 38.3387 10.5853 38.3538 10.576 38.3717C10.5667 38.3898 10.562 38.41 10.5621 38.4304V38.5196L10.5737 38.6957C10.576 38.7156 10.5835 38.7345 10.5953 38.7506C10.6071 38.7666 10.6228 38.7793 10.6409 38.7873C10.6599 38.7922 10.6798 38.7922 10.6988 38.7873H10.7869H10.9631L11.3107 38.7685L12.6319 38.7004L14.871 38.5924L16.3799 38.529H16.7925C16.8402 38.5226 16.8885 38.5226 16.9362 38.529C16.889 38.5403 16.8409 38.5466 16.7925 38.5478L16.3822 38.583L14.8756 38.684L12.6389 38.8178L11.3154 38.893L10.97 38.9141H10.7939H10.7058C10.6668 38.9162 10.6279 38.909 10.5922 38.893C10.5551 38.877 10.5228 38.8515 10.4984 38.8189C10.474 38.7864 10.4584 38.748 10.4531 38.7075V38.522V38.4304C10.4528 38.3888 10.4623 38.3477 10.4809 38.3106C10.4995 38.2733 10.5275 38.2416 10.5621 38.2189C10.5968 38.1962 10.6368 38.1833 10.678 38.1815L15.6567 37.9302L16.5166 37.8926L16.8689 37.8785C16.9264 37.8687 16.9854 37.8795 17.0358 37.9091C17.0585 37.9238 17.078 37.9431 17.0932 37.9657C17.1083 37.9883 17.1188 38.0137 17.1239 38.0406C17.1239 38.1368 17.1239 38.2143 17.1239 38.2754C17.1291 38.3062 17.1275 38.3378 17.1191 38.3679C17.1106 38.3979 17.0957 38.4257 17.0752 38.4492C17.0011 38.536 16.9362 38.5173 16.9408 38.5173Z" fill="#263238"/>
<path d="M18.1438 42.3057C18.1578 42.5382 18.1033 42.7698 17.987 42.9708C17.8708 43.1718 17.6981 43.3332 17.491 43.4345C17.284 43.5359 17.0518 43.5725 16.8241 43.5397C16.5965 43.507 16.3836 43.4064 16.2125 43.2506C16.0414 43.0949 15.92 42.8912 15.8636 42.6653C15.8071 42.4395 15.8183 42.2017 15.8957 41.9823C15.973 41.7629 16.113 41.5718 16.2979 41.4333C16.4828 41.2947 16.7042 41.215 16.9339 41.2044C17.2379 41.1902 17.5352 41.2978 17.7616 41.5039C17.988 41.7099 18.1253 41.9979 18.1438 42.3057Z" fill="#263238"/>
<path d="M17.1284 41.5265L10.8907 41.8654C10.7936 41.8707 10.7191 41.9548 10.7243 42.0532L10.7377 42.3065C10.7429 42.4049 10.8259 42.4804 10.923 42.4751L17.1607 42.1362C17.2578 42.1309 17.3323 42.0468 17.3271 41.9484L17.3137 41.6952C17.3085 41.5967 17.2255 41.5212 17.1284 41.5265Z" fill="#001F3F"/>
<path d="M17.1633 42.1344C17.2072 42.1227 17.2467 42.0982 17.2769 42.064C17.2932 42.0417 17.3044 42.016 17.3096 41.9888C17.3148 41.9616 17.3139 41.9335 17.307 41.9067C17.307 41.8386 17.307 41.754 17.2885 41.6718C17.2826 41.6507 17.2727 41.631 17.2592 41.6138C17.2457 41.5967 17.229 41.5824 17.21 41.5719C17.1909 41.5614 17.1701 41.5549 17.1485 41.5527C17.127 41.5505 17.1052 41.5527 17.0845 41.5591L16.7322 41.5826L15.8723 41.639L10.8958 41.9278C10.8758 41.9288 10.8564 41.9349 10.8394 41.9456C10.8224 41.9563 10.8083 41.9712 10.7985 41.9888C10.7893 42.007 10.7845 42.0271 10.7846 42.0476V42.1368V42.3153C10.7866 42.3349 10.794 42.3537 10.8059 42.3694C10.8177 42.3852 10.8336 42.3973 10.8518 42.4045C10.8707 42.4105 10.8909 42.4105 10.9098 42.4045H10.9978H11.174L11.5217 42.3857L12.8428 42.3176L15.0819 42.2072L16.5908 42.1462H17.0034C17.0512 42.1412 17.0993 42.1412 17.1471 42.1462C17.1002 42.1592 17.052 42.1663 17.0034 42.1673L16.5931 42.2002L15.0865 42.3012L12.8498 42.4374L11.5263 42.5125L11.1809 42.5313H11.0048H10.9167C10.8779 42.5342 10.839 42.5278 10.8031 42.5125C10.766 42.4965 10.7337 42.471 10.7093 42.4385C10.6849 42.4059 10.6693 42.3675 10.6641 42.327V42.1391V42.0476C10.6639 42.006 10.6735 41.965 10.6919 41.9278C10.7107 41.8909 10.7389 41.8597 10.7735 41.8374C10.8081 41.8152 10.8479 41.8026 10.8889 41.801L15.8676 41.5474L16.7276 41.5098L17.0799 41.4957C17.1373 41.4859 17.1963 41.4967 17.2468 41.5262C17.2693 41.5412 17.2887 41.5605 17.3038 41.5831C17.3189 41.6056 17.3295 41.631 17.3348 41.6577C17.3348 41.7564 17.3348 41.8315 17.3348 41.8926C17.3399 41.9237 17.3382 41.9557 17.3298 41.9861C17.3214 42.0165 17.3065 42.0447 17.2862 42.0687C17.2728 42.0893 17.2546 42.1061 17.2331 42.1176C17.2116 42.1291 17.1876 42.1349 17.1633 42.1344Z" fill="#263238"/>
<path d="M17.1557 42.6359L10.9181 42.9748C10.8209 42.9801 10.7464 43.0642 10.7516 43.1626L10.765 43.4158C10.7702 43.5143 10.8532 43.5898 10.9504 43.5845L17.188 43.2456C17.2852 43.2403 17.3597 43.1562 17.3545 43.0578L17.3411 42.8045C17.3359 42.7061 17.2529 42.6306 17.1557 42.6359Z" fill="#001F3F"/>
<path d="M17.1888 43.25C17.2327 43.2371 17.272 43.2118 17.3024 43.1773C17.3186 43.1554 17.3299 43.1302 17.3355 43.1034C17.3411 43.0766 17.3409 43.0489 17.3348 43.0223C17.3348 42.9542 17.3348 42.8673 17.314 42.7874C17.3007 42.7487 17.2736 42.7164 17.238 42.6968C17.2024 42.6772 17.1609 42.6719 17.1216 42.6818L16.7693 42.7076L15.9094 42.7616L10.9329 43.0504C10.9126 43.0512 10.8928 43.0575 10.8757 43.0686C10.8586 43.0798 10.8447 43.0954 10.8356 43.1138C10.8297 43.133 10.8297 43.1534 10.8356 43.1726V43.2618V43.4379C10.838 43.4578 10.8454 43.4767 10.8572 43.4927C10.869 43.5088 10.8847 43.5215 10.9028 43.5295C10.9218 43.5344 10.9417 43.5344 10.9607 43.5295H11.0488H11.225L11.5727 43.5107L12.8938 43.4426L15.1329 43.3346L16.6441 43.2712H17.0544C17.1021 43.2646 17.1504 43.2646 17.1981 43.2712C17.1507 43.2809 17.1027 43.2872 17.0544 43.29L16.6464 43.3252L15.1375 43.4262L12.9008 43.56L11.5796 43.6352L11.2319 43.6563H11.0558H10.9677C10.9287 43.6584 10.8898 43.6512 10.8541 43.6352C10.817 43.6192 10.7847 43.5936 10.7603 43.5611C10.7359 43.5286 10.7203 43.4902 10.7151 43.4496V43.2641V43.1702C10.7133 43.1295 10.7221 43.089 10.7405 43.0528C10.7591 43.0155 10.7871 42.9838 10.8217 42.9611C10.8564 42.9384 10.8964 42.9255 10.9376 42.9236L15.9163 42.6724L16.7762 42.6348L17.1285 42.6207C17.186 42.6109 17.245 42.6217 17.2954 42.6512C17.3181 42.666 17.3376 42.6852 17.3528 42.7078C17.3679 42.7304 17.3784 42.7559 17.3835 42.7827C17.3835 42.879 17.3835 42.9542 17.3835 43.0176C17.3884 43.0482 17.3868 43.0796 17.3788 43.1095C17.3708 43.1395 17.3566 43.1674 17.3372 43.1913C17.2491 43.2688 17.1842 43.25 17.1888 43.25Z" fill="#263238"/>
<path d="M18.3977 47.0401C18.4117 47.2726 18.3572 47.5041 18.2409 47.7051C18.1247 47.9062 17.952 48.0676 17.745 48.1689C17.5379 48.2702 17.3057 48.3068 17.0781 48.2741C16.8504 48.2414 16.6375 48.1407 16.4664 47.985C16.2954 47.8293 16.1739 47.6256 16.1175 47.3997C16.061 47.1739 16.0722 46.9361 16.1496 46.7167C16.2269 46.4973 16.3669 46.3062 16.5518 46.1676C16.7367 46.0291 16.9581 45.9494 17.1878 45.9387C17.4918 45.9246 17.7891 46.0322 18.0155 46.2382C18.2419 46.4443 18.3792 46.7323 18.3977 47.0401Z" fill="#263238"/>
<path d="M17.3823 46.2609L11.1447 46.5998C11.0475 46.6051 10.973 46.6892 10.9782 46.7876L10.9916 47.0408C10.9968 47.1393 11.0798 47.2148 11.1769 47.2095L17.4146 46.8706C17.5117 46.8653 17.5863 46.7812 17.581 46.6828L17.5676 46.4295C17.5624 46.3311 17.4794 46.2556 17.3823 46.2609Z" fill="#001F3F"/>
<path d="M17.4153 46.8625C17.46 46.8512 17.5004 46.8267 17.5312 46.792C17.5465 46.7692 17.557 46.7435 17.5622 46.7165C17.5673 46.6895 17.5671 46.6616 17.5614 46.6347C17.5614 46.5666 17.5498 46.4821 17.5405 46.3999C17.535 46.3786 17.5252 46.3587 17.5117 46.3413C17.4983 46.324 17.4816 46.3096 17.4625 46.299C17.4434 46.2885 17.4224 46.282 17.4007 46.28C17.3791 46.2779 17.3572 46.2804 17.3365 46.2872L16.9842 46.3107L16.1243 46.367L11.1479 46.6558C11.1278 46.6564 11.1082 46.6623 11.091 46.673C11.0739 46.6838 11.06 46.6989 11.0505 46.7169C11.0459 46.7362 11.0459 46.7563 11.0505 46.7756V46.8648V47.0433C11.0531 47.0628 11.0606 47.0813 11.0724 47.097C11.0842 47.1127 11.0998 47.1249 11.1177 47.1325C11.1366 47.1385 11.1568 47.1385 11.1757 47.1325H11.2661H11.4399L11.7876 47.1161L13.1088 47.048L15.3478 46.9376L16.8591 46.8766L17.2693 46.8648C17.3171 46.8598 17.3653 46.8598 17.413 46.8648C17.3662 46.8776 17.3178 46.8839 17.2693 46.8836L16.8614 46.9189L15.3525 47.0198L13.1157 47.1537L11.7946 47.2312L11.4469 47.25H11.2707H11.1826C11.1438 47.2529 11.1049 47.2464 11.0691 47.2312C11.032 47.2152 10.9996 47.1897 10.9752 47.1571C10.9508 47.1246 10.9352 47.0862 10.93 47.0457V46.8578V46.7662C10.9279 46.7247 10.9367 46.6834 10.9555 46.6465C10.9743 46.6095 11.0025 46.5784 11.0371 46.5561C11.0717 46.5338 11.1115 46.5212 11.1525 46.5196L16.1313 46.266L16.9912 46.2285L17.3458 46.2144C17.4025 46.2047 17.4607 46.2155 17.5104 46.2449C17.5329 46.2598 17.5523 46.2792 17.5674 46.3017C17.5825 46.3243 17.5931 46.3497 17.5985 46.3764C17.5985 46.475 17.5985 46.5502 17.5985 46.6112C17.6037 46.6419 17.6022 46.6733 17.5942 46.7033C17.5862 46.7333 17.5718 46.7612 17.5521 46.785C17.4756 46.8813 17.4107 46.8625 17.4153 46.8625Z" fill="#263238"/>
<path d="M17.4057 47.3781L11.1681 47.717C11.0709 47.7223 10.9964 47.8063 11.0016 47.9048L11.015 48.158C11.0202 48.2564 11.1032 48.3319 11.2004 48.3267L17.438 47.9877C17.5352 47.9825 17.6097 47.8984 17.6045 47.8L17.5911 47.5467C17.5859 47.4483 17.5029 47.3728 17.4057 47.3781Z" fill="#001F3F"/>
<path d="M17.4401 47.9879C17.4851 47.9759 17.5255 47.9506 17.556 47.9151C17.5719 47.8926 17.5828 47.8669 17.588 47.8397C17.5932 47.8126 17.5926 47.7846 17.5862 47.7577C17.5862 47.692 17.5746 47.6051 17.5653 47.5229C17.56 47.5014 17.5504 47.4812 17.5371 47.4636C17.5238 47.446 17.5071 47.4314 17.4879 47.4206C17.4688 47.4098 17.4477 47.4031 17.4259 47.4009C17.4042 47.3987 17.3822 47.4011 17.3613 47.4079L17.009 47.4337L16.1491 47.4877L11.1727 47.7765C11.1578 47.7771 11.1431 47.7807 11.1295 47.7871C11.116 47.7934 11.1038 47.8024 11.0937 47.8135C11.0836 47.8247 11.0757 47.8377 11.0706 47.8519C11.0654 47.8661 11.0631 47.8812 11.0637 47.8963V47.9879V48.164C11.0665 48.1837 11.0741 48.2024 11.0859 48.2184C11.0976 48.2344 11.1131 48.2472 11.1309 48.2556C11.1507 48.2606 11.1714 48.2606 11.1912 48.2556H11.2793H11.4531L11.8008 48.2368L13.122 48.1687L15.361 48.0607L16.8723 47.9973H17.2825C17.3302 47.9907 17.3786 47.9907 17.4262 47.9973C17.3788 48.007 17.3308 48.0133 17.2825 48.0161L16.8746 48.0489L15.3657 48.1523L13.1289 48.2861L11.8078 48.3613L11.4601 48.38L11.2839 48.3918H11.1958C11.1569 48.3939 11.118 48.3866 11.0823 48.3706C11.0456 48.3543 11.0137 48.3287 10.9898 48.2961C10.9658 48.2636 10.9506 48.2254 10.9455 48.1851V47.9996V47.9057C10.9438 47.865 10.9526 47.8245 10.971 47.7883C10.9895 47.7509 11.0176 47.7193 11.0522 47.6966C11.0868 47.6739 11.1268 47.6609 11.168 47.6591L16.1468 47.4079L17.0067 47.3679L17.3613 47.3538C17.4183 47.3462 17.4761 47.3578 17.5259 47.3867C17.5489 47.4011 17.5686 47.4203 17.5838 47.443C17.5989 47.4656 17.6092 47.4913 17.614 47.5182C17.614 47.6145 17.614 47.6896 17.614 47.753C17.6189 47.7837 17.6173 47.815 17.6093 47.845C17.6013 47.875 17.5871 47.9029 17.5676 47.9268C17.5004 48.0067 17.4355 47.9879 17.4401 47.9879Z" fill="#263238"/>
<path d="M18.6438 51.7823C18.6578 52.0148 18.6033 52.2463 18.487 52.4473C18.3708 52.6484 18.1981 52.8098 17.991 52.9111C17.784 53.0124 17.5518 53.049 17.3241 53.0163C17.0965 52.9835 16.8836 52.8829 16.7125 52.7272C16.5414 52.5715 16.42 52.3678 16.3636 52.1419C16.3071 51.9161 16.3183 51.6783 16.3957 51.4589C16.473 51.2395 16.613 51.0484 16.7979 50.9098C16.9828 50.7713 17.2042 50.6916 17.4339 50.6809C17.7379 50.6668 18.0352 50.7744 18.2616 50.9804C18.488 51.1865 18.6253 51.4745 18.6438 51.7823Z" fill="#263238"/>
<path d="M17.6323 50.9953L11.3947 51.3342C11.2975 51.3395 11.223 51.4235 11.2282 51.522L11.2416 51.7752C11.2468 51.8736 11.3298 51.9491 11.4269 51.9439L17.6646 51.6049C17.7617 51.5997 17.8363 51.5156 17.831 51.4172L17.8176 51.1639C17.8124 51.0655 17.7295 50.99 17.6323 50.9953Z" fill="#001F3F"/>
<path d="M17.6671 51.5999C17.7121 51.5895 17.7527 51.5648 17.783 51.5295C17.8005 51.5064 17.8127 51.4797 17.8187 51.4513C17.8247 51.4228 17.8244 51.3934 17.8177 51.3651C17.8177 51.297 17.8177 51.2101 17.7969 51.1303C17.7916 51.1088 17.782 51.0886 17.7687 51.071C17.7553 51.0534 17.7386 51.0387 17.7195 51.0279C17.7004 51.0172 17.6793 51.0105 17.6575 51.0083C17.6357 51.0061 17.6137 51.0084 17.5929 51.0152L17.2406 51.041L16.3807 51.0974L11.4042 51.3839C11.3891 51.3845 11.3742 51.3881 11.3605 51.3946C11.3468 51.4011 11.3345 51.4103 11.3244 51.4217C11.3142 51.4331 11.3064 51.4464 11.3014 51.4609C11.2964 51.4754 11.2943 51.4907 11.2953 51.506V51.5952V51.7713C11.2981 51.7911 11.3057 51.8098 11.3174 51.8258C11.3292 51.8418 11.3447 51.8545 11.3625 51.8629C11.3821 51.8691 11.4031 51.8691 11.4228 51.8629H11.5108H11.6847L12.0324 51.8441L13.3535 51.776L15.5926 51.668L17.1224 51.5999H17.5326C17.5803 51.5932 17.6287 51.5932 17.6763 51.5999C17.63 51.6111 17.5826 51.6174 17.5349 51.6187L17.1247 51.6539L15.6158 51.7549L13.379 51.8888L12.0579 51.9639L11.7102 51.985H11.534H11.4459C11.4072 51.988 11.3682 51.9815 11.3324 51.9663C11.2954 51.9497 11.2633 51.9237 11.2393 51.8908C11.2153 51.8578 11.2003 51.8191 11.1956 51.7784V51.5929V51.5013C11.1935 51.4598 11.2023 51.4185 11.2211 51.3815C11.2405 51.3449 11.2688 51.3139 11.3032 51.2913C11.3377 51.2687 11.3772 51.2553 11.4181 51.2524L16.3969 51.0011L17.2568 50.9635L17.6114 50.9495C17.6681 50.9385 17.7268 50.9494 17.776 50.98C17.7987 50.9947 17.8182 51.014 17.8333 51.0366C17.8485 51.0592 17.8589 51.0847 17.8641 51.1115C17.8641 51.2078 17.8641 51.2853 17.8641 51.3463C17.8693 51.377 17.8678 51.4084 17.8598 51.4384C17.8518 51.4684 17.8375 51.4963 17.8177 51.5201C17.7273 51.6164 17.6624 51.5999 17.6671 51.5999Z" fill="#263238"/>
<path d="M17.6596 52.1124L11.422 52.4514C11.3248 52.4567 11.2503 52.5407 11.2555 52.6392L11.2689 52.8924C11.2741 52.9908 11.3571 53.0663 11.4543 53.0611L17.6919 52.7221C17.7891 52.7168 17.8636 52.6328 17.8584 52.5344L17.845 52.2811C17.8398 52.1827 17.7568 52.1072 17.6596 52.1124Z" fill="#001F3F"/>
<path d="M17.6901 52.7222C17.7352 52.7118 17.7757 52.6871 17.806 52.6518C17.8219 52.6293 17.8328 52.6036 17.838 52.5764C17.8432 52.5493 17.8426 52.5213 17.8362 52.4945C17.8362 52.4264 17.8362 52.3418 17.8153 52.2596C17.81 52.2381 17.8004 52.2179 17.7871 52.2003C17.7738 52.1827 17.7571 52.1681 17.7379 52.1573C17.7188 52.1465 17.6977 52.1398 17.6759 52.1376C17.6542 52.1354 17.6322 52.1378 17.6113 52.1446L17.259 52.168L16.3991 52.2244L11.4227 52.5132C11.4027 52.5142 11.3833 52.5205 11.3665 52.5317C11.3498 52.5429 11.3364 52.5584 11.3276 52.5766C11.3174 52.5935 11.3125 52.6132 11.3137 52.633V52.7246V52.9007C11.3165 52.9204 11.3241 52.9391 11.3359 52.9551C11.3476 52.9711 11.3631 52.9839 11.3809 52.9923C11.4007 52.9974 11.4214 52.9974 11.4412 52.9923H11.5293H11.7054L12.0508 52.9735L13.3743 52.9054L15.611 52.7974L17.1223 52.734H17.5325C17.5803 52.7298 17.6284 52.7298 17.6762 52.734C17.6301 52.7469 17.5827 52.754 17.5348 52.7551L17.1246 52.788L15.6157 52.8913L13.3789 53.0252L12.0578 53.1003L11.7101 53.1191H11.5362H11.4482C11.4084 53.1212 11.3688 53.114 11.3323 53.098C11.2956 53.0816 11.2637 53.056 11.2398 53.0235C11.2158 52.991 11.2006 52.9527 11.1955 52.9124V52.7269V52.633C11.1938 52.5923 11.2026 52.5518 11.221 52.5156C11.2395 52.4783 11.2676 52.4466 11.3022 52.4239C11.3368 52.4012 11.3768 52.3883 11.418 52.3864L16.3968 52.1328L17.259 52.0953L17.6113 52.0812C17.6683 52.072 17.7266 52.0837 17.7759 52.114C17.7989 52.1285 17.8186 52.1476 17.8338 52.1703C17.8489 52.1929 17.8592 52.2186 17.864 52.2455C17.864 52.3418 17.864 52.417 17.864 52.4804C17.8697 52.5114 17.8685 52.5433 17.8605 52.5737C17.8525 52.6042 17.8378 52.6325 17.8176 52.6565C17.7504 52.7434 17.6878 52.7246 17.6901 52.7222Z" fill="#263238"/>
<path d="M18.8977 56.5166C18.9117 56.7492 18.8572 56.9807 18.7409 57.1817C18.6247 57.3827 18.452 57.5442 18.245 57.6455C18.0379 57.7468 17.8057 57.7834 17.5781 57.7507C17.3504 57.7179 17.1375 57.6173 16.9664 57.4616C16.7954 57.3059 16.6739 57.1021 16.6175 56.8763C16.561 56.6504 16.5722 56.4127 16.6496 56.1933C16.7269 55.9739 16.8669 55.7827 17.0518 55.6442C17.2367 55.5057 17.4581 55.426 17.6878 55.4153C17.9918 55.4012 18.2891 55.5087 18.5155 55.7148C18.7419 55.9209 18.8792 56.2089 18.8977 56.5166Z" fill="#263238"/>
<path d="M17.8823 55.7296L11.6447 56.0686C11.5475 56.0738 11.473 56.1579 11.4782 56.2563L11.4916 56.5096C11.4968 56.608 11.5798 56.6835 11.6769 56.6782L17.9146 56.3393C18.0117 56.334 18.0863 56.25 18.081 56.1515L18.0676 55.8983C18.0624 55.7999 17.9795 55.7244 17.8823 55.7296Z" fill="#001F3F"/>
<path d="M17.9168 56.3382C17.9618 56.3262 18.0021 56.3009 18.0327 56.2654C18.0485 56.2433 18.0594 56.218 18.0646 56.1913C18.0698 56.1645 18.0692 56.1369 18.0628 56.1104C18.0628 56.0423 18.0628 55.9554 18.042 55.8756C18.0367 55.8541 18.0271 55.8339 18.0138 55.8163C18.0005 55.7987 17.9837 55.784 17.9646 55.7733C17.9455 55.7625 17.9244 55.7558 17.9026 55.7536C17.8808 55.7514 17.8588 55.7537 17.838 55.7605L17.4857 55.7863L16.6258 55.8404L11.6493 56.1292C11.6294 56.1306 11.6103 56.1372 11.5936 56.1483C11.577 56.1594 11.5634 56.1746 11.5543 56.1926C11.544 56.2103 11.5392 56.2308 11.5404 56.2513V56.3405V56.5167C11.5432 56.5364 11.5508 56.5551 11.5625 56.5711C11.5743 56.5871 11.5898 56.5998 11.6076 56.6082C11.6274 56.6133 11.6481 56.6133 11.6679 56.6082H11.756H11.9321L12.2775 56.5894L13.601 56.5213L15.8377 56.4133L17.3489 56.3499H17.7592C17.8069 56.3432 17.8552 56.3432 17.9029 56.3499C17.8565 56.3611 17.8091 56.3674 17.7615 56.3687L17.3512 56.4039L15.8423 56.5049L13.6056 56.6388L12.2844 56.7139L11.9367 56.735H11.7629H11.6748C11.6351 56.7372 11.5954 56.7299 11.5589 56.7139C11.5223 56.6976 11.4904 56.6719 11.4664 56.6394C11.4425 56.6069 11.4272 56.5686 11.4222 56.5284V56.3429V56.2513C11.4201 56.2098 11.4289 56.1685 11.4477 56.1315C11.4662 56.0942 11.4942 56.0625 11.5289 56.0398C11.5635 56.0171 11.6035 56.0042 11.6447 56.0024L16.6234 55.7511L17.4857 55.7135L17.838 55.6995C17.8947 55.6885 17.9534 55.6994 18.0026 55.73C18.0253 55.7447 18.0448 55.764 18.0599 55.7866C18.075 55.8092 18.0855 55.8347 18.0906 55.8615C18.0906 55.9578 18.0906 56.0329 18.0906 56.0963C18.0962 56.1269 18.0949 56.1584 18.0869 56.1885C18.0789 56.2186 18.0643 56.2464 18.0443 56.2701C17.9771 56.357 17.9145 56.3382 17.9168 56.3382Z" fill="#263238"/>
<path d="M17.9096 56.8468L11.672 57.1858C11.5748 57.191 11.5003 57.2751 11.5055 57.3735L11.5189 57.6268C11.5241 57.7252 11.6071 57.8007 11.7043 57.7954L17.9419 57.4565C18.0391 57.4512 18.1136 57.3671 18.1084 57.2687L18.095 57.0155C18.0898 56.9171 18.0068 56.8415 17.9096 56.8468Z" fill="#001F3F"/>
<path d="M17.9401 57.4523C17.9851 57.4419 18.0257 57.4172 18.056 57.3819C18.0718 57.3594 18.0827 57.3337 18.0879 57.3065C18.0931 57.2794 18.0925 57.2514 18.0861 57.2245C18.0861 57.1564 18.0861 57.0719 18.0652 56.9897C18.0599 56.9682 18.0503 56.948 18.037 56.9304C18.0237 56.9128 18.007 56.8982 17.9879 56.8874C17.9687 56.8766 17.9476 56.8699 17.9259 56.8677C17.9041 56.8655 17.8821 56.8679 17.8613 56.8746L17.5089 56.8981L16.6513 56.9545L11.6726 57.2433C11.6526 57.2445 11.6334 57.2509 11.6167 57.2621C11.6 57.2732 11.5865 57.2886 11.5776 57.3067C11.5683 57.324 11.5636 57.3434 11.5637 57.3631V57.4546V57.6308C11.5665 57.6505 11.5741 57.6692 11.5858 57.6852C11.5975 57.7012 11.613 57.714 11.6309 57.7224C11.6507 57.7271 11.6713 57.7271 11.6911 57.7224H11.7792H11.9554L12.3007 57.7036L13.6242 57.6355L15.8633 57.5274L17.3722 57.464L17.7825 57.4523C17.8303 57.4487 17.8783 57.4487 17.9262 57.4523C17.8801 57.4652 17.8326 57.4723 17.7848 57.4734L17.3745 57.5063L15.8679 57.6073L13.6289 57.7435L12.3077 57.8186L11.9623 57.8374H11.7862H11.6981C11.6585 57.8413 11.6186 57.8349 11.5822 57.8186C11.5455 57.8023 11.5137 57.7766 11.4897 57.7441C11.4657 57.7116 11.4505 57.6734 11.4454 57.6331V57.4476V57.3537C11.444 57.312 11.4536 57.2706 11.4733 57.2339C11.4919 57.1973 11.5197 57.1664 11.5539 57.1441C11.588 57.1219 11.6274 57.1091 11.668 57.1071L16.6583 56.8676L17.5182 56.83L17.8705 56.8159C17.928 56.8063 17.9869 56.8171 18.0374 56.8464C18.0822 56.878 18.113 56.926 18.1232 56.9803C18.1232 57.0766 18.1232 57.1517 18.1232 57.2151C18.1271 57.2463 18.1248 57.2779 18.1165 57.3082C18.1081 57.3384 18.0938 57.3667 18.0745 57.3912C18.0003 57.4781 17.9377 57.4547 17.9401 57.4523Z" fill="#263238"/>
<path d="M19.1477 61.251C19.1617 61.4836 19.1072 61.7151 18.9909 61.9161C18.8747 62.1171 18.702 62.2785 18.495 62.3799C18.2879 62.4812 18.0557 62.5178 17.8281 62.485C17.6004 62.4523 17.3875 62.3517 17.2164 62.196C17.0454 62.0403 16.9239 61.8365 16.8675 61.6107C16.811 61.3848 16.8222 61.147 16.8996 60.9276C16.9769 60.7082 17.1169 60.5171 17.3018 60.3786C17.4867 60.24 17.7081 60.1604 17.9378 60.1497C18.2418 60.1355 18.5391 60.2431 18.7655 60.4492C18.9919 60.6552 19.1292 60.9433 19.1477 61.251Z" fill="#263238"/>
<path d="M18.1362 60.4562L11.8986 60.7951C11.8014 60.8004 11.7269 60.8845 11.7321 60.9829L11.7455 61.2361C11.7507 61.3346 11.8337 61.4101 11.9308 61.4048L18.1685 61.0659C18.2656 61.0606 18.3402 60.9765 18.335 60.8781L18.3215 60.6249C18.3163 60.5264 18.2334 60.4509 18.1362 60.4562Z" fill="#001F3F"/>
<path d="M18.1651 61.0718C18.2101 61.0599 18.2504 61.0345 18.281 60.999C18.2969 60.9765 18.3078 60.9508 18.313 60.9237C18.3182 60.8965 18.3176 60.8686 18.3111 60.8417C18.3111 60.776 18.3111 60.6891 18.2903 60.6069C18.285 60.5854 18.2754 60.5652 18.2621 60.5476C18.2488 60.53 18.232 60.5153 18.2129 60.5046C18.1938 60.4938 18.1727 60.4871 18.1509 60.4849C18.1291 60.4827 18.1071 60.485 18.0863 60.4918L17.734 60.5176L16.8764 60.5717L11.8976 60.8605C11.8777 60.8617 11.8584 60.8681 11.8417 60.8793C11.825 60.8904 11.8115 60.9058 11.8026 60.9239C11.7931 60.9419 11.7883 60.9621 11.7887 60.9826V61.0718V61.248C11.7919 61.2675 11.7996 61.2861 11.8113 61.302C11.823 61.3179 11.8383 61.3308 11.8559 61.3395C11.8757 61.3442 11.8964 61.3442 11.9162 61.3395H12.0043H12.1804L12.5258 61.3207L13.8493 61.2526L16.0883 61.1446L17.5972 61.0812H18.0075C18.0552 61.0745 18.1035 61.0745 18.1512 61.0812C18.1046 61.0909 18.0573 61.0972 18.0098 61.1L17.5996 61.1352L16.0929 61.2362L13.8539 61.3701L12.5327 61.4452L12.1874 61.464L12.0205 61.4687H11.9324C11.8927 61.4706 11.8531 61.4634 11.8165 61.4476C11.7798 61.4312 11.748 61.4056 11.724 61.3731C11.7 61.3406 11.6848 61.3023 11.6798 61.262V61.0765V60.9826C11.6788 60.9417 11.6884 60.9012 11.7076 60.8652C11.7259 60.8282 11.7536 60.7967 11.7878 60.7741C11.822 60.7514 11.8615 60.7383 11.9023 60.736L16.8833 60.4848L17.7433 60.4472L18.0956 60.4331C18.153 60.4235 18.212 60.4343 18.2625 60.4636C18.3071 60.4943 18.3379 60.5415 18.3482 60.5951C18.3482 60.6914 18.3482 60.7666 18.3598 60.83C18.3644 60.8608 18.3624 60.8922 18.354 60.9222C18.3456 60.9522 18.331 60.98 18.3111 61.0037C18.2254 61.0906 18.1628 61.0718 18.1651 61.0718Z" fill="#263238"/>
<path d="M18.1557 61.5812L11.9181 61.9201C11.8209 61.9254 11.7464 62.0095 11.7516 62.1079L11.765 62.3611C11.7702 62.4596 11.8532 62.5351 11.9504 62.5298L18.188 62.1909C18.2852 62.1856 18.3597 62.1015 18.3545 62.0031L18.3411 61.7498C18.3359 61.6514 18.2529 61.5759 18.1557 61.5812Z" fill="#001F3F"/>
<path d="M18.1893 62.179C18.2344 62.1685 18.2749 62.1439 18.3052 62.1085C18.3217 62.0863 18.333 62.0606 18.3382 62.0334C18.3434 62.0061 18.3424 61.978 18.3354 61.9512C18.3354 61.8831 18.3354 61.7985 18.3168 61.7164C18.3112 61.695 18.3014 61.6751 18.2881 61.6576C18.2747 61.6402 18.258 61.6257 18.2389 61.615C18.2199 61.6042 18.1989 61.5975 18.1773 61.5951C18.1556 61.5928 18.1337 61.5949 18.1128 61.6013L17.7582 61.6248L16.9006 61.6811L11.9219 61.97C11.9022 61.9711 11.8832 61.9774 11.8665 61.988C11.8499 61.9987 11.8363 62.0135 11.8268 62.031C11.8178 62.0493 11.8131 62.0694 11.8129 62.0897V62.1813V62.3574C11.8153 62.3773 11.8227 62.3962 11.8345 62.4123C11.8463 62.4283 11.862 62.441 11.8801 62.449C11.8993 62.4528 11.919 62.4528 11.9381 62.449H12.0262H12.2023L12.55 62.4302L13.8712 62.3621L16.1102 62.2541L17.6191 62.1907L18.0479 62.1672C18.0957 62.1621 18.1439 62.1621 18.1917 62.1672C18.1456 62.1804 18.0981 62.1875 18.0503 62.1884L17.64 62.2212L16.1334 62.3222L13.8944 62.4584L12.5732 62.5336L12.2278 62.5523H12.0517H11.9636C11.9248 62.5565 11.8855 62.55 11.85 62.5336C11.8129 62.5176 11.7806 62.492 11.7562 62.4595C11.7318 62.427 11.7162 62.3885 11.7109 62.348L11.6994 62.1602V62.0686C11.698 62.0269 11.7076 61.9855 11.7272 61.9488C11.746 61.9119 11.7742 61.8808 11.8088 61.8585C11.8434 61.8362 11.8832 61.8236 11.9242 61.822L16.889 61.5943L17.7489 61.5567L18.1013 61.5426C18.1587 61.5328 18.2177 61.5436 18.2681 61.5731C18.2907 61.5884 18.3099 61.6081 18.3246 61.6311C18.3394 61.6541 18.3493 61.6799 18.3539 61.707C18.3539 61.8032 18.3539 61.8784 18.3655 61.9418C18.3694 61.973 18.3671 62.0046 18.3588 62.0348C18.3504 62.0651 18.3361 62.0933 18.3168 62.1179C18.3024 62.1382 18.2831 62.1544 18.2608 62.1651C18.2385 62.1757 18.2139 62.1805 18.1893 62.179Z" fill="#263238"/>
<path d="M19.3977 65.9854C19.4117 66.2179 19.3572 66.4494 19.2409 66.6505C19.1247 66.8515 18.952 67.0129 18.745 67.1142C18.5379 67.2156 18.3057 67.2522 18.0781 67.2194C17.8504 67.1867 17.6375 67.086 17.4664 66.9303C17.2954 66.7746 17.1739 66.5709 17.1175 66.345C17.061 66.1192 17.0722 65.8814 17.1496 65.662C17.2269 65.4426 17.3669 65.2515 17.5518 65.1129C17.7367 64.9744 17.9581 64.8947 18.1878 64.884C18.4918 64.8699 18.7891 64.9775 19.0155 65.1836C19.2419 65.3896 19.3792 65.6776 19.3977 65.9854Z" fill="#263238"/>
<path d="M18.3823 65.1906L12.1447 65.5295C12.0475 65.5348 11.973 65.6189 11.9782 65.7173L11.9916 65.9705C11.9968 66.0689 12.0798 66.1445 12.1769 66.1392L18.4146 65.8002C18.5117 65.795 18.5863 65.7109 18.581 65.6125L18.5676 65.3592C18.5624 65.2608 18.4794 65.1853 18.3823 65.1906Z" fill="#001F3F"/>
<path d="M18.4189 65.806C18.4639 65.7941 18.5043 65.7687 18.5348 65.7332C18.5513 65.711 18.5626 65.6853 18.5678 65.6581C18.573 65.6308 18.572 65.6027 18.565 65.5759C18.565 65.5101 18.565 65.4232 18.5464 65.3411C18.5408 65.3197 18.5311 65.2997 18.5177 65.2823C18.5043 65.2649 18.4876 65.2504 18.4686 65.2397C18.4495 65.2289 18.4285 65.2222 18.4069 65.2198C18.3852 65.2175 18.3633 65.2196 18.3425 65.226L17.9878 65.2495L17.1302 65.3058L12.1515 65.5947C12.1315 65.5958 12.1122 65.6023 12.0956 65.6134C12.0789 65.6246 12.0654 65.64 12.0564 65.6581C12.0472 65.6754 12.0424 65.6948 12.0425 65.7144V65.806L12.0541 65.9821C12.0565 66.002 12.0639 66.0209 12.0757 66.037C12.0875 66.053 12.1032 66.0657 12.1213 66.0737C12.1404 66.0786 12.1603 66.0786 12.1793 66.0737H12.2674H12.4435L12.7912 66.0549L14.1124 65.9868L16.3514 65.8788L17.8603 65.8154H18.2706C18.3183 65.8087 18.3666 65.8087 18.4143 65.8154C18.3677 65.8253 18.3205 65.8316 18.2729 65.8342L17.8627 65.8671L16.3561 65.9704L14.1193 66.1042L12.7958 66.1794L12.4505 66.1982H12.2743H12.1862C12.1473 66.2003 12.1084 66.193 12.0727 66.177C12.0356 66.161 12.0032 66.1355 11.9788 66.103C11.9544 66.0704 11.9388 66.032 11.9336 65.9915V65.806V65.7121C11.9334 65.6712 11.9429 65.631 11.9614 65.5947C11.9799 65.5573 12.008 65.5257 12.0426 65.503C12.0772 65.4803 12.1172 65.4673 12.1584 65.4655L17.1233 65.226L17.9832 65.1884L18.3355 65.1743C18.3932 65.1664 18.4519 65.1779 18.5024 65.2072C18.525 65.2221 18.5444 65.2413 18.5596 65.2639C18.5747 65.2865 18.5852 65.3119 18.5905 65.3387C18.5905 65.435 18.5905 65.5101 18.5905 65.5735C18.5951 65.6043 18.5931 65.6358 18.5847 65.6658C18.5763 65.6957 18.5617 65.7235 18.5418 65.7473C18.4792 65.8248 18.4166 65.806 18.4189 65.806Z" fill="#263238"/>
<path d="M18.4057 66.3156L12.1681 66.6545C12.0709 66.6598 11.9964 66.7439 12.0016 66.8423L12.015 67.0955C12.0202 67.194 12.1032 67.2695 12.2004 67.2642L18.438 66.9252C18.5352 66.92 18.6097 66.8359 18.6045 66.7375L18.5911 66.4842C18.5859 66.3858 18.5029 66.3103 18.4057 66.3156Z" fill="#001F3F"/>
<path d="M18.4427 66.922C18.4865 66.9102 18.526 66.8858 18.5562 66.8515C18.5726 66.8292 18.5837 66.8035 18.5889 66.7763C18.5942 66.7491 18.5933 66.721 18.5864 66.6942C18.5864 66.6261 18.5864 66.5415 18.5678 66.4594C18.5622 66.438 18.5525 66.4181 18.5391 66.4006C18.5257 66.3832 18.509 66.3687 18.49 66.358C18.4709 66.3472 18.4499 66.3405 18.4283 66.3381C18.4066 66.3358 18.3847 66.3379 18.3639 66.3443L18.0115 66.3678L17.1516 66.4241L12.1752 66.713C12.1552 66.714 12.1358 66.7201 12.1187 66.7308C12.1017 66.7414 12.0876 66.7563 12.0778 66.774C12.0721 66.7932 12.0721 66.8136 12.0778 66.8327V66.9243V67.1004C12.0799 67.1201 12.0873 67.1389 12.0991 67.1546C12.111 67.1703 12.1269 67.1825 12.1451 67.1897C12.1641 67.1945 12.184 67.1945 12.203 67.1897H12.2911H12.4672L12.8149 67.1709L14.1361 67.1028L16.3751 66.9924L17.8841 66.9314L18.2966 66.9196C18.3444 66.9146 18.3926 66.9146 18.4404 66.9196C18.3935 66.9326 18.3452 66.9397 18.2966 66.9408L17.8864 66.9736L16.3798 67.0746L14.1431 67.2108L12.8196 67.286L12.4742 67.3047H12.298H12.21C12.1711 67.3089 12.1319 67.3024 12.0964 67.286C12.0593 67.27 12.0269 67.2444 12.0025 67.2119C11.9782 67.1794 11.9626 67.1409 11.9573 67.1004V66.9126V66.821C11.9557 66.7892 11.9606 66.7574 11.9715 66.7275C11.9825 66.6977 11.9993 66.6704 12.021 66.6473C12.0427 66.6242 12.0687 66.6059 12.0976 66.5934C12.1265 66.5808 12.1577 66.5744 12.1891 66.5744L17.1679 66.3208L18.0278 66.2832L18.3801 66.2692C18.4375 66.2593 18.4965 66.2701 18.547 66.2997C18.5695 66.3146 18.5889 66.3339 18.604 66.3565C18.6191 66.3791 18.6297 66.4045 18.6351 66.4312C18.6351 66.5298 18.6351 66.605 18.6351 66.666C18.6401 66.6972 18.6384 66.7291 18.63 66.7595C18.6216 66.79 18.6067 66.8182 18.5864 66.8421C18.5733 66.8687 18.5525 66.8906 18.5269 66.9048C18.5012 66.9191 18.4718 66.9251 18.4427 66.922Z" fill="#263238"/>
<path d="M19.6515 70.7174C19.666 70.95 19.6118 71.1817 19.4959 71.383C19.3799 71.5844 19.2075 71.7461 19.0005 71.8478C18.7934 71.9495 18.5613 71.9865 18.3335 71.954C18.1056 71.9215 17.8925 71.8211 17.7212 71.6655C17.5499 71.51 17.4282 71.3062 17.3716 71.0803C17.315 70.8544 17.326 70.6166 17.4032 70.397C17.4805 70.1775 17.6205 69.9862 17.8054 69.8476C17.9903 69.7089 18.2118 69.6291 18.4416 69.6184C18.7452 69.6043 19.0422 69.7115 19.2685 69.9171C19.4948 70.1227 19.6324 70.4101 19.6515 70.7174Z" fill="#263238"/>
<path d="M18.6323 69.9249L12.3947 70.2639C12.2975 70.2692 12.223 70.3532 12.2282 70.4517L12.2416 70.7049C12.2468 70.8033 12.3298 70.8788 12.4269 70.8736L18.6646 70.5346C18.7617 70.5293 18.8363 70.4453 18.831 70.3468L18.8176 70.0936C18.8124 69.9952 18.7294 69.9197 18.6323 69.9249Z" fill="#001F3F"/>
<path d="M18.6692 70.5425C18.713 70.5308 18.7525 70.5063 18.7827 70.4721C18.7992 70.4499 18.8105 70.4242 18.8157 70.3969C18.8209 70.3697 18.8199 70.3416 18.8129 70.3147C18.8129 70.2466 18.8129 70.1621 18.7943 70.0799C18.7887 70.0586 18.7789 70.0386 18.7656 70.0212C18.7522 70.0038 18.7355 69.9893 18.7164 69.9785C18.6974 69.9678 18.6764 69.961 18.6548 69.9587C18.6331 69.9563 18.6112 69.9584 18.5903 69.9649L18.238 69.9883L17.3781 70.0447L12.4017 70.3335C12.3813 70.3343 12.3616 70.3406 12.3444 70.3517C12.3273 70.3629 12.3135 70.3785 12.3043 70.3969C12.2986 70.4153 12.2986 70.4349 12.3043 70.4533V70.5449V70.721C12.3067 70.7409 12.3142 70.7598 12.3259 70.7758C12.3377 70.7919 12.3535 70.8046 12.3715 70.8126C12.3906 70.8174 12.4105 70.8174 12.4295 70.8126H12.5176H12.6937L13.0414 70.7938L14.3626 70.7257L16.6016 70.6177L18.1106 70.5543H18.5231C18.571 70.5508 18.619 70.5508 18.6668 70.5543C18.62 70.5673 18.5717 70.5743 18.5231 70.5754L18.1152 70.6083L16.6063 70.7116L14.3695 70.8455L13.046 70.9206L12.7007 70.9394H12.5245H12.4364C12.3975 70.9415 12.3586 70.9343 12.3229 70.9182C12.2858 70.9023 12.2534 70.8767 12.229 70.8442C12.2046 70.8117 12.1891 70.7732 12.1838 70.7327V70.5472V70.4533C12.1821 70.4126 12.1909 70.3721 12.2093 70.3359C12.2278 70.2985 12.2558 70.2669 12.2905 70.2442C12.3251 70.2215 12.3651 70.2085 12.4063 70.2067L17.3851 69.9531L18.245 69.9155L18.5973 69.9015C18.655 69.8924 18.714 69.904 18.7642 69.9343C18.7872 69.9487 18.8069 69.9679 18.8221 69.9906C18.8372 70.0132 18.8475 70.0389 18.8523 70.0658C18.8523 70.1621 18.8523 70.2373 18.8523 70.3007C18.8575 70.3318 18.8559 70.3638 18.8475 70.3943C18.839 70.4247 18.8241 70.4529 18.8036 70.4768C18.7294 70.5637 18.6645 70.5449 18.6692 70.5425Z" fill="#263238"/>
<path d="M18.6596 71.0421L12.422 71.3811C12.3248 71.3863 12.2503 71.4704 12.2555 71.5688L12.2689 71.8221C12.2741 71.9205 12.3571 71.996 12.4543 71.9907L18.6919 71.6518C18.7891 71.6465 18.8636 71.5625 18.8584 71.464L18.845 71.2108C18.8398 71.1124 18.7568 71.0369 18.6596 71.0421Z" fill="#001F3F"/>
<path d="M18.6918 71.6563C18.7365 71.645 18.7769 71.6204 18.8077 71.5858C18.823 71.563 18.8335 71.5373 18.8387 71.5103C18.8438 71.4832 18.8436 71.4554 18.8379 71.4285C18.8379 71.3604 18.8379 71.2758 18.817 71.1936C18.8112 71.1725 18.8012 71.1528 18.7877 71.1356C18.7742 71.1185 18.7575 71.1042 18.7385 71.0937C18.7195 71.0832 18.6986 71.0767 18.677 71.0745C18.6555 71.0723 18.6337 71.0745 18.613 71.0809L18.2607 71.1044L17.4008 71.1608L12.4244 71.4496C12.4044 71.4506 12.3849 71.4567 12.3679 71.4674C12.3509 71.4781 12.3368 71.493 12.327 71.5107C12.3224 71.5299 12.3224 71.5501 12.327 71.5694V71.6586V71.8371C12.3295 71.8566 12.3371 71.8751 12.3489 71.8908C12.3607 71.9064 12.3763 71.9187 12.3942 71.9263C12.4131 71.9323 12.4333 71.9323 12.4522 71.9263H12.5426H12.7164L13.0641 71.9099L14.3853 71.8418L16.6243 71.7314L18.1355 71.6703H18.5458C18.5936 71.6653 18.6417 71.6653 18.6895 71.6703C18.6426 71.6833 18.5944 71.6904 18.5458 71.6915L18.1379 71.7244L16.6289 71.8253L14.3922 71.9615L13.071 72.0367L12.7164 72.039H12.5403H12.4522C12.4134 72.042 12.3745 72.0355 12.3386 72.0202C12.3015 72.0042 12.2691 71.9787 12.2448 71.9462C12.2204 71.9136 12.2048 71.8752 12.1995 71.8347V71.6469V71.5553C12.1974 71.5138 12.2062 71.4724 12.225 71.4355C12.2439 71.3986 12.272 71.3674 12.3066 71.3452C12.3412 71.3229 12.3811 71.3103 12.422 71.3087L17.4008 71.0551L18.2607 71.0175L18.6153 71.0034C18.672 70.9938 18.7303 71.0046 18.7799 71.034C18.8024 71.0489 18.8218 71.0682 18.8369 71.0908C18.852 71.1134 18.8626 71.1387 18.868 71.1655C18.868 71.2641 18.868 71.3392 18.868 71.4003C18.8722 71.4313 18.8703 71.4629 18.8624 71.4931C18.8544 71.5233 18.8406 71.5517 18.8216 71.5764C18.8091 71.6003 18.7904 71.6204 18.7676 71.6344C18.7447 71.6485 18.7186 71.656 18.6918 71.6563Z" fill="#263238"/>
<path d="M19.8665 74.8526C19.8805 75.0851 19.8259 75.3166 19.7097 75.5176C19.5934 75.7187 19.4208 75.8801 19.2137 75.9814C19.0066 76.0827 18.7745 76.1194 18.5468 76.0866C18.3191 76.0539 18.1062 75.9532 17.9352 75.7975C17.7641 75.6418 17.6426 75.4381 17.5862 75.2122C17.5298 74.9864 17.541 74.7486 17.6183 74.5292C17.6957 74.3098 17.8357 74.1187 18.0206 73.9801C18.2055 73.8416 18.4268 73.7619 18.6566 73.7512C18.9606 73.7371 19.2579 73.8447 19.4843 74.0507C19.7106 74.2568 19.8479 74.5448 19.8665 74.8526Z" fill="#263238"/>
<path d="M18.855 74.0734L12.6173 74.4123C12.5202 74.4176 12.4456 74.5017 12.4508 74.6001L12.4642 74.8533C12.4695 74.9518 12.5524 75.0273 12.6496 75.022L18.8872 74.6831C18.9844 74.6778 19.0589 74.5937 19.0537 74.4953L19.0403 74.242C19.0351 74.1436 18.9521 74.0681 18.855 74.0734Z" fill="#001F3F"/>
<path d="M18.8892 74.6801C18.9342 74.6681 18.9746 74.6428 19.0051 74.6073C19.021 74.5848 19.0319 74.5591 19.0371 74.5319C19.0423 74.5048 19.0417 74.4768 19.0352 74.4499C19.0352 74.3842 19.0352 74.2973 19.0144 74.2151C19.0091 74.1936 18.9995 74.1734 18.9862 74.1558C18.9729 74.1382 18.9561 74.1236 18.937 74.1128C18.9179 74.102 18.8968 74.0953 18.875 74.0931C18.8532 74.0909 18.8313 74.0933 18.8104 74.1001L18.4581 74.1235L17.6005 74.1799L12.6218 74.4687C12.6017 74.4697 12.5824 74.476 12.5656 74.4872C12.5489 74.4984 12.5355 74.5139 12.5267 74.5321C12.5175 74.5494 12.5127 74.5688 12.5128 74.5885V74.6801V74.8562C12.5156 74.8759 12.5232 74.8946 12.535 74.9106C12.5467 74.9266 12.5622 74.9394 12.58 74.9478C12.5998 74.9527 12.6205 74.9527 12.6403 74.9478H12.7284H12.9045L13.2499 74.929L14.5734 74.8609L16.8124 74.7529L18.3213 74.6895H18.7316C18.7793 74.6828 18.8276 74.6828 18.8753 74.6895C18.8287 74.6991 18.7814 74.7054 18.7339 74.7083L18.3237 74.7411L16.8171 74.8445L14.578 74.9783L13.2568 75.0534L12.9092 75.0722L12.7353 75.084H12.6472C12.6075 75.0859 12.5679 75.0787 12.5314 75.0628C12.4947 75.0465 12.4628 75.0209 12.4388 74.9883C12.4149 74.9558 12.3996 74.9176 12.3946 74.8773V74.6918V74.5979C12.3936 74.557 12.4032 74.5165 12.4224 74.4805C12.4407 74.4435 12.4684 74.412 12.5026 74.3893C12.5368 74.3667 12.5763 74.3535 12.6171 74.3513L17.5866 74.093L18.4465 74.0554L18.7988 74.0413C18.8565 74.0337 18.9151 74.0453 18.9657 74.0742C18.9881 74.0891 19.0072 74.1084 19.0219 74.131C19.0367 74.1536 19.0467 74.1791 19.0515 74.2057C19.0515 74.302 19.0515 74.3772 19.0515 74.4406C19.057 74.4712 19.0557 74.5027 19.0477 74.5328C19.0397 74.5628 19.0251 74.5907 19.0051 74.6143C18.9495 74.6989 18.8869 74.6801 18.8892 74.6801Z" fill="#263238"/>
<path d="M18.8784 75.1828L12.6407 75.5217C12.5436 75.527 12.4691 75.611 12.4743 75.7095L12.4877 75.9627C12.4929 76.0611 12.5759 76.1366 12.673 76.1314L18.9107 75.7924C19.0078 75.7872 19.0823 75.7031 19.0771 75.6047L19.0637 75.3514C19.0585 75.253 18.9755 75.1775 18.8784 75.1828Z" fill="#001F3F"/>
<path d="M18.9126 75.7968C18.9576 75.7864 18.9982 75.7617 19.0285 75.7264C19.0448 75.7041 19.056 75.6784 19.0612 75.6512C19.0664 75.6239 19.0655 75.5959 19.0586 75.569C19.0586 75.5009 19.0586 75.4164 19.0401 75.3342C19.0342 75.3128 19.0242 75.2928 19.0106 75.2753C18.997 75.2579 18.9801 75.2434 18.9608 75.2327C18.9416 75.2219 18.9205 75.2152 18.8987 75.2129C18.8768 75.2106 18.8548 75.2127 18.8338 75.2191L18.4815 75.2426L17.6239 75.299L12.6451 75.5878C12.6255 75.589 12.6064 75.5952 12.5898 75.6059C12.5732 75.6166 12.5595 75.6314 12.5501 75.6489C12.5409 75.667 12.5361 75.6872 12.5362 75.7076V75.7992V75.9753C12.5392 75.995 12.5471 76.0136 12.5593 76.0292C12.5715 76.0449 12.5875 76.057 12.6057 76.0645C12.6237 76.0733 12.6437 76.0774 12.6637 76.0763H12.7517H12.9279L13.2733 76.0575L14.5968 75.9894L16.8358 75.879L18.3447 75.8179H18.755C18.8027 75.8128 18.8509 75.8128 18.8987 75.8179C18.8526 75.8308 18.8051 75.8379 18.7573 75.8391L18.347 75.872L16.8404 75.9729L14.6014 76.1091L13.2802 76.1843L12.9349 76.2031H12.7587H12.6706C12.6318 76.2072 12.5926 76.2007 12.557 76.1843C12.5199 76.1683 12.4876 76.1428 12.4632 76.1102C12.4388 76.0777 12.4232 76.0393 12.418 75.9988L12.4064 75.8109V75.7193C12.405 75.6776 12.4146 75.6363 12.4342 75.5996C12.4528 75.563 12.4806 75.532 12.5148 75.5098C12.549 75.4875 12.5883 75.4747 12.6289 75.4728L17.61 75.2191L18.4699 75.1816L18.8222 75.1675C18.8796 75.1579 18.9386 75.1687 18.9891 75.198C19.0114 75.213 19.0304 75.2323 19.0451 75.2549C19.0599 75.2775 19.07 75.3029 19.0748 75.3295C19.0748 75.4281 19.0748 75.5033 19.0748 75.5643C19.0788 75.5955 19.0765 75.6271 19.0681 75.6574C19.0598 75.6876 19.0455 75.7159 19.0262 75.7405C19.0126 75.7579 18.9954 75.772 18.9757 75.7817C18.9561 75.7915 18.9345 75.7966 18.9126 75.7968Z" fill="#263238"/>
<path d="M67.618 8.42251C67.618 8.45538 55.2708 9.15517 40.0356 9.98175C24.8003 10.8083 12.4531 11.4541 12.4531 11.4212C12.4531 11.3884 24.8003 10.6886 40.0356 9.85965C55.2708 9.03071 67.6157 8.39903 67.618 8.42251Z" fill="#001F3F"/>
<path d="M67.8563 12.8373C67.8563 12.8702 55.5091 13.5676 40.2738 14.3966C25.0386 15.2255 12.6914 15.8689 12.6914 15.836C12.6914 15.8032 25.0363 15.1034 40.2738 14.2745C55.5114 13.4455 67.854 12.8021 67.8563 12.8373Z" fill="#001F3F"/>
<path d="M68.0868 17.2512C68.0868 17.2864 55.7396 17.9839 40.5043 18.8128C25.2691 19.6417 12.9219 20.2852 12.9219 20.2523C12.9219 20.2194 25.2668 19.5196 40.5043 18.6907C55.7419 17.8618 68.0844 17.2183 68.0868 17.2512Z" fill="#001F3F"/>
<path d="M68.3211 21.6575C68.3211 21.6927 55.9716 22.3901 40.7387 23.219C25.5058 24.048 13.1562 24.6914 13.1562 24.6585C13.1562 24.6257 25.5011 23.9259 40.7387 23.0969C55.9762 22.268 68.3188 21.6246 68.3211 21.6575Z" fill="#001F3F"/>
<path d="M68.5555 26.0793C68.5555 26.1146 56.206 26.812 40.9731 27.6409C25.7401 28.4699 13.3906 29.1133 13.3906 29.0781C13.3906 29.0428 25.7355 28.3478 40.9731 27.5188C56.2106 26.6899 68.5532 26.0465 68.5555 26.0793Z" fill="#001F3F"/>
<path d="M68.786 30.4927C68.786 30.5279 56.4388 31.2254 41.2035 32.0543C25.9683 32.8832 13.6211 33.5267 13.6211 33.4914C13.6211 33.4562 25.966 32.7611 41.2035 31.9322C56.4411 31.1033 68.786 30.4716 68.786 30.4927Z" fill="#001F3F"/>
<path d="M69.0243 34.9075C69.0243 34.9403 56.6771 35.6401 41.4418 36.469C26.2066 37.298 13.8594 37.9414 13.8594 37.9062C13.8594 37.871 26.2043 37.1735 41.4418 36.3469C56.6794 35.5203 69.0243 34.8746 69.0243 34.9075Z" fill="#001F3F"/>
<path d="M69.2547 39.3293C69.2547 39.3622 56.9075 40.062 41.6723 40.8909C26.437 41.7199 14.0898 42.3633 14.0898 42.3281C14.0898 42.2928 26.4347 41.5954 41.6723 40.7688C56.9098 39.9422 69.2524 39.2965 69.2547 39.3293Z" fill="#001F3F"/>
<path d="M69.4891 43.7356C69.4891 43.7685 57.1419 44.4682 41.9067 45.2972C26.6714 46.1261 14.3242 46.7695 14.3242 46.7343C14.3242 46.6991 26.6691 46.0016 41.9067 45.1751C57.1442 44.3485 69.4868 43.7027 69.4891 43.7356Z" fill="#001F3F"/>
<path d="M69.7235 48.1498C69.7235 48.1827 57.3763 48.8825 42.141 49.7091C26.9058 50.5356 14.5586 51.1814 14.5586 51.1485C14.5586 51.1157 26.9035 50.4159 42.141 49.587C57.3786 48.758 69.7212 48.1146 69.7235 48.1498Z" fill="#001F3F"/>
<path d="M69.9696 52.5639C69.9696 52.5968 57.6224 53.2965 42.3871 54.1231C27.1519 54.9497 14.8047 55.5955 14.8047 55.5626C14.8047 55.5297 27.1496 54.83 42.3871 54.001C57.6247 53.1721 69.9557 52.5287 69.9696 52.5639Z" fill="#001F3F"/>
<path d="M70.2 56.9858C70.2 57.0186 57.8528 57.7184 42.6176 58.545C27.3824 59.3716 15.0352 60.0174 15.0352 59.9845C15.0352 59.9516 27.38 59.2518 42.6176 58.4229C57.8552 57.594 70.2 56.9505 70.2 56.9858Z" fill="#001F3F"/>
<path d="M70.4305 61.3998C70.4305 61.4327 58.081 62.1325 42.8481 62.9591C27.6151 63.7856 15.2656 64.4314 15.2656 64.3985C15.2656 64.3657 27.6105 63.6659 42.8481 62.837C58.0856 62.008 70.4305 61.3646 70.4305 61.3998Z" fill="#001F3F"/>
<path d="M70.6649 65.8061C70.6649 65.8389 58.3177 66.5364 43.0824 67.3653C27.8472 68.1943 15.5 68.8377 15.5 68.8048C15.5 68.7719 27.8449 68.0721 43.0824 67.2432C58.32 66.4143 70.6649 65.7708 70.6649 65.8061Z" fill="#001F3F"/>
<path d="M70.8953 70.22C70.8953 70.2552 58.5481 70.9526 43.3129 71.7815C28.0777 72.6105 15.7305 73.2539 15.7305 73.221C15.7305 73.1882 28.0753 72.4884 43.3129 71.6594C58.5505 70.8305 70.8953 70.1871 70.8953 70.22Z" fill="#001F3F"/>
<path d="M24.033 78.8247C23.9982 78.8247 23.0827 62.0182 21.984 41.2854C20.8854 20.5526 20.0231 3.73672 20.0556 3.73438C20.088 3.73203 21.0059 20.5385 22.1046 41.2784C23.2032 62.0182 24.077 78.8247 24.033 78.8247Z" fill="#FED7AF"/>
<path d="M73.6701 78.4521L68.4892 75.5325L84.9731 19.5404C85.2318 18.6618 85.7529 17.9729 86.4218 17.6255C87.0906 17.278 87.8525 17.3004 88.5398 17.6877C89.2271 18.075 89.7834 18.7955 90.0865 19.6907C90.3895 20.5859 90.4145 21.5824 90.1558 22.4611L73.6719 78.4531L73.6701 78.4521Z" fill="#FED7AF"/>
<path d="M82.743 46.8109L83.2427 47.0416C83.4145 47.1209 83.6019 47.1151 83.7635 47.0253C83.925 46.9355 84.0476 46.7692 84.1043 46.5629L90.6797 22.6105C90.7294 22.4296 90.7488 22.2368 90.7371 22.043C90.7253 21.8493 90.6824 21.6584 90.6109 21.4813C90.5395 21.3041 90.4408 21.1443 90.3206 21.0107C90.2003 20.8772 90.0609 20.7727 89.9102 20.7031L82.743 46.8109Z" fill="#F68C1F"/>
<path d="M78.3516 43.75L81.1897 52.9612L80.0424 55.6223L77.1398 46.5607L78.3516 43.75Z" fill="#FED7AF"/>
<path d="M76.8867 48.7656L79.8159 57.8055L79.2596 59.0547L76.2658 50.1599L76.8867 48.7656Z" fill="#FED7AF"/>
<path d="M84.7891 40.1797L78.86 37.0479L84.0992 19.121C84.3755 18.1756 84.9494 17.4321 85.6949 17.0538C86.4404 16.6754 87.2965 16.6932 88.0751 17.1031L88.1286 17.1314C88.9075 17.5428 89.5447 18.3132 89.8999 19.2731C90.2552 20.233 90.2995 21.3038 90.023 22.2499L84.7837 40.1769L84.7891 40.1797Z" fill="#F68C1F"/>
<path d="M82.8441 46.6024C82.8113 46.5928 84.2762 40.9586 86.1121 34.0205C87.9479 27.0825 89.4616 21.4602 89.4944 21.4699C89.5272 21.4795 88.0629 27.1114 86.2258 34.054C84.3888 40.9966 82.8747 46.6114 82.8441 46.6024Z" fill="#263238"/>
<path d="M71.2341 79.9088L68.622 78.8791C68.2163 78.7192 67.8992 78.4146 67.7403 78.0324C67.5815 77.6502 67.594 77.2217 67.7751 76.8411L68.3051 75.7272L73.9863 77.9668L73.4562 79.0806C73.3662 79.2698 73.2372 79.4415 73.0766 79.5856C72.916 79.7297 72.727 79.8436 72.5205 79.9205C72.314 79.9975 72.094 80.0361 71.8732 80.0341C71.6525 80.0321 71.4353 79.9895 71.2341 79.9088Z" fill="#F68C1F"/>
</g>
<defs>
<clipPath id="clip0_5422_88794">
<rect width="100" height="100" fill="white"/>
</clipPath>
</defs>
</svg>
