<svg width="180" height="107" viewBox="0 0 180 107" fill="none" xmlns="http://www.w3.org/2000/svg">
<path d="M36.4531 55.6875C31.6416 57.3295 28.04 61.5052 25.9373 66.1237C23.8347 70.7423 23.0301 75.8258 22.2469 80.8378C19.3131 80.5963 16.2957 81.6478 14.1509 83.659C12.0061 85.6705 10.7683 88.6098 10.8293 91.5456C5.71307 91.6419 0.942933 95.6673 0 100.684H43.6643L36.4531 55.6875Z" fill="#F8F8F8"/>
<path d="M7.27149 79.6736C7.94675 79.6736 8.49416 79.1276 8.49416 78.454C8.49416 77.7804 7.94675 77.2344 7.27149 77.2344C6.59623 77.2344 6.04883 77.7804 6.04883 78.454C6.04883 79.1276 6.59623 79.6736 7.27149 79.6736Z" fill="#F8F8F8"/>
<path d="M143.309 55.6875C148.12 57.3295 151.722 61.5052 153.825 66.1237C155.927 70.7423 156.732 75.8258 157.515 80.8378C160.449 80.5963 163.466 81.6478 165.611 83.659C167.756 85.6705 168.994 88.6098 168.933 91.5456C174.049 91.6419 178.819 95.6673 179.762 100.684H136.098L143.309 55.6875Z" fill="#F8F8F8"/>
<path d="M171.268 78.454C171.268 79.1278 171.815 79.6736 172.49 79.6736C173.165 79.6736 173.713 79.1275 173.713 78.454C173.713 77.7805 173.166 77.2344 172.49 77.2344C171.815 77.2344 171.268 77.7802 171.268 78.454Z" fill="#F8F8F8"/>
<path d="M87.8874 106.48C132.315 106.48 168.331 105.27 168.331 103.777C168.331 102.284 132.315 101.074 87.8874 101.074C43.4594 101.074 7.44336 102.284 7.44336 103.777C7.44336 105.27 43.4594 106.48 87.8874 106.48Z" fill="#D1B8AC"/>
<path d="M38.4898 67.7714L36.0946 65.9031C36.1687 65.2508 36.1687 64.5925 36.0946 63.9405L38.4919 62.0711C38.9412 61.7101 39.0612 61.0773 38.7754 60.5775L36.2834 56.2808C35.9964 55.7778 35.385 55.5583 34.8426 55.7631L32.0194 56.896C31.489 56.5122 30.9207 56.1829 30.3234 55.9137L29.89 52.9223C29.8119 52.348 29.318 51.921 28.737 51.9258H23.7423C23.166 51.9224 22.6762 52.3445 22.5956 52.9135L22.1612 55.9137C21.5658 56.1855 20.9986 56.5149 20.4674 56.8971L17.6367 55.7621C17.0996 55.5509 16.489 55.7679 16.2066 56.2701L13.7124 60.5743C13.4188 61.0749 13.5396 61.7146 13.9959 62.0743L16.3911 63.9426C16.3162 64.5946 16.3162 65.2532 16.3911 65.9052L13.9935 67.7736C13.5434 68.134 13.4228 68.7673 13.709 69.2672L16.1999 73.5649C16.4866 74.0682 17.098 74.2879 17.6407 74.0826L20.4639 72.9497C20.9948 73.3338 21.5634 73.6633 22.161 73.9331L22.5954 76.9224C22.6719 77.4951 23.1628 77.9223 23.742 77.9199H28.7367C29.314 77.9244 29.8055 77.5023 29.8866 76.9322L30.321 73.932C30.9164 73.6602 31.4836 73.3306 32.0148 72.9486L34.8487 74.0847C35.3858 74.2954 35.9962 74.0786 36.2788 73.5766L38.7804 69.2552C39.061 68.7562 38.9378 68.1284 38.4898 67.7714ZM26.2399 70.3383C23.2415 70.3383 20.8108 67.9137 20.8108 64.9228C20.8108 61.9319 23.2415 59.5074 26.2399 59.5074C29.2383 59.5074 31.669 61.9319 31.669 64.9228C31.6652 67.9124 29.2367 70.3349 26.2399 70.3383Z" fill="#3E78B2"/>
<path d="M152.242 25.9706L149.152 23.5601C149.247 22.7187 149.247 21.8694 149.152 21.028L152.245 18.6162C152.824 18.1504 152.979 17.3341 152.61 16.6893L149.395 11.1461C149.025 10.4973 148.236 10.2138 147.536 10.4782L143.894 11.9399C143.21 11.4446 142.477 11.02 141.706 10.6724L141.147 6.81297C141.046 6.07216 140.409 5.52128 139.659 5.52739H133.216C132.472 5.52287 131.84 6.06764 131.736 6.8018L131.176 10.6724C130.408 11.0232 129.676 11.448 128.991 11.9412L125.339 10.4766C124.646 10.2042 123.858 10.484 123.494 11.132L120.276 16.685C119.897 17.3309 120.053 18.1563 120.642 18.6204L123.732 21.0309C123.635 21.872 123.635 22.7216 123.732 23.563L120.639 25.9735C120.059 26.4385 119.903 27.2553 120.272 27.9004L123.486 33.4452C123.856 34.0945 124.645 34.378 125.345 34.1131L128.987 32.6514C129.672 33.147 130.405 33.572 131.176 33.9202L131.737 37.777C131.835 38.5159 132.469 39.0668 133.216 39.0639H139.66C140.404 39.0697 141.039 38.525 141.143 37.7895L141.703 33.9189C142.471 33.568 143.203 33.143 143.889 32.6501L147.545 34.116C148.238 34.3879 149.025 34.108 149.39 33.4606L152.617 27.8852C152.979 27.2412 152.82 26.431 152.242 25.9706ZM136.437 29.2823C132.569 29.2823 129.433 26.1544 129.433 22.2955C129.433 18.4366 132.569 15.3087 136.437 15.3087C140.306 15.3087 143.442 18.4366 143.442 22.2955C143.437 26.1522 140.304 29.2777 136.437 29.2823Z" fill="#3E78B2"/>
<path d="M28.7824 17.5263C31.1935 15.1212 31.1936 11.2219 28.7825 8.81687C26.3715 6.41188 22.4624 6.41196 20.0513 8.81706C17.6402 11.2222 17.6401 15.1215 20.0511 17.5265C22.4621 19.9315 26.3712 19.9314 28.7824 17.5263Z" fill="#87CEEB"/>
<path d="M23.5547 9.84766L24.2766 14.3609L27.9368 13.7783" stroke="white" stroke-miterlimit="10"/>
<path d="M106.294 7.52734H95.2305V21.0518H106.294V7.52734Z" fill="#3E78B2"/>
<path d="M93.9844 8.9946V9.97295H95.2297V7.52734C94.5228 7.64359 93.9844 8.25645 93.9844 8.9946Z" fill="#3E78B2"/>
<path d="M98.2322 11.4414H96.4805V13.1888H98.2322V11.4414Z" fill="#3E78B2"/>
<path d="M105.042 11.4414H99.0996V11.8768H105.042V11.4414Z" fill="#3E78B2"/>
<path d="M105.042 12.7539H99.0996V13.1896H105.042V12.7539Z" fill="#3E78B2"/>
<path d="M98.2322 15.3945H96.4805V17.1419H98.2322V15.3945Z" fill="#3E78B2"/>
<path d="M105.042 15.3945H99.0996V15.83H105.042V15.3945Z" fill="#3E78B2"/>
<path d="M105.042 16.707H99.0996V17.1425H105.042V16.707Z" fill="#3E78B2"/>
<path d="M97.5056 12.6745L96.7773 12.0464L97.0707 11.7081L97.4451 12.0308L98.2061 11.0742L98.5573 11.3522L97.5056 12.6745Z" fill="#3E78B2"/>
<path d="M97.5056 16.526L96.7773 15.898L97.0707 15.5597L97.4451 15.8823L98.2061 14.9258L98.5573 15.2038L97.5056 16.526Z" fill="#3E78B2"/>
<path d="M104.518 6.42578H93.4551V19.9503H104.518V6.42578Z" fill="#F6DED4"/>
<path d="M92.209 7.89304V8.87139H93.4543V6.42578C92.7471 6.54202 92.209 7.15489 92.209 7.89304Z" fill="#C2ADB9"/>
<path d="M96.4568 10.3398H94.7051V12.0872H96.4568V10.3398Z" fill="#3E78B2"/>
<path d="M103.267 10.3398H97.3242V10.7753H103.267V10.3398Z" fill="#C2ADB9"/>
<path d="M103.267 11.6523H97.3242V12.0881H103.267V11.6523Z" fill="#C2ADB9"/>
<path d="M96.4568 14.293H94.7051V16.0403H96.4568V14.293Z" fill="#3E78B2"/>
<path d="M103.267 14.293H97.3242V14.7284H103.267V14.293Z" fill="#C2ADB9"/>
<path d="M103.267 15.6055H97.3242V16.0409H103.267V15.6055Z" fill="#C2ADB9"/>
<path d="M95.7302 11.5729L95.002 10.9449L95.2953 10.6065L95.6694 10.9292L96.4305 9.97266L96.7817 10.2509L95.7302 11.5729Z" fill="#FFF5F2"/>
<path d="M95.7302 15.4247L95.002 14.7967L95.2953 14.4581L95.6694 14.781L96.4305 13.8242L96.7817 14.1025L95.7302 15.4247Z" fill="#FFF5F2"/>
<path d="M141.134 97.5579H37.9109C36.4824 97.5579 35.3242 96.4027 35.3242 94.9777V27.2325C35.3242 25.8076 36.4824 24.6523 37.9109 24.6523H141.134C142.562 24.6523 143.72 25.8076 143.72 27.2325V94.9777C143.72 96.4027 142.562 97.5579 141.134 97.5579Z" fill="#87CEEB"/>
<path d="M140.297 94.1419V28.0664L38.7483 28.0664L38.7483 94.1419L140.297 94.1419Z" fill="#F7F6F5"/>
<path d="M126.296 89.7415H62.5992C60.8941 89.7415 59.5117 88.3625 59.5117 86.6617V41.3805C59.5117 39.6797 60.8941 38.3008 62.5992 38.3008H126.296C128.001 38.3008 129.383 39.6797 129.383 41.3805V86.6617C129.383 88.3628 128.001 89.7415 126.296 89.7415Z" fill="#E5E1DC"/>
<path d="M151.328 103.74H27.7168V101.05C27.7168 98.5242 29.7696 96.4766 32.3016 96.4766H146.05C148.965 96.4766 151.328 98.8336 151.328 101.741V103.74Z" fill="#8A9FA0"/>
<path d="M123.186 34.9844H46.2754V85.6611H123.186V34.9844Z" fill="#87CEEB"/>
<path d="M122.495 36.8837H47.0047C46.3183 36.8837 45.7617 36.3286 45.7617 35.6439V34.9036C45.7617 34.2189 46.3183 33.6641 47.0047 33.6641H122.495C123.181 33.6641 123.737 34.2192 123.737 34.9036V35.6439C123.737 36.3286 123.181 36.8837 122.495 36.8837Z" fill="#4A71FF"/>
<path d="M94.0658 68.464C95.3224 61.0356 90.3041 53.9975 82.8571 52.744C75.41 51.4905 68.3543 56.4962 67.0976 63.9246C65.841 71.3531 70.8593 78.3912 78.3063 79.6447C85.7534 80.8982 92.8091 75.8924 94.0658 68.464Z" fill="#86B2B2"/>
<path d="M107.732 72.1614C109.629 67.0215 100.143 58.8063 86.5448 53.8122C72.9465 48.8181 60.385 48.9363 58.4878 54.0762C56.5907 59.2161 66.0763 67.4313 79.6746 72.4254C93.2729 77.4195 105.834 77.3013 107.732 72.1614Z" stroke="white" stroke-miterlimit="10" stroke-dasharray="4 4"/>
<path d="M92.2018 81.948H92.224L92.2842 81.9568L96.097 81.9733C96.3242 81.9743 96.5077 81.7852 96.509 81.5532L96.5253 77.5159C96.6368 77.3632 96.8402 77.2893 97.0232 77.385C97.3624 77.5619 97.7456 77.6633 98.152 77.6633C100.072 77.6657 101.49 75.4462 100.106 73.3655C100.036 73.261 99.9442 73.166 99.8421 73.0936C98.8434 72.3842 97.8213 72.3776 97.0336 72.7856C96.856 72.8771 96.6605 72.8175 96.5464 72.6792L96.5624 68.6671C96.564 68.4416 96.3901 68.257 96.1722 68.2471L96.04 68.2219L92.4122 68.2197C92.1504 68.1734 91.9834 67.8798 92.1133 67.6279C92.2928 67.2738 92.3965 66.8714 92.3984 66.4447C92.4048 65.0006 91.2517 63.8307 89.8392 63.8603C88.425 63.8228 87.2672 64.9873 87.2658 66.4317C87.2666 66.8594 87.3664 67.2619 87.5474 67.617C87.6746 67.8689 87.5061 68.1625 87.2437 68.2078L83.6146 68.1913L83.4837 68.2155C83.328 68.2221 83.197 68.32 83.1325 68.4575C83.1546 68.52 83.1685 68.5884 83.1685 68.6589L83.1616 72.8013L82.9341 72.7564C82.8309 72.8013 82.713 72.809 82.6002 72.7497L82.5298 72.7189C82.4074 72.7199 82.2816 72.7287 82.1517 72.7476L82.1186 72.7521L82.0856 72.7465C81.9421 72.7202 81.8144 72.697 81.6912 72.697C80.5274 72.6992 79.5642 73.5953 79.4184 74.7601C79.4053 74.8602 79.3965 74.9615 79.3965 75.066C79.3965 75.4839 79.5088 75.9305 79.7506 76.3825C79.8026 76.4804 79.8546 76.5793 79.92 76.6783C79.9762 76.7618 80.0498 76.8379 80.1317 76.8948C80.6661 77.2722 81.1906 77.4241 81.6789 77.4249C81.8096 77.4239 81.9376 77.413 82.0632 77.393L82.0962 77.3864L82.1293 77.3919C82.2354 77.4095 82.3178 77.426 82.3946 77.4348C82.4589 77.4084 82.524 77.3818 82.5864 77.3489C82.7186 77.2808 82.861 77.3028 82.9712 77.3765L83.1528 77.3401L83.1461 81.5455C83.1461 81.5993 83.1368 81.6522 83.1242 81.7027C83.1909 81.8424 83.3272 81.9413 83.4893 81.9413L87.3032 81.9437L87.3616 81.9358H87.3845C87.7093 81.9368 87.8898 81.5697 87.7146 81.287C87.2114 80.4712 87.1466 79.3449 87.8541 78.2463C88.0077 78.0604 88.1858 77.8989 88.3842 77.7635C88.865 77.4765 89.3485 77.3467 89.8048 77.3414C90.2602 77.3489 90.7424 77.4821 91.2218 77.7702C91.4189 77.9064 91.5973 78.0692 91.7501 78.2562C92.4522 79.3579 92.3797 80.4842 91.8722 81.2982C91.6992 81.5796 91.8773 81.948 92.2018 81.948Z" fill="#EFEFEF"/>
<path d="M84.6704 59.7278L84.6589 59.7486L84.6541 59.7558L84.62 59.8385C84.6059 59.9289 84.6664 60.0308 84.7544 60.0635L88.3192 60.5724C88.3704 60.5798 88.4112 60.6 88.4541 60.6176L88.4544 60.6165C88.5787 60.6402 88.687 60.7003 88.7707 60.7846L88.8099 60.6759L89.4067 56.6827C89.5392 56.5473 89.751 56.5047 89.9182 56.6244C90.2278 56.8478 90.592 57.0029 90.995 57.0612C92.8958 57.3381 94.6176 55.3447 93.547 53.0874C93.492 52.9738 93.416 52.8674 93.3253 52.781C92.4392 51.9362 91.4278 51.7832 90.5894 52.0742C90.4014 52.1391 90.2155 52.0524 90.1229 51.8989L90.7165 47.931C90.7493 47.7081 90.604 47.5001 90.3899 47.4594L90.263 47.4155L86.6731 46.8941C86.42 46.8109 86.2971 46.4962 86.4611 46.2658C86.6912 45.9411 86.851 45.5575 86.9147 45.1353C87.1291 43.7064 86.156 42.3844 84.7526 42.2115C83.3592 41.9726 82.0459 42.9592 81.8363 44.3879C81.7755 44.8113 81.8171 45.2242 81.9446 45.6016C82.0342 45.8687 81.8259 46.1358 81.56 46.1416L77.9704 45.6072L77.8371 45.6123C77.6197 45.5899 77.4211 45.7466 77.3885 45.9711L76.8083 49.9409C76.6741 50.0603 76.4718 50.0912 76.3112 49.9733C75.5928 49.4538 74.5798 49.3083 73.487 49.863C73.3752 49.9191 73.271 49.9997 73.1856 50.0928C71.5067 51.9447 72.58 54.349 74.4795 54.6313C74.8816 54.6916 75.2758 54.6486 75.6363 54.5227C75.8318 54.4557 76.0227 54.5587 76.1088 54.7268L75.5251 58.7218C75.5179 58.7718 75.5224 58.8202 75.532 58.8673C75.6352 58.8123 75.7552 58.7862 75.8805 58.7987L75.8803 58.7998C75.9259 58.7952 75.9717 58.7875 76.0229 58.7947L79.5864 59.3163C79.6797 59.3099 79.7669 59.2293 79.7781 59.1397L79.7699 59.0495L79.7672 59.0392L79.764 59.0285L79.7611 59.0157C79.6331 58.6226 79.588 58.1938 79.6488 57.7549H79.6483L79.6499 57.7432L79.6502 57.7408L79.6512 57.7342C79.6915 57.4567 79.7814 57.2064 79.8859 56.9747C80.3779 55.8892 81.5147 55.1957 82.7371 55.3723L82.8016 55.3827L82.856 55.3894C84.0774 55.566 84.9707 56.5528 85.1336 57.7331C85.1677 57.985 85.1819 58.2502 85.1413 58.5287L85.1405 58.5343C85.0755 58.9796 84.908 59.3834 84.6704 59.7278Z" fill="#4A71FF"/>
<path d="M72.885 66.8326C73.3 66.3051 73.8954 65.9216 74.6021 65.7936L74.6408 66.004L74.6032 65.7934C74.7746 65.7628 74.9306 65.7657 75.0741 65.7649C75.2133 65.721 75.3533 65.6835 75.4952 65.6569C75.565 65.6444 75.636 65.6354 75.7077 65.6295L75.0325 61.8257C75.0109 61.7055 74.9098 61.6339 74.8072 61.6403L74.7925 61.6392L74.76 61.6438L74.7266 61.6379L74.661 61.6366L70.8669 62.3191L70.848 62.3189C70.5416 62.3181 70.2933 62.1106 70.2146 61.8305L70.1938 61.7752C70.1778 61.6858 70.1829 61.5903 70.2093 61.4948L70.2074 61.4951L70.212 61.4717L70.2157 61.4639C70.3234 61.095 70.3528 60.6989 70.2805 60.2935L70.2794 60.2877C70.2368 60.0496 70.1514 59.8275 70.0442 59.6091C69.5648 58.6409 68.5258 58.0591 67.4466 58.2515L67.3917 58.2624L67.3858 58.2634L67.3797 58.2645L67.3221 58.2735C66.8144 58.364 66.3786 58.6153 66.0434 58.9643C65.6656 59.3578 65.4162 59.8746 65.3568 60.4436C65.3418 60.5808 65.3384 60.7173 65.3426 60.8537C65.3453 60.9559 65.3509 61.0578 65.3693 61.1596L65.3696 61.1607L65.3709 61.1676C65.4434 61.573 65.609 61.9342 65.8389 62.242L65.8458 62.2505L65.8512 62.2601L65.8586 62.2718L65.857 62.2731C65.9122 62.3519 65.9506 62.4396 65.9666 62.529L65.9661 62.5825C65.992 62.8743 65.8304 63.157 65.5421 63.2637L65.5248 63.2703L61.7282 63.9393L61.6984 63.9505L61.6664 63.9633L61.6376 63.98L61.6045 63.9872C61.4986 64.0109 61.4213 64.1192 61.4426 64.2442L62.2112 68.4967L62.1725 68.5664C62.0792 68.7295 61.9202 68.851 61.7269 68.8856C61.6304 68.9029 61.5261 68.8978 61.4272 68.8657C61.0741 68.7561 60.6949 68.7257 60.3082 68.7946C59.7976 68.8856 59.2709 69.1495 58.7816 69.6464C58.7074 69.7211 58.6432 69.8139 58.6016 69.911C58.3202 70.5529 58.2618 71.1551 58.3565 71.6853C58.6008 73.0496 59.8704 73.9577 61.184 73.726L61.1882 73.7252C61.5741 73.6566 61.921 73.4978 62.2141 73.2722C62.2944 73.2108 62.3864 73.1706 62.48 73.1541C62.6917 73.1163 62.8986 73.1929 63.044 73.3334L63.0952 73.3834L63.8661 77.6532C63.8888 77.7801 64.0048 77.8578 64.116 77.8378L68.0688 77.1271L68.1298 77.1066L68.1458 77.1037L68.1688 77.0997C68.232 77.0872 68.2688 77.0582 68.2984 77.0154C68.3258 76.9701 68.3378 76.9103 68.3272 76.8507L68.2661 76.726C67.909 76.3286 67.653 75.8261 67.5514 75.2584C67.4448 74.6621 67.5088 73.9936 67.7944 73.3049L67.8 73.2922L67.8058 73.2818C67.9413 73.0413 68.1104 72.8224 68.3058 72.6304L68.3104 72.6258L68.3144 72.6216C68.7877 72.209 69.3032 71.9648 69.8146 71.8643L69.8162 71.864L69.8213 71.8632C70.3365 71.781 70.9042 71.8324 71.4906 72.0561L71.4962 72.0574L71.5026 72.0611C71.7528 72.1736 71.9869 72.321 72.197 72.4997L72.2072 72.5085L72.2162 72.5173C72.7229 73.065 73.0154 73.6699 73.1213 74.2676C73.2226 74.8342 73.1581 75.3938 72.9602 75.891L72.9456 76.0282C72.956 76.0878 72.989 76.1397 73.0306 76.1727C73.0722 76.203 73.1178 76.2174 73.1816 76.2073L73.2197 76.2003L73.2352 76.2001L73.2837 76.1985L77.2402 75.501C77.3512 75.4813 77.4333 75.3686 77.4109 75.2414L76.7274 71.3833C76.6405 71.4107 76.5496 71.4352 76.4536 71.4525L76.4522 71.4528C76.2885 71.4807 76.1533 71.4679 76.0421 71.469C75.9072 71.5142 75.7698 71.5539 75.6256 71.5797C75.0474 71.6826 74.3994 71.6089 73.7261 71.3097L73.6506 71.2804C73.5072 71.2115 73.3738 71.1171 73.261 71.0003C72.9744 70.7029 72.7565 70.3864 72.5949 70.0629C72.545 69.9621 72.5026 69.8597 72.4637 69.7581C72.3917 69.57 72.3341 69.3817 72.3002 69.1928C72.1442 68.3209 72.3816 67.4716 72.885 66.8326Z" fill="#3E78B2"/>
<path d="M87.1232 40.3451H54.5289C54.3705 40.3451 54.2422 40.2172 54.2422 40.0592V14.9578C54.2422 14.7998 54.3705 14.6719 54.5289 14.6719H87.1232C87.2816 14.6719 87.4099 14.7998 87.4099 14.9578V40.0592C87.4099 40.2169 87.2816 40.3451 87.1232 40.3451Z" fill="#EFEFEF"/>
<path d="M87.1232 14.6722H54.5289C54.3705 14.6722 54.2422 14.5442 54.2422 14.3862V11.407C54.2422 11.249 54.3705 11.1211 54.5289 11.1211H87.1232C87.2816 11.1211 87.4099 11.249 87.4099 11.407V14.3862C87.4099 14.5442 87.2816 14.6722 87.1232 14.6722Z" fill="#3E78B2"/>
<path d="M56.0183 13.7396C56.4653 13.7396 56.8276 13.3782 56.8276 12.9323C56.8276 12.4864 56.4653 12.125 56.0183 12.125C55.5713 12.125 55.209 12.4864 55.209 12.9323C55.209 13.3782 55.5713 13.7396 56.0183 13.7396Z" fill="#87CEEB"/>
<path d="M59.489 13.7396C59.936 13.7396 60.2984 13.3782 60.2984 12.9323C60.2984 12.4864 59.936 12.125 59.489 12.125C59.042 12.125 58.6797 12.4864 58.6797 12.9323C58.6797 13.3782 59.042 13.7396 59.489 13.7396Z" fill="#EBF7F7"/>
<path d="M63.771 12.9323C63.771 13.3781 63.4086 13.7396 62.9617 13.7396C62.5147 13.7396 62.1523 13.3781 62.1523 12.9323C62.1523 12.4865 62.5147 12.125 62.9617 12.125C63.4086 12.125 63.771 12.4865 63.771 12.9323Z" fill="#EBF7F7"/>
<path d="M82.8119 19.9062L77.4439 28.7566C77.337 28.933 77.0839 28.942 76.9647 28.7736L72.857 22.9748C72.7375 22.8062 72.4834 22.8155 72.377 22.9929L66.2586 33.1839C66.1287 33.4002 65.8023 33.3552 65.7359 33.1118L63.8692 26.2533C63.7991 25.9958 63.4449 25.966 63.3324 26.2081L59.0215 35.4997" stroke="#4A71FF" stroke-width="2" stroke-miterlimit="10" stroke-linecap="round" stroke-linejoin="round"/>
<path d="M73.649 22.0968C73.649 22.7522 73.1165 23.2837 72.4591 23.2837C71.8021 23.2837 71.2695 22.7525 71.2695 22.0968C71.2695 21.4414 71.8021 20.9102 72.4591 20.9102C73.1162 20.9102 73.649 21.4414 73.649 22.0968Z" fill="#87CEEB"/>
<path d="M84.0006 19.0616C84.0006 19.7171 83.468 20.2485 82.8107 20.2485C82.1536 20.2485 81.6211 19.7171 81.6211 19.0616C81.6211 18.4062 82.1536 17.875 82.8107 17.875C83.468 17.875 84.0006 18.4062 84.0006 19.0616Z" fill="#87CEEB"/>
<path d="M84.7319 34.9703H77.3804C77.222 34.9703 77.0938 34.8424 77.0938 34.6844C77.0938 34.5264 77.222 34.3984 77.3804 34.3984H84.7319C84.8903 34.3984 85.0185 34.5264 85.0185 34.6844C85.0185 34.8421 84.89 34.9703 84.7319 34.9703Z" fill="#87CEEB"/>
<path d="M84.7319 36.361H77.3804C77.222 36.361 77.0938 36.233 77.0938 36.075C77.0938 35.917 77.222 35.7891 77.3804 35.7891H84.7319C84.8903 35.7891 85.0185 35.917 85.0185 36.075C85.0185 36.233 84.89 36.361 84.7319 36.361Z" fill="#87CEEB"/>
<path d="M84.7319 37.7477H77.3804C77.222 37.7477 77.0938 37.6197 77.0938 37.4617C77.0938 37.3037 77.222 37.1758 77.3804 37.1758H84.7319C84.8903 37.1758 85.0185 37.3037 85.0185 37.4617C85.0185 37.6197 84.89 37.7477 84.7319 37.7477Z" fill="#87CEEB"/>
<path d="M99.2733 50.5848C99.3154 50.6116 99.3714 50.5991 99.3984 50.5571L99.7242 50.0474L100.236 50.7962C100.255 50.8236 100.292 50.8308 100.32 50.8119L100.669 50.5747C100.676 50.5699 100.682 50.564 100.686 50.5574C100.69 50.551 100.693 50.5438 100.695 50.5364C100.698 50.5207 100.694 50.5044 100.685 50.4914L100.157 49.7181L100.733 49.549C100.751 49.5452 100.77 49.5309 100.783 49.5112C100.81 49.4692 100.798 49.4133 100.755 49.3864L98.8736 48.1886C98.8136 48.1506 98.7269 48.2019 98.7349 48.2777L99.233 50.5284C99.2445 50.5619 99.261 50.5768 99.2733 50.5848Z" fill="#F7F6F5"/>
<path d="M136.766 40.5083H131.936C131.353 40.5083 130.881 40.0372 130.881 39.456V34.6382C130.881 34.057 131.353 33.5859 131.936 33.5859H136.766C137.348 33.5859 137.821 34.057 137.821 34.6382V39.456C137.821 40.0372 137.348 40.5083 136.766 40.5083Z" fill="#E5E1DC"/>
<path d="M136.766 50.2193H131.936C131.353 50.2193 130.881 49.7482 130.881 49.167V44.3492C130.881 43.768 131.353 43.2969 131.936 43.2969H136.766C137.348 43.2969 137.821 43.768 137.821 44.3492V49.167C137.821 49.7482 137.348 50.2193 136.766 50.2193Z" fill="#E5E1DC"/>
<path d="M136.766 60.2427H131.936C131.353 60.2427 130.881 59.7716 130.881 59.1904V54.3726C130.881 53.7914 131.353 53.3203 131.936 53.3203H136.766C137.348 53.3203 137.821 53.7914 137.821 54.3726V59.1904C137.821 59.7716 137.348 60.2427 136.766 60.2427Z" fill="#E5E1DC"/>
<path d="M136.766 69.9536H131.936C131.353 69.9536 130.881 69.4825 130.881 68.9013V64.0835C130.881 63.5023 131.353 63.0312 131.936 63.0312H136.766C137.348 63.0312 137.821 63.5023 137.821 64.0835V68.9013C137.821 69.4825 137.348 69.9536 136.766 69.9536Z" fill="#E5E1DC"/>
<path d="M136.766 79.8794H131.936C131.353 79.8794 130.881 79.4083 130.881 78.8271V74.0093C130.881 73.4281 131.353 72.957 131.936 72.957H136.766C137.348 72.957 137.821 73.4281 137.821 74.0093V78.8271C137.821 79.4083 137.348 79.8794 136.766 79.8794Z" fill="#E5E1DC"/>
<path d="M136.766 89.5904H131.936C131.353 89.5904 130.881 89.1193 130.881 88.5381V83.7203C130.881 83.1391 131.353 82.668 131.936 82.668H136.766C137.348 82.668 137.821 83.1391 137.821 83.7203V88.5381C137.821 89.1193 137.348 89.5904 136.766 89.5904Z" fill="#E5E1DC"/>
<path d="M138.65 60.6177C138.305 60.6204 137.979 60.535 137.692 60.3852C137.536 60.3052 137.363 60.3671 137.27 60.4988L137.267 63.927C137.267 64.1233 137.111 64.2834 136.92 64.2834L133.683 64.2808L133.631 64.2731H133.61C133.336 64.2757 133.183 63.9632 133.33 63.7227C133.76 63.0303 133.817 62.0746 133.219 61.1393C133.087 60.9819 132.937 60.8449 132.768 60.731C132.359 60.4858 131.95 60.3746 131.561 60.3692C131.175 60.377 130.766 60.4882 130.357 60.7334C130.189 60.847 130.038 60.9866 129.909 61.1441C129.311 62.0794 129.37 63.0351 129.8 63.7275C129.95 63.965 129.798 64.2779 129.52 64.2779H129.502L129.453 64.2856L126.213 64.2959C126.021 64.2959 125.863 64.1385 125.863 63.9395L125.858 61.9762L125.856 60.5113C125.76 60.3796 125.589 60.3177 125.434 60.3977C125.146 60.5501 124.82 60.6329 124.475 60.6329C122.844 60.6329 121.642 58.7469 122.82 56.9825C122.88 56.8921 122.958 56.812 123.043 56.7527C123.893 56.1508 124.76 56.1457 125.431 56.4944C125.581 56.5718 125.747 56.5229 125.843 56.404L125.835 52.9965C125.832 52.8053 125.98 52.6478 126.166 52.6401L126.278 52.6193L129.36 52.622C129.582 52.5832 129.722 52.3326 129.614 52.1182C129.461 51.8184 129.373 51.4774 129.373 51.1133C129.37 49.8889 130.349 48.8967 131.548 48.9225C132.75 48.894 133.731 49.8835 133.731 51.1079C133.731 51.4721 133.643 51.8131 133.491 52.1155C133.382 52.3299 133.524 52.5778 133.747 52.6167L136.829 52.609L136.94 52.6271C137.005 52.6297 137.064 52.6505 137.114 52.6864C137.21 52.7484 137.274 52.8595 137.274 52.9835L137.272 56.391C137.367 56.5099 137.536 56.5588 137.686 56.4787C138.352 56.13 139.222 56.1327 140.071 56.7346C140.159 56.7939 140.237 56.874 140.297 56.9645C141.478 58.7267 140.281 60.6153 138.65 60.6177Z" fill="#3E78B2"/>
<path d="M11.819 32.5469H29.1473C29.5057 32.5469 29.7963 32.8115 29.7963 33.1379V39.918C29.7963 40.2444 29.5057 40.5091 29.1473 40.5091H26.9491L27.7473 43.3571L23.1171 40.5091H11.819C11.4606 40.5091 11.1699 40.2444 11.1699 39.918V33.1379C11.1699 32.8115 11.4606 32.5469 11.819 32.5469Z" fill="#87CEEB"/>
<path d="M26.5946 37.2202C27.0568 37.2202 27.4314 36.8465 27.4314 36.3855C27.4314 35.9245 27.0568 35.5508 26.5946 35.5508C26.1325 35.5508 25.7578 35.9245 25.7578 36.3855C25.7578 36.8465 26.1325 37.2202 26.5946 37.2202Z" fill="#FCF1EB"/>
<path d="M19.9512 36.3855C19.9512 36.8465 20.3258 37.2205 20.788 37.2205C21.2501 37.2205 21.625 36.8467 21.625 36.3855C21.625 35.9245 21.2504 35.5508 20.788 35.5508C20.3256 35.5508 19.9512 35.9242 19.9512 36.3855Z" fill="#FCF1EB"/>
<path d="M14.1426 36.3855C14.1426 36.8465 14.5172 37.2205 14.9794 37.2205C15.4415 37.2205 15.8162 36.8467 15.8162 36.3855C15.8162 35.9245 15.4415 35.5508 14.9794 35.5508C14.5172 35.5508 14.1426 35.9242 14.1426 36.3855Z" fill="#FCF1EB"/>
<path d="M175.688 40.9648H158.36C158.002 40.9648 157.711 41.2295 157.711 41.5559V48.336C157.711 48.6624 158.002 48.927 158.36 48.927H160.558L159.76 51.7751L164.39 48.927H175.688C176.047 48.927 176.337 48.6624 176.337 48.336V41.5559C176.337 41.2295 176.047 40.9648 175.688 40.9648Z" fill="#87CEEB"/>
<path d="M161.75 44.8037C161.75 45.2647 161.375 45.6387 160.913 45.6387C160.451 45.6387 160.076 45.265 160.076 44.8037C160.076 44.3427 160.451 43.9688 160.913 43.9688C161.375 43.9688 161.75 44.3427 161.75 44.8037Z" fill="#FCF1EB"/>
<path d="M167.556 44.8037C167.556 45.2647 167.182 45.6387 166.72 45.6387C166.257 45.6387 165.883 45.265 165.883 44.8037C165.883 44.3427 166.257 43.9688 166.72 43.9688C167.182 43.9688 167.556 44.3427 167.556 44.8037Z" fill="#FCF1EB"/>
<path d="M173.365 44.8037C173.365 45.2647 172.991 45.6387 172.528 45.6387C172.066 45.6387 171.691 45.265 171.691 44.8037C171.691 44.3427 172.066 43.9688 172.528 43.9688C172.991 43.9688 173.365 44.3427 173.365 44.8037Z" fill="#FCF1EB"/>
<path d="M177.439 40.9656C177.439 41.65 176.883 42.2046 176.197 42.2046C175.511 42.2046 174.955 41.6497 174.955 40.9656C174.955 40.2812 175.511 39.7266 176.197 39.7266C176.883 39.7266 177.439 40.2814 177.439 40.9656Z" fill="#3E78B2"/>
<path d="M169.068 28.7401C170.071 26.6322 169.171 24.1122 167.058 23.1117C164.945 22.1112 162.419 23.0089 161.416 25.1168C160.413 27.2248 161.313 29.7447 163.426 30.7452C165.539 31.7458 168.065 30.848 169.068 28.7401Z" fill="#3E78B2"/>
<path d="M163.488 26.4382C163.399 26.7502 163.074 26.9319 162.761 26.8438C162.448 26.7558 162.266 26.4313 162.354 26.1193C162.443 25.8072 162.768 25.6256 163.081 25.7136C163.394 25.8017 163.576 26.1262 163.488 26.4382Z" fill="#FCF1EB"/>
<path d="M165.812 27.0947C165.723 27.4067 165.398 27.5884 165.085 27.5004C164.772 27.4123 164.59 27.0878 164.679 26.7755C164.767 26.4635 165.092 26.2818 165.405 26.3699C165.718 26.4582 165.9 26.7827 165.812 27.0947Z" fill="#FCF1EB"/>
<path d="M168.136 27.7468C168.048 28.0588 167.722 28.2405 167.409 28.1524C167.097 28.0644 166.914 27.7399 167.003 27.4279C167.091 27.1158 167.416 26.9342 167.729 27.0222C168.042 27.1102 168.224 27.4345 168.136 27.7468Z" fill="#FCF1EB"/>
<path d="M161.466 28.8398L160.074 31.1586L163.509 30.7864C163.509 30.7864 162.561 29.142 161.466 28.8398Z" fill="#3E78B2"/>
<path d="M17.6877 92.0243C19.7945 92.0243 21.5024 90.3207 21.5024 88.2192C21.5024 86.1177 19.7945 84.4141 17.6877 84.4141C15.5809 84.4141 13.873 86.1177 13.873 88.2192C13.873 90.3207 15.5809 92.0243 17.6877 92.0243Z" fill="#3E78B2"/>
<path d="M19.272 87.7743C19.3515 88.0555 19.6445 88.2191 19.9264 88.1398C20.2083 88.0605 20.3723 87.7682 20.2925 87.487C20.2131 87.2059 19.92 87.0423 19.6381 87.1215C19.3565 87.2011 19.1925 87.4932 19.272 87.7743Z" fill="#FCF1EB"/>
<path d="M17.1784 88.3643C17.2578 88.6454 17.5509 88.809 17.8328 88.7295C18.1146 88.65 18.2786 88.3579 18.1992 88.0767C18.1197 87.7956 17.8266 87.632 17.5448 87.7115C17.2626 87.791 17.0986 88.0834 17.1784 88.3643Z" fill="#FCF1EB"/>
<path d="M15.0846 88.9541C15.1641 89.2353 15.4571 89.3989 15.739 89.3193C16.0209 89.2401 16.1849 88.9477 16.1051 88.6666C16.0257 88.3854 15.7326 88.2218 15.4507 88.3014C15.1689 88.3806 15.0049 88.673 15.0846 88.9541Z" fill="#FCF1EB"/>
<path d="M21.0903 89.9375L22.3439 92.0259L19.25 91.6907C19.25 91.6907 20.1039 90.2096 21.0903 89.9375Z" fill="#3E78B2"/>
<path d="M24.2249 26.5789C24.2249 27.0734 23.823 27.4743 23.3273 27.4743C22.8316 27.4743 22.4297 27.0734 22.4297 26.5789C22.4297 26.0845 22.8316 25.6836 23.3273 25.6836C23.823 25.6836 24.2249 26.0845 24.2249 26.5789Z" fill="#4A71FF"/>
<path d="M9.28693 49.2482L10.4971 49.8355C10.6048 49.8879 10.6048 50.0409 10.4971 50.093L9.28693 50.6803C9.25813 50.6944 9.23467 50.7176 9.2208 50.7463L8.63174 51.9534C8.57947 52.0609 8.42614 52.0609 8.3736 51.9534L7.7848 50.7463C7.77067 50.7176 7.74747 50.6942 7.71867 50.6803L6.50853 50.093C6.4008 50.0406 6.4008 49.8877 6.50853 49.8355L7.71867 49.2482C7.74747 49.2341 7.77094 49.211 7.7848 49.1822L8.3736 47.9751C8.42587 47.8677 8.57947 47.8677 8.63174 47.9751L9.2208 49.1822C9.23467 49.211 9.25787 49.2341 9.28693 49.2482Z" fill="#3E78B2"/>
<path d="M170.266 58.1352L171.476 58.7225C171.584 58.7749 171.584 58.9279 171.476 58.98L170.266 59.5673C170.237 59.5814 170.213 59.6046 170.199 59.6333L169.611 60.8404C169.558 60.9479 169.405 60.9479 169.352 60.8404L168.764 59.6333C168.749 59.6046 168.726 59.5812 168.697 59.5673L167.487 58.98C167.379 58.9276 167.379 58.7747 167.487 58.7225L168.697 58.1352C168.726 58.1211 168.749 58.0979 168.764 58.069L169.352 56.8618C169.405 56.7544 169.558 56.7544 169.611 56.8618L170.199 58.069C170.213 58.0979 170.237 58.1214 170.266 58.1352Z" fill="#3E78B2"/>
<path d="M41.6541 12.4709L42.8643 13.0582C42.972 13.1103 42.972 13.2633 42.8643 13.3157L41.6541 13.903C41.6253 13.9171 41.6019 13.9402 41.5877 13.9692L40.9989 15.1763C40.9464 15.2838 40.7931 15.2838 40.7408 15.1763L40.152 13.9692C40.1379 13.9405 40.1147 13.9171 40.0859 13.903L38.8757 13.3157C38.768 13.2633 38.768 13.1103 38.8757 13.0582L40.0859 12.4709C40.1147 12.4568 40.1381 12.4336 40.152 12.4049L40.7408 11.1978C40.7931 11.0903 40.9464 11.0903 40.9989 11.1978L41.5877 12.4049C41.6019 12.4336 41.6253 12.457 41.6541 12.4709Z" fill="#3E78B2"/>
<path d="M75.3199 2.28727L76.53 2.8746C76.6377 2.92673 76.6377 3.07995 76.53 3.13208L75.3199 3.71941C75.2911 3.73351 75.2676 3.75665 75.2537 3.78538L74.6649 4.99249C74.6127 5.09995 74.4591 5.09995 74.4068 4.99249L73.818 3.78538C73.8039 3.75665 73.7807 3.73324 73.7519 3.71941L72.5417 3.13208C72.434 3.07968 72.434 2.92673 72.5417 2.8746L73.7519 2.28727C73.7807 2.27317 73.8041 2.25003 73.818 2.2213L74.4068 1.01419C74.4591 0.906728 74.6127 0.906728 74.6649 1.01419L75.2537 2.2213C75.2676 2.25003 75.2908 2.27344 75.3199 2.28727Z" fill="#3E78B2"/>
<path d="M120.374 3.5415C121.277 5.60832 120.324 8.01483 118.255 8.91284C116.183 9.81352 113.771 8.86895 112.868 6.80213C112.55 6.07143 112.461 5.30109 112.574 4.56853L116.62 5.17315L114.373 1.76356C114.563 1.63535 114.769 1.52789 114.987 1.4308C117.059 0.530385 119.471 1.47468 120.374 3.5415Z" fill="#3E78B2"/>
<path d="M112.205 0L112.718 0.829122L114.632 3.9219L110.865 3.58329L109.743 3.48167C109.549 0.87913 112.205 0 112.205 0Z" fill="#87CEEB"/>
<path d="M51.2422 1.73828L52.3675 2.80228L53.4926 1.73828L54.6177 2.80228L55.7438 1.73828L56.8707 2.80228L57.9976 1.73828" stroke="#4A71FF" stroke-width="2" stroke-miterlimit="10" stroke-linecap="round" stroke-linejoin="round"/>
<path d="M168.535 67.1328L169.66 68.1968L170.786 67.1328L171.911 68.1968L173.037 67.1328L174.164 68.1968L175.291 67.1328" stroke="#4A71FF" stroke-width="2" stroke-miterlimit="10" stroke-linecap="round" stroke-linejoin="round"/>
<path d="M3.75391 64.543L4.87924 65.607L6.00431 64.543L7.12937 65.607L8.25551 64.543L9.38244 65.607L10.5094 64.543" stroke="#4A71FF" stroke-width="2" stroke-miterlimit="10" stroke-linecap="round" stroke-linejoin="round"/>
</svg>
