<svg width="101" height="74" viewBox="0 0 101 74" fill="none" xmlns="http://www.w3.org/2000/svg">
<path d="M97.1731 0H2.55169C1.14243 0 0 1.15122 0 2.57132V70.5771C0 71.9972 1.14243 73.1484 2.55169 73.1484H97.1731C98.5824 73.1484 99.7248 71.9972 99.7248 70.5771V2.57132C99.7248 1.15122 98.5824 0 97.1731 0Z" fill="#F68C1F"/>
<path d="M97.5442 0H2.92279C1.51353 0 0.371094 1.15122 0.371094 2.57132V70.5771C0.371094 71.9972 1.51353 73.1484 2.92279 73.1484H97.5442C98.9535 73.1484 100.096 71.9972 100.096 70.5771V2.57132C100.096 1.15122 98.9535 0 97.5442 0Z" fill="#FF9500"/>
<path opacity="0.7" d="M97.4844 68.2961V4.84401C97.4844 3.61848 96.4985 2.625 95.2823 2.625L5.17983 2.625C3.96366 2.625 2.97776 3.61848 2.97776 4.84401V68.2961C2.97776 69.5216 3.96366 70.5151 5.17983 70.5151H95.2823C96.4985 70.5151 97.4844 69.5216 97.4844 68.2961Z" fill="white"/>
<path d="M28.8014 16.6381C28.8819 16.411 29.1083 16.25 29.3471 16.25H33.0781C33.3612 16.25 33.5639 16.474 33.531 16.7502L32.5675 24.8392C32.5346 25.1154 32.2784 25.3394 31.9953 25.3394H20.1557C19.8726 25.3394 19.6698 25.1154 19.7027 24.8392L20.5121 18.0448C20.545 17.7685 20.8011 17.5445 21.0842 17.5445H27.5267C28.0845 17.5445 28.6131 17.1686 28.8014 16.6381Z" fill="#FF9500"/>
<path d="M19.918 24.9562H32.288L32.9928 16.6328H20.6228L19.918 24.9562Z" fill="#F0F0F0"/>
<path d="M19.918 24.9562H32.288L32.798 16.6328H20.6228L19.918 24.9562Z" fill="#E0E0E0"/>
<path d="M19.918 24.9703H32.288L32.7132 16.3828H20.3432L19.918 24.9703Z" fill="#F0F0F0"/>
<path d="M19.918 24.9703H32.288L32.4562 16.3828H20.3432L19.918 24.9703Z" fill="#E0E0E0"/>
<path d="M19.918 24.969H32.288L32.3616 16.1484H19.9917L19.918 24.969Z" fill="#F0F0F0"/>
<path d="M19.9242 24.9739H32.2942L32.0404 16.3203H19.75L19.9242 24.9739Z" fill="#E0E0E0"/>
<path d="M19.9179 24.9703H32.2879L31.9208 16.3828H19.5508L19.9179 24.9703Z" fill="#F0F0F0"/>
<path d="M19.9167 24.9737H32.2867L31.702 16.5156H19.332L19.9167 24.9737Z" fill="#E0E0E0"/>
<path d="M19.9201 24.9715H32.2901L31.6122 16.5859H19.2422L19.9201 24.9715Z" fill="#F0F0F0"/>
<path d="M28.0616 17.3792C28.0717 17.0887 28.2901 16.8828 28.5882 16.8828H33.2459C33.5993 16.8828 33.9417 17.1693 34.0107 17.5227L35.8508 26.9461C35.9198 27.2996 35.6892 27.586 35.3358 27.586H20.5555C20.2021 27.586 19.8596 27.2995 19.7906 26.9461L18.2739 19.1785C18.2049 18.8251 18.4354 18.5386 18.7889 18.5386H26.8315C27.5278 18.5386 28.038 18.0578 28.0616 17.3792Z" fill="#FF9500"/>
<path opacity="0.2" d="M28.0616 17.3792C28.0717 17.0887 28.2901 16.8828 28.5882 16.8828H33.2459C33.5993 16.8828 33.9417 17.1693 34.0107 17.5227L35.8508 26.9461C35.9198 27.2996 35.6892 27.586 35.3358 27.586H20.5555C20.2021 27.586 19.8596 27.2995 19.7906 26.9461L18.2739 19.1785C18.2049 18.8251 18.4354 18.5386 18.7889 18.5386H26.8315C27.5278 18.5386 28.038 18.0578 28.0616 17.3792Z" fill="#FFAA33"/>
<path d="M28.8014 32.3959C28.8819 32.1688 29.1083 32.0078 29.3471 32.0078H33.0781C33.3612 32.0078 33.5639 32.2318 33.531 32.5081L32.5675 40.597C32.5346 40.8733 32.2784 41.0972 31.9953 41.0972H20.1557C19.8726 41.0972 19.6698 40.8733 19.7027 40.597L20.5121 33.8026C20.545 33.5263 20.8011 33.3023 21.0842 33.3023H27.5267C28.0845 33.3023 28.6131 32.9264 28.8014 32.3959Z" fill="#FF9500"/>
<path d="M19.918 40.714H32.288L32.9928 32.3906H20.6228L19.918 40.714Z" fill="#F0F0F0"/>
<path d="M19.918 40.714H32.288L32.798 32.3906H20.6228L19.918 40.714Z" fill="#E0E0E0"/>
<path d="M19.918 40.7281H32.288L32.7132 32.1406H20.3432L19.918 40.7281Z" fill="#F0F0F0"/>
<path d="M19.918 40.7281H32.288L32.4562 32.1406H20.3432L19.918 40.7281Z" fill="#E0E0E0"/>
<path d="M19.918 40.7268H32.288L32.3616 31.9062H19.9917L19.918 40.7268Z" fill="#F0F0F0"/>
<path d="M19.9242 40.7317H32.2942L32.0404 32.0781H19.75L19.9242 40.7317Z" fill="#E0E0E0"/>
<path d="M19.9179 40.7281H32.2879L31.9208 32.1406H19.5508L19.9179 40.7281Z" fill="#F0F0F0"/>
<path d="M19.9167 40.7315H32.2867L31.702 32.2734H19.332L19.9167 40.7315Z" fill="#E0E0E0"/>
<path d="M19.9201 40.7293H32.2901L31.6122 32.3438H19.2422L19.9201 40.7293Z" fill="#F0F0F0"/>
<path d="M26.1118 32.9055C26.1199 32.6728 26.2949 32.5078 26.5336 32.5078H30.2646C30.5477 32.5078 30.822 32.7373 30.8773 33.0204L32.3512 40.5689C32.4065 40.852 32.2218 41.0815 31.9387 41.0815H20.0991C19.816 41.0815 19.5417 40.852 19.4864 40.5689L18.2715 34.3468C18.2162 34.0637 18.4009 33.8342 18.684 33.8342H25.1265C25.6842 33.8342 26.0929 33.449 26.1118 32.9055Z" fill="#FF9500"/>
<path opacity="0.2" d="M26.1118 32.9055C26.1199 32.6728 26.2949 32.5078 26.5336 32.5078H30.2646C30.5477 32.5078 30.822 32.7373 30.8773 33.0204L32.3512 40.5689C32.4065 40.852 32.2218 41.0815 31.9387 41.0815H20.0991C19.816 41.0815 19.5417 40.852 19.4864 40.5689L18.2715 34.3468C18.2162 34.0637 18.4009 33.8342 18.684 33.8342H25.1265C25.6842 33.8342 26.0929 33.449 26.1118 32.9055Z" fill="#FFAA33"/>
<path d="M28.8014 49.599C28.8819 49.3719 29.1083 49.2109 29.3471 49.2109H33.0781C33.3612 49.2109 33.5639 49.4349 33.531 49.7112L32.5675 57.8001C32.5346 58.0764 32.2784 58.3003 31.9953 58.3003H20.1557C19.8726 58.3003 19.6698 58.0764 19.7027 57.8001L20.5121 51.0057C20.545 50.7294 20.8011 50.5054 21.0842 50.5054H27.5267C28.0845 50.5054 28.6131 50.1295 28.8014 49.599Z" fill="#FF9500"/>
<path d="M19.918 57.925H32.288L32.9928 49.6016H20.6228L19.918 57.925Z" fill="#F0F0F0"/>
<path d="M19.918 57.925H32.288L32.798 49.6016H20.6228L19.918 57.925Z" fill="#E0E0E0"/>
<path d="M19.918 57.9391H32.288L32.7132 49.3516H20.3432L19.918 57.9391Z" fill="#F0F0F0"/>
<path d="M19.918 57.9391H32.288L32.4562 49.3516H20.3432L19.918 57.9391Z" fill="#E0E0E0"/>
<path d="M19.918 57.9378H32.288L32.3616 49.1172H19.9917L19.918 57.9378Z" fill="#F0F0F0"/>
<path d="M19.9242 57.9426H32.2942L32.0404 49.2891H19.75L19.9242 57.9426Z" fill="#E0E0E0"/>
<path d="M19.9179 57.9391H32.2879L31.9208 49.3516H19.5508L19.9179 57.9391Z" fill="#F0F0F0"/>
<path d="M19.9167 57.9424H32.2867L31.702 49.4844H19.332L19.9167 57.9424Z" fill="#E0E0E0"/>
<path d="M19.9201 57.9403H32.2901L31.6122 49.5547H19.2422L19.9201 57.9403Z" fill="#F0F0F0"/>
<path d="M26.1118 50.1164C26.1199 49.8837 26.2949 49.7188 26.5336 49.7188H30.2646C30.5477 49.7188 30.822 49.9483 30.8773 50.2313L32.3512 57.7799C32.4065 58.063 32.2218 58.2924 31.9387 58.2924H20.0991C19.816 58.2924 19.5417 58.0629 19.4864 57.7799L18.2715 51.5577C18.2162 51.2746 18.4009 51.0451 18.684 51.0451H25.1265C25.6842 51.0451 26.0929 50.66 26.1118 50.1164Z" fill="#FF9500"/>
<path opacity="0.2" d="M26.1118 50.1164C26.1199 49.8837 26.2949 49.7188 26.5336 49.7188H30.2646C30.5477 49.7188 30.822 49.9483 30.8773 50.2313L32.3512 57.7799C32.4065 58.063 32.2218 58.2924 31.9387 58.2924H20.0991C19.816 58.2924 19.5417 58.0629 19.4864 57.7799L18.2715 51.5577C18.2162 51.2746 18.4009 51.0451 18.684 51.0451H25.1265C25.6842 51.0451 26.0929 50.66 26.1118 50.1164Z" fill="#FFAA33"/>
<path d="M77.5279 16.6381C77.6085 16.411 77.8348 16.25 78.0737 16.25H81.8046C82.0877 16.25 82.2905 16.474 82.2576 16.7502L81.2941 24.8392C81.2612 25.1154 81.005 25.3394 80.7219 25.3394H68.8823C68.5992 25.3394 68.3964 25.1154 68.4293 24.8392L69.2386 18.0448C69.2715 17.7685 69.5277 17.5445 69.8108 17.5445H76.2533C76.8111 17.5445 77.3397 17.1686 77.5279 16.6381Z" fill="#FF9500"/>
<path d="M68.6445 24.9562H81.0145L81.7194 16.6328H69.3494L68.6445 24.9562Z" fill="#F0F0F0"/>
<path d="M68.6445 24.9562H81.0145L81.5246 16.6328H69.3494L68.6445 24.9562Z" fill="#E0E0E0"/>
<path d="M68.6445 24.9703H81.0145L81.4397 16.3828H69.0697L68.6445 24.9703Z" fill="#F0F0F0"/>
<path d="M68.6445 24.9703H81.0145L81.1828 16.3828H69.0697L68.6445 24.9703Z" fill="#E0E0E0"/>
<path d="M68.6445 24.969H81.0145L81.0882 16.1484H68.7182L68.6445 24.969Z" fill="#F0F0F0"/>
<path d="M68.6508 24.9739H81.0208L80.7669 16.3203H68.4766L68.6508 24.9739Z" fill="#E0E0E0"/>
<path d="M68.6445 24.9703H81.0145L80.6473 16.3828H68.2773L68.6445 24.9703Z" fill="#F0F0F0"/>
<path d="M68.6433 24.9737H81.0132L80.4286 16.5156H68.0586L68.6433 24.9737Z" fill="#E0E0E0"/>
<path d="M68.6466 24.9715H81.0166L80.3387 16.5859H67.9688L68.6466 24.9715Z" fill="#F0F0F0"/>
<path d="M74.8344 17.1477C74.8426 16.9149 75.0175 16.75 75.2563 16.75H78.9873C79.2704 16.75 79.5447 16.9795 79.5999 17.2626L81.0739 24.8111C81.1292 25.0942 80.9445 25.3237 80.6614 25.3237H68.8218C68.5387 25.3237 68.2644 25.0942 68.2091 24.8111L66.9942 18.5889C66.9389 18.3058 67.1235 18.0764 67.4066 18.0764H73.8491C74.4069 18.0764 74.8155 17.6912 74.8344 17.1477Z" fill="#FF9500"/>
<path opacity="0.2" d="M74.8344 17.1477C74.8426 16.9149 75.0175 16.75 75.2563 16.75H78.9873C79.2704 16.75 79.5447 16.9795 79.5999 17.2626L81.0739 24.8111C81.1292 25.0942 80.9445 25.3237 80.6614 25.3237H68.8218C68.5387 25.3237 68.2644 25.0942 68.2091 24.8111L66.9942 18.5889C66.9389 18.3058 67.1235 18.0764 67.4066 18.0764H73.8491C74.4069 18.0764 74.8155 17.6912 74.8344 17.1477Z" fill="#FFAA33"/>
<path d="M77.5279 32.3959C77.6085 32.1688 77.8348 32.0078 78.0737 32.0078H81.8046C82.0877 32.0078 82.2905 32.2318 82.2576 32.5081L81.2941 40.597C81.2612 40.8733 81.005 41.0972 80.7219 41.0972H68.8823C68.5992 41.0972 68.3964 40.8733 68.4293 40.597L69.2386 33.8026C69.2715 33.5263 69.5277 33.3023 69.8108 33.3023H76.2533C76.8111 33.3023 77.3397 32.9264 77.5279 32.3959Z" fill="#FF9500"/>
<path d="M68.6445 40.714H81.0145L81.7194 32.3906H69.3494L68.6445 40.714Z" fill="#F0F0F0"/>
<path d="M68.6445 40.714H81.0145L81.5246 32.3906H69.3494L68.6445 40.714Z" fill="#E0E0E0"/>
<path d="M68.6445 40.7281H81.0145L81.4397 32.1406H69.0697L68.6445 40.7281Z" fill="#F0F0F0"/>
<path d="M68.6445 40.7281H81.0145L81.1828 32.1406H69.0697L68.6445 40.7281Z" fill="#E0E0E0"/>
<path d="M68.6445 40.7268H81.0145L81.0882 31.9062H68.7182L68.6445 40.7268Z" fill="#F0F0F0"/>
<path d="M68.6508 40.7317H81.0208L80.7669 32.0781H68.4766L68.6508 40.7317Z" fill="#E0E0E0"/>
<path d="M68.6445 40.7281H81.0145L80.6473 32.1406H68.2773L68.6445 40.7281Z" fill="#F0F0F0"/>
<path d="M68.6433 40.7315H81.0132L80.4286 32.2734H68.0586L68.6433 40.7315Z" fill="#E0E0E0"/>
<path d="M68.6466 40.7293H81.0166L80.3387 32.3438H67.9688L68.6466 40.7293Z" fill="#F0F0F0"/>
<path d="M74.8344 32.9055C74.8426 32.6728 75.0175 32.5078 75.2563 32.5078H78.9873C79.2704 32.5078 79.5447 32.7373 79.5999 33.0204L81.0739 40.5689C81.1292 40.852 80.9445 41.0815 80.6614 41.0815H68.8218C68.5387 41.0815 68.2644 40.852 68.2091 40.5689L66.9942 34.3468C66.9389 34.0637 67.1235 33.8342 67.4066 33.8342H73.8491C74.4069 33.8342 74.8155 33.449 74.8344 32.9055Z" fill="#FF9500"/>
<path opacity="0.2" d="M74.8344 32.9055C74.8426 32.6728 75.0175 32.5078 75.2563 32.5078H78.9873C79.2704 32.5078 79.5447 32.7373 79.5999 33.0204L81.0739 40.5689C81.1292 40.852 80.9445 41.0815 80.6614 41.0815H68.8218C68.5387 41.0815 68.2644 40.852 68.2091 40.5689L66.9942 34.3468C66.9389 34.0637 67.1235 33.8342 67.4066 33.8342H73.8491C74.4069 33.8342 74.8155 33.449 74.8344 32.9055Z" fill="#FFAA33"/>
<path d="M77.5279 49.599C77.6085 49.3719 77.8348 49.2109 78.0737 49.2109H81.8046C82.0877 49.2109 82.2905 49.4349 82.2576 49.7112L81.2941 57.8001C81.2612 58.0764 81.005 58.3003 80.7219 58.3003H68.8823C68.5992 58.3003 68.3964 58.0764 68.4293 57.8001L69.2386 51.0057C69.2715 50.7294 69.5277 50.5054 69.8108 50.5054H76.2533C76.8111 50.5054 77.3397 50.1295 77.5279 49.599Z" fill="#FF9500"/>
<path d="M68.6445 57.925H81.0145L81.7194 49.6016H69.3494L68.6445 57.925Z" fill="#F0F0F0"/>
<path d="M68.6445 57.925H81.0145L81.5246 49.6016H69.3494L68.6445 57.925Z" fill="#E0E0E0"/>
<path d="M68.6445 57.9391H81.0145L81.4397 49.3516H69.0697L68.6445 57.9391Z" fill="#F0F0F0"/>
<path d="M68.6445 57.9391H81.0145L81.1828 49.3516H69.0697L68.6445 57.9391Z" fill="#E0E0E0"/>
<path d="M68.6445 57.9378H81.0145L81.0882 49.1172H68.7182L68.6445 57.9378Z" fill="#F0F0F0"/>
<path d="M68.6508 57.9426H81.0208L80.7669 49.2891H68.4766L68.6508 57.9426Z" fill="#E0E0E0"/>
<path d="M68.6445 57.9391H81.0145L80.6473 49.3516H68.2773L68.6445 57.9391Z" fill="#F0F0F0"/>
<path d="M68.6433 57.9424H81.0132L80.4286 49.4844H68.0586L68.6433 57.9424Z" fill="#E0E0E0"/>
<path d="M68.6466 57.9403H81.0166L80.3387 49.5547H67.9688L68.6466 57.9403Z" fill="#F0F0F0"/>
<path d="M74.8344 50.1164C74.8426 49.8837 75.0175 49.7188 75.2563 49.7188H78.9873C79.2704 49.7188 79.5447 49.9483 79.5999 50.2313L81.0739 57.7799C81.1292 58.063 80.9445 58.2924 80.6614 58.2924H68.8218C68.5387 58.2924 68.2644 58.0629 68.2091 57.7799L66.9942 51.5577C66.9389 51.2746 67.1235 51.0451 67.4066 51.0451H73.8491C74.4069 51.0451 74.8155 50.66 74.8344 50.1164Z" fill="#FF9500"/>
<path opacity="0.2" d="M74.8344 50.1164C74.8426 49.8837 75.0175 49.7188 75.2563 49.7188H78.9873C79.2704 49.7188 79.5447 49.9483 79.5999 50.2313L81.0739 57.7799C81.1292 58.063 80.9445 58.2924 80.6614 58.2924H68.8218C68.5387 58.2924 68.2644 58.0629 68.2091 57.7799L66.9942 51.5577C66.9389 51.2746 67.1235 51.0451 67.4066 51.0451H73.8491C74.4069 51.0451 74.8155 50.66 74.8344 50.1164Z" fill="#FFAA33"/>
<path d="M53.1685 16.6381C53.2491 16.411 53.4755 16.25 53.7143 16.25H57.4452C57.7283 16.25 57.9311 16.474 57.8982 16.7502L56.9347 24.8392C56.9018 25.1154 56.6456 25.3394 56.3625 25.3394H44.5229C44.2398 25.3394 44.037 25.1154 44.0699 24.8392L44.8793 18.0448C44.9122 17.7685 45.1683 17.5445 45.4514 17.5445H51.8939C52.4517 17.5445 52.9803 17.1686 53.1685 16.6381Z" fill="#FF9500"/>
<path d="M44.2852 24.9562H56.6551L57.36 16.6328H44.99L44.2852 24.9562Z" fill="#F0F0F0"/>
<path d="M44.2852 24.9562H56.6551L57.1652 16.6328H44.99L44.2852 24.9562Z" fill="#E0E0E0"/>
<path d="M44.2852 24.9703H56.6551L57.0804 16.3828H44.7104L44.2852 24.9703Z" fill="#F0F0F0"/>
<path d="M44.2852 24.9703H56.6551L56.8234 16.3828H44.7104L44.2852 24.9703Z" fill="#E0E0E0"/>
<path d="M44.2852 24.969H56.6551L56.7288 16.1484H44.3588L44.2852 24.969Z" fill="#F0F0F0"/>
<path d="M44.2914 24.9739H56.6614L56.4076 16.3203H44.1172L44.2914 24.9739Z" fill="#E0E0E0"/>
<path d="M44.2851 24.9703H56.6551L56.288 16.3828H43.918L44.2851 24.9703Z" fill="#F0F0F0"/>
<path d="M44.2839 24.9737H56.6539L56.0692 16.5156H43.6992L44.2839 24.9737Z" fill="#E0E0E0"/>
<path d="M44.2872 24.9715H56.6572L55.9794 16.5859H43.6094L44.2872 24.9715Z" fill="#F0F0F0"/>
<path d="M50.4751 17.1477C50.4832 16.9149 50.6582 16.75 50.8969 16.75H54.6279C54.911 16.75 55.1853 16.9795 55.2406 17.2626L56.7145 24.8111C56.7698 25.0942 56.5851 25.3237 56.302 25.3237H44.4624C44.1793 25.3237 43.905 25.0942 43.8497 24.8111L42.6348 18.5889C42.5795 18.3058 42.7642 18.0764 43.0473 18.0764H49.4898C50.0475 18.0764 50.4562 17.6912 50.4751 17.1477Z" fill="#FF9500"/>
<path opacity="0.2" d="M50.4751 17.1477C50.4832 16.9149 50.6582 16.75 50.8969 16.75H54.6279C54.911 16.75 55.1853 16.9795 55.2406 17.2626L56.7145 24.8111C56.7698 25.0942 56.5851 25.3237 56.302 25.3237H44.4624C44.1793 25.3237 43.905 25.0942 43.8497 24.8111L42.6348 18.5889C42.5795 18.3058 42.7642 18.0764 43.0473 18.0764H49.4898C50.0475 18.0764 50.4562 17.6912 50.4751 17.1477Z" fill="#FFAA33"/>
<path d="M53.1685 32.3959C53.2491 32.1688 53.4755 32.0078 53.7143 32.0078H57.4452C57.7283 32.0078 57.9311 32.2318 57.8982 32.5081L56.9347 40.597C56.9018 40.8733 56.6456 41.0972 56.3625 41.0972H44.5229C44.2398 41.0972 44.037 40.8733 44.0699 40.597L44.8793 33.8026C44.9122 33.5263 45.1683 33.3023 45.4514 33.3023H51.8939C52.4517 33.3023 52.9803 32.9264 53.1685 32.3959Z" fill="#FF9500"/>
<path d="M44.2852 40.714H56.6551L57.36 32.3906H44.99L44.2852 40.714Z" fill="#F0F0F0"/>
<path d="M44.2852 40.714H56.6551L57.1652 32.3906H44.99L44.2852 40.714Z" fill="#E0E0E0"/>
<path d="M44.2852 40.7281H56.6551L57.0804 32.1406H44.7104L44.2852 40.7281Z" fill="#F0F0F0"/>
<path d="M44.2852 40.7281H56.6551L56.8234 32.1406H44.7104L44.2852 40.7281Z" fill="#E0E0E0"/>
<path d="M44.2852 40.7268H56.6551L56.7288 31.9062H44.3588L44.2852 40.7268Z" fill="#F0F0F0"/>
<path d="M44.2914 40.7317H56.6614L56.4076 32.0781H44.1172L44.2914 40.7317Z" fill="#E0E0E0"/>
<path d="M44.2851 40.7281H56.6551L56.288 32.1406H43.918L44.2851 40.7281Z" fill="#F0F0F0"/>
<path d="M44.2839 40.7315H56.6539L56.0692 32.2734H43.6992L44.2839 40.7315Z" fill="#E0E0E0"/>
<path d="M44.2872 40.7293H56.6572L55.9794 32.3438H43.6094L44.2872 40.7293Z" fill="#F0F0F0"/>
<path d="M50.4751 32.9055C50.4832 32.6728 50.6582 32.5078 50.8969 32.5078H54.6279C54.911 32.5078 55.1853 32.7373 55.2406 33.0204L56.7145 40.5689C56.7698 40.852 56.5851 41.0815 56.302 41.0815H44.4624C44.1793 41.0815 43.905 40.852 43.8497 40.5689L42.6348 34.3468C42.5795 34.0637 42.7642 33.8342 43.0473 33.8342H49.4898C50.0475 33.8342 50.4562 33.449 50.4751 32.9055Z" fill="#FF9500"/>
<path opacity="0.2" d="M50.4751 32.9055C50.4832 32.6728 50.6582 32.5078 50.8969 32.5078H54.6279C54.911 32.5078 55.1853 32.7373 55.2406 33.0204L56.7145 40.5689C56.7698 40.852 56.5851 41.0815 56.302 41.0815H44.4624C44.1793 41.0815 43.905 40.852 43.8497 40.5689L42.6348 34.3468C42.5795 34.0637 42.7642 33.8342 43.0473 33.8342H49.4898C50.0475 33.8342 50.4562 33.449 50.4751 32.9055Z" fill="#FFAA33"/>
<path d="M53.1685 49.599C53.2491 49.3719 53.4755 49.2109 53.7143 49.2109H57.4452C57.7283 49.2109 57.9311 49.4349 57.8982 49.7112L56.9347 57.8001C56.9018 58.0764 56.6456 58.3003 56.3625 58.3003H44.5229C44.2398 58.3003 44.037 58.0764 44.0699 57.8001L44.8793 51.0057C44.9122 50.7294 45.1683 50.5054 45.4514 50.5054H51.8939C52.4517 50.5054 52.9803 50.1295 53.1685 49.599Z" fill="#FF9500"/>
<path d="M44.2852 57.925H56.6551L57.36 49.6016H44.99L44.2852 57.925Z" fill="#F0F0F0"/>
<path d="M44.2852 57.925H56.6551L57.1652 49.6016H44.99L44.2852 57.925Z" fill="#E0E0E0"/>
<path d="M44.2852 57.9391H56.6551L57.0804 49.3516H44.7104L44.2852 57.9391Z" fill="#F0F0F0"/>
<path d="M44.2852 57.9391H56.6551L56.8234 49.3516H44.7104L44.2852 57.9391Z" fill="#E0E0E0"/>
<path d="M44.2852 57.9378H56.6551L56.7288 49.1172H44.3588L44.2852 57.9378Z" fill="#F0F0F0"/>
<path d="M44.2914 57.9426H56.6614L56.4076 49.2891H44.1172L44.2914 57.9426Z" fill="#E0E0E0"/>
<path d="M44.2851 57.9391H56.6551L56.288 49.3516H43.918L44.2851 57.9391Z" fill="#F0F0F0"/>
<path d="M44.2839 57.9424H56.6539L56.0692 49.4844H43.6992L44.2839 57.9424Z" fill="#E0E0E0"/>
<path d="M44.2872 57.9403H56.6572L55.9794 49.5547H43.6094L44.2872 57.9403Z" fill="#F0F0F0"/>
<path d="M50.4751 50.1164C50.4832 49.8837 50.6582 49.7188 50.8969 49.7188H54.6279C54.911 49.7188 55.1853 49.9483 55.2406 50.2313L56.7145 57.7799C56.7698 58.063 56.5851 58.2924 56.302 58.2924H44.4624C44.1793 58.2924 43.905 58.0629 43.8497 57.7799L42.6348 51.5577C42.5795 51.2746 42.7642 51.0451 43.0473 51.0451H49.4898C50.0475 51.0451 50.4562 50.66 50.4751 50.1164Z" fill="#FF9500"/>
<path opacity="0.2" d="M50.4751 50.1164C50.4832 49.8837 50.6582 49.7188 50.8969 49.7188H54.6279C54.911 49.7188 55.1853 49.9483 55.2406 50.2313L56.7145 57.7799C56.7698 58.063 56.5851 58.2924 56.302 58.2924H44.4624C44.1793 58.2924 43.905 58.0629 43.8497 57.7799L42.6348 51.5577C42.5795 51.2746 42.7642 51.0451 43.0473 51.0451H49.4898C50.0475 51.0451 50.4562 50.66 50.4751 50.1164Z" fill="#FFAA33"/>
</svg>
