<svg width="300" height="300" viewBox="0 0 300 300" fill="none" xmlns="http://www.w3.org/2000/svg">
<path d="M181.846 26.5833C174.95 21.6213 165.866 20.7783 158.19 24.3087C120.733 41.5359 -2.90703 102.324 23.1396 142.962C53.7516 190.722 162.323 266.067 202.162 262.473C242 258.881 287.136 192.074 276.994 148.098C268.472 111.149 211.179 47.6931 181.846 26.5833Z" fill="#F46036"/>
<path opacity="0.7" d="M181.846 26.5833C174.95 21.6213 165.866 20.7783 158.19 24.3087C120.733 41.5359 -2.90703 102.324 23.1396 142.962C53.7516 190.722 162.323 266.067 202.162 262.473C242 258.881 287.136 192.074 276.994 148.098C268.472 111.149 211.179 47.6931 181.846 26.5833Z" fill="white"/>
<path d="M216.562 151.165C217.48 153.358 221.416 156.953 221.419 156.956C221.459 156.993 223 153.642 223.073 153.42C223.918 150.844 224.035 145.37 221.578 143.585C219.809 142.3 217.439 143.035 216.383 144.848C215.304 146.701 215.78 149.297 216.562 151.165Z" fill="#263238"/>
<path d="M279.564 186.273C277.606 183.953 272.155 184.466 269.647 185.495C269.43 185.584 266.2 187.364 266.24 187.401C266.24 187.401 266.278 187.437 266.287 187.445C265.426 187.519 264.504 187.609 263.498 187.727C261.642 187.96 259.548 188.241 257.289 188.7C255.03 189.152 252.588 189.708 250.069 190.524C247.543 191.34 244.929 192.327 242.365 193.692C242.337 193.707 242.308 193.728 242.279 193.743C242.905 193.111 244.596 191.285 244.709 191.13C246.314 188.945 248.133 183.78 246.355 181.319C245.075 179.546 242.594 179.505 241.025 180.899C239.423 182.323 239.066 184.938 239.226 186.957C239.406 189.233 241.807 193.564 241.999 193.908C239.57 195.231 237.185 196.785 234.858 198.491C233.526 199.466 232.215 200.488 230.914 201.53C231.437 200.966 231.901 200.458 231.958 200.379C233.563 198.194 235.381 193.031 233.604 190.569C232.323 188.795 229.842 188.756 228.274 190.149C226.671 191.573 226.314 194.188 226.474 196.207C226.637 198.255 228.609 201.989 229.144 202.97C228.649 203.374 228.15 203.774 227.657 204.18C225.289 206.132 222.934 208.089 220.566 209.939C219.732 210.591 218.886 211.202 218.043 211.817C218.506 211.316 218.893 210.889 218.946 210.818C220.551 208.633 222.369 203.469 220.592 201.008C219.311 199.234 216.83 199.194 215.261 200.588C213.659 202.011 213.302 204.627 213.462 206.646C213.617 208.6 215.406 212.063 216.037 213.231C215.154 213.835 214.27 214.441 213.387 214.986C212.775 215.345 212.212 215.732 211.578 216.059C210.957 216.395 210.342 216.727 209.733 217.056C208.537 217.647 207.307 218.265 206.127 218.813C205.308 219.2 204.52 219.553 203.729 219.912C204.567 219.272 206.181 217.986 206.304 217.863C207.578 216.59 209.138 214.032 209.64 211.664C209.829 211.478 210.001 211.275 210.153 211.056C211.343 209.328 210.999 206.87 209.082 205.817C206.421 204.356 201.518 206.793 199.548 208.655C199.431 208.764 198.303 210.097 197.605 210.949C197.938 210.385 198.27 209.843 198.606 209.258C199.28 208.107 199.918 206.939 200.611 205.685C200.924 205.068 201.24 204.444 201.559 203.814C201.888 203.196 202.158 202.502 202.464 201.84C203.14 200.293 203.751 198.691 204.329 197.064C205.338 197.652 208.951 199.688 210.973 199.907C212.986 200.126 215.612 199.844 217.081 198.284C218.52 196.756 218.552 194.276 216.817 192.944C214.408 191.096 209.193 192.762 206.962 194.304C206.823 194.4 205.348 195.686 204.55 196.407C204.891 195.427 205.236 194.45 205.548 193.446C206.449 190.55 207.272 187.591 208.105 184.641C208.36 183.738 208.625 182.841 208.887 181.942C209.244 182.155 213.486 184.667 215.751 184.913C217.764 185.132 220.389 184.851 221.859 183.291C223.297 181.764 223.33 179.282 221.594 177.951C219.185 176.102 213.97 177.77 211.74 179.31C211.572 179.427 209.451 181.28 208.935 181.778C209.511 179.798 210.105 177.83 210.768 175.914C211.68 173.27 212.721 170.725 213.912 168.335C214.079 168.434 218.494 171.075 220.814 171.328C222.827 171.546 225.452 171.266 226.921 169.706C228.36 168.178 228.393 165.697 226.657 164.366C224.248 162.518 219.033 164.184 216.802 165.726C216.627 165.846 214.347 167.842 213.959 168.233C214.03 168.092 214.087 167.936 214.16 167.796C215.464 165.26 217.046 162.966 218.632 160.892C219.551 159.685 220.497 158.583 221.442 157.531C222.214 158.108 225.771 160.703 227.833 161.16C229.811 161.598 232.45 161.607 234.082 160.218C235.68 158.858 235.985 156.395 234.406 154.881C232.215 152.78 226.848 153.864 224.463 155.151C224.332 155.221 223.092 156.078 222.198 156.716C222.631 156.248 223.071 155.756 223.495 155.316C225.084 153.66 226.641 152.24 228.03 150.994C228.826 150.291 229.56 149.673 230.252 149.101C231.305 149.271 235.555 149.904 237.56 149.37C239.517 148.848 241.863 147.639 242.671 145.655C243.463 143.711 242.598 141.385 240.5 140.769C237.587 139.913 233.323 143.349 231.798 145.59C231.667 145.784 229.954 149.051 230.009 149.061C230.009 149.061 230.061 149.069 230.073 149.071C229.395 149.607 228.675 150.192 227.902 150.845C226.482 152.063 224.89 153.453 223.259 155.082C221.625 156.705 219.895 158.516 218.244 160.587C216.588 162.66 214.95 164.926 213.566 167.479C213.55 167.508 213.538 167.54 213.523 167.569C213.696 166.697 214.098 164.241 214.107 164.049C214.241 161.341 212.908 156.031 210.068 154.958C208.022 154.186 205.93 155.521 205.39 157.549C204.84 159.62 205.985 161.999 207.232 163.593C208.638 165.393 213.029 167.681 213.379 167.862C212.083 170.305 210.951 172.918 209.952 175.625C209.378 177.171 208.849 178.748 208.338 180.335C208.463 179.576 208.57 178.896 208.575 178.799C208.708 176.091 207.375 170.78 204.535 169.709C202.489 168.935 200.397 170.271 199.858 172.299C199.306 174.369 200.452 176.749 201.699 178.344C202.964 179.963 206.668 181.988 207.656 182.511C207.466 183.122 207.27 183.73 207.084 184.341C206.185 187.275 205.301 190.207 204.345 193.056C204.009 194.06 203.641 195.036 203.277 196.015C203.388 195.341 203.475 194.772 203.479 194.683C203.613 191.976 202.28 186.665 199.44 185.592C197.394 184.82 195.302 186.155 194.763 188.183C194.212 190.254 195.357 192.633 196.604 194.228C197.811 195.773 201.214 197.674 202.384 198.301C201.981 199.292 201.578 200.285 201.142 201.227C200.83 201.863 200.574 202.497 200.225 203.119C199.893 203.742 199.563 204.358 199.237 204.969C198.566 206.121 197.881 207.315 197.198 208.423C196.729 209.197 196.267 209.927 195.805 210.663C196.151 209.667 196.788 207.704 196.822 207.533C197.365 204.878 196.852 199.427 194.206 197.936C192.301 196.862 190.032 197.865 189.191 199.788C188.332 201.752 189.104 204.276 190.095 206.042C191.186 207.986 195.01 210.816 195.49 211.167C194.721 212.382 193.96 213.557 193.225 214.653C192.853 215.211 192.49 215.747 192.135 216.268L193.439 217.638C193.86 216.996 194.29 216.332 194.733 215.636C195.519 214.406 196.335 213.075 197.16 211.7C197.514 211.844 199.532 212.645 201.511 213.157C201.472 215.447 202.99 219.621 203.19 220.158C201.877 220.748 200.595 221.307 199.377 221.817C199.035 221.96 198.457 222.11 197.839 222.258L199.228 223.716C199.596 223.632 199.913 223.548 200.092 223.468C201.427 222.875 202.842 222.216 204.288 221.525C204.619 222.006 207.342 225.92 209.256 227.069C210.991 228.11 213.493 228.955 215.482 228.154C217.428 227.37 218.496 225.13 217.478 223.194C216.066 220.507 210.631 219.836 207.961 220.301C207.803 220.328 206.127 220.817 205.075 221.143C205.664 220.858 206.239 220.587 206.843 220.285C208.04 219.698 209.217 219.075 210.486 218.411C211.087 218.069 211.695 217.722 212.308 217.373C212.924 217.04 213.532 216.609 214.152 216.226C215.571 215.308 216.963 214.309 218.343 213.272C218.86 214.318 220.75 218.009 222.316 219.308C223.875 220.6 226.219 221.814 228.306 221.324C230.349 220.844 231.744 218.792 231.031 216.723C230.041 213.854 224.772 212.367 222.061 212.422C221.892 212.425 219.952 212.684 218.889 212.846C219.714 212.216 220.54 211.591 221.353 210.926C223.703 209.008 226.021 206.993 228.344 204.993C229.055 204.38 229.771 203.778 230.485 203.173C230.665 203.548 232.817 207.983 234.571 209.438C236.128 210.731 238.474 211.944 240.56 211.454C242.602 210.974 243.998 208.922 243.285 206.854C242.295 203.984 237.026 202.497 234.316 202.552C234.112 202.556 231.32 202.932 230.615 203.062C232.189 201.729 233.769 200.415 235.38 199.183C237.599 197.48 239.872 195.932 242.184 194.595C242.266 194.769 244.492 199.409 246.288 200.899C247.847 202.191 250.192 203.406 252.278 202.915C254.32 202.435 255.716 200.383 255.003 198.315C254.013 195.444 248.744 193.958 246.034 194.013C245.821 194.018 242.818 194.423 242.278 194.535C242.416 194.456 242.55 194.359 242.689 194.282C245.175 192.885 247.759 191.845 250.226 190.99C251.659 190.49 253.056 190.092 254.424 189.736C254.749 190.643 256.285 194.769 257.752 196.289C259.159 197.745 261.357 199.209 263.484 198.951C265.567 198.698 267.18 196.812 266.698 194.678C266.03 191.717 260.956 189.66 258.255 189.417C258.109 189.404 256.601 189.435 255.504 189.474C256.123 189.322 256.76 189.154 257.357 189.021C259.597 188.516 261.678 188.191 263.525 187.918C264.576 187.772 265.529 187.659 266.422 187.565C267.206 188.287 270.402 191.16 272.369 191.821C274.288 192.464 276.913 192.752 278.682 191.542C280.413 190.362 280.975 187.945 279.564 186.273Z" fill="#263238"/>
<path d="M254.722 189.247C254.735 189.301 257.87 187.356 258.053 187.211C260.179 185.527 263.296 181.026 262.231 178.183C261.464 176.134 259.082 175.441 257.201 176.371C255.28 177.321 254.245 179.749 253.866 181.738C253.421 184.073 254.722 189.243 254.722 189.247Z" fill="#263238"/>
<path d="M80.3469 151.165C79.4289 153.358 75.4929 156.953 75.4899 156.956C75.4491 156.993 73.9083 153.642 73.8357 153.42C72.9909 150.844 72.8745 145.37 75.3309 143.585C77.1003 142.3 79.4703 143.035 80.5263 144.848C81.6045 146.701 81.1281 149.297 80.3469 151.165Z" fill="#263238"/>
<path d="M17.3449 186.273C19.3021 183.953 24.7537 184.466 27.2623 185.495C27.4789 185.584 30.7093 187.364 30.6691 187.401C30.6691 187.401 30.6313 187.437 30.6217 187.445C31.4833 187.519 32.4049 187.609 33.4111 187.727C35.2669 187.96 37.3615 188.241 39.6205 188.7C41.8795 189.152 44.3209 189.708 46.8397 190.524C49.3657 191.34 51.9805 192.327 54.5437 193.692C54.5725 193.707 54.6007 193.728 54.6301 193.743C54.0043 193.111 52.3135 191.285 52.2001 191.13C50.5951 188.945 48.7765 183.78 50.5543 181.319C51.8347 179.546 54.3157 179.505 55.8847 180.899C57.4867 182.323 57.8437 184.938 57.6835 186.957C57.5035 189.233 55.1029 193.564 54.9109 193.908C57.3397 195.231 59.7247 196.785 62.0521 198.491C63.3841 199.466 64.6945 200.488 65.9959 201.53C65.4721 200.966 65.0083 200.458 64.9513 200.379C63.3457 198.194 61.5283 193.031 63.3055 190.569C64.5859 188.795 67.0669 188.756 68.6353 190.149C70.2379 191.573 70.5949 194.188 70.4347 196.207C70.2721 198.255 68.2999 201.989 67.7647 202.97C68.2597 203.374 68.7589 203.774 69.2521 204.18C71.6203 206.132 73.9747 208.089 76.3429 209.939C77.1769 210.591 78.0229 211.202 78.8665 211.817C78.4027 211.316 78.0157 210.889 77.9635 210.818C76.3585 208.633 74.5399 203.469 76.3171 201.008C77.5981 199.234 80.0791 199.194 81.6481 200.588C83.2501 202.011 83.6071 204.627 83.4469 206.646C83.2921 208.6 81.5029 212.063 80.8723 213.231C81.7555 213.835 82.6387 214.441 83.5225 214.986C84.1339 215.345 84.6973 215.732 85.3315 216.059C85.9519 216.395 86.5669 216.727 87.1759 217.056C88.3717 217.647 89.6017 218.265 90.7825 218.813C91.6015 219.2 92.3887 219.553 93.1801 219.912C92.3425 219.272 90.7279 217.986 90.6049 217.863C89.3311 216.59 87.7711 214.032 87.2695 211.664C87.0805 211.478 86.9083 211.275 86.7565 211.056C85.5661 209.328 85.9105 206.87 87.8275 205.817C90.4885 204.356 95.3911 206.793 97.3615 208.655C97.4779 208.764 98.6059 210.097 99.3043 210.949C98.9707 210.385 98.6395 209.843 98.3029 209.258C97.6291 208.107 96.9907 206.939 96.2977 205.685C95.9851 205.068 95.6695 204.444 95.3503 203.814C95.0209 203.196 94.7509 202.502 94.4455 201.84C93.7693 200.293 93.1585 198.691 92.5801 197.064C91.5703 197.652 87.9577 199.688 85.9357 199.907C83.9227 200.126 81.2971 199.844 79.8283 198.284C78.3895 196.756 78.3571 194.276 80.0923 192.944C82.5007 191.096 87.7165 192.762 89.9467 194.304C90.0859 194.4 91.5613 195.686 92.3587 196.407C92.0185 195.427 91.6735 194.45 91.3615 193.446C90.4597 190.55 89.6371 187.591 88.8037 184.641C88.5487 183.738 88.2841 182.841 88.0231 181.942C87.6661 182.155 83.4235 184.667 81.1585 184.913C79.1461 185.132 76.5205 184.851 75.0511 183.291C73.6123 181.764 73.5805 179.282 75.3157 177.951C77.7241 176.102 82.9393 177.77 85.1701 179.31C85.3381 179.427 87.4591 181.28 87.9751 181.778C87.3985 179.798 86.8051 177.83 86.1415 175.914C85.2295 173.27 84.1885 170.725 82.9975 168.335C82.8313 168.434 78.4153 171.075 76.0957 171.328C74.0827 171.546 71.4577 171.266 69.9883 169.706C68.5495 168.178 68.5171 165.697 70.2529 164.366C72.6613 162.518 77.8765 164.184 80.1073 165.726C80.2825 165.846 82.5631 167.842 82.9507 168.233C82.8799 168.092 82.8223 167.936 82.7497 167.796C81.4453 165.26 79.8637 162.966 78.2779 160.892C77.3587 159.685 76.4125 158.583 75.4681 157.531C74.6959 158.108 71.1385 160.703 69.0763 161.16C67.0987 161.598 64.4593 161.607 62.8273 160.218C61.2295 158.858 60.9247 156.395 62.5033 154.881C64.6945 152.78 70.0615 153.864 72.4471 155.151C72.5773 155.221 73.8175 156.078 74.7115 156.716C74.2777 156.248 73.8391 155.756 73.4149 155.316C71.8261 153.66 70.2685 152.24 68.8795 150.994C68.0833 150.291 67.3501 149.673 66.6577 149.101C65.6047 149.271 61.3543 149.904 59.3497 149.37C57.3931 148.848 55.0459 147.639 54.2383 145.655C53.4469 143.711 54.3121 141.385 56.4097 140.769C59.3227 139.913 63.5863 143.349 65.1115 145.59C65.2423 145.784 66.9547 149.051 66.9001 149.061C66.9001 149.061 66.8485 149.069 66.8371 149.071C67.5145 149.607 68.2345 150.192 69.0079 150.845C70.4275 152.063 72.0199 153.453 73.6507 155.082C75.2851 156.705 77.0149 158.516 78.6649 160.587C80.3215 162.66 81.9589 164.926 83.3431 167.479C83.3587 167.508 83.3713 167.54 83.3863 167.569C83.2135 166.697 82.8115 164.241 82.8019 164.049C82.6681 161.341 84.0013 156.031 86.8411 154.958C88.8877 154.186 90.9793 155.521 91.5187 157.549C92.0695 159.62 90.9241 161.999 89.6773 163.593C88.2709 165.393 83.8801 167.681 83.5297 167.862C84.8257 170.305 85.9579 172.918 86.9575 175.625C87.5311 177.171 88.0603 178.748 88.5709 180.335C88.4455 179.576 88.3393 178.896 88.3345 178.799C88.2007 176.091 89.5339 170.78 92.3743 169.709C94.4203 168.935 96.5119 170.271 97.0513 172.299C97.6027 174.369 96.4573 176.749 95.2105 178.344C93.9451 179.963 90.2407 181.988 89.2531 182.511C89.4427 183.122 89.6389 183.73 89.8255 184.341C90.7243 187.275 91.6087 190.207 92.5639 193.056C92.8999 194.06 93.2677 195.036 93.6325 196.015C93.5215 195.341 93.4345 194.772 93.4297 194.683C93.2959 191.976 94.6291 186.665 97.4689 185.592C99.5149 184.82 101.606 186.155 102.146 188.183C102.697 190.254 101.552 192.633 100.305 194.228C99.0973 195.773 95.6947 197.674 94.5241 198.301C94.9279 199.292 95.3305 200.285 95.7661 201.227C96.0781 201.863 96.3343 202.497 96.6835 203.119C97.0159 203.742 97.3459 204.358 97.6717 204.969C98.3425 206.121 99.0277 207.315 99.7105 208.423C100.18 209.197 100.641 209.927 101.104 210.663C100.757 209.667 100.121 207.704 100.086 207.533C99.5431 204.878 100.057 199.427 102.702 197.936C104.608 196.862 106.877 197.865 107.718 199.788C108.576 201.752 107.805 204.276 106.814 206.042C105.723 207.986 101.898 210.816 101.418 211.167C102.188 212.382 102.948 213.557 103.683 214.653C104.055 215.211 104.418 215.747 104.775 216.268L103.47 217.638C103.049 216.996 102.619 216.332 102.177 215.636C101.39 214.406 100.574 213.075 99.7489 211.7C99.3949 211.844 97.3771 212.645 95.3983 213.157C95.4373 215.447 93.9187 219.621 93.7195 220.158C95.0317 220.748 96.3139 221.307 97.5325 221.817C97.8739 221.96 98.4523 222.11 99.0703 222.258L97.6813 223.716C97.3129 223.632 96.9961 223.548 96.8173 223.468C95.4823 222.875 94.0669 222.216 92.6209 221.525C92.2903 222.006 89.5675 225.92 87.6535 227.069C85.9171 228.11 83.4157 228.955 81.4273 228.154C79.4815 227.37 78.4129 225.13 79.4311 223.194C80.8435 220.507 86.2777 219.836 88.9483 220.301C89.1061 220.328 90.7819 220.817 91.8343 221.143C91.2451 220.858 90.6697 220.587 90.0661 220.285C88.8691 219.698 87.6919 219.075 86.4235 218.411C85.8217 218.069 85.2145 217.722 84.6007 217.373C83.9851 217.04 83.3767 216.609 82.7575 216.226C81.3385 215.308 79.9465 214.309 78.5665 213.272C78.0487 214.318 76.1587 218.009 74.5927 219.308C73.0339 220.6 70.6897 221.814 68.6035 221.324C66.5605 220.844 65.1649 218.792 65.8777 216.723C66.8677 213.854 72.1369 212.367 74.8477 212.422C75.0163 212.425 76.9567 212.684 78.0199 212.846C77.1949 212.216 76.3687 211.591 75.5551 210.926C73.2055 209.008 70.8871 206.993 68.5645 204.993C67.8535 204.38 67.1377 203.778 66.4237 203.173C66.2431 203.548 64.0915 207.983 62.3377 209.438C60.7795 210.731 58.4347 211.944 56.3485 211.454C54.3061 210.974 52.9105 208.922 53.6233 206.854C54.6127 203.984 59.8825 202.497 62.5927 202.552C62.7967 202.556 65.5885 202.932 66.2935 203.062C64.7197 201.729 63.1399 200.415 61.5289 199.183C59.3095 197.48 57.0373 195.932 54.7249 194.595C54.6415 194.769 52.4161 199.409 50.6203 200.899C49.0615 202.191 46.7167 203.406 44.6305 202.915C42.5881 202.435 41.1925 200.383 41.9053 198.315C42.8953 195.444 48.1645 193.958 50.8753 194.013C51.0877 194.018 54.0913 194.423 54.6307 194.535C54.4927 194.456 54.3589 194.359 54.2203 194.282C51.7339 192.885 49.1497 191.845 46.6825 190.99C45.2497 190.49 43.8523 190.092 42.4849 189.736C42.1591 190.643 40.6237 194.769 39.1555 196.289C37.7485 197.745 35.5513 199.209 33.4237 198.951C31.3405 198.698 29.7283 196.812 30.2095 194.678C30.8779 191.717 35.9521 189.66 38.6521 189.417C38.7985 189.404 40.3063 189.435 41.4037 189.474C40.7839 189.322 40.1473 189.154 39.5503 189.021C37.3105 188.516 35.2291 188.191 33.3829 187.918C32.3323 187.772 31.3789 187.659 30.4855 187.565C29.7025 188.287 26.5057 191.16 24.5389 191.821C22.6195 192.464 19.9951 192.752 18.2257 191.542C16.4965 190.362 15.9343 187.945 17.3449 186.273Z" fill="#263238"/>
<path d="M42.1853 189.247C42.1715 189.301 39.0377 187.356 38.8541 187.211C36.7289 185.527 33.6119 181.026 34.6763 178.183C35.4431 176.134 37.8251 175.441 39.7067 176.371C41.6273 177.321 42.6629 179.749 43.0415 181.738C43.4861 184.073 42.1859 189.243 42.1853 189.247Z" fill="#263238"/>
<path d="M149.735 275.888C175.369 275.888 196.15 273.375 196.15 270.275C196.15 267.175 175.369 264.662 149.735 264.662C124.101 264.662 103.32 267.175 103.32 270.275C103.32 273.375 124.101 275.888 149.735 275.888Z" fill="#263238"/>
<path d="M266.318 239.832H235.754V250.619H266.318V239.832Z" stroke="#263238" stroke-miterlimit="10" stroke-linecap="round" stroke-linejoin="round"/>
<path d="M265.358 250.6H236.715V267.973H265.358V250.6Z" stroke="#263238" stroke-miterlimit="10" stroke-linecap="round" stroke-linejoin="round"/>
<path d="M254.319 239.889H247.754V268.126H254.319V239.889Z" stroke="#263238" stroke-miterlimit="10" stroke-linecap="round" stroke-linejoin="round"/>
<path d="M250.812 239.828C250.812 239.828 247.53 232.923 243.681 233.716C239.833 234.508 241.757 240.168 250.812 239.828Z" stroke="#263238" stroke-miterlimit="10" stroke-linecap="round" stroke-linejoin="round"/>
<path d="M251.086 239.828C251.086 239.828 254.369 232.923 258.217 233.716C262.065 234.508 260.141 240.168 251.086 239.828Z" stroke="#263238" stroke-miterlimit="10" stroke-linecap="round" stroke-linejoin="round"/>
<path d="M259.643 225.227C259.869 226.811 259.077 228.509 256.7 229.528C254.323 230.547 253.078 227.717 250.588 230.321C248.098 232.924 251.088 239.828 251.088 239.828C251.088 239.828 259.304 238.696 259.643 241.866C259.983 245.035 257.379 246.507 258.172 248.431C258.964 250.355 261.455 248.997 261.681 246.846" stroke="#263238" stroke-miterlimit="10" stroke-linecap="round" stroke-linejoin="round"/>
<path d="M256.692 54.8663C265.315 54.8663 272.306 47.8757 272.306 39.2525C272.306 30.6292 265.315 23.6387 256.692 23.6387C248.069 23.6387 241.078 30.6292 241.078 39.2525C241.078 47.8757 248.069 54.8663 256.692 54.8663Z" stroke="#263238" stroke-miterlimit="10" stroke-linecap="round" stroke-linejoin="round"/>
<path d="M256.781 51.8976V49.7742C255.044 49.7064 253.75 49.1424 252.899 48.0804C252.048 47.0184 251.581 45.51 251.496 43.5546L254.732 42.9228C254.767 43.7154 254.859 44.4144 255.011 45.0216C255.163 45.6282 255.403 46.0956 255.731 46.4244C256.06 46.7532 256.494 46.9176 257.033 46.9176C257.641 46.9176 258.074 46.737 258.335 46.374C258.596 46.0116 258.727 45.552 258.727 44.9958C258.727 44.103 258.52 43.3698 258.108 42.7962C257.695 42.2232 257.16 41.6502 256.502 41.0772L253.898 38.802C253.426 38.3808 253.013 37.9386 252.659 37.4748C252.305 37.0116 252.026 36.489 251.824 35.9076C251.622 35.3262 251.521 34.6476 251.521 33.8724C251.521 32.3388 251.959 31.1376 252.835 30.2694C253.712 29.4018 254.891 28.9254 256.375 28.8408V26.793H257.462V28.8156C258.322 28.866 259.03 29.0556 259.586 29.3844C260.142 29.7132 260.585 30.1344 260.913 30.6486C261.242 31.1628 261.486 31.74 261.647 32.3802C261.807 33.021 261.904 33.6864 261.937 34.3776L258.751 34.9338C258.717 34.2936 258.65 33.7164 258.549 33.2022C258.448 32.6886 258.259 32.2836 257.98 31.9884C257.702 31.6938 257.293 31.563 256.754 31.5966C256.181 31.6134 255.746 31.7988 255.452 32.1528C255.157 32.5068 255.01 32.9538 255.01 33.4926C255.01 34.2174 255.17 34.8036 255.49 35.25C255.81 35.697 256.206 36.1392 256.678 36.5772L259.257 38.8272C259.796 39.3162 260.297 39.8472 260.762 40.4202C261.225 40.9938 261.596 41.634 261.874 42.342C262.153 43.05 262.291 43.8588 262.291 44.769C262.291 45.6792 262.11 46.4928 261.748 47.2086C261.385 47.925 260.876 48.5022 260.218 48.9402C259.561 49.3788 258.777 49.6482 257.867 49.7496V51.8982L256.781 51.8976Z" fill="#263238"/>
<path d="M57.9445 38.9091C60.7228 38.2608 62.4496 35.4831 61.8014 32.7047C61.1532 29.9264 58.3754 28.1995 55.5971 28.8478C52.8187 29.496 51.0919 32.2738 51.7401 35.0521C52.3883 37.8305 55.1661 39.5573 57.9445 38.9091Z" stroke="#263238" stroke-miterlimit="10" stroke-linecap="round" stroke-linejoin="round"/>
<path d="M64.1554 48.7402C64.0168 43.9966 60.7696 40.1992 56.773 40.1992C52.777 40.1992 49.5292 43.9966 49.3906 48.7402" stroke="#263238" stroke-miterlimit="10" stroke-linecap="round" stroke-linejoin="round"/>
<path d="M68.653 37.2981C71.0243 37.2981 72.9466 35.3758 72.9466 33.0045C72.9466 30.6332 71.0243 28.7109 68.653 28.7109C66.2817 28.7109 64.3594 30.6332 64.3594 33.0045C64.3594 35.3758 66.2817 37.2981 68.653 37.2981Z" stroke="#263238" stroke-miterlimit="10" stroke-linecap="round" stroke-linejoin="round"/>
<path d="M74.7878 45.3564C74.6726 41.4138 71.9738 38.2578 68.6522 38.2578C66.4808 38.2578 64.5758 39.6066 63.4844 41.6424" stroke="#263238" stroke-miterlimit="10" stroke-linecap="round" stroke-linejoin="round"/>
<path d="M45.0397 37.2981C47.411 37.2981 49.3333 35.3758 49.3333 33.0045C49.3333 30.6332 47.411 28.7109 45.0397 28.7109C42.6684 28.7109 40.7461 30.6332 40.7461 33.0045C40.7461 35.3758 42.6684 37.2981 45.0397 37.2981Z" stroke="#263238" stroke-miterlimit="10" stroke-linecap="round" stroke-linejoin="round"/>
<path d="M38.9023 45.3564C39.0175 41.4138 41.7163 38.2578 45.0379 38.2578C47.2093 38.2578 49.1143 39.6066 50.2057 41.6424" stroke="#263238" stroke-miterlimit="10" stroke-linecap="round" stroke-linejoin="round"/>
<path d="M55.4018 262.846C63.9155 261.476 69.7072 253.464 68.3378 244.951C66.9684 236.437 58.9566 230.645 50.4428 232.015C41.9291 233.384 36.1374 241.396 37.5068 249.91C38.8762 258.423 46.888 264.215 55.4018 262.846Z" stroke="#263238" stroke-miterlimit="10" stroke-linecap="round" stroke-linejoin="round"/>
<path d="M52.9141 238.652V256.218" stroke="#263238" stroke-width="4" stroke-miterlimit="10" stroke-linecap="round" stroke-linejoin="round"/>
<path d="M61.6984 247.436H44.1328" stroke="#263238" stroke-width="4" stroke-miterlimit="10" stroke-linecap="round" stroke-linejoin="round"/>
<path d="M198.959 54.1814V236.253C198.959 241.25 194.908 245.301 189.911 245.301H111.24C106.243 245.301 102.191 241.25 102.191 236.253V54.1766C102.191 49.1816 106.24 45.1328 111.235 45.1328H145.003L145.031 45.236C145.873 48.2642 147.811 50.2346 149.96 50.2346H151.192C153.341 50.2346 155.278 48.2642 156.12 45.236L156.153 45.1328H189.911C194.908 45.1328 198.959 49.184 198.959 54.1814Z" fill="white" stroke="#263238" stroke-miterlimit="10" stroke-linecap="round" stroke-linejoin="round"/>
<path d="M205.114 97.669V79.4836H203.468V56.2024C203.468 48.277 197.044 41.8516 189.118 41.8516H112.034C104.109 41.8516 97.6836 48.2764 97.6836 56.2024V241.202C97.6836 249.128 104.108 255.552 112.034 255.552H189.118C197.044 255.552 203.469 249.128 203.469 241.202V113.168H205.114V102.422H203.469V97.669H205.114ZM198.96 230.95C198.96 238.878 192.532 245.302 184.608 245.302H116.544C108.62 245.302 102.192 238.878 102.192 230.95V59.4808C102.192 51.5572 108.62 45.1336 116.544 45.1336H145.004L145.032 45.2368C145.874 48.265 147.811 50.2354 149.96 50.2354H151.192C153.341 50.2354 155.279 48.265 156.121 45.2368L156.154 45.1336H184.609C192.532 45.1336 198.961 51.5572 198.961 59.4808V230.95H198.96Z" fill="#F46036" stroke="#263238" stroke-miterlimit="10" stroke-linecap="round" stroke-linejoin="round"/>
<path d="M187.965 43.8281H113.184C105.54 43.8281 99.3438 50.0249 99.3438 57.6683V239.734C99.3438 247.378 105.54 253.574 113.184 253.574H187.966C195.61 253.574 201.806 247.378 201.806 239.734V57.6683C201.806 50.0249 195.609 43.8281 187.965 43.8281ZM198.958 231.46C198.958 239.105 192.761 245.302 185.117 245.302H116.032C108.387 245.302 102.19 239.104 102.19 231.46V58.9703C102.19 51.3281 108.385 45.1331 116.027 45.1331H145.001L145.03 45.2363C145.871 48.2645 147.809 50.2349 149.958 50.2349H151.19C153.339 50.2349 155.276 48.2645 156.118 45.2363L156.151 45.1331H185.116C192.761 45.1331 198.958 51.3305 198.958 58.9751V231.46H198.958Z" fill="#263238" stroke="#263238" stroke-miterlimit="10" stroke-linecap="round" stroke-linejoin="round"/>
<path d="M151.628 45.8197C151.628 45.0757 151.025 44.4727 150.281 44.4727C149.537 44.4727 148.934 45.0757 148.934 45.8197C148.934 46.5637 149.537 47.1667 150.281 47.1667C151.025 47.1667 151.628 46.5637 151.628 45.8197Z" fill="white"/>
<path d="M110.793 50.9821C110.793 52.3453 109.262 52.8361 109.256 53.8759V53.9467H110.741V54.4057H108.758V54.0181C108.758 52.5583 110.289 52.2739 110.289 51.0013C110.289 50.5363 110.134 50.2909 109.759 50.2909C109.391 50.2909 109.229 50.5555 109.229 50.9557V51.3559H108.758V50.9881C108.758 50.2969 109.074 49.8379 109.772 49.8379C110.477 49.8391 110.793 50.2915 110.793 50.9821Z" fill="#263238"/>
<path d="M113.269 50.9762V51.092C113.269 51.5576 113.082 51.887 112.72 52.022C113.1 52.1642 113.269 52.5068 113.269 52.9586V53.3072C113.269 53.9984 112.946 54.4508 112.248 54.4508C111.557 54.4508 111.234 53.9984 111.234 53.3072V52.9976H111.706V53.3402C111.706 53.747 111.874 53.9924 112.236 53.9924C112.604 53.9924 112.766 53.7536 112.766 53.2952V52.9466C112.766 52.5008 112.578 52.2878 112.197 52.2752H111.926V51.8228H112.223C112.559 51.8096 112.766 51.5966 112.766 51.203V50.996C112.766 50.531 112.604 50.2922 112.236 50.2922C111.874 50.2922 111.706 50.5436 111.706 50.951V51.1832H111.234V50.9768C111.234 50.2856 111.557 49.8398 112.248 49.8398C112.946 49.8392 113.269 50.285 113.269 50.9762Z" fill="#263238"/>
<path d="M114.243 51.3184V51.9454H113.758V51.3184H114.243ZM114.243 53.7796V54.4066H113.758V53.7796H114.243Z" fill="#263238"/>
<path d="M115.265 51.7256C115.407 51.4802 115.633 51.3506 115.937 51.3506C116.518 51.3506 116.776 51.7772 116.776 52.4228V53.3078C116.776 53.999 116.447 54.4514 115.756 54.4514C115.065 54.4514 114.742 53.999 114.742 53.3078V53.0042H115.214V53.3402C115.214 53.747 115.382 53.9924 115.744 53.9924C116.105 53.9924 116.273 53.747 116.273 53.3402V52.4618C116.273 52.055 116.105 51.809 115.744 51.809C115.466 51.809 115.279 51.9644 115.234 52.2938V52.3976H114.762L114.884 49.8848H116.667V50.3372H115.336L115.265 51.7256Z" fill="#263238"/>
<path d="M119.291 50.9702V51.0542H118.82V50.9384C118.82 50.531 118.652 50.2928 118.284 50.2928C117.902 50.2928 117.734 50.5382 117.734 51.0224V52.0364C117.857 51.7268 118.103 51.5522 118.465 51.5522C119.046 51.5522 119.305 51.9722 119.305 52.6244V53.309C119.305 54.0002 118.962 54.4526 118.271 54.4526C117.573 54.4526 117.23 54.0002 117.23 53.309V51.0026C117.23 50.2856 117.554 49.8398 118.271 49.8398C118.969 49.8398 119.291 50.279 119.291 50.9702ZM117.735 52.6628V53.3408C117.735 53.7476 117.903 53.993 118.271 53.993C118.633 53.993 118.807 53.7476 118.807 53.3408V52.6628C118.807 52.256 118.633 52.01 118.271 52.01C117.903 52.01 117.735 52.2554 117.735 52.6628Z" fill="#263238"/>
<path d="M168.652 51.168H167.375V54.36H168.652V51.168Z" fill="#263238"/>
<path d="M170.355 50.5293H169.078V54.3603H170.355V50.5293Z" fill="#263238"/>
<path d="M172.058 50.0742H170.781V54.3594H172.058V50.0742Z" fill="#263238"/>
<path d="M173.757 49.2852H172.48V54.36H173.757V49.2852Z" fill="#263238"/>
<path d="M189.559 54.273H181.898V49.5918H189.559V54.273ZM182.324 53.847H189.133V50.0166H182.324V53.847Z" fill="#263238"/>
<path d="M187.004 50.4805H182.961V53.3845H187.004V50.4805Z" fill="#263238"/>
<path d="M190.257 51.3809H189.293V52.4837H190.257V51.3809Z" fill="#263238"/>
<path d="M179.088 53.2532C179.038 53.2532 178.987 53.2406 178.941 53.213C177.383 52.2866 176.352 53.1464 176.309 53.183C176.19 53.2862 176.01 53.273 175.907 53.1542C175.803 53.0354 175.814 52.8566 175.933 52.7522C175.988 52.7036 177.306 51.575 179.235 52.721C179.37 52.8014 179.415 52.9772 179.334 53.1134C179.28 53.2034 179.185 53.2532 179.088 53.2532Z" fill="#263238"/>
<path d="M179.667 52.2925C179.617 52.2925 179.566 52.2799 179.521 52.2523C177.266 50.9119 175.752 52.2085 175.736 52.2211C175.618 52.3261 175.437 52.3141 175.333 52.1953C175.229 52.0765 175.24 51.8959 175.359 51.7921C175.377 51.7753 177.204 50.2105 179.814 51.7609C179.949 51.8413 179.995 52.0171 179.914 52.1533C179.859 52.2427 179.764 52.2925 179.667 52.2925Z" fill="#263238"/>
<path d="M180.187 51.1792C180.137 51.1792 180.086 51.1666 180.041 51.139C177.186 49.4416 175.288 51.0394 175.208 51.109C175.09 51.2122 174.908 51.1996 174.805 51.0814C174.701 50.9626 174.713 50.7832 174.832 50.6788C174.854 50.6584 177.109 48.73 180.334 50.6476C180.469 50.728 180.514 50.9038 180.433 51.04C180.38 51.1294 180.284 51.1792 180.187 51.1792Z" fill="#263238"/>
<path d="M178.228 53.7332C178.228 54.1298 177.907 54.4508 177.511 54.4508C177.114 54.4508 176.793 54.1298 176.793 53.7332C176.793 53.3366 177.115 53.0156 177.511 53.0156C177.907 53.015 178.228 53.3366 178.228 53.7332Z" fill="#263238"/>
<path d="M55.4883 78.3066H62.4855" stroke="#263238" stroke-miterlimit="10" stroke-linecap="round" stroke-linejoin="round"/>
<path d="M109.719 78.3066H116.717" stroke="#263238" stroke-miterlimit="10" stroke-linecap="round" stroke-linejoin="round"/>
<path d="M62.4844 59.9395L66.421 63.0013" stroke="#263238" stroke-miterlimit="10" stroke-linecap="round" stroke-linejoin="round"/>
<path d="M108.843 59.9395L104.906 63.0013" stroke="#263238" stroke-miterlimit="10" stroke-linecap="round" stroke-linejoin="round"/>
<path d="M78.2305 52.5039L78.6679 59.0637" stroke="#263238" stroke-miterlimit="10" stroke-linecap="round" stroke-linejoin="round"/>
<path d="M93.5389 53.3789L92.6641 59.0639" stroke="#263238" stroke-miterlimit="10" stroke-linecap="round" stroke-linejoin="round"/>
<path d="M103.46 70.1133H65.6992V102.702H103.46V70.1133Z" fill="white" stroke="#263238" stroke-miterlimit="10" stroke-linecap="round" stroke-linejoin="round"/>
<path d="M79.7242 70.1133H72.6016V102.702H79.7242V70.1133Z" fill="#F46036" stroke="#263238" stroke-miterlimit="10" stroke-linecap="round" stroke-linejoin="round"/>
<path d="M103.462 70.1133H86.9102V102.702H103.462V70.1133Z" fill="white" stroke="#263238" stroke-miterlimit="10" stroke-linecap="round" stroke-linejoin="round"/>
<path d="M81.9162 67.4571L76.3824 65.0343C76.233 65.0133 76.0986 65.0097 75.972 65.0133L75.8802 64.9707H70.3086L74.6502 67.0065C74.6718 67.3107 74.7222 67.6203 74.79 67.9155C75.0456 69.0231 76.0848 69.5673 76.7652 69.8109L76.7994 69.9819H77.3616C77.3676 69.9831 77.3766 69.9849 77.3766 69.9849L87.0174 70.1145C87.0174 70.1145 84.5436 68.7855 81.9162 67.4571Z" fill="#F46036" stroke="#263238" stroke-miterlimit="10" stroke-linecap="round" stroke-linejoin="round"/>
<path d="M81.4755 70.1148C81.4755 70.1148 75.4557 66.882 72.2223 65.4594C68.9895 64.0368 68.8599 66.2352 69.2481 67.9164C69.6363 69.5976 71.8347 69.9852 71.8347 69.9852L81.4755 70.1148Z" fill="#F46036" stroke="#263238" stroke-miterlimit="10" stroke-linecap="round" stroke-linejoin="round"/>
<path d="M82.9052 67.7559H80.7854C79.5146 67.7559 78.4844 68.7861 78.4844 70.0569H85.2062C85.2068 68.7867 84.1766 67.7559 82.9052 67.7559Z" fill="#F46036" stroke="#263238" stroke-miterlimit="10" stroke-linecap="round" stroke-linejoin="round"/>
<path d="M96.1428 65.036H91.2468L90.609 67.4588C87.9816 68.7872 85.5078 70.1156 85.5078 70.1156L95.1486 69.986C95.1486 69.986 95.1576 69.9842 95.1636 69.983H95.7258L95.76 69.812C96.441 69.5684 97.4796 69.0236 97.7352 67.9166C98.0574 66.521 98.0166 64.7744 96.1428 65.036Z" fill="#F46036" stroke="#263238" stroke-miterlimit="10" stroke-linecap="round" stroke-linejoin="round"/>
<path d="M79.7266 70.1148C79.7266 70.1148 85.7464 66.882 88.9798 65.4594C92.2126 64.0368 92.3422 66.2352 91.954 67.9164C91.5658 69.5976 89.3674 69.9852 89.3674 69.9852L79.7266 70.1148Z" fill="#F46036" stroke="#263238" stroke-miterlimit="10" stroke-linecap="round" stroke-linejoin="round"/>
<path d="M66.9318 104.972C66.9318 104.972 63.7758 102.869 64.4658 102.206C65.1558 101.543 68.5428 103.001 69.315 103.987C70.0872 104.972 69.6984 105.662 69.0624 105.722C68.4258 105.783 66.9318 104.972 66.9318 104.972Z" fill="white" stroke="#263238" stroke-miterlimit="10" stroke-linecap="round" stroke-linejoin="round"/>
<path d="M69.5943 102.556C69.5943 102.556 64.7031 100.012 65.8773 102.36C67.0509 104.708 69.9855 106.86 71.1597 107.447C72.3339 108.034 78.7893 107.838 78.7893 107.838C78.7893 107.838 77.6157 105.686 76.4415 105.099C75.2673 104.512 69.5943 102.556 69.5943 102.556Z" fill="white" stroke="#263238" stroke-miterlimit="10" stroke-linecap="round" stroke-linejoin="round"/>
<path d="M74.2897 102.556C74.2897 102.556 67.8337 99.0348 67.6381 100.404C67.4425 101.774 72.7249 106.273 74.4853 107.056C76.2463 107.838 78.7891 107.838 78.7891 107.838L74.2897 102.556Z" fill="white" stroke="#263238" stroke-miterlimit="10" stroke-linecap="round" stroke-linejoin="round"/>
<path d="M99.7205 108.582C99.7205 108.582 97.3727 103.104 95.6123 102.322C93.8513 101.54 78.0047 103.104 78.0047 103.104C78.0047 103.104 70.3745 96.8439 70.9619 99.9741C71.5487 103.104 76.4399 106.821 77.8091 107.8C79.1783 108.778 89.3519 108.387 89.3519 108.387L92.4821 111.321L99.7205 108.582Z" fill="white" stroke="#263238" stroke-miterlimit="10" stroke-linecap="round" stroke-linejoin="round"/>
<path d="M196.034 117.396C196.034 117.396 195.39 118.593 195.758 119.698C196.127 120.803 197.139 121.724 197.139 121.724L197.6 124.579L203.861 124.855L201.283 115.277L196.034 117.396Z" fill="white" stroke="#263238" stroke-miterlimit="10" stroke-linecap="round" stroke-linejoin="round"/>
<path d="M191.773 99.5857C191.773 99.5857 194.386 116.565 194.778 117.61C195.169 118.655 198.174 119.831 199.218 119.308C200.263 118.786 198.435 116.304 198.435 116.304L198.957 99.9775C198.957 99.9775 194.517 98.2795 191.773 99.5857Z" fill="#263238" stroke="#263238" stroke-miterlimit="10" stroke-linecap="round" stroke-linejoin="round"/>
<path d="M199.091 104.94C199.091 104.94 195.434 104.679 195.303 105.332C195.172 105.985 195.172 108.205 195.825 108.467C196.479 108.728 200.919 109.12 201.703 108.859C202.487 108.598 203.401 107.03 202.617 105.855C201.833 104.679 199.091 104.94 199.091 104.94Z" fill="white" stroke="#263238" stroke-miterlimit="10" stroke-linecap="round" stroke-linejoin="round"/>
<path d="M199.087 109.12C199.087 109.12 195.56 109.12 195.691 109.904C195.822 110.688 195.43 112.386 196.866 112.647C198.303 112.908 200.785 112.777 202.091 112.516C203.397 112.255 203.789 110.687 202.744 109.773C201.699 108.859 199.087 109.12 199.087 109.12Z" fill="white" stroke="#263238" stroke-miterlimit="10" stroke-linecap="round" stroke-linejoin="round"/>
<path d="M193.421 110.126C193.421 110.126 192.972 106.833 191.909 106.926C191.118 106.995 189.226 107.59 189.398 109.04C189.571 110.49 190.424 112.823 191.058 113.995C191.692 115.167 193.305 115.08 193.871 113.813C194.438 112.546 193.421 110.126 193.421 110.126Z" fill="white" stroke="#263238" stroke-miterlimit="10" stroke-linecap="round" stroke-linejoin="round"/>
<path d="M199.287 112.647C199.287 112.647 196.096 112.647 196.214 113.4C196.332 114.154 195.978 115.786 197.278 116.038C198.578 116.289 200.823 116.163 202.005 115.912C203.187 115.661 203.541 114.154 202.596 113.275C201.651 112.395 199.287 112.647 199.287 112.647Z" fill="white" stroke="#263238" stroke-miterlimit="10" stroke-linecap="round" stroke-linejoin="round"/>
<path d="M199.436 115.514C199.436 115.514 196.767 115.514 196.866 116.145C196.965 116.775 196.668 118.141 197.756 118.351C198.844 118.561 200.722 118.456 201.71 118.246C202.699 118.036 202.996 116.775 202.205 116.04C201.413 115.304 199.436 115.514 199.436 115.514Z" fill="white" stroke="#263238" stroke-miterlimit="10" stroke-linecap="round" stroke-linejoin="round"/>
<path d="M191.048 82.4037C187.363 82.3317 184.2 84.6363 182.836 87.8253C182.375 88.9029 182.121 90.0873 182.121 91.3335C182.121 93.5007 182.892 95.4885 184.176 97.0323C185.812 99.0081 188.497 100.42 191.047 100.263C198.885 99.7809 219.427 110.783 219.427 110.783V71.8809C219.427 71.8809 199.18 82.5633 191.048 82.4037Z" fill="white" stroke="#263238" stroke-miterlimit="10" stroke-linecap="round" stroke-linejoin="round"/>
<path d="M189.455 91.65C189.455 87.4158 191.813 83.733 195.287 81.8418C193.684 82.2132 192.235 82.4262 191.048 82.4028C187.363 82.3308 184.2 84.6354 182.836 87.8244C182.375 88.902 182.121 90.0864 182.121 91.3326C182.121 93.4998 182.891 95.4876 184.176 97.0314C185.812 99.0072 188.497 100.419 191.047 100.262C191.833 100.213 192.752 100.285 193.76 100.445C191.144 98.403 189.455 95.2272 189.455 91.65Z" fill="#F46036" stroke="#263238" stroke-miterlimit="10" stroke-linecap="round" stroke-linejoin="round"/>
<path d="M238.319 95.9346C240.859 85.4973 234.458 74.9767 224.02 72.4361C213.583 69.8956 203.063 76.2971 200.522 86.7344C197.981 97.1717 204.383 107.692 214.82 110.233C225.258 112.773 235.778 106.372 238.319 95.9346Z" fill="white" stroke="#263238" stroke-miterlimit="10" stroke-linecap="round" stroke-linejoin="round"/>
<path d="M236.006 91.3337C236.006 100.49 228.582 107.914 219.426 107.914C214.294 107.914 209.705 105.583 206.668 101.915C204.283 99.0479 202.852 95.3579 202.852 91.3337C202.852 89.0201 203.323 86.8211 204.178 84.8201C206.711 78.8987 212.584 74.7539 219.426 74.7539C228.583 74.7539 236.006 82.1777 236.006 91.3337Z" fill="#A6A6A6" stroke="#263238" stroke-miterlimit="10" stroke-linecap="round" stroke-linejoin="round"/>
<path d="M219.426 87.2815V95.3797L206.668 101.916C204.283 99.0481 202.852 95.3581 202.852 91.3339C202.852 89.0203 203.323 86.8213 204.178 84.8203L219.426 87.2815Z" fill="white" stroke="#263238" stroke-miterlimit="10" stroke-linecap="round" stroke-linejoin="round"/>
<path d="M223.477 91.332C223.477 93.5682 221.664 95.3814 219.428 95.3814C217.191 95.3814 215.379 93.5688 215.379 91.332C215.379 89.0958 217.191 87.2832 219.428 87.2832C221.664 87.2826 223.477 89.0958 223.477 91.332Z" fill="white" stroke="#263238" stroke-miterlimit="10" stroke-linecap="round" stroke-linejoin="round"/>
<path d="M196.284 124.833L195.637 122.115L204.048 121.08L203.859 124.855L196.284 124.833Z" fill="white" stroke="#263238" stroke-miterlimit="10" stroke-linecap="round" stroke-linejoin="round"/>
<path d="M91.9801 112.41L90.0391 109.305L98.9683 104.775L99.7183 108.583L91.9801 112.41Z" fill="white" stroke="#263238" stroke-miterlimit="10" stroke-linecap="round" stroke-linejoin="round"/>
<path d="M146.245 107.914C146.245 107.914 131.896 106.32 130.62 106.957C129.345 107.595 111.169 129.119 111.169 129.119L100.008 106.798L90.6016 110.944C90.6016 110.944 102.4 151.122 104.313 151.6C106.226 152.078 124.401 139.961 124.401 139.961L123.285 155.904C123.285 155.904 126.633 169.297 141.461 171.848C156.288 174.399 165.057 162.919 166.971 159.093C168.884 155.267 170.638 149.686 170.638 149.686L177.494 129.438C177.494 129.438 196.785 145.222 201.09 147.135C205.394 149.049 209.381 150.802 209.859 149.845C210.337 148.889 205.554 123.379 205.554 123.379L195.351 123.858L195.829 127.843C195.829 127.843 182.596 110.465 181.48 108.711C180.364 106.957 177.016 107.276 173.03 106.16C169.044 105.044 146.245 107.914 146.245 107.914Z" fill="#F46036" stroke="#263238" stroke-miterlimit="10" stroke-linecap="round" stroke-linejoin="round"/>
<path d="M124.402 139.96L135.085 131.988" stroke="#263238" stroke-miterlimit="10" stroke-linecap="round" stroke-linejoin="round"/>
<path d="M131.258 135.018L136.678 134.061" stroke="#263238" stroke-miterlimit="10" stroke-linecap="round" stroke-linejoin="round"/>
<path d="M177.496 129.438L181.163 116.523" stroke="#263238" stroke-miterlimit="10" stroke-linecap="round" stroke-linejoin="round"/>
<path d="M178.93 125.293L182.916 119.713" stroke="#263238" stroke-miterlimit="10" stroke-linecap="round" stroke-linejoin="round"/>
<path d="M196.309 137.127L196.47 140.281" stroke="#263238" stroke-miterlimit="10" stroke-linecap="round" stroke-linejoin="round"/>
<path d="M195.832 127.844L196.124 133.526" stroke="#263238" stroke-miterlimit="10" stroke-linecap="round" stroke-linejoin="round"/>
<path d="M111.172 129.119L114.52 136.134" stroke="#263238" stroke-miterlimit="10" stroke-linecap="round" stroke-linejoin="round"/>
<path d="M151.668 106.159L144.653 107.435C144.653 107.435 142.102 109.507 140.667 114.291C139.233 119.074 138.754 123.219 138.754 123.219L144.813 123.538L140.03 128.321C140.03 128.321 141.465 130.393 144.494 134.858C147.523 139.322 152.306 144.424 152.306 144.424L143.378 155.904C143.378 155.904 154.219 153.512 160.916 146.178C167.612 138.844 171.598 127.843 171.598 127.843L166.337 123.698L171.917 122.582C171.917 122.582 173.033 113.494 167.133 107.595C161.235 101.695 151.668 106.159 151.668 106.159Z" fill="#F46036" stroke="#263238" stroke-miterlimit="10" stroke-linecap="round" stroke-linejoin="round"/>
<path d="M167.455 109.987C167.455 109.987 165.59 113.671 165.223 120.508C164.933 125.848 162.131 132.653 159.658 137.467C157.696 141.293 155.941 143.865 155.815 143.47C155.815 143.47 154.778 141.814 153.128 136.995C152.728 135.838 152.294 134.495 151.828 132.943C149.438 124.971 147.365 112.059 148.319 109.51C149.279 106.96 149.915 105.842 149.915 105.842C157.569 116.204 167.455 109.987 167.455 109.987Z" fill="white" stroke="#263238" stroke-miterlimit="10" stroke-linecap="round" stroke-linejoin="round"/>
<path d="M157.729 131.829L159.659 137.465C157.697 141.292 155.942 143.864 155.816 143.469C155.816 143.469 154.78 141.813 153.129 136.994L155.816 132.147L153.151 127.163L156.293 124.016L160.597 128.319L157.729 131.829Z" fill="#263238" stroke="#263238" stroke-miterlimit="10" stroke-linecap="round" stroke-linejoin="round"/>
<path d="M151.031 129.436L156.293 124.016L162.702 130.059" stroke="#263238" stroke-miterlimit="10" stroke-linecap="round" stroke-linejoin="round"/>
<path d="M149.914 105.84C149.914 105.84 150.074 110.623 151.827 115.247C153.581 119.87 156.291 124.016 156.291 124.016L163.785 113.333C163.785 113.333 155.654 114.131 149.914 105.84Z" stroke="#263238" stroke-miterlimit="10" stroke-linecap="round" stroke-linejoin="round"/>
<path d="M172.723 88.9462C172.723 88.9462 174.999 88.5868 174.999 91.702C174.999 94.8172 173.681 98.6512 173.681 98.6512L172.723 88.9462Z" fill="white" stroke="#263238" stroke-miterlimit="10" stroke-linecap="round" stroke-linejoin="round"/>
<path d="M171.92 77.4609C171.92 77.4609 173.514 91.9695 173.673 96.2739C173.833 100.579 173.355 104.405 171.92 106.319C170.484 108.232 164.745 115.884 161.716 116.204C158.687 116.522 155.339 114.928 154.063 113.812C152.787 112.696 146.729 103.13 146.729 103.13C146.729 103.13 142.106 102.811 140.99 96.7521C139.874 90.6933 146.091 92.1285 146.091 92.1285C146.091 92.1285 142.743 86.8671 142.424 81.7653C142.106 76.6635 141.149 74.7501 154.86 74.4315C168.572 74.1129 171.92 77.4609 171.92 77.4609Z" fill="white" stroke="#263238" stroke-miterlimit="10" stroke-linecap="round" stroke-linejoin="round"/>
<path d="M164.745 87.6641L168.571 100.897L162.672 99.1433" stroke="#263238" stroke-miterlimit="10" stroke-linecap="round" stroke-linejoin="round"/>
<path d="M156.773 97.5508L152.148 98.5078" stroke="#263238" stroke-miterlimit="10" stroke-linecap="round" stroke-linejoin="round"/>
<path d="M154.539 98.3477C154.539 98.3477 155.655 102.653 160.757 103.449C165.859 104.247 168.41 103.29 168.41 103.29" stroke="#263238" stroke-miterlimit="10" stroke-linecap="round" stroke-linejoin="round"/>
<path d="M155.814 100.898C155.814 100.898 155.654 108.87 158.524 109.189C161.394 109.508 160.756 103.45 160.756 103.45C160.756 103.45 158.046 102.812 155.814 100.898Z" fill="#263238" stroke="#263238" stroke-miterlimit="10" stroke-linecap="round" stroke-linejoin="round"/>
<path d="M156.402 106.41C156.794 107.865 157.445 109.069 158.525 109.189C159.163 109.26 159.626 109.015 159.963 108.592C159.41 107.611 157.484 106.8 156.402 106.41Z" fill="white" stroke="#263238" stroke-miterlimit="10" stroke-linecap="round" stroke-linejoin="round"/>
<path d="M157.808 91.3325C157.808 92.2133 157.416 92.9267 156.932 92.9267C156.448 92.9267 156.055 92.2127 156.055 91.3325C156.055 90.4523 156.447 89.7383 156.932 89.7383C157.415 89.7383 157.808 90.4517 157.808 91.3325Z" fill="#263238"/>
<path d="M168.492 89.8969C168.492 90.7777 168.1 91.4911 167.615 91.4911C167.131 91.4911 166.738 90.7771 166.738 89.8969C166.738 89.0167 167.131 88.3027 167.615 88.3027C168.1 88.3027 168.492 89.0167 168.492 89.8969Z" fill="#263238"/>
<path d="M154.062 88.6226C154.062 88.6226 156.135 85.9124 160.121 86.3906" stroke="#263238" stroke-miterlimit="10" stroke-linecap="round" stroke-linejoin="round"/>
<path d="M165.223 85.7517C165.223 85.7517 167.295 81.9255 170.644 83.8383" stroke="#263238" stroke-miterlimit="10" stroke-linecap="round" stroke-linejoin="round"/>
<path d="M155.019 77.78C155.019 77.78 150.077 76.9826 151.193 78.4178C152.309 79.853 154.86 81.6062 153.585 82.7228C152.309 83.8388 149.121 85.7522 149.28 86.7086C149.439 87.665 149.758 91.6514 149.28 92.6078C148.801 93.5642 147.685 93.7238 146.569 93.5642C145.453 93.4046 143.859 90.5348 143.221 89.738C142.584 88.9412 136.844 83.201 137.96 78.5774C139.076 73.9538 151.034 70.2866 151.034 70.2866C151.034 70.2866 158.687 61.6772 163.789 61.5176C168.891 61.358 166.978 66.1412 166.818 66.6194C166.659 67.0976 174.152 66.1412 175.587 70.7648C177.022 75.3884 176.543 76.664 170.007 78.4178C163.469 80.1716 155.019 77.78 155.019 77.78Z" fill="#263238" stroke="#263238" stroke-miterlimit="10" stroke-linecap="round" stroke-linejoin="round"/>
<path d="M255.583 71.4141L242.588 74.7747L245.277 76.1187L237.883 78.3597L252.894 76.3431L249.085 74.5503L255.583 71.4141Z" fill="#263238"/>
<path d="M258.253 103.05L245.109 100.33L246.928 102.723L239.305 101.469L253.665 106.287L251.038 102.997L258.253 103.05Z" fill="#263238"/>
<path d="M244.115 124.717L233.047 117.123L233.798 120.034L227.254 115.928L238.631 125.926L237.482 121.876L244.115 124.717Z" fill="#263238"/>
<path d="M124.344 202.683V184.312H128.744C129.984 184.312 131.031 184.459 131.885 184.755C132.739 185.049 133.389 185.552 133.836 186.263C134.282 186.974 134.505 187.941 134.505 189.166C134.505 189.907 134.437 190.572 134.301 191.162C134.165 191.751 133.934 192.254 133.609 192.67C133.284 193.086 132.834 193.408 132.26 193.634L134.822 202.683H131.466L129.243 194.269H127.701V202.683H124.344ZM127.701 192.16H128.744C129.394 192.16 129.912 192.066 130.298 191.876C130.683 191.687 130.959 191.385 131.125 190.969C131.291 190.553 131.375 190.02 131.375 189.37C131.375 188.448 131.204 187.756 130.864 187.295C130.524 186.833 129.878 186.603 128.925 186.603H127.7V192.16H127.701Z" fill="#F46036"/>
<path d="M137.023 202.683V184.312H144.735V186.671H140.38V191.956H143.805V194.292H140.38V200.37H144.78V202.683H137.023Z" fill="#F46036"/>
<path d="M146.73 202.683V184.312H154.283V186.625H150.087V191.978H153.512V194.314H150.087V202.683L146.73 202.683Z" fill="#F46036"/>
<path d="M156.027 202.683V184.312H163.739V186.671H159.384V191.956H162.809V194.292H159.384V200.37H163.784V202.683H156.027Z" fill="#F46036"/>
<path d="M165.738 202.683V184.312H170.138C171.378 184.312 172.425 184.459 173.279 184.755C174.133 185.049 174.784 185.552 175.23 186.263C175.675 186.974 175.899 187.941 175.899 189.166C175.899 189.907 175.831 190.572 175.695 191.162C175.558 191.751 175.328 192.254 175.003 192.67C174.678 193.086 174.228 193.408 173.653 193.634L176.217 202.683H172.86L170.637 194.269H169.095V202.683H165.738ZM169.095 192.16H170.137C170.788 192.16 171.306 192.066 171.691 191.876C172.077 191.687 172.353 191.385 172.519 190.969C172.685 190.553 172.769 190.02 172.769 189.37C172.769 188.448 172.599 187.756 172.258 187.295C171.918 186.833 171.271 186.603 170.319 186.603H169.095V192.16Z" fill="#F46036"/>
<path d="M110.363 226.299L114.038 207.928H117.621L121.295 226.299H118.188L117.462 222.058H114.264L113.516 226.299H110.363ZM114.605 219.925H117.099L115.852 212.214L114.605 219.925Z" fill="#F46036"/>
<path d="M128.551 226.299V207.928H136.104V210.241H131.908V215.593H135.333V217.93H131.908V226.299H128.551Z" fill="#F46036"/>
<path d="M137.852 226.299V207.928H142.251C143.491 207.928 144.538 208.075 145.392 208.37C146.247 208.665 146.897 209.167 147.343 209.878C147.789 210.589 148.012 211.557 148.012 212.781C148.012 213.522 147.944 214.188 147.808 214.777C147.672 215.367 147.441 215.869 147.116 216.286C146.791 216.702 146.341 217.023 145.767 217.25L148.329 226.299H144.972L142.75 217.885H141.208V226.299L137.852 226.299ZM141.209 215.775H142.252C142.902 215.775 143.42 215.681 143.805 215.491C144.191 215.302 144.467 215.001 144.633 214.584C144.799 214.168 144.883 213.635 144.883 212.985C144.883 212.063 144.713 211.371 144.372 210.91C144.032 210.449 143.385 210.218 142.433 210.218H141.209V215.775Z" fill="#F46036"/>
<path d="M150.621 226.299V207.928H153.932V226.299H150.621Z" fill="#F46036"/>
<path d="M156.766 226.299V207.928H164.477V210.286H160.123V215.571H163.547V217.908H160.123V223.986H164.522V226.3H156.766V226.299Z" fill="#F46036"/>
<path d="M166.473 226.299V207.928H168.809L173.277 218.406V207.928H176.044V226.299H173.821L169.33 215.322V226.299H166.473Z" fill="#F46036"/>
<path d="M178.836 226.299V207.928H183.168C184.665 207.928 185.833 208.132 186.673 208.54C187.511 208.949 188.109 209.577 188.464 210.423C188.819 211.27 188.997 212.343 188.997 213.643V220.357C188.997 221.688 188.819 222.795 188.464 223.679C188.108 224.564 187.519 225.221 186.695 225.652C185.871 226.083 184.741 226.299 183.305 226.299H178.836ZM182.193 223.963H183.214C183.985 223.963 184.536 223.827 184.869 223.554C185.202 223.282 185.406 222.886 185.482 222.364C185.557 221.842 185.595 221.203 185.595 220.447V213.417C185.595 212.676 185.542 212.079 185.436 211.625C185.33 211.171 185.111 210.839 184.778 210.627C184.445 210.415 183.908 210.31 183.167 210.31H182.192V223.963H182.193Z" fill="#F46036"/>
<rect x="105" y="182.25" width="91.5" height="60" rx="22" fill="white"/>
<path d="M127.641 197.395H128.629C128.902 197.395 129.13 197.32 129.312 197.172C129.505 197.013 129.602 196.77 129.602 196.441C129.602 195.892 129.165 195.617 128.293 195.617H127.641V197.395ZM126.707 200.75V194.832H128.695C129.609 194.832 130.188 195.159 130.43 195.812C130.5 196.003 130.535 196.199 130.535 196.402C130.535 196.605 130.512 196.79 130.465 196.957C130.421 197.124 130.354 197.279 130.266 197.422C130.07 197.734 129.783 197.931 129.402 198.012L130.496 200.75H129.539L128.516 198.184H127.641V200.75H126.707ZM131.09 200.75V194.832H134.477V195.617H132.023V197.254H133.73V198.043H132.023V199.91H134.625V200.75H131.09ZM135.309 200.75V194.832H138.695V195.617H136.242V197.254H137.949V198.043H136.242V200.75H135.309ZM139.379 200.75V194.832H142.766V195.617H140.312V197.254H142.02V198.043H140.312V199.91H142.914V200.75H139.379ZM144.531 197.395H145.52C145.793 197.395 146.021 197.32 146.203 197.172C146.396 197.013 146.492 196.77 146.492 196.441C146.492 195.892 146.056 195.617 145.184 195.617H144.531V197.395ZM143.598 200.75V194.832H145.586C146.5 194.832 147.078 195.159 147.32 195.812C147.391 196.003 147.426 196.199 147.426 196.402C147.426 196.605 147.402 196.79 147.355 196.957C147.311 197.124 147.245 197.279 147.156 197.422C146.961 197.734 146.673 197.931 146.293 198.012L147.387 200.75H146.43L145.406 198.184H144.531V200.75H143.598ZM149.98 200.75V194.832H153.367V195.617H150.914V197.254H152.621V198.043H150.914V200.75H149.98ZM154.984 197.395H155.973C156.246 197.395 156.474 197.32 156.656 197.172C156.849 197.013 156.945 196.77 156.945 196.441C156.945 195.892 156.509 195.617 155.637 195.617H154.984V197.395ZM154.051 200.75V194.832H156.039C156.953 194.832 157.531 195.159 157.773 195.812C157.844 196.003 157.879 196.199 157.879 196.402C157.879 196.605 157.855 196.79 157.809 196.957C157.764 197.124 157.698 197.279 157.609 197.422C157.414 197.734 157.126 197.931 156.746 198.012L157.84 200.75H156.883L155.859 198.184H154.984V200.75H154.051ZM158.34 200.75V194.832H159.273V200.75H158.34ZM160.145 200.75V194.832H163.531V195.617H161.078V197.254H162.785V198.043H161.078V199.91H163.68V200.75H160.145ZM167.465 198.465V194.832H168.395V200.75H167.652L165.262 196.211V200.75H164.332V194.832H165.535L167.465 198.465ZM170.266 199.965H170.828C171.372 199.965 171.792 199.768 172.086 199.375C172.375 198.984 172.52 198.47 172.52 197.832C172.52 196.616 172.13 195.9 171.352 195.684C171.193 195.639 171.018 195.617 170.828 195.617H170.266V199.965ZM169.332 200.75V194.832H170.727C172.154 194.832 173.016 195.406 173.312 196.555C173.406 196.922 173.453 197.309 173.453 197.715C173.453 198.121 173.424 198.464 173.367 198.742C173.312 199.021 173.217 199.285 173.082 199.535C172.947 199.785 172.777 199.999 172.574 200.176C172.129 200.559 171.513 200.75 170.727 200.75H169.332ZM173.711 201.906L174.023 200.93H173.734V199.98H174.688V200.75L174.094 201.906H173.711ZM107.852 213.523C107.81 213.279 107.789 213.031 107.789 212.781C107.789 212.531 107.809 212.285 107.848 212.043C107.887 211.801 107.944 211.565 108.02 211.336C108.098 211.104 108.198 210.892 108.32 210.699C108.445 210.504 108.587 210.333 108.746 210.188C109.085 209.878 109.505 209.723 110.008 209.723C110.646 209.723 111.15 210.042 111.52 210.68C111.699 210.99 111.82 211.309 111.883 211.637V211.641L111.07 211.859C111.029 211.581 110.979 211.378 110.922 211.25C110.865 211.12 110.807 211.012 110.75 210.926C110.693 210.837 110.63 210.764 110.562 210.707C110.401 210.574 110.217 210.508 110.012 210.508C109.809 210.508 109.634 210.555 109.488 210.648C109.342 210.74 109.223 210.861 109.129 211.012C109.035 211.16 108.957 211.335 108.895 211.535C108.78 211.905 108.723 212.322 108.723 212.785C108.723 214.014 109.014 214.749 109.598 214.988C109.723 215.04 109.855 215.066 109.996 215.066C110.137 215.066 110.262 215.048 110.371 215.012C110.483 214.975 110.577 214.928 110.652 214.871C110.728 214.811 110.794 214.741 110.852 214.66C110.911 214.579 110.958 214.499 110.992 214.418C111.029 214.335 111.057 214.25 111.078 214.164C111.117 214.013 111.137 213.872 111.137 213.742L112.008 213.863C111.891 214.363 111.686 214.797 111.395 215.164C111.025 215.622 110.56 215.852 110 215.852C109.312 215.852 108.759 215.525 108.34 214.871C108.103 214.504 107.94 214.055 107.852 213.523ZM113.418 211.965C113.392 212.118 113.374 212.263 113.363 212.398C113.353 212.534 113.348 212.673 113.348 212.816C113.348 212.957 113.353 213.096 113.363 213.234C113.374 213.372 113.392 213.518 113.418 213.672C113.447 213.826 113.482 213.967 113.523 214.098C113.565 214.228 113.621 214.354 113.691 214.477C113.764 214.596 113.845 214.699 113.934 214.785C114.134 214.973 114.387 215.066 114.691 215.066C115.538 215.066 115.961 214.314 115.961 212.809C115.961 211.582 115.674 210.842 115.102 210.59C114.977 210.535 114.837 210.508 114.684 210.508C114.533 210.508 114.392 210.535 114.262 210.59C114.134 210.645 114.025 210.717 113.934 210.809C113.845 210.897 113.764 211.005 113.691 211.133C113.621 211.26 113.565 211.392 113.523 211.527C113.482 211.663 113.447 211.809 113.418 211.965ZM112.453 213.402C112.427 213.204 112.414 213.008 112.414 212.812C112.414 212.617 112.426 212.421 112.449 212.223C112.473 212.025 112.512 211.824 112.566 211.621C112.621 211.415 112.689 211.221 112.77 211.039C112.85 210.857 112.952 210.685 113.074 210.523C113.199 210.359 113.339 210.219 113.492 210.102C113.823 209.849 114.225 209.723 114.699 209.723C115.35 209.723 115.871 209.991 116.262 210.527C116.684 211.111 116.895 211.872 116.895 212.812C116.895 213.771 116.691 214.526 116.285 215.078C115.905 215.594 115.376 215.852 114.699 215.852C114.056 215.852 113.529 215.592 113.117 215.074C112.768 214.637 112.547 214.079 112.453 213.402ZM117.625 215.75V209.832H118.559V214.852H121.004V215.75H117.625ZM121.602 215.75V209.832H122.535V214.852H124.98V215.75H121.602ZM125.578 215.75V209.832H128.965V210.617H126.512V212.254H128.219V213.043H126.512V214.91H129.113V215.75H125.578ZM131.004 213.25H132.109L131.559 211.34L131.004 213.25ZM129.324 215.75L131.012 209.832H132.035L133.723 215.75H132.82L132.332 214.035H130.781L130.293 215.75H129.324ZM137.219 211.707C137.049 210.908 136.695 210.508 136.156 210.508C135.586 210.508 135.186 210.832 134.957 211.48C134.829 211.842 134.766 212.267 134.766 212.754C134.766 213.926 135.014 214.655 135.512 214.941C135.658 215.025 135.812 215.066 135.977 215.066C136.141 215.066 136.279 215.051 136.391 215.02C136.505 214.986 136.6 214.944 136.676 214.895C136.754 214.842 136.822 214.776 136.879 214.695C136.936 214.615 136.98 214.534 137.012 214.453C137.043 214.372 137.068 214.276 137.086 214.164C137.115 213.995 137.132 213.79 137.137 213.551H136V212.762H138.055V215.75H137.297V215.281C137.13 215.484 136.948 215.629 136.75 215.715C136.536 215.806 136.29 215.852 136.012 215.852C135.733 215.852 135.478 215.796 135.246 215.684C135.014 215.569 134.814 215.413 134.645 215.215C134.475 215.017 134.328 214.786 134.203 214.523C133.956 214 133.832 213.408 133.832 212.746C133.832 212.113 133.951 211.546 134.188 211.043C134.451 210.488 134.814 210.105 135.277 209.895C135.53 209.78 135.772 209.723 136.004 209.723C136.238 209.723 136.424 209.74 136.562 209.773C136.703 209.805 136.845 209.863 136.988 209.949C137.134 210.033 137.266 210.142 137.383 210.277C137.641 210.572 137.852 211 138.016 211.562L137.219 211.707ZM139 214V209.832H139.934V213.777C139.934 214.436 140.146 214.845 140.57 215.004C140.68 215.046 140.802 215.066 140.938 215.066C141.073 215.066 141.195 215.048 141.305 215.012C141.414 214.975 141.503 214.93 141.57 214.875C141.638 214.82 141.697 214.751 141.746 214.668C141.796 214.582 141.832 214.504 141.855 214.434C141.879 214.363 141.898 214.28 141.914 214.184C141.93 214.059 141.938 213.923 141.938 213.777V209.832H142.891V214C142.891 214.596 142.694 215.069 142.301 215.418C141.975 215.707 141.522 215.852 140.941 215.852C140.059 215.852 139.473 215.517 139.184 214.848C139.061 214.572 139 214.289 139 214ZM143.82 215.75V209.832H147.207V210.617H144.754V212.254H146.461V213.043H144.754V214.91H147.355V215.75H143.82ZM150.809 211.965C150.783 212.118 150.764 212.263 150.754 212.398C150.743 212.534 150.738 212.673 150.738 212.816C150.738 212.957 150.743 213.096 150.754 213.234C150.764 213.372 150.783 213.518 150.809 213.672C150.837 213.826 150.872 213.967 150.914 214.098C150.956 214.228 151.012 214.354 151.082 214.477C151.155 214.596 151.236 214.699 151.324 214.785C151.525 214.973 151.777 215.066 152.082 215.066C152.928 215.066 153.352 214.314 153.352 212.809C153.352 211.582 153.065 210.842 152.492 210.59C152.367 210.535 152.228 210.508 152.074 210.508C151.923 210.508 151.783 210.535 151.652 210.59C151.525 210.645 151.415 210.717 151.324 210.809C151.236 210.897 151.155 211.005 151.082 211.133C151.012 211.26 150.956 211.392 150.914 211.527C150.872 211.663 150.837 211.809 150.809 211.965ZM149.844 213.402C149.818 213.204 149.805 213.008 149.805 212.812C149.805 212.617 149.816 212.421 149.84 212.223C149.863 212.025 149.902 211.824 149.957 211.621C150.012 211.415 150.079 211.221 150.16 211.039C150.241 210.857 150.342 210.685 150.465 210.523C150.59 210.359 150.729 210.219 150.883 210.102C151.214 209.849 151.616 209.723 152.09 209.723C152.741 209.723 153.262 209.991 153.652 210.527C154.074 211.111 154.285 211.872 154.285 212.812C154.285 213.771 154.082 214.526 153.676 215.078C153.296 215.594 152.767 215.852 152.09 215.852C151.447 215.852 150.919 215.592 150.508 215.074C150.159 214.637 149.938 214.079 149.844 213.402ZM155.949 212.395H156.938C157.211 212.395 157.439 212.32 157.621 212.172C157.814 212.013 157.91 211.77 157.91 211.441C157.91 210.892 157.474 210.617 156.602 210.617H155.949V212.395ZM155.016 215.75V209.832H157.004C157.918 209.832 158.496 210.159 158.738 210.812C158.809 211.003 158.844 211.199 158.844 211.402C158.844 211.605 158.82 211.79 158.773 211.957C158.729 212.124 158.663 212.279 158.574 212.422C158.379 212.734 158.091 212.931 157.711 213.012L158.805 215.75H157.848L156.824 213.184H155.949V215.75H155.016ZM161.012 214.234L161.762 213.988C161.764 213.988 161.77 214.008 161.777 214.047C161.785 214.086 161.798 214.138 161.816 214.203C161.837 214.266 161.865 214.336 161.898 214.414C161.935 214.49 161.987 214.566 162.055 214.645C162.122 214.72 162.202 214.789 162.293 214.852C162.496 214.995 162.749 215.066 163.051 215.066C163.353 215.066 163.574 214.992 163.715 214.844C163.858 214.695 163.93 214.52 163.93 214.316C163.93 214.111 163.909 213.945 163.867 213.82C163.826 213.693 163.753 213.582 163.648 213.488C163.474 213.332 163.172 213.191 162.742 213.066C161.984 212.845 161.497 212.503 161.281 212.039C161.169 211.797 161.113 211.512 161.113 211.184C161.113 210.908 161.211 210.638 161.406 210.375C161.747 209.94 162.232 209.723 162.859 209.723C163.357 209.723 163.764 209.872 164.082 210.172C164.309 210.383 164.478 210.648 164.59 210.969L164.664 211.176C164.688 211.238 164.703 211.279 164.711 211.297L163.949 211.566C163.777 211.02 163.509 210.682 163.145 210.555C163.053 210.523 162.958 210.508 162.859 210.508C162.318 210.508 162.047 210.786 162.047 211.344C162.047 211.599 162.122 211.794 162.273 211.93C162.398 212.047 162.562 212.139 162.766 212.207L162.953 212.27C163.06 212.306 163.118 212.326 163.129 212.328L163.301 212.387C163.746 212.543 164.047 212.681 164.203 212.801C164.432 212.978 164.582 213.141 164.652 213.289C164.793 213.594 164.863 213.915 164.863 214.254C164.863 214.52 164.788 214.789 164.637 215.062C164.434 215.43 164.112 215.671 163.672 215.785C163.503 215.829 163.318 215.852 163.117 215.852C162.917 215.852 162.728 215.833 162.551 215.797C162.376 215.76 162.225 215.711 162.098 215.648C161.97 215.586 161.853 215.514 161.746 215.434C161.639 215.353 161.549 215.268 161.477 215.18C161.404 215.089 161.34 214.999 161.285 214.91C161.23 214.819 161.186 214.733 161.152 214.652C161.121 214.572 161.095 214.5 161.074 214.438C161.053 214.375 161.038 214.326 161.027 214.289C161.02 214.253 161.014 214.234 161.012 214.234ZM166.238 211.965C166.212 212.118 166.194 212.263 166.184 212.398C166.173 212.534 166.168 212.673 166.168 212.816C166.168 212.957 166.173 213.096 166.184 213.234C166.194 213.372 166.212 213.518 166.238 213.672C166.267 213.826 166.302 213.967 166.344 214.098C166.385 214.228 166.441 214.354 166.512 214.477C166.585 214.596 166.665 214.699 166.754 214.785C166.954 214.973 167.207 215.066 167.512 215.066C168.358 215.066 168.781 214.314 168.781 212.809C168.781 211.582 168.495 210.842 167.922 210.59C167.797 210.535 167.658 210.508 167.504 210.508C167.353 210.508 167.212 210.535 167.082 210.59C166.954 210.645 166.845 210.717 166.754 210.809C166.665 210.897 166.585 211.005 166.512 211.133C166.441 211.26 166.385 211.392 166.344 211.527C166.302 211.663 166.267 211.809 166.238 211.965ZM165.273 213.402C165.247 213.204 165.234 213.008 165.234 212.812C165.234 212.617 165.246 212.421 165.27 212.223C165.293 212.025 165.332 211.824 165.387 211.621C165.441 211.415 165.509 211.221 165.59 211.039C165.671 210.857 165.772 210.685 165.895 210.523C166.02 210.359 166.159 210.219 166.312 210.102C166.643 209.849 167.046 209.723 167.52 209.723C168.171 209.723 168.691 209.991 169.082 210.527C169.504 211.111 169.715 211.872 169.715 212.812C169.715 213.771 169.512 214.526 169.105 215.078C168.725 215.594 168.197 215.852 167.52 215.852C166.876 215.852 166.349 215.592 165.938 215.074C165.589 214.637 165.367 214.079 165.273 213.402ZM171.332 211.742V215.75H170.418V209.832H171.684L172.82 213.922H172.859L173.996 209.832H175.262V215.75H174.344V211.742H174.309L173.199 215.75H172.48L171.371 211.742H171.332ZM176.219 215.75V209.832H179.605V210.617H177.152V212.254H178.859V213.043H177.152V214.91H179.754V215.75H176.219ZM181.043 211.965C181.017 212.118 180.999 212.263 180.988 212.398C180.978 212.534 180.973 212.673 180.973 212.816C180.973 212.957 180.978 213.096 180.988 213.234C180.999 213.372 181.017 213.518 181.043 213.672C181.072 213.826 181.107 213.967 181.148 214.098C181.19 214.228 181.246 214.354 181.316 214.477C181.389 214.596 181.47 214.699 181.559 214.785C181.759 214.973 182.012 215.066 182.316 215.066C183.163 215.066 183.586 214.314 183.586 212.809C183.586 211.582 183.299 210.842 182.727 210.59C182.602 210.535 182.462 210.508 182.309 210.508C182.158 210.508 182.017 210.535 181.887 210.59C181.759 210.645 181.65 210.717 181.559 210.809C181.47 210.897 181.389 211.005 181.316 211.133C181.246 211.26 181.19 211.392 181.148 211.527C181.107 211.663 181.072 211.809 181.043 211.965ZM180.078 213.402C180.052 213.204 180.039 213.008 180.039 212.812C180.039 212.617 180.051 212.421 180.074 212.223C180.098 212.025 180.137 211.824 180.191 211.621C180.246 211.415 180.314 211.221 180.395 211.039C180.475 210.857 180.577 210.685 180.699 210.523C180.824 210.359 180.964 210.219 181.117 210.102C181.448 209.849 181.85 209.723 182.324 209.723C182.975 209.723 183.496 209.991 183.887 210.527C184.309 211.111 184.52 211.872 184.52 212.812C184.52 213.771 184.316 214.526 183.91 215.078C183.53 215.594 183.001 215.852 182.324 215.852C181.681 215.852 181.154 215.592 180.742 215.074C180.393 214.637 180.172 214.079 180.078 213.402ZM188.352 213.465V209.832H189.281V215.75H188.539L186.148 211.211V215.75H185.219V209.832H186.422L188.352 213.465ZM190.219 215.75V209.832H193.605V210.617H191.152V212.254H192.859V213.043H191.152V214.91H193.754V215.75H190.219ZM113.926 230.75V224.832H117.312V225.617H114.859V227.254H116.566V228.043H114.859V230.75H113.926ZM118.93 227.395H119.918C120.191 227.395 120.419 227.32 120.602 227.172C120.794 227.013 120.891 226.77 120.891 226.441C120.891 225.892 120.454 225.617 119.582 225.617H118.93V227.395ZM117.996 230.75V224.832H119.984C120.898 224.832 121.477 225.159 121.719 225.812C121.789 226.003 121.824 226.199 121.824 226.402C121.824 226.605 121.801 226.79 121.754 226.957C121.71 227.124 121.643 227.279 121.555 227.422C121.359 227.734 121.072 227.931 120.691 228.012L121.785 230.75H120.828L119.805 228.184H118.93V230.75H117.996ZM123.148 226.965C123.122 227.118 123.104 227.263 123.094 227.398C123.083 227.534 123.078 227.673 123.078 227.816C123.078 227.957 123.083 228.096 123.094 228.234C123.104 228.372 123.122 228.518 123.148 228.672C123.177 228.826 123.212 228.967 123.254 229.098C123.296 229.228 123.352 229.354 123.422 229.477C123.495 229.596 123.576 229.699 123.664 229.785C123.865 229.973 124.117 230.066 124.422 230.066C125.268 230.066 125.691 229.314 125.691 227.809C125.691 226.582 125.405 225.842 124.832 225.59C124.707 225.535 124.568 225.508 124.414 225.508C124.263 225.508 124.122 225.535 123.992 225.59C123.865 225.645 123.755 225.717 123.664 225.809C123.576 225.897 123.495 226.005 123.422 226.133C123.352 226.26 123.296 226.392 123.254 226.527C123.212 226.663 123.177 226.809 123.148 226.965ZM122.184 228.402C122.158 228.204 122.145 228.008 122.145 227.812C122.145 227.617 122.156 227.421 122.18 227.223C122.203 227.025 122.242 226.824 122.297 226.621C122.352 226.415 122.419 226.221 122.5 226.039C122.581 225.857 122.682 225.685 122.805 225.523C122.93 225.359 123.069 225.219 123.223 225.102C123.553 224.849 123.956 224.723 124.43 224.723C125.081 224.723 125.602 224.991 125.992 225.527C126.414 226.111 126.625 226.872 126.625 227.812C126.625 228.771 126.422 229.526 126.016 230.078C125.635 230.594 125.107 230.852 124.43 230.852C123.786 230.852 123.259 230.592 122.848 230.074C122.499 229.637 122.277 229.079 122.184 228.402ZM128.242 226.742V230.75H127.328V224.832H128.594L129.73 228.922H129.77L130.906 224.832H132.172V230.75H131.254V226.742H131.219L130.109 230.75H129.391L128.281 226.742H128.242ZM137.062 228.012V230.75H136.133V228.012L134.414 224.832H135.398L136.598 227.07L137.797 224.832H138.781L137.062 228.012ZM139.719 226.965C139.693 227.118 139.674 227.263 139.664 227.398C139.654 227.534 139.648 227.673 139.648 227.816C139.648 227.957 139.654 228.096 139.664 228.234C139.674 228.372 139.693 228.518 139.719 228.672C139.747 228.826 139.783 228.967 139.824 229.098C139.866 229.228 139.922 229.354 139.992 229.477C140.065 229.596 140.146 229.699 140.234 229.785C140.435 229.973 140.688 230.066 140.992 230.066C141.839 230.066 142.262 229.314 142.262 227.809C142.262 226.582 141.975 225.842 141.402 225.59C141.277 225.535 141.138 225.508 140.984 225.508C140.833 225.508 140.693 225.535 140.562 225.59C140.435 225.645 140.326 225.717 140.234 225.809C140.146 225.897 140.065 226.005 139.992 226.133C139.922 226.26 139.866 226.392 139.824 226.527C139.783 226.663 139.747 226.809 139.719 226.965ZM138.754 228.402C138.728 228.204 138.715 228.008 138.715 227.812C138.715 227.617 138.727 227.421 138.75 227.223C138.773 227.025 138.812 226.824 138.867 226.621C138.922 226.415 138.99 226.221 139.07 226.039C139.151 225.857 139.253 225.685 139.375 225.523C139.5 225.359 139.639 225.219 139.793 225.102C140.124 224.849 140.526 224.723 141 224.723C141.651 224.723 142.172 224.991 142.562 225.527C142.984 226.111 143.195 226.872 143.195 227.812C143.195 228.771 142.992 229.526 142.586 230.078C142.206 230.594 141.677 230.852 141 230.852C140.357 230.852 139.829 230.592 139.418 230.074C139.069 229.637 138.848 229.079 138.754 228.402ZM143.926 229V224.832H144.859V228.777C144.859 229.436 145.072 229.845 145.496 230.004C145.605 230.046 145.728 230.066 145.863 230.066C145.999 230.066 146.121 230.048 146.23 230.012C146.34 229.975 146.428 229.93 146.496 229.875C146.564 229.82 146.622 229.751 146.672 229.668C146.721 229.582 146.758 229.504 146.781 229.434C146.805 229.363 146.824 229.28 146.84 229.184C146.855 229.059 146.863 228.923 146.863 228.777V224.832H147.816V229C147.816 229.596 147.62 230.069 147.227 230.418C146.901 230.707 146.448 230.852 145.867 230.852C144.984 230.852 144.398 230.517 144.109 229.848C143.987 229.572 143.926 229.289 143.926 229ZM149.68 227.395H150.668C150.941 227.395 151.169 227.32 151.352 227.172C151.544 227.013 151.641 226.77 151.641 226.441C151.641 225.892 151.204 225.617 150.332 225.617H149.68V227.395ZM148.746 230.75V224.832H150.734C151.648 224.832 152.227 225.159 152.469 225.812C152.539 226.003 152.574 226.199 152.574 226.402C152.574 226.605 152.551 226.79 152.504 226.957C152.46 227.124 152.393 227.279 152.305 227.422C152.109 227.734 151.822 227.931 151.441 228.012L152.535 230.75H151.578L150.555 228.184H149.68V230.75H148.746ZM158.23 228.465V224.832H159.16V230.75H158.418L156.027 226.211V230.75H155.098V224.832H156.301L158.23 228.465ZM160.098 230.75V224.832H163.484V225.617H161.031V227.254H162.738V228.043H161.031V229.91H163.633V230.75H160.098ZM163.844 225.617V224.832H167.973V225.617H166.375V230.75H165.441V225.617H163.844ZM167.992 224.832H168.957L169.824 228.805H169.859L170.711 224.832H171.594L172.43 228.805H172.477L173.344 224.832H174.281L172.91 230.75H172.039L171.172 226.621H171.133L170.25 230.75H169.363L167.992 224.832ZM175.445 226.965C175.419 227.118 175.401 227.263 175.391 227.398C175.38 227.534 175.375 227.673 175.375 227.816C175.375 227.957 175.38 228.096 175.391 228.234C175.401 228.372 175.419 228.518 175.445 228.672C175.474 228.826 175.509 228.967 175.551 229.098C175.592 229.228 175.648 229.354 175.719 229.477C175.792 229.596 175.872 229.699 175.961 229.785C176.161 229.973 176.414 230.066 176.719 230.066C177.565 230.066 177.988 229.314 177.988 227.809C177.988 226.582 177.702 225.842 177.129 225.59C177.004 225.535 176.865 225.508 176.711 225.508C176.56 225.508 176.419 225.535 176.289 225.59C176.161 225.645 176.052 225.717 175.961 225.809C175.872 225.897 175.792 226.005 175.719 226.133C175.648 226.26 175.592 226.392 175.551 226.527C175.509 226.663 175.474 226.809 175.445 226.965ZM174.48 228.402C174.454 228.204 174.441 228.008 174.441 227.812C174.441 227.617 174.453 227.421 174.477 227.223C174.5 227.025 174.539 226.824 174.594 226.621C174.648 226.415 174.716 226.221 174.797 226.039C174.878 225.857 174.979 225.685 175.102 225.523C175.227 225.359 175.366 225.219 175.52 225.102C175.85 224.849 176.253 224.723 176.727 224.723C177.378 224.723 177.898 224.991 178.289 225.527C178.711 226.111 178.922 226.872 178.922 227.812C178.922 228.771 178.719 229.526 178.312 230.078C177.932 230.594 177.404 230.852 176.727 230.852C176.083 230.852 175.556 230.592 175.145 230.074C174.796 229.637 174.574 229.079 174.48 228.402ZM180.586 227.395H181.574C181.848 227.395 182.076 227.32 182.258 227.172C182.451 227.013 182.547 226.77 182.547 226.441C182.547 225.892 182.111 225.617 181.238 225.617H180.586V227.395ZM179.652 230.75V224.832H181.641C182.555 224.832 183.133 225.159 183.375 225.812C183.445 226.003 183.48 226.199 183.48 226.402C183.48 226.605 183.457 226.79 183.41 226.957C183.366 227.124 183.299 227.279 183.211 227.422C183.016 227.734 182.728 227.931 182.348 228.012L183.441 230.75H182.484L181.461 228.184H180.586V230.75H179.652ZM184.035 230.75V224.832H184.977V227.465L186.949 224.832H187.934L186.18 227.141L188.043 230.75H187.016L185.582 227.926L184.977 228.723V230.75H184.035Z" fill="#F46036"/>
</svg>
