<svg width="12" height="12" viewBox="0 0 12 12" fill="none" xmlns="http://www.w3.org/2000/svg">
<path d="M6 5.33333C6.36667 5.33333 6.68056 5.20278 6.94167 4.94167C7.20278 4.68056 7.33333 4.36667 7.33333 4C7.33333 3.63333 7.20278 3.31944 6.94167 3.05833C6.68056 2.79722 6.36667 2.66667 6 2.66667C5.63333 2.66667 5.31944 2.79722 5.05833 3.05833C4.79722 3.31944 4.66667 3.63333 4.66667 4C4.66667 4.36667 4.79722 4.68056 5.05833 4.94167C5.31944 5.20278 5.63333 5.33333 6 5.33333ZM5.33333 10.6667V8.6C4.78889 8.47778 4.30278 8.24722 3.875 7.90833C3.44722 7.56944 3.13333 7.14444 2.93333 6.63333C2.1 6.53333 1.40278 6.16944 0.841667 5.54167C0.280556 4.91389 0 4.17778 0 3.33333V2.66667C0 2.3 0.130556 1.98611 0.391667 1.725C0.652778 1.46389 0.966667 1.33333 1.33333 1.33333H2.66667C2.66667 0.966667 2.79722 0.652778 3.05833 0.391667C3.31944 0.130556 3.63333 0 4 0H8C8.36667 0 8.68056 0.130556 8.94167 0.391667C9.20278 0.652778 9.33333 0.966667 9.33333 1.33333H10.6667C11.0333 1.33333 11.3472 1.46389 11.6083 1.725C11.8694 1.98611 12 2.3 12 2.66667V3.33333C12 4.17778 11.7194 4.91389 11.1583 5.54167C10.5972 6.16944 9.9 6.53333 9.06667 6.63333C8.86667 7.14444 8.55278 7.56944 8.125 7.90833C7.69722 8.24722 7.21111 8.47778 6.66667 8.6V10.6667H8.66667C8.85556 10.6667 9.01389 10.7306 9.14167 10.8583C9.26945 10.9861 9.33333 11.1444 9.33333 11.3333C9.33333 11.5222 9.26945 11.6806 9.14167 11.8083C9.01389 11.9361 8.85556 12 8.66667 12H3.33333C3.14444 12 2.98611 11.9361 2.85833 11.8083C2.73056 11.6806 2.66667 11.5222 2.66667 11.3333C2.66667 11.1444 2.73056 10.9861 2.85833 10.8583C2.98611 10.7306 3.14444 10.6667 3.33333 10.6667H5.33333ZM2.66667 5.2V2.66667H1.33333V3.33333C1.33333 3.75556 1.45556 4.13611 1.7 4.475C1.94444 4.81389 2.26667 5.05556 2.66667 5.2ZM6 7.33333C6.55556 7.33333 7.02778 7.13889 7.41667 6.75C7.80556 6.36111 8 5.88889 8 5.33333V1.33333H4V5.33333C4 5.88889 4.19444 6.36111 4.58333 6.75C4.97222 7.13889 5.44444 7.33333 6 7.33333ZM9.33333 5.2C9.73333 5.05556 10.0556 4.81389 10.3 4.475C10.5444 4.13611 10.6667 3.75556 10.6667 3.33333V2.66667H9.33333V5.2Z" fill="white"/>
</svg>
