<svg width="137" height="137" viewBox="0 0 137 137" fill="none" xmlns="http://www.w3.org/2000/svg">
<path d="M6.49462 0H0V6.49462H6.49462V0Z" fill="#001F3F"/>
<path d="M12.9892 0H6.49462V6.49462H12.9892V0Z" fill="#001F3F"/>
<path d="M19.4839 0H12.9892V6.49462H19.4839V0Z" fill="#001F3F"/>
<path d="M25.9785 0H19.4839V6.49462H25.9785V0Z" fill="#001F3F"/>
<path d="M32.4731 0H25.9785V6.49462H32.4731V0Z" fill="#001F3F"/>
<path d="M38.9677 0H32.4731V6.49462H38.9677V0Z" fill="#001F3F"/>
<path d="M45.4624 0H38.9677V6.49462H45.4624V0Z" fill="#001F3F"/>
<path d="M64.9462 0H58.4516V6.49462H64.9462V0Z" fill="#001F3F"/>
<path d="M71.4408 0H64.9462V6.49462H71.4408V0Z" fill="#001F3F"/>
<path d="M84.4301 0H77.9355V6.49462H84.4301V0Z" fill="#001F3F"/>
<path d="M97.4193 0H90.9247V6.49462H97.4193V0Z" fill="#001F3F"/>
<path d="M103.914 0H97.4193V6.49462H103.914V0Z" fill="#001F3F"/>
<path d="M110.409 0H103.914V6.49462H110.409V0Z" fill="#001F3F"/>
<path d="M116.903 0H110.409V6.49462H116.903V0Z" fill="#001F3F"/>
<path d="M123.398 0H116.903V6.49462H123.398V0Z" fill="#001F3F"/>
<path d="M129.892 0H123.398V6.49462H129.892V0Z" fill="#001F3F"/>
<path d="M136.387 0H129.892V6.49462H136.387V0Z" fill="#001F3F"/>
<path d="M6.49462 6.49462H0V12.9892H6.49462V6.49462Z" fill="#001F3F"/>
<path d="M45.4624 6.49462H38.9677V12.9892H45.4624V6.49462Z" fill="#001F3F"/>
<path d="M58.4516 6.49462H51.957V12.9892H58.4516L58.4516 6.49462Z" fill="#001F3F"/>
<path d="M71.4408 6.49462H64.9462L64.9462 12.9892H71.4408V6.49462Z" fill="#001F3F"/>
<path d="M84.4301 6.49462H77.9355V12.9892H84.4301V6.49462Z" fill="#001F3F"/>
<path d="M97.4193 6.49462H90.9247V12.9892H97.4193V6.49462Z" fill="#001F3F"/>
<path d="M136.387 6.49462H129.892V12.9892H136.387V6.49462Z" fill="#001F3F"/>
<path d="M6.49462 12.9892H0V19.4839H6.49462V12.9892Z" fill="#001F3F"/>
<path d="M19.4839 12.9892H12.9892V19.4839H19.4839V12.9892Z" fill="#001F3F"/>
<path d="M25.9785 12.9892H19.4839V19.4839H25.9785V12.9892Z" fill="#001F3F"/>
<path d="M32.4731 12.9892H25.9785V19.4839H32.4731V12.9892Z" fill="#001F3F"/>
<path d="M45.4624 12.9892H38.9677V19.4839H45.4624V12.9892Z" fill="#001F3F"/>
<path d="M64.9462 12.9892H58.4516L58.4516 19.4839H64.9462L64.9462 12.9892Z" fill="#001F3F"/>
<path d="M71.4408 12.9892H64.9462L64.9462 19.4839H71.4408V12.9892Z" fill="#001F3F"/>
<path d="M84.4301 12.9892H77.9355V19.4839H84.4301V12.9892Z" fill="#001F3F"/>
<path d="M97.4193 12.9892H90.9247V19.4839H97.4193V12.9892Z" fill="#001F3F"/>
<path d="M110.409 12.9892H103.914V19.4839H110.409V12.9892Z" fill="#001F3F"/>
<path d="M116.903 12.9892H110.409V19.4839H116.903V12.9892Z" fill="#001F3F"/>
<path d="M123.398 12.9892H116.903V19.4839H123.398V12.9892Z" fill="#001F3F"/>
<path d="M136.387 12.9892H129.892V19.4839H136.387V12.9892Z" fill="#001F3F"/>
<path d="M6.49462 19.4839H0V25.9785H6.49462V19.4839Z" fill="#001F3F"/>
<path d="M19.4839 19.4839H12.9892V25.9785H19.4839V19.4839Z" fill="#001F3F"/>
<path d="M25.9785 19.4839H19.4839V25.9785H25.9785V19.4839Z" fill="#001F3F"/>
<path d="M32.4731 19.4839H25.9785V25.9785H32.4731V19.4839Z" fill="#001F3F"/>
<path d="M45.4624 19.4839H38.9677V25.9785H45.4624V19.4839Z" fill="#001F3F"/>
<path d="M64.9462 19.4839H58.4516V25.9785H64.9462V19.4839Z" fill="#001F3F"/>
<path d="M77.9355 19.4839H71.4408V25.9785H77.9355V19.4839Z" fill="#001F3F"/>
<path d="M97.4193 19.4839H90.9247V25.9785H97.4193V19.4839Z" fill="#001F3F"/>
<path d="M110.409 19.4839H103.914V25.9785H110.409V19.4839Z" fill="#001F3F"/>
<path d="M116.903 19.4839H110.409V25.9785H116.903V19.4839Z" fill="#001F3F"/>
<path d="M123.398 19.4839H116.903V25.9785H123.398V19.4839Z" fill="#001F3F"/>
<path d="M136.387 19.4839H129.892V25.9785H136.387V19.4839Z" fill="#001F3F"/>
<path d="M6.49462 25.9785H0V32.4731H6.49462V25.9785Z" fill="#001F3F"/>
<path d="M19.4839 25.9785H12.9892V32.4731H19.4839V25.9785Z" fill="#001F3F"/>
<path d="M25.9785 25.9785H19.4839V32.4731H25.9785V25.9785Z" fill="#001F3F"/>
<path d="M32.4731 25.9785H25.9785V32.4731H32.4731V25.9785Z" fill="#001F3F"/>
<path d="M45.4624 25.9785H38.9677V32.4731H45.4624V25.9785Z" fill="#001F3F"/>
<path d="M58.4516 25.9785H51.957V32.4731H58.4516L58.4516 25.9785Z" fill="#001F3F"/>
<path d="M71.4408 25.9785H64.9462L64.9462 32.4731H71.4408V25.9785Z" fill="#001F3F"/>
<path d="M97.4193 25.9785H90.9247V32.4731H97.4193V25.9785Z" fill="#001F3F"/>
<path d="M110.409 25.9785H103.914V32.4731H110.409V25.9785Z" fill="#001F3F"/>
<path d="M116.903 25.9785H110.409V32.4731H116.903V25.9785Z" fill="#001F3F"/>
<path d="M123.398 25.9785H116.903V32.4731H123.398V25.9785Z" fill="#001F3F"/>
<path d="M136.387 25.9785H129.892V32.4731H136.387V25.9785Z" fill="#001F3F"/>
<path d="M6.49462 32.4731H0V38.9677H6.49462V32.4731Z" fill="#001F3F"/>
<path d="M45.4624 32.4731H38.9677V38.9677H45.4624V32.4731Z" fill="#001F3F"/>
<path d="M77.9355 32.4731H71.4408V38.9677H77.9355V32.4731Z" fill="#001F3F"/>
<path d="M84.4301 32.4731H77.9355V38.9677H84.4301V32.4731Z" fill="#001F3F"/>
<path d="M97.4193 32.4731H90.9247V38.9677H97.4193V32.4731Z" fill="#001F3F"/>
<path d="M136.387 32.4731H129.892V38.9677H136.387V32.4731Z" fill="#001F3F"/>
<path d="M6.49462 38.9677H0V45.4624H6.49462V38.9677Z" fill="#001F3F"/>
<path d="M12.9892 38.9677H6.49462V45.4624H12.9892V38.9677Z" fill="#001F3F"/>
<path d="M19.4839 38.9677H12.9892V45.4624H19.4839V38.9677Z" fill="#001F3F"/>
<path d="M25.9785 38.9677H19.4839V45.4624H25.9785V38.9677Z" fill="#001F3F"/>
<path d="M32.4731 38.9677H25.9785V45.4624H32.4731V38.9677Z" fill="#001F3F"/>
<path d="M38.9677 38.9677H32.4731V45.4624H38.9677V38.9677Z" fill="#001F3F"/>
<path d="M45.4624 38.9677H38.9677V45.4624H45.4624V38.9677Z" fill="#001F3F"/>
<path d="M58.4516 38.9677H51.957V45.4624H58.4516V38.9677Z" fill="#001F3F"/>
<path d="M71.4408 38.9677H64.9462V45.4624H71.4408V38.9677Z" fill="#001F3F"/>
<path d="M84.4301 38.9677H77.9355V45.4624H84.4301V38.9677Z" fill="#001F3F"/>
<path d="M97.4193 38.9677H90.9247V45.4624H97.4193V38.9677Z" fill="#001F3F"/>
<path d="M103.914 38.9677H97.4193V45.4624H103.914V38.9677Z" fill="#001F3F"/>
<path d="M110.409 38.9677H103.914V45.4624H110.409V38.9677Z" fill="#001F3F"/>
<path d="M116.903 38.9677H110.409V45.4624H116.903V38.9677Z" fill="#001F3F"/>
<path d="M123.398 38.9677H116.903V45.4624H123.398V38.9677Z" fill="#001F3F"/>
<path d="M129.892 38.9677H123.398V45.4624H129.892V38.9677Z" fill="#001F3F"/>
<path d="M136.387 38.9677H129.892V45.4624H136.387V38.9677Z" fill="#001F3F"/>
<path d="M64.9462 45.4624H58.4516L58.4516 51.957H64.9462L64.9462 45.4624Z" fill="#001F3F"/>
<path d="M77.9355 45.4624H71.4408V51.957H77.9355V45.4624Z" fill="#001F3F"/>
<path d="M19.4839 51.957H12.9892V58.4516H19.4839V51.957Z" fill="#001F3F"/>
<path d="M32.4731 51.957H25.9785V58.4516H32.4731V51.957Z" fill="#001F3F"/>
<path d="M38.9677 51.957H32.4731V58.4516H38.9677V51.957Z" fill="#001F3F"/>
<path d="M45.4624 51.957H38.9677V58.4516H45.4624V51.957Z" fill="#001F3F"/>
<path d="M58.4516 51.957L51.957 51.957V58.4516H58.4516L58.4516 51.957Z" fill="#001F3F"/>
<path d="M64.9462 51.957H58.4516L58.4516 58.4516H64.9462V51.957Z" fill="#001F3F"/>
<path d="M90.9247 51.957H84.4301V58.4516H90.9247V51.957Z" fill="#001F3F"/>
<path d="M110.409 51.957H103.914V58.4516H110.409V51.957Z" fill="#001F3F"/>
<path d="M129.892 51.957H123.398V58.4516H129.892V51.957Z" fill="#001F3F"/>
<path d="M6.49462 58.4516H0V64.9462H6.49462V58.4516Z" fill="#001F3F"/>
<path d="M19.4839 58.4516H12.9892V64.9462H19.4839V58.4516Z" fill="#001F3F"/>
<path d="M38.9677 58.4516H32.4731V64.9462H38.9677V58.4516Z" fill="#001F3F"/>
<path d="M58.4516 58.4516H51.957V64.9462H58.4516V58.4516Z" fill="#001F3F"/>
<path d="M64.9462 58.4516H58.4516V64.9462H64.9462V58.4516Z" fill="#001F3F"/>
<path d="M77.9355 58.4516H71.4408V64.9462H77.9355V58.4516Z" fill="#001F3F"/>
<path d="M90.9247 58.4516H84.4301V64.9462H90.9247V58.4516Z" fill="#001F3F"/>
<path d="M110.409 58.4516H103.914V64.9462H110.409V58.4516Z" fill="#001F3F"/>
<path d="M116.903 58.4516L110.409 58.4516V64.9462H116.903V58.4516Z" fill="#001F3F"/>
<path d="M123.398 58.4516L116.903 58.4516V64.9462H123.398V58.4516Z" fill="#001F3F"/>
<path d="M129.892 58.4516H123.398V64.9462H129.892V58.4516Z" fill="#001F3F"/>
<path d="M136.387 58.4516L129.892 58.4516V64.9462H136.387V58.4516Z" fill="#001F3F"/>
<path d="M19.4839 64.9462H12.9892V71.4408H19.4839V64.9462Z" fill="#001F3F"/>
<path d="M38.9677 64.9462H32.4731V71.4408H38.9677V64.9462Z" fill="#001F3F"/>
<path d="M45.4624 64.9462L38.9677 64.9462V71.4408H45.4624V64.9462Z" fill="#001F3F"/>
<path d="M64.9462 64.9462H58.4516L58.4516 71.4408H64.9462V64.9462Z" fill="#001F3F"/>
<path d="M71.4408 64.9462H64.9462V71.4408H71.4408V64.9462Z" fill="#001F3F"/>
<path d="M77.9355 64.9462H71.4408V71.4408H77.9355V64.9462Z" fill="#001F3F"/>
<path d="M84.4301 64.9462H77.9355V71.4408H84.4301V64.9462Z" fill="#001F3F"/>
<path d="M90.9247 64.9462H84.4301V71.4408H90.9247V64.9462Z" fill="#001F3F"/>
<path d="M97.4193 64.9462L90.9247 64.9462V71.4408H97.4193V64.9462Z" fill="#001F3F"/>
<path d="M103.914 64.9462L97.4193 64.9462V71.4408H103.914V64.9462Z" fill="#001F3F"/>
<path d="M129.892 64.9462H123.398V71.4408H129.892V64.9462Z" fill="#001F3F"/>
<path d="M6.49462 71.4408H0V77.9355H6.49462V71.4408Z" fill="#001F3F"/>
<path d="M51.957 71.4408H45.4624V77.9355H51.957V71.4408Z" fill="#001F3F"/>
<path d="M77.9355 71.4408H71.4408V77.9355H77.9355V71.4408Z" fill="#001F3F"/>
<path d="M84.4301 71.4408H77.9355V77.9355H84.4301V71.4408Z" fill="#001F3F"/>
<path d="M103.914 71.4408H97.4193V77.9355H103.914V71.4408Z" fill="#001F3F"/>
<path d="M110.409 71.4408H103.914V77.9355H110.409V71.4408Z" fill="#001F3F"/>
<path d="M116.903 71.4408H110.409V77.9355H116.903V71.4408Z" fill="#001F3F"/>
<path d="M123.398 71.4408H116.903V77.9355H123.398V71.4408Z" fill="#001F3F"/>
<path d="M19.4839 77.9355H12.9892V84.4301H19.4839V77.9355Z" fill="#001F3F"/>
<path d="M32.4731 77.9355H25.9785V84.4301H32.4731V77.9355Z" fill="#001F3F"/>
<path d="M45.4624 77.9355H38.9677V84.4301H45.4624V77.9355Z" fill="#001F3F"/>
<path d="M51.957 77.9355H45.4624V84.4301H51.957V77.9355Z" fill="#001F3F"/>
<path d="M71.4408 77.9355H64.9462V84.4301H71.4408V77.9355Z" fill="#001F3F"/>
<path d="M77.9355 77.9355H71.4408V84.4301H77.9355V77.9355Z" fill="#001F3F"/>
<path d="M84.4301 77.9355H77.9355V84.4301H84.4301V77.9355Z" fill="#001F3F"/>
<path d="M97.4193 77.9355H90.9247V84.4301H97.4193V77.9355Z" fill="#001F3F"/>
<path d="M116.903 77.9355H110.409V84.4301H116.903V77.9355Z" fill="#001F3F"/>
<path d="M136.387 77.9355H129.892V84.4301H136.387V77.9355Z" fill="#001F3F"/>
<path d="M58.4516 84.4301H51.957L51.957 90.9247H58.4516V84.4301Z" fill="#001F3F"/>
<path d="M77.9355 84.4301H71.4408V90.9247H77.9355V84.4301Z" fill="#001F3F"/>
<path d="M84.4301 84.4301H77.9355V90.9247H84.4301V84.4301Z" fill="#001F3F"/>
<path d="M90.9247 84.4301H84.4301V90.9247H90.9247V84.4301Z" fill="#001F3F"/>
<path d="M97.4193 84.4301H90.9247V90.9247H97.4193V84.4301Z" fill="#001F3F"/>
<path d="M129.892 84.4301H123.398V90.9247H129.892V84.4301Z" fill="#001F3F"/>
<path d="M136.387 84.4301H129.892V90.9247H136.387V84.4301Z" fill="#001F3F"/>
<path d="M6.49462 90.9247H0V97.4193H6.49462V90.9247Z" fill="#001F3F"/>
<path d="M12.9892 90.9247H6.49462V97.4193H12.9892V90.9247Z" fill="#001F3F"/>
<path d="M19.4839 90.9247H12.9892V97.4193H19.4839V90.9247Z" fill="#001F3F"/>
<path d="M25.9785 90.9247H19.4839V97.4193H25.9785V90.9247Z" fill="#001F3F"/>
<path d="M32.4731 90.9247H25.9785V97.4193H32.4731V90.9247Z" fill="#001F3F"/>
<path d="M38.9677 90.9247H32.4731V97.4193H38.9677V90.9247Z" fill="#001F3F"/>
<path d="M45.4624 90.9247H38.9677V97.4193H45.4624V90.9247Z" fill="#001F3F"/>
<path d="M71.4408 90.9247H64.9462V97.4193H71.4408V90.9247Z" fill="#001F3F"/>
<path d="M77.9355 90.9247H71.4408V97.4193H77.9355V90.9247Z" fill="#001F3F"/>
<path d="M84.4301 90.9247H77.9355V97.4193H84.4301V90.9247Z" fill="#001F3F"/>
<path d="M90.9247 90.9247H84.4301V97.4193H90.9247V90.9247Z" fill="#001F3F"/>
<path d="M110.409 90.9247H103.914V97.4193H110.409V90.9247Z" fill="#001F3F"/>
<path d="M123.398 90.9247H116.903V97.4193H123.398V90.9247Z" fill="#001F3F"/>
<path d="M129.892 90.9247H123.398V97.4193H129.892V90.9247Z" fill="#001F3F"/>
<path d="M136.387 90.9247H129.892V97.4193H136.387V90.9247Z" fill="#001F3F"/>
<path d="M6.49462 97.4193H0V103.914H6.49462V97.4193Z" fill="#001F3F"/>
<path d="M45.4624 97.4193H38.9677V103.914H45.4624V97.4193Z" fill="#001F3F"/>
<path d="M58.4516 97.4193H51.957V103.914H58.4516V97.4193Z" fill="#001F3F"/>
<path d="M64.9462 97.4193H58.4516V103.914H64.9462L64.9462 97.4193Z" fill="#001F3F"/>
<path d="M71.4408 97.4193H64.9462L64.9462 103.914H71.4408V97.4193Z" fill="#001F3F"/>
<path d="M103.914 97.4193H97.4193V103.914H103.914V97.4193Z" fill="#001F3F"/>
<path d="M110.409 97.4193H103.914V103.914H110.409V97.4193Z" fill="#001F3F"/>
<path d="M116.903 97.4193H110.409V103.914H116.903V97.4193Z" fill="#001F3F"/>
<path d="M123.398 97.4193H116.903V103.914H123.398V97.4193Z" fill="#001F3F"/>
<path d="M6.49462 103.914H0V110.409H6.49462V103.914Z" fill="#001F3F"/>
<path d="M19.4839 103.914H12.9892V110.409H19.4839V103.914Z" fill="#001F3F"/>
<path d="M25.9785 103.914H19.4839V110.409H25.9785V103.914Z" fill="#001F3F"/>
<path d="M32.4731 103.914H25.9785V110.409H32.4731V103.914Z" fill="#001F3F"/>
<path d="M45.4624 103.914H38.9677V110.409H45.4624V103.914Z" fill="#001F3F"/>
<path d="M58.4516 103.914H51.957V110.409H58.4516V103.914Z" fill="#001F3F"/>
<path d="M71.4408 103.914H64.9462L64.9462 110.409H71.4408V103.914Z" fill="#001F3F"/>
<path d="M77.9355 103.914H71.4408V110.409H77.9355V103.914Z" fill="#001F3F"/>
<path d="M110.409 103.914H103.914V110.409H110.409V103.914Z" fill="#001F3F"/>
<path d="M123.398 103.914H116.903V110.409H123.398V103.914Z" fill="#001F3F"/>
<path d="M129.892 103.914H123.398V110.409H129.892V103.914Z" fill="#001F3F"/>
<path d="M6.49462 110.409H0V116.903H6.49462V110.409Z" fill="#001F3F"/>
<path d="M19.4839 110.409H12.9892V116.903H19.4839V110.409Z" fill="#001F3F"/>
<path d="M25.9785 110.409H19.4839V116.903H25.9785V110.409Z" fill="#001F3F"/>
<path d="M32.4731 110.409H25.9785V116.903H32.4731V110.409Z" fill="#001F3F"/>
<path d="M45.4624 110.409H38.9677V116.903H45.4624V110.409Z" fill="#001F3F"/>
<path d="M64.9462 110.409H58.4516L58.4516 116.903H64.9462L64.9462 110.409Z" fill="#001F3F"/>
<path d="M71.4408 110.409H64.9462L64.9462 116.903H71.4408V110.409Z" fill="#001F3F"/>
<path d="M103.914 110.409H97.4193V116.903H103.914V110.409Z" fill="#001F3F"/>
<path d="M116.903 110.409H110.409V116.903H116.903V110.409Z" fill="#001F3F"/>
<path d="M123.398 110.409H116.903V116.903H123.398V110.409Z" fill="#001F3F"/>
<path d="M6.49462 116.903H0V123.398H6.49462V116.903Z" fill="#001F3F"/>
<path d="M19.4839 116.903H12.9892V123.398H19.4839V116.903Z" fill="#001F3F"/>
<path d="M25.9785 116.903H19.4839V123.398H25.9785V116.903Z" fill="#001F3F"/>
<path d="M32.4731 116.903H25.9785V123.398H32.4731V116.903Z" fill="#001F3F"/>
<path d="M45.4624 116.903H38.9677V123.398H45.4624V116.903Z" fill="#001F3F"/>
<path d="M58.4516 116.903H51.957V123.398H58.4516L58.4516 116.903Z" fill="#001F3F"/>
<path d="M64.9462 116.903H58.4516L58.4516 123.398H64.9462V116.903Z" fill="#001F3F"/>
<path d="M71.4408 116.903H64.9462V123.398H71.4408V116.903Z" fill="#001F3F"/>
<path d="M84.4301 116.903H77.9355V123.398H84.4301V116.903Z" fill="#001F3F"/>
<path d="M90.9247 116.903H84.4301V123.398H90.9247V116.903Z" fill="#001F3F"/>
<path d="M110.409 116.903H103.914V123.398H110.409V116.903Z" fill="#001F3F"/>
<path d="M123.398 116.903H116.903V123.398H123.398V116.903Z" fill="#001F3F"/>
<path d="M129.892 116.903H123.398V123.398H129.892V116.903Z" fill="#001F3F"/>
<path d="M136.387 116.903H129.892V123.398H136.387V116.903Z" fill="#001F3F"/>
<path d="M6.49462 123.398H0V129.892H6.49462V123.398Z" fill="#001F3F"/>
<path d="M45.4624 123.398H38.9677V129.892H45.4624V123.398Z" fill="#001F3F"/>
<path d="M64.9462 123.398H58.4516L58.4516 129.892H64.9462V123.398Z" fill="#001F3F"/>
<path d="M71.4408 123.398H64.9462V129.892H71.4408V123.398Z" fill="#001F3F"/>
<path d="M84.4301 123.398H77.9355V129.892H84.4301V123.398Z" fill="#001F3F"/>
<path d="M103.914 123.398H97.4193V129.892H103.914V123.398Z" fill="#001F3F"/>
<path d="M110.409 123.398H103.914V129.892H110.409V123.398Z" fill="#001F3F"/>
<path d="M116.903 123.398H110.409V129.892H116.903V123.398Z" fill="#001F3F"/>
<path d="M6.49462 129.892H0V136.387H6.49462V129.892Z" fill="#001F3F"/>
<path d="M12.9892 129.892H6.49462V136.387H12.9892V129.892Z" fill="#001F3F"/>
<path d="M19.4839 129.892H12.9892V136.387H19.4839V129.892Z" fill="#001F3F"/>
<path d="M25.9785 129.892H19.4839V136.387H25.9785V129.892Z" fill="#001F3F"/>
<path d="M32.4731 129.892H25.9785V136.387H32.4731V129.892Z" fill="#001F3F"/>
<path d="M38.9677 129.892H32.4731V136.387H38.9677V129.892Z" fill="#001F3F"/>
<path d="M45.4624 129.892H38.9677V136.387H45.4624V129.892Z" fill="#001F3F"/>
<path d="M64.9462 129.892H58.4516V136.387H64.9462V129.892Z" fill="#001F3F"/>
<path d="M77.9355 129.892H71.4408V136.387H77.9355V129.892Z" fill="#001F3F"/>
<path d="M84.4301 129.892H77.9355V136.387H84.4301V129.892Z" fill="#001F3F"/>
<path d="M103.914 129.892H97.4193V136.387H103.914V129.892Z" fill="#001F3F"/>
<path d="M110.409 129.892H103.914V136.387H110.409V129.892Z" fill="#001F3F"/>
<path d="M116.903 129.892H110.409V136.387H116.903V129.892Z" fill="#001F3F"/>
<path d="M136.387 129.892H129.892V136.387H136.387V129.892Z" fill="#001F3F"/>
</svg>
