<svg width="14" height="14" viewBox="0 0 14 14" fill="none" xmlns="http://www.w3.org/2000/svg">
<g clip-path="url(#clip0_11715_58963)">
<path d="M11.3396 0.00760501C11.3692 0.00717964 11.3989 0.00675427 11.4294 0.006316C11.4616 0.00607119 11.4938 0.00582638 11.5269 0.00557415C11.5767 0.00517289 11.5767 0.00517289 11.6276 0.00476352C11.6981 0.00430441 11.7687 0.00394925 11.8392 0.00368893C11.9461 0.00312238 12.053 0.0016688 12.1598 0.000201665C12.6541 -0.00355662 13.0228 0.0427906 13.4223 0.344882C13.4434 0.360732 13.4645 0.376581 13.4862 0.392911C13.775 0.639464 13.9188 1.01122 13.9702 1.37226C13.9805 1.53746 13.9814 1.70253 13.9818 1.86798C13.9822 1.91723 13.9826 1.96649 13.983 2.01574C13.984 2.14865 13.9846 2.28156 13.9851 2.41448C13.9853 2.49777 13.9857 2.58106 13.986 2.66435C13.9872 2.92567 13.988 3.18699 13.9884 3.44831C13.9889 3.74864 13.9904 4.04894 13.9928 4.34927C13.9946 4.58235 13.9954 4.81543 13.9956 5.04852C13.9957 5.18731 13.9962 5.32608 13.9977 5.46487C13.999 5.59556 13.9992 5.72621 13.9986 5.85691C13.9985 5.9045 13.9989 5.95208 13.9997 5.99966C14.0056 6.36474 13.9201 6.59853 13.7305 6.90682C13.7166 6.93013 13.7027 6.95343 13.6884 6.97745C13.6539 7.03346 13.6173 7.08824 13.5807 7.14295C13.5513 7.18749 13.5219 7.23207 13.4927 7.27668C13.4764 7.30151 13.4601 7.32633 13.4433 7.35191C13.3286 7.52886 13.2173 7.70788 13.1055 7.88656C13.0801 7.92712 13.0547 7.96768 13.0293 8.00825C12.9788 8.08889 12.9283 8.16953 12.8778 8.25019C12.6064 8.68365 12.3337 9.11631 12.0589 9.54775C11.8049 9.94662 11.5534 10.3469 11.3024 10.7476C11.1576 10.9789 11.0122 11.2098 10.8668 11.4408C10.8485 11.4698 10.8302 11.4989 10.8114 11.5288C10.7955 11.554 10.7797 11.5792 10.7634 11.6051C10.748 11.6295 10.7327 11.654 10.7169 11.6791C10.6993 11.7039 10.6816 11.7286 10.6635 11.7542C10.6061 11.8598 10.6014 11.9256 10.6015 12.0444C10.6012 12.0844 10.601 12.1245 10.6008 12.1657C10.601 12.2094 10.6013 12.2531 10.6016 12.2981C10.6015 12.3447 10.6013 12.3914 10.6012 12.4381C10.6009 12.5384 10.6009 12.6387 10.6012 12.7391C10.6016 12.8979 10.6012 13.0566 10.6006 13.2154C10.5994 13.6098 10.5992 14.0042 10.5992 14.3986C10.5993 14.7051 10.5991 15.0117 10.5979 15.3182C10.5973 15.4759 10.5974 15.6336 10.5979 15.7913C10.5981 15.8896 10.5977 15.9879 10.5972 16.0862C10.597 16.1532 10.5975 16.2203 10.598 16.2873C10.5962 16.5134 10.5932 16.6706 10.443 16.8492C10.2556 17.0103 10.0816 17.0005 9.83844 16.9986C9.798 16.9988 9.75755 16.999 9.71588 16.9992C9.6039 16.9996 9.49193 16.9995 9.37995 16.9991C9.25907 16.9987 9.1382 16.9992 9.01732 16.9996C8.78064 17.0002 8.54396 17 8.30727 16.9997C8.11491 16.9994 7.92255 16.9993 7.73019 16.9995C7.70281 16.9995 7.67543 16.9995 7.64722 16.9995C7.5916 16.9996 7.53597 16.9996 7.48035 16.9997C6.9588 17 6.43726 16.9996 5.91571 16.9989C5.46822 16.9983 5.02074 16.9984 4.57324 16.999C4.05356 16.9997 3.53388 17 3.01419 16.9996C2.95878 16.9995 2.90336 16.9995 2.84794 16.9995C2.82067 16.9994 2.79341 16.9994 2.76532 16.9994C2.57319 16.9993 2.38106 16.9995 2.18894 16.9998C1.95479 17.0002 1.72066 17.0001 1.48651 16.9994C1.36705 16.999 1.2476 16.9989 1.12814 16.9993C0.998645 16.9997 0.86918 16.9992 0.739687 16.9986C0.701918 16.9988 0.664148 16.9991 0.625234 16.9995C0.416795 16.9974 0.293577 16.9845 0.135167 16.8492C-0.00671865 16.6834 -0.00780406 16.4803 0.0051906 16.274C0.0189802 16.1384 0.0350174 16.0032 0.0518534 15.8679C0.0580652 15.816 0.0642475 15.764 0.0704025 15.712C0.0871421 15.5715 0.104318 15.431 0.121591 15.2905C0.139701 15.1427 0.157464 14.9949 0.175284 14.847C0.205298 14.5985 0.235601 14.3501 0.26607 14.1016C0.301112 13.8158 0.335681 13.53 0.369994 13.2442C0.403179 12.9678 0.436729 12.6915 0.470431 12.4152C0.48468 12.2984 0.498802 12.1815 0.512816 12.0646C0.529417 11.9262 0.546341 11.7879 0.563494 11.6496C0.569676 11.5994 0.575754 11.5491 0.58171 11.4988C0.613651 11.2299 0.655674 10.9653 0.714985 10.7007C0.722912 10.6647 0.722912 10.6647 0.730999 10.628C0.92813 9.78733 1.52377 9.01163 2.26586 8.54567C3.08657 8.05108 3.91607 7.98762 4.861 8.00048C4.85894 7.93671 4.8559 7.87298 4.85244 7.80927C4.85085 7.77378 4.84926 7.73828 4.84762 7.70172C4.81619 7.55269 4.73117 7.50707 4.60523 7.42646C4.05169 7.07099 3.73673 6.39658 3.60681 5.78831C3.5494 5.45604 3.55264 5.11756 3.55326 4.78165C3.55333 4.74544 3.55333 4.74544 3.5534 4.7085C3.55664 3.7612 3.69477 2.96604 4.41581 2.26707C4.44181 2.24152 4.46782 2.21597 4.4946 2.18965C5.04684 1.67709 5.76399 1.45787 6.51793 1.46179C7.27846 1.47759 7.932 1.77015 8.48243 2.27328C8.79338 2.58779 9.04202 2.97678 9.17589 3.39386C9.18509 3.42224 9.19429 3.45061 9.20376 3.47985C9.30711 3.86098 9.29533 4.24928 9.2939 4.64066C9.29361 4.76239 9.2946 4.88408 9.29568 5.0058C9.29735 5.53182 9.28124 6.04926 9.01323 6.52156C9.00146 6.5432 8.98969 6.56484 8.97757 6.58713C8.77103 6.95744 8.50366 7.30656 8.13141 7.53236C8.04205 7.59304 8.01485 7.62051 7.99236 7.72579C7.99057 7.75842 7.98878 7.79105 7.98694 7.82468C7.98485 7.85758 7.98275 7.89048 7.98059 7.92437C7.97951 7.94949 7.97843 7.9746 7.97731 8.00048C8.44379 8.05316 8.44379 8.05316 8.87409 7.9179C9.00847 7.7828 9.10026 7.62122 9.19303 7.45773C9.28006 7.31041 9.38401 7.17498 9.48624 7.03732C9.5266 6.98154 9.56686 6.9257 9.60703 6.8698C9.76504 6.65064 9.92448 6.43247 10.0839 6.21427C10.1367 6.14194 10.1894 6.06954 10.242 5.99712C10.2599 5.97257 10.2778 5.94801 10.2962 5.92271C10.3296 5.87677 10.363 5.83082 10.3964 5.78485C10.412 5.76352 10.4275 5.74219 10.4435 5.72021C10.4584 5.69926 10.4733 5.67831 10.4887 5.65672C10.5457 5.58118 10.5457 5.58118 10.6145 5.50469C10.8307 5.25275 10.8584 5.05907 10.8523 4.73779C10.8524 4.69077 10.8526 4.64375 10.8529 4.59673C10.8533 4.49621 10.8529 4.39574 10.8518 4.29522C10.8501 4.13614 10.8503 3.97709 10.8507 3.818C10.8511 3.5664 10.8503 3.31482 10.8488 3.06322C10.8463 2.61248 10.8459 2.16174 10.8462 1.71099C10.8462 1.55299 10.8456 1.395 10.8445 1.237C10.8439 1.13868 10.8438 1.04036 10.8437 0.942043C10.8435 0.875007 10.8427 0.807972 10.842 0.74094C10.8422 0.529082 10.8439 0.363799 10.9566 0.179177C11.0834 0.0654996 11.1682 0.00974853 11.3396 0.00760501ZM11.9155 1.04085C11.9155 1.46737 11.9155 1.8939 11.9155 2.33335C12.2432 2.33335 12.571 2.33335 12.9086 2.33335C12.9114 2.19117 12.9143 2.049 12.9172 1.90251C12.919 1.83606 12.919 1.83606 12.921 1.76827C12.925 1.44769 12.925 1.44769 12.7716 1.17341C12.5171 0.982631 12.5171 0.982631 11.9155 1.04085ZM5.06647 3.09559C4.6657 3.55478 4.60863 4.10031 4.61236 4.68251C4.61272 4.75041 4.61236 4.81828 4.61192 4.88619C4.61116 5.51936 4.71321 6.07135 5.17014 6.54848C5.51418 6.86638 5.96242 7.03748 6.43628 7.05181C6.91013 7.03748 7.35837 6.86638 7.70241 6.54848C7.99794 6.23989 8.21778 5.84796 8.22309 5.42013C8.22353 5.38902 8.22397 5.35792 8.22442 5.32586C8.22467 5.29255 8.22493 5.25923 8.22519 5.22491C8.2256 5.17273 8.2256 5.17273 8.22603 5.11949C8.2265 5.04584 8.22687 4.97219 8.22714 4.89853C8.22753 4.82384 8.22823 4.74916 8.22924 4.67447C8.2384 4.0005 8.17142 3.48029 7.67793 2.9664C7.29783 2.624 6.83237 2.48692 6.32311 2.49206C5.8179 2.51997 5.41067 2.74431 5.06647 3.09559ZM11.9155 3.36072C11.9166 3.51084 11.9177 3.66097 11.9189 3.81564C11.9189 3.9117 11.9188 4.00775 11.9184 4.10381C11.9178 4.25573 11.9174 4.40761 11.9191 4.55953C11.9205 4.68226 11.9203 4.8049 11.9191 4.92763C11.919 4.97405 11.9193 5.02048 11.9202 5.0669C11.9273 5.45775 11.8085 5.67825 11.5731 5.97887C11.5357 6.03002 11.4984 6.08122 11.4612 6.13254C11.4273 6.17736 11.3932 6.22211 11.359 6.26678C11.2038 6.47214 11.0528 6.67968 10.9053 6.89025C10.7416 7.12362 10.5736 7.3535 10.4023 7.58165C10.2753 7.75071 10.1499 7.92073 10.0256 8.09162C10.0088 8.11468 9.99195 8.13774 9.97462 8.1615C9.89286 8.27361 9.8115 8.38595 9.73077 8.49876C9.70063 8.54049 9.67049 8.58222 9.64034 8.62395C9.62703 8.6428 9.61371 8.66165 9.59999 8.68107C9.50237 8.81552 9.39732 8.92071 9.24438 8.99471C9.19632 8.99695 9.14815 8.99714 9.10004 8.99626C9.07018 8.99585 9.04033 8.99544 9.00957 8.99502C8.97719 8.99453 8.9448 8.99405 8.91143 8.99355C8.84283 8.99335 8.77423 8.99324 8.70562 8.99322C8.59745 8.99317 8.4894 8.99265 8.38124 8.99051C7.96755 8.96853 7.96755 8.96853 7.59161 9.09999C7.51009 9.18528 7.51009 9.18528 7.45188 9.27688C7.30867 9.48483 7.01762 9.58552 6.77873 9.65753C6.32208 9.74434 5.91563 9.66003 5.51326 9.43888C5.40892 9.35926 5.40892 9.35926 5.34619 9.27815C5.20029 9.09215 5.20029 9.09215 4.98536 8.99941C4.85084 8.9916 4.71922 8.99365 4.5849 9.00093C4.53707 9.00239 4.48923 9.00376 4.44139 9.00504C3.62415 9.03184 2.92308 9.25449 2.34234 9.83583C1.69973 10.5297 1.6598 11.4341 1.55514 12.3161C1.54019 12.4418 1.52503 12.5674 1.5099 12.693C1.48459 12.9033 1.45942 13.1136 1.43435 13.3239C1.39897 13.6208 1.36331 13.9176 1.32761 14.2145C1.30285 14.4204 1.27816 14.6264 1.25347 14.8324C1.24749 14.8822 1.24152 14.9321 1.23554 14.982C1.21594 15.1454 1.19642 15.3088 1.17694 15.4722C1.17198 15.5135 1.16702 15.5549 1.16191 15.5976C1.15745 15.6351 1.15298 15.6726 1.14839 15.7113C1.14448 15.744 1.14057 15.7768 1.13655 15.8105C1.12711 15.8861 1.12711 15.8861 1.12828 15.9543C1.56901 15.9543 2.00975 15.9543 2.46384 15.9543C2.54268 15.441 2.60814 14.9271 2.66838 14.4114C2.68449 14.2736 2.70086 14.1358 2.71728 13.998C2.72148 13.9628 2.72148 13.9628 2.72576 13.9269C2.73147 13.879 2.73718 13.8311 2.74288 13.7832C2.78096 13.4637 2.81886 13.1441 2.8561 12.8245C2.88143 12.607 2.90716 12.3896 2.93335 12.1722C2.94712 12.0577 2.96069 11.9432 2.97378 11.8287C2.98831 11.7015 3.00371 11.5744 3.01918 11.4474C3.02333 11.4098 3.02748 11.3723 3.03175 11.3336C3.06143 11.0976 3.10674 10.9655 3.27502 10.7905C3.4468 10.7052 3.61011 10.7031 3.79298 10.7553C3.94219 10.8403 4.01867 10.9238 4.07336 11.0826C4.07297 11.5752 3.99222 12.0694 3.93192 12.5575C3.91749 12.6747 3.90325 12.7919 3.889 12.9091C3.86209 13.1301 3.83501 13.3511 3.80787 13.5722C3.76791 13.8975 3.72819 14.2229 3.68849 14.5483C3.68557 14.5722 3.68266 14.5961 3.67966 14.6207C3.67385 14.6683 3.66805 14.7159 3.66224 14.7635C3.64526 14.9027 3.62821 15.0419 3.61112 15.1811C3.59807 15.2874 3.58507 15.3937 3.57205 15.5001C3.5673 15.5386 3.56255 15.5772 3.55766 15.6169C3.55339 15.6518 3.54911 15.6868 3.54471 15.7228C3.54097 15.7533 3.53722 15.7838 3.53337 15.8152C3.52424 15.8868 3.52424 15.8868 3.52544 15.9543C5.5031 15.9543 7.48076 15.9543 9.51834 15.9543C9.52283 14.5296 9.52283 14.5296 9.52546 13.1048C9.52686 12.8286 9.52686 12.8286 9.52773 12.6991C9.52818 12.6091 9.52835 12.5191 9.52814 12.4291C9.52782 12.2923 9.52887 12.1556 9.53001 12.0189C9.52971 11.9791 9.52942 11.9393 9.52911 11.8983C9.53271 11.6426 9.58554 11.466 9.72382 11.2483C9.75376 11.1978 9.75376 11.1978 9.78431 11.1463C9.80267 11.1179 9.82102 11.0894 9.83993 11.0601C9.8611 11.027 9.88227 10.994 9.90409 10.96C9.92653 10.9253 9.94897 10.8905 9.97209 10.8548C10.0211 10.7783 10.07 10.7019 10.119 10.6255C10.1315 10.6059 10.1441 10.5863 10.157 10.5662C10.2952 10.3505 10.4312 10.1335 10.5671 9.91645C10.5917 9.87719 10.6163 9.83793 10.6409 9.79868C10.689 9.72185 10.7372 9.64502 10.7853 9.56819C11.0784 9.10041 11.373 8.63362 11.6697 8.16796C11.863 7.86421 12.0545 7.55943 12.2452 7.25413C12.2672 7.21894 12.2892 7.18374 12.3119 7.14748C12.323 7.12874 12.3341 7.11 12.3455 7.09069C12.4147 6.97577 12.4892 6.87585 12.5793 6.77522C13.0517 6.21035 12.9601 5.52841 12.9392 4.84186C12.9346 4.67455 12.9326 4.50722 12.9304 4.33987C12.9256 4.0134 12.9178 3.68711 12.9086 3.36072C12.5809 3.36072 12.2532 3.36072 11.9155 3.36072ZM5.9226 8.03362C5.91554 8.33412 5.91554 8.33412 6.05958 8.56388C6.17841 8.65467 6.28509 8.6907 6.43628 8.69644C6.58285 8.66571 6.685 8.62144 6.79157 8.51831C6.90746 8.33714 6.91571 8.25993 6.91571 8.03362C6.58799 8.03362 6.26026 8.03362 5.9226 8.03362Z" fill="#8E8E93"/>
</g>
<defs>
<clipPath id="clip0_11715_58963">
<rect width="14" height="14" fill="white"/>
</clipPath>
</defs>
</svg>
