<svg width="382" height="186" viewBox="0 0 382 186" fill="none" xmlns="http://www.w3.org/2000/svg">
<path d="M142.815 107.743H147.631L152.758 99.1381H147.943L142.815 107.743Z" fill="#3E78B2"/>
<path d="M171.934 99.1381H167.12L161.993 107.743H166.809L171.934 99.1381Z" fill="#3E78B2"/>
<path d="M161.993 77.0586L167.12 85.6644H171.934L166.809 77.0586H161.993Z" fill="#3E78B2"/>
<path d="M139.239 95.0339H294.193C296.86 95.0339 299.243 96.4186 300.565 98.7373C301.887 101.055 301.867 103.813 300.51 106.11L295.035 115.379L313.688 103.131C313.692 103.13 313.698 103.125 313.702 103.121L321.966 97.6942C322.523 97.3271 322.895 96.7942 322.98 96.2287C323.347 93.7895 323.34 91.2227 322.961 88.6007V88.5979C322.875 88.0083 322.501 87.4555 321.935 87.0842L313.739 81.7041C313.734 81.6999 313.729 81.697 313.725 81.6928L295.035 69.4232L300.51 78.6923C301.867 80.9898 301.887 83.7465 300.565 86.0652C299.243 88.3839 296.859 89.7686 294.193 89.7686H139.239V95.0339Z" fill="#3E78B2"/>
<path d="M162.348 99.1381H157.532L152.405 107.743H157.22L162.348 99.1381Z" fill="#3E78B2"/>
<path d="M324.217 101.124L317.045 105.834C318.914 116.005 322.554 121.332 325.302 121.332C329.234 121.332 334.719 110.381 334.719 92.5441C334.719 74.7087 329.234 63.7558 325.302 63.7558C322.588 63.7558 318.978 68.9942 317.092 78.9989L324.187 83.6576C325.733 84.671 326.766 86.2626 327.021 88.0172C327.458 91.0347 327.462 94.0039 327.036 96.8428C326.776 98.5592 325.749 100.118 324.217 101.124Z" fill="#9BB2DC"/>
<path d="M133.227 77.0586L138.352 85.6644H143.168L138.04 77.0586H133.227Z" fill="#3E78B2"/>
<path d="M152.405 77.0586L157.532 85.6644H162.348L157.22 77.0586H152.405Z" fill="#3E78B2"/>
<path d="M138.04 107.743L143.168 99.1381H138.352L133.227 107.743H138.04Z" fill="#3E78B2"/>
<path d="M142.815 77.0586L147.943 85.6644H152.758L147.631 77.0586H142.815Z" fill="#3E78B2"/>
<path d="M307.848 122.647L305.185 124.487C310.116 143.863 319.326 156.301 328.837 156.301C343.695 156.301 356.248 127.108 356.248 92.5479C356.248 57.9912 343.695 28.7961 328.837 28.7961C319.377 28.7961 310.194 41.1352 305.252 60.3581L307.921 62.1921C311.983 48.2487 318.463 40.3231 325.908 40.3231C338.217 40.3231 347.859 63.265 347.859 92.5494C347.859 121.837 338.217 144.778 325.908 144.778C318.524 144.777 311.876 136.567 307.848 122.647Z" fill="#9BB2DC"/>
<mask id="mask0_6844_64563" style="mask-type:luminance" maskUnits="userSpaceOnUse" x="292" y="0" width="90" height="186">
<path d="M382 185.043H292.381V0H382V185.043Z" fill="white"/>
</mask>
<g mask="url(#mask0_6844_64563)">
<path d="M331.948 11.7197C354.883 11.7197 373.543 47.9786 373.543 92.5443C373.543 137.11 354.886 173.372 331.948 173.372C316.483 173.372 302.619 157.322 295.373 131.272C294.133 132.127 293.226 132.749 292.553 133.198C300.491 164.742 316.994 185.043 334.814 185.043C360.776 185.043 381.898 143.547 381.898 92.5443C381.898 41.5426 360.776 0.0467682 334.814 0.0467682C317.062 0.0467682 300.588 20.2363 292.627 51.6055L295.446 53.5656C302.711 27.67 316.549 11.7197 331.948 11.7197Z" fill="#9BB2DC"/>
</g>
<path d="M280.051 122.043H3.94925C1.76855 122.043 0 122.937 0 124.044C0 125.149 1.76855 126.043 3.94925 126.043H280.051C282.229 126.043 284 125.149 284 124.044C284 122.937 282.229 122.043 280.051 122.043Z" fill="#9BB2DC"/>
<path d="M178.297 108.057C177.059 108.057 176.055 108.812 176.055 109.745C176.055 110.679 177.059 111.434 178.297 111.434H262.87C264.108 111.434 265.111 110.679 265.111 109.745C265.111 108.812 264.108 108.057 262.87 108.057H178.297Z" fill="#9BB2DC"/>
<path d="M3.94376 61.0434H280.051C282.229 61.0434 284 60.3729 284 59.5439C284 58.7138 282.229 58.0433 280.051 58.0433H3.94922C1.76855 58.0433 0 58.7138 0 59.5439C0 60.3729 1.76584 61.0434 3.94376 61.0434Z" fill="#9BB2DC"/>
<path d="M262.87 75.8754C264.108 75.8754 265.111 75.1203 265.111 74.1867C265.111 73.2518 264.108 72.4968 262.87 72.4968H178.297C177.059 72.4968 176.055 73.2518 176.055 74.1867C176.055 75.1203 177.059 75.8754 178.297 75.8754H262.87Z" fill="#9BB2DC"/>
</svg>
