<svg width="80" height="80" viewBox="0 0 80 80" fill="none" xmlns="http://www.w3.org/2000/svg">
<path d="M62.8516 80H5.71378C2.55817 80 0 77.4416 0 74.2857V5.71429C0 2.5584 2.55817 0 5.71378 0H68.5654V74.2857C68.5654 77.4416 66.0072 80 62.8516 80Z" fill="#FF9500"/>
<path d="M68.5742 0H74.288L68.5742 5.71429V0Z" fill="#FF9500"/>
<path d="M74.2841 11.4286C77.4397 11.4286 79.9979 8.8702 79.9979 5.71429C79.9979 2.55837 77.4397 0 74.2841 0C71.1285 0 68.5703 2.55837 68.5703 5.71429C68.5703 8.8702 71.1285 11.4286 74.2841 11.4286Z" fill="#FFDFB2"/>
<path d="M77.7124 16.9363H68.5703V5.71875H79.9979V14.6506C79.9979 15.913 78.9746 16.9363 77.7124 16.9363Z" fill="#FFDFB2"/>
<path d="M30.0664 12.5625H61.0698" stroke="#C6790C" stroke-width="0.5" stroke-miterlimit="10" stroke-linecap="round" stroke-linejoin="round"/>
<path d="M30.0664 8H54.4453" stroke="#C6790C" stroke-width="0.5" stroke-miterlimit="10" stroke-linecap="round" stroke-linejoin="round"/>
<path d="M30.0664 17.1562H61.0698" stroke="#C6790C" stroke-width="0.5" stroke-miterlimit="10" stroke-linecap="round" stroke-linejoin="round"/>
<path d="M30.0664 21.7188H61.0698" stroke="#C6790C" stroke-width="0.5" stroke-miterlimit="10" stroke-linecap="round" stroke-linejoin="round"/>
<path d="M61.0703 10.2768V4.5625L56.4993 4.5625V10.2768H61.0703Z" stroke="#C6790C" stroke-width="0.5" stroke-miterlimit="10" stroke-linecap="round" stroke-linejoin="round"/>
<path d="M57.4609 7.29576C57.8088 7.95176 58.275 8.54491 58.8306 9.03771C59.2564 7.95222 59.6825 6.86674 60.1085 5.78125" stroke="#C6790C" stroke-width="0.5" stroke-miterlimit="10"/>
<path d="M30.0664 39.4062H61.0698" stroke="#C6790C" stroke-width="0.75" stroke-miterlimit="10" stroke-linecap="round" stroke-linejoin="round"/>
<path d="M30.0664 34.8438H54.4453" stroke="#C6790C" stroke-width="0.75" stroke-miterlimit="10" stroke-linecap="round" stroke-linejoin="round"/>
<path d="M30.0664 44H61.0698" stroke="#C6790C" stroke-width="0.75" stroke-miterlimit="10" stroke-linecap="round" stroke-linejoin="round"/>
<path d="M30.0664 48.5625H61.0698" stroke="#C6790C" stroke-width="0.75" stroke-miterlimit="10" stroke-linecap="round" stroke-linejoin="round"/>
<path d="M61.0703 37.1205V31.4062H56.4993V37.1205H61.0703Z" stroke="#C6790C" stroke-width="0.75" stroke-miterlimit="10" stroke-linecap="round" stroke-linejoin="round"/>
<path d="M30.0664 62.2812H61.0698" stroke="#C6790C" stroke-width="0.75" stroke-miterlimit="10" stroke-linecap="round" stroke-linejoin="round"/>
<path d="M30.0664 57.7188H54.4453" stroke="#C6790C" stroke-width="0.75" stroke-miterlimit="10" stroke-linecap="round" stroke-linejoin="round"/>
<path d="M30.0664 66.875H61.0698" stroke="#C6790C" stroke-width="0.75" stroke-miterlimit="10" stroke-linecap="round" stroke-linejoin="round"/>
<path d="M30.0664 71.4375H61.0698" stroke="#C6790C" stroke-width="0.75" stroke-miterlimit="10" stroke-linecap="round" stroke-linejoin="round"/>
<path d="M61.0703 59.9955V54.2812H56.4993V59.9955H61.0703Z" stroke="#C6790C" stroke-width="0.75" stroke-miterlimit="10" stroke-linecap="round" stroke-linejoin="round"/>
<path d="M12.5495 38.75C12.8286 40.2686 12.4028 41.902 11.418 43.091C12.0293 43.171 12.6405 43.2508 13.2519 43.3308C13.8532 43.4094 14.4545 43.4881 15.0556 43.5667C15.5278 43.6284 16.0057 43.6901 16.4788 43.6362C16.9679 43.5804 17.4398 43.4019 17.9317 43.3818C18.6889 43.3509 19.4593 43.6956 20.1875 43.4858C19.6675 42.0161 19.4355 40.5034 19.4909 38.9452C17.1967 38.8599 14.8439 38.8353 12.5495 38.75Z" fill="#FFDFB2" fill-opacity="0.5"/>
<path d="M23.1791 45.6947C21.5084 47.8112 18.919 49.169 16.0095 49.169C13.1 49.169 10.5106 47.8112 8.83984 45.6947L13.7331 44.5312H18.2859L23.1791 45.6947Z" fill="#FFDFB2" fill-opacity="0.5"/>
<path d="M16.0109 47.1665C13.6728 47.1665 13.7345 44.5539 13.7345 44.5539C14.0042 43.9825 14.1962 43.3745 14.3013 42.7528C14.3402 42.5265 14.3676 42.2979 14.3836 42.0694C14.3859 42.0694 14.3928 42.0625 14.395 42.0625H17.629C17.6313 42.0625 17.6382 42.0694 17.6405 42.0694C17.6999 42.9288 17.9216 43.7745 18.2896 44.5539C18.2896 44.5539 18.3513 47.1665 16.0109 47.1665Z" fill="#FFDFB2" fill-opacity="0.5"/>
<path d="M16.6875 42.5699C16.571 42.7299 16.3653 42.7962 16.171 42.8374C15.5516 42.9654 14.9003 42.9379 14.2969 42.7528C14.3357 42.5265 14.3632 42.2979 14.3792 42.0694C14.3814 42.0694 14.3883 42.0625 14.3906 42.0625H14.4477C14.7037 42.1859 14.9848 42.2591 15.2614 42.3139C15.7253 42.4031 16.2213 42.4808 16.6875 42.5699Z" fill="#FFDFB2" fill-opacity="0.5"/>
<path d="M12.6602 34.7816C12.6691 36.1037 12.7511 37.4253 12.9056 38.7384C13.0124 39.6456 13.1653 40.5803 13.6637 41.346C14.1537 42.0987 14.9825 42.636 15.8768 42.7176C16.7711 42.7992 17.7079 42.4006 18.224 41.6658C18.6176 41.1053 18.7526 40.4072 18.8475 39.7288C19.0701 38.1371 19.124 36.5218 19.0082 34.9186C16.8737 34.658 14.8085 34.6989 12.6602 34.7816Z" fill="#FFDFB2" fill-opacity="0.5"/>
<path d="M20.3761 38.5866C20.3761 39.3075 19.7917 39.892 19.0709 39.892C18.35 39.892 17.7656 39.3075 17.7656 38.5866C17.7656 37.8657 18.35 37.2812 19.0709 37.2812C19.7917 37.2813 20.3761 37.8657 20.3761 38.5866Z" fill="#FFDFB2" fill-opacity="0.5"/>
<path d="M14.2629 38.4929C14.2629 39.2138 13.6784 39.7982 12.9576 39.7982C12.2367 39.7982 11.6523 39.2138 11.6523 38.4929C11.6523 37.772 12.2367 37.1875 12.9576 37.1875C13.6784 37.1875 14.2629 37.772 14.2629 38.4929Z" fill="#FFDFB2" fill-opacity="0.5"/>
<path d="M19.5896 36.4144C19.6079 36.7573 19.505 37.0544 19.3222 37.3082C19.2399 37.2899 19.153 37.2807 19.0639 37.2807C18.9405 37.2807 18.8194 37.299 18.7074 37.331C18.5085 36.7642 18.0651 36.2842 17.5075 36.0602C16.9292 35.8247 16.2801 35.8613 15.6562 35.8407C15.03 35.8202 14.406 35.6922 13.9581 35.2556C13.9146 35.9779 13.613 36.6773 13.1284 37.2122C13.0713 37.203 13.0119 37.1984 12.9524 37.1984C12.7445 37.1984 12.5502 37.2464 12.3765 37.3356C11.8257 36.451 11.7251 35.2647 12.1479 34.307C12.6233 33.2259 13.6929 32.4442 14.8608 32.2613C16.0287 32.0807 17.2606 32.4853 18.136 33.2784C19.0113 34.0739 19.5256 35.235 19.5896 36.4144Z" fill="#FFDFB2" fill-opacity="0.5"/>
<path d="M15.7284 37.7812C15.7257 38.1716 15.6352 38.5611 15.4649 38.9125C15.3707 38.8585 15.2256 38.8759 15.1513 38.9547C15.0768 39.0336 15.0546 39.1534 15.0809 39.2585C15.1072 39.3636 15.1769 39.4546 15.2626 39.5211C15.3481 39.5876 15.4491 39.6318 15.5517 39.6667" fill="#FFDFB2" fill-opacity="0.5"/>
<path d="M15.7284 37.7812C15.7257 38.1716 15.6352 38.5611 15.4649 38.9125C15.3707 38.8585 15.2256 38.8759 15.1513 38.9547C15.0768 39.0336 15.0546 39.1534 15.0809 39.2585C15.1072 39.3636 15.1769 39.4546 15.2626 39.5211C15.3481 39.5876 15.4491 39.6318 15.5517 39.6667" stroke="#FFDFB2" stroke-width="0.4256" stroke-miterlimit="10" stroke-linecap="round" stroke-linejoin="round"/>
<path d="M16.8284 38.0783C16.8348 38.2548 16.9454 38.3942 17.0755 38.3894C17.2055 38.3846 17.3056 38.2379 17.2992 38.0612C17.2928 37.8847 17.1822 37.7453 17.0524 37.7501C16.9221 37.7549 16.822 37.9019 16.8284 38.0783Z" fill="#FFDFB2" fill-opacity="0.5"/>
<path d="M14.5784 38.1721C14.5848 38.3486 14.6954 38.488 14.8253 38.4832C14.9553 38.4784 15.0554 38.3316 15.049 38.155C15.0426 37.9785 14.932 37.8391 14.8022 37.8439C14.6721 37.8487 14.572 37.9956 14.5784 38.1721Z" fill="#FFDFB2" fill-opacity="0.5"/>
<path d="M17.2933 37.5173C17.4117 37.5397 17.5571 37.5413 17.6266 37.4427C17.688 37.3557 17.6565 37.2343 17.6069 37.1399C17.4458 36.8327 17.1055 36.6345 16.7613 36.6254C16.5985 36.621 16.3304 36.6517 16.2738 36.8386C16.2148 37.0334 16.4911 37.1801 16.6271 37.2619C16.8319 37.3851 17.0584 37.4727 17.2933 37.5173Z" fill="#FFDFB2" fill-opacity="0.5"/>
<path d="M14.8654 37.4069C14.6988 37.5491 14.4805 37.6295 14.2615 37.6293C14.1726 37.6291 14.0696 37.6067 14.0305 37.5269C13.9914 37.4471 14.0362 37.3525 14.0865 37.2791C14.2556 37.033 14.624 36.6807 14.9495 36.6876C15.3947 36.697 15.0192 37.2755 14.8654 37.4069Z" fill="#FFDFB2" fill-opacity="0.5"/>
<path d="M15.6328 40.7912L17.4066 40.1875" stroke="#FFDFB2" stroke-width="0.4256" stroke-miterlimit="10" stroke-linecap="round" stroke-linejoin="round"/>
<path d="M25.1552 40.0179C25.1552 42.1527 24.4238 44.1161 23.1965 45.6727C23.1919 45.6773 23.1874 45.6841 23.1828 45.6887C21.5121 47.8053 18.9226 49.163 16.0131 49.163C13.1037 49.163 10.5142 47.8053 8.84349 45.6887C8.83892 45.6841 8.83435 45.6773 8.82978 45.6727C7.60246 44.1161 6.87109 42.1527 6.87109 40.0179C6.87109 34.9687 10.9622 30.875 16.0131 30.875C21.0641 30.875 25.1552 34.9687 25.1552 40.0179Z" fill="#FFDFB2" fill-opacity="0.5" stroke="#FFDFB2" stroke-miterlimit="10" stroke-linecap="round" stroke-linejoin="round"/>
<path d="M23.1791 20.5384C21.5084 22.655 18.919 24.0127 16.0095 24.0127C13.1 24.0127 10.5106 22.655 8.83984 20.5384L13.7331 19.375H18.2859L23.1791 20.5384Z" fill="#FFDFB2" fill-opacity="0.5"/>
<path d="M16.0109 21.979C13.6728 21.979 13.7345 19.3664 13.7345 19.3664C14.0042 18.795 14.1962 18.187 14.3013 17.5653C14.3402 17.339 14.3676 17.1104 14.3836 16.8819C14.3859 16.8819 14.3928 16.875 14.395 16.875H17.629C17.6313 16.875 17.6382 16.8819 17.6405 16.8819C17.6999 17.7413 17.9216 18.587 18.2896 19.3664C18.2896 19.3664 18.3513 21.979 16.0109 21.979Z" fill="#FFDFB2" fill-opacity="0.5"/>
<path d="M16.6875 17.3824C16.571 17.5424 16.3653 17.6087 16.171 17.6499C15.5516 17.7779 14.9003 17.7504 14.2969 17.5653C14.3357 17.339 14.3632 17.1104 14.3792 16.8819C14.3814 16.8819 14.3883 16.875 14.3906 16.875H14.4477C14.7037 16.9984 14.9848 17.0716 15.2614 17.1264C15.7253 17.2156 16.2213 17.2933 16.6875 17.3824Z" fill="#FFDFB2" fill-opacity="0.5"/>
<path d="M12.6602 9.6254C12.6691 10.9475 12.7511 12.2691 12.9056 13.5822C13.0124 14.4894 13.1653 15.424 13.6637 16.1897C14.1537 16.9424 14.9825 17.4798 15.8768 17.5614C16.7711 17.643 17.7079 17.2444 18.224 16.5095C18.6176 15.9491 18.7526 15.251 18.8475 14.5726C19.0701 12.9808 19.124 11.3655 19.0082 9.76231C16.8737 9.50174 14.8085 9.54266 12.6602 9.6254Z" fill="#FFDFB2" fill-opacity="0.5"/>
<path d="M12.7141 12.3521C12.7952 12.4431 12.9536 12.4186 13.0403 12.3329C13.1269 12.247 13.1589 12.1215 13.182 12.0017C13.2624 11.5862 13.2805 11.1585 13.2354 10.7375C14.7891 11.4422 16.6936 11.3402 18.2115 10.5608C18.1779 11.2392 18.4137 11.9546 18.8251 12.4952C19.0607 12.4918 19.207 12.295 19.3055 12.0808C19.6388 11.3581 19.735 10.5281 19.5761 9.74823C19.5416 9.57817 19.4872 9.39829 19.3503 9.292C19.2132 9.18572 18.9716 9.20469 18.9078 9.36606C18.9828 8.81497 18.7392 8.21795 18.3696 7.8024C18 7.38686 17.4885 7.11463 16.953 6.96423C16.4176 6.81383 15.8562 6.77886 15.3002 6.78137C14.7436 6.78389 14.164 6.82983 13.6836 7.11097C13.3029 7.33383 13.0083 7.7 12.8723 8.11966C12.7363 8.53932 12.7598 9.0088 12.9374 9.41269C12.8371 9.2536 12.5802 9.21726 12.4008 9.27394C12.2214 9.33063 12.0838 9.48309 12.0086 9.65566C11.9334 9.828 11.914 10.0195 11.9105 10.2077C11.898 10.9686 12.2076 11.7843 12.7141 12.3521Z" fill="#FFDFB2" fill-opacity="0.5"/>
<path d="M20.3761 13.3991C20.3761 14.12 19.7917 14.7045 19.0709 14.7045C18.35 14.7045 17.7656 14.12 17.7656 13.3991C17.7656 12.6782 18.35 12.0938 19.0709 12.0938C19.7917 12.0937 20.3761 12.6782 20.3761 13.3991Z" fill="#FFDFB2" fill-opacity="0.5"/>
<path d="M14.2629 13.3366C14.2629 14.0575 13.6784 14.642 12.9576 14.642C12.2367 14.642 11.6523 14.0575 11.6523 13.3366C11.6523 12.6157 12.2367 12.0312 12.9576 12.0312C13.6784 12.0312 14.2629 12.6157 14.2629 13.3366Z" fill="#FFDFB2" fill-opacity="0.5"/>
<path d="M15.5878 12.75C15.5853 13.1404 15.4945 13.5299 15.3243 13.8812C15.2301 13.8275 15.085 13.8446 15.0107 13.9235C14.9362 14.0023 14.914 14.1221 14.9403 14.2273C14.9666 14.3324 15.0363 14.4234 15.1218 14.4899C15.2073 14.5564 15.3083 14.6005 15.4109 14.6355" fill="#FFDFB2" fill-opacity="0.5"/>
<path d="M15.5878 12.75C15.5853 13.1404 15.4945 13.5299 15.3243 13.8812C15.2301 13.8275 15.085 13.8446 15.0107 13.9235C14.9362 14.0023 14.914 14.1221 14.9403 14.2273C14.9666 14.3324 15.0363 14.4234 15.1218 14.4899C15.2073 14.5564 15.3083 14.6005 15.4109 14.6355" stroke="#FFDFB2" stroke-width="0.4256" stroke-miterlimit="10" stroke-linecap="round" stroke-linejoin="round"/>
<path d="M16.6878 13.0471C16.6942 13.2235 16.8048 13.363 16.9346 13.3582C17.0647 13.3534 17.1648 13.2066 17.1584 13.0299C17.152 12.8535 17.0414 12.7143 16.9115 12.7189C16.7817 12.7237 16.6814 12.8706 16.6878 13.0471Z" fill="#FFDFB2" fill-opacity="0.5"/>
<path d="M14.4378 13.1408C14.4442 13.3173 14.5548 13.4567 14.6846 13.4519C14.8147 13.4471 14.9148 13.3004 14.9084 13.1237C14.902 12.9472 14.7914 12.8078 14.6615 12.8126C14.5315 12.8174 14.4314 12.9644 14.4378 13.1408Z" fill="#FFDFB2" fill-opacity="0.5"/>
<path d="M16.082 15.5208C16.2884 15.6817 16.5798 15.7267 16.8253 15.6353C17.0707 15.5439 17.2616 15.3194 17.3126 15.0625" fill="#FFDFB2" fill-opacity="0.5"/>
<path d="M16.082 15.5208C16.2884 15.6817 16.5798 15.7267 16.8253 15.6353C17.0707 15.5439 17.2616 15.3194 17.3126 15.0625" stroke="#FFDFB2" stroke-width="0.4256" stroke-miterlimit="10" stroke-linecap="round" stroke-linejoin="round"/>
<path d="M16.2153 12.1778C16.2517 12.1942 16.2935 12.1899 16.3333 12.1858C16.8324 12.1339 17.3398 12.1593 17.8312 12.2612C17.8435 12.1373 17.7814 12.0132 17.687 11.9318C17.5926 11.8507 17.4696 11.8084 17.3462 11.7915C17.2228 11.7748 17.0975 11.7819 16.973 11.789C16.7346 11.8027 16.491 11.8029 16.2539 11.8308C16.1801 11.8395 16.1415 11.8628 16.1321 11.9398C16.1225 12.0196 16.1301 12.1392 16.2153 12.1778Z" fill="#FFDFB2" fill-opacity="0.5"/>
<path d="M15.3716 12.1588C15.3367 12.178 15.2946 12.1766 15.2546 12.1755C14.7529 12.1611 14.249 12.2244 13.7665 12.3627C13.745 12.24 13.7976 12.1115 13.8858 12.0235C13.9738 11.9355 14.0933 11.8841 14.2152 11.858C14.337 11.8322 14.4625 11.8299 14.587 11.8276C14.8256 11.8235 15.0686 11.8054 15.3072 11.8155C15.3812 11.8187 15.4217 11.839 15.4368 11.9152C15.4523 11.9942 15.4539 12.114 15.3716 12.1588Z" fill="#FFDFB2" fill-opacity="0.5"/>
<path d="M25.1552 14.8616C25.1552 16.9965 24.4238 18.9599 23.1965 20.5165C23.1919 20.521 23.1874 20.5279 23.1828 20.5325C21.5121 22.649 18.9226 24.0068 16.0131 24.0068C13.1037 24.0068 10.5142 22.649 8.84349 20.5325C8.83892 20.5279 8.83435 20.521 8.82978 20.5165C7.60246 18.9599 6.87109 16.9965 6.87109 14.8616C6.87109 9.81246 10.9622 5.71875 16.0131 5.71875C21.0641 5.71875 25.1552 9.81246 25.1552 14.8616Z" fill="#FFDFB2" fill-opacity="0.5" stroke="#FFDFB2" stroke-miterlimit="10" stroke-linecap="round" stroke-linejoin="round"/>
<path d="M23.1791 70.8197C21.5084 72.9362 18.919 74.294 16.0095 74.294C13.1 74.294 10.5106 72.9362 8.83984 70.8197L13.7331 69.6562H18.2859L23.1791 70.8197Z" fill="#FFDFB2" fill-opacity="0.5"/>
<path d="M14.3272 64.6315C14.4627 65.2228 14.5656 65.8717 14.292 66.4132C14.0598 66.8729 13.5965 67.1682 13.1314 67.3888C12.6661 67.6093 12.1701 67.7828 11.7647 68.1003C11.3592 68.4178 11.0525 68.9286 11.1529 69.4336C10.7227 68.9076 10.4809 68.231 10.4805 67.5515C10.48 66.872 10.7204 66.1949 11.1494 65.6683C11.3992 65.3618 11.7085 65.1067 11.9475 64.7915C12.1864 64.4763 12.3534 64.0704 12.2543 63.6875C12.9614 63.9318 13.6566 64.2989 14.3272 64.6315Z" fill="#FFDFB2" fill-opacity="0.5"/>
<path d="M16.0109 72.2602C13.6728 72.2602 13.7345 69.6477 13.7345 69.6477C14.0042 69.0762 14.1962 68.4682 14.3013 67.8465C14.3402 67.6202 14.3676 67.3917 14.3836 67.1631C14.3859 67.1631 14.3928 67.1562 14.395 67.1562H17.629C17.6313 67.1562 17.6382 67.1631 17.6405 67.1631C17.6999 68.0225 17.9216 68.8682 18.2896 69.6477C18.2896 69.6477 18.3513 72.2602 16.0109 72.2602Z" fill="#FFDFB2" fill-opacity="0.5"/>
<path d="M16.6875 67.6637C16.571 67.8237 16.3653 67.89 16.171 67.9311C15.5516 68.0591 14.9003 68.0317 14.2969 67.8465C14.3357 67.6202 14.3632 67.3917 14.3792 67.1631C14.3814 67.1631 14.3883 67.1562 14.3906 67.1562H14.4477C14.7037 67.2797 14.9848 67.3528 15.2614 67.4077C15.7253 67.4968 16.2213 67.5745 16.6875 67.6637Z" fill="#FFDFB2" fill-opacity="0.5"/>
<path d="M12.6602 59.9066C12.6691 61.2287 12.7511 62.5503 12.9056 63.8635C13.0124 64.7706 13.1653 65.7053 13.6637 66.471C14.1537 67.2237 14.9825 67.761 15.8768 67.8426C16.7711 67.9242 17.7079 67.5256 18.224 66.7908C18.6176 66.2303 18.7526 65.5323 18.8475 64.8539C19.0701 63.2621 19.124 61.6468 19.0082 60.0436C16.8737 59.783 14.8085 59.8239 12.6602 59.9066Z" fill="#FFDFB2" fill-opacity="0.5"/>
<path d="M20.3761 63.7116C20.3761 64.4325 19.7917 65.017 19.0709 65.017C18.35 65.017 17.7656 64.4325 17.7656 63.7116C17.7656 62.9907 18.35 62.4062 19.0709 62.4062C19.7917 62.4062 20.3761 62.9907 20.3761 63.7116Z" fill="#FFDFB2" fill-opacity="0.5"/>
<path d="M14.2629 63.6179C14.2629 64.3388 13.6784 64.9232 12.9576 64.9232C12.2367 64.9232 11.6523 64.3388 11.6523 63.6179C11.6523 62.897 12.2367 62.3125 12.9576 62.3125C13.6784 62.3125 14.2629 62.897 14.2629 63.6179Z" fill="#FFDFB2" fill-opacity="0.5"/>
<path d="M19.5624 62.5033C19.4093 62.4393 19.2425 62.405 19.0665 62.405C18.9179 62.405 18.7739 62.4301 18.6414 62.4781C18.5225 61.9981 18.1546 61.5776 17.6815 61.4244C17.2564 61.285 16.797 61.349 16.3513 61.3353C15.476 61.3101 14.6303 60.8987 13.9698 60.325C14.0315 61.0541 13.8418 61.7993 13.4624 62.4256C13.307 62.3593 13.1356 62.3227 12.955 62.3227C12.7151 62.3227 12.4911 62.3867 12.2991 62.501C11.9288 61.749 11.698 60.9261 11.6774 60.0941C11.6706 59.8313 11.682 59.5616 11.7711 59.3147C11.858 59.0656 12.0317 58.837 12.274 58.7341C12.5162 58.629 12.8293 58.677 12.9962 58.8827C12.9893 58.309 13.3253 57.7856 13.7595 57.4084C14.6806 56.6107 16.0565 56.4187 17.1969 56.8484C18.3374 57.2781 19.2242 58.2793 19.6059 59.4381C19.935 60.4347 19.8801 61.5067 19.5624 62.5033Z" fill="#FFDFB2" fill-opacity="0.5"/>
<path d="M15.7516 63.0312C15.7489 63.4216 15.6584 63.8111 15.4883 64.1625C15.3942 64.1085 15.249 64.1259 15.1748 64.2047C15.1002 64.2836 15.0781 64.4034 15.1044 64.5085C15.1307 64.6136 15.2004 64.7046 15.2858 64.7711C15.3713 64.8376 15.4723 64.8818 15.575 64.9167" fill="#FFDFB2" fill-opacity="0.5"/>
<path d="M15.7516 63.0312C15.7489 63.4216 15.6584 63.8111 15.4883 64.1625C15.3942 64.1085 15.249 64.1259 15.1748 64.2047C15.1002 64.2836 15.0781 64.4034 15.1044 64.5085C15.1307 64.6136 15.2004 64.7046 15.2858 64.7711C15.3713 64.8376 15.4723 64.8818 15.575 64.9167" stroke="#FFDFB2" stroke-width="0.4256" stroke-miterlimit="10" stroke-linecap="round" stroke-linejoin="round"/>
<path d="M16.8519 63.3283C16.8583 63.5048 16.9689 63.6442 17.0987 63.6394C17.2287 63.6346 17.3288 63.4877 17.3224 63.3112C17.316 63.1347 17.2054 62.9955 17.0756 63.0001C16.9458 63.0049 16.8455 63.1519 16.8519 63.3283Z" fill="#FFDFB2" fill-opacity="0.5"/>
<path d="M14.6019 63.4221C14.6083 63.5986 14.7189 63.738 14.8487 63.7332C14.9787 63.7284 15.0788 63.5816 15.0724 63.405C15.066 63.2285 14.9554 63.0891 14.8256 63.0939C14.6956 63.0987 14.5955 63.2456 14.6019 63.4221Z" fill="#FFDFB2" fill-opacity="0.5"/>
<path d="M16.265 62.2865C16.214 62.106 16.2499 61.9028 16.3596 61.7505C17.0324 61.7354 17.7293 62.0424 18.1848 62.538C18.0808 62.7242 16.904 62.3005 16.265 62.2865Z" fill="#FFDFB2" fill-opacity="0.5"/>
<path d="M15.4188 62.1458C15.4183 61.9582 15.3283 61.7728 15.1811 61.6562C14.5299 61.8256 13.9435 62.3116 13.6406 62.9127C13.7917 63.0633 14.8081 62.334 15.4188 62.1458Z" fill="#FFDFB2" fill-opacity="0.5"/>
<path d="M15.5391 65.9574C15.9265 65.9403 16.3136 65.9232 16.701 65.9062L15.5391 65.9574Z" fill="#FFDFB2" fill-opacity="0.5"/>
<path d="M15.5391 65.9574C15.9265 65.9403 16.3136 65.9232 16.701 65.9062" stroke="#FFDFB2" stroke-width="0.4256" stroke-miterlimit="10" stroke-linecap="round" stroke-linejoin="round"/>
<path d="M25.1552 65.1429C25.1552 67.2777 24.4238 69.2411 23.1965 70.7977C23.1919 70.8023 23.1874 70.8091 23.1828 70.8137C21.5121 72.9303 18.9226 74.288 16.0131 74.288C13.1037 74.288 10.5142 72.9303 8.84349 70.8137C8.83892 70.8091 8.83435 70.8023 8.82978 70.7977C7.60246 69.2411 6.87109 67.2777 6.87109 65.1429C6.87109 60.0937 10.9622 56 16.0131 56C21.0641 56 25.1552 60.0937 25.1552 65.1429Z" fill="#FFDFB2" fill-opacity="0.5" stroke="#FFDFB2" stroke-miterlimit="10" stroke-linecap="round" stroke-linejoin="round"/>
</svg>
