<svg width="100" height="130" viewBox="0 0 100 130" fill="none" xmlns="http://www.w3.org/2000/svg">
<path d="M7.0364 45.7598C6.88253 43.539 7.0308 41.2973 7.47609 39.116C5.78728 41.9179 4.09837 44.7198 2.40955 47.5217C2.33769 47.2134 2.26592 46.9051 2.19406 46.5969C1.00404 50.2111 0.312253 53.9889 0.144376 57.7902C0.0590854 59.7204 0.239422 61.9346 1.76924 63.1146C3.10386 64.1439 5.01937 63.9894 6.60058 63.4058C8.18179 62.8222 9.61715 61.8696 11.2345 61.3955C11.9048 61.815 12.3218 62.529 12.8429 63.1239C13.364 63.7188 14.1317 64.2368 14.8987 64.0442C15.4066 63.9166 15.7895 63.5053 16.1071 63.089C17.7036 60.9957 18.5003 58.2279 20.6299 56.68C21.1982 56.2669 21.8403 55.9603 22.3913 55.5244C23.254 54.8419 23.8516 53.8726 24.2684 52.8545C25.1951 50.5906 25.2843 48.028 24.721 45.6475C24.1578 43.267 22.966 41.0627 21.4471 39.1451C20.3491 37.7591 19.0116 36.4702 17.3292 35.9258C15.4334 35.3124 13.3242 35.7344 11.5472 36.636C9.77024 37.5375 8.2636 38.8823 6.77918 40.2116C8.40327 41.6489 8.49523 44.4805 7.0364 45.7598Z" fill="white"/>
<path d="M20.7667 29.3012C20.7527 29.4525 20.7387 29.604 20.7248 29.7553C19.4816 28.9918 18.6011 27.6632 18.3822 26.2206C18.6383 26.5892 18.8942 26.9579 19.1503 27.3265C19.0391 24.1536 19.4449 21.656 18.8168 17.8077C17.8794 17.4456 16.9796 16.9073 16.3823 16.0991C15.7851 15.2909 15.5376 14.1789 15.9302 13.2539C16.3227 12.3288 17.4401 11.7149 18.3874 12.0504C19.1195 10.0035 19.8738 7.91609 21.2239 6.21231C22.5741 4.50852 24.6509 3.22627 26.8179 3.3983C28.0335 3.49469 29.1778 4.03532 30.1761 4.73551C30.6042 5.03582 31.0549 5.38191 31.5778 5.37679C32.1008 5.37167 32.6181 4.77203 32.328 4.33678C32.5539 4.77251 32.7797 5.20814 33.0055 5.64386C33.0516 5.35843 33.0977 5.0731 33.1437 4.78767C33.8155 9.2876 33.6046 13.9175 32.5264 18.3377C32.2084 19.6417 31.8076 20.9457 31.091 22.0806C30.3744 23.2156 29.3061 24.177 28.0105 24.528C28.5345 26.4876 29.292 27.3715 29.0136 28.8805C28.7352 30.3895 27.8741 31.7629 26.7145 32.7677C26.1282 33.2759 25.3808 33.7152 24.6167 33.5801C23.7752 33.4312 23.2147 32.6531 22.7462 31.9382C21.7966 30.4891 20.8471 29.0401 20.0212 27.5296C20.1008 28.2742 20.3495 29.0002 20.7667 29.3012Z" fill="white"/>
<path d="M62.8756 48.4073C60.2082 46.1577 58.5282 42.7767 58.3464 39.2922C58.2631 37.6965 58.4767 36.0706 58.113 34.5147C57.8357 33.3284 57.2358 32.2447 56.8409 31.0922C56.0444 28.7678 56.1053 26.2284 56.5073 23.8045C56.8827 21.54 57.5714 19.2758 58.9361 17.43C60.3007 15.5843 62.4235 14.2027 64.7182 14.1427C67.5253 14.0693 70.043 15.9259 71.823 18.0978C73.1798 19.7533 74.2629 21.6632 74.7692 23.7429C75.2756 25.8226 75.1775 28.0803 74.2884 30.0274C73.7682 31.1664 72.9655 32.3336 73.2458 33.5539C73.4194 34.3103 73.9854 34.9105 74.2976 35.6209C74.6097 36.3312 74.5327 37.3625 73.8078 37.6397C73.5369 37.3363 73.2661 37.0328 72.9951 36.7294C74.0889 37.2789 74.5996 38.6323 74.4682 39.8492C74.3369 41.0662 73.6829 42.1637 72.947 43.1418C71.1027 45.5931 68.6679 47.5487 66.068 49.177C65.4161 49.5853 64.7146 49.9862 63.9456 50.0079C63.1766 50.0295 62.3385 49.5351 62.8756 48.4073Z" fill="white"/>
<path d="M77.1242 82.6945C76.3337 82.9364 75.4546 82.7312 74.7522 82.2953C74.0498 81.8593 73.5022 81.2135 73.0301 80.5349C70.8618 77.4185 70.1146 73.5391 69.7635 69.7589C69.4123 65.9788 69.3997 62.1399 68.4777 58.4572C67.9968 56.536 67.2696 54.525 67.854 52.6328C68.5536 50.3681 70.9358 49.0404 73.2484 48.5207C76.03 47.8957 78.9229 48.1057 81.7659 48.319C82.8167 48.3978 83.8989 48.4851 84.839 48.9612C86.1527 49.6265 87.0125 50.986 87.3784 52.4122C87.7443 53.8385 87.6742 55.3386 87.5277 56.8038C87.1061 61.0194 86.0695 65.1731 84.4607 69.0924C84.0563 68.7218 83.7382 68.2576 83.5387 67.7466C85.8743 69.2723 86.882 72.544 85.8092 75.1194C85.1212 76.7712 83.7411 78.0299 82.3101 79.1041C80.8791 80.1783 79.7135 81.9018 77.1242 82.6945Z" fill="white"/>
<path d="M44.649 79.6694C44.5525 79.9483 44.456 80.2271 44.3595 80.5059C39.0838 77.7767 35.414 72.1712 35.0228 66.2442C35.0916 65.1339 36.0083 64.1344 37.1086 63.97C37.1786 62.7019 37.2486 61.4336 37.3188 60.1655C36.8106 59.1709 36.3023 58.1763 35.7942 57.1816C34.842 56.919 33.8772 56.6513 33.0255 56.1509C32.1739 55.6506 31.4341 54.8817 31.1866 53.9254C30.8477 52.6154 31.4745 51.2619 32.1628 50.0968C33.3825 48.0321 34.8543 46.1165 36.535 44.4058C37.7341 43.1853 39.1198 42.0279 40.796 41.6843C42.2901 41.3781 43.8595 41.7637 45.2168 42.4592C46.5741 43.1548 47.7546 44.1444 48.9223 45.1256C48.8226 44.7074 48.7228 44.2891 48.6231 43.8709C49.5257 47.1951 50.1273 50.6009 50.4186 54.0332C51.8139 52.8654 53.4572 51.9954 55.2075 51.4981C55.5482 51.4013 55.9517 51.3302 56.2258 51.5546C56.414 51.7087 56.4848 51.9615 56.5374 52.1992C56.9314 53.9816 56.87 55.8626 56.3608 57.6154C56.3934 57.1452 56.4259 56.675 56.4585 56.2048C55.3766 58.5165 54.2948 60.8281 53.213 63.1397C52.7107 64.2131 52.1985 65.3017 51.4209 66.1961C50.6433 67.0904 49.5515 67.7806 48.3668 67.8056C47.182 67.8306 45.9502 67.0479 45.7124 65.8869C47.3533 70.3953 46.1638 75.2929 44.649 79.6694Z" fill="white"/>
<path d="M40.4081 105.357C37.8981 102.763 36.7045 99.0203 36.991 95.4225C37.2775 91.8248 38.9776 88.4021 41.4845 85.8056C42.9566 84.281 44.7483 83.0012 46.7965 82.4572C48.8447 81.9132 51.1694 82.183 52.8488 83.4755C52.8591 82.1008 53.464 80.7407 54.4781 79.8125C54.7681 80.4659 55.0582 81.1194 55.3482 81.7728C55.0154 81.1284 55.56 80.2133 56.2852 80.2235C57.0104 80.2336 57.5234 81.2036 57.1037 81.7952C57.139 81.5263 57.1742 81.2574 57.2095 80.9884C58.8324 86.017 60.4639 91.0836 61.0973 96.3295C61.2694 97.7554 61.3424 99.3005 60.5886 100.523C59.7124 101.944 57.8954 102.555 56.2294 102.449C54.5633 102.343 53 101.645 51.4786 100.958C50.8765 104.022 49.5497 106.94 47.6373 109.408C46.9002 110.359 45.9847 111.297 44.7977 111.494C43.4169 111.723 42.0415 110.845 41.2649 109.68C40.4883 108.516 40.1868 107.108 40.4081 105.357Z" fill="white"/>
<path d="M25.8854 85.2441C25.9547 86.233 25.8585 87.2253 25.7624 88.2119C25.5518 90.3744 25.3392 92.5485 24.7784 94.6477C24.2175 96.7468 23.287 98.7866 21.8011 100.372C20.8986 101.335 19.6821 102.152 18.3655 102.061C17.2106 101.98 16.2249 101.226 15.35 100.468C13.9701 99.2719 12.6578 97.9727 11.6617 96.4423C10.6655 94.912 9.99641 93.1293 9.99747 91.3035C9.99815 90.194 10.203 88.9458 9.49432 88.0922C9.66095 88.6733 9.92339 89.2268 10.268 89.7236C9.65708 88.2537 9.04614 86.7836 8.45442 85.3455C6.2356 83.4036 4.01669 81.4618 1.79788 79.5199C1.34535 79.1239 0.882574 78.7151 0.603906 78.1822C0.532235 78.0452 0.472541 77.8871 0.515621 77.7387C0.587775 77.4894 0.923818 77.4031 1.16346 77.5028C1.40311 77.6025 1.56558 77.8247 1.71539 78.0367C1.17196 77.5953 0.729284 77.0308 0.430139 76.3978C0.352962 76.2345 0.284864 76.0439 0.356342 75.8779C0.458536 75.6407 0.77758 75.5967 1.03297 75.636C1.60537 75.7241 2.1345 76.0632 2.45355 76.5464C1.83063 76.1114 1.34612 75.481 1.086 74.7671C0.981001 74.4789 0.922467 74.1256 1.11942 73.8904C1.3156 73.6561 1.69269 73.654 1.95996 73.802C2.22723 73.95 2.41056 74.21 2.58443 74.4612C2.23283 74.104 1.93552 73.6934 1.70592 73.2477C1.63879 73.1174 1.57572 72.9714 1.60827 72.8284C1.64816 72.6527 1.82724 72.5359 2.00604 72.5139C2.18483 72.492 2.36362 72.5458 2.53381 72.6051C4.80884 73.399 6.5333 75.2407 8.16116 77.0172C7.81643 76.0042 7.47169 74.9911 7.12695 73.978C6.9356 73.4157 6.74252 72.8442 6.71489 72.2508C6.70417 72.02 6.73218 71.7597 6.90972 71.6119C7.17718 71.3889 7.58383 71.5624 7.8597 71.7748C9.62096 73.1313 9.85664 76.4365 11.5623 78.0554C12.4053 79.2796 14.0574 79.11 15.5025 79.458C16.9476 79.806 18.4526 79.9445 19.8328 80.496C21.9042 81.3236 23.5054 83.0012 25.8854 85.2441Z" fill="white"/>
<path d="M84.9033 117.852C84.6682 119.945 82.8045 121.586 80.766 122.115C78.7275 122.645 76.5616 122.257 74.5467 121.644C72.1851 120.926 69.7284 119.72 68.7007 117.475C68.0607 116.077 68.0748 114.483 67.8377 112.964C67.1539 108.584 64.3827 104.849 62.7915 100.712C61.4026 97.1004 60.9229 93.1436 61.409 89.3051C61.5683 88.0472 61.8231 86.7301 61.3778 85.543C66.5116 85.7094 71.8121 87.5361 75.1025 91.4802C78.023 94.9809 79.0223 99.6357 80.3983 103.982C81.8688 108.627 85.4478 113.005 84.9033 117.852Z" fill="white"/>
<path d="M85.0575 113.794C83.8025 113.866 82.5711 113.345 81.5642 112.592C80.5573 111.84 79.7416 110.865 78.9358 109.901C78.1968 109.016 77.4088 107.939 77.6856 106.819C77.8446 106.177 78.3299 105.674 78.796 105.204C82.5085 101.46 86.2211 97.717 89.9336 93.9737C89.8832 94.0586 89.8326 94.1434 89.7821 94.2283C89.2921 92.3807 88.8022 90.5331 88.3123 88.6855C88.1556 88.0946 87.9975 87.4888 88.0533 86.88C88.1552 85.7686 88.9384 84.8558 89.6841 84.0255C90.3989 83.2295 91.207 82.3823 92.2679 82.2447C92.896 82.1632 93.5413 82.3469 94.1631 82.2271C94.785 82.1073 95.3907 81.447 95.0957 80.8867C95.4421 84.8736 95.7886 88.8606 96.135 92.8475C96.2916 94.6503 96.4388 96.5264 95.7899 98.2156C95.0347 100.182 93.3223 101.593 91.6798 102.912C90.3913 103.946 89.1029 104.98 87.8144 106.014C87.1325 106.561 86.4081 107.174 86.2155 108.027C85.7945 109.892 88.113 111.451 87.9573 113.356C86.9904 113.67 86.0234 113.984 85.0575 113.794Z" fill="white"/>
<path d="M35.5624 41.9226C34.0212 42.8518 33.2436 44.7176 33.1597 46.5152C33.0758 48.3129 33.5789 50.0802 34.0773 51.8095C34.2035 51.7997 34.3297 51.7898 34.456 51.78C33.5843 51.7704 32.8377 52.5546 32.7006 53.4154C32.5636 54.2763 32.9326 55.1558 33.4918 55.8244C34.051 56.4932 34.7861 56.9871 35.5107 57.4717C35.6554 59.6816 35.5953 61.9047 35.3316 64.1034C35.3461 64.0076 35.3606 63.9119 35.3751 63.8161C31.9694 65.3166 28.6086 66.9188 25.2986 68.6199C20.3599 69.1211 15.317 69.0251 10.4007 68.3561C9.99785 66.0996 9.98761 63.7735 10.3706 61.5135C10.2752 61.5853 10.1797 61.657 10.0843 61.7287C12.2737 60.646 14.4735 59.5573 16.4673 58.1463C18.461 56.7353 20.2568 54.9764 21.3956 52.8156C22.5344 50.6548 22.4602 48.216 22.2495 45.7256C22.2193 45.3694 21.9323 44.9879 21.5748 44.9921C21.2129 44.9965 21.0129 45.4034 20.8963 45.7459C20.4252 47.13 19.9543 48.5142 19.4832 49.8982C19.3767 47.0356 19.2703 44.173 19.1561 41.2751C19.0768 41.0848 18.9974 40.8945 18.9181 40.7042C18.8033 40.625 18.6364 40.6711 18.5394 40.7714C18.4424 40.8716 18.3996 41.0113 18.3651 41.1464C18.2473 41.6094 18.1902 42.0878 18.1979 42.5844C18.2515 42.6762 18.257 42.7942 18.2123 42.8905C18.209 42.3932 18.0725 41.8975 17.8208 41.4687C17.6737 41.2179 17.3921 40.9627 17.1274 41.0831C16.8905 41.1909 16.8639 41.5112 16.8723 41.7714C16.8942 42.4474 16.9162 43.1235 16.9188 43.8089C16.72 43.3209 16.4172 42.8755 16.0363 42.5113C15.9765 42.4541 15.8993 42.3947 15.8193 42.4159C15.7229 42.4415 15.6938 42.5619 15.6827 42.6611C15.551 43.8354 15.5086 45.0195 15.5558 46.2001C15.4951 45.6407 15.4344 45.0812 15.3737 44.5217C15.3471 44.2771 15.2884 43.9874 15.0604 43.8949C14.8764 43.8201 14.6585 43.9224 14.5385 44.0807C14.4186 44.239 14.3742 44.4403 14.3349 44.635C13.7858 47.3491 13.5943 50.1352 13.7385 52.9084C12.2673 53.5902 10.7511 54.1749 9.20319 54.6578C9.1517 53.4708 9.18174 52.2804 9.33243 50.8517C6.49996 50.6758 3.69107 50.125 1.00195 49.218C1.60961 44.4348 3.06274 39.8034 4.59411 35.2314C5.10933 33.6931 5.66203 32.1101 6.75883 30.9147C8.2788 29.2582 10.5822 28.6143 12.7673 28.0856C14.9524 27.5568 17.2589 27.0113 18.898 25.4727C21.1606 27.6794 23.1245 30.1919 24.7079 32.927C24.7598 33.1691 24.8118 33.4113 24.8636 33.6533C26.0352 31.2927 27.2067 28.9322 28.511 26.7746C30.3743 27.5276 32.2377 28.2806 34.1009 29.0336C35.086 29.4317 36.0811 29.8352 36.9476 30.4498C38.2146 31.3484 39.1471 32.665 39.7568 34.0937C40.3664 35.5223 40.6695 37.0643 40.8453 38.6075C38.6526 38.7714 36.6074 40.239 35.7499 42.2638C35.8135 42.1986 35.877 42.1334 35.9406 42.0682C35.693 42.1242 35.4454 42.1803 35.1978 42.2362C35.3929 42.1676 35.5878 42.099 35.5624 41.9226Z" fill="#00AA7C"/>
<path d="M25.2823 105.693C29.0136 105.678 32.745 105.663 36.4763 105.648C36.0131 105.75 35.5498 105.851 35.0865 105.953C34.5842 99.0795 33.3884 92.2566 31.5232 85.6217C36.0401 84.7502 40.5571 83.8786 45.0741 83.0071C44.3408 80.9204 43.6076 78.8337 42.8744 76.7471C41.0583 73.9393 39.2422 71.1315 37.4261 68.3238C37.0112 67.6823 36.5885 67.0225 36.4279 66.2756C36.2674 65.5288 36.4231 64.6644 37.0096 64.1748C32.3029 63.4338 27.5988 66.2117 24.7069 69.9984C21.8149 73.7851 20.3798 78.4544 18.7387 83.384C18.4488 84.016 18.159 84.6481 17.8691 85.2801C19.8739 87.304 22.5544 88.6467 25.4346 88.9995C25.632 89.0278 25.8294 89.056 26.043 89.0847C25.8447 94.4587 25.6462 99.8327 25.2823 105.693Z" fill="#D0D2D2"/>
<path d="M31.9894 61.0902C30.1347 62.5207 28.3493 64.041 26.6415 65.644C26.2162 66.0431 25.7813 66.4695 25.5919 67.0211C25.4213 67.5179 25.3938 68.1747 24.9082 68.375C25.7858 68.3645 26.6087 67.9751 27.3991 67.5937C29.9781 66.3493 32.5571 65.1048 35.1362 63.8604C35.1902 63.1147 34.9191 62.3511 34.4069 61.8064C33.8947 61.2617 33.1492 60.9441 31.9894 61.0902Z" fill="#00AA7C"/>
<path d="M26.7014 74.9924C25.6211 78.0451 24.301 81.0177 22.6714 83.8159C22.4839 84.1377 22.2859 84.4649 21.9927 84.6947C21.6995 84.9245 21.2873 85.0394 20.9473 84.8874C20.6276 84.7444 20.4387 84.3961 20.3913 84.049C20.344 83.702 20.4148 83.351 20.4853 83.0079C20.6261 82.3223 20.767 81.6367 20.9079 80.9512C20.9366 80.8114 20.9648 80.6631 20.9164 80.5288C20.868 80.3946 20.7117 80.2886 20.5815 80.347C20.517 80.3759 20.4736 80.4367 20.4333 80.4947C20.1209 80.9456 19.8085 81.3965 19.4961 81.8474C20.2867 78.2742 21.6476 74.8426 23.3325 71.5939C23.8037 70.6855 24.3082 69.7795 25.0113 69.036C25.7144 68.2924 26.6436 67.7173 27.6628 67.6264C28.1231 67.5853 28.646 67.6741 28.919 68.0469C29.1833 68.4079 29.1256 68.9039 29.0472 69.3443C28.8517 70.4416 28.6006 71.5289 28.295 72.6007C28.1486 73.1144 27.9861 73.6322 27.6934 74.0789C27.4007 74.5257 26.9579 74.8992 26.7014 74.9924Z" fill="#D0D2D2"/>
<path d="M59.618 86.4789C57.5096 87.5235 55.2598 88.2822 52.9495 88.7278C52.9296 88.5964 52.9096 88.4651 52.8897 88.3338C52.9806 90.7382 53.0716 93.1427 53.1625 95.5471C51.9136 95.3547 50.8489 94.5751 49.7984 93.8727C48.748 93.1703 47.5717 92.5002 46.3103 92.5749C46.373 92.6303 46.4357 92.6855 46.4984 92.7408C45.6506 89.2562 45.6717 85.1584 44.0411 82.1304C42.7575 81.4448 41.7026 80.3393 41.0781 79.025C41.5608 79.0449 41.9956 78.5532 41.9169 78.0766C41.7315 78.3769 41.5459 78.6773 41.3605 78.9776C43.4607 74.9327 44.9404 70.5665 45.7322 66.0781C46.3952 67.2136 47.6022 67.9213 48.8239 68.4074C50.0456 68.8936 51.3383 69.2121 52.5 69.828C53.7328 70.4818 54.7886 71.4657 55.5273 72.6496C56.3972 74.0436 56.8135 75.6653 57.2177 77.258C57.9953 80.3223 58.7729 83.3863 59.618 86.4789Z" fill="#D0D2D2"/>
<path d="M31.6992 85.5095L34.7899 102.973L48.0019 102.146C48.0019 102.146 47.8042 100.341 47.7812 100.372C45.9817 100.394 44.1622 100.414 42.4073 100.015C41.9653 99.915 41.4922 99.7622 41.2411 99.3848C40.9901 99.0074 41.1469 98.3599 41.5972 98.3079C41.2077 98.4246 40.7793 98.4583 40.3993 98.3138C40.0192 98.1693 39.7018 97.8202 39.6758 97.4144C39.6498 97.0086 39.9785 96.5895 40.3851 96.5888C39.9397 96.5996 39.428 96.5818 39.1456 96.2372C38.8652 95.895 38.9549 95.3602 39.2285 95.0125C39.5019 94.6648 39.9137 94.46 40.3114 94.2662C40.0946 94.5427 39.5861 94.3766 39.4868 94.0396C39.3875 93.7026 39.6092 93.3376 39.9112 93.1581C40.2131 92.9786 40.5762 92.942 40.9262 92.9127C42.7949 92.7559 44.6706 92.6889 46.546 92.6894L44.6025 83.3477L31.6992 85.5095Z" fill="#00AA7C"/>
<path d="M28.2426 103.923C27.985 103.965 27.7273 104.007 27.3374 104.085C26.4999 104.326 25.7669 104.911 25.3457 105.675C33.8526 107.822 42.7053 108.594 51.4379 108.031C51.6289 105.717 51.668 103.391 51.4738 101.105C50.0793 100.546 49.1194 100.314 47.6183 100.25C47.8323 100.907 48.0345 101.335 48.0277 102.074C43.761 102.316 38.8679 102.734 34.6012 102.976C34.1583 102.406 33.6453 101.892 33.0776 101.447C32.5962 101.07 32.0458 100.732 31.4353 100.695C30.4977 100.637 29.6407 101.32 29.2052 102.152C28.7698 102.985 28.6697 103.946 28.2426 103.923Z" fill="#D0D2D2"/>
<path d="M64.538 74.6782C61.8709 74.8326 59.2095 75.0855 56.5611 75.4367C56.1961 74.3869 55.8311 73.3371 55.4661 72.2874C56.9178 66.8238 56.8326 60.9781 55.3647 55.4968C53.5647 55.4897 51.8091 55.2776 50.1309 54.9921C50.1436 52.971 50.1572 50.9404 50.4809 48.9454C50.8047 46.9503 51.4544 44.976 52.6362 43.3364C54.0496 41.3754 56.2125 39.969 58.5782 39.4724C58.3229 39.521 58.0676 39.5695 57.8122 39.6181C58.3676 39.5122 58.923 39.4063 59.4783 39.3005C59.8714 41.4322 61.5379 43.2364 63.5801 43.9632C65.6223 44.6901 67.9671 44.3837 69.8509 43.3111C71.7346 42.2384 73.1621 40.448 74.174 38.4283C77.3893 37.8303 80.8818 39.9743 81.8038 43.1121C78.8862 42.3032 75.643 42.395 72.9612 43.8004C70.2794 45.2058 68.2813 48.04 68.2914 51.0678C68.299 53.3661 69.4005 55.5823 69.2411 57.8751C69.1353 59.3969 68.482 60.819 67.8534 62.2091C67.2249 63.5991 66.6007 65.0407 66.5594 66.5656C66.5181 68.0905 67.1971 69.7352 68.5724 70.3955C66.7573 71.3606 65.3207 73.0168 64.538 74.6782Z" fill="#D0D2D2"/>
<path d="M69.0222 98.4783C68.9155 94.234 67.8291 90.0175 65.8719 86.25C65.9104 86.4596 65.949 86.6692 65.9875 86.8788C64.8492 86.387 63.6526 86.0304 62.4308 85.8186C62.3937 81.9354 63.2856 78.0463 65.0114 74.5672C65.7734 73.0308 66.7505 71.5186 68.2243 70.6416C69.8693 69.6628 71.893 69.6116 73.8678 69.8985C73.8185 70.8525 73.5292 71.7749 73.2929 72.7005C73.0565 73.6261 72.8711 74.5913 73.0334 75.5327C73.1957 76.4741 73.7702 77.395 74.6641 77.7319C75.6129 78.0894 76.6752 77.732 77.5838 77.2818C80.7666 75.7047 83.2794 73.0035 85.2298 70.0051C86.4266 70.4497 87.7037 70.6258 88.9391 70.948C90.1745 71.2703 91.4168 71.7709 92.2761 72.7152C92.9752 73.4835 93.3619 74.4799 93.6982 75.4627C94.8391 78.7975 95.5745 82.2822 95.7226 85.8037C93.0724 84.9096 89.9872 85.4389 87.6783 87.3977C87.3926 91.1769 86.7178 94.9265 85.6877 98.5738L69.0222 98.4783Z" fill="#00AA7C"/>
<path d="M70.7349 58.1059C71.114 59.7422 71.501 61.4001 72.2902 62.8827C73.0795 64.3654 74.3315 65.6777 75.9375 66.1697C76.0354 67.0073 76.1281 67.8866 75.8128 68.6688C75.4976 69.451 74.6268 70.0787 73.8238 69.8208C72.0281 69.4119 70.093 69.6457 68.4463 70.4704C66.9078 69.2949 66.1449 67.1894 66.5731 65.3012C66.866 64.0092 67.6458 62.8883 68.1578 61.6664C68.865 59.9788 69.051 58.1269 69.2662 56.3099C69.3019 56.0088 69.4317 55.6222 69.7347 55.633C69.955 55.641 70.0936 55.8679 70.1824 56.0697C70.487 56.7622 70.5973 57.5119 70.7349 58.1059Z" fill="#1C2421"/>
<path d="M68.2502 51.2418C68.5417 54.0143 69.0227 56.7668 69.6889 59.4739C69.7696 58.6508 69.8505 57.8276 69.9313 57.0045C70.1422 57.6723 70.353 58.3401 70.5639 59.008C70.3345 56.7988 70.3611 54.5632 70.643 52.3602C73.3076 52.1425 75.9345 51.3166 78.1826 49.8695C78.9942 49.3471 79.7643 48.7366 80.3382 47.9608C80.9122 47.1849 81.2789 46.2277 81.2191 45.2645C81.1594 44.3013 80.6288 43.3468 79.7697 42.9071C79.0646 42.5462 78.2309 42.5547 77.4429 42.6356C75.0447 42.882 72.6621 43.763 70.9014 45.4098C69.1408 47.0565 68.0696 49.523 68.2502 51.2418Z" fill="#1C2421"/>
<path d="M78.9794 46.82C79.2865 49.2918 80.1403 51.6943 81.4619 53.8055C81.9673 54.6128 82.7691 55.4728 83.6993 55.2682C84.2282 55.1518 84.6149 54.7164 85.0396 54.3805C85.4643 54.0445 86.0765 53.796 86.5305 54.0914C87.0379 54.4215 86.9906 55.1719 86.8413 55.7586C86.6519 56.503 86.3941 57.2299 86.0724 57.9274C85.8833 58.3372 85.6586 58.7527 85.2883 59.0107C84.9181 59.2687 84.3645 59.316 84.0394 59.0031C83.7383 60.5015 83.1293 61.9375 82.2614 63.1956C82.5149 64.0857 82.3691 65.0323 82.3156 65.9562C82.2621 66.8801 82.3297 67.8835 82.9161 68.5994C83.4698 69.2754 84.3671 69.5509 85.2199 69.7411C86.3092 69.984 87.4326 70.1451 88.5408 70.0127C89.649 69.8804 90.7489 69.43 91.5001 68.6046C92.533 67.4697 92.7657 65.7793 92.4664 64.2742C92.167 62.7691 91.4048 61.402 90.6393 60.072C89.8738 58.7419 89.0841 57.3963 88.7201 55.9055C88.0954 53.3464 88.7719 50.5484 87.8374 48.0855C87.2612 46.5672 86.1032 45.3126 84.7369 44.4349C83.3706 43.5572 81.8026 43.034 80.2132 42.7011C79.994 42.6552 79.7499 42.6166 79.5591 42.7338C79.3467 42.8643 79.2799 43.1373 79.2381 43.383C79.0072 44.7404 78.8944 46.1358 78.9794 46.82Z" fill="#1C2421"/>
<path d="M34.0334 51.6013C34.9889 51.3881 36.0565 51.8537 36.5506 52.6988C38.6836 50.3068 39.9202 47.1335 39.9682 43.929C42.3699 45.6121 45.433 46.3228 48.3305 45.8694C49.272 47.922 49.7923 50.1667 49.8498 52.4241C50.6601 50.8646 50.809 49.0524 50.8459 47.2953C50.8849 45.4361 50.7928 43.4886 49.8707 41.8738C49.0606 40.455 47.6579 39.4251 46.1122 38.896C44.5665 38.3668 42.8864 38.3116 41.2696 38.5461C40.1682 38.7059 39.072 39.0032 38.1147 39.5707C37.1574 40.138 36.3449 40.9954 35.9748 42.0449C35.3097 42.1046 34.7132 42.5215 34.3154 43.0578C33.9177 43.5941 33.6969 44.2412 33.5427 44.8908C33.0058 47.154 33.2295 49.5909 34.0334 51.6013Z" fill="#1C2421"/>
<path d="M57.982 39.4641C59.4301 39.396 60.8436 38.7556 61.8496 37.7119C62.8556 36.668 63.4433 35.2319 63.4578 33.7822C63.4734 33.7357 63.4889 33.6892 63.5046 33.6426C61.4427 32.7777 59.6879 31.1999 58.6094 29.2413C57.5309 27.2827 57.1357 24.9562 57.507 22.7514C57.3377 22.5126 57.0647 22.2429 56.7998 22.3674C56.6406 22.4423 56.5742 22.6294 56.5233 22.798C55.9305 24.7603 55.3358 26.7221 54.7392 28.6834C54.3386 30.0004 53.935 31.3275 53.7975 32.6972C53.6599 34.0669 53.8047 35.4987 54.4503 36.7145C55.096 37.9303 56.2051 39.5476 57.982 39.4641Z" fill="#1C2421"/>
<path d="M68.4732 32.8299C67.9902 33.472 67.3952 34.0439 66.6791 34.4085C65.9631 34.773 65.1177 34.9172 64.3415 34.7096C63.5653 34.5019 62.8777 33.9153 62.6406 33.1476C64.0853 33.4302 65.6211 33.3158 66.9677 32.7215C68.3144 32.1272 69.4561 31.0371 70.0161 29.6758C70.1637 29.3171 70.2716 28.9418 70.4444 28.5946C70.6172 28.2475 70.867 27.9214 71.2162 27.7525C71.8269 27.4573 72.5845 27.7257 73.0783 28.1907C73.7391 28.8127 74.05 29.727 74.1703 30.6265C74.3557 32.0122 74.1379 33.4495 73.5502 34.7181C73.2526 35.3603 72.7811 36.0163 72.0831 36.1335C71.6196 36.2114 71.1511 36.0308 70.7416 35.8004C70.1237 35.4528 69.5663 34.9725 69.2154 34.3563C68.8646 33.7402 68.7377 32.9796 68.962 32.307C68.7256 32.3713 68.6075 32.6515 68.4732 32.8299Z" fill="#1C2421"/>
<path d="M70.4107 31.4608C69.8969 31.4541 69.4278 31.8162 69.1947 32.2741C68.9615 32.7321 68.9311 33.2683 68.9821 33.7796C69.1025 34.9859 69.6653 36.1431 70.5396 36.9829C71.4141 37.8226 72.5931 38.338 73.8033 38.4095C76.5189 37.0129 78.1592 33.9061 78.103 30.853C78.0467 27.7998 76.4291 24.8834 74.0725 22.9414C74.1873 23.7336 74.2383 24.5501 74.0468 25.3273C73.8552 26.1045 73.3922 26.8438 72.685 27.2189C72.3085 27.4186 71.8841 27.507 71.4885 27.6656C71.093 27.8241 70.703 28.0807 70.5486 28.478C70.2272 29.3051 71.0628 30.2745 70.4107 31.4608Z" fill="#1C2421"/>
<path d="M70.7251 23.0181C71.1246 22.7791 71.5355 22.5447 71.9873 22.4329C72.4393 22.321 72.9441 22.3449 73.3356 22.5969C73.7399 22.857 73.965 23.3119 74.244 23.7032C74.7679 24.4378 75.5141 24.9784 76.2464 25.5053C75.0461 23.0161 74.0351 20.4356 73.225 17.7936C72.8381 16.5315 72.4821 15.2244 71.6996 14.1613C70.911 13.0901 69.7365 12.347 68.4856 11.8948C67.2346 11.4425 65.9025 11.2619 64.577 11.1504C63.989 11.1009 63.3318 11.0859 62.8873 11.4738C62.5189 11.7953 62.3968 12.3142 62.357 12.8014C62.2009 14.7096 63.0147 16.6139 64.2832 18.0478C65.5519 19.4817 67.2411 20.487 69.0021 21.2379C68.873 21.2122 68.7439 21.1865 68.6147 21.1609C69.26 21.9156 70.0174 22.5743 70.7251 23.0181Z" fill="#1C2421"/>
<path d="M56.6795 23.1092C59.5776 21.0136 61.8984 18.1279 63.3236 14.8477C63.8055 15.2968 64.2875 15.7457 64.7694 16.1948C64.5257 14.9605 64.2336 13.7358 63.894 12.5245C63.8059 12.2103 63.6981 11.8729 63.4321 11.6838C63.1521 11.4849 62.7751 11.5066 62.4359 11.5611C59.7718 11.9885 57.4389 14.0478 56.684 16.6382C55.9453 19.1735 56.6398 21.9538 55.9336 24.4983C56.2312 23.927 56.4453 23.2785 56.6795 23.1092Z" fill="#1C2421"/>
<path d="M17.438 12.2139C18.0019 12.1585 18.5844 12.4767 18.8425 12.9811C20.8713 11.2708 22.1113 8.66002 22.1548 6.00693C23.0573 6.98415 24.4409 7.34116 25.7586 7.52333C28.3666 7.884 31.0435 7.73825 33.5969 7.09668C33.5122 7.11987 33.4275 7.14295 33.3427 7.16613C34.1133 6.93895 34.7511 6.30492 34.983 5.53576C35.0772 5.22328 35.1055 4.8771 34.9791 4.57612C34.8526 4.27523 34.5435 4.03733 34.2185 4.06756C33.8792 3.10995 33.168 2.31809 32.3447 1.72289C31.446 1.07321 30.398 0.6314 29.3054 0.441887C27.6371 0.152497 25.8376 0.14786 24.2462 0.72577C22.6547 1.30368 21.2494 2.45563 19.7815 3.29946C19.16 3.65666 18.5245 4.02554 18.0672 4.57747C17.2055 5.61738 17.1383 7.09765 17.2861 8.44008C17.434 9.78242 17.7547 11.1383 17.438 12.2139Z" fill="#1C2421"/>
<path d="M21.7617 22.5156C22.2795 23.7439 23.2507 24.7749 24.4458 25.3652C25.6409 25.9554 27.05 26.0999 28.34 25.7643C28.3163 25.844 28.3307 25.9341 28.3783 26.0024C28.3489 25.4228 28.3971 24.8393 28.5216 24.2864C27.8202 24.7024 26.973 24.8314 26.1614 24.7518C25.3498 24.6722 24.5687 24.3949 23.8323 24.0448C23.0668 23.6809 22.3181 23.2163 21.7617 22.5156Z" fill="#1C2421"/>
<path d="M7.27148 128.719C11.5764 129.142 15.9205 129.164 20.2295 128.785C21.5317 121.323 22.8341 113.861 24.1363 106.399L25.4069 105.747C25.4069 105.747 25.8609 89.3276 25.8291 89.3281C25.0701 93.0339 23.3307 96.5342 20.8354 99.3771C20.2569 100.036 19.5319 100.707 18.6551 100.689C17.8915 100.673 17.2486 100.134 16.708 99.5946C13.3075 96.1994 11.2533 91.7201 9.269 87.3438C9.25577 87.8976 9.24254 88.4514 9.22921 89.0052L7.27148 128.719Z" fill="#1C2421"/>
<path d="M17.2853 104.864C16.59 104.936 15.9491 104.493 15.4431 104.01C13.9422 102.579 13.0043 100.634 12.502 98.6218C11.9997 96.6097 11.9065 94.519 11.8945 92.4453C12.3018 92.7409 12.4129 93.286 12.615 93.7467C13.0144 94.6573 13.8271 95.3059 14.4691 96.0653C15.0513 96.754 15.4988 97.5439 16.0092 98.2872C16.5198 99.0305 17.1135 99.7451 17.8956 100.194C18.7955 100.71 19.9265 100.867 20.633 101.627C21.1553 102.189 21.345 103.039 21.111 103.769C20.8771 104.5 20.2288 105.082 19.4773 105.235C18.7258 105.389 17.9013 105.109 17.2853 104.864Z" fill="#1C2421"/>
<path d="M10.0918 75.3284C11.1042 77.6143 11.9795 79.9608 12.7116 82.3511C12.5961 82.2562 12.4808 82.1612 12.3654 82.0664C14.1006 84.4248 15.9906 86.6691 18.0194 88.7802C18.2446 87.8953 18.4698 87.0105 18.695 86.1255C18.8601 86.3246 19.0252 86.5237 19.1904 86.7228C18.5843 86.3947 18.0554 85.9248 17.6583 85.3614C19.1166 82.5615 19.9974 79.5051 21.0866 76.542C22.1757 73.579 23.5229 70.6301 25.7201 68.3633C20.5799 69.055 15.3482 69.0633 10.2059 68.3881C10.3191 70.6558 10.3989 72.9417 10.0918 75.3284Z" fill="#1C2421"/>
<path d="M51.6213 108.106L51.8949 118.189L39.6427 119.885L41.6467 118.288L38.7399 119.032L37.1619 128.979C37.1619 128.979 23.5808 128.957 23.6842 128.827C23.7372 120.875 23.7902 112.924 23.8434 104.973C32.6659 107.834 42.0616 108.915 51.6213 108.106Z" fill="#1C2421"/>
<path d="M43.0421 118.556C41.7945 118.791 40.5866 119.236 39.4844 119.867C39.5227 119.853 39.5611 119.84 39.5994 119.826L39.6851 128.902L52.4081 128.582C52.4081 128.582 51.9201 117.434 51.7979 117.361C50.843 116.534 49.7731 115.793 48.5513 115.472C47.3295 115.151 45.9302 115.308 44.9625 116.119C44.2622 116.707 43.8544 117.563 43.0421 118.556Z" fill="#1C2421"/>
<path d="M57.574 128.602C59.8839 128.757 62.2008 128.807 64.5152 128.751C64.5152 128.751 67.1452 107.867 67.0898 107.663C65.4656 103.904 63.8414 100.145 62.2534 96.264C62.2927 92.8216 62.5488 89.3819 63.0196 85.9717C63.1866 86.0152 63.3536 86.0586 63.5206 86.1021C63.1095 86.0125 62.6984 85.9228 62.2873 85.8331C62.5879 81.9664 63.4512 78.144 64.8416 74.5234C62.1288 74.804 59.4159 75.0845 56.7031 75.3651C57.7175 79.1331 58.7319 82.901 59.7463 86.669C59.4468 86.7671 59.1473 86.8652 58.8478 86.9633C59.9318 90.564 60.2733 94.3397 60.6089 98.085C60.6852 98.936 60.7503 99.8447 60.3408 100.595C59.8 101.585 58.6134 101.994 57.4515 102.39C57.4267 111.101 57.511 119.812 57.574 128.602Z" fill="#1C2421"/>
<path d="M63.1334 127.53C61.9102 121.089 62.496 114.314 64.8067 108.179C65.0994 107.402 65.4321 106.614 66.0099 106.018C65.8414 105.757 65.6727 105.497 65.5041 105.236C67.5319 107.399 67.7039 110.879 69.8551 112.919C69.4715 113.213 69.1658 113.52 68.9292 113.942C68.6927 114.363 68.5651 114.935 68.8784 115.304C69.1916 115.672 69.8965 115.657 70.09 115.214C69.6679 115.509 69.6139 116.205 69.9854 116.561C70.3569 116.918 71.05 116.57 71.3272 116.137C70.9588 116.429 71.3115 117.356 71.7788 117.411C72.246 117.467 72.6703 117.158 73.0377 116.865C72.7025 116.967 72.5135 117.397 72.6646 117.713C72.8157 118.03 73.2685 118.153 73.559 117.956C73.3799 117.984 73.2007 118.011 73.0216 118.038C73.863 119.44 74.9808 120.675 76.2917 121.652C76.3466 120.972 76.1587 120.274 75.7696 119.713C75.9802 120.117 76.2027 120.535 76.5687 120.805C76.9346 121.076 77.4885 121.15 77.8297 120.849C77.5701 120.037 77.1802 119.266 76.6794 118.576C77.1032 118.86 77.3171 119.365 77.6688 119.735C78.0205 120.105 78.6967 120.295 79.0024 119.886C79.2299 119.582 79.0976 119.142 78.8887 118.825C78.6799 118.508 78.3967 118.22 78.3177 117.849C78.6802 118.422 79.1896 118.903 79.7838 119.231C79.9512 119.323 80.1487 119.405 80.3285 119.34C80.5288 119.268 80.6293 119.03 80.6125 118.818C80.5956 118.606 80.4885 118.413 80.3838 118.227C79.7024 117.019 79.0209 115.812 78.299 114.862C80.0976 113.449 81.5489 111.653 83.133 110.004C84.9669 108.094 86.9929 106.369 89.1717 105.007C89.2567 104.944 89.3417 104.88 89.4267 104.816C92.0508 112.41 93.3083 120.474 92.977 128.502C92.9688 128.513 92.9606 128.523 92.9524 128.533C92.9524 128.533 64.6996 128.916 64.5203 128.787C63.7794 128.615 63.2253 128.014 63.1334 127.53Z" fill="#1C2421"/>
<path d="M68.7246 98.5336C70.3181 101.66 71.4978 104.996 72.2231 108.429C74.3126 107.157 77.1904 107.713 79.1775 106.286C79.7516 105.874 80.2081 105.322 80.6579 104.777C82.3812 102.687 84.1044 100.597 85.8277 98.5078C80.2082 98.7991 74.571 98.7482 68.7246 98.5336Z" fill="#1C2421"/>
<path d="M67.7188 96.4154C68.1446 97.1737 68.5706 97.932 68.9965 98.6903C69.123 97.245 68.8844 95.7693 68.309 94.4375C68.23 95.1527 68.0508 95.8566 67.7188 96.4154Z" fill="#1C2421"/>
<path d="M26.477 24.9434C25.9954 24.9434 25.5079 24.8841 25.0285 24.7637C23.7255 24.4359 22.5067 23.6853 21.5039 22.5928C21.4181 22.4993 21.4242 22.3541 21.5177 22.2685C21.6115 22.1826 21.7564 22.1888 21.842 22.2823C22.7841 23.3082 23.9245 24.0123 25.1402 24.3183C26.4504 24.6477 27.8247 24.4829 28.9089 23.866C30.2571 23.0985 31.2689 21.6235 32.0019 19.3562C33.2745 15.4216 33.3766 11.2147 33.4756 7.14616C33.4784 7.01952 33.6005 6.91472 33.7105 6.92226C33.8375 6.92535 33.9375 7.03054 33.9344 7.15717C33.835 11.2585 33.732 15.4994 32.4387 19.4977C31.6688 21.8789 30.5887 23.4382 29.136 24.2648C28.3491 24.7129 27.4257 24.9434 26.477 24.9434Z" fill="#1C2421"/>
<path d="M24.8887 33.5398C24.8045 33.5398 24.7248 33.4984 24.6845 33.4246C23.1484 30.5983 21.2014 28.027 18.8976 25.7823C18.8459 25.7319 18.821 25.6605 18.83 25.5891C19.1736 22.8483 19.0508 20.3187 18.4533 17.8608C16.8903 17.5773 15.6101 16.1623 15.5066 14.5709C15.4414 13.5685 15.8643 12.645 16.5839 12.2182C16.7909 12.0955 17.0309 12.0223 17.2796 12.0005C17.2934 11.2146 17.1786 10.4151 17.0671 9.64029C17.0223 9.32705 16.9774 9.01418 16.9402 8.70132C16.8167 7.65813 16.7426 6.30691 17.2697 5.10366C17.8089 3.87318 18.9645 3.06248 20.1133 3.07427C21.4586 1.66953 23.2379 0.66362 25.1349 0.238326C27.0663 -0.195662 29.144 -0.0331935 30.9854 0.69511C32.6606 1.35812 33.8376 2.45579 34.2502 3.72906C34.3954 3.72182 34.5472 3.75804 34.6952 3.82845C34.9963 3.9716 35.2413 4.2438 35.3502 4.55637C35.5162 5.03074 35.4244 5.59647 35.0987 6.10938C34.2812 7.39714 32.5781 7.69001 31.368 7.79829C29.9388 7.92627 28.4875 7.93593 27.0552 7.82591C25.6184 7.71551 23.8235 7.45616 22.384 6.45122C22.2102 9.07291 20.9224 11.5891 18.884 13.2536C18.8247 13.3023 18.7446 13.3184 18.6705 13.2947C18.5967 13.2719 18.5397 13.2136 18.5183 13.1394C18.4421 12.8758 18.2351 12.6655 17.9353 12.5467C17.5693 12.4015 17.1309 12.428 16.8176 12.6137C16.2453 12.9528 15.9103 13.7096 15.9645 14.5414C16.058 15.9743 17.2461 17.2431 18.6694 17.4301C18.7625 17.4426 18.8391 17.5105 18.8622 17.602C19.4962 20.1281 19.6394 22.7241 19.2993 25.533C21.5001 27.6926 23.3768 30.147 24.8835 32.8356C26.035 30.6978 27.211 28.5025 28.2766 26.2854C28.1227 25.6176 28.1372 24.9183 28.3194 24.257C28.3532 24.1349 28.4792 24.0631 28.6019 24.0965C28.724 24.1303 28.7958 24.2566 28.7624 24.3791C28.5937 24.9907 28.5868 25.6396 28.7417 26.2547C28.7548 26.3067 28.7493 26.362 28.7262 26.4103C27.585 28.7905 26.3183 31.1415 25.093 33.4148C25.053 33.489 24.9733 33.54 24.8888 33.54L24.8887 33.5398ZM17.7385 12.0185C17.863 12.0392 17.9862 12.0727 18.1045 12.1195C18.416 12.2427 18.6654 12.4483 18.8228 12.7039C20.7367 11.0287 21.8982 8.54465 21.9441 5.99878C21.9454 5.91049 21.9976 5.8311 22.0775 5.7942C22.1579 5.7573 22.2514 5.76937 22.3197 5.82598C23.7106 6.97475 25.6 7.25341 27.0906 7.36758C28.4977 7.47586 29.9231 7.4662 31.3275 7.34064C32.4407 7.24095 34.0027 6.97948 34.7113 5.86278C34.9576 5.47506 35.0345 5.04348 34.9172 4.70783C34.8485 4.51117 34.6878 4.33315 34.4981 4.24283C34.3774 4.18527 34.2594 4.17145 34.1653 4.20594C34.1045 4.22728 34.0369 4.22352 33.98 4.1928C33.9227 4.16276 33.881 4.10964 33.8648 4.04685C33.5532 2.83114 32.4424 1.76525 30.8166 1.12185C29.0601 0.427453 27.0779 0.272229 25.2357 0.685836C23.3929 1.09944 21.667 2.08642 20.3759 3.46488C20.3289 3.51521 20.2613 3.5408 20.193 3.53694C19.0443 3.4645 18.0836 4.3911 17.6906 5.28767C17.2077 6.38949 17.2797 7.66171 17.3964 8.64694C17.4333 8.95642 17.4775 9.26542 17.522 9.5749C17.6364 10.3713 17.7545 11.193 17.7385 12.0185Z" fill="#1C2421"/>
<path d="M29.9836 34.6929C29.9346 34.6929 29.8863 34.6771 29.8459 34.647L25.9591 31.7397C25.8577 31.6638 25.8371 31.52 25.9129 31.4182C25.9888 31.3174 26.1326 31.2961 26.2344 31.3719L29.8455 34.073C30.4457 31.501 29.9435 28.6923 28.476 26.4934C28.4056 26.3882 28.4343 26.2454 28.5399 26.1751C28.6451 26.1054 28.7875 26.133 28.8583 26.2389C30.4613 28.6406 30.9646 31.7377 30.205 34.5236C30.185 34.5971 30.1302 34.6557 30.0581 34.6802C30.034 34.6888 30.0088 34.6929 29.9836 34.6929Z" fill="#1C2421"/>
<path d="M25.026 39.5595C25.0208 39.5595 25.0157 39.5591 25.0105 39.5588C24.8838 39.5505 24.7883 39.4412 24.7966 39.3146C24.9298 37.2972 24.8839 35.2561 24.6596 33.2473C24.6455 33.1214 24.7362 33.0076 24.8621 32.9938C24.9853 32.9789 25.1016 33.07 25.1157 33.1962C25.343 35.2319 25.3899 37.3006 25.2547 39.3449C25.2468 39.4664 25.1458 39.5595 25.026 39.5595Z" fill="#1C2421"/>
<path d="M19.431 35.4483C19.4154 35.4483 19.4 35.4465 19.3844 35.4435C19.3164 35.4293 19.2585 35.3851 19.2268 35.3234C17.8852 32.7123 16.7765 29.9622 15.9316 27.1487C15.8996 27.0425 15.9486 26.9283 16.0476 26.8779L18.8705 25.4466C18.9833 25.3893 19.1216 25.4352 19.1792 25.5476C19.2364 25.6607 19.1912 25.7987 19.0781 25.8563L16.4271 27.2003C17.2295 29.8331 18.2647 32.4086 19.5073 34.8626C20.9206 33.7536 22.5716 32.9167 24.2995 32.4355C24.4233 32.4013 24.5485 32.4731 24.5824 32.5949C24.6166 32.7173 24.5451 32.8439 24.423 32.8778C22.6648 33.3676 20.9889 34.2383 19.5766 35.396C19.5352 35.43 19.4834 35.4483 19.431 35.4483Z" fill="#1C2421"/>
<path d="M9.57815 51.1783C6.54903 51.1783 3.61988 50.6136 0.862277 49.4969C0.757088 49.4545 0.698744 49.3413 0.725017 49.2309C1.88586 44.343 3.0863 39.289 4.64868 34.4184C5.13994 32.8867 5.67082 31.42 6.75438 30.3074C8.04147 28.9863 9.88493 28.4412 11.3472 28.1141C11.7411 28.0261 12.1386 27.9465 12.536 27.8668C13.7575 27.6218 15.0204 27.3689 16.1595 26.8563C16.2748 26.8043 16.4111 26.8553 16.4631 26.9716C16.5152 27.0871 16.4635 27.2231 16.3479 27.2751C15.1615 27.8088 13.8727 28.0672 12.6264 28.317C12.2321 28.396 11.8381 28.475 11.4473 28.5626C10.0471 28.8755 8.28604 29.3933 7.08347 30.6276C6.06926 31.669 5.56012 33.0813 5.08614 34.5585C3.54936 39.3484 2.36225 44.3252 1.21773 49.1443C4.00335 50.2437 6.96041 50.7702 10.0288 50.7146C11.2808 46.8144 12.0072 42.7628 12.1884 38.6691C12.1939 38.5422 12.2918 38.4525 12.4278 38.4498C12.5547 38.4553 12.6528 38.5626 12.6472 38.6892C12.4616 42.8788 11.7109 47.0246 10.4156 51.0117C10.3856 51.1042 10.3004 51.1676 10.2031 51.17C9.99417 51.1756 9.78573 51.178 9.57815 51.1783Z" fill="#1C2421"/>
<path d="M3.99574 64.0957C3.62695 64.0957 3.25372 64.0502 2.8915 63.9345C1.8314 63.5962 0.92141 62.652 0.456706 61.4084C0.0406847 60.2962 -0.00828617 59.0892 0.000986656 57.9505C0.0244585 55.128 0.394888 52.3682 1.13382 49.5133C1.16521 49.3905 1.28972 49.3153 1.41355 49.3487C1.53631 49.3805 1.60982 49.5056 1.57814 49.6284C0.848871 52.4464 0.483172 55.1696 0.460473 57.9538C0.45149 59.0487 0.496696 60.2053 0.886541 61.2474C1.30256 62.3603 2.10427 63.201 3.03088 63.497C3.94396 63.7878 4.97508 63.5666 5.77168 63.3414C8.93574 62.4452 11.7996 60.6379 14.5694 58.8906C15.0275 58.6015 15.4849 58.3128 15.9434 58.0282L16.1897 57.8758C17.4854 57.0741 18.8252 56.2449 19.7997 55.0847C20.718 53.9908 21.3606 52.5478 21.7094 50.7954C22.0227 49.2227 22.0706 47.5828 22.1169 45.9966C22.1258 45.69 22.1086 45.3212 21.8936 45.1912C21.7202 45.0866 21.4645 45.1822 21.3176 45.3357C21.1306 45.5295 21.0371 45.8141 20.9464 46.0894L19.5382 50.3856C19.5027 50.4946 19.392 50.5584 19.2792 50.5401C19.1664 50.5195 19.086 50.4187 19.0908 50.3042C19.2236 47.2406 19.1967 44.2604 19.0108 41.4472C18.9967 41.2336 18.9776 41.047 18.8852 40.9221C18.8466 40.87 18.7748 40.8293 18.7103 40.8238C18.6782 40.8193 18.6537 40.8266 18.6385 40.8413C18.5867 40.89 18.5809 41.038 18.5777 41.1173L18.4032 45.538C18.3911 46.1617 18.3604 46.783 18.3297 47.3977C18.3231 47.524 18.2096 47.6199 18.0899 47.6157C17.9637 47.6102 17.8658 47.5036 17.8709 47.3773L17.9437 45.5324C17.9689 44.2071 17.9064 42.8769 17.565 41.595C17.5211 41.4304 17.4697 41.2621 17.3635 41.1675C17.3218 41.1302 17.2579 41.1054 17.2024 41.1131C17.1841 41.1144 17.1596 41.1196 17.1464 41.1359C17.1098 41.1811 17.1144 41.3031 17.1168 41.3763L17.3234 47.359C17.3278 47.4856 17.2292 47.5915 17.1026 47.5963C16.967 47.5935 16.8697 47.5025 16.8646 47.3762C16.8038 45.879 16.741 44.3308 16.2181 42.9123C16.1605 42.757 16.0508 42.6097 15.968 42.577C15.9498 42.5701 15.9421 42.5718 15.9307 42.5777C15.909 42.5884 15.8587 42.6411 15.8596 42.894L15.8769 47.5262C15.8773 47.6493 15.7803 47.7511 15.6576 47.7566C15.5351 47.7542 15.4292 47.6697 15.4185 47.5469L15.1622 44.5743C15.1446 44.3673 15.1097 44.1462 14.9855 44.0758C14.8786 44.0161 14.706 44.0941 14.6191 44.2038C14.5025 44.3518 14.4569 44.5601 14.4135 44.7975C13.9171 47.5161 13.7933 50.2903 14.0457 53.0435C14.055 53.1463 13.9946 53.2429 13.8981 53.2795C10.4574 54.5786 6.84211 55.5848 3.15307 56.2706C3.0303 56.2937 2.90811 56.2116 2.88541 56.0871C2.86194 55.9622 2.94443 55.8425 3.06894 55.8195C6.67346 55.1492 10.2063 54.1712 13.5728 52.9111C13.3375 50.1738 13.4683 47.4171 13.9616 44.7147C14.0143 44.4269 14.0768 44.1496 14.2589 43.9189C14.4659 43.6567 14.8705 43.4822 15.2117 43.6763C15.2903 43.7208 15.3531 43.7774 15.4038 43.8412L15.4001 42.8957C15.3997 42.7411 15.3983 42.3313 15.7243 42.1671C15.8561 42.1012 15.9979 42.0946 16.1362 42.1498C16.3863 42.2484 16.5647 42.5261 16.6484 42.7535C16.6701 42.8114 16.6908 42.8698 16.7108 42.9284L16.6577 41.3919C16.6529 41.2549 16.6445 41.0255 16.7891 40.8468C16.8792 40.7354 17.0127 40.6675 17.1648 40.655C17.3494 40.6409 17.5329 40.7037 17.6684 40.8244C17.8695 41.0035 17.9492 41.2549 18.0082 41.4767C18.0376 41.5871 18.0651 41.6971 18.0907 41.8079L18.1186 41.0987C18.1248 40.9434 18.1352 40.6844 18.3228 40.507C18.4343 40.4015 18.5871 40.3508 18.7502 40.3659C18.9448 40.3832 19.1377 40.4915 19.2543 40.6488C19.434 40.8923 19.454 41.1953 19.4685 41.4164C19.6227 43.749 19.6683 46.1945 19.6048 48.7072L20.5097 45.9457C20.6115 45.6364 20.7266 45.2858 20.9864 45.0164C21.2621 44.7308 21.7436 44.5635 22.1314 44.798C22.6029 45.0833 22.5836 45.7322 22.5753 46.0096C22.5287 47.6144 22.48 49.2743 22.1596 50.8847C21.7953 52.7136 21.1195 54.226 20.1511 55.3796C19.1294 56.5968 17.7578 57.4454 16.4314 58.2664L16.1854 58.4189C15.728 58.7025 15.2713 58.9909 14.8142 59.2793C12.0169 61.0441 9.12467 62.869 5.89657 63.7832C5.3404 63.9408 4.67526 64.0957 3.99574 64.0957Z" fill="#1C2421"/>
<path d="M9.17813 54.8416C9.12461 54.8416 9.07188 54.8233 9.02909 54.7878C8.8218 54.6126 9.08221 51.0674 9.09322 51.0387C9.13843 50.9203 9.2723 50.8596 9.38957 50.9065C9.49166 50.9456 9.55 51.0497 9.53484 51.1535C9.51069 51.4226 9.38686 54.2362 9.40096 54.5549C9.42579 54.6511 9.38541 54.7564 9.29577 54.8095C9.25955 54.8313 9.21889 54.8416 9.17813 54.8416Z" fill="#1C2421"/>
<path d="M18.7811 69.1628C16.0225 69.1628 13.2175 69.0207 10.314 68.7354C10.2033 68.7247 10.116 68.6357 10.1074 68.5246C9.93245 66.2648 9.8887 64.0811 9.9735 61.8496C9.97872 61.7229 10.0787 61.6309 10.2115 61.6287C10.3384 61.6336 10.4371 61.7402 10.4323 61.8668C10.3506 64.0176 10.3892 66.123 10.5506 68.2973C15.5296 68.775 20.2207 68.8309 24.885 68.4659C28.2511 66.9105 31.7008 65.3163 35.116 63.6834C35.4213 61.5946 35.4317 59.4765 35.1467 57.3836C34.3371 56.9814 33.7037 56.4905 33.2629 55.9231C32.6899 55.1848 32.4357 54.2959 32.5657 53.4841C32.7137 52.5617 33.4015 51.7762 34.2381 51.5737C35.0998 51.3643 35.9915 51.8238 36.5359 52.3893C38.7964 50.2312 39.9904 46.996 39.6606 43.8862C39.6513 43.7979 39.6937 43.7119 39.7696 43.6657C39.8458 43.6205 39.9414 43.6216 40.0155 43.6706C42.4886 45.3074 45.4735 46.0146 48.4172 45.6645C48.5214 45.6525 48.6145 45.7084 48.6552 45.8011C50.3093 49.6102 50.7305 53.9423 49.8409 57.9991C49.4773 59.6577 48.9481 60.9707 48.2236 62.0131C47.3049 63.3336 46.0527 64.2292 44.697 64.5344C42.8266 64.9574 40.6216 64.2122 38.9451 62.5926C37.4672 61.1652 36.5127 59.3045 35.6675 57.5109L35.6247 57.4978C35.8969 59.6169 35.8724 61.7598 35.5519 63.8724C35.5405 63.9476 35.4926 64.0121 35.4239 64.0449C31.9577 65.7039 28.4556 67.3221 25.0688 68.8869C25.0443 68.8983 24.9891 68.9183 24.9619 68.9207C22.9142 69.0817 20.861 69.1624 18.7811 69.1628ZM35.3295 56.9372C35.3516 56.9372 35.3743 56.9407 35.3967 56.9475L35.8993 57.1017C35.9614 57.1206 36.0124 57.1649 36.0397 57.2235C36.8776 59.0066 37.817 60.8642 39.2637 62.262C40.831 63.7761 42.8742 64.4743 44.5962 64.0865C45.8394 63.8064 46.9937 62.9768 47.8464 61.7507C48.5357 60.7586 49.0414 59.4992 49.3922 57.9002C50.2491 53.9925 49.8609 49.8228 48.3004 46.1397C45.4606 46.4404 42.5902 45.7919 40.1558 44.3037C40.3448 47.4878 39.0357 50.7401 36.674 52.8875C36.6271 52.9299 36.564 52.9499 36.5015 52.9468C36.438 52.9416 36.3797 52.9106 36.3401 52.8612C35.8989 52.3099 35.0717 51.8425 34.3455 52.0198C33.6842 52.1798 33.1385 52.8118 33.0188 53.5566C32.9088 54.243 33.1299 55.003 33.6256 55.6412C34.0122 56.139 34.5711 56.5757 35.2883 56.9407C35.3019 56.9385 35.3157 56.9372 35.3295 56.9372Z" fill="#1C2421"/>
<path d="M35.8938 76.4207C35.8786 76.4207 35.8631 76.4189 35.8479 76.4159C35.7765 76.4014 35.7162 76.3537 35.6854 76.2879C34.6102 73.9745 33.2717 71.0955 32.7163 68.1187C32.5766 67.3701 32.4862 66.576 32.7694 65.8399C33.0612 65.0806 33.7591 64.4415 34.684 64.0858C35.4264 63.8005 36.2111 63.7135 36.9773 63.6443C37.0176 62.2393 36.9579 60.9653 36.7955 59.7568C36.7786 59.6309 36.8669 59.5154 36.9924 59.4985C37.1152 59.4802 37.2339 59.5698 37.2508 59.6954C37.4243 60.988 37.483 62.3513 37.4295 63.863C37.4271 63.9334 37.3929 63.9962 37.3408 64.0364C37.3233 64.0709 37.297 64.1016 37.2625 64.1247C36.6454 64.5342 36.4932 65.3825 36.616 66.0414C36.7578 66.799 37.2125 67.5013 37.614 68.1208L40.8301 73.0877C40.8708 73.1511 40.8784 73.2302 40.8498 73.2998C40.8212 73.3694 40.7601 73.4205 40.6867 73.4368C38.8518 73.8394 37.3619 75.1796 36.0473 76.3618C36.0049 76.4 35.95 76.4207 35.8938 76.4207ZM36.5785 64.1444C35.9876 64.2083 35.3974 64.3034 34.8489 64.5143C34.0451 64.8234 33.4434 65.3667 33.1978 66.0049C32.9559 66.6345 33.0402 67.3523 33.1675 68.0347C33.6904 70.8358 34.9313 73.5731 35.9714 75.8129C37.1474 74.759 38.5728 73.5427 40.27 73.0677L37.2284 68.3706C36.8041 67.7151 36.3229 66.9724 36.1648 66.1255C36.0463 65.4911 36.146 64.7067 36.5785 64.1444Z" fill="#1C2421"/>
<path d="M42.5156 76.7751C42.5121 76.7751 42.5084 76.7747 42.5049 76.7747C42.4076 76.7703 42.3242 76.7051 42.2959 76.6119C41.9205 75.372 41.252 74.2188 40.3634 73.2767C40.2764 73.1843 40.2806 73.039 40.3726 72.9521C40.4655 72.8655 40.6106 72.8693 40.6973 72.9614C41.4924 73.8044 42.1203 74.8076 42.5343 75.8908C44.0021 72.2811 45.5568 68.2388 45.3592 64.1272C45.3533 64.0005 45.451 63.8929 45.5776 63.8868C45.6966 63.8847 45.8118 63.9785 45.818 64.1051C46.0309 68.5352 44.2764 72.8369 42.7281 76.6319C42.6929 76.7189 42.6087 76.7751 42.5156 76.7751Z" fill="#1C2421"/>
<path d="M47.6351 75.5735C47.6199 75.5735 47.6043 75.5718 47.5888 75.5687C47.4884 75.548 47.4139 75.4631 47.4059 75.361C47.3597 74.7453 47.1368 74.1747 46.7794 73.7542C46.3962 73.3033 45.8432 73.0225 45.3002 73.0022C44.7252 72.9856 44.1677 73.2571 43.8748 73.7051C43.8062 73.8107 43.6637 73.8421 43.5571 73.7717C43.4509 73.7024 43.4212 73.5603 43.4906 73.454C43.8693 72.8738 44.5824 72.516 45.3175 72.5433C45.9867 72.5682 46.6639 72.9097 47.1293 73.4568C47.4008 73.7759 47.6057 74.1664 47.7313 74.5949C48.0507 73.8201 48.2314 73.0215 48.259 72.2529C48.297 71.1862 48.0355 70.1362 47.5229 69.2958C47.2366 68.826 46.8595 68.3965 46.4953 67.9812C46.1096 67.5421 45.7111 67.0877 45.4011 66.5703C45.3359 66.4616 45.3714 66.3205 45.4801 66.2553C45.5888 66.1901 45.7295 66.2257 45.7951 66.3343C46.0838 66.8159 46.4512 67.235 46.8407 67.6783C47.2178 68.1084 47.6079 68.5531 47.9149 69.0565C48.4741 69.9726 48.7594 71.1139 48.7179 72.2695C48.6807 73.3209 48.3764 74.4207 47.8387 75.4501C47.7986 75.527 47.7193 75.5735 47.6351 75.5735Z" fill="#1C2421"/>
<path d="M42.6326 83.7071C42.5074 83.7071 42.4049 83.6063 42.4028 83.4807C42.3863 82.3438 42.3483 81.1081 42.3121 79.9131C42.2755 78.7164 42.2379 77.4794 42.2207 76.3386C42.219 76.2117 42.3204 76.1075 42.447 76.1055C42.5781 76.1203 42.6782 76.2052 42.6802 76.3318C42.6967 77.4688 42.7347 78.7045 42.7709 79.8994C42.8075 81.0961 42.8451 82.3331 42.8623 83.4739C42.864 83.6008 42.7626 83.705 42.636 83.7071C42.635 83.7071 42.6337 83.7071 42.6326 83.7071Z" fill="#1C2421"/>
<path d="M56.8535 102.567C55.7969 102.567 54.7919 102.293 54.0793 102.067C53.6692 101.937 53.2635 101.792 52.8581 101.648C52.1923 101.411 51.5041 101.166 50.8125 100.995C49.3477 100.632 47.7978 100.582 46.2986 100.534C44.9953 100.492 43.6479 100.449 42.3412 100.204C42.0114 100.141 41.6336 100.056 41.3245 99.8248C41.0148 99.5934 40.7605 99.1604 40.8912 98.7147C40.9057 98.6657 40.9237 98.6191 40.9454 98.5746C40.6549 98.5588 40.3434 98.5239 40.0541 98.3911C39.6995 98.2279 39.3479 97.8571 39.3627 97.3955C39.3724 97.0768 39.5528 96.8129 39.7836 96.6335C39.4135 96.5486 39.0115 96.3628 38.8532 95.9439C38.649 95.4027 39.0109 94.8256 39.4786 94.58C39.5732 94.5303 39.6712 94.491 39.7708 94.4603C39.4569 94.313 39.2317 94.0743 39.2258 93.7179C39.2206 93.3943 39.4365 93.0804 39.7753 92.9179C40.0506 92.7855 40.3583 92.7658 40.6056 92.7502C42.2452 92.645 43.8872 92.5739 45.4755 92.505C46.2809 92.4701 47.1931 92.4305 48.0354 92.704C48.6788 92.9135 49.24 93.2895 49.7827 93.6533C49.9531 93.7675 50.1236 93.8817 50.2964 93.9907C52.4945 95.3768 55.2235 95.9167 57.7848 95.471C57.91 95.453 58.0287 95.5327 58.0505 95.658C58.0722 95.7829 57.9884 95.9019 57.8635 95.9236C55.1935 96.388 52.3451 95.8253 50.0514 94.3792C49.8751 94.2682 49.7009 94.1516 49.5271 94.0346C48.9866 93.6724 48.476 93.3301 47.8934 93.1408C47.13 92.8932 46.2996 92.929 45.4955 92.9639C43.9096 93.0325 42.2697 93.1039 40.6349 93.2085C40.4165 93.2226 40.1692 93.2381 39.9739 93.332C39.8328 93.3996 39.6824 93.5469 39.6852 93.7107C39.6904 94.0529 40.2847 94.1737 40.6349 94.1913C42.5788 94.2885 44.5557 94.3386 46.5172 94.3403L46.9387 94.3399H46.9391C46.9395 94.3399 46.9395 94.3399 46.9395 94.3399C47.0661 94.3399 47.1689 94.4427 47.1693 94.5693C47.1693 94.696 47.0668 94.799 46.9403 94.7994C46.7995 94.7998 46.6584 94.7998 46.517 94.7998L40.8645 94.8046C40.4764 94.805 40.0362 94.8057 39.6919 94.9864C39.4063 95.1364 39.1734 95.4922 39.2831 95.7819C39.3918 96.0704 39.7699 96.2228 40.4388 96.2487L47.5154 96.5218C47.6416 96.5267 47.7403 96.6329 47.7358 96.7592C47.7317 96.8834 47.6296 96.9809 47.5064 96.9809C47.504 96.9809 47.5016 96.9809 47.4992 96.9806L41.2067 96.7856C40.8917 96.776 40.5657 96.7659 40.2849 96.8719C40.0672 96.9544 39.8292 97.1579 39.8217 97.4097C39.8137 97.6598 40.0362 97.8775 40.246 97.9737C40.5171 98.0986 40.8411 98.1116 41.1542 98.1245L41.4161 98.1352C41.7069 98.0013 42.1039 97.9506 42.5883 97.9903L47.3575 98.3771C47.482 98.3871 47.5755 98.495 47.5679 98.6196C47.5603 98.7445 47.4606 98.8411 47.3295 98.8352L41.5238 98.5992C41.4324 98.6583 41.3634 98.7379 41.3323 98.8442C41.2668 99.0667 41.4173 99.321 41.5997 99.4572C41.8302 99.6293 42.1344 99.6976 42.4262 99.7524C43.6982 99.9915 45.028 100.034 46.3137 100.075C47.8368 100.124 49.4115 100.175 50.9232 100.549C51.6369 100.726 52.3361 100.975 53.0122 101.216C53.4127 101.358 53.8136 101.501 54.2183 101.63C55.5588 102.055 56.5758 102.189 57.5158 102.066C58.6984 101.911 59.6892 101.296 60.1662 100.421C60.6792 99.4794 60.5916 98.2975 60.458 97.1674C60.0703 93.8829 59.4952 90.582 58.7498 87.3556C58.7212 87.232 58.7981 87.1086 58.9216 87.0799C59.0455 87.0523 59.1683 87.1282 59.1973 87.252C59.9466 90.4947 60.5244 93.8125 60.9142 97.1136C61.0567 98.3172 61.1471 99.5807 60.5693 100.641C60.0225 101.644 58.9035 102.347 57.576 102.522C57.3341 102.553 57.0923 102.567 56.8535 102.567Z" fill="#1C2421"/>
<path d="M53.0254 95.6363C52.9005 95.6363 52.7984 95.5362 52.796 95.411L52.4962 80.3553C52.4933 80.2287 52.5941 80.1239 52.7211 80.1215C52.7225 80.1211 52.7242 80.1211 52.7256 80.1211C52.8504 80.1211 52.9525 80.2212 52.955 80.3463L53.2548 95.402C53.2576 95.5287 53.1568 95.6335 53.0298 95.6359C53.0285 95.6363 53.0268 95.6363 53.0254 95.6363Z" fill="#1C2421"/>
<path d="M52.9414 89.0496C52.8303 89.0496 52.7323 88.9686 52.7148 88.8551C52.6954 88.7298 52.7813 88.6126 52.9066 88.593C55.2747 88.2256 57.4639 87.4988 59.4164 86.4321C58.5115 82.6823 57.4529 78.9236 56.2692 75.258C55.8495 73.9585 55.4392 72.808 54.6658 71.8918C53.5881 70.6151 51.9282 69.9707 50.323 69.3477C48.581 68.6713 46.7796 67.9719 45.6512 66.461C45.5753 66.3596 45.596 66.2158 45.6977 66.1399C45.7988 66.063 45.9434 66.0847 46.0189 66.1864C47.0687 67.5918 48.73 68.2366 50.4893 68.9196C52.1482 69.5633 53.8637 70.2294 55.0169 71.5959C55.8439 72.5759 56.2713 73.7702 56.7058 75.1165C57.9111 78.8491 58.987 82.6772 59.9037 86.4949C59.9279 86.5949 59.8824 86.6988 59.7926 86.7488C57.7539 87.8882 55.4609 88.6613 52.9768 89.0469C52.9652 89.0486 52.9531 89.0496 52.9414 89.0496Z" fill="#1C2421"/>
<path d="M34.7919 103.289C34.7719 103.289 34.7519 103.287 34.7319 103.281C34.6432 103.257 34.5773 103.183 34.5646 103.092C33.7332 97.2452 32.6911 91.3462 31.4679 85.5591C31.4551 85.4987 31.4672 85.4359 31.501 85.3845C31.5352 85.3332 31.5886 85.2976 31.649 85.2859C44.4296 82.8215 44.5504 82.936 44.6614 83.0381C44.885 83.2614 46.6653 92.7058 46.6474 92.7655C46.6115 92.8869 46.4832 92.9573 46.3624 92.9207C46.2617 92.8911 46.1969 92.7987 46.1975 92.699C46.1458 92.1895 44.6149 84.5965 44.3354 83.4404C43.2326 83.5574 36.5627 84.8075 31.9653 85.6927C33.1544 91.3432 34.1707 97.0969 34.9876 102.804C35.5654 102.725 37.1053 102.604 41.3777 102.322C45.6122 102.042 47.1666 101.961 47.7482 101.943L47.4668 100.402C47.444 100.277 47.5267 100.158 47.6514 100.135C47.7773 100.114 47.8956 100.195 47.9187 100.319L48.2385 102.072C48.253 102.104 48.2599 102.14 48.2579 102.178C48.252 102.278 48.1757 102.365 48.0788 102.389C48.0422 102.399 48.0046 102.398 47.9694 102.39C47.9657 102.39 47.9618 102.39 47.9577 102.39C46.9795 102.39 35.4379 103.168 34.876 103.274C34.8492 103.284 34.8209 103.289 34.7919 103.289Z" fill="#1C2421"/>
<path d="M50.0647 53.937C50.0623 53.937 50.0598 53.9366 50.057 53.9366C49.9304 53.9324 49.8311 53.8262 49.8353 53.6995C49.8815 52.3017 50.0991 50.9705 50.3096 49.6828C50.6887 47.3656 51.0468 45.1768 50.311 43.0373C49.6594 41.1432 47.9114 39.5735 45.7495 38.9409C43.3606 38.2406 40.9814 38.7231 39.4063 39.251C38.3111 39.6177 36.4189 40.4811 36.0532 42.1456C36.0322 42.2418 35.9518 42.314 35.8535 42.3247C34.6557 42.4537 33.94 43.8087 33.6698 45.0337C33.2003 47.1628 33.4077 49.442 34.2538 51.4521C34.3032 51.5691 34.2483 51.7036 34.1313 51.7526C34.0141 51.8023 33.8798 51.7471 33.8308 51.6301C32.9481 49.5334 32.7314 47.1559 33.2213 44.9351C33.5141 43.6066 34.3013 42.1391 35.6429 41.8915C36.1327 40.1093 38.106 39.2021 39.2606 38.8158C40.8978 38.2673 43.3746 37.7675 45.8784 38.5001C48.181 39.1738 50.0459 40.8552 50.7448 42.8884C51.5182 45.1368 51.1511 47.3813 50.7627 49.757C50.5547 51.0303 50.3391 52.3467 50.2939 53.7148C50.2899 53.839 50.1881 53.937 50.0647 53.937Z" fill="#1C2421"/>
<path d="M40.7905 38.7033C40.7863 38.7033 40.7821 38.703 40.7784 38.703C40.6517 38.6964 40.5542 38.5884 40.5607 38.4619C40.7446 34.9042 38.6472 31.308 35.4603 29.7156C34.6252 29.2989 33.6993 28.9949 32.8038 28.7013C31.2135 28.1801 29.569 27.641 28.3482 26.4443C28.2577 26.3556 28.256 26.2104 28.3451 26.1196C28.4333 26.0292 28.5786 26.0275 28.6697 26.1165C29.8139 27.238 31.3356 27.7369 32.9466 28.2649C33.858 28.5637 34.8001 28.8728 35.6653 29.305C39.0105 30.9761 41.2124 34.751 41.0195 38.4852C41.0129 38.6082 40.9115 38.7033 40.7905 38.7033Z" fill="#1C2421"/>
<path d="M20.49 92.4138C20.4217 92.4138 20.3541 92.3831 20.3089 92.3252C17.75 89.0379 15.0616 85.7822 12.3188 82.6478C12.2916 82.6168 12.2729 82.5784 12.2657 82.5374C11.7645 79.7645 10.5512 77.2098 9.37798 74.7394C9.01856 73.9833 8.64803 73.2036 8.19994 72.4923C8.07814 72.2995 7.93229 72.0825 7.74007 71.951C7.59479 71.8524 7.37582 71.7903 7.20988 71.8748C7.05427 71.9556 6.97873 72.147 6.96009 72.2994C6.93488 72.5027 6.97941 72.7216 7.03147 72.9469C7.41165 74.5944 8.01188 76.183 8.81601 77.6688C8.8729 77.7737 8.83977 77.9044 8.74047 77.97C8.64079 78.0355 8.50826 78.0145 8.43379 77.9203C6.70412 75.727 4.74408 74.0188 2.60833 72.8431C2.29199 72.6689 2.06742 72.6272 1.94079 72.7162C1.82768 72.797 1.80932 72.9867 1.85009 73.1239C1.90321 73.3061 2.03641 73.4686 2.19164 73.6473C3.44907 75.0937 4.87824 76.4218 6.26047 77.7062C6.3533 77.7927 6.3588 77.938 6.27255 78.0308C6.186 78.1236 6.04073 78.1291 5.9479 78.0429L1.79696 74.1896C1.66656 74.0682 1.42885 73.8761 1.28879 73.9495C1.22224 73.985 1.18148 74.0951 1.195 74.2055C1.21152 74.3435 1.28811 74.4801 1.37959 74.6318C2.14025 75.8982 3.05304 77.0545 4.10242 78.0833L5.17217 79.0485C5.265 79.1323 5.27359 79.2748 5.19188 79.3693C5.11016 79.4638 4.9673 79.4749 4.87177 79.3955C4.49612 79.0833 4.13458 78.7573 3.78791 78.4175L1.05098 75.9479C0.889189 75.8017 0.724306 75.7229 0.670794 75.7668C0.613901 75.8106 0.660074 76.0003 0.771831 76.1804C1.36413 77.1342 2.09475 78.0125 2.92612 78.7763L4.36254 79.9133C4.45952 79.9899 4.47806 80.1296 4.40533 80.2292C4.3325 80.3282 4.19389 80.3528 4.09141 80.2834C3.57812 79.9353 3.08859 79.548 2.62871 79.1264L1.06982 77.8929C0.88349 77.7449 0.704797 77.6769 0.646165 77.7297C0.632739 77.7414 0.625106 77.7535 0.623754 77.7791C0.618248 77.8757 0.705858 78.0443 0.836257 78.1892C3.10404 80.7079 5.66305 82.967 8.44171 84.9033C8.54555 84.9758 8.57105 85.1189 8.4986 85.2231C8.42655 85.3266 8.2833 85.3535 8.17879 85.28C5.37144 83.3238 2.78625 81.0415 0.494707 78.4963C0.389808 78.38 0.147652 78.0744 0.164942 77.7543C0.172862 77.6094 0.233621 77.4827 0.340162 77.3876C0.509584 77.2355 0.735512 77.2131 0.988679 77.3131C0.773376 77.0247 0.570628 76.7274 0.381501 76.4227C0.119351 76.0002 0.122732 75.6096 0.389808 75.4034C0.644038 75.2067 0.9966 75.2816 1.35843 75.6073L1.60716 75.8315C1.39021 75.518 1.18283 75.1971 0.985493 74.8687C0.871321 74.6779 0.766131 74.4882 0.738795 74.2601C0.702573 73.9572 0.837125 73.6696 1.07339 73.544C1.20794 73.4726 1.35283 73.454 1.50738 73.4905C1.46739 73.416 1.43387 73.3377 1.40905 73.2536C1.30589 72.9024 1.41455 72.5278 1.674 72.3425C2.10171 72.0393 2.64958 72.3414 2.82962 72.4411C4.55311 73.3898 6.16301 74.6744 7.63256 76.2713C7.18959 75.232 6.83848 74.1543 6.58386 73.0507C6.52243 72.7837 6.46969 72.5212 6.50379 72.2435C6.54687 71.8955 6.73184 71.6053 6.99882 71.4673C7.29623 71.3138 7.67941 71.3538 7.99884 71.5722C8.2634 71.7533 8.44181 72.0158 8.58805 72.2477C9.05101 72.9824 9.42733 73.7741 9.79129 74.5403C10.97 77.0216 12.1871 79.5851 12.706 82.3934C15.4398 85.5195 18.1195 88.7659 20.6708 92.0431C20.7488 92.1432 20.7308 92.2874 20.6308 92.3653C20.589 92.398 20.5393 92.4138 20.49 92.4138Z" fill="#1C2421"/>
<path d="M19.0295 100.742C18.0453 100.742 17.2498 100.046 16.5992 99.3613C12.926 95.4935 10.5772 90.654 8.10069 85.1881C8.04824 85.0725 8.09934 84.9362 8.21486 84.8842C8.32971 84.8311 8.46639 84.8828 8.51874 84.9983C10.978 90.426 13.3082 95.2294 16.9325 99.0453C17.5248 99.669 18.2354 100.29 19.072 100.282C19.7444 100.264 20.396 99.827 21.1221 98.9053C23.3234 96.1124 24.4893 92.5323 25.4998 89.3311C23.0437 89.1037 20.6223 88.2009 18.6157 86.7656L18.1406 88.8226C18.1117 88.9464 17.9881 89.0217 17.865 88.9947C17.7414 88.9662 17.6645 88.8426 17.6928 88.7191L18.2465 86.3222C18.2641 86.2463 18.319 86.1846 18.3921 86.158C18.4656 86.1322 18.547 86.1439 18.6087 86.1908C20.6758 87.7525 23.2375 88.7135 25.8216 88.8967C25.8917 88.9015 25.9558 88.9384 25.9951 88.9968C26.0348 89.0547 26.0454 89.1279 26.0245 89.1948C24.9813 92.502 23.7991 96.2507 21.483 99.1894C20.9687 99.8421 20.1604 100.713 19.0842 100.741C19.0657 100.742 19.0474 100.742 19.0295 100.742Z" fill="#1C2421"/>
<path d="M25.9444 89.3528C25.9396 89.3528 25.9347 89.3524 25.9299 89.3521C22.6986 89.1464 19.6761 87.7622 17.4189 85.4543C17.3482 85.3819 17.333 85.2715 17.3823 85.1828C18.7139 82.7739 19.6501 80.1218 20.5556 77.557C21.1062 75.9974 21.6754 74.3843 22.3298 72.8351C22.7134 71.9264 23.1957 70.8722 23.8608 69.9446C24.5597 68.9703 25.4162 68.2107 26.3376 67.7471C26.4518 67.6902 26.5891 67.7361 26.646 67.8492C26.7029 67.9623 26.657 68.1003 26.5439 68.1576C25.6884 68.5877 24.8898 69.2981 24.234 70.2122C23.5952 71.1033 23.1267 72.1285 22.7528 73.0137C22.1039 74.5502 21.5368 76.1563 20.9886 77.7097C20.0958 80.2393 19.1731 82.8528 17.8671 85.2537C19.99 87.3669 22.789 88.6492 25.7843 88.8814C26.7033 86.1665 27.2825 83.3423 27.5054 80.4839C27.5154 80.357 27.6268 80.2635 27.7524 80.2727C27.8786 80.2828 27.9732 80.3931 27.9635 80.5197C27.7328 83.4753 27.1263 86.3952 26.1614 89.1976C26.1294 89.291 26.042 89.3528 25.9444 89.3528Z" fill="#1C2421"/>
<path d="M10.2325 76.2465C10.1118 76.2465 10.0107 76.152 10.0038 76.0299C9.88167 73.9187 9.79194 70.8182 10.0562 68.036C10.0683 67.9101 10.1838 67.818 10.3067 67.829C10.4329 67.8411 10.5254 67.9532 10.5137 68.0795C10.2518 70.8326 10.3412 73.9083 10.4619 76.0037C10.4695 76.1303 10.3726 76.2386 10.2459 76.2459C10.2415 76.2461 10.2369 76.2465 10.2325 76.2465Z" fill="#1C2421"/>
<path d="M7.30236 129.183C7.29821 129.183 7.29405 129.182 7.29029 129.182C7.16366 129.176 7.0661 129.068 7.07257 128.941C7.76938 115.381 8.48967 101.359 9.09752 87.5593C9.10303 87.4326 9.19305 87.3368 9.33697 87.3399C9.4639 87.3454 9.56194 87.4527 9.55633 87.5794C8.94848 101.381 8.22791 115.404 7.53138 128.965C7.52491 129.088 7.42349 129.183 7.30236 129.183Z" fill="#1C2421"/>
<path d="M23.423 129.255C23.4212 129.255 23.4192 129.255 23.4174 129.255C23.2905 129.252 23.1905 129.146 23.1935 129.02L23.6679 109.592L20.4384 128.493C20.417 128.618 20.2983 128.705 20.1734 128.681C20.0485 128.66 19.9644 128.541 19.9857 128.416L23.7483 106.395C23.7687 106.276 23.8839 106.189 23.9966 106.205C24.1167 106.216 24.2071 106.319 24.2039 106.439L23.6523 129.031C23.6497 129.156 23.5472 129.255 23.423 129.255Z" fill="#1C2421"/>
<path d="M39.4781 129.076C39.4777 129.076 39.4771 129.076 39.4768 129.076C39.3498 129.075 39.2477 128.972 39.2484 128.845L39.3053 119.889C39.306 119.813 39.3443 119.742 39.4078 119.699L40.7852 118.781L39.0528 119.248L37.448 128.824C37.4274 128.949 37.3073 129.035 37.1838 129.012C37.0586 128.991 36.9744 128.873 36.9954 128.748L38.6243 119.027C38.6392 118.939 38.704 118.867 38.791 118.843L42.0202 117.972C42.1285 117.944 42.2424 117.997 42.2889 118.099C42.3355 118.202 42.301 118.323 42.2072 118.385L39.7638 120.014L39.7079 128.848C39.7068 128.974 39.6044 129.076 39.4781 129.076Z" fill="#1C2421"/>
<path d="M52.3492 128.722C52.2267 128.722 52.125 128.626 52.1198 128.502L51.248 107.809L51.3191 100.975C51.3205 100.848 51.4302 100.732 51.5513 100.747C51.6783 100.749 51.7797 100.853 51.7787 100.98L51.7073 107.801L52.5787 128.483C52.5839 128.609 52.4856 128.717 52.3589 128.722C52.3554 128.722 52.3523 128.722 52.3492 128.722Z" fill="#1C2421"/>
<path d="M45.8788 108.375C38.9453 108.375 32.038 107.561 25.2757 105.943C25.1688 105.918 25.095 105.82 25.0998 105.711L25.8215 88.81C25.8267 88.6864 25.9284 88.5898 26.0505 88.5898C26.054 88.5898 26.0573 88.5902 26.0605 88.5902C26.1875 88.5957 26.2858 88.7027 26.2803 88.8293L25.5666 105.541C34.044 107.549 42.75 108.29 51.4445 107.74C51.5694 107.736 51.6805 107.828 51.688 107.955C51.6959 108.081 51.6 108.19 51.4735 108.198C49.6082 108.317 47.7422 108.375 45.8788 108.375Z" fill="#1C2421"/>
<path d="M57.582 128.81C57.4557 128.81 57.3532 128.708 57.3523 128.581L57.1777 102.423C57.1771 102.296 57.2792 102.192 57.4061 102.191C57.4065 102.191 57.4071 102.191 57.4074 102.191C57.5337 102.191 57.6362 102.293 57.6372 102.42L57.8118 128.578C57.8124 128.705 57.7103 128.809 57.5834 128.81C57.5829 128.81 57.5823 128.81 57.582 128.81Z" fill="#1C2421"/>
<path d="M65.8418 86.7818C65.8253 86.7818 65.8084 86.7797 65.7918 86.7763L62.3642 86.0097C62.26 85.9862 62.1855 85.8945 62.1844 85.7875C62.1686 84.0796 62.3793 82.2806 62.8685 79.9552C63.2131 78.3173 63.6871 76.4014 64.5899 74.609C65.5264 72.7482 66.817 71.2918 68.3214 70.397C70.0714 69.3559 72.1457 69.0985 73.8698 69.7077C73.9654 69.7415 74.0275 69.8343 74.0226 69.9358C73.9875 70.6505 73.8112 71.3711 73.6408 72.068C73.5773 72.3275 73.5135 72.5879 73.4562 72.8497C73.2817 73.6525 73.1147 74.7011 73.3796 75.6933C73.6384 76.661 74.3258 77.423 75.131 77.6344C76.0959 77.8893 77.1246 77.395 77.9136 76.9369C80.8757 75.2173 83.3302 72.7304 85.0115 69.7458C85.0736 69.6357 85.2122 69.596 85.3244 69.6584C85.4348 69.7208 85.4737 69.8606 85.4117 69.9713C83.6899 73.027 81.1769 75.5731 78.1439 77.3342C77.2784 77.8368 76.1414 78.375 75.0141 78.0786C74.0523 77.8258 73.2365 76.9362 72.936 75.8119C72.6458 74.7242 72.8218 73.6052 73.0077 72.7517C73.0657 72.4865 73.1302 72.2222 73.1947 71.959C73.3528 71.3125 73.5028 70.6991 73.5524 70.0861C71.9887 69.5929 70.1348 69.8526 68.5559 70.7916C67.1267 71.6416 65.8972 73.0328 65 74.8152C64.121 76.5607 63.6563 78.4408 63.3175 80.0497C62.8532 82.2585 62.6434 83.9813 62.6428 85.6012L65.5573 86.2532C65.1378 83.5963 65.5529 80.8235 66.7375 78.4073C66.7934 78.2932 66.9317 78.2462 67.0448 78.3022C67.1587 78.358 67.2056 78.4957 67.15 78.6095C65.9575 81.0412 65.5732 83.8471 66.0672 86.5103C66.0813 86.5858 66.0565 86.6637 66.001 86.7172C65.9581 86.759 65.9004 86.7818 65.8418 86.7818Z" fill="#1C2421"/>
<path d="M82.9637 98.9366C80.6827 98.9366 76.5729 98.8776 69.1406 98.6907C69.0268 98.6879 68.9322 98.602 68.9184 98.4892C68.4379 94.5448 67.8928 90.0745 65.5233 86.543C65.4526 86.4378 65.4809 86.2949 65.5861 86.2242C65.6917 86.1538 65.8341 86.1821 65.9049 86.287C68.2958 89.8505 68.8688 94.2898 69.3504 98.2366C75.4118 98.3876 84.3195 98.5595 85.4958 98.4473C86.173 95.5517 86.8664 92.5608 87.1727 89.5603C87.5232 86.12 87.3186 83.1564 86.5468 80.5008C86.5113 80.379 86.5813 80.2514 86.7031 80.2163C86.8259 80.1807 86.9525 80.2508 86.9877 80.3726C87.7763 83.086 87.9861 86.1066 87.6293 89.607C87.315 92.6861 86.6006 95.7408 85.9093 98.6951C85.9001 98.7348 85.8804 98.771 85.8524 98.8007C85.8051 98.8503 85.7234 98.9366 82.9637 98.9366Z" fill="#1C2421"/>
<path d="M73.1698 118.275C72.9024 118.275 72.6599 118.144 72.5492 117.928C72.4484 117.731 72.4615 117.5 72.5885 117.239L72.3522 117.409C71.8762 117.751 71.4843 117.816 71.1887 117.602C70.8716 117.371 70.8747 116.976 71.0014 116.62C70.7537 116.832 70.397 117.033 70.0113 116.88C69.6322 116.73 69.4742 116.298 69.5139 115.95C69.5259 115.844 69.5521 115.743 69.588 115.648C69.2972 115.848 69.0175 115.87 68.787 115.699C68.5973 115.558 68.5086 115.315 68.5306 114.995C68.5831 114.23 69.0584 113.589 69.5166 113.061C70.1965 112.279 70.9672 111.561 71.8019 110.93L71.6891 110.976C71.2834 111.141 70.9847 111.113 70.7994 110.897C70.6276 110.696 70.6659 110.421 70.6787 110.33C70.7421 109.872 70.9177 109.453 71.1864 109.12C72.0013 108.11 73.1403 107.758 74.3343 107.458C75.5178 107.161 76.7294 106.914 77.935 106.723C78.6874 106.604 79.3576 106.194 79.8223 105.567C82.6227 101.795 85.7706 98.0507 89.1792 94.4386C89.4162 94.187 89.489 93.8273 89.3689 93.4996C88.6427 91.5174 88.0484 89.467 87.6026 87.4058C87.5868 87.3313 87.6085 87.2537 87.6613 87.1985C89.5003 85.276 92.7432 84.5385 95.4792 85.3902C95.61 82.0275 94.5492 78.7417 93.4463 75.6591C92.9906 74.384 92.5429 73.2643 91.6736 72.473C90.6745 71.5633 89.3413 71.2811 87.9293 70.9824C86.9631 70.7778 85.9643 70.5663 85.0675 70.1358C84.9533 70.081 84.905 69.9437 84.9599 69.8295C85.0147 69.715 85.153 69.6671 85.2662 69.7219C86.1134 70.1287 87.0848 70.3342 88.0242 70.5333C89.434 70.8317 90.8919 71.1401 91.9826 72.1336C92.9288 72.995 93.4194 74.2196 93.8789 75.5046C95.0303 78.7234 96.1367 82.1638 95.9225 85.7177C95.919 85.7798 95.89 85.8373 95.8438 85.8773C95.8063 87.3427 96.0046 88.8285 96.1968 90.2684C96.2903 90.969 96.3869 91.6934 96.4559 92.4092C96.7384 95.3477 96.4124 97.5182 95.4296 99.2402C94.5844 100.721 93.2522 101.837 91.8461 102.943C91.2631 103.402 90.6753 103.857 90.0864 104.313C87.0983 106.628 84.0082 109.022 81.5288 111.875C80.2387 113.36 78.6512 114.74 76.8107 115.977C75.8461 116.625 74.8992 117.287 73.9837 117.927L73.9475 117.952C73.7809 118.069 73.5728 118.215 73.3203 118.261C73.2698 118.271 73.2194 118.275 73.1698 118.275ZM74.4507 115.899C73.9308 116.303 73.4378 116.759 73.0797 117.304C72.959 117.489 72.9155 117.636 72.9579 117.718C72.9952 117.791 73.1208 117.831 73.237 117.81C73.3911 117.781 73.5402 117.677 73.6844 117.576L73.721 117.55C74.6383 116.909 75.5866 116.246 76.5549 115.596C78.3619 114.381 79.9186 113.028 81.1826 111.573C83.6912 108.686 86.7994 106.278 89.8054 103.95C90.3933 103.494 90.9801 103.04 91.5623 102.582C92.9311 101.505 94.2268 100.421 95.0309 99.0122C95.9644 97.3764 96.2721 95.292 95.9986 92.453C95.9307 91.7455 95.8344 91.0252 95.7416 90.3288C95.5463 88.8634 95.3445 87.3506 95.3855 85.8415C92.8411 85.0308 89.8254 85.681 88.0781 87.429C88.5163 89.4291 89.0955 91.4174 89.8002 93.3414C89.9806 93.8336 89.8706 94.3745 89.5132 94.7536C86.117 98.3526 82.9806 102.083 80.1912 105.841C79.6545 106.565 78.8786 107.039 78.0069 107.177C76.8147 107.365 75.6166 107.61 74.4461 107.903C73.3309 108.183 72.2697 108.509 71.5439 109.408C71.3277 109.677 71.1859 110.017 71.1334 110.394C71.113 110.539 71.1372 110.586 71.1486 110.599C71.1786 110.633 71.2924 110.642 71.5163 110.551L74.0745 109.51C74.1876 109.464 74.3188 109.515 74.3702 109.628C74.4213 109.739 74.3747 109.872 74.265 109.927C72.6058 110.77 71.0834 111.958 69.8629 113.363C69.4548 113.832 69.032 114.397 68.9888 115.026C68.9784 115.176 69.0053 115.289 69.0608 115.33C69.1733 115.416 69.4193 115.226 69.5987 115.015C70.6225 113.809 71.932 112.842 73.385 112.218C73.495 112.171 73.6223 112.216 73.6785 112.321C73.7344 112.426 73.7002 112.557 73.5999 112.622C72.3922 113.4 71.1431 114.205 70.2789 115.367C70.1408 115.552 69.9963 115.772 69.9698 116.002C69.9501 116.175 70.0236 116.391 70.1801 116.453C70.3716 116.529 70.6279 116.386 70.9439 116.027C71.9087 114.933 72.8833 113.918 74.1921 113.519C74.308 113.485 74.4287 113.544 74.4729 113.655C74.5167 113.766 74.467 113.893 74.3594 113.945C73.2 114.508 72.2006 115.43 71.5445 116.539C71.4192 116.751 71.293 117.11 71.4583 117.23C71.6139 117.341 71.9167 117.157 72.0837 117.037L74.1683 115.536C74.5053 115.275 74.851 115.036 75.1801 114.808C75.284 114.736 75.4258 114.762 75.4982 114.864C75.5706 114.968 75.5469 115.11 75.4447 115.183L74.4507 115.899Z" fill="#1C2421"/>
<path d="M99.7701 129.077H1.00128C0.874355 129.077 0.771484 128.974 0.771484 128.847C0.771484 128.72 0.874258 128.617 1.00128 128.617H99.7701C99.897 128.617 99.9999 128.72 99.9999 128.847C99.9998 128.974 99.897 129.077 99.7701 129.077Z" fill="#1C2421"/>
<path d="M76.1707 121.66C76.0003 121.66 75.808 121.573 75.6208 121.402C74.5365 120.413 73.5475 119.31 72.681 118.124C72.6061 118.021 72.6285 117.878 72.7306 117.803C72.8341 117.728 72.9769 117.751 73.0514 117.853C73.9001 119.014 74.8687 120.094 75.9305 121.063C76.0433 121.166 76.1365 121.201 76.1709 121.2C76.1665 121.196 76.1795 121.147 76.1343 121.013C75.9442 120.448 75.6424 119.925 75.2916 119.437L73.9827 117.879C73.9024 117.783 73.9134 117.64 74.0076 117.558C74.1018 117.477 74.2446 117.484 74.3287 117.577C74.7717 118.065 75.2453 118.587 75.6589 119.161L76.8763 120.61C76.995 120.752 77.1294 120.912 77.2878 120.979C77.4044 121.028 77.5528 121.006 77.599 120.932C77.6528 120.845 77.6097 120.689 77.4672 120.454C76.7473 119.265 75.9845 118.097 75.2473 116.968C75.1797 116.865 75.2063 116.726 75.3073 116.655C75.4081 116.584 75.5477 116.605 75.6226 116.704C76.4212 117.76 77.2471 118.852 78.225 119.764C78.363 119.892 78.4996 120.012 78.652 120.059C78.76 120.093 78.9073 120.079 78.967 119.997C79.0398 119.897 78.9997 119.709 78.8483 119.438C78.1849 118.249 77.4288 117.1 76.6009 116.021C76.5312 115.93 76.5392 115.802 76.6195 115.72C76.6999 115.639 76.8283 115.629 76.9203 115.697C77.5343 116.155 77.9821 116.784 78.4151 117.393C78.9125 118.092 79.3819 118.752 80.073 119.151C80.2234 119.238 80.409 119.295 80.487 119.228C80.5794 119.149 80.5142 118.913 80.4221 118.719C79.7805 117.367 79.0109 116.066 78.1347 114.852C78.0605 114.749 78.0836 114.606 78.1864 114.532C78.2903 114.457 78.4334 114.481 78.5072 114.583C79.3996 115.82 80.1834 117.145 80.8371 118.522C81.1186 119.117 80.9644 119.424 80.7857 119.577C80.557 119.773 80.2127 119.763 79.8433 119.549C79.5797 119.396 79.3458 119.212 79.132 119.007C79.1717 119.076 79.2106 119.145 79.2492 119.215C79.3413 119.379 79.6211 119.88 79.3379 120.268C79.1682 120.501 78.8308 120.594 78.5159 120.498C78.2713 120.422 78.0833 120.259 77.9118 120.1C77.8108 120.005 77.7111 119.909 77.6131 119.811C77.6958 119.946 77.7779 120.081 77.8598 120.216C77.9577 120.377 78.2174 120.805 77.9895 121.174C77.798 121.483 77.3923 121.523 77.1088 121.402C76.8963 121.312 76.7373 121.152 76.6072 121.003C76.6554 121.23 76.6137 121.409 76.4827 121.535C76.3949 121.619 76.2879 121.66 76.1707 121.66Z" fill="#1C2421"/>
<path d="M69.7795 113.256C69.6974 113.256 69.6177 113.212 69.5766 113.134C66.6975 107.735 64.199 102.138 62.1502 96.4981C62.1416 96.4744 62.137 96.4494 62.1367 96.4243C62.0705 92.9402 62.2851 89.4232 62.7742 85.9711C62.7918 85.8452 62.9101 85.7573 63.0337 85.7759C63.1593 85.7939 63.2469 85.9098 63.2289 86.0354C62.7449 89.4509 62.5317 92.9298 62.5949 96.3775C64.6339 101.985 67.1191 107.549 69.9816 112.918C70.0413 113.03 69.9992 113.169 69.8871 113.229C69.8526 113.247 69.8157 113.256 69.7795 113.256Z" fill="#1C2421"/>
<path d="M72.2622 108.739C72.1594 108.739 72.0662 108.67 72.0398 108.566C70.9621 104.328 69.4346 100.255 67.4997 96.4602C67.4693 96.4012 67.4665 96.3316 67.4914 96.2699C67.8577 95.364 68.0661 94.4095 68.1102 93.4339C68.1157 93.307 68.2393 93.2173 68.3499 93.2148C68.4766 93.2207 68.5749 93.328 68.569 93.4546C68.5242 94.4474 68.3179 95.4192 67.956 96.3443C69.884 100.143 71.4075 104.216 72.4848 108.453C72.5162 108.576 72.4417 108.701 72.3188 108.732C72.2998 108.737 72.2808 108.739 72.2622 108.739Z" fill="#1C2421"/>
<path d="M92.8164 128.718C92.8102 128.718 92.8039 128.718 92.7978 128.718C92.6715 128.707 92.5769 128.597 92.587 128.47C93.2228 120.463 92.0178 112.274 89.1018 104.79C89.0555 104.671 89.1142 104.538 89.2322 104.492C89.3498 104.446 89.4837 104.505 89.5295 104.623C92.4703 112.172 93.6859 120.43 93.045 128.507C93.0355 128.627 92.9347 128.718 92.8164 128.718Z" fill="#1C2421"/>
<path d="M64.4895 128.984C64.4881 128.984 64.4871 128.984 64.4857 128.984C64.3588 128.981 64.2577 128.877 64.2598 128.75C64.3709 122.147 65.0411 115.508 66.252 109.016C66.2751 108.891 66.3982 108.808 66.5197 108.832C66.6442 108.856 66.7267 108.976 66.7032 109.1C65.4972 115.567 64.8297 122.18 64.7193 128.758C64.7169 128.884 64.6148 128.984 64.4895 128.984Z" fill="white"/>
<path d="M77.0075 66.4575C76.8788 66.4575 76.7491 66.4523 76.618 66.4409C75.2589 66.3243 73.9031 65.5546 72.8987 64.3294C72.1007 63.3555 71.5092 62.1334 71.0369 60.4827C70.2807 57.8396 70.0771 55.0026 70.4477 52.2791C70.4628 52.1684 70.5559 52.0841 70.6678 52.0807C74.0226 51.97 77.3183 50.6583 79.4844 48.5723C79.5503 48.5092 79.6473 48.4902 79.7303 48.5251C79.8145 48.5593 79.8704 48.6397 79.8732 48.7304C79.9356 50.7457 80.6804 52.7089 81.9702 54.2588C82.527 54.9277 83.061 55.2316 83.5515 55.1571C83.9493 55.0988 84.2725 54.8045 84.6147 54.493C84.7278 54.3903 84.8406 54.2878 84.9565 54.1932C85.5482 53.7092 86.4434 53.4953 86.937 54.0511C87.2471 54.3999 87.2402 54.8838 87.1998 55.2668C87.0946 56.2569 86.7807 57.2376 86.2922 58.1038C86.0841 58.4729 85.7847 58.9341 85.3122 59.2257C84.9158 59.4702 84.4584 59.5368 84.0679 59.4223C83.7333 61.8802 82.2486 64.18 80.1367 65.482C79.3932 65.9404 78.2731 66.4575 77.0075 66.4575ZM70.8778 52.5319C70.5504 55.1343 70.7574 57.8354 71.4784 60.3565C71.9327 61.9447 72.497 63.1148 73.2539 64.0382C74.1802 65.1684 75.4207 65.8773 76.6574 65.9835C77.9552 66.0942 79.1356 65.5596 79.8959 65.0907C81.9777 63.8078 83.4152 61.4983 83.647 59.0635C83.6546 58.9834 83.7036 58.9134 83.7757 58.8786C83.8477 58.8431 83.933 58.8489 84.0003 58.8924C84.3297 59.1056 84.7754 59.0169 85.0714 58.8345C85.3701 58.6502 85.6233 58.3556 85.892 57.8782C86.3502 57.0661 86.6444 56.1465 86.7431 55.2185C86.7738 54.9298 86.7845 54.5707 86.5938 54.3562C86.2706 53.9933 85.612 54.2503 85.247 54.5487C85.1376 54.6384 85.031 54.7357 84.9238 54.8329C84.5457 55.1772 84.1545 55.5328 83.6184 55.6119C82.9541 55.7081 82.2828 55.3524 81.617 54.5528C80.3672 53.0505 79.6045 51.1784 79.4423 49.2349C77.2458 51.1655 74.0949 52.3826 70.8778 52.5319Z" fill="#1C2421"/>
<path d="M73.8584 70.0873C73.7342 70.0873 73.6321 69.9883 73.629 69.8634C73.6255 69.7368 73.7256 69.6312 73.8525 69.6281C74.3958 69.614 75.0005 69.567 75.3045 69.1844C75.4414 69.0119 75.5087 68.7846 75.5677 68.4966C75.7284 67.7139 75.7788 66.914 75.7174 66.1184C75.7077 65.9922 75.8023 65.8818 75.9288 65.8717C76.0548 65.8624 76.1658 65.9569 76.1755 66.0832C76.2401 66.9214 76.1869 67.7642 76.0175 68.5887C75.9551 68.8936 75.8689 69.2117 75.6639 69.4701C75.2372 70.0075 74.5114 70.0703 73.8642 70.0868C73.8622 70.0873 73.8601 70.0873 73.8584 70.0873Z" fill="#1C2421"/>
<path d="M68.546 70.5835C68.5188 70.5835 68.4909 70.5787 68.4639 70.568C66.9992 70.0064 66.2917 68.4016 66.2403 67.0603C66.1854 65.6322 66.7077 64.2609 67.28 62.9918C67.368 62.7973 67.4576 62.6026 67.5474 62.4081C68.0234 61.3752 68.516 60.3072 68.721 59.1906C69.0121 57.6055 68.7251 55.9393 68.4478 54.3283C68.1287 52.4765 67.7989 50.562 68.3274 48.7264C68.8315 46.9778 70.1289 45.3678 71.9803 44.1933C74.0439 42.8842 76.5259 42.2524 78.9624 42.416C81.4017 42.5795 83.775 43.5354 85.6458 45.1077C86.9639 46.2157 87.8846 47.521 88.3086 48.8827C88.7018 50.1435 88.689 51.4789 88.677 52.7704C88.6735 53.1002 88.6704 53.4297 88.6741 53.7577C88.6886 55.1438 88.8546 56.9352 90.0192 58.4961C90.0299 58.5106 90.0388 58.5264 90.0461 58.5431C90.3577 59.2723 90.7544 59.9833 91.1379 60.6712C91.6108 61.5191 92.1001 62.396 92.4446 63.3295C93.0356 64.9277 93.2025 67.1576 91.9002 68.6237C91.2234 69.3857 90.1795 69.8994 88.7976 70.1505C86.2862 70.6065 83.8856 70.0111 82.3747 68.5561C82.3333 68.5161 82.3082 68.4619 82.3051 68.4043L82.0098 63.3951C82.0023 63.2684 82.0989 63.1598 82.2254 63.1525C82.343 63.1387 82.4607 63.2408 82.4679 63.3681L82.7581 68.2867C84.1666 69.5944 86.3843 70.1222 88.7157 69.6987C89.9941 69.4665 90.95 69.0021 91.5568 68.3188C92.7245 67.0045 92.5586 64.9623 92.0143 63.489C91.6817 62.5886 91.2016 61.7276 90.7369 60.8948C90.3519 60.2045 89.9541 59.4911 89.6347 58.7487C88.4055 57.0866 88.2299 55.2121 88.2148 53.7625C88.2113 53.4317 88.2144 53.0991 88.2176 52.7659C88.2296 51.5102 88.2417 50.2114 87.8705 49.0192C87.4725 47.7415 86.601 46.5106 85.3505 45.4595C83.5536 43.9493 81.2744 43.031 78.9321 42.874C76.5901 42.7171 74.2085 43.3235 72.2267 44.5809C70.4698 45.6955 69.2417 47.213 68.7691 48.8532C68.2696 50.5877 68.5759 52.3667 68.9005 54.2502C69.1848 55.9009 69.4787 57.6078 69.173 59.2733C68.9574 60.4472 68.4527 61.5418 67.9647 62.6005C67.8753 62.7941 67.7863 62.9873 67.699 63.1807C67.1495 64.3985 66.6483 65.7093 66.6993 67.0423C66.7448 68.2331 67.3592 69.6523 68.6283 70.1394C68.747 70.1846 68.806 70.3174 68.7605 70.4357C68.7254 70.5273 68.6381 70.5835 68.546 70.5835Z" fill="#1C2421"/>
<path d="M56.6943 75.8674C56.5915 75.8674 56.4976 75.7974 56.4717 75.6929C56.441 75.5701 56.5162 75.4455 56.6394 75.4148C59.2729 74.761 61.9846 74.48 64.6957 74.5834C64.8224 74.5882 64.9214 74.6949 64.9165 74.8214C64.9121 74.9452 64.8099 75.0425 64.6871 75.0425C64.6843 75.0425 64.6816 75.0421 64.6785 75.0421C62.0113 74.941 59.3415 75.2167 56.7499 75.8603C56.7314 75.865 56.7128 75.8674 56.6943 75.8674Z" fill="#1C2421"/>
<path d="M55.4349 72.865C55.4101 72.865 55.3849 72.8608 55.3601 72.8522C55.24 72.8108 55.1766 72.6801 55.218 72.5604C56.6792 68.3305 56.336 63.6975 55.8735 60.1341C55.7141 58.9077 55.5205 57.6617 55.3336 56.4571C54.8814 53.5477 54.414 50.5389 54.3867 47.5404C54.3857 47.4135 54.4875 47.3099 54.6144 47.3086C54.6151 47.3086 54.6157 47.3086 54.6164 47.3086C54.7424 47.3086 54.8448 47.41 54.8462 47.5363C54.8732 50.5016 55.3378 53.4931 55.7873 56.3867C55.975 57.5941 56.1688 58.8428 56.3289 60.0748C56.798 63.6883 57.1447 68.3898 55.6521 72.7101C55.6191 72.8053 55.5301 72.865 55.4349 72.865Z" fill="#1C2421"/>
<path d="M55.0513 55.7721C53.3409 55.7721 51.6296 55.5866 49.9596 55.2195C49.8358 55.1923 49.7575 55.0698 49.7847 54.946C49.8119 54.8218 49.9364 54.7438 50.0582 54.7711C51.7761 55.1484 53.5387 55.3372 55.2983 55.3116C55.2989 55.3116 55.3 55.3116 55.3007 55.3116C55.4262 55.3116 55.529 55.413 55.5305 55.539C55.5315 55.6656 55.4301 55.7697 55.3031 55.7712C55.2193 55.7717 55.135 55.7721 55.0513 55.7721Z" fill="#1C2421"/>
<path d="M48.2976 68.0728C48.158 68.0728 48.021 68.0611 47.8875 68.0369C46.6967 67.8224 45.9192 66.6995 45.4375 65.8733C45.3737 65.7639 45.4106 65.6232 45.5203 65.5593C45.6301 65.4959 45.7704 65.5328 45.8343 65.6421C46.3069 66.4528 46.9765 67.4059 47.9689 67.585C48.7196 67.7202 49.4709 67.3566 49.9684 67.0278C51.5027 66.0126 52.4811 64.3043 53.3097 62.6099C54.1204 60.9527 54.8548 59.2355 55.493 57.5058C55.5368 57.3864 55.6689 57.3257 55.7876 57.3699C55.9066 57.4137 55.9676 57.5455 55.9235 57.6645C55.2801 59.4089 54.5395 61.1407 53.7222 62.8114C52.865 64.5645 51.8477 66.3353 50.2216 67.4108C49.5602 67.8482 48.9034 68.0728 48.2976 68.0728Z" fill="#1C2421"/>
<path d="M50.7066 48.7265C50.7005 48.7265 50.6946 48.7261 50.6887 48.7258C50.5621 48.7158 50.4676 48.6055 50.4772 48.4791C50.6584 46.1464 51.6453 43.9276 53.2563 42.2315C54.8676 40.5353 57.0329 39.4359 59.3536 39.1358C59.466 39.1189 59.5847 39.2003 59.6082 39.3193C60.0049 41.3381 61.5917 43.1029 63.6504 43.8146C65.5905 44.4849 67.8846 44.2262 69.7905 43.1233C71.565 42.096 72.9956 40.3781 73.8191 38.2859C73.8549 38.1941 73.9425 38.1455 74.0457 38.1406C75.6111 38.23 77.3852 38.331 78.9318 39.0497C80.6828 39.8645 81.8147 41.4192 81.8153 43.0113C81.8153 43.1379 81.7126 43.2407 81.5855 43.2411C81.4589 43.2411 81.3561 43.1383 81.3558 43.0113C81.3551 41.4034 80.0404 40.0722 78.7378 39.4664C77.3238 38.8089 75.6673 38.6941 74.1839 38.6089C73.3139 40.7274 71.8406 42.4674 70.0202 43.5209C68.0007 44.6903 65.5633 44.9621 63.5007 44.2488C61.3623 43.5096 59.6975 41.7078 59.2035 39.6207C57.0664 39.9447 55.0798 40.9792 53.5895 42.5477C52.0506 44.1677 51.1079 46.2868 50.9354 48.5146C50.926 48.6348 50.8253 48.7265 50.7066 48.7265Z" fill="#1C2421"/>
<path d="M58.3437 39.7646C56.9736 39.7646 55.445 38.7846 54.554 37.5776C53.5701 36.2439 53.17 34.3808 53.428 32.3306C53.635 30.6876 54.2107 29.1103 54.7678 27.5852L54.9165 27.1771C55.5292 25.4909 56.0839 23.8337 56.1432 22.0927C56.1629 21.5101 56.1245 20.9105 56.088 20.3306C56.0349 19.4999 55.9804 18.6409 56.0904 17.792C56.4068 15.3472 58.1861 13.047 60.6233 11.9324C62.8046 10.9351 65.5367 10.8264 68.1184 11.6334C69.9664 12.2112 71.3183 13.1202 72.1369 14.3355C72.8772 15.4342 73.148 16.7434 73.4098 18.0094C73.5292 18.5876 73.653 19.185 73.8192 19.7498C74.2804 21.3131 75.1215 22.7834 75.9346 24.205C76.9926 26.0543 78.0865 27.9669 78.3683 30.1194C78.8043 33.4525 76.9705 37.0239 74.0076 38.6114C73.9724 38.6303 73.9331 38.6351 73.892 38.6383C72.399 38.5918 70.925 37.846 69.9495 36.643C69.1333 35.6371 68.6924 34.3252 68.7148 33.0278C68.0773 33.7091 67.3519 34.3873 66.4381 34.7564C65.5632 35.1103 64.3848 35.1028 63.57 34.5204C63.6035 35.4791 63.2164 36.516 62.4823 37.3643C61.6413 38.335 60.4864 38.977 59.4697 39.5023C59.1203 39.6832 58.7384 39.7646 58.3437 39.7646ZM64.6546 11.5561C63.2864 11.5561 61.9684 11.8224 60.8144 12.3499C58.5176 13.4003 56.8421 15.5594 56.5458 17.8511C56.4416 18.6563 56.4947 19.4928 56.5462 20.3017C56.5837 20.8923 56.6228 21.5032 56.6021 22.1087C56.5407 23.9152 55.949 25.6804 55.3485 27.3339L55.1992 27.7431C54.651 29.244 54.0842 30.7963 53.8835 32.3881C53.6407 34.3206 54.0102 36.0668 54.9239 37.3052C55.9636 38.7141 57.9527 39.7699 59.2588 39.0948C60.2378 38.5888 61.3478 37.973 62.1355 37.0637C62.96 36.1116 63.2977 34.907 63.0165 33.92C62.9855 33.8117 63.0378 33.6968 63.14 33.6492C63.2421 33.6019 63.3635 33.6347 63.427 33.7282C64.0338 34.6195 65.3422 34.704 66.2664 34.3308C67.3054 33.9106 68.1137 33.0147 68.8271 32.2241C68.8947 32.1489 69.0036 32.1265 69.0955 32.1703C69.1869 32.2134 69.2393 32.3115 69.2248 32.4114C69.0213 33.7944 69.4255 35.2684 70.3063 36.354C71.1856 37.4379 72.5047 38.1164 73.8453 38.1772C76.6143 36.6622 78.3226 33.3094 77.9132 30.1788C77.6431 28.1163 76.6199 26.3269 75.5363 24.433C74.7098 22.9883 73.8553 21.4946 73.3792 19.8795C73.2071 19.2969 73.0816 18.6897 72.9601 18.1026C72.6956 16.8238 72.4458 15.6161 71.7562 14.5923C71.008 13.4814 69.7027 12.6101 67.9813 12.0716C66.8796 11.7271 65.7512 11.5561 64.6546 11.5561Z" fill="#1C2421"/>
<path d="M64.1616 33.5772C63.7742 33.5772 63.3926 33.5334 63.0249 33.4438C60.9675 32.9422 59.6222 31.1891 58.8556 29.8072C57.6352 27.6063 57.0566 25.0115 57.2263 22.5005C57.2307 22.4322 57.2656 22.3694 57.3215 22.3294C59.4038 20.8344 61.4128 18.5144 62.8337 15.9648C62.8752 15.8899 62.9493 15.8285 63.0407 15.8471C63.1266 15.8495 63.2036 15.8996 63.2408 15.9768C64.3319 18.2354 66.3058 20.0326 68.6568 20.9071C68.684 20.9171 68.7088 20.9323 68.7303 20.9516C69.0728 21.26 69.4106 21.5942 69.7683 21.9485C70.1043 22.2814 70.4506 22.6243 70.809 22.952C71.173 22.5999 71.5594 22.3584 71.9605 22.2324C72.5377 22.0513 73.142 22.1272 73.5791 22.4339C74.0513 22.7651 74.3457 23.3832 74.3867 24.1298C74.4412 25.1278 74.0877 26.1251 73.4164 26.8657C72.7789 27.5698 71.8823 28.011 70.9374 28.0907C70.2147 29.8287 69.226 31.1992 67.9973 32.1665C66.8323 33.0833 65.4617 33.5772 64.1616 33.5772ZM57.6776 22.6384C57.5371 25.0287 58.0964 27.491 59.2571 29.5843C60.2775 31.4247 61.6543 32.6369 63.1339 32.9974C64.5993 33.3559 66.3113 32.9091 67.7129 31.8056C68.9096 30.8638 69.8696 29.5108 70.5664 27.7846C70.5998 27.7012 70.6792 27.645 70.7693 27.6411C71.6461 27.6028 72.4868 27.2078 73.0761 26.5572C73.6657 25.9066 73.9761 25.0311 73.9278 24.1545C73.8947 23.5497 73.6714 23.0595 73.3155 22.8099C72.9947 22.5846 72.5386 22.5321 72.0978 22.6705C71.7149 22.7905 71.3413 23.0448 70.9874 23.4263C70.9024 23.5177 70.7593 23.5246 70.6662 23.4415C70.2405 23.0623 69.8362 22.6619 69.445 22.2748C69.1027 21.9357 68.7789 21.6149 68.4553 21.322C66.1467 20.4514 64.1894 18.7307 63.0228 16.5595C61.6063 18.9838 59.6794 21.1778 57.6776 22.6384Z" fill="#1C2421"/>
</svg>
