<svg width="50" height="70" viewBox="0 0 50 70" fill="none" xmlns="http://www.w3.org/2000/svg">
<path d="M49.9965 0H0.0234375V66.6376H49.9965V0Z" fill="#F2E49D"/>
<path d="M45.2357 12.7812H4.77734V27.5844H45.2357V12.7812Z" fill="#FFF8D4"/>
<path d="M45.2357 47.0547H4.77734V61.8579H45.2357V47.0547Z" fill="#FFF8D4"/>
<path d="M45.2357 29.9141H4.77734V44.7173H45.2357V29.9141Z" fill="#FFF8D4"/>
<path d="M50.0004 66.6406H0.0273438V69.0207H50.0004V66.6406Z" fill="#1B998B"/>
<path d="M49.973 0H0V8.01898H49.973V0Z" fill="#1B998B"/>
<path d="M19.5799 2.91406H4.74219V3.70776H19.5799V2.91406Z" fill="white"/>
<path d="M16.1053 4.30469H4.74219V5.09839H16.1053V4.30469Z" fill="white"/>
<path d="M29.5718 4.30469H26.6602V5.09839H29.5718V4.30469Z" fill="white"/>
<path d="M33.482 4.30469H30.5703V5.09839H33.482V4.30469Z" fill="white"/>
<path d="M37.3843 4.30469H34.4727V5.09839H37.3843V4.30469Z" fill="white"/>
<path d="M41.2906 4.30469H38.3789V5.09839H41.2906V4.30469Z" fill="white"/>
<path d="M45.2046 4.30469H42.293V5.09839H45.2046V4.30469Z" fill="white"/>
</svg>
