<svg width="25" height="18" viewBox="0 0 25 18" fill="none" xmlns="http://www.w3.org/2000/svg">
<path fill-rule="evenodd" clip-rule="evenodd" d="M0 0.9L0.892857 0H24.1071L25 0.9V17.1L24.1071 18H0.892857L0 17.1V0.9ZM23.2143 1.8H12.5V8.0874H11.6071L5.225 8.0784L8.95714 4.3164L7.69464 3.0438L2.41786 8.3628V9.6372L7.69464 14.9562L8.95714 13.6836L5.18214 9.8784L12.3179 9.8874H12.5V8.1126L19.4768 8.1216L15.7018 4.3164L16.9643 3.0438L22.2429 8.3628V9.6372L16.9643 14.9562L15.7018 13.6836L19.4339 9.9216L12.5 9.9126V16.2H23.2143V1.8Z" fill="#FF9500"/>
</svg>
