<svg width="538" height="401" viewBox="0 0 538 401" fill="none" xmlns="http://www.w3.org/2000/svg">
<g filter="url(#filter0_d_18870_29407)">
<rect x="21" y="21" width="496" height="448" rx="12" fill="white" shape-rendering="crispEdges"/>
<rect x="20.5" y="20.5" width="497" height="449" rx="12.5" stroke="#F68C1F" stroke-opacity="0.5" shape-rendering="crispEdges"/>
<line x1="256.75" y1="322" x2="256.75" y2="168.999" stroke="url(#paint0_linear_18870_29407)" stroke-width="5"/>
<path d="M323.914 163.25H345.709C348.233 163.25 350.281 165.298 350.281 167.822C350.281 170.347 352.329 172.395 354.854 172.395H371.208" stroke="url(#paint1_linear_18870_29407)" stroke-width="0.7845" stroke-miterlimit="10"/>
<path d="M139.503 153.245V168.005C139.503 169.342 138.408 170.437 137.072 170.437H123.009C122.365 170.437 121.842 170.959 121.842 171.603V174.525C121.842 175.565 120.585 176.085 119.851 175.349L115.285 170.778C115.067 170.559 114.77 170.436 114.46 170.436H101.431C100.083 170.436 99 169.343 99 168.004V153.253C99 151.906 100.092 150.812 101.441 150.812H137.072C138.414 150.814 139.503 151.902 139.503 153.245Z" fill="#E5E3E3"/>
<path d="M114.127 161.052C114.127 161.503 113.761 161.869 113.31 161.869C112.858 161.869 112.492 161.503 112.492 161.052C112.492 160.6 112.858 160.234 113.31 160.234C113.761 160.234 114.127 160.6 114.127 161.052Z" fill="white"/>
<path d="M120.068 161.052C120.068 161.503 119.702 161.869 119.251 161.869C118.8 161.869 118.434 161.503 118.434 161.052C118.434 160.6 118.8 160.234 119.251 160.234C119.702 160.234 120.068 160.6 120.068 161.052Z" fill="white"/>
<path d="M126.006 161.052C126.006 161.503 125.64 161.869 125.189 161.869C124.737 161.869 124.371 161.503 124.371 161.052C124.371 160.6 124.737 160.234 125.189 160.234C125.64 160.234 126.006 160.6 126.006 161.052Z" fill="white"/>
<path d="M388 171.55V186.31C388 187.647 389.093 188.741 390.431 188.741H404.494C405.138 188.741 405.661 189.264 405.661 189.907V192.83C405.661 193.869 406.918 194.39 407.652 193.654L412.218 189.083C412.436 188.864 412.733 188.74 413.043 188.74H426.073C427.421 188.74 428.504 187.648 428.504 186.309V171.558C428.504 170.209 427.412 169.117 426.064 169.117H390.431C389.089 169.118 388 170.206 388 171.55Z" fill="#E5E3E3"/>
<path d="M413.367 179.372C413.367 179.824 413.733 180.19 414.185 180.19C414.636 180.19 415.002 179.824 415.002 179.372C415.002 178.921 414.636 178.555 414.185 178.555C413.733 178.555 413.367 178.921 413.367 179.372Z" fill="white"/>
<path d="M407.43 179.372C407.43 179.824 407.796 180.19 408.247 180.19C408.699 180.19 409.065 179.824 409.065 179.372C409.065 178.921 408.699 178.555 408.247 178.555C407.796 178.555 407.43 178.921 407.43 179.372Z" fill="white"/>
<path d="M401.492 179.372C401.492 179.824 401.858 180.19 402.31 180.19C402.761 180.19 403.127 179.824 403.127 179.372C403.127 178.921 402.761 178.555 402.31 178.555C401.858 178.555 401.492 178.921 401.492 179.372Z" fill="white"/>
<path d="M182.385 100.443H180.938C173.054 100.443 166.662 94.0513 166.662 86.167C166.662 78.2827 160.27 71.8906 152.386 71.8906H132.117" stroke="url(#paint2_linear_18870_29407)" stroke-width="0.7845" stroke-miterlimit="10"/>
<path d="M182.385 99.1016H180.938C173.054 99.1016 166.662 105.494 166.662 113.378C166.662 121.262 160.27 127.654 152.386 127.654H132.117" stroke="url(#paint3_linear_18870_29407)" stroke-width="0.7845" stroke-miterlimit="10"/>
<path d="M334.539 95.112H351.979V80.5C351.979 68.518 361.692 58.8047 373.674 58.8047H393.615" stroke="url(#paint4_linear_18870_29407)" stroke-width="0.7845" stroke-miterlimit="10"/>
<path d="M393.617 95.1172H351.98V104.049C351.98 116.031 361.694 125.745 373.676 125.745H395.694" stroke="url(#paint5_linear_18870_29407)" stroke-width="0.7845" stroke-miterlimit="10"/>
<path d="M280.262 151.125H314.05" stroke="url(#paint6_linear_18870_29407)" stroke-width="0.7845" stroke-miterlimit="10"/>
<path d="M276.77 149.98H279.609C286.71 149.98 292.466 144.224 292.466 137.124V110.91C292.466 103.809 298.221 98.0547 305.321 98.0547H328.105" stroke="url(#paint7_linear_18870_29407)" stroke-width="0.7845" stroke-miterlimit="10"/>
<path d="M239.565 149.98H236.725C229.625 149.98 223.87 144.224 223.87 137.124V110.91C223.87 103.809 218.114 98.0547 211.013 98.0547H188.23" stroke="url(#paint8_linear_18870_29407)" stroke-width="0.7845" stroke-miterlimit="10"/>
<path d="M275.181 176.222H242.814C238.928 176.222 235.777 173.071 235.777 169.185V136.818C235.777 132.932 238.928 129.781 242.814 129.781H275.181C279.067 129.781 282.218 132.932 282.218 136.818V169.185C282.218 173.071 279.067 176.222 275.181 176.222Z" fill="#2E1D4F"/>
<path d="M335.064 108.055H321.14C319.469 108.055 318.113 106.7 318.113 105.029V91.1046C318.113 89.4335 319.469 88.0781 321.14 88.0781H335.064C336.735 88.0781 338.091 89.4335 338.091 91.1046V105.029C338.092 106.7 336.736 108.055 335.064 108.055Z" fill="#2E1D4F"/>
<path d="M403.68 65.9774H389.757C388.085 65.9774 386.73 64.622 386.73 62.9509V49.0265C386.73 47.3542 388.086 46 389.757 46H403.68C405.352 46 406.707 47.3554 406.707 49.0265V62.9497C406.708 64.622 405.352 65.9774 403.68 65.9774Z" fill="#5D4F6D"/>
<path d="M403.68 100.852H389.757C388.085 100.852 386.73 99.497 386.73 97.8259V83.9015C386.73 82.2304 388.086 80.875 389.757 80.875H403.68C405.352 80.875 406.707 82.2304 406.707 83.9015V97.8259C406.708 99.497 405.352 100.852 403.68 100.852Z" fill="#5D4F6D"/>
<path d="M403.68 135.743H389.757C388.085 135.743 386.73 134.388 386.73 132.717V118.792C386.73 117.121 388.086 115.766 389.757 115.766H403.68C405.352 115.766 406.707 117.121 406.707 118.792V132.717C406.708 134.388 405.352 135.743 403.68 135.743Z" fill="#E5E3E3"/>
<path d="M325.075 161.102H311.151C309.479 161.102 308.125 159.747 308.125 158.076V144.151C308.125 142.479 309.48 141.125 311.151 141.125H325.075C326.747 141.125 328.101 142.48 328.101 144.151V158.076C328.101 159.747 326.746 161.102 325.075 161.102Z" fill="url(#paint9_linear_18870_29407)"/>
<path d="M381.028 171.298H367.105C365.432 171.298 364.078 169.942 364.078 168.271V154.347C364.078 152.676 365.434 151.32 367.105 151.32H381.028C382.7 151.32 384.054 152.676 384.054 154.347V168.271C384.054 169.942 382.7 171.298 381.028 171.298Z" fill="url(#paint10_linear_18870_29407)"/>
<path d="M191.341 110.438H177.417C175.746 110.438 174.391 109.083 174.391 107.412V93.4874C174.391 91.8151 175.746 90.4609 177.417 90.4609H191.341C193.013 90.4609 194.368 91.8163 194.368 93.4874V107.411C194.368 109.083 193.014 110.438 191.341 110.438Z" fill="url(#paint11_linear_18870_29407)"/>
<path d="M138.379 137.641H124.456C122.785 137.641 121.43 136.286 121.43 134.615V120.691C121.43 119.019 122.785 117.664 124.456 117.664H138.379C140.052 117.664 141.406 119.019 141.406 120.691V134.615C141.406 136.286 140.052 137.641 138.379 137.641Z" fill="url(#paint12_linear_18870_29407)"/>
<path d="M264.421 146.695H247.309V147.992H264.421V146.695Z" fill="url(#paint13_linear_18870_29407)"/>
<path d="M270.702 150.461H247.309V151.758H270.702V150.461Z" fill="white"/>
<path d="M270.702 154.227H247.309V155.523H270.702V154.227Z" fill="white"/>
<path d="M270.702 157.977H247.309V159.273H270.702V157.977Z" fill="white"/>
<path d="M135.923 82.5153H121.999C120.328 82.5153 118.973 81.1599 118.973 79.4888V65.5655C118.973 63.8933 120.328 62.5391 121.999 62.5391H135.923C137.596 62.5391 138.95 63.8944 138.95 65.5655V79.4888C138.95 81.1611 137.596 82.5153 135.923 82.5153Z" fill="#2E1D4F"/>
<path d="M323.914 355.25H345.709C348.233 355.25 350.281 357.298 350.281 359.822C350.281 362.347 352.329 364.395 354.854 364.395H371.208" stroke="url(#paint14_linear_18870_29407)" stroke-width="0.7845" stroke-miterlimit="10"/>
<path d="M139.503 345.245V360.005C139.503 361.342 138.408 362.437 137.072 362.437H123.009C122.365 362.437 121.842 362.959 121.842 363.603V366.525C121.842 367.565 120.585 368.085 119.851 367.349L115.285 362.778C115.067 362.559 114.77 362.436 114.46 362.436H101.431C100.083 362.436 99 361.343 99 360.004V345.253C99 343.906 100.092 342.812 101.441 342.812H137.072C138.414 342.814 139.503 343.902 139.503 345.245Z" fill="#E5E3E3"/>
<path d="M114.127 353.052C114.127 353.503 113.761 353.869 113.31 353.869C112.858 353.869 112.492 353.503 112.492 353.052C112.492 352.6 112.858 352.234 113.31 352.234C113.761 352.234 114.127 352.6 114.127 353.052Z" fill="white"/>
<path d="M120.068 353.052C120.068 353.503 119.702 353.869 119.251 353.869C118.8 353.869 118.434 353.503 118.434 353.052C118.434 352.6 118.8 352.234 119.251 352.234C119.702 352.234 120.068 352.6 120.068 353.052Z" fill="white"/>
<path d="M126.006 353.052C126.006 353.503 125.64 353.869 125.189 353.869C124.737 353.869 124.371 353.503 124.371 353.052C124.371 352.6 124.737 352.234 125.189 352.234C125.64 352.234 126.006 352.6 126.006 353.052Z" fill="white"/>
<path d="M388 363.55V378.31C388 379.647 389.093 380.741 390.431 380.741H404.494C405.138 380.741 405.661 381.264 405.661 381.907V384.83C405.661 385.869 406.918 386.39 407.652 385.654L412.218 381.083C412.436 380.864 412.733 380.74 413.043 380.74H426.073C427.421 380.74 428.504 379.648 428.504 378.309V363.558C428.504 362.209 427.412 361.117 426.064 361.117H390.431C389.089 361.118 388 362.206 388 363.55Z" fill="#E5E3E3"/>
<path d="M436.809 371.372C436.809 371.824 437.175 372.19 437.626 372.19C438.077 372.19 438.443 371.824 438.443 371.372C438.443 370.921 438.077 370.555 437.626 370.555C437.175 370.555 436.809 370.921 436.809 371.372Z" fill="white"/>
<path d="M430.871 371.372C430.871 371.824 431.237 372.19 431.689 372.19C432.14 372.19 432.506 371.824 432.506 371.372C432.506 370.921 432.14 370.555 431.689 370.555C431.237 370.555 430.871 370.921 430.871 371.372Z" fill="white"/>
<path d="M424.934 371.372C424.934 371.824 425.3 372.19 425.751 372.19C426.202 372.19 426.568 371.824 426.568 371.372C426.568 370.921 426.202 370.555 425.751 370.555C425.3 370.555 424.934 370.921 424.934 371.372Z" fill="white"/>
<path d="M182.385 292.443H180.938C173.054 292.443 166.662 286.051 166.662 278.167C166.662 270.283 160.27 263.891 152.386 263.891H132.117" stroke="url(#paint15_linear_18870_29407)" stroke-width="0.7845" stroke-miterlimit="10"/>
<path d="M182.385 291.102H180.938C173.054 291.102 166.662 297.494 166.662 305.378C166.662 313.262 160.27 319.654 152.386 319.654H132.117" stroke="url(#paint16_linear_18870_29407)" stroke-width="0.7845" stroke-miterlimit="10"/>
<path d="M334.539 287.112H351.979V272.5C351.979 260.518 361.692 250.805 373.674 250.805H393.615" stroke="url(#paint17_linear_18870_29407)" stroke-width="0.7845" stroke-miterlimit="10"/>
<path d="M393.617 287.117H351.98V296.049C351.98 308.031 361.694 317.745 373.676 317.745H395.694" stroke="url(#paint18_linear_18870_29407)" stroke-width="0.7845" stroke-miterlimit="10"/>
<path d="M280.262 343.125H314.05" stroke="url(#paint19_linear_18870_29407)" stroke-width="0.7845" stroke-miterlimit="10"/>
<path d="M276.77 341.98H279.609C286.71 341.98 292.466 336.224 292.466 329.124V302.91C292.466 295.809 298.221 290.055 305.321 290.055H328.105" stroke="url(#paint20_linear_18870_29407)" stroke-width="0.7845" stroke-miterlimit="10"/>
<path d="M239.565 341.98H236.725C229.625 341.98 223.87 336.224 223.87 329.124V302.91C223.87 295.809 218.114 290.055 211.013 290.055H188.23" stroke="url(#paint21_linear_18870_29407)" stroke-width="0.7845" stroke-miterlimit="10"/>
<path d="M275.181 368.222H242.814C238.928 368.222 235.777 365.071 235.777 361.185V328.818C235.777 324.932 238.928 321.781 242.814 321.781H275.181C279.067 321.781 282.218 324.932 282.218 328.818V361.185C282.218 365.071 279.067 368.222 275.181 368.222Z" fill="#2E1D4F"/>
<path d="M335.064 300.055H321.14C319.469 300.055 318.113 298.7 318.113 297.029V283.105C318.113 281.433 319.469 280.078 321.14 280.078H335.064C336.735 280.078 338.091 281.433 338.091 283.105V297.029C338.092 298.7 336.736 300.055 335.064 300.055Z" fill="#2E1D4F"/>
<path d="M403.68 257.977H389.757C388.085 257.977 386.73 256.622 386.73 254.951V241.026C386.73 239.354 388.086 238 389.757 238H403.68C405.352 238 406.707 239.355 406.707 241.026V254.95C406.708 256.622 405.352 257.977 403.68 257.977Z" fill="#5D4F6D"/>
<path d="M403.68 292.852H389.757C388.085 292.852 386.73 291.497 386.73 289.826V275.901C386.73 274.23 388.086 272.875 389.757 272.875H403.68C405.352 272.875 406.707 274.23 406.707 275.901V289.826C406.708 291.497 405.352 292.852 403.68 292.852Z" fill="#5D4F6D"/>
<path d="M403.68 327.743H389.757C388.085 327.743 386.73 326.388 386.73 324.717V310.792C386.73 309.121 388.086 307.766 389.757 307.766H403.68C405.352 307.766 406.707 309.121 406.707 310.792V324.717C406.708 326.388 405.352 327.743 403.68 327.743Z" fill="#E5E3E3"/>
<path d="M325.075 353.102H311.151C309.479 353.102 308.125 351.747 308.125 350.076V336.151C308.125 334.479 309.48 333.125 311.151 333.125H325.075C326.747 333.125 328.101 334.48 328.101 336.151V350.076C328.101 351.747 326.746 353.102 325.075 353.102Z" fill="url(#paint22_linear_18870_29407)"/>
<path d="M381.028 363.298H367.105C365.432 363.298 364.078 361.942 364.078 360.271V346.347C364.078 344.676 365.434 343.32 367.105 343.32H381.028C382.7 343.32 384.054 344.676 384.054 346.347V360.271C384.054 361.942 382.7 363.298 381.028 363.298Z" fill="url(#paint23_linear_18870_29407)"/>
<path d="M191.341 302.438H177.417C175.746 302.438 174.391 301.083 174.391 299.412V285.487C174.391 283.815 175.746 282.461 177.417 282.461H191.341C193.013 282.461 194.368 283.816 194.368 285.487V299.411C194.368 301.083 193.014 302.438 191.341 302.438Z" fill="url(#paint24_linear_18870_29407)"/>
<path d="M138.379 329.641H124.456C122.785 329.641 121.43 328.286 121.43 326.615V312.691C121.43 311.019 122.785 309.664 124.456 309.664H138.379C140.052 309.664 141.406 311.019 141.406 312.691V326.615C141.406 328.286 140.052 329.641 138.379 329.641Z" fill="url(#paint25_linear_18870_29407)"/>
<path d="M264.421 338.695H247.309V339.992H264.421V338.695Z" fill="url(#paint26_linear_18870_29407)"/>
<path d="M270.702 342.461H247.309V343.758H270.702V342.461Z" fill="white"/>
<path d="M270.702 346.227H247.309V347.523H270.702V346.227Z" fill="white"/>
<path d="M270.702 349.977H247.309V351.273H270.702V349.977Z" fill="white"/>
<path d="M135.923 274.515H121.999C120.328 274.515 118.973 273.16 118.973 271.489V257.566C118.973 255.893 120.328 254.539 121.999 254.539H135.923C137.596 254.539 138.95 255.894 138.95 257.566V271.489C138.95 273.161 137.596 274.515 135.923 274.515Z" fill="#2E1D4F"/>
</g>
<defs>
<filter id="filter0_d_18870_29407" x="0" y="0" width="538" height="490" filterUnits="userSpaceOnUse" color-interpolation-filters="sRGB">
<feFlood flood-opacity="0" result="BackgroundImageFix"/>
<feColorMatrix in="SourceAlpha" type="matrix" values="0 0 0 0 0 0 0 0 0 0 0 0 0 0 0 0 0 0 127 0" result="hardAlpha"/>
<feOffset/>
<feGaussianBlur stdDeviation="10"/>
<feComposite in2="hardAlpha" operator="out"/>
<feColorMatrix type="matrix" values="0 0 0 0 0.964706 0 0 0 0 0.54902 0 0 0 0 0.121569 0 0 0 0.6 0"/>
<feBlend mode="normal" in2="BackgroundImageFix" result="effect1_dropShadow_18870_29407"/>
<feBlend mode="normal" in="SourceGraphic" in2="effect1_dropShadow_18870_29407" result="shape"/>
</filter>
<linearGradient id="paint0_linear_18870_29407" x1="259.75" y1="168.999" x2="259.75" y2="322" gradientUnits="userSpaceOnUse">
<stop stop-color="#FFC07E"/>
<stop offset="1" stop-color="#FFE7E6"/>
</linearGradient>
<linearGradient id="paint1_linear_18870_29407" x1="340.477" y1="154.187" x2="354.646" y2="181.459" gradientUnits="userSpaceOnUse">
<stop stop-color="#FD9024"/>
<stop offset="1" stop-color="#FFF8F2"/>
</linearGradient>
<linearGradient id="paint2_linear_18870_29407" x1="145.881" y1="64.2822" x2="168.622" y2="108.053" gradientUnits="userSpaceOnUse">
<stop stop-color="#FD9024"/>
<stop offset="1" stop-color="#FFF8F2"/>
</linearGradient>
<linearGradient id="paint3_linear_18870_29407" x1="145.881" y1="135.263" x2="168.622" y2="91.4931" gradientUnits="userSpaceOnUse">
<stop stop-color="#FD9024"/>
<stop offset="1" stop-color="#FFF8F2"/>
</linearGradient>
<linearGradient id="paint4_linear_18870_29407" x1="355.558" y1="66.7675" x2="368.448" y2="82.1868" gradientUnits="userSpaceOnUse">
<stop stop-color="#FD9024"/>
<stop offset="1" stop-color="#FFF8F2"/>
</linearGradient>
<linearGradient id="paint5_linear_18870_29407" x1="359.623" y1="87.886" x2="393.315" y2="128.192" gradientUnits="userSpaceOnUse">
<stop stop-color="#FD9024"/>
<stop offset="1" stop-color="#FFF8F2"/>
</linearGradient>
<linearGradient id="paint6_linear_18870_29407" x1="-nan" y1="-nan" x2="-nan" y2="-nan" gradientUnits="userSpaceOnUse">
<stop stop-color="#FF5B45"/>
<stop offset="1" stop-color="#FFA1A6"/>
</linearGradient>
<linearGradient id="paint7_linear_18870_29407" x1="288.635" y1="107.504" x2="308.037" y2="130.715" gradientUnits="userSpaceOnUse">
<stop stop-color="#F68C1F"/>
<stop offset="1" stop-color="#FFF8F2"/>
</linearGradient>
<linearGradient id="paint8_linear_18870_29407" x1="227.7" y1="107.504" x2="208.298" y2="130.715" gradientUnits="userSpaceOnUse">
<stop stop-color="#FD9024"/>
<stop offset="1" stop-color="#FFF8F2"/>
</linearGradient>
<linearGradient id="paint9_linear_18870_29407" x1="296.053" y1="108.655" x2="336.6" y2="186.696" gradientUnits="userSpaceOnUse">
<stop stop-color="#FD9024"/>
<stop offset="1" stop-color="#FFF8F2"/>
</linearGradient>
<linearGradient id="paint10_linear_18870_29407" x1="352.006" y1="118.85" x2="392.553" y2="196.891" gradientUnits="userSpaceOnUse">
<stop stop-color="#FD9024"/>
<stop offset="1" stop-color="#FFF8F2"/>
</linearGradient>
<linearGradient id="paint11_linear_18870_29407" x1="162.32" y1="57.9906" x2="202.867" y2="136.032" gradientUnits="userSpaceOnUse">
<stop stop-color="#FD9024"/>
<stop offset="1" stop-color="#FFF8F2"/>
</linearGradient>
<linearGradient id="paint12_linear_18870_29407" x1="109.358" y1="85.1936" x2="149.905" y2="163.235" gradientUnits="userSpaceOnUse">
<stop stop-color="#F68C1F"/>
<stop offset="1" stop-color="#FFF8F2"/>
</linearGradient>
<linearGradient id="paint13_linear_18870_29407" x1="247.694" y1="137.569" x2="265.46" y2="158.823" gradientUnits="userSpaceOnUse">
<stop stop-color="#FD9024"/>
<stop offset="1" stop-color="#FFF8F2"/>
</linearGradient>
<linearGradient id="paint14_linear_18870_29407" x1="340.477" y1="346.187" x2="354.646" y2="373.459" gradientUnits="userSpaceOnUse">
<stop stop-color="#FD9024"/>
<stop offset="1" stop-color="#FFF8F2"/>
</linearGradient>
<linearGradient id="paint15_linear_18870_29407" x1="145.881" y1="256.282" x2="168.622" y2="300.053" gradientUnits="userSpaceOnUse">
<stop stop-color="#FD9024"/>
<stop offset="1" stop-color="#FFF8F2"/>
</linearGradient>
<linearGradient id="paint16_linear_18870_29407" x1="145.881" y1="327.263" x2="168.622" y2="283.493" gradientUnits="userSpaceOnUse">
<stop stop-color="#FD9024"/>
<stop offset="1" stop-color="#FFF8F2"/>
</linearGradient>
<linearGradient id="paint17_linear_18870_29407" x1="355.558" y1="258.767" x2="368.448" y2="274.187" gradientUnits="userSpaceOnUse">
<stop stop-color="#FD9024"/>
<stop offset="1" stop-color="#FFF8F2"/>
</linearGradient>
<linearGradient id="paint18_linear_18870_29407" x1="359.623" y1="279.886" x2="393.315" y2="320.192" gradientUnits="userSpaceOnUse">
<stop stop-color="#FD9024"/>
<stop offset="1" stop-color="#FFF8F2"/>
</linearGradient>
<linearGradient id="paint19_linear_18870_29407" x1="-nan" y1="-nan" x2="-nan" y2="-nan" gradientUnits="userSpaceOnUse">
<stop stop-color="#FF5B45"/>
<stop offset="1" stop-color="#FFA1A6"/>
</linearGradient>
<linearGradient id="paint20_linear_18870_29407" x1="288.635" y1="299.504" x2="308.037" y2="322.715" gradientUnits="userSpaceOnUse">
<stop stop-color="#F68C1F"/>
<stop offset="1" stop-color="#FFF8F2"/>
</linearGradient>
<linearGradient id="paint21_linear_18870_29407" x1="227.7" y1="299.504" x2="208.298" y2="322.715" gradientUnits="userSpaceOnUse">
<stop stop-color="#FD9024"/>
<stop offset="1" stop-color="#FFF8F2"/>
</linearGradient>
<linearGradient id="paint22_linear_18870_29407" x1="296.053" y1="300.655" x2="336.6" y2="378.696" gradientUnits="userSpaceOnUse">
<stop stop-color="#FD9024"/>
<stop offset="1" stop-color="#FFF8F2"/>
</linearGradient>
<linearGradient id="paint23_linear_18870_29407" x1="352.006" y1="310.85" x2="392.553" y2="388.891" gradientUnits="userSpaceOnUse">
<stop stop-color="#FD9024"/>
<stop offset="1" stop-color="#FFF8F2"/>
</linearGradient>
<linearGradient id="paint24_linear_18870_29407" x1="162.32" y1="249.991" x2="202.867" y2="328.032" gradientUnits="userSpaceOnUse">
<stop stop-color="#FD9024"/>
<stop offset="1" stop-color="#FFF8F2"/>
</linearGradient>
<linearGradient id="paint25_linear_18870_29407" x1="109.358" y1="277.194" x2="149.905" y2="355.235" gradientUnits="userSpaceOnUse">
<stop stop-color="#F68C1F"/>
<stop offset="1" stop-color="#FFF8F2"/>
</linearGradient>
<linearGradient id="paint26_linear_18870_29407" x1="247.694" y1="329.569" x2="265.46" y2="350.823" gradientUnits="userSpaceOnUse">
<stop stop-color="#FD9024"/>
<stop offset="1" stop-color="#FFF8F2"/>
</linearGradient>
</defs>
</svg>
