<svg width="15" height="14" viewBox="0 0 15 14" fill="none" xmlns="http://www.w3.org/2000/svg">
<path d="M8.6015 0.160156V1.59166C10.3015 1.60116 12.28 1.57416 13.9785 1.59966C14.2995 1.59966 14.3135 1.88366 14.3175 2.13166C14.3445 5.10266 14.311 8.15916 14.3335 11.1317C14.3275 11.2487 14.3305 11.6817 14.327 11.8047C14.316 12.2162 14.11 12.2342 13.6985 12.2467C13.6325 12.2467 13.4385 12.2497 13.3745 12.2527C11.784 12.2447 10.1935 12.2482 8.6015 12.2482V13.8392L0.333496 12.5667C0.333496 8.85532 0.333496 5.14516 0.333496 1.43616L8.6015 0.160156Z" fill="#D33922"/>
<path d="M8.6016 2.07031H13.8516V11.7703H8.6016V10.5013H12.4186V9.86381H8.6016V9.06881H12.4186V8.43281H8.6031C8.6031 8.12081 8.6031 7.80931 8.6001 7.49781C8.91239 7.61048 9.24586 7.6521 9.57626 7.61967C9.90666 7.58724 10.2257 7.48155 10.5101 7.31031C10.8 7.11982 11.0401 6.86278 11.2105 6.56062C11.3809 6.25847 11.4766 5.91995 11.4896 5.57331C10.7896 5.56831 10.0931 5.57031 9.3966 5.57031C9.3966 4.87831 9.4046 4.18681 9.3821 3.49631C9.1211 3.54631 8.8606 3.60131 8.6011 3.65681V2.07081" fill="white"/>
<path d="M9.71634 3.16016C10.2587 3.19414 10.7702 3.4243 11.1553 3.80767C11.5404 4.19105 11.7729 4.70146 11.8093 5.24366C11.1093 5.25166 10.4128 5.24866 9.71484 5.24866C9.71484 4.55216 9.71484 3.85516 9.71484 3.16016" fill="#D33922"/>
<path d="M2.88353 4.36446C3.74703 4.40596 4.79353 4.02246 5.50953 4.66996C6.19503 5.50196 6.01353 7.03196 4.99753 7.52946C4.62811 7.67575 4.22763 7.72598 3.83353 7.67546C3.83353 8.29746 3.83053 8.91946 3.83353 9.54096C3.51853 9.51396 3.20203 9.48696 2.88703 9.46146C2.87253 7.76146 2.86953 6.06146 2.88703 4.36146" fill="white"/>
<path d="M3.82998 5.22113C4.14348 5.20663 4.52998 5.14963 4.74298 5.44363C4.82815 5.60372 4.87438 5.78163 4.87794 5.96293C4.88151 6.14423 4.84229 6.32382 4.76348 6.48713C4.58198 6.81463 4.17198 6.78313 3.85548 6.82113C3.82198 6.28813 3.82548 5.75563 3.82998 5.22113Z" fill="#D33922"/>
</svg>
