<svg width="17" height="16" viewBox="0 0 17 16" fill="none" xmlns="http://www.w3.org/2000/svg">
<path d="M9.6015 1.16066V2.43316C11.3015 2.44266 13.1615 2.41566 14.862 2.44266C14.922 2.43223 14.9836 2.43593 15.0419 2.45347C15.1002 2.47101 15.1536 2.5019 15.1978 2.54369C15.2421 2.58548 15.276 2.63702 15.2969 2.69422C15.3177 2.75141 15.325 2.81268 15.318 2.87316C15.345 6.00616 15.3115 9.31816 15.334 12.4517C15.324 12.6517 15.3385 13.0107 15.3075 13.2102C15.268 13.4647 15.1545 13.5137 14.899 13.5482C14.756 13.5677 14.517 13.5652 14.3765 13.5717C12.9805 13.5647 11.5855 13.5662 10.1895 13.5667H9.602V14.8402L1.3335 13.5657C1.3335 9.85466 1.3335 6.14466 1.3335 2.43566L9.6015 1.16066Z" fill="#283C82"/>
<path d="M9.60156 2.91016H14.8516V13.0892H9.60156V11.8167H13.7366V11.1807H9.60156V10.3857H13.7366V9.74916H9.60156V8.95416H13.7366V8.31766H9.60156V7.52266H13.7366V6.88616H9.60156V6.09116H13.7366V5.45466H9.60156V4.65966H13.7366V4.02316H9.60156V2.91016Z" fill="white"/>
<path d="M4.6198 5.71925C4.9198 5.70175 5.2243 5.68925 5.5263 5.67325C5.7378 6.74675 5.9543 7.81875 6.1833 8.88775C6.3628 7.78375 6.5618 6.68325 6.7543 5.58125C7.0723 5.57025 7.3903 5.55275 7.7068 5.53125C7.3473 7.07225 7.0323 8.62625 6.6398 10.1582C6.3743 10.2967 5.9768 10.1518 5.6618 10.1743C5.4503 9.12125 5.2038 8.07425 5.0143 7.01725C4.8283 8.04775 4.5863 9.06425 4.3733 10.0852C4.06797 10.0692 3.76147 10.0507 3.4538 10.0297C3.1898 8.62975 2.8798 7.24025 2.6333 5.83725C2.9053 5.82475 3.1788 5.81325 3.4508 5.80375C3.6148 6.81675 3.8008 7.82525 3.9438 8.83975C4.1678 7.79975 4.3973 6.75925 4.6198 5.71925Z" fill="white"/>
</svg>
