<svg width="16" height="16" viewBox="0 0 16 16" fill="none" xmlns="http://www.w3.org/2000/svg">
<path d="M7.2502 0H7.6394C8.3457 0 9.05109 0.0504428 9.75019 0.150943C10.3494 0.318428 10.9353 0.530039 11.5033 0.784042L11.5502 0.805031L11.6379 0.852077C12.0788 1.08871 12.5008 1.35894 12.9002 1.66038L13.6002 2.26415L14.2502 2.96855L14.5157 3.3502C14.5719 3.43109 14.6222 3.516 14.6661 3.60424L14.7488 3.7708C14.7829 3.83936 14.8066 3.91261 14.8191 3.98813C14.8395 4.11159 14.8296 4.23817 14.7903 4.35696L14.7629 4.43961C14.7215 4.56464 14.6563 4.68048 14.5709 4.78075C14.4589 4.91219 14.3155 5.0131 14.1539 5.07406L14.1261 5.08456C14.0425 5.11612 13.9554 5.13771 13.8667 5.14887L13.6002 5.18239H11.9154C11.8391 5.18239 11.7633 5.17001 11.691 5.14575C11.5663 5.10392 11.4557 5.02808 11.3719 4.92678L11.327 4.87266C11.276 4.81105 11.233 4.74325 11.1989 4.67087L10.9524 4.14732C10.8513 3.9325 10.7245 3.73076 10.5747 3.54655C10.4256 3.36315 10.2548 3.19846 10.0662 3.05607L10.0439 3.03928C9.84876 2.892 9.63718 2.76785 9.41341 2.66934L9.19351 2.57253C9.03178 2.50132 8.86281 2.44782 8.68956 2.41295C8.53038 2.38092 8.3684 2.36478 8.20603 2.36478H7.9104C7.63811 2.36478 7.36308 2.40157 7.10009 2.47214C6.8699 2.53391 6.64433 2.6234 6.43479 2.73694C6.21259 2.85734 6.00623 3.00491 5.82047 3.17626L5.6783 3.30741C5.55977 3.41674 5.45063 3.53583 5.35202 3.66341C5.21791 3.83692 5.10403 4.02517 5.01261 4.2245L4.85019 4.57861L4.80183 4.74085C4.73417 4.96781 4.68348 5.19948 4.6502 5.43396V5.83648L4.6608 5.9112C4.68272 6.06556 4.57756 6.20925 4.4238 6.23503C4.40809 6.23767 4.39219 6.23899 4.37626 6.23899H0.326817C0.309312 6.23899 0.292051 6.23489 0.276414 6.22703C0.231379 6.20437 0.207 6.15444 0.216828 6.10499L0.250195 5.93711L0.600195 4.93082L1.0002 4.12578L1.4002 3.4717L1.8502 2.86792L2.4002 2.26415C2.6332 2.02968 2.88352 1.81309 3.14905 1.61621L3.7002 1.20755L4.12115 0.972211C4.4401 0.793902 4.77145 0.63875 5.11265 0.507953C5.4705 0.370771 5.83819 0.260761 6.21258 0.178859L6.80019 0.0503144L7.2502 0Z" fill="#001F3F"/>
<path d="M11.3499 9.86157H15.7499L15.6999 10.2138L15.3999 11.0691L14.9999 11.9245L14.5499 12.6289L14.1499 13.132L13.6999 13.6352L13.1999 14.1383L12.3499 14.7421L11.6499 15.1446L10.8999 15.4968L9.8999 15.7987L9.1999 15.9496L8.7999 15.9999H7.0999L6.2499 15.849L5.4999 15.6477L4.4999 15.2452L3.5999 14.7421L2.9499 14.2389L2.3499 13.6855L1.9499 13.283L1.3999 12.5786L1.1499 12.0754V11.6729L1.3999 11.1697L1.7999 10.8679L1.9499 10.8175H4.2999L4.5499 10.9182L4.7499 11.1697L5.0999 11.9748L5.5499 12.5786L5.9999 12.9811L6.5999 13.3333L7.1499 13.5345L7.6999 13.6352H8.3999L9.1499 13.4339L9.9499 13.0314L10.5499 12.4779L10.9499 11.9245L11.2499 11.1697L11.3499 10.6163V9.86157Z" fill="#FD9024"/>
<path d="M7.5502 3.42139H8.4502L8.9502 3.57233L9.5002 3.92453L9.9002 4.37736L10.5002 5.58491L10.9502 5.98742L11.4002 6.18868L12.0502 6.239H15.1002L15.4502 6.38994L15.8502 6.74214L15.8002 6.84277H6.7502L6.3502 6.64151L5.9002 6.239L5.7002 5.83648V5.43396L5.8502 4.88051L6.1002 4.37736L6.5002 3.92453L6.9502 3.62264L7.5502 3.42139Z" fill="#FD9024"/>
<path d="M0.25 9.20752L9.5 9.25783L9.95 9.55972L10.25 9.96224L10.3 10.0629V10.6163L10.1 11.2704L9.75 11.8239L9.35 12.1761L8.85 12.4276L8.2 12.5786H7.75L7.15 12.4276L6.75 12.2264L6.25 11.7736L5.95 11.3207L5.55 10.4151L5.35 10.1635L4.9 9.91192L4.65 9.81129L4.35 9.76098L0.75 9.71066L0.4 9.50941L0.25 9.30815V9.20752Z" fill="#001F3F"/>
<path d="M0 8.05029H6.8L8 8.55344L8.15 8.65407V8.7547L0.1 8.70438L0 8.55344V8.05029Z" fill="#001F3F"/>
<path d="M8.1001 7.39624H15.9501L16.0001 7.49687V8.05033L9.6501 8.10064L8.6501 7.69813L8.1001 7.44655V7.39624Z" fill="#FD9024"/>
<path d="M0.1 6.79248H4.95L5.3 7.14468L5.6 7.39625V7.44657H0.05L0 7.29562L0.1 6.79248Z" fill="#001F3F"/>
<path d="M10.5498 8.60376L15.9498 8.65407L15.8998 9.25785L15.8498 9.30816H11.1498L10.5498 8.70439V8.60376Z" fill="#FD9024"/>
</svg>
