<svg width="16" height="16" viewBox="0 0 16 16" fill="none" xmlns="http://www.w3.org/2000/svg">
<path d="M4.0013 15.3327C3.63464 15.3327 3.32075 15.2021 3.05964 14.941C2.79852 14.6799 2.66797 14.366 2.66797 13.9993V1.99935C2.66797 1.63268 2.79852 1.31879 3.05964 1.05768C3.32075 0.796571 3.63464 0.666016 4.0013 0.666016H10.668C11.0346 0.666016 11.3485 0.796571 11.6096 1.05768C11.8707 1.31879 12.0013 1.63268 12.0013 1.99935V4.66602H10.668V3.99935H4.0013V11.9993H10.668V11.3327H12.0013V13.9993C12.0013 14.366 11.8707 14.6799 11.6096 14.941C11.3485 15.2021 11.0346 15.3327 10.668 15.3327H4.0013ZM4.0013 13.3327V13.9993H10.668V13.3327H4.0013ZM9.96797 10.666L7.13464 7.83268L8.06797 6.89935L9.96797 8.79935L13.7346 5.03268L14.668 5.96602L9.96797 10.666ZM4.0013 2.66602H10.668V1.99935H4.0013V2.66602Z" fill="#001F3F"/>
</svg>
