<svg width="120" height="120" viewBox="0 0 120 120" fill="none" xmlns="http://www.w3.org/2000/svg">
<path d="M113.385 53.7511C109.754 36.1882 98.2561 21.2602 82.1761 13.3186C80.4894 12.4855 78.6992 11.6446 76.8001 10.8005C53.0401 0.240482 39.3601 9.36048 32.4001 19.9205C25.4401 30.4805 16.8001 48.7205 11.2801 57.6005C5.76013 66.4805 -1.43987 85.2005 12.4801 98.1605C26.4001 111.12 39.6001 106.8 48.7201 103.2C57.8401 99.6005 66.9601 102.72 83.7601 102.72C100.56 102.72 114.48 89.7605 115.44 73.6805C115.791 67.7952 114.793 60.5599 113.385 53.7511Z" fill="#9BB2DC"/>
<path opacity="0.7" d="M113.385 53.7511C109.754 36.1882 98.2561 21.2602 82.1761 13.3186C80.4894 12.4855 78.6992 11.6446 76.8001 10.8005C53.0401 0.240482 39.3601 9.36048 32.4001 19.9205C25.4401 30.4805 16.8001 48.7205 11.2801 57.6005C5.76013 66.4805 -1.43987 85.2005 12.4801 98.1605C26.4001 111.12 39.6001 106.8 48.7201 103.2C57.8401 99.6005 66.9601 102.72 83.7601 102.72C100.56 102.72 114.48 89.7605 115.44 73.6805C115.791 67.7952 114.793 60.5599 113.385 53.7511Z" fill="white"/>
<path d="M105.517 80.5812C104.77 80.5008 103.881 81.5253 103.608 82.1388C103.584 82.1918 103.31 83.0633 103.324 83.0633C103.324 83.0633 103.337 83.063 103.34 83.063C103.198 83.2238 103.049 83.3976 102.889 83.591C102.598 83.9484 102.273 84.3547 101.949 84.8201C101.943 84.0967 101.815 82.5948 100.86 82.5038C99.5999 82.3838 99.2399 83.8238 100.02 84.6038C100.567 85.151 101.29 85.2254 101.674 85.2213C101.432 85.5821 101.189 85.9697 100.962 86.3899C100.65 86.9683 100.35 87.5923 100.125 88.2756C100.122 88.2833 100.12 88.2917 100.118 88.2993C100.122 88.079 100.112 87.4627 100.106 87.4157C100.02 86.7497 99.4617 85.5137 98.722 85.3769C98.1892 85.2785 97.738 85.6958 97.6955 86.214C97.6523 86.7429 98.0358 87.2726 98.41 87.6067C98.8319 87.9835 100.003 88.3485 100.096 88.3771C99.8874 89.0297 99.7264 89.7163 99.6016 90.42C99.5298 90.8222 99.4698 91.2297 99.4151 91.6389C99.4122 91.4484 99.4084 91.278 99.4053 91.2542C99.3189 90.5882 98.7606 89.3522 98.0212 89.2157C97.4884 89.1173 97.0372 89.5346 96.9947 90.0525C96.9513 90.5817 97.335 91.1112 97.7092 91.4455C98.0889 91.7844 99.0808 92.1158 99.3446 92.1998C99.3251 92.357 99.304 92.5137 99.2853 92.6712C99.195 93.4257 99.1084 94.1793 99.0006 94.9159C98.9627 95.1756 98.9159 95.4297 98.8701 95.6841C98.8674 95.5149 98.8638 95.3724 98.861 95.3508C98.7746 94.6848 98.2166 93.4488 97.4769 93.3122C96.9441 93.2138 96.4929 93.6312 96.4504 94.1493C96.407 94.6783 96.7907 95.208 97.1649 95.5421C97.527 95.8656 98.44 96.1795 98.753 96.281C98.698 96.5402 98.6435 96.7999 98.5787 97.0488C98.5305 97.2175 98.4959 97.3836 98.4383 97.5504C98.3846 97.7167 98.3315 97.8816 98.2787 98.0448C98.1657 98.3553 98.0512 98.6765 97.9334 98.9765C97.853 99.1857 97.7726 99.3837 97.6922 99.5837C97.733 99.3257 97.8018 98.8193 97.8028 98.7761C97.8131 98.3299 97.6547 97.6049 97.3394 97.0951C97.3413 97.0293 97.3374 96.9636 97.3271 96.8983C97.2446 96.3852 96.7624 96.0038 96.239 96.1433C95.5122 96.3367 95.0514 97.6123 95.0169 98.2829C95.0147 98.3225 95.0409 98.754 95.0615 99.0261C95.025 98.868 94.9912 98.7141 94.9516 98.5519C94.8755 98.2305 94.7898 97.9121 94.6991 97.5689C94.6494 97.4047 94.5993 97.2391 94.5486 97.0716C94.5021 96.9045 94.4315 96.7339 94.3732 96.5633C94.2294 96.1704 94.0648 95.7789 93.8901 95.3885C94.1714 95.321 95.1669 95.0673 95.5665 94.7606C95.9644 94.4553 96.3863 93.9557 96.3827 93.425C96.3789 92.9052 95.9603 92.4554 95.4215 92.514C94.6739 92.5951 94.0252 93.7862 93.8894 94.4438C93.881 94.4849 93.8366 94.9677 93.8174 95.2334C93.7106 94.9994 93.605 94.7654 93.4893 94.5324C93.1552 93.8594 92.7959 93.1886 92.4407 92.5181C92.3318 92.3126 92.2257 92.1067 92.1186 91.901C92.219 91.8782 93.4086 91.602 93.8565 91.2585C94.2544 90.9533 94.6766 90.4536 94.6727 89.9229C94.6689 89.4031 94.2503 88.9533 93.7115 89.0119C92.9639 89.0933 92.3152 90.2841 92.1794 90.9417C92.1693 90.9914 92.1064 91.6862 92.0992 91.8636C91.8638 91.4102 91.6334 90.9564 91.4243 90.4997C91.1351 89.8699 90.886 89.2361 90.6902 88.6041C90.737 88.5936 91.9799 88.3111 92.4386 87.9593C92.8365 87.654 93.2586 87.1545 93.2548 86.6237C93.2512 86.1038 92.8322 85.6541 92.2936 85.7126C91.546 85.7937 90.897 86.9849 90.7614 87.6425C90.7526 87.6857 90.7041 88.2153 90.687 88.4676C90.6635 88.47 90.6678 88.4695 90.6443 88.4721C90.4427 87.7925 90.333 87.1089 90.2618 86.4638C90.2198 86.0904 90.2006 85.7311 90.1898 85.3809C90.4266 85.3521 91.5078 85.2081 91.9554 84.9372C92.3846 84.6775 92.8588 84.2273 92.9133 83.6993C92.9666 83.1823 92.5998 82.6891 92.0579 82.6881C91.306 82.6867 90.5303 83.7993 90.3232 84.438C90.3119 84.4728 90.2366 84.8385 90.1854 85.1057C90.183 84.9477 90.1775 84.7845 90.1782 84.6331C90.1792 84.0645 90.2152 83.5437 90.2507 83.0829C90.273 82.8211 90.2985 82.5847 90.3246 82.3637C90.5423 82.2139 91.4121 81.6 91.6797 81.1613C91.9408 80.7331 92.1542 80.1149 91.9593 79.6212C91.7682 79.1378 91.2155 78.869 90.7343 79.1179C90.0662 79.4633 89.8905 80.808 90.0011 81.4704C90.0107 81.5275 90.263 82.4057 90.2745 82.398C90.2745 82.398 90.285 82.3908 90.2877 82.3889C90.2584 82.601 90.2294 82.8288 90.2025 83.0781C90.1569 83.5392 90.1094 84.0605 90.0959 84.6314C90.0933 84.7361 90.0918 84.8443 90.0904 84.9521C89.8038 84.5105 88.8995 83.2716 87.9227 83.5346C86.739 83.8533 87.0122 84.9002 87.9683 85.128C88.768 85.3183 89.7786 85.175 90.0887 85.1229C90.0866 85.5528 90.0976 86.0052 90.1401 86.4753C90.1982 87.1303 90.2927 87.8162 90.4816 88.5103C90.4838 88.5182 90.4869 88.5261 90.489 88.5338C90.3707 88.3481 90.0225 87.8395 89.9915 87.8033C89.5521 87.2954 88.4046 86.5725 87.7125 86.8663C87.2138 87.0782 87.0676 87.6751 87.3182 88.1306C87.574 88.5957 88.186 88.8259 88.6823 88.8981C89.242 88.9797 90.4202 88.6382 90.5138 88.6106C90.6998 89.2701 90.9441 89.9316 91.2282 90.5875C91.3902 90.9626 91.5652 91.3356 91.7452 91.7071C91.6377 91.5497 91.5405 91.4097 91.5249 91.3917C91.0854 90.8839 89.938 90.161 89.2458 90.4548C88.7471 90.6665 88.6012 91.2636 88.8515 91.7191C89.1071 92.1845 89.7194 92.4144 90.2157 92.4869C90.7192 92.5603 91.7294 92.2891 91.9958 92.2137C92.0663 92.3556 92.1352 92.4981 92.2062 92.6395C92.5475 93.3187 92.8907 93.995 93.207 94.6687C93.3186 94.9061 93.4199 95.1439 93.5222 95.3815C93.4266 95.2418 93.3448 95.1249 93.3306 95.1084C92.8912 94.6005 91.7438 93.8777 91.0516 94.1714C90.5529 94.3831 90.407 94.9802 90.6573 95.4357C90.9131 95.9009 91.5251 96.131 92.0214 96.2033C92.5022 96.2733 93.4367 96.0314 93.7535 95.9436C93.8507 96.1901 93.9486 96.4368 94.0317 96.6799C94.0847 96.8472 94.1474 97.0049 94.1913 97.1757C94.2383 97.3442 94.2849 97.511 94.331 97.6761C94.408 97.9975 94.4896 98.3285 94.5568 98.6438C94.6053 98.8627 94.6475 99.0722 94.6905 99.2832C94.5822 99.0456 94.3602 98.585 94.3372 98.5485C93.9798 97.98 92.9553 97.0915 92.2264 97.2773C91.7015 97.4112 91.4666 97.979 91.6451 98.4672C91.8275 98.9657 92.3978 99.2858 92.8773 99.4327C93.4053 99.5942 94.5746 99.4466 94.7205 99.4272C94.7906 99.7766 94.8554 100.117 94.9113 100.439C95.1083 101.556 95.2298 102.493 95.3056 103.15C95.319 103.266 95.3306 103.37 95.3409 103.469H93.0777L93.5862 113.391H98.0786L98.5871 103.469H96.4785C96.4941 103.436 96.509 103.406 96.5253 103.372C96.8147 102.769 97.2158 101.903 97.6492 100.843C97.787 100.508 97.9274 100.148 98.0682 99.7766C98.2098 99.8061 99.3671 100.041 99.9066 99.9197C100.396 99.809 100.988 99.5323 101.207 99.0487C101.422 98.5752 101.23 97.9913 100.716 97.8187C100.003 97.5792 98.9152 98.3887 98.5166 98.9292C98.493 98.9611 98.2766 99.3355 98.1436 99.5738C98.2005 99.4219 98.2571 99.2748 98.3135 99.1176C98.4273 98.8075 98.5317 98.4948 98.6452 98.1585C98.6944 97.9944 98.7438 97.8283 98.794 97.6608C98.8473 97.4957 98.8826 97.3145 98.9282 97.14C99.0251 96.7329 99.1034 96.3158 99.1732 95.8937C99.4451 95.9925 100.415 96.33 100.918 96.2949C101.418 96.2597 102.046 96.0758 102.335 95.6311C102.619 95.1955 102.518 94.5893 102.036 94.3409C101.368 93.9962 100.17 94.6317 99.6938 95.1053C99.664 95.1348 99.3609 95.513 99.1982 95.724C99.238 95.4698 99.2793 95.2166 99.3112 94.9584C99.4038 94.2127 99.4742 93.455 99.5478 92.6997C99.5702 92.4684 99.5954 92.238 99.6196 92.0073C99.7158 92.0436 100.861 92.4698 101.423 92.4302C101.924 92.3952 102.551 92.2113 102.841 91.7664C103.125 91.3308 103.024 90.7245 102.542 90.4761C101.874 90.1315 100.676 90.7668 100.2 91.2405C100.164 91.2763 99.7281 91.8211 99.6242 91.9651C99.6779 91.4573 99.736 90.9513 99.8138 90.4553C99.9198 89.7703 100.062 89.1043 100.247 88.4693C100.292 88.4863 101.485 88.9363 102.061 88.896C102.562 88.8609 103.189 88.6771 103.479 88.2321C103.762 87.7965 103.661 87.1903 103.18 86.9419C102.511 86.5973 101.313 87.2325 100.837 87.7063C100.806 87.7375 100.474 88.1522 100.32 88.3531C100.299 88.3423 100.303 88.3442 100.282 88.3334C100.489 87.6554 100.774 87.0249 101.071 86.4477C101.242 86.1132 101.424 85.8029 101.608 85.505C101.822 85.6116 102.803 86.088 103.326 86.1089C103.827 86.1288 104.471 86.015 104.808 85.6049C105.137 85.2031 105.103 84.5892 104.652 84.2897C104.026 83.8735 102.765 84.3737 102.24 84.7922C102.22 84.8078 102.088 84.9384 101.946 85.0812C101.947 85.0497 101.948 85.0135 101.949 84.972C101.969 84.9396 101.991 84.906 102.011 84.8748C102.326 84.401 102.643 83.9865 102.927 83.6217C103.09 83.4156 103.242 83.2325 103.385 83.0625C103.65 83.058 104.714 83.0256 105.179 82.8072C105.633 82.5941 106.152 82.1961 106.262 81.6768C106.369 81.1682 106.056 80.639 105.517 80.5812ZM97.2388 100.669C96.7869 101.709 96.371 102.558 96.0724 103.148C96.0122 103.266 95.9579 103.372 95.9078 103.468H95.8578C95.8432 103.353 95.8266 103.228 95.8072 103.086C95.716 102.424 95.5727 101.48 95.3495 100.357C95.2799 100.002 95.1983 99.624 95.1107 99.2369C95.1986 99.2021 95.6973 99.0002 96.1391 98.7533C96.5241 99.1701 97.5102 99.6578 97.6379 99.72C97.5035 100.05 97.3698 100.37 97.2388 100.669ZM101.812 85.2163C101.793 85.2353 101.774 85.2545 101.757 85.2727C101.768 85.2545 101.78 85.2357 101.792 85.2175C101.798 85.217 101.806 85.2168 101.812 85.2163Z" fill="#9BB2DC"/>
<path opacity="0.3" d="M69.0208 71.0551C68.3061 73.8907 70.0317 76.7793 72.8675 77.4941C74.494 77.904 76.1359 77.5082 77.3769 76.5633L79.4282 78.5268C79.3264 78.9487 79.4385 79.4109 79.7726 79.7349L84.2275 84.1183C84.7303 84.6069 85.534 84.5952 86.0224 84.0921C86.183 83.9265 86.29 83.728 86.3426 83.5192C86.4499 83.094 86.3335 82.6248 85.996 82.2972L81.5411 77.9136C81.2025 77.5848 80.7292 77.4881 80.3061 77.6097L78.287 75.677C78.7555 75.0981 79.1126 74.4153 79.3063 73.6471C80.021 70.8115 78.2956 67.9229 75.46 67.2081C72.6242 66.4939 69.7355 68.2195 69.0208 71.0551ZM78.3832 73.415C77.7967 75.7418 75.4267 77.1576 73.1001 76.571C70.7733 75.9845 69.3575 73.6144 69.9439 71.2879C70.5304 68.9611 72.9004 67.5453 75.2272 68.1319C77.554 68.7182 78.9698 71.0882 78.3832 73.415Z" stroke="#3E78B2" stroke-miterlimit="10"/>
<g opacity="0.3">
<path d="M49.5559 14.0405C50.7924 11.1977 53.6249 9.21094 56.9208 9.21094C61.3543 9.21094 64.9491 12.8057 64.9491 17.2392C64.9491 21.6744 61.3543 25.2674 56.9208 25.2674C52.4873 25.2674 48.8926 21.6744 48.8926 17.2392C48.8926 16.2405 49.075 15.2856 49.4083 14.4033" stroke="black" stroke-miterlimit="10"/>
<path d="M49.466 14.0108C50.7181 11.1334 53.5887 9.11719 56.9213 9.11719C61.4017 9.11719 65.0468 12.7623 65.0468 17.2426C65.0468 21.7249 61.4017 25.37 56.9213 25.37C52.441 25.37 48.7959 21.7249 48.7959 17.2426C48.7959 16.2337 48.9817 15.2665 49.3186 14.3737" stroke="black" stroke-width="0.5" stroke-miterlimit="10"/>
<path d="M51.5749 14.8118C52.5006 12.7836 54.5461 11.375 56.9218 11.375C60.1657 11.375 62.7968 14.0042 62.7968 17.2483C62.7968 20.494 60.1659 23.1232 56.9218 23.1232C53.6778 23.1232 51.0469 20.494 51.0469 17.2483C51.0469 16.5172 51.1806 15.8174 51.4254 15.173" stroke="black" stroke-miterlimit="10"/>
<path d="M51.4839 14.7743C52.4269 12.7113 54.5091 11.2734 56.9211 11.2734C60.2137 11.2734 62.8933 13.953 62.8933 17.2456C62.8933 20.5398 60.2137 23.2178 56.9211 23.2178C53.6286 23.2178 50.9492 20.5398 50.9492 17.2454C50.9492 16.5021 51.0846 15.7919 51.3347 15.1353" stroke="black" stroke-width="0.5" stroke-miterlimit="10"/>
<path d="M54.1486 15.7853C54.1486 15.7836 54.1503 15.78 54.1519 15.7783C54.678 14.7867 55.7201 14.1094 56.9218 14.1094C58.6515 14.1094 60.0545 15.5124 60.0545 17.2421C60.0545 18.9735 58.6512 20.3748 56.9218 20.3748C55.1921 20.3748 53.7891 18.9735 53.7891 17.2421C53.7891 16.8514 53.8603 16.4779 53.9904 16.134C53.9921 16.1287 53.9957 16.1237 53.9974 16.1184" stroke="black" stroke-miterlimit="10"/>
<path d="M54.0233 15.8199C54.0356 15.7957 54.0476 15.7712 54.0598 15.747H54.0615C54.6015 14.7188 55.6817 14.0156 56.9216 14.0156C58.7033 14.0156 60.1517 15.4657 60.1517 17.2458C60.1517 19.0275 58.7033 20.4776 56.9216 20.4776C55.1398 20.4776 53.6914 19.0275 53.6914 17.2458C53.6914 16.8445 53.7644 16.4607 53.8997 16.1048" stroke="black" stroke-width="0.5" stroke-miterlimit="10"/>
<path d="M54.2004 15.7997C54.1917 15.7964 54.1831 15.7945 54.1742 15.7911L54.1516 15.7825L54.0614 15.7477H54.0597L51.5748 14.81L51.4845 14.7752L49.5568 14.0475L49.4666 14.0144L46.3615 12.8422L46.5144 11.696C46.5196 11.6525 46.4971 11.611 46.457 11.5935L44.0013 10.4926C43.9648 10.477 43.9231 10.484 43.8955 10.5099C43.866 10.5361 43.8556 10.5759 43.8676 10.6141L44.3661 12.0901L43.9996 11.9511C43.8972 11.9129 43.7844 11.965 43.7462 12.0658C43.708 12.1666 43.7601 12.2794 43.8609 12.3176L44.243 12.4618L43.0968 13.3424C43.0656 13.3666 43.0516 13.4067 43.062 13.4449C43.0706 13.4813 43.1018 13.5109 43.1419 13.5161L45.8944 13.94C45.8997 13.9417 45.9048 13.9417 45.9084 13.9417C45.9482 13.9417 45.9847 13.9174 46.0005 13.879L46.2592 13.2226L49.319 14.3775L49.4092 14.4104L51.3352 15.1364L51.4255 15.1712L53.9001 16.1055L53.9904 16.1384L54.0633 16.1662" stroke="black" stroke-miterlimit="10"/>
<path d="M54.1483 15.7882C54.1569 15.7882 54.1655 15.7898 54.1744 15.7898C54.1831 15.7932 54.1917 15.7951 54.2006 15.7985L55.9701 16.4671L56.1645 15.8837C56.1904 15.8038 56.2653 15.75 56.3486 15.75C56.3503 15.75 56.3503 15.75 56.3519 15.75C56.4371 15.7517 56.5118 15.8074 56.536 15.889L56.8903 17.0386C56.9181 17.1288 56.8764 17.2279 56.7912 17.2714L55.9055 17.7125C55.8777 17.7264 55.8482 17.7334 55.8187 17.7334C55.7719 17.7334 55.7267 17.7178 55.6903 17.6866C55.6312 17.6345 55.6087 17.5512 55.6329 17.4763L55.8448 16.8389L54.0631 16.165C54.0369 16.1546 54.0144 16.1407 53.9971 16.1215" stroke="#3E78B2" stroke-miterlimit="10"/>
</g>
<path opacity="0.3" d="M29.5574 99.9494L31.7141 100.442L32.2135 98.2533L30.1416 97.7805C30.1437 97.7186 30.1509 97.6581 30.1509 97.5957C30.1509 96.9093 30.0113 96.2553 29.759 95.6608L31.4397 94.3207L30.0403 92.5658L28.4332 93.8474C27.8774 93.366 27.2138 93.0086 26.483 92.8116V90.7188H24.2385V92.729C23.4833 92.8759 22.7921 93.1968 22.2014 93.6444L20.5764 92.3486L19.1769 94.1035L20.7633 95.3685C20.4374 96.0148 20.2481 96.7406 20.2349 97.5107L18.168 97.9826L18.6674 100.171L20.7067 99.7056C21.0177 100.365 21.4656 100.947 22.0197 101.409L21.0712 103.379L23.0935 104.352L24.0273 102.413C24.4012 102.503 24.7896 102.557 25.1911 102.557C25.5132 102.557 25.8276 102.523 26.1326 102.465L27.0998 104.473L29.1221 103.499L28.1817 101.547C28.7457 101.118 29.2188 100.577 29.5574 99.9494ZM22.9886 97.5957C22.9886 96.3794 23.9745 95.3935 25.1908 95.3935C26.4072 95.3935 27.3931 96.3794 27.3931 97.5957C27.3931 98.812 26.4072 99.7979 25.1908 99.7979C23.9745 99.7979 22.9886 98.812 22.9886 97.5957Z" stroke="black" stroke-miterlimit="10" stroke-linecap="round" stroke-linejoin="round"/>
<path opacity="0.3" d="M33.6933 89.1904L35.4628 89.5943L35.8725 87.7991L34.1726 87.411C34.1745 87.3604 34.1802 87.3107 34.1802 87.2593C34.1802 86.6961 34.0655 86.1597 33.8586 85.6717L35.2374 84.5723L34.0893 83.1325L32.7707 84.184C32.3147 83.7892 31.7704 83.4957 31.1706 83.3341V81.6172H29.3291V83.2665C28.7094 83.3869 28.1423 83.6502 27.6578 84.0174L26.3246 82.9542L25.1764 84.394L26.4779 85.4317C26.2106 85.9621 26.055 86.5576 26.0445 87.1895L24.3486 87.5766L24.7583 89.3718L26.4314 88.99C26.6865 89.5312 27.0539 90.0088 27.5087 90.3875L26.7306 92.0034L28.3898 92.8024L29.1558 91.2114C29.4626 91.2853 29.781 91.3285 30.1106 91.3285C30.3748 91.3285 30.6328 91.3014 30.8831 91.2532L31.6768 92.901L33.3359 92.1021L32.5643 90.5001C33.0273 90.1494 33.4154 89.7049 33.6933 89.1904ZM28.3038 87.2593C28.3038 86.2614 29.1126 85.4526 30.1106 85.4526C31.1085 85.4526 31.9173 86.2614 31.9173 87.2593C31.9173 88.2573 31.1085 89.0661 30.1106 89.0661C29.1129 89.0663 28.3038 88.2573 28.3038 87.2593Z" stroke="black" stroke-miterlimit="10" stroke-linecap="round" stroke-linejoin="round"/>
<g opacity="0.3">
<path d="M16.473 12.7791C17.4343 10.4583 16.3322 7.79769 14.0115 6.83637C11.6907 5.87506 9.03005 6.97711 8.06874 9.29788C7.10742 11.6186 8.20948 14.2793 10.5302 15.2406C12.851 16.2019 15.5117 15.0999 16.473 12.7791Z" stroke="black" stroke-miterlimit="10"/>
<path d="M13.7782 10.7344H10.8142C10.2356 10.7344 9.7666 11.2033 9.7666 11.782V14.2681C10.4588 14.806 11.3261 15.1295 12.2708 15.1295C13.2382 15.1295 14.1257 14.7916 14.826 14.23V11.782C14.826 11.2033 14.3568 10.7344 13.7782 10.7344Z" stroke="black" stroke-miterlimit="10"/>
<path d="M12.2447 10.2727C13.0773 10.2727 13.7522 9.59781 13.7522 8.76525C13.7522 7.93269 13.0773 7.25781 12.2447 7.25781C11.4122 7.25781 10.7373 7.93269 10.7373 8.76525C10.7373 9.59781 11.4122 10.2727 12.2447 10.2727Z" stroke="black" stroke-miterlimit="10"/>
</g>
<g opacity="0.3">
<path d="M44.5451 45.4751C45.5119 43.1566 44.4162 40.4933 42.0977 39.5264C39.7792 38.5596 37.1159 39.6553 36.1491 41.9739C35.1822 44.2924 36.278 46.9557 38.5965 47.9225C40.915 48.8893 43.5783 47.7936 44.5451 45.4751Z" stroke="black" stroke-miterlimit="10"/>
<path d="M41.8524 43.4219H38.8884C38.3098 43.4219 37.8408 43.8908 37.8408 44.4695V46.9556C38.533 47.4937 39.4003 47.817 40.345 47.817C41.3124 47.817 42.1999 47.4791 42.9003 46.9175V44.4695C42.9 43.8911 42.4311 43.4219 41.8524 43.4219Z" stroke="black" stroke-miterlimit="10"/>
<path d="M40.319 42.9602C41.1515 42.9602 41.8264 42.2853 41.8264 41.4528C41.8264 40.6202 41.1515 39.9453 40.319 39.9453C39.4864 39.9453 38.8115 40.6202 38.8115 41.4528C38.8115 42.2853 39.4864 42.9602 40.319 42.9602Z" stroke="black" stroke-miterlimit="10"/>
</g>
<g opacity="0.3">
<path d="M112.945 47.3892C113.912 45.0706 112.817 42.4073 110.498 41.4405C108.18 40.4737 105.516 41.5694 104.549 43.8879C103.583 46.2064 104.678 48.8697 106.997 49.8366C109.315 50.8034 111.979 49.7077 112.945 47.3892Z" stroke="black" stroke-miterlimit="10"/>
<path d="M110.254 45.3359H107.29C106.711 45.3359 106.242 45.8049 106.242 46.3835V48.8697C106.934 49.4078 107.802 49.7311 108.746 49.7311C109.714 49.7311 110.601 49.3931 111.302 48.8315V46.3835C111.301 45.8051 110.832 45.3359 110.254 45.3359Z" stroke="black" stroke-miterlimit="10"/>
<path d="M108.72 44.8743C109.553 44.8743 110.228 44.1994 110.228 43.3668C110.228 42.5343 109.553 41.8594 108.72 41.8594C107.888 41.8594 107.213 42.5343 107.213 43.3668C107.213 44.1994 107.888 44.8743 108.72 44.8743Z" stroke="black" stroke-miterlimit="10"/>
</g>
<g opacity="0.3">
<path d="M86.7834 10.9126C87.7502 8.59408 86.6545 5.93078 84.336 4.96394C82.0175 3.9971 79.3542 5.09285 78.3873 7.41135C77.4205 9.72986 78.5162 12.3932 80.8347 13.36C83.1532 14.3268 85.8165 13.2311 86.7834 10.9126Z" stroke="black" stroke-miterlimit="10"/>
<path d="M84.0927 8.85938H81.1287C80.55 8.85938 80.0811 9.32833 80.0811 9.90697V12.3931C80.7732 12.9312 81.6406 13.2545 82.5852 13.2545C83.5527 13.2545 84.4402 12.9166 85.1405 12.355V9.90697C85.1403 9.32857 84.6713 8.85938 84.0927 8.85938Z" stroke="black" stroke-miterlimit="10"/>
<path d="M82.5592 8.39769C83.3918 8.39769 84.0666 7.72281 84.0666 6.89025C84.0666 6.05769 83.3918 5.38281 82.5592 5.38281C81.7266 5.38281 81.0518 6.05769 81.0518 6.89025C81.0518 7.72281 81.7266 8.39769 82.5592 8.39769Z" stroke="black" stroke-miterlimit="10"/>
</g>
<path d="M93.1663 51.732C93.1663 51.732 91.6315 51.7382 90.0309 53.4098C88.4303 55.0814 87.539 57.3816 87.9124 58.0636C88.2859 58.7455 88.7075 59.8965 88.697 60.1629C88.6864 60.4293 86.5478 62.2132 87.0465 63.1003C87.5452 63.9873 87.6575 64.5256 87.1886 64.5739C86.7196 64.6221 85.8938 65.2567 86.0087 65.7283C86.1235 66.1999 86.9073 66.6312 86.5531 67.151C86.1991 67.6708 85.9351 67.5936 85.9089 68.2598C85.8827 68.926 86.4959 69.4896 86.1415 69.5728C85.787 69.6561 85.1157 69.7632 85.2971 70.2374C85.4786 70.7116 85.9214 71.3296 85.9214 71.3296C85.9214 71.3296 88.2813 74.0916 93.3206 74.8908C98.3599 75.69 103.397 71.4849 104.156 70.8477C104.915 70.2105 105.056 70.0159 105.071 69.616C105.087 69.2162 104.839 68.7396 104.724 68.268C104.609 67.7964 104.846 66.8716 104.854 66.6717C104.862 66.4718 104.416 65.9205 104.094 65.6409C103.771 65.3613 103.733 64.626 103.893 63.965C104.052 63.304 103.404 62.8116 103.146 62.6011C102.887 62.3906 102.711 61.7832 102.935 61.1916C103.158 60.6 102.383 59.9688 102.06 59.6892C101.737 59.4096 101.694 58.8074 101.854 58.1464C102.013 57.4855 101.202 56.0524 100.76 55.4344C100.317 54.8164 99.7936 52.8609 97.2935 51.9616C94.7939 51.0621 93.1663 51.732 93.1663 51.732Z" fill="#9BB2DC" stroke="#9BB2DC" stroke-miterlimit="10" stroke-linecap="round" stroke-linejoin="round"/>
<path d="M87.6045 75.8262C89.6632 76.9984 92.045 77.6692 94.5835 77.6692C97.6387 77.6692 100.466 76.6972 102.777 75.0486C102.787 73.7783 102.789 72.7117 102.771 72.2526C102.713 70.7855 102.311 68.6929 101.783 68.2664C101.255 67.84 100.156 67.4999 98.5408 67.0525C96.9261 66.6049 94.4918 66.4453 94.4918 66.4453C94.4918 66.4453 91.6178 68.092 89.663 68.7438C87.7082 69.3959 87.6237 73.7437 87.6664 74.828C87.6741 75.0133 87.6482 75.3671 87.6045 75.8262Z" fill="white" stroke="#9BB2DC" stroke-miterlimit="10" stroke-linecap="round" stroke-linejoin="round"/>
<path d="M87.6045 75.8242C89.6632 76.9963 92.045 77.6671 94.5835 77.6671C97.6387 77.6671 100.466 76.6951 102.777 75.0466C102.787 73.7763 102.789 72.7097 102.771 72.2506C102.741 71.5092 102.671 71.8042 102.494 71.0391C101.567 71.911 99.5107 73.3474 95.4664 73.8154C91.7769 74.2421 88.751 72.8484 87.8073 72.2647C87.6535 73.3498 87.6487 74.3729 87.6664 74.826C87.6741 75.0113 87.6482 75.3651 87.6045 75.8242Z" fill="white" stroke="#9BB2DC" stroke-miterlimit="10" stroke-linecap="round" stroke-linejoin="round"/>
<path d="M92.3489 70.4239C92.3489 70.4239 92.286 68.8291 92.2284 67.362C92.1706 65.8949 91.9541 65.2644 91.9541 65.2644C91.9541 65.2644 92.9897 65.6069 94.0131 65.6307C95.0362 65.6542 96.5707 64.0606 96.6881 63.8002C96.8057 63.54 96.9795 63.0859 96.9795 63.0859C96.9795 63.0859 97.1412 65.5711 97.3702 66.5206C97.5991 67.4698 97.7494 68.0391 97.7494 68.0391" fill="white"/>
<path d="M92.3489 70.4239C92.3489 70.4239 92.286 68.8291 92.2284 67.362C92.1706 65.8949 91.9541 65.2644 91.9541 65.2644C91.9541 65.2644 92.9897 65.6069 94.0131 65.6307C95.0362 65.6542 96.5707 64.0606 96.6881 63.8002C96.8057 63.54 96.9795 63.0859 96.9795 63.0859C96.9795 63.0859 97.1412 65.5711 97.3702 66.5206C97.5991 67.4698 97.7494 68.0391 97.7494 68.0391" stroke="#9BB2DC" stroke-miterlimit="10" stroke-linecap="round"/>
<path d="M93.2859 67.8042C94.8408 66.9486 96.181 64.967 96.181 64.967L96.2705 64.2969C95.7183 64.8544 94.7383 65.649 94.0131 65.6325C92.9899 65.609 91.9541 65.2662 91.9541 65.2662C91.9541 65.2662 92.1706 65.8965 92.2284 67.3638C92.2414 67.6938 92.2546 68.0298 92.2673 68.3534C92.5188 68.2216 92.8481 68.0452 93.2859 67.8042Z" fill="#9BB2DC" stroke="#9BB2DC" stroke-miterlimit="10" stroke-linecap="round" stroke-linejoin="round"/>
<path d="M99.2348 59.3923L98.2138 59.3207C98.2138 59.3207 98.2167 59.1739 98.1994 58.9305C98.1627 58.8825 98.1257 58.8343 98.0911 58.7891C97.9265 58.5741 97.855 58.6288 97.5468 58.5235C97.2389 58.4181 97.1796 57.8949 97.2471 57.3887C97.3145 56.8826 96.6987 56.6716 96.0699 56.0728C95.5551 55.5823 95.4363 54.7132 95.4101 54.4147C95.1694 54.3407 94.933 54.2935 94.7091 54.2656C94.5761 54.5951 94.2917 55.2107 93.872 55.6514C93.2732 56.2799 92.8385 56.1578 92.6614 56.5207C92.4843 56.8835 92.1089 57.2843 91.8473 57.3139C91.5857 57.3434 90.9528 57.2591 90.9108 57.5755C90.8688 57.8918 90.6116 58.3727 90.4047 58.474C90.3598 58.4959 90.3046 58.523 90.2467 58.5513C90.2381 59.2792 90.2823 59.8771 90.2657 60.0011C90.2319 60.2543 90.013 61.8995 90.5825 62.9414C91.1523 63.9832 92.203 66.2486 93.8484 66.4677C95.4936 66.6868 97.1808 64.6574 97.5099 64.1215C97.8389 63.5855 98.1845 61.9571 98.1845 61.9571C98.1845 61.9571 98.7497 61.5815 99.1589 60.9275C99.5681 60.274 99.2348 59.3923 99.2348 59.3923Z" fill="white" stroke="#9BB2DC" stroke-miterlimit="10" stroke-linecap="round" stroke-linejoin="round"/>
<path d="M90.4512 57.6429C90.5102 57.1999 91.0543 56.4995 91.2441 56.5247C91.434 56.5499 92.1173 56.2547 92.286 55.955C92.4547 55.6555 92.4336 55.3305 92.7667 55.2463C93.1001 55.1618 93.1589 54.7188 93.1589 54.7188C93.1589 54.7188 92.1549 55.4867 91.6149 55.6725C91.0749 55.8583 90.8599 56.0227 90.5731 56.2423C90.3871 56.7273 90.3026 57.3448 90.2676 57.9395C90.3533 57.8966 90.4291 57.8099 90.4512 57.6429Z" fill="white" stroke="#9BB2DC" stroke-miterlimit="10" stroke-linecap="round" stroke-linejoin="round"/>
<path d="M93.1562 62.9609C93.1562 62.9609 93.4601 63.5811 94.2785 63.2391" stroke="#9BB2DC" stroke-miterlimit="10" stroke-linecap="round" stroke-linejoin="round"/>
<path d="M93.0303 63.9102C93.0303 63.9102 94.2284 64.5851 94.861 63.7031" stroke="#9BB2DC" stroke-miterlimit="10" stroke-linecap="round" stroke-linejoin="round"/>
<path d="M92.2718 60.4016C92.2624 60.6658 92.1405 60.8761 91.9996 60.871C91.8588 60.866 91.752 60.6478 91.7613 60.3836C91.7707 60.1193 91.8926 59.9091 92.0335 59.9142C92.1744 59.9192 92.2811 60.1373 92.2718 60.4016Z" fill="#9BB2DC"/>
<path d="M95.4739 60.5422C95.4646 60.8065 95.3427 61.0167 95.2018 61.0117C95.0609 61.0066 94.9541 60.7885 94.9635 60.5242C94.9728 60.26 95.0947 60.0497 95.2356 60.0548C95.3767 60.0596 95.4833 60.2777 95.4739 60.5422Z" fill="#9BB2DC"/>
<path d="M91.0801 59.2059C91.0801 59.2059 91.4722 58.6784 92.468 58.94" stroke="#9BB2DC" stroke-miterlimit="10" stroke-linecap="round" stroke-linejoin="round"/>
<path d="M94.7002 59.1111C94.7002 59.1111 95.7715 58.8029 96.4467 59.5368" stroke="#9BB2DC" stroke-miterlimit="10" stroke-linecap="round" stroke-linejoin="round"/>
<path d="M92.6406 59.0938C92.6406 59.0938 93.3453 60.0893 93.2272 60.9751" stroke="#9BB2DC" stroke-miterlimit="10" stroke-linecap="round" stroke-linejoin="round"/>
<path d="M89.9258 76.8774C90.0871 75.7818 90.2433 74.6985 90.3746 73.8242C90.7795 71.1249 92.1772 67.6838 92.1772 67.6838C91.6619 67.5762 86.6954 69.6246 85.6435 70.4966C85.1851 70.8765 84.6556 71.9147 84.166 73.0778C85.7267 74.7813 87.6988 76.0998 89.9258 76.8774Z" fill="#9BB2DC" stroke="#9BB2DC" stroke-miterlimit="10" stroke-linecap="round" stroke-linejoin="round"/>
<path d="M106.563 71.0289C105.787 70.1133 104.83 69.421 104.039 69.1032C103.336 68.61 102.552 68.2529 102.029 68.0016C100.922 67.4702 97.9571 66.8203 97.9571 66.8203C97.9571 66.8203 97.6916 74.4384 98.1044 77.2243C101.656 76.3133 104.666 74.0568 106.563 71.0289Z" fill="#9BB2DC" stroke="#9BB2DC" stroke-miterlimit="10" stroke-linecap="round" stroke-linejoin="round"/>
<path d="M104.572 73.529C110.09 68.0117 110.09 59.0664 104.572 53.5491C99.0551 48.0318 90.1098 48.0318 84.5925 53.5491C79.0752 59.0664 79.0752 68.0117 84.5925 73.529C90.1098 79.0463 99.0551 79.0463 104.572 73.529Z" stroke="#9BB2DC" stroke-miterlimit="10"/>
<path d="M97.7538 42.8645C105.358 41.1159 110.105 33.5337 108.357 25.9292C106.608 18.3247 99.0261 13.5775 91.4216 15.3261C83.817 17.0747 79.0699 24.6569 80.8184 32.2614C82.567 39.8659 90.1492 44.6131 97.7538 42.8645Z" fill="#9BB2DC"/>
<path d="M94.5842 43.2176C99.018 43.2176 102.973 41.1742 105.563 37.9789L99.9602 33.6012L95.8802 32.4413V32.2812L94.8602 32.3612L93.8402 32.2812V32.4413L89.7602 32.7612L83.4053 37.7261C85.9891 41.066 90.0348 43.2176 94.5842 43.2176Z" fill="white" stroke="#9BB2DC" stroke-miterlimit="10"/>
<path d="M90.8407 31.9238C90.8407 31.9238 89.7607 32.1638 89.4007 32.1638C89.0407 32.1638 87.7207 38.0438 87.7207 38.0438L92.2807 36.6038L94.2007 38.5238L95.7607 36.7238L100.321 38.7638C100.321 38.7638 99.9607 33.2438 99.9607 32.5238C99.9607 31.8038 95.7607 30.8438 95.7607 30.8438L90.8407 31.9238Z" fill="white" stroke="#9BB2DC" stroke-miterlimit="10"/>
<path d="M90.2402 29.5253L90.7202 33.7253L93.9602 36.9653L97.6802 33.2453L97.9202 28.4453L90.2402 29.5253Z" fill="white" stroke="#9BB2DC" stroke-miterlimit="10"/>
<path d="M97.7555 31.7326L97.9199 28.4453L97.4939 28.5051L92.6992 31.9493L97.7555 31.7326Z" fill="#9BB2DC" stroke="#9BB2DC" stroke-miterlimit="10"/>
<path d="M95.3206 17.309C95.3206 17.309 98.924 18.2323 99.1525 19.8557C99.381 21.4788 99.2002 24.8537 99.2002 24.8537C99.2002 24.8537 99.9714 23.3971 100.452 24.7394C100.933 26.0818 100.052 26.9623 99.7429 27.0576C99.4335 27.1529 99.0241 27.1433 99.0241 27.1433C99.0241 27.1433 98.0293 29.4139 97.4866 29.8519C96.944 30.2899 94.9162 32.0654 94.1118 32.3129C93.3073 32.5603 91.9126 32.6508 91.5128 32.232C91.113 31.8132 89.4802 28.9286 89.4325 28.3334C89.385 27.7385 89.0182 22.3644 89.0754 21.6694C89.1325 20.9743 88.7943 19.6558 90.2794 18.3182C91.7648 16.9807 95.3206 17.309 95.3206 17.309Z" fill="white" stroke="#9BB2DC" stroke-miterlimit="10"/>
<path d="M90.2801 18.3183C91.7652 16.9805 95.321 17.3091 95.321 17.3091C95.321 17.3091 98.9244 18.2324 99.1529 19.8557C99.3814 21.4788 99.2006 24.8537 99.2006 24.8537C99.2006 24.8537 98.815 25.5821 98.4106 25.3678C98.0059 25.1537 98.6818 23.3876 98.6818 23.3876C98.6818 23.3876 98.4485 22.8497 98.2582 22.231C98.0676 21.6123 98.1677 20.8364 98.4103 20.0842C98.653 19.332 96.8251 17.7946 95.8397 17.8947C94.8542 17.9948 93.5882 18.7229 92.7314 18.5801C91.8746 18.4373 91.7222 17.9422 91.7222 17.9422C91.7222 17.9422 91.4986 17.8755 90.6941 18.1232C90.5506 18.1673 90.4075 18.2403 90.2686 18.3288C90.2726 18.3252 90.2762 18.3216 90.2801 18.3183Z" fill="#9BB2DC" stroke="#9BB2DC" stroke-miterlimit="10"/>
<path d="M93.33 23.0703L97.5912 23.4865C97.5912 23.4865 97.7206 24.9925 97.4902 25.388C97.2598 25.7835 96.8876 26.1495 95.7737 26.2424C94.6599 26.3353 93.4932 25.9734 93.361 25.4725C93.2288 24.9718 93.33 23.0703 93.33 23.0703Z" stroke="#9BB2DC" stroke-width="2" stroke-miterlimit="10" stroke-linecap="round"/>
<path d="M92.1312 23.0469H87.8499C87.8499 23.0469 87.5748 24.5332 87.7656 24.9491C87.9567 25.3653 88.2915 25.7656 89.3909 25.9665C90.4903 26.1671 91.6867 25.9204 91.867 25.4349C92.047 24.9491 92.1312 23.0469 92.1312 23.0469Z" stroke="#9BB2DC" stroke-width="2" stroke-miterlimit="10" stroke-linecap="round"/>
<path d="M93.3297 23.0733C93.3297 23.0733 92.6375 22.7503 92.1309 23.0479" stroke="#9BB2DC" stroke-width="2" stroke-miterlimit="10" stroke-linecap="round"/>
<path d="M93.2617 23.7091C93.2617 23.7091 92.5775 23.2042 92.0879 23.6347" stroke="#9BB2DC" stroke-width="2" stroke-miterlimit="10" stroke-linecap="round"/>
<path d="M97.5908 23.4922L99.2843 24.7865" stroke="#9BB2DC" stroke-width="2" stroke-miterlimit="10" stroke-linecap="round"/>
<path d="M87.8496 23.0469L89.0712 23.5391" stroke="#9BB2DC" stroke-width="2" stroke-miterlimit="10" stroke-linecap="round"/>
<path d="M94.4002 25.1156C94.4461 25.2646 94.6042 25.3484 94.7533 25.3025C94.9023 25.2567 94.9861 25.0985 94.9402 24.9495C94.8944 24.8005 94.7362 24.7167 94.5872 24.7625C94.4382 24.8084 94.3544 24.9663 94.4002 25.1156Z" fill="#9BB2DC"/>
<path d="M90.0233 24.9359C90.0691 25.0849 90.2273 25.1687 90.3763 25.1229C90.5254 25.077 90.6091 24.9189 90.5633 24.7698C90.5175 24.6208 90.3593 24.537 90.2103 24.5829C90.061 24.6287 89.9775 24.7869 90.0233 24.9359Z" fill="#9BB2DC"/>
<path d="M94.2129 22.0522C94.2129 22.0522 95.4261 21.2434 96.281 22.5046" stroke="#9BB2DC" stroke-width="2" stroke-miterlimit="10" stroke-linecap="round"/>
<path d="M91.5042 22.4486C91.5042 22.4486 90.9664 21.7118 89.668 22.547" stroke="#9BB2DC" stroke-width="2" stroke-miterlimit="10" stroke-linecap="round"/>
<path d="M92.1382 24.7109C92.1382 24.7109 91.9918 25.7516 91.6944 25.9985C91.3971 26.2455 90.6516 26.755 91.1741 26.9365C91.6966 27.1179 92.7459 27.2929 93.1438 27.1702C93.5417 27.0478 93.5876 26.6914 93.5876 26.6914" stroke="#9BB2DC" stroke-miterlimit="10"/>
<path d="M92.1631 28.5297C92.1631 28.5297 93.1533 28.816 94.2355 28.3897C95.3176 27.9635 95.3592 27.3906 95.3592 27.3906" stroke="#9BB2DC" stroke-miterlimit="10"/>
<path d="M95.0527 27.2109L95.7871 27.576" stroke="#9BB2DC" stroke-miterlimit="10"/>
<path d="M97.7538 42.8645C105.358 41.1159 110.105 33.5337 108.357 25.9292C106.608 18.3247 99.0261 13.5775 91.4216 15.3261C83.817 17.0747 79.0699 24.6569 80.8184 32.2614C82.567 39.8659 90.1492 44.6131 97.7538 42.8645Z" stroke="#9BB2DC" stroke-miterlimit="10"/>
<path d="M24.9835 43.3499C32.7863 43.3499 39.1116 37.0246 39.1116 29.2218C39.1116 21.4191 32.7863 15.0938 24.9835 15.0938C17.1808 15.0938 10.8555 21.4191 10.8555 29.2218C10.8555 37.0246 17.1808 43.3499 24.9835 43.3499Z" stroke="#9BB2DC" stroke-miterlimit="10"/>
<path d="M27.6056 19.6255C27.6056 19.6255 28.5407 20.1598 29.4311 19.5812C30.3215 19.0023 29.6982 18.7351 29.5201 18.379C29.342 18.0228 29.7872 17.9338 29.8763 17.4439C29.9653 16.9541 29.6536 16.5535 29.4755 16.5089C29.2974 16.4643 29.342 15.9747 29.342 15.4848C29.342 14.995 28.7631 14.5498 28.496 14.5498C28.2289 14.5498 28.0508 14.1936 27.8727 13.7484C27.6947 13.3032 27.3385 12.9024 26.715 13.1695C26.0917 13.4367 25.78 13.4367 25.4682 12.9915C25.1564 12.5463 24.3997 12.4572 24.1323 12.6797C23.8652 12.9024 23.7315 13.3476 23.1973 12.9024C22.6631 12.4572 21.9951 12.5463 21.6834 12.858C21.3716 13.1698 21.4163 13.5259 20.9264 13.3479C20.4366 13.1698 19.6352 13.4369 19.4571 13.9711C19.2791 14.5054 18.2996 15.0843 17.9432 14.9506C17.5871 14.8171 16.9638 14.9506 17.2753 15.6185C17.5871 16.2864 17.2307 16.7316 16.9635 16.7316C16.6964 16.7316 16.1176 16.9097 16.4293 17.4886C16.7411 18.0675 16.9635 18.5127 16.6074 18.6907C16.2512 18.8688 15.6724 18.9135 16.1176 19.6702C16.5628 20.4271 16.9189 20.3825 16.7855 20.8277C16.6518 21.2729 16.3847 21.4066 16.7855 21.7181C17.1863 22.0296 17.6759 22.1633 17.6759 22.4304C17.6759 22.6975 17.1416 22.8312 17.7649 23.0537C18.3882 23.2764 18.878 23.3208 18.878 23.3208C18.878 23.3208 19.7684 20.9165 22.3064 20.1151C24.8442 19.3138 26.3137 19.4028 26.8924 19.7143C27.4719 20.0264 27.6056 19.6255 27.6056 19.6255Z" fill="#9BB2DC" stroke="#9BB2DC" stroke-miterlimit="10" stroke-linecap="round" stroke-linejoin="round"/>
<path d="M24.9837 43.3448C23.8876 43.3448 22.8215 43.218 21.7974 42.9819C21.2342 40.0498 20.6836 37.0904 20.6836 37.0904C20.6836 37.0904 23.0939 36.4275 23.817 36.307C24.5402 36.1865 26.7095 35.9453 26.7095 35.9453L29.9637 37.4518C29.9637 37.4518 30.3515 39.5988 30.742 42.1196C28.9833 42.906 27.035 43.3448 24.9837 43.3448Z" fill="white" stroke="#9BB2DC" stroke-miterlimit="10"/>
<path d="M20.8916 38.2094L29.9094 37.4297L29.9629 37.4544C29.9629 37.4544 30.0406 37.8845 30.1611 38.5846L21.109 39.3672C21.0274 38.9328 20.9538 38.5406 20.8916 38.2094Z" fill="#9BB2DC"/>
<path d="M21.4355 41.0923L30.4523 40.3125C30.5126 40.6795 30.5757 41.069 30.6398 41.4729L21.6561 42.2498C21.581 41.8574 21.5071 41.4693 21.4355 41.0923Z" fill="#9BB2DC"/>
<path d="M27.1917 34.2641C27.1917 34.2641 27.8546 36.7951 27.9148 38.1209C27.9751 39.4467 26.5891 40.5312 24.6004 40.3505C22.6118 40.1698 22.2504 38.0004 22.2504 37.458C22.2504 36.9156 22.1299 32.3359 22.1299 32.3359C22.1299 32.3359 23.094 33.1795 24.239 33.9027C25.3838 34.6258 27.1917 34.2641 27.1917 34.2641Z" fill="white" stroke="#9BB2DC" stroke-miterlimit="10"/>
<path d="M25.384 36.4337C23.5008 35.5313 22.5631 33.7608 22.1378 32.635C22.133 32.4466 22.1299 32.3359 22.1299 32.3359C22.1299 32.3359 23.094 33.1795 24.239 33.9027C25.384 34.6258 27.1917 34.2643 27.1917 34.2643C27.1917 34.2643 27.606 35.8462 27.8092 37.164C27.1231 37.0839 26.3059 36.8753 25.384 36.4337Z" fill="#9BB2DC" stroke="#9BB2DC" stroke-miterlimit="10"/>
<path d="M29.9077 26.3888C29.9077 26.3888 30.8675 25.141 31.0595 26.8688C31.2515 28.5966 29.4277 30.3241 29.4277 30.3241V26.3888" fill="white"/>
<path d="M29.9077 26.3888C29.9077 26.3888 30.8675 25.141 31.0595 26.8688C31.2515 28.5966 29.4277 30.3241 29.4277 30.3241V26.3888" stroke="#9BB2DC" stroke-miterlimit="10" stroke-linecap="round" stroke-linejoin="round"/>
<path d="M18.9297 24.5896C18.9297 24.5896 19.006 21.9169 19.9989 20.3896C20.9918 18.8622 23.0841 17.9255 25.4207 18.3277C28.3182 18.8264 29.6207 21.0006 30.0789 22.8332C30.537 24.6659 30.0026 27.3388 30.0026 29.1714C30.0026 31.004 27.8644 34.2877 27.2534 34.8224C26.6426 35.3569 25.6994 35.535 24.6225 34.9888C23.6339 34.4874 22.0086 32.7757 21.016 31.7831C20.0234 30.7902 19.4322 27.8399 19.2796 27.1525C19.127 26.4652 18.9297 24.5896 18.9297 24.5896Z" fill="white" stroke="#9BB2DC" stroke-miterlimit="10" stroke-linecap="round" stroke-linejoin="round"/>
<path d="M27.0271 29.7812C27.0271 29.7812 27.1161 30.3601 25.7803 30.2711" stroke="#9BB2DC" stroke-miterlimit="10" stroke-linecap="round" stroke-linejoin="round"/>
<path d="M27.4272 31.2969C27.4272 31.2969 25.8689 32.3654 24.3105 31.3413" stroke="#9BB2DC" stroke-miterlimit="10" stroke-linecap="round" stroke-linejoin="round"/>
<path d="M27.4277 27.3289C27.4277 27.6486 27.5773 27.9078 27.7616 27.9078C27.9459 27.9078 28.0954 27.6486 28.0954 27.3289C28.0954 27.0092 27.9459 26.75 27.7616 26.75C27.5773 26.75 27.4277 27.0092 27.4277 27.3289Z" fill="#9BB2DC"/>
<path d="M23.9512 27.6179C23.9512 27.9376 24.1007 28.1968 24.285 28.1968C24.4693 28.1968 24.6189 27.9376 24.6189 27.6179C24.6189 27.2983 24.4693 27.0391 24.285 27.0391C24.1007 27.0391 23.9512 27.2983 23.9512 27.6179Z" fill="#9BB2DC"/>
<path d="M28.8526 25.5074C28.8526 25.5074 28.4518 24.617 27.1162 25.0622" stroke="#9BB2DC" stroke-miterlimit="10" stroke-linecap="round" stroke-linejoin="round"/>
<path d="M24.8897 25.4171C24.8897 25.4171 23.6432 24.7492 22.2627 25.7733" stroke="#9BB2DC" stroke-miterlimit="10" stroke-linecap="round" stroke-linejoin="round"/>
<path d="M15.1562 39.3686C15.185 38.9649 15.138 38.2584 15.625 37.9893C15.9533 37.8067 18.2607 37.2727 20.0357 36.8774C21.1995 36.6196 22.1338 36.4219 22.1338 36.4219C22.1338 36.4219 22.3608 39.8421 22.613 43.1503C19.7393 42.6645 17.161 41.3112 15.1562 39.3686Z" fill="#9BB2DC" stroke="#9BB2DC" stroke-miterlimit="10"/>
<path d="M30.9946 42.0069C30.6776 39.9691 30.1765 37.9471 29.8916 36.875C31.6666 37.2703 33.974 37.8043 34.3023 37.9869C34.8039 38.2639 34.7389 39.0052 34.7739 39.4017C33.6704 40.4628 32.3958 41.3467 30.9946 42.0069Z" fill="#9BB2DC" stroke="#9BB2DC" stroke-miterlimit="10"/>
<path d="M20.1396 42.4958C19.9752 39.498 20.035 36.8774 20.035 36.8774C21.1988 36.6196 22.1331 36.4219 22.1331 36.4219C22.1331 36.4219 22.3601 39.8421 22.6124 43.1503C21.7596 43.0063 20.9331 42.7857 20.1396 42.4958Z" fill="#9BB2DC" stroke="#9BB2DC" stroke-miterlimit="10"/>
<path d="M25.421 18.3277C28.3185 18.8264 29.621 21.0003 30.0791 22.8332C30.1602 23.1582 30.2092 23.5103 30.2366 23.8784C30.1247 23.7006 29.9855 23.5124 29.8122 23.3144C28.4685 21.7787 27.4127 21.1069 27.4127 21.1069C27.4127 21.1069 27.0287 22.0667 24.8212 23.2184C22.6137 24.3702 19.6382 24.2742 19.6382 24.2742C19.6382 24.2742 20.2139 24.4662 19.7342 25.5219C19.5268 25.9779 19.3377 26.3619 19.1894 26.6516C19.059 25.8188 18.9297 24.5893 18.9297 24.5893C18.9297 24.5893 19.006 21.9164 19.9989 20.3893C20.9918 18.8624 23.0843 17.9255 25.421 18.3277Z" fill="#9BB2DC" stroke="#9BB2DC" stroke-miterlimit="10" stroke-linecap="round" stroke-linejoin="round"/>
<path d="M19.9259 28.2033C19.9259 28.2033 19.3501 25.9958 18.3901 27.0516C17.4304 28.1073 18.5821 29.6431 19.1579 30.4109C19.7339 31.1786 20.6936 30.6029 20.6936 30.6029" fill="white"/>
<path d="M19.9259 28.2033C19.9259 28.2033 19.3501 25.9958 18.3901 27.0516C17.4304 28.1073 18.5821 29.6431 19.1579 30.4109C19.7339 31.1786 20.6936 30.6029 20.6936 30.6029" stroke="#9BB2DC" stroke-miterlimit="10" stroke-linecap="round" stroke-linejoin="round"/>
<path d="M27.791 36.3828L28.7457 42.8184C28.7457 42.8184 30.7613 42.2527 31.4333 41.7576L30.1603 36.8071C30.1603 36.8071 29.3117 36.4183 27.791 36.3828Z" fill="#9BB2DC" stroke="#9BB2DC" stroke-miterlimit="10"/>
<path d="M28.102 77.6014C35.7119 75.8778 40.4838 68.3114 38.7602 60.7014C37.0366 53.0914 29.4702 48.3195 21.8602 50.0432C14.2502 51.7668 9.47833 59.3332 11.2019 66.9432C12.9256 74.5532 20.492 79.325 28.102 77.6014Z" fill="#9BB2DC"/>
<path d="M24.9838 77.9483C29.1254 77.9483 32.8476 76.1636 35.4312 73.3239L28.5773 69.6107L27.8966 66.207L23.0465 65.0156L22.8763 69.6107L14.8018 73.6079C17.3714 76.2822 20.982 77.9483 24.9838 77.9483Z" fill="white" stroke="#9BB2DC" stroke-miterlimit="10"/>
<path d="M22.916 68.5302L27.3008 67.7387L26.1344 65.7743L23.0461 65.0156L22.916 68.5302Z" fill="#9BB2DC" stroke="#9BB2DC" stroke-miterlimit="10"/>
<path d="M29.8664 55.5203C29.8664 55.5203 24.9401 52.8045 22.6032 52.9938C20.2664 53.1834 16.7295 58.0466 16.2874 60.3834C15.8453 62.7203 18.1191 63.9834 18.2453 64.173C18.3716 64.3626 16.3505 64.2362 16.5401 65.752C16.7295 67.2678 19.1297 67.5203 20.5191 67.2678C21.9087 67.0151 22.856 65.2468 22.856 64.9941C22.856 64.7414 22.2243 63.0362 22.2243 63.0362C22.2243 63.0362 23.5505 63.1624 23.7401 62.0258C23.9297 60.8889 25.0032 58.3624 26.456 58.2993C27.9087 58.2362 29.0456 58.4255 29.1718 58.7414C29.298 59.0572 29.4245 60.2572 29.4245 60.2572C29.4245 60.2572 31.0666 60.6362 32.3931 59.4993C33.7193 58.3624 34.2248 55.2676 32.4562 54.6362C30.6874 54.0045 29.8664 55.5203 29.8664 55.5203Z" fill="#9BB2DC" stroke="#9BB2DC" stroke-miterlimit="10" stroke-linecap="round" stroke-linejoin="round"/>
<path d="M21.6283 61.991L19.0889 63.4322C19.0889 63.4322 20.0496 64.5988 20.4614 64.7361C20.8733 64.8734 21.5594 64.6675 21.5594 64.6675C21.5594 64.6675 22.7261 66.04 23.6184 66.6578C24.5105 67.2756 26.6381 68.4422 27.8049 68.0304C28.9716 67.6185 30.6873 64.5302 30.5501 63.5008C30.4128 62.4715 29.795 60.8241 29.8637 60.0007C29.9323 59.177 30.0696 57.8731 30.0696 57.8731C30.0696 57.8731 27.2558 56.5005 24.9909 57.8044C22.7263 59.1086 22.8636 61.5105 21.6283 61.991Z" fill="white" stroke="#9BB2DC" stroke-miterlimit="10" stroke-linecap="round" stroke-linejoin="round"/>
<path d="M27.8047 60.7578L27.8733 61.5815C27.8733 61.5815 29.6577 61.7874 28.9713 62.4049C28.2849 63.0227 27.3242 63.16 27.3242 63.16" stroke="#9BB2DC" stroke-miterlimit="10" stroke-linecap="round" stroke-linejoin="round"/>
<path d="M24.5107 60.2085C24.5107 60.2085 25.1971 59.5221 26.0206 59.5908" stroke="#9BB2DC" stroke-miterlimit="10" stroke-linecap="round" stroke-linejoin="round"/>
<path d="M28.0791 59.3811C28.0791 59.3811 28.7655 59.1066 29.4517 59.6557" stroke="#9BB2DC" stroke-miterlimit="10" stroke-linecap="round" stroke-linejoin="round"/>
<path d="M25.769 61.8634C25.9333 61.8634 26.0664 61.6299 26.0664 61.3418C26.0664 61.0538 25.9333 60.8203 25.769 60.8203C25.6048 60.8203 25.4717 61.0538 25.4717 61.3418C25.4717 61.6299 25.6048 61.8634 25.769 61.8634Z" fill="#9BB2DC"/>
<path d="M29.1411 61.0293C29.1411 61.3173 29.0079 61.5509 28.8435 61.5509C28.6791 61.5509 28.5459 61.3173 28.5459 61.0293C28.5459 60.7413 28.6791 60.5078 28.8435 60.5078C29.0079 60.5081 29.1411 60.7413 29.1411 61.0293Z" fill="#9BB2DC"/>
<path d="M28.9179 63.9912C28.9179 63.9912 27.3012 64.9272 25.8545 63.9062" stroke="#9BB2DC" stroke-miterlimit="10" stroke-linecap="round" stroke-linejoin="round"/>
<path d="M24.9838 77.9415C29.1264 77.9415 32.8495 76.1562 35.4331 73.3151L30.7961 70.6328L29.173 75.2199L23.557 75.3051L19.8979 71.1356L19.8055 71.1241L14.8018 73.6014C17.3714 76.2754 20.982 77.9415 24.9838 77.9415Z" fill="#9BB2DC" stroke="#9BB2DC" stroke-miterlimit="10"/>
<path d="M28.102 77.6014C35.7119 75.8778 40.4838 68.3114 38.7602 60.7014C37.0366 53.0914 29.4702 48.3195 21.8602 50.0432C14.2502 51.7668 9.47833 59.3332 11.2019 66.9432C12.9256 74.5532 20.492 79.325 28.102 77.6014Z" stroke="#9BB2DC" stroke-miterlimit="10"/>
<path d="M60.1269 35.1912C60.1269 35.1912 60.5503 36.0379 60.7922 36.9451C61.0341 37.8523 60.9736 38.5176 61.518 38.941C62.0623 39.3643 62.6671 39.4853 62.5461 40.0296C62.4252 40.5739 61.9413 40.6949 61.9413 40.6949C61.9413 40.6949 61.6389 43.4165 61.518 44.3842C61.397 45.3518 58.1916 44.3842 58.1916 44.3842L57.5868 47.4684L53.6558 47.7103L53.2324 44.3842C53.2324 44.3842 51.6599 42.5093 51.2366 39.7274C50.8132 36.9454 52.3857 33.6797 55.7119 33.6797C59.0383 33.6794 60.1269 35.1912 60.1269 35.1912Z" fill="white" stroke="#9BB2DC" stroke-miterlimit="10"/>
<path d="M61.6989 42.2029C61.6989 42.2029 60.9732 42.4448 60.5498 41.9609" stroke="#9BB2DC" stroke-miterlimit="10"/>
<path d="M60.6709 38.1562L60.9128 38.9425" stroke="#9BB2DC" stroke-miterlimit="10"/>
<path d="M60.6713 37.6719C60.6713 37.6719 60.1875 37.6719 60.1875 38.1557" stroke="#9BB2DC" stroke-miterlimit="10"/>
<path d="M51.8418 49.2242C51.8418 49.2242 53.2933 47.2888 53.5352 47.2283C53.7772 47.1678 56.4383 46.563 57.7081 46.8654C58.9782 47.1678 59.2806 47.7726 60.2483 48.0146C61.216 48.2565 62.3046 47.8936 62.3046 47.8936C62.3046 47.8936 61.8812 48.5589 61.3369 48.8008C60.7926 49.0427 60.2483 49.2242 59.9459 49.2242C59.6435 49.2242 59.2201 49.4661 57.7081 49.1637C56.1961 48.8613 53.5957 48.8008 53.5957 48.8008L51.8418 49.2242Z" fill="white" stroke="#9BB2DC" stroke-miterlimit="10"/>
<path d="M78.0889 48.0702C78.0889 48.0702 78.7542 45.772 79.0566 45.2881C79.359 44.8043 80.0847 44.139 80.5081 43.8971C80.9314 43.6552 82.5644 42.6875 82.9878 42.6875C83.4111 42.6875 83.6389 43.162 83.2901 43.3528C83.0715 43.4725 82.0201 43.8971 81.8991 44.0785C81.7781 44.26 81.4153 44.5624 81.4153 44.5624L82.3829 44.8043C82.3829 44.8043 82.7458 45.4696 82.9273 45.772C83.1087 46.0744 83.2901 46.3768 83.0482 46.8001C82.8063 47.2235 82.5039 47.8888 82.141 48.0702C81.7781 48.2517 81.9596 47.4049 81.9596 47.4049C81.9596 47.4049 81.2338 48.1307 80.8709 48.4331C80.5081 48.7355 80.0242 48.9774 80.0242 48.9774L79.8428 49.4613L78.0889 48.0702Z" fill="white" stroke="#9BB2DC" stroke-miterlimit="10"/>
<path d="M49.1113 66.7453C49.1113 66.7453 50.3058 66.7366 50.5775 66.7191C50.8491 66.7018 51.3704 66.4844 51.5442 66.4844C51.7179 66.4844 51.8048 67.7009 51.3704 68.7435C50.936 69.7863 49.8063 70.351 49.8063 70.351L48.416 68.8738C48.416 68.8738 49.0244 67.4403 49.1113 66.7453Z" fill="white" stroke="#9BB2DC" stroke-miterlimit="10"/>
<path d="M50.1771 88.4766C50.1771 88.4766 49.6172 91.6765 50.017 94.6366C50.4171 97.5966 52.657 109.117 52.657 109.117L51.7769 112.477C51.7769 112.477 50.8169 113.036 51.2969 113.276C51.7769 113.516 54.097 113.276 54.097 113.276C54.097 113.276 54.4169 111.836 54.6569 111.116C54.8969 110.396 55.6169 109.916 55.297 109.036C54.9771 108.156 54.7371 107.276 54.7371 107.276L55.8572 90.1566L50.1771 88.4766Z" fill="white" stroke="#9BB2DC" stroke-miterlimit="10"/>
<path d="M55.0949 108.452C54.7181 108.425 53.918 108.452 53.6165 109.115C53.2164 109.995 52.3366 112.155 52.3366 112.155L51.4565 112.715L51.3713 112.772C51.1834 112.945 51.05 113.152 51.2964 113.275C51.7764 113.515 54.0965 113.275 54.0965 113.275C54.0965 113.275 54.4164 111.835 54.6564 111.115C54.8964 110.395 55.6164 109.915 55.2965 109.035C55.2248 108.837 55.1571 108.64 55.0949 108.452Z" fill="#9BB2DC" stroke="#9BB2DC" stroke-miterlimit="10"/>
<path d="M54.0166 109.92L54.3766 113.28H54.9365L55.2166 109.64C55.2166 109.64 54.2566 108.96 54.0166 109.92Z" fill="#9BB2DC" stroke="#9BB2DC" stroke-miterlimit="10"/>
<path d="M60.4971 89.5948L61.9371 92.6348C61.9371 92.6348 62.1766 97.0033 63.2967 99.6433C64.4167 102.283 66.6567 106.523 66.6567 106.523L67.3767 107.803C67.3767 107.803 66.3367 109.003 66.6567 109.723C66.9766 110.443 68.3367 110.843 68.8966 111.323C69.4565 111.803 69.577 113.275 70.2171 113.275C70.8572 113.275 72.6171 113.435 72.7772 113.035C72.9372 112.635 71.8971 112.155 71.8971 112.155C71.8971 112.155 70.357 109.235 70.1972 108.835C70.0371 108.435 67.6172 94.8748 67.4571 93.2749C67.297 91.6748 66.817 88.875 66.817 88.875L60.4971 89.5948Z" fill="white" stroke="#9BB2DC" stroke-miterlimit="10"/>
<path d="M70.4572 112.237C70.4572 112.237 69.2169 110.286 68.5768 109.405C68.0143 108.632 67.2048 108.353 67.0173 108.297C66.7524 108.711 66.4682 109.301 66.6568 109.725C66.9768 110.445 68.2584 110.843 68.6474 111.47C69.1888 112.342 69.5774 113.277 70.2172 113.277C70.8573 113.277 72.6172 113.437 72.7773 113.037C72.9374 112.637 71.8972 112.157 71.8972 112.157C71.6572 112.077 70.4572 112.237 70.4572 112.237Z" fill="#9BB2DC" stroke="#9BB2DC" stroke-miterlimit="10"/>
<path d="M66.6562 110.022L66.932 113.393H67.4434L67.7367 110.873C67.7367 110.873 67.796 109.77 66.6562 110.022Z" fill="#9BB2DC" stroke="#9BB2DC" stroke-miterlimit="10"/>
<path d="M50.5774 66.7194C50.5774 66.7194 48.6574 70.7994 48.1774 73.6794C47.6974 76.5594 48.5374 81.8394 48.5374 81.8394L48.1774 89.0394C48.1774 89.0394 55.1374 90.8394 59.9374 90.8394C64.7374 90.8394 68.6974 89.6394 68.6974 89.6394C68.6974 89.6394 68.8174 81.8394 67.8574 78.1194C66.8974 74.3994 64.7374 68.1594 64.6174 67.7994C64.4974 67.4394 63.6574 66.3594 63.6574 66.3594C63.6574 66.3594 55.9774 67.9194 50.5774 66.7194Z" fill="#9BB2DC" stroke="#9BB2DC" stroke-miterlimit="10"/>
<path d="M52.4648 78.2656L60.0145 85.1589" stroke="#6E7C87" stroke-miterlimit="10"/>
<path d="M54.9268 82.6953L58.3734 85.4853" stroke="#6E7C87" stroke-miterlimit="10"/>
<path d="M52.5067 49.1055C52.5067 49.1055 47.7895 51.0408 47.608 51.5852C47.4266 52.1295 46.0355 55.0928 46.0355 55.0928C46.0355 55.0928 40.3507 63.8016 40.4716 64.225C40.5926 64.6484 47.1242 68.6398 47.1242 68.6398C47.1242 68.6398 46.9427 68.8212 47.1242 68.9422C47.3056 69.0632 48.6967 69.426 48.6967 69.426C48.6967 69.426 49.6643 68.5188 49.6643 67.6721C49.6643 66.8254 49.4224 66.4625 49.241 66.402C49.0596 66.3416 48.2128 65.8577 48.2128 65.8577L47.9709 65.7972L45.3703 63.0152L48.6359 58.4794C48.6359 58.4794 51.539 63.6804 51.539 64.3457C51.539 65.011 50.0875 66.5835 50.3899 67.3092C50.6923 68.035 51.7809 68.2164 56.0143 68.6398C60.2476 69.0632 63.8159 67.6721 64.1788 67.3697C64.5417 67.0673 63.574 65.1924 63.574 63.8016C63.574 62.4106 63.6345 57.3305 63.6345 57.3305C63.6345 57.3305 69.7428 59.8707 70.9524 59.2054C72.1619 58.5401 79.4798 50.6175 79.4798 50.6175L80.5684 49.5893L78.1492 47.3516L76.5163 48.8031L69.5008 54.367C69.5008 54.367 69.1379 54.0041 68.9565 54.0041C68.7751 54.0041 68.4122 54.0646 68.4122 54.0646C68.4122 54.0646 63.8159 50.9196 63.2716 50.4358C62.7273 49.952 61.2153 49.8915 61.2153 49.8915L58.2518 49.3472C58.2523 49.3474 54.9863 48.0168 52.5067 49.1055Z" fill="white" stroke="#9BB2DC" stroke-miterlimit="10"/>
<path d="M63.6346 57.3293L59.9453 56.6641" stroke="#9BB2DC" stroke-miterlimit="10"/>
<path d="M62.6662 57.2031L59.2793 58.2313" stroke="#9BB2DC" stroke-miterlimit="10"/>
<path d="M59.8916 65.3684C60.0802 65.1586 60.2605 64.9371 60.4292 64.7031" stroke="#9BB2DC" stroke-miterlimit="10"/>
<path d="M55.2275 68.3982C55.2275 68.3982 57.478 67.6617 59.3203 65.9531" stroke="#9BB2DC" stroke-miterlimit="10"/>
<path d="M60.489 63.375C60.489 63.375 59.098 64.1612 57.6465 65.008" stroke="#9BB2DC" stroke-miterlimit="10"/>
<path d="M47.5732 55.7578L48.6361 58.4789C48.6361 58.4789 46.5798 56.846 46.3379 56.1202" stroke="#9BB2DC" stroke-miterlimit="10"/>
<path d="M47.124 54.6094L47.3326 55.1431" stroke="#9BB2DC" stroke-miterlimit="10"/>
<path d="M45.0674 57.9922C45.0674 57.9922 46.156 58.5365 47.8495 58.1131" stroke="#9BB2DC" stroke-miterlimit="10"/>
<path d="M45.0676 62.8319C45.0676 62.8319 43.7976 63.0738 42.6484 62.7109" stroke="#9BB2DC" stroke-miterlimit="10"/>
<path d="M43.4346 61.9219C43.4346 61.9219 44.3418 62.3452 45.0071 62.3452" stroke="#9BB2DC" stroke-miterlimit="10"/>
<path d="M47.9707 65.7969C47.9707 65.7969 48.5755 68.0951 47.124 68.6394L47.9707 65.7969Z" fill="white"/>
<path d="M47.9707 65.7969C47.9707 65.7969 48.5755 68.0951 47.124 68.6394" stroke="#9BB2DC" stroke-miterlimit="10"/>
<path d="M76.9395 48.4375L79.4794 50.6148" stroke="#9BB2DC" stroke-miterlimit="10"/>
<path d="M68.2365 56C68.0963 56.1418 67.9519 56.283 67.8076 56.4171" stroke="#9BB2DC" stroke-miterlimit="10"/>
<path d="M69.5007 54.6094C69.5007 54.6094 69.1644 55.0176 68.7041 55.5161" stroke="#9BB2DC" stroke-miterlimit="10"/>
<path d="M68.7147 54.3672C68.7147 54.3672 67.747 55.3349 66.8398 55.8187" stroke="#9BB2DC" stroke-miterlimit="10"/>
<path d="M60.3014 33.9945C60.3014 33.9945 60.73 35.1088 59.8728 37.9377C59.0155 40.7666 58.2441 42.6525 58.6725 44.4527C59.1012 46.253 60.1298 46.5959 60.3012 46.3386C60.4725 46.0814 60.9012 45.7386 60.9012 45.7386C60.9012 45.7386 61.0725 46.4243 60.3012 47.0246C59.5296 47.6246 56.5293 48.2248 54.6434 47.9675C52.7575 47.7105 51.5572 48.4818 50.8716 46.8532C50.1859 45.2246 50.5286 42.6527 50.3572 41.6241C50.1859 40.5954 48.4713 39.2238 49.6716 36.1377C50.8718 33.0515 55.6723 32.7088 57.3009 32.7088C58.9298 32.7086 60.0444 32.1942 60.3014 33.9945Z" fill="#9BB2DC" stroke="#9BB2DC" stroke-miterlimit="10"/>
<path d="M80.4556 33.1924C82.7221 33.1924 84.5596 31.355 84.5596 29.0884C84.5596 26.8218 82.7221 24.9844 80.4556 24.9844C78.189 24.9844 76.3516 26.8218 76.3516 29.0884C76.3516 31.355 78.189 33.1924 80.4556 33.1924Z" fill="white" stroke="#9BB2DC" stroke-miterlimit="10"/>
<path d="M78.7998 28.0827L80.56 30.0027L84.0798 24.8828" stroke="#9BB2DC" stroke-miterlimit="10" stroke-linecap="round" stroke-linejoin="round"/>
<path d="M14.8211 66.7223C16.4237 65.1196 16.4237 62.5211 14.821 60.9184C13.2184 59.3157 10.6199 59.3157 9.01717 60.9184C7.41448 62.5211 7.41448 65.1196 9.01717 66.7223C10.6199 68.3249 13.2184 68.3249 14.8211 66.7223Z" fill="white" stroke="#9BB2DC" stroke-miterlimit="10"/>
<path d="M10.2637 62.8093L12.0236 64.7293L15.5437 59.6094" stroke="#9BB2DC" stroke-miterlimit="10" stroke-linecap="round" stroke-linejoin="round"/>
<path d="M22.5596 113.383H109.92" stroke="#9BB2DC" stroke-miterlimit="10"/>
<path d="M12.96 113.383H19.92" stroke="#9BB2DC" stroke-miterlimit="10"/>
</svg>
