<svg width="120" height="120" viewBox="0 0 120 120" fill="none" xmlns="http://www.w3.org/2000/svg">
<path d="M60.0002 112.54C92.4049 112.54 118.674 97.3735 118.674 78.6646C118.674 59.9557 92.4049 44.7891 60.0002 44.7891C27.5954 44.7891 1.32617 59.9557 1.32617 78.6646C1.32617 97.3735 27.5954 112.54 60.0002 112.54Z" fill="#F5F5F5"/>
<path d="M37.4989 21.3048C36.7283 21.1896 36.2135 20.9405 36.1108 20.5327C36.0073 20.1223 36.3419 19.5987 36.7501 19.4391C37.1584 19.2795 37.7188 19.1551 38.4116 19.2363C38.3406 18.5287 38.9924 17.6911 39.6352 17.3357C40.2779 16.9803 41.446 16.8972 42.1028 17.4394C42.2934 16.1705 43.1092 15.5494 44.3869 15.1047C45.0887 14.8603 46.5443 14.7135 47.6615 15.7342C48.4019 14.3494 50.6082 13.5199 52.8745 14.4262C53.8014 14.797 54.5437 15.5453 54.9184 16.338C55.1644 16.8591 55.2102 17.3403 55.2644 17.8997C55.8404 17.4778 56.7515 17.4161 57.3647 17.7977C57.8663 18.1097 58.1699 18.6922 58.1291 19.2636C58.5971 19.2919 59.0596 19.3992 59.4892 19.5792C59.9804 19.7849 60.4907 20.2471 60.3126 20.7315C60.1777 21.0987 59.7212 21.2443 59.319 21.3C58.5227 21.4102 57.7024 21.3591 56.9279 21.151C55.5114 22.1343 53.4083 22.0836 52.0453 21.0329C52.0828 21.0617 51.1285 21.6439 51.0356 21.6847C50.6653 21.8479 50.2674 21.955 49.8623 21.9987C49.1776 22.0723 48.2144 21.9432 47.6802 21.4937C47.6051 21.4303 47.5259 21.3564 47.426 21.3523C47.3478 21.3492 47.2765 21.3905 47.2086 21.4277C46.1807 21.9934 44.7976 21.8952 43.8678 21.1908C43.2704 21.7325 42.4393 22.0303 41.6173 21.997C40.7953 21.9639 39.9935 21.6 39.4458 21.012C38.8698 21.2465 38.2698 21.42 37.4989 21.3048Z" fill="#F5F5F5"/>
<path d="M30.3403 15.4123C30.9159 15.3261 31.3003 15.1401 31.3769 14.8356C31.4542 14.5291 31.2043 14.1381 30.8995 14.0189C30.5947 13.8996 30.1762 13.8069 29.6587 13.8674C29.7118 13.3392 29.2251 12.7135 28.7451 12.4481C28.2651 12.1826 27.3929 12.1207 26.9023 12.5253C26.76 11.5778 26.1509 11.1139 25.1969 10.782C24.673 10.5996 23.586 10.4899 22.7518 11.2521C22.1988 10.2182 20.5512 9.59853 18.859 10.2756C18.1668 10.5523 17.6124 11.1113 17.3328 11.7033C17.149 12.0924 17.1149 12.4517 17.0743 12.8695C16.6443 12.5544 15.9638 12.5083 15.5059 12.7934C15.1315 13.0265 14.9047 13.4613 14.935 13.8881C14.5855 13.9092 14.2402 13.9893 13.9193 14.1237C13.5526 14.2773 13.1714 14.6225 13.3044 14.9841C13.4052 15.2582 13.746 15.3672 14.0462 15.4087C14.641 15.491 15.2534 15.4529 15.8318 15.2973C16.8895 16.0317 18.4601 15.9936 19.4777 15.2093C19.4499 15.2309 20.1624 15.6655 20.2315 15.696C20.508 15.8179 20.8051 15.8978 21.1078 15.9305C21.6192 15.9854 22.3383 15.8892 22.7371 15.5534C22.7933 15.5061 22.8523 15.4509 22.927 15.4481C22.9853 15.4457 23.0386 15.4766 23.0892 15.5045C23.8567 15.9269 24.8897 15.8537 25.584 15.3276C26.0302 15.7322 26.6508 15.9545 27.2645 15.9297C27.8782 15.9048 28.4772 15.6333 28.8859 15.1941C29.3167 15.3686 29.7648 15.4982 30.3403 15.4123Z" fill="#F5F5F5"/>
<path d="M48.3691 62.5393L70.68 76.0849L81.2691 78.9322L95.3751 73.7026L107.976 73.7358L114.271 65.8239L107.976 44.5143L103.438 42.3639L99.0672 21.7969L82.0303 22.393L78.8676 33.5413L73.7923 35.0653L68.8992 44.7442L57.4817 47.5448L48.3691 62.5393Z" fill="#3E78B2"/>
<path d="M94.8273 62.415L80.0159 67.653L62.5 59.2969L80.4023 64.0894L94.8273 62.415Z" fill="#455A64"/>
<path d="M81.2694 78.9349L80.0156 67.6521L94.827 62.4141L95.3754 73.7053L81.2694 78.9349Z" fill="#001F3F"/>
<path d="M104.406 52.3348L107.975 73.7371L114.27 65.8252L107.975 44.5156L104.406 52.3348Z" fill="#001F3F"/>
<path d="M82.0312 22.393L96.7778 26.6418L99.0681 21.7969L82.0312 22.393Z" fill="#F68C1F"/>
<path opacity="0.35" d="M82.0312 22.393L96.7778 26.6418L99.0681 21.7969L82.0312 22.393Z" fill="white"/>
<path d="M103.439 42.3672L99.6811 50.3784L78.5059 54.2633L104.408 52.3368L107.976 44.5176L103.439 42.3672Z" fill="#455A64"/>
<path d="M103.439 42.3639L99.6809 50.3751L96.7773 26.6418L99.0677 21.7969L103.439 42.3639Z" fill="#001F3F"/>
<path d="M57.4824 47.5427L68.8999 44.7422L73.6752 51.682L57.4824 47.5427Z" fill="#455A64"/>
<path d="M78.8682 33.5391L82.5904 39.1915L96.3321 40.5684L79.5861 42.1719L73.793 35.0631L78.8682 33.5391Z" fill="#455A64"/>
<path d="M40.3457 74.698L56.4679 81.3755L70.6803 76.0828L70.4131 68.3008L63.2028 63.2084L56.8923 60.9851L50.5476 58.9453L44.8234 60.3683L40.3457 74.698Z" fill="#3E78B2"/>
<path d="M63.203 63.2109L60.6086 69.4517L52.229 70.6982L42.8887 68.256L57.1168 74.4931L67.5496 71.9097L70.4133 68.3033L63.203 63.2109Z" fill="#455A64"/>
<path d="M56.4688 81.3716L57.1175 74.4867L67.5503 71.9034L70.4139 68.2969L70.6811 76.0789L56.4688 81.3716Z" fill="#001F3F"/>
<path d="M50.5485 58.9453L44.8242 60.3683L51.2005 62.7174L56.8931 60.9851L50.5485 58.9453Z" fill="#455A64"/>
<path d="M94.8027 82.9913L100.383 85.6452V81.1541L96.7081 78.9766L94.8027 82.9913Z" fill="#001F3F"/>
<path d="M102.832 79.7188L100.383 81.1477V85.6388L104.057 83.8696L102.832 79.7188Z" fill="#3E78B2"/>
<path d="M96.709 78.9731L100.043 78.6328L102.833 79.7217L100.384 81.1507L96.709 78.9731Z" fill="#455A64"/>
<path d="M102.627 82.4329L103.676 83.1137L105.407 82.7732L104.244 82.2344H103.45L102.627 82.4329Z" fill="#455A64"/>
<path d="M103.393 85.3834L103.676 83.114L105.407 82.7734L105.861 83.9082L103.393 85.3834Z" fill="#3E78B2"/>
<path d="M102.627 82.4297L101.748 84.9828L103.393 85.38L103.677 83.1106L102.627 82.4297Z" fill="#001F3F"/>
<path d="M94.8027 82.9913L100.383 85.6452V81.1541L96.7081 78.9766L94.8027 82.9913Z" fill="#001F3F"/>
<path d="M102.832 79.7188L100.383 81.1477V85.6388L104.057 83.8696L102.832 79.7188Z" fill="#3E78B2"/>
<path d="M96.709 78.9731L100.043 78.6328L102.833 79.7217L100.384 81.1507L96.709 78.9731Z" fill="#455A64"/>
<path d="M102.627 82.4329L103.676 83.1137L105.407 82.7732L104.244 82.2344H103.45L102.627 82.4329Z" fill="#455A64"/>
<path d="M103.393 85.3834L103.676 83.114L105.407 82.7734L105.861 83.9082L103.393 85.3834Z" fill="#3E78B2"/>
<path d="M102.627 82.4297L101.748 84.9828L103.393 85.38L103.677 83.1106L102.627 82.4297Z" fill="#001F3F"/>
<path d="M96.7235 23.9453C90.5483 26.2061 89.4515 28.0277 88.9164 39.1109C88.8347 40.7813 88.614 42.2285 88.2444 43.5029C87.1428 47.3237 84.7307 49.5845 80.8955 51.6845C72.6635 56.1989 72.3923 61.6517 72.3299 65.4077C72.1907 73.7381 72.2339 80.4773 60.5939 89.3237C50.7587 96.7997 39.6587 102.437 35.1947 114.685C26.9435 112.796 19.2131 109.923 12.5387 106.069C10.2011 104.72 8.07234 103.294 6.15234 101.806C11.4299 91.5101 28.9307 85.2581 37.2827 82.7429C45.9779 80.1221 58.5251 76.4453 60.7859 65.5133C62.4467 57.4781 62.2619 53.3909 75.6275 46.6973C78.6227 45.1973 80.5907 43.6349 81.9324 42.0365C85.5227 37.7597 84.6083 33.2237 86.8667 28.8941C89.0627 24.6845 92.9315 23.9453 92.9315 23.9453H96.7235Z" fill="#F68C1F"/>
<path opacity="0.35" d="M96.7235 23.9453C90.5483 26.2061 89.4515 28.0277 88.9164 39.1109C88.8347 40.7813 88.614 42.2285 88.2444 43.5029C87.1428 47.3237 84.7307 49.5845 80.8955 51.6845C72.6635 56.1989 72.3923 61.6517 72.3299 65.4077C72.1907 73.7381 72.2339 80.4773 60.5939 89.3237C50.7587 96.7997 39.6587 102.437 35.1947 114.685C26.9435 112.796 19.2131 109.923 12.5387 106.069C10.2011 104.72 8.07234 103.294 6.15234 101.806C11.4299 91.5101 28.9307 85.2581 37.2827 82.7429C45.9779 80.1221 58.5251 76.4453 60.7859 65.5133C62.4467 57.4781 62.2619 53.3909 75.6275 46.6973C78.6227 45.1973 80.5907 43.6349 81.9324 42.0365C85.5227 37.7597 84.6083 33.2237 86.8667 28.8941C89.0627 24.6845 92.9315 23.9453 92.9315 23.9453H96.7235Z" fill="white"/>
<path d="M81.0579 101.447C80.6098 101.447 80.2098 101.115 80.1277 100.677L79.9052 99.5062C79.3863 99.4107 78.8821 99.2871 78.3961 99.1366L76.334 100.091C76.1953 100.156 76.0328 100.19 75.8643 100.19C75.6582 100.19 75.4556 100.139 75.2938 100.045L73.2584 98.8702C73.0122 98.7281 72.8576 98.4826 72.8442 98.2145C72.831 97.9462 72.9608 97.6868 73.1914 97.5209L74.438 96.6245C74.318 96.4666 74.2105 96.3044 74.1159 96.139L71.5136 95.9744C71.0353 95.9444 70.6602 95.545 70.6602 95.0655V93.5528C70.6602 93.0744 71.0343 92.6751 71.5134 92.6439L74.1159 92.4792C74.2105 92.3136 74.318 92.1516 74.438 91.9937L73.1914 91.0973C72.961 90.9315 72.831 90.6723 72.8442 90.404C72.8576 90.1359 73.0122 89.8904 73.2589 89.748L75.2938 88.5732C75.4556 88.4799 75.6582 88.4283 75.8643 88.4283C76.0328 88.4283 76.1953 88.4624 76.333 88.5267L78.4081 89.4802C78.885 89.3314 79.3875 89.208 79.9052 89.1128L80.1277 87.9416C80.2114 87.5028 80.6115 87.1719 81.0579 87.1719H84.0502C84.4971 87.1719 84.8967 87.5028 84.9805 87.9425L85.2027 89.1128C85.7206 89.2083 86.2251 89.3316 86.7118 89.4824L88.7751 88.5262C88.9138 88.4621 89.0756 88.4283 89.2431 88.4283C89.449 88.4283 89.6521 88.4796 89.8146 88.5732L91.8507 89.749C92.0962 89.8916 92.2503 90.1361 92.2638 90.4042C92.2772 90.672 92.1478 90.931 91.917 91.0976L90.6704 91.994C90.7904 92.1524 90.8979 92.3144 90.9922 92.4795L93.5946 92.6441C94.0734 92.6741 94.4485 93.0735 94.4485 93.553V95.0657C94.4485 95.5455 94.0734 95.9448 93.595 95.9746L90.9927 96.1392C90.8982 96.3046 90.7902 96.4668 90.6706 96.6248L91.9179 97.5216C92.1481 97.688 92.2777 97.9472 92.2638 98.2155C92.2501 98.4836 92.0953 98.7286 91.8495 98.8702L89.8136 100.046C89.6518 100.139 89.4493 100.191 89.2438 100.191C89.0754 100.191 88.9134 100.157 88.7746 100.092L86.7001 99.1388C86.2232 99.2876 85.7204 99.4109 85.2027 99.5064L84.9805 100.677C84.8967 101.116 84.4971 101.447 84.0502 101.447H81.0579V101.447ZM79.4358 92.8784C78.734 93.2835 78.3318 93.8052 78.3318 94.3095C78.3318 94.8132 78.7342 95.3348 79.4358 95.7399C80.2585 96.2146 81.3658 96.476 82.5536 96.476C83.7418 96.476 84.8492 96.2146 85.6719 95.7399C86.3732 95.3348 86.7759 94.813 86.7759 94.3092C86.7759 93.8055 86.3734 93.2835 85.6719 92.8784C84.8492 92.4036 83.7423 92.1423 82.5541 92.1423C81.3658 92.1425 80.2585 92.4039 79.4358 92.8784Z" fill="#E0E0E0"/>
<path d="M91.5291 88.5762L89.4939 87.4011C89.3724 87.3311 89.1708 87.3219 89.0436 87.381L86.9808 88.3367C86.8536 88.3957 86.6429 88.4067 86.509 88.365C85.9952 88.2044 85.458 88.0777 84.9075 87.9843C84.7692 87.9608 84.6356 87.8324 84.6092 87.6947L84.3512 86.3353C84.325 86.1975 84.1901 86.0859 84.05 86.0859H81.0576C80.9175 86.0859 80.7824 86.1978 80.7562 86.3355L80.498 87.6949C80.4718 87.8327 80.3381 87.9611 80.1999 87.9846C79.6496 88.0779 79.1124 88.2047 78.5986 88.3652C78.4647 88.4072 78.254 88.3962 78.1265 88.3371L76.0635 87.3815C75.9363 87.3227 75.7347 87.3315 75.613 87.4016L73.578 88.5767C73.5152 88.6129 73.484 88.6633 73.4835 88.7151H73.4828L73.478 90.4791L73.4787 90.4789C73.4782 90.5271 73.5044 90.5763 73.5596 90.6159L74.4958 91.2896C74.425 91.3424 74.3427 91.3806 74.2649 91.3856L71.5532 91.5572C71.4132 91.5661 71.2997 91.6871 71.2997 91.8272V92.9797C71.2997 92.9807 71.2992 92.9814 71.2992 92.9823L71.2949 95.1042C71.2949 95.2443 71.4084 95.3653 71.5484 95.3742L74.2604 95.5458C74.34 95.5508 74.424 95.5909 74.4958 95.6454L73.5648 96.3152C73.5104 96.3543 73.4842 96.4028 73.4842 96.4506L73.4835 96.4508L73.4787 98.2167L73.4792 98.2165C73.4799 98.2681 73.5111 98.3185 73.574 98.3545L75.6089 99.5295C75.7304 99.5996 75.932 99.6087 76.0592 99.5497L78.122 98.594C78.2492 98.535 78.4599 98.5239 78.5938 98.5657C79.1076 98.7263 79.645 98.853 80.1956 98.9466C80.3338 98.9701 80.4677 99.0985 80.4939 99.2363L80.7519 100.596C80.778 100.733 80.9129 100.845 81.0533 100.845H84.0454C84.1858 100.845 84.3204 100.734 84.3468 100.596L84.6048 99.2363C84.631 99.0985 84.7647 98.9701 84.9029 98.9466C85.4535 98.853 85.9906 98.7265 86.5044 98.5659C86.6384 98.5242 86.8493 98.535 86.9765 98.594L89.0396 99.5497C89.1668 99.6087 89.3684 99.5996 89.4898 99.5295L91.525 98.3547C91.5864 98.3192 91.6181 98.27 91.62 98.2196H91.6203L91.6253 96.4503H91.6246C91.6244 96.4028 91.5982 96.3543 91.544 96.3152L90.6077 95.6415C90.6783 95.5887 90.7606 95.5506 90.8386 95.5455L93.5506 95.3739C93.6905 95.3651 93.804 95.2441 93.804 95.1039L93.8074 93.3469C93.8074 93.3443 93.8088 93.3421 93.8088 93.3397V91.8267C93.8088 91.6866 93.6953 91.5656 93.5554 91.5567L90.8434 91.3851C90.7637 91.3801 90.6797 91.34 90.608 91.2855L91.5389 90.6157C91.5932 90.5766 91.6193 90.5281 91.6196 90.4806L91.6203 90.4808L91.6251 88.7144L91.6244 88.7142C91.6232 88.6626 91.5917 88.6122 91.5291 88.5762ZM77.791 93.1467C77.9372 92.6593 78.3723 92.1822 79.1151 91.7533C81.014 90.657 84.0922 90.657 85.9911 91.7533C86.6876 92.1553 87.1414 92.5976 87.3466 93.0507C87.1848 93.6063 86.7341 94.1391 85.9916 94.568C84.0929 95.6641 81.0142 95.6643 79.1156 94.568C78.416 94.1641 77.9751 93.6675 77.791 93.1467Z" fill="#F68C1F"/>
<path opacity="0.2" d="M91.5291 88.5762L89.4939 87.4011C89.3724 87.3311 89.1708 87.3219 89.0436 87.381L86.9808 88.3367C86.8536 88.3957 86.6429 88.4067 86.509 88.365C85.9952 88.2044 85.458 88.0777 84.9075 87.9843C84.7692 87.9608 84.6356 87.8324 84.6092 87.6947L84.3512 86.3353C84.325 86.1975 84.1901 86.0859 84.05 86.0859H81.0576C80.9175 86.0859 80.7824 86.1978 80.7562 86.3355L80.498 87.6949C80.4718 87.8327 80.3381 87.9611 80.1999 87.9846C79.6496 88.0779 79.1124 88.2047 78.5986 88.3652C78.4647 88.4072 78.254 88.3962 78.1265 88.3371L76.0635 87.3815C75.9363 87.3227 75.7347 87.3315 75.613 87.4016L73.578 88.5767C73.5152 88.6129 73.484 88.6633 73.4835 88.7151H73.4828L73.478 90.4791L73.4787 90.4789C73.4782 90.5271 73.5044 90.5763 73.5596 90.6159L74.4958 91.2896C74.425 91.3424 74.3427 91.3806 74.2649 91.3856L71.5532 91.5572C71.4132 91.5661 71.2997 91.6871 71.2997 91.8272V92.9797C71.2997 92.9807 71.2992 92.9814 71.2992 92.9823L71.2949 95.1042C71.2949 95.2443 71.4084 95.3653 71.5484 95.3742L74.2604 95.5458C74.34 95.5508 74.424 95.5909 74.4958 95.6454L73.5648 96.3152C73.5104 96.3543 73.4842 96.4028 73.4842 96.4506L73.4835 96.4508L73.4787 98.2167L73.4792 98.2165C73.4799 98.2681 73.5111 98.3185 73.574 98.3545L75.6089 99.5295C75.7304 99.5996 75.932 99.6087 76.0592 99.5497L78.122 98.594C78.2492 98.535 78.4599 98.5239 78.5938 98.5657C79.1076 98.7263 79.645 98.853 80.1956 98.9466C80.3338 98.9701 80.4677 99.0985 80.4939 99.2363L80.7519 100.596C80.778 100.733 80.9129 100.845 81.0533 100.845H84.0454C84.1858 100.845 84.3204 100.734 84.3468 100.596L84.6048 99.2363C84.631 99.0985 84.7647 98.9701 84.9029 98.9466C85.4535 98.853 85.9906 98.7265 86.5044 98.5659C86.6384 98.5242 86.8493 98.535 86.9765 98.594L89.0396 99.5497C89.1668 99.6087 89.3684 99.5996 89.4898 99.5295L91.525 98.3547C91.5864 98.3192 91.6181 98.27 91.62 98.2196H91.6203L91.6253 96.4503H91.6246C91.6244 96.4028 91.5982 96.3543 91.544 96.3152L90.6077 95.6415C90.6783 95.5887 90.7606 95.5506 90.8386 95.5455L93.5506 95.3739C93.6905 95.3651 93.804 95.2441 93.804 95.1039L93.8074 93.3469C93.8074 93.3443 93.8088 93.3421 93.8088 93.3397V91.8267C93.8088 91.6866 93.6953 91.5656 93.5554 91.5567L90.8434 91.3851C90.7637 91.3801 90.6797 91.34 90.608 91.2855L91.5389 90.6157C91.5932 90.5766 91.6193 90.5281 91.6196 90.4806L91.6203 90.4808L91.6251 88.7144L91.6244 88.7142C91.6232 88.6626 91.5917 88.6122 91.5291 88.5762ZM77.791 93.1467C77.9372 92.6593 78.3723 92.1822 79.1151 91.7533C81.014 90.657 84.0922 90.657 85.9911 91.7533C86.6876 92.1553 87.1414 92.5976 87.3466 93.0507C87.1848 93.6063 86.7341 94.1391 85.9916 94.568C84.0929 95.6641 81.0142 95.6643 79.1156 94.568C78.416 94.1641 77.9751 93.6675 77.791 93.1467Z" fill="white"/>
<path opacity="0.1" d="M74.6316 94.0257C74.5649 93.9018 74.4051 93.7909 74.2652 93.7818L71.5529 93.6109C71.413 93.6016 71.3004 93.4813 71.3007 93.3407L71.2997 92.9829L71.2949 95.104C71.2964 95.2453 71.4089 95.3658 71.5488 95.3749L74.2611 95.5458C74.3412 95.5506 74.4276 95.5888 74.4994 95.6442L75.1784 95.1553C75.2924 95.0735 75.3029 94.9276 75.2081 94.8244C74.9724 94.5661 74.7809 94.2985 74.6316 94.0257ZM73.4784 90.4797L73.4801 90.4806C73.4782 90.5279 73.5058 90.5761 73.5605 90.6169L74.497 91.2913C74.5532 91.2501 74.6019 91.1975 74.6312 91.1428C74.78 90.8689 74.9732 90.6023 75.2079 90.3436C75.3027 90.2392 75.2916 90.0945 75.1776 90.0126L73.5644 88.8529C73.518 88.8172 73.4912 88.7761 73.483 88.7344L73.4784 90.4797Z" fill="#3E78B2"/>
<path opacity="0.1" d="M85.9912 90.5964C84.0923 89.5 81.0148 89.4986 79.1157 90.5952C77.9155 91.2881 77.4739 92.2528 77.7907 93.1459C77.9335 92.6587 78.371 92.1804 79.1155 91.75C81.0146 90.6535 84.0921 90.6549 85.991 91.7512C86.6863 92.1525 87.142 92.5934 87.3482 93.0468C87.6004 92.1825 87.1466 91.2633 85.9912 90.5964Z" fill="#3E78B2"/>
<path d="M93.8074 93.3727C93.7891 93.4961 93.6838 93.5988 93.5561 93.6081L90.8448 93.779C90.7999 93.7809 90.7526 93.7949 90.7082 93.8155L90.7051 95.5824C90.7493 95.5617 90.7949 95.5466 90.8381 95.5437L93.5503 95.3709C93.6914 95.3623 93.805 95.2413 93.8045 95.1026L93.8074 93.3727ZM91.626 88.7119L91.6243 88.7109C91.626 88.728 91.6222 88.7467 91.614 88.7649C91.6102 88.7834 91.5974 88.8014 91.5814 88.8175C91.5698 88.8293 91.5595 88.8393 91.5446 88.8494L89.9316 90.0096C89.9167 90.0194 89.9026 90.0319 89.8927 90.0449C89.8658 90.0756 89.8486 90.1092 89.8421 90.1447C89.838 90.1677 89.8368 90.1901 89.8399 90.2126C89.8418 90.2253 89.8447 90.2361 89.8476 90.2472C89.8582 90.281 89.8769 90.3125 89.9018 90.3408C89.9136 90.3523 89.9227 90.3643 89.9318 90.3765C90.1541 90.6225 90.3355 90.8793 90.4783 91.1395C90.5083 91.1913 90.5527 91.2425 90.6065 91.2849L91.5396 90.6153C91.5931 90.5748 91.621 90.5263 91.6202 90.4797L91.6219 90.4807L91.626 88.7119ZM91.6258 96.4644C91.6193 96.5114 91.5871 96.5551 91.5307 96.5892L89.4946 97.7633C89.411 97.812 89.2891 97.8314 89.179 97.8185L89.1761 99.5808C89.2862 99.5937 89.4072 99.576 89.4907 99.5273L91.5252 98.352C91.5874 98.3162 91.6198 98.2682 91.621 98.2181L91.6258 96.4644ZM78.331 96.7785C78.2554 96.7857 78.1836 96.8018 78.1277 96.827L76.0654 97.7832C76.0138 97.8086 75.9485 97.8218 75.8815 97.8223L75.877 99.5837C75.9434 99.5805 76.0082 99.5719 76.0618 99.5474L78.1241 98.5913C78.1802 98.5661 78.2537 98.5507 78.3264 98.5445L78.331 96.7785ZM84.3026 98.9441C84.245 99.0237 84.1505 99.0799 84.0521 99.0785L81.0586 99.0794C80.9923 99.0782 80.9275 99.0545 80.8754 99.0129L80.8733 100.778C80.9263 100.818 80.9885 100.842 81.0545 100.843L84.0454 100.843C84.1519 100.842 84.2522 100.781 84.3077 100.692L84.3026 98.9441Z" fill="#F68C1F"/>
<path opacity="0.7" d="M93.8074 93.3727C93.7891 93.4961 93.6838 93.5988 93.5561 93.6081L90.8448 93.779C90.7999 93.7809 90.7526 93.7949 90.7082 93.8155L90.7051 95.5824C90.7493 95.5617 90.7949 95.5466 90.8381 95.5437L93.5503 95.3709C93.6914 95.3623 93.805 95.2413 93.8045 95.1026L93.8074 93.3727ZM91.626 88.7119L91.6243 88.7109C91.626 88.728 91.6222 88.7467 91.614 88.7649C91.6102 88.7834 91.5974 88.8014 91.5814 88.8175C91.5698 88.8293 91.5595 88.8393 91.5446 88.8494L89.9316 90.0096C89.9167 90.0194 89.9026 90.0319 89.8927 90.0449C89.8658 90.0756 89.8486 90.1092 89.8421 90.1447C89.838 90.1677 89.8368 90.1901 89.8399 90.2126C89.8418 90.2253 89.8447 90.2361 89.8476 90.2472C89.8582 90.281 89.8769 90.3125 89.9018 90.3408C89.9136 90.3523 89.9227 90.3643 89.9318 90.3765C90.1541 90.6225 90.3355 90.8793 90.4783 91.1395C90.5083 91.1913 90.5527 91.2425 90.6065 91.2849L91.5396 90.6153C91.5931 90.5748 91.621 90.5263 91.6202 90.4797L91.6219 90.4807L91.626 88.7119ZM91.6258 96.4644C91.6193 96.5114 91.5871 96.5551 91.5307 96.5892L89.4946 97.7633C89.411 97.812 89.2891 97.8314 89.179 97.8185L89.1761 99.5808C89.2862 99.5937 89.4072 99.576 89.4907 99.5273L91.5252 98.352C91.5874 98.3162 91.6198 98.2682 91.621 98.2181L91.6258 96.4644ZM78.331 96.7785C78.2554 96.7857 78.1836 96.8018 78.1277 96.827L76.0654 97.7832C76.0138 97.8086 75.9485 97.8218 75.8815 97.8223L75.877 99.5837C75.9434 99.5805 76.0082 99.5719 76.0618 99.5474L78.1241 98.5913C78.1802 98.5661 78.2537 98.5507 78.3264 98.5445L78.331 96.7785ZM84.3026 98.9441C84.245 99.0237 84.1505 99.0799 84.0521 99.0785L81.0586 99.0794C80.9923 99.0782 80.9275 99.0545 80.8754 99.0129L80.8733 100.778C80.9263 100.818 80.9885 100.842 81.0545 100.843L84.0454 100.843C84.1519 100.842 84.2522 100.781 84.3077 100.692L84.3026 98.9441Z" fill="white"/>
<path d="M89.0449 87.381L86.9821 88.3367C86.8549 88.3957 86.6442 88.4067 86.5103 88.365C85.9965 88.2044 85.4593 88.0777 84.9088 87.9843C84.7705 87.9608 84.6369 87.8324 84.6105 87.6947L84.3525 86.3353C84.3263 86.1975 84.1914 86.0859 84.0513 86.0859H81.0589C80.9188 86.0859 80.7837 86.1978 80.7575 86.3355L80.4993 87.6949C80.4731 87.8327 80.3394 87.9611 80.2012 87.9846C79.6509 88.0779 79.1137 88.2047 78.5999 88.3652C78.466 88.4072 78.2553 88.3962 78.1278 88.3371L76.0648 87.3815C75.9376 87.3224 75.736 87.3315 75.6143 87.4016L73.5793 88.5767C73.4579 88.6467 73.4517 88.7701 73.5657 88.8519L75.1785 90.0126C75.2922 90.0944 75.303 90.2401 75.2085 90.3435C74.9728 90.6013 74.7813 90.8687 74.6325 91.1423C74.5655 91.2654 74.4059 91.3767 74.266 91.3856L71.5542 91.5575C71.4143 91.5663 71.3008 91.6873 71.3008 91.8275V93.3404C71.3008 93.4806 71.4143 93.6015 71.5542 93.6104L74.266 93.782C74.4059 93.7909 74.5655 93.902 74.6325 94.0254C74.781 94.299 74.9728 94.5663 75.2085 94.8241C75.303 94.9275 75.2925 95.0732 75.1785 95.1553L73.5657 96.3157C73.4519 96.3975 73.4579 96.5209 73.5793 96.591L75.6143 97.766C75.7357 97.8361 75.9373 97.8452 76.0645 97.7862L78.1273 96.8305C78.2545 96.7715 78.4653 96.7604 78.5992 96.8024C79.113 96.963 79.6501 97.0897 80.2007 97.1833C80.3389 97.2068 80.4726 97.3352 80.4988 97.473L80.7568 98.8323C80.7829 98.9701 80.9178 99.0819 81.058 99.0819H84.0503C84.1907 99.0819 84.3256 98.9703 84.3515 98.8326L84.6095 97.473C84.6357 97.3352 84.7693 97.2068 84.9076 97.1833C85.4581 97.0899 85.9953 96.9632 86.5091 96.8027C86.643 96.7609 86.854 96.7717 86.9812 96.8307L89.0442 97.7864C89.1714 97.8455 89.373 97.8363 89.4945 97.7663L91.5294 96.5912C91.6509 96.5211 91.6571 96.3978 91.5433 96.3159L89.9305 95.1555C89.8165 95.0737 89.806 94.928 89.9005 94.8246C90.1362 94.5668 90.328 94.2995 90.4765 94.0259C90.5435 93.9025 90.7031 93.7914 90.843 93.7825L93.555 93.6109C93.6949 93.602 93.8085 93.4811 93.8085 93.3409V91.8279C93.8085 91.6875 93.6949 91.5668 93.555 91.5579L90.843 91.3863C90.7031 91.3775 90.5435 91.2663 90.4768 91.143C90.3282 90.8694 90.1365 90.6018 89.901 90.3443C89.8065 90.2408 89.817 90.0951 89.9308 90.0131L91.5436 88.8527C91.6573 88.7708 91.6513 88.6475 91.5297 88.5774L89.4945 87.4023C89.3737 87.3311 89.1721 87.3222 89.0449 87.381ZM85.9931 90.5984C87.8917 91.6947 87.8917 93.4719 85.9931 94.5683C84.0945 95.6643 81.0157 95.6646 79.1171 94.5683C77.2185 93.4722 77.2185 91.6945 79.1171 90.5982C81.0157 89.5021 84.0942 89.5021 85.9931 90.5984Z" fill="#F68C1F"/>
<path opacity="0.55" d="M89.0449 87.381L86.9821 88.3367C86.8549 88.3957 86.6442 88.4067 86.5103 88.365C85.9965 88.2044 85.4593 88.0777 84.9088 87.9843C84.7705 87.9608 84.6369 87.8324 84.6105 87.6947L84.3525 86.3353C84.3263 86.1975 84.1914 86.0859 84.0513 86.0859H81.0589C80.9188 86.0859 80.7837 86.1978 80.7575 86.3355L80.4993 87.6949C80.4731 87.8327 80.3394 87.9611 80.2012 87.9846C79.6509 88.0779 79.1137 88.2047 78.5999 88.3652C78.466 88.4072 78.2553 88.3962 78.1278 88.3371L76.0648 87.3815C75.9376 87.3224 75.736 87.3315 75.6143 87.4016L73.5793 88.5767C73.4579 88.6467 73.4517 88.7701 73.5657 88.8519L75.1785 90.0126C75.2922 90.0944 75.303 90.2401 75.2085 90.3435C74.9728 90.6013 74.7813 90.8687 74.6325 91.1423C74.5655 91.2654 74.4059 91.3767 74.266 91.3856L71.5542 91.5575C71.4143 91.5663 71.3008 91.6873 71.3008 91.8275V93.3404C71.3008 93.4806 71.4143 93.6015 71.5542 93.6104L74.266 93.782C74.4059 93.7909 74.5655 93.902 74.6325 94.0254C74.781 94.299 74.9728 94.5663 75.2085 94.8241C75.303 94.9275 75.2925 95.0732 75.1785 95.1553L73.5657 96.3157C73.4519 96.3975 73.4579 96.5209 73.5793 96.591L75.6143 97.766C75.7357 97.8361 75.9373 97.8452 76.0645 97.7862L78.1273 96.8305C78.2545 96.7715 78.4653 96.7604 78.5992 96.8024C79.113 96.963 79.6501 97.0897 80.2007 97.1833C80.3389 97.2068 80.4726 97.3352 80.4988 97.473L80.7568 98.8323C80.7829 98.9701 80.9178 99.0819 81.058 99.0819H84.0503C84.1907 99.0819 84.3256 98.9703 84.3515 98.8326L84.6095 97.473C84.6357 97.3352 84.7693 97.2068 84.9076 97.1833C85.4581 97.0899 85.9953 96.9632 86.5091 96.8027C86.643 96.7609 86.854 96.7717 86.9812 96.8307L89.0442 97.7864C89.1714 97.8455 89.373 97.8363 89.4945 97.7663L91.5294 96.5912C91.6509 96.5211 91.6571 96.3978 91.5433 96.3159L89.9305 95.1555C89.8165 95.0737 89.806 94.928 89.9005 94.8246C90.1362 94.5668 90.328 94.2995 90.4765 94.0259C90.5435 93.9025 90.7031 93.7914 90.843 93.7825L93.555 93.6109C93.6949 93.602 93.8085 93.4811 93.8085 93.3409V91.8279C93.8085 91.6875 93.6949 91.5668 93.555 91.5579L90.843 91.3863C90.7031 91.3775 90.5435 91.2663 90.4768 91.143C90.3282 90.8694 90.1365 90.6018 89.901 90.3443C89.8065 90.2408 89.817 90.0951 89.9308 90.0131L91.5436 88.8527C91.6573 88.7708 91.6513 88.6475 91.5297 88.5774L89.4945 87.4023C89.3737 87.3311 89.1721 87.3222 89.0449 87.381ZM85.9931 90.5984C87.8917 91.6947 87.8917 93.4719 85.9931 94.5683C84.0945 95.6643 81.0157 95.6646 79.1171 94.5683C77.2185 93.4722 77.2185 91.6945 79.1171 90.5982C81.0157 89.5021 84.0942 89.5021 85.9931 90.5984Z" fill="white" stroke="white" stroke-width="0.8321" stroke-miterlimit="10"/>
<path d="M63.347 107.918L61.4359 107.718C61.1644 107.69 60.9218 107.557 60.7516 107.345C60.5819 107.132 60.5063 106.865 60.539 106.594L60.5971 106.117C60.3791 106.043 60.1684 105.963 59.969 105.876C59.9553 105.871 59.9061 105.86 59.8197 105.86L58.3605 106.317C58.2472 106.353 58.1248 106.371 57.9974 106.371C57.6851 106.371 57.3667 106.261 57.1456 106.077L56.188 105.28C55.9444 105.077 55.8191 104.78 55.8527 104.485C55.8868 104.189 56.0759 103.928 56.3594 103.786L57.2673 103.33C57.263 103.317 57.2589 103.304 57.2546 103.291L55.739 103.032C55.4587 102.984 55.2151 102.82 55.0699 102.583C54.9247 102.345 54.8906 102.053 54.9755 101.783L55.2355 100.954C55.3768 100.501 55.8249 100.172 56.3431 100.172C56.344 100.172 58.0281 100.243 58.0281 100.243C58.048 100.239 58.0893 100.219 58.1003 100.21C58.1534 100.156 58.2088 100.102 58.2655 100.049L57.8632 99.6213C57.6467 99.3909 57.5594 99.0921 57.6237 98.8007C57.6885 98.5094 57.8939 98.2746 58.1875 98.1568L59.6884 97.5558C59.8319 97.4982 59.9913 97.469 60.1615 97.469C60.4355 97.469 60.6995 97.5443 60.9059 97.6811L61.9029 98.3438C61.9233 98.3541 61.9821 98.3685 62.0277 98.3694C62.3603 98.3114 62.7062 98.2684 63.0211 98.2442L63.371 97.5635C63.5654 97.1846 63.9871 96.9297 64.4198 96.9297L64.4954 96.9318L66.4065 97.131C66.6779 97.1594 66.9211 97.2923 67.0907 97.5047C67.2609 97.7178 67.336 97.9845 67.3034 98.2555L67.2453 98.7321C67.4632 98.806 67.6739 98.8871 67.8734 98.9735C67.8871 98.9783 67.9363 98.9894 68.0227 98.9899L69.4821 98.5329C69.5954 98.4969 69.7178 98.4789 69.8452 98.4789C70.1575 98.4789 70.4755 98.5888 70.6965 98.7719L71.6546 99.5694C71.8982 99.7718 72.023 100.069 71.9894 100.364C71.9558 100.66 71.7662 100.921 71.4827 101.064L70.5748 101.52C70.5791 101.532 70.5837 101.545 70.5875 101.558L72.1036 101.818C72.383 101.865 72.6271 102.029 72.772 102.266C72.9172 102.503 72.9518 102.794 72.8673 103.066L72.6074 103.895C72.466 104.348 72.0175 104.677 71.4993 104.677C71.4988 104.677 69.8155 104.607 69.8155 104.607C69.7951 104.611 69.7531 104.631 69.7423 104.639C69.6895 104.693 69.6343 104.747 69.5767 104.8L69.9796 105.228C70.1959 105.459 70.2825 105.759 70.2184 106.049C70.1538 106.341 69.9487 106.575 69.6551 106.693L68.1542 107.293C68.0107 107.351 67.8518 107.381 67.6811 107.381C67.4066 107.381 67.1421 107.305 66.9367 107.169L65.9397 106.506C65.9193 106.496 65.8605 106.481 65.8149 106.48C65.4823 106.538 65.1364 106.581 64.8211 106.606L64.4716 107.286C64.2772 107.665 63.8555 107.92 63.4223 107.92L63.347 107.918ZM62.1309 101.355C61.5038 101.606 61.0795 101.985 61.0228 102.343C60.9746 102.647 61.2071 102.912 61.4109 103.081C61.9538 103.533 62.9171 103.814 63.9242 103.814C64.57 103.814 65.1882 103.703 65.7122 103.493C66.3393 103.242 66.7641 102.864 66.8203 102.505C66.8685 102.202 66.6359 101.937 66.4327 101.767C65.8888 101.315 64.9255 101.034 63.9179 101.034C63.2721 101.034 62.6543 101.146 62.1309 101.355Z" fill="#E0E0E0"/>
<path d="M66.8224 97.9344C66.6463 97.88 66.5195 97.6937 66.5416 97.5108L66.6278 96.7983C66.6499 96.6154 66.5193 96.4515 66.3359 96.4323L64.4601 96.2364C64.2767 96.2172 64.06 96.3346 63.9758 96.4988L63.6021 97.2267C63.5179 97.3906 63.3002 97.5296 63.1163 97.5435C62.7895 97.5682 62.4645 97.608 62.1446 97.664C61.9629 97.6956 61.6922 97.6448 61.5388 97.5428L60.5294 96.8724C60.3758 96.7704 60.1127 96.7433 59.9416 96.8117L58.4404 97.4129C58.3411 97.4528 58.2887 97.5252 58.2856 97.6049L58.2844 97.604V97.6215C58.2844 97.6222 58.2844 97.6229 58.2844 97.6236L58.2835 99.1568L58.2849 99.1563C58.2847 99.212 58.3079 99.271 58.3588 99.3252L58.4459 99.4179C58.3187 99.4961 58.1623 99.5511 58.0329 99.5458L56.3176 99.4767C56.1333 99.4692 55.9394 99.6058 55.8844 99.7817L55.6245 100.611C55.6135 100.646 55.6132 100.68 55.6142 100.714L55.6096 100.713L55.6094 102.261L55.6111 102.261C55.6156 102.394 55.7087 102.506 55.8535 102.531L57.1823 102.758L56.6647 103.018C56.5742 103.064 56.5295 103.133 56.5295 103.206L56.5279 103.205L56.5276 104.756L56.5293 104.755C56.5307 104.814 56.5603 104.875 56.6227 104.927L57.5807 105.724C57.7223 105.842 57.9799 105.893 58.1558 105.838L59.6157 105.38C59.7916 105.325 60.0679 105.347 60.2368 105.421C60.4862 105.529 60.7478 105.625 61.0192 105.709C61.0958 105.733 61.1618 105.782 61.2117 105.844L61.2115 106.89L61.2129 106.891C61.2155 107.054 61.3377 107.194 61.5057 107.211L63.3815 107.407C63.5649 107.426 63.7819 107.309 63.8659 107.145L64.2395 106.417C64.3238 106.253 64.5415 106.114 64.7253 106.1C65.0522 106.075 65.3771 106.035 65.6971 105.979C65.8787 105.948 66.1492 105.999 66.3028 106.101L67.3123 106.771C67.4659 106.873 67.7291 106.9 67.9 106.832L69.4012 106.231C69.5039 106.189 69.557 106.113 69.5565 106.03L69.5577 106.032L69.5579 104.485L69.557 104.485C69.5565 104.43 69.5332 104.371 69.4828 104.318L69.3957 104.225C69.5229 104.147 69.6794 104.092 69.8087 104.097L71.5238 104.167C71.7079 104.174 71.902 104.037 71.957 103.861L72.2169 103.032C72.227 103 72.2301 102.969 72.2301 102.938L72.2318 102.937L72.232 101.396L72.226 101.399C72.2289 101.259 72.1384 101.138 71.9879 101.112L70.6588 100.885L71.1765 100.625C71.2682 100.579 71.3128 100.508 71.3116 100.434L71.3135 100.435L71.3138 98.8944L71.3121 98.8952C71.3133 98.8342 71.2835 98.7708 71.2185 98.7166L70.2604 97.9191C70.1188 97.8012 69.8613 97.7504 69.6854 97.8053L68.2252 98.263C68.0493 98.318 67.7733 98.2959 67.6043 98.2224C67.3555 98.1144 67.0939 98.0184 66.8224 97.9344ZM60.5961 101.821C60.8483 101.458 61.2794 101.133 61.877 100.893C63.5039 100.242 65.7379 100.475 66.8666 101.414C67.0274 101.548 67.1517 101.683 67.2484 101.818C66.9967 102.182 66.5644 102.51 65.9644 102.75C64.3375 103.402 62.1035 103.168 60.9748 102.229C60.8186 102.099 60.6945 101.962 60.5961 101.821Z" fill="#F68C1F"/>
<path opacity="0.2" d="M66.8224 97.9344C66.6463 97.88 66.5195 97.6937 66.5416 97.5108L66.6278 96.7983C66.6499 96.6154 66.5193 96.4515 66.3359 96.4323L64.4601 96.2364C64.2767 96.2172 64.06 96.3346 63.9758 96.4988L63.6021 97.2267C63.5179 97.3906 63.3002 97.5296 63.1163 97.5435C62.7895 97.5682 62.4645 97.608 62.1446 97.664C61.9629 97.6956 61.6922 97.6448 61.5388 97.5428L60.5294 96.8724C60.3758 96.7704 60.1127 96.7433 59.9416 96.8117L58.4404 97.4129C58.3411 97.4528 58.2887 97.5252 58.2856 97.6049L58.2844 97.604V97.6215C58.2844 97.6222 58.2844 97.6229 58.2844 97.6236L58.2835 99.1568L58.2849 99.1563C58.2847 99.212 58.3079 99.271 58.3588 99.3252L58.4459 99.4179C58.3187 99.4961 58.1623 99.5511 58.0329 99.5458L56.3176 99.4767C56.1333 99.4692 55.9394 99.6058 55.8844 99.7817L55.6245 100.611C55.6135 100.646 55.6132 100.68 55.6142 100.714L55.6096 100.713L55.6094 102.261L55.6111 102.261C55.6156 102.394 55.7087 102.506 55.8535 102.531L57.1823 102.758L56.6647 103.018C56.5742 103.064 56.5295 103.133 56.5295 103.206L56.5279 103.205L56.5276 104.756L56.5293 104.755C56.5307 104.814 56.5603 104.875 56.6227 104.927L57.5807 105.724C57.7223 105.842 57.9799 105.893 58.1558 105.838L59.6157 105.38C59.7916 105.325 60.0679 105.347 60.2368 105.421C60.4862 105.529 60.7478 105.625 61.0192 105.709C61.0958 105.733 61.1618 105.782 61.2117 105.844L61.2115 106.89L61.2129 106.891C61.2155 107.054 61.3377 107.194 61.5057 107.211L63.3815 107.407C63.5649 107.426 63.7819 107.309 63.8659 107.145L64.2395 106.417C64.3238 106.253 64.5415 106.114 64.7253 106.1C65.0522 106.075 65.3771 106.035 65.6971 105.979C65.8787 105.948 66.1492 105.999 66.3028 106.101L67.3123 106.771C67.4659 106.873 67.7291 106.9 67.9 106.832L69.4012 106.231C69.5039 106.189 69.557 106.113 69.5565 106.03L69.5577 106.032L69.5579 104.485L69.557 104.485C69.5565 104.43 69.5332 104.371 69.4828 104.318L69.3957 104.225C69.5229 104.147 69.6794 104.092 69.8087 104.097L71.5238 104.167C71.7079 104.174 71.902 104.037 71.957 103.861L72.2169 103.032C72.227 103 72.2301 102.969 72.2301 102.938L72.2318 102.937L72.232 101.396L72.226 101.399C72.2289 101.259 72.1384 101.138 71.9879 101.112L70.6588 100.885L71.1765 100.625C71.2682 100.579 71.3128 100.508 71.3116 100.434L71.3135 100.435L71.3138 98.8944L71.3121 98.8952C71.3133 98.8342 71.2835 98.7708 71.2185 98.7166L70.2604 97.9191C70.1188 97.8012 69.8613 97.7504 69.6854 97.8053L68.2252 98.263C68.0493 98.318 67.7733 98.2959 67.6043 98.2224C67.3555 98.1144 67.0939 98.0184 66.8224 97.9344ZM60.5961 101.821C60.8483 101.458 61.2794 101.133 61.877 100.893C63.5039 100.242 65.7379 100.475 66.8666 101.414C67.0274 101.548 67.1517 101.683 67.2484 101.818C66.9967 102.182 66.5644 102.51 65.9644 102.75C64.3375 103.402 62.1035 103.168 60.9748 102.229C60.8186 102.099 60.6945 101.962 60.5961 101.821Z" fill="white"/>
<path opacity="0.1" d="M57.8848 101.65C57.8318 101.474 57.666 101.299 57.4867 101.269L55.8537 100.989C55.7143 100.964 55.6216 100.862 55.6128 100.735L55.6113 102.265C55.6164 102.398 55.7097 102.509 55.8528 102.535L57.1819 102.763L57.8692 102.417C58.0353 102.334 58.0857 102.142 58.0063 101.975C57.9564 101.867 57.9158 101.759 57.8848 101.65ZM58.2835 99.1587L58.2856 99.1599C58.2847 99.2139 58.3082 99.2729 58.3579 99.3289L58.4462 99.4225C58.5012 99.3905 58.5504 99.3521 58.588 99.3133C58.7097 99.1865 58.8475 99.0632 58.9992 98.9475C59.1436 98.834 59.1669 98.6413 59.0409 98.5078L58.3588 97.7837C58.308 97.7302 58.2844 97.6712 58.2854 97.6172L58.2835 99.1587Z" fill="#3E78B2"/>
<path opacity="0.1" d="M61.878 99.346C60.4745 99.9086 59.9796 100.944 60.5983 101.82C60.8484 101.455 61.2804 101.132 61.8771 100.891C63.5047 100.24 65.7379 100.471 66.8678 101.412C67.0267 101.546 67.1527 101.679 67.2468 101.815C67.6815 101.194 67.5809 100.46 66.8688 99.8666C65.7389 98.9265 63.5057 98.6949 61.878 99.346Z" fill="#3E78B2"/>
<path d="M64.3973 104.695C64.3306 104.747 64.2739 104.809 64.2418 104.875L63.8664 105.604C63.8131 105.707 63.707 105.791 63.5902 105.835L63.5892 107.381C63.7082 107.337 63.8122 107.252 63.8654 107.149L64.2408 106.42C64.273 106.354 64.3342 106.295 64.4009 106.243L64.3973 104.695ZM69.5587 104.49C69.5587 104.49 69.5587 104.49 69.5566 104.489C69.5597 104.572 69.5047 104.646 69.401 104.69L67.9023 105.291C67.7914 105.336 67.6421 105.338 67.5086 105.306L67.5074 106.851C67.6421 106.88 67.7902 106.881 67.901 106.836L69.4034 106.234C69.5059 106.193 69.5587 106.117 69.5578 106.035L69.5587 104.49ZM59.5982 103.842L58.1578 104.296C58.0512 104.328 57.9161 104.326 57.7949 104.289L57.793 105.83C57.9156 105.865 58.049 105.875 58.1568 105.84L59.5997 105.389L59.5982 103.842ZM72.2333 101.4C72.2316 101.429 72.2263 101.46 72.2172 101.491L71.9592 102.321C71.9028 102.497 71.7089 102.634 71.5258 102.625L69.8107 102.556C69.7274 102.554 69.6331 102.575 69.5429 102.611L69.5419 104.156C69.6322 104.12 69.7265 104.099 69.8098 104.101L71.5248 104.17C71.7091 104.177 71.903 104.04 71.9582 103.866L72.2162 103.036C72.2287 103.004 72.2318 102.972 72.2314 102.942L72.2333 101.4ZM71.317 98.8984C71.316 98.916 71.3112 98.9344 71.3045 98.9517C71.2968 98.9805 71.2788 99.0067 71.2526 99.0309C71.2327 99.0496 71.207 99.0681 71.1766 99.084L69.9725 99.689C69.9434 99.7024 69.9178 99.7209 69.9 99.7411C69.8614 99.7764 69.8342 99.8184 69.8184 99.8666C69.8054 99.9048 69.7985 99.9429 69.8007 99.9866C69.8019 100.006 69.804 100.028 69.8076 100.048C69.8153 100.077 69.8242 100.103 69.8354 100.131C69.8854 100.238 69.9274 100.344 69.9583 100.453C70.0099 100.632 70.1758 100.806 70.3574 100.838L70.6591 100.888L71.178 100.63C71.269 100.583 71.3134 100.511 71.3129 100.438L71.3151 100.44L71.317 98.8984Z" fill="#F68C1F"/>
<path opacity="0.7" d="M64.3973 104.695C64.3306 104.747 64.2739 104.809 64.2418 104.875L63.8664 105.604C63.8131 105.707 63.707 105.791 63.5902 105.835L63.5892 107.381C63.7082 107.337 63.8122 107.252 63.8654 107.149L64.2408 106.42C64.273 106.354 64.3342 106.295 64.4009 106.243L64.3973 104.695ZM69.5587 104.49C69.5587 104.49 69.5587 104.49 69.5566 104.489C69.5597 104.572 69.5047 104.646 69.401 104.69L67.9023 105.291C67.7914 105.336 67.6421 105.338 67.5086 105.306L67.5074 106.851C67.6421 106.88 67.7902 106.881 67.901 106.836L69.4034 106.234C69.5059 106.193 69.5587 106.117 69.5578 106.035L69.5587 104.49ZM59.5982 103.842L58.1578 104.296C58.0512 104.328 57.9161 104.326 57.7949 104.289L57.793 105.83C57.9156 105.865 58.049 105.875 58.1568 105.84L59.5997 105.389L59.5982 103.842ZM72.2333 101.4C72.2316 101.429 72.2263 101.46 72.2172 101.491L71.9592 102.321C71.9028 102.497 71.7089 102.634 71.5258 102.625L69.8107 102.556C69.7274 102.554 69.6331 102.575 69.5429 102.611L69.5419 104.156C69.6322 104.12 69.7265 104.099 69.8098 104.101L71.5248 104.17C71.7091 104.177 71.903 104.04 71.9582 103.866L72.2162 103.036C72.2287 103.004 72.2318 102.972 72.2314 102.942L72.2333 101.4ZM71.317 98.8984C71.316 98.916 71.3112 98.9344 71.3045 98.9517C71.2968 98.9805 71.2788 99.0067 71.2526 99.0309C71.2327 99.0496 71.207 99.0681 71.1766 99.084L69.9725 99.689C69.9434 99.7024 69.9178 99.7209 69.9 99.7411C69.8614 99.7764 69.8342 99.8184 69.8184 99.8666C69.8054 99.9048 69.7985 99.9429 69.8007 99.9866C69.8019 100.006 69.804 100.028 69.8076 100.048C69.8153 100.077 69.8242 100.103 69.8354 100.131C69.8854 100.238 69.9274 100.344 69.9583 100.453C70.0099 100.632 70.1758 100.806 70.3574 100.838L70.6591 100.888L71.178 100.63C71.269 100.583 71.3134 100.511 71.3129 100.438L71.3151 100.44L71.317 98.8984Z" fill="white"/>
<path d="M69.6859 97.8055L68.2257 98.2632C68.0498 98.3182 67.7738 98.2961 67.6049 98.2227C67.3555 98.1144 67.0939 98.0182 66.8225 97.9344C66.6463 97.88 66.5196 97.6937 66.5417 97.5108L66.6278 96.7983C66.6499 96.6154 66.5193 96.4515 66.336 96.4323L64.4601 96.2364C64.2768 96.2172 64.0601 96.3348 63.9758 96.4987L63.6021 97.2267C63.5179 97.3906 63.3002 97.5295 63.1164 97.5435C62.7895 97.5682 62.4645 97.608 62.1446 97.6639C61.9629 97.6956 61.6922 97.6447 61.5389 97.5427L60.5294 96.8724C60.3758 96.7704 60.1125 96.7433 59.9414 96.812L58.4402 97.4131C58.2691 97.4818 58.2329 97.6462 58.3589 97.7803L59.04 98.5047C59.1662 98.6391 59.1434 98.8303 58.9982 98.9436C58.8473 99.0612 58.7105 99.1836 58.5876 99.3096C58.4589 99.4416 58.217 99.5532 58.0327 99.5458L56.3174 99.4767C56.1331 99.4692 55.9392 99.6058 55.8842 99.7817L55.6243 100.611C55.5691 100.787 55.6718 100.955 55.8535 100.986L57.485 101.265C57.6667 101.296 57.8313 101.47 57.8834 101.647C57.9153 101.756 57.9564 101.864 58.0065 101.971C58.0843 102.139 58.0337 102.331 57.8688 102.414L56.6647 103.018C56.5001 103.101 56.4813 103.264 56.6229 103.382L57.581 104.179C57.7226 104.297 57.9801 104.348 58.1561 104.293L59.6162 103.835C59.7921 103.78 60.0684 103.802 60.2373 103.876C60.4867 103.984 60.7483 104.08 61.0197 104.164C61.1959 104.219 61.3226 104.405 61.3005 104.588L61.2144 105.301C61.1923 105.484 61.3229 105.647 61.5062 105.667L63.3821 105.862C63.5654 105.882 63.7821 105.764 63.8664 105.6L64.2401 104.872C64.3241 104.708 64.542 104.569 64.7258 104.555C65.0527 104.531 65.3777 104.491 65.6976 104.435C65.8793 104.403 66.1497 104.454 66.3033 104.556L67.3128 105.227C67.4664 105.329 67.7294 105.356 67.9005 105.287L69.4017 104.686C69.5729 104.617 69.6093 104.453 69.4829 104.319L68.8017 103.594C68.6755 103.46 68.6983 103.269 68.8435 103.155C68.9942 103.038 69.1313 102.915 69.2541 102.789C69.3828 102.657 69.6247 102.546 69.809 102.553L71.5241 102.622C71.7081 102.63 71.9023 102.493 71.9573 102.317L72.2172 101.488C72.2724 101.312 72.1697 101.144 71.988 101.113L70.3565 100.834C70.1748 100.803 70.0101 100.628 69.9581 100.452C69.9261 100.343 69.8851 100.235 69.8352 100.127C69.7574 99.9603 69.8081 99.7678 69.9727 99.685L71.177 99.0807C71.3419 98.9981 71.3604 98.8354 71.2188 98.7176L70.2607 97.92C70.1193 97.8012 69.8618 97.7503 69.6859 97.8055ZM66.8669 99.8691C67.9956 100.808 67.5914 102.098 65.9645 102.75C64.3375 103.401 62.1036 103.168 60.9749 102.229C59.8461 101.289 60.2503 99.9994 61.8773 99.3478C63.5045 98.6962 65.7384 98.9295 66.8669 99.8691Z" fill="#F68C1F"/>
<path opacity="0.55" d="M69.6859 97.8055L68.2257 98.2632C68.0498 98.3182 67.7738 98.2961 67.6049 98.2227C67.3555 98.1144 67.0939 98.0182 66.8225 97.9344C66.6463 97.88 66.5196 97.6937 66.5417 97.5108L66.6278 96.7983C66.6499 96.6154 66.5193 96.4515 66.336 96.4323L64.4601 96.2364C64.2768 96.2172 64.0601 96.3348 63.9758 96.4987L63.6021 97.2267C63.5179 97.3906 63.3002 97.5295 63.1164 97.5435C62.7895 97.5682 62.4645 97.608 62.1446 97.6639C61.9629 97.6956 61.6922 97.6447 61.5389 97.5427L60.5294 96.8724C60.3758 96.7704 60.1125 96.7433 59.9414 96.812L58.4402 97.4131C58.2691 97.4818 58.2329 97.6462 58.3589 97.7803L59.04 98.5047C59.1662 98.6391 59.1434 98.8303 58.9982 98.9436C58.8473 99.0612 58.7105 99.1836 58.5876 99.3096C58.4589 99.4416 58.217 99.5532 58.0327 99.5458L56.3174 99.4767C56.1331 99.4692 55.9392 99.6058 55.8842 99.7817L55.6243 100.611C55.5691 100.787 55.6718 100.955 55.8535 100.986L57.485 101.265C57.6667 101.296 57.8313 101.47 57.8834 101.647C57.9153 101.756 57.9564 101.864 58.0065 101.971C58.0843 102.139 58.0337 102.331 57.8688 102.414L56.6647 103.018C56.5001 103.101 56.4813 103.264 56.6229 103.382L57.581 104.179C57.7226 104.297 57.9801 104.348 58.1561 104.293L59.6162 103.835C59.7921 103.78 60.0684 103.802 60.2373 103.876C60.4867 103.984 60.7483 104.08 61.0197 104.164C61.1959 104.219 61.3226 104.405 61.3005 104.588L61.2144 105.301C61.1923 105.484 61.3229 105.647 61.5062 105.667L63.3821 105.862C63.5654 105.882 63.7821 105.764 63.8664 105.6L64.2401 104.872C64.3241 104.708 64.542 104.569 64.7258 104.555C65.0527 104.531 65.3777 104.491 65.6976 104.435C65.8793 104.403 66.1497 104.454 66.3033 104.556L67.3128 105.227C67.4664 105.329 67.7294 105.356 67.9005 105.287L69.4017 104.686C69.5729 104.617 69.6093 104.453 69.4829 104.319L68.8017 103.594C68.6755 103.46 68.6983 103.269 68.8435 103.155C68.9942 103.038 69.1313 102.915 69.2541 102.789C69.3828 102.657 69.6247 102.546 69.809 102.553L71.5241 102.622C71.7081 102.63 71.9023 102.493 71.9573 102.317L72.2172 101.488C72.2724 101.312 72.1697 101.144 71.988 101.113L70.3565 100.834C70.1748 100.803 70.0101 100.628 69.9581 100.452C69.9261 100.343 69.8851 100.235 69.8352 100.127C69.7574 99.9603 69.8081 99.7678 69.9727 99.685L71.177 99.0807C71.3419 98.9981 71.3604 98.8354 71.2188 98.7176L70.2607 97.92C70.1193 97.8012 69.8618 97.7503 69.6859 97.8055ZM66.8669 99.8691C67.9956 100.808 67.5914 102.098 65.9645 102.75C64.3375 103.401 62.1036 103.168 60.9749 102.229C59.8461 101.289 60.2503 99.9994 61.8773 99.3478C63.5045 98.6962 65.7384 98.9295 66.8669 99.8691Z" fill="white" stroke="white" stroke-width="1.0936" stroke-miterlimit="10"/>
<path d="M84.8008 11.7266L84.7891 22.761C84.7867 22.8762 85.0857 22.882 85.09 22.7632L85.1018 11.7578L84.8008 11.7266Z" fill="#455A64"/>
<path d="M85.1507 11.7843C85.1272 11.8937 85.0197 11.9633 84.9102 11.9398C84.8008 11.9165 84.7312 11.8087 84.7545 11.6993C84.778 11.5899 84.8855 11.5203 84.995 11.5435C85.1044 11.5671 85.174 11.6748 85.1507 11.7843Z" fill="#3E78B2"/>
<path d="M84.8001 11.8672C83.873 12.9726 82.5585 12.4792 81.4742 12.4144C80.2994 12.3441 79.5844 12.7233 79.2285 13.2388C79.5676 13.1485 80.5195 13.2342 80.8195 13.4829C80.8195 13.4829 79.6224 14.2653 79.6209 15.5471C79.9692 15.004 80.5752 14.595 81.7478 14.836C82.7776 15.0477 84.0816 15.5214 84.7968 14.7285L84.8001 11.8672Z" fill="#F68C1F"/>
<path opacity="0.1" d="M83.656 14.7309C82.7094 15.0179 80.1297 13.7598 79.6211 15.5473C79.9693 15.0042 80.5753 14.5953 81.748 14.8362C82.7778 15.0479 84.0817 15.5217 84.7969 14.7287L84.8003 11.8672C84.7962 12.9935 84.6025 14.4438 83.656 14.7309Z" fill="#3E78B2"/>
<path d="M82.8809 12.9536L83.0436 13.4485L83.5599 13.5181C83.5908 13.5222 83.6009 13.562 83.5757 13.5805L83.1552 13.8882L83.2486 14.4008C83.2541 14.4315 83.2196 14.4536 83.1941 14.4351L82.7717 14.1303L82.3131 14.3775C82.2855 14.3924 82.2538 14.366 82.2634 14.3363L82.4228 13.8402L82.046 13.4804C82.0234 13.4588 82.0385 13.4207 82.0697 13.4204L82.5908 13.4187L82.8166 12.9493C82.83 12.9212 82.8711 12.9239 82.8809 12.9536Z" fill="white"/>
<path d="M74.7344 20.7188L74.7188 35.2589C74.7156 35.4106 75.1097 35.418 75.1155 35.2618L75.1311 20.7595L74.7344 20.7188Z" fill="#3E78B2"/>
<path d="M75.1939 20.7915C75.163 20.9357 75.0211 21.0274 74.8771 20.9967C74.7329 20.9657 74.6412 20.8239 74.6719 20.6799C74.7029 20.5356 74.8447 20.444 74.9887 20.4747C75.133 20.5056 75.2249 20.6475 75.1939 20.7915Z" fill="#3E78B2"/>
<path d="M74.7325 20.9062C73.5109 22.363 71.7785 21.7126 70.3498 21.6272C68.8016 21.5346 67.8598 22.0342 67.3906 22.7134C67.8373 22.5946 69.0917 22.7075 69.487 23.0351C69.487 23.0351 67.9095 24.0661 67.9078 25.7552C68.3667 25.0398 69.1652 24.5007 70.7105 24.8183C72.0677 25.0971 73.7859 25.7214 74.7281 24.6766L74.7325 20.9062Z" fill="#F68C1F"/>
<path opacity="0.1" d="M73.2249 24.6795C71.9776 25.0578 68.5783 23.3999 67.9082 25.7555C68.3671 25.04 69.1656 24.501 70.7109 24.8185C72.0681 25.0974 73.7863 25.7216 74.7285 24.6769L74.7331 20.9062C74.7276 22.3902 74.472 24.3013 73.2249 24.6795Z" fill="#3E78B2"/>
<path d="M61.1618 29.7109L61.1426 47.757C61.1385 47.9452 61.6279 47.9545 61.6351 47.7606L61.6543 29.7618L61.1618 29.7109Z" fill="#3E78B2"/>
<path d="M61.7335 29.8067C61.6951 29.9855 61.5192 30.0995 61.3401 30.0614C61.1613 30.023 61.0473 29.8471 61.0855 29.6683C61.1239 29.4895 61.2998 29.3754 61.4788 29.4136C61.6579 29.4518 61.7719 29.6277 61.7335 29.8067Z" fill="#3E78B2"/>
<path d="M61.1592 29.9453C59.6429 31.7532 57.493 30.9464 55.7196 30.8403C53.7982 30.7253 52.6291 31.3455 52.0469 32.1884C52.6013 32.0408 54.1582 32.1809 54.6487 32.5877C54.6487 32.5877 52.691 33.8674 52.6886 35.9638C53.2582 35.0758 54.2491 34.4067 56.167 34.801C57.8513 35.1471 59.9837 35.922 61.1532 34.6253L61.1592 29.9453Z" fill="#F68C1F"/>
<path opacity="0.1" d="M59.288 34.6282C57.74 35.0976 53.5208 33.0401 52.6895 35.9636C53.259 35.0756 54.2499 34.4064 56.1678 34.8008C57.8521 35.1468 59.9845 35.9218 61.154 34.6251L61.1598 29.9453C61.1531 31.7871 60.8358 34.1588 59.288 34.6282Z" fill="#3E78B2"/>
<path d="M46.9781 38.9375L46.9551 60.4895C46.9503 60.7144 47.5345 60.7254 47.5431 60.4938L47.5661 38.9982L46.9781 38.9375Z" fill="#3E78B2"/>
<path d="M47.6596 39.0488C47.6137 39.2624 47.4035 39.3985 47.1899 39.3529C46.9763 39.3073 46.84 39.0968 46.8858 38.8832C46.9317 38.6696 47.1419 38.5335 47.3555 38.5791C47.5693 38.6247 47.7054 38.8352 47.6596 39.0488Z" fill="#3E78B2"/>
<path d="M46.9746 39.2188C45.1638 41.378 42.5963 40.4142 40.4783 40.2875C38.1836 40.1502 36.7876 40.8908 36.0918 41.8976C36.754 41.7215 38.613 41.8888 39.1991 42.3745C39.1991 42.3745 36.861 43.9028 36.8584 46.4065C37.5388 45.346 38.7222 44.547 41.0125 45.0176C43.0242 45.4311 45.5708 46.3564 46.9676 44.8079L46.9746 39.2188Z" fill="#F68C1F"/>
<path opacity="0.1" d="M44.74 44.8115C42.8913 45.3721 37.8525 42.9147 36.8594 46.4063C37.5398 45.3457 38.7232 44.5467 41.0135 45.0174C43.0252 45.4309 45.5719 46.3561 46.9687 44.8076L46.9754 39.2188C46.9675 41.4183 46.5887 44.2508 44.74 44.8115Z" fill="#3E78B2"/>
<path d="M91.8374 8.20607L91.5943 7.69895L92.6575 7.08575C92.7835 7.01303 92.9171 6.95639 93.0585 6.91823C93.1072 6.90527 93.1569 6.89471 93.2073 6.88583C93.4411 6.84527 93.6916 6.85079 93.9556 6.90623C94.0442 6.92471 94.1344 6.94871 94.2254 6.97895C94.3168 7.00847 94.41 7.04399 94.5043 7.08599C94.6219 7.13759 94.7414 7.19855 94.8624 7.26935C94.9886 7.34327 95.1129 7.42463 95.2356 7.51439C95.3277 7.58183 95.4189 7.65335 95.5087 7.72967C96.8284 8.84351 97.8669 10.8293 98.1304 12.7392C98.1487 12.8695 98.1628 12.9989 98.1731 13.1278C98.1887 13.3123 98.1964 13.4957 98.1957 13.6766C98.195 13.8247 98.1895 13.9682 98.1782 14.1067C98.1686 14.2267 98.1549 14.3426 98.1376 14.4547C98.1204 14.5663 98.0995 14.6741 98.075 14.778V14.7785C98.0025 15.0883 97.8979 15.3624 97.7663 15.5976C97.7378 15.6482 97.7083 15.6977 97.6775 15.7447C97.5427 15.9506 97.3845 16.1215 97.2064 16.2538C97.1505 16.2955 97.0927 16.333 97.0329 16.3673L96.028 16.9476L95.8056 16.4834C95.7465 16.4702 95.687 16.4551 95.6268 16.4369C95.4009 16.3692 95.1669 16.2665 94.9272 16.1268C94.788 16.0454 94.6509 15.9545 94.5163 15.8539C94.3435 15.725 94.1748 15.5813 94.0118 15.4238C92.9102 14.3638 92.0424 12.7051 91.7248 11.0542C91.6773 10.8089 91.6425 10.5638 91.6207 10.3212C91.6024 10.1189 91.5931 9.91775 91.5938 9.71951C91.5947 9.41375 91.619 9.12839 91.6641 8.86583C91.7051 8.62655 91.7635 8.40647 91.8374 8.20607Z" fill="#F68C1F"/>
<path opacity="0.25" d="M97.8883 11.6111L95.7314 12.8567L95.4473 12.0361L97.6063 10.7891C97.7138 11.0586 97.8084 11.3336 97.8883 11.6111Z" fill="white"/>
<path opacity="0.25" d="M92.6572 7.08575C92.7832 7.01303 92.9169 6.95639 93.0582 6.91823C93.1069 6.90527 93.1566 6.89471 93.207 6.88583C93.4408 6.84527 93.6913 6.85079 93.9553 6.90623C93.988 6.91295 94.0211 6.92135 94.0542 6.92975L91.835 8.21135C91.8357 8.20943 91.8362 8.20751 91.8369 8.20583L91.5938 7.69871L92.6572 7.08575Z" fill="white"/>
<path opacity="0.25" d="M92.8877 10.2349L92.6035 9.89317L95.838 8.03125C95.9407 8.13301 96.0413 8.24005 96.1397 8.35165L92.8877 10.2349Z" fill="white"/>
<path opacity="0.25" d="M96.8272 9.26559L94.0254 10.8837L93.7168 10.077L96.3258 8.57031C96.5025 8.78799 96.67 9.02079 96.8272 9.26559Z" fill="white"/>
<path opacity="0.4" d="M92.6572 7.08575C92.7832 7.01303 92.9169 6.95639 93.0583 6.91823C93.107 6.90527 93.1567 6.89471 93.2071 6.88583C93.4408 6.84527 93.6914 6.85079 93.9554 6.90623C94.0439 6.92471 94.1342 6.94871 94.2251 6.97895C94.3166 7.00847 94.4097 7.04399 94.504 7.08599C94.6216 7.13759 94.7412 7.19855 94.8621 7.26935C94.9884 7.34327 95.1127 7.42463 95.2353 7.51439C95.3275 7.58183 95.4187 7.65335 95.5084 7.72967C96.7377 8.76719 97.7227 10.5612 98.0649 12.3454L93.5647 14.9441C92.6786 13.8984 91.9979 12.4738 91.7248 11.0537C91.6773 10.8084 91.6425 10.5634 91.6207 10.3207C91.6024 10.1184 91.5931 9.91727 91.5938 9.71903C91.5947 9.41327 91.619 9.12791 91.6641 8.86535C91.7047 8.62655 91.763 8.40647 91.8369 8.20583L91.5938 7.69871L92.6572 7.08575Z" fill="white"/>
<path opacity="0.1" d="M96.0278 16.9455L95.8053 16.4813C95.7463 16.4681 95.6868 16.453 95.6265 16.4348C95.4007 16.3671 95.1667 16.2644 94.9269 16.1247C94.7877 16.0433 94.6507 15.9524 94.5161 15.8518C94.3433 15.7229 94.1745 15.5792 94.0116 15.4217C93.8575 15.2734 93.7087 15.1126 93.5645 14.9425L98.0647 12.3438C98.0899 12.475 98.112 12.6063 98.13 12.7373C98.1482 12.8677 98.1624 12.997 98.1727 13.1259C98.1883 13.3105 98.196 13.4938 98.1952 13.6748C98.1945 13.8229 98.189 13.9664 98.1777 14.1049C98.1681 14.2249 98.1544 14.3408 98.1372 14.4529C98.1199 14.5645 98.099 14.6722 98.0745 14.7761V14.7766C98.0021 15.0865 97.8974 15.3606 97.7659 15.5958C97.7373 15.6464 97.7078 15.6958 97.6771 15.7429C97.5422 15.9488 97.384 16.1197 97.206 16.2519C97.15 16.2937 97.0922 16.3311 97.0324 16.3654L96.0278 16.9455Z" fill="#3E78B2"/>
<path opacity="0.1" d="M97.767 15.5976C97.7384 15.6482 97.7089 15.6977 97.6782 15.7447C97.5433 15.9506 97.3852 16.1215 97.2071 16.2538C97.1512 16.2955 97.0933 16.333 97.0336 16.3673L96.0287 16.9476L95.8062 16.4834C95.8033 16.4827 95.8002 16.482 95.7973 16.4813L95.7812 16.291L98.0164 15C97.9499 15.2206 97.8664 15.4202 97.767 15.5976Z" fill="#3E78B2"/>
<path d="M90.4571 10.3752C90.4563 10.5732 90.4657 10.7745 90.4839 10.9768C90.5058 11.2192 90.5406 11.4645 90.5881 11.7098C90.9056 13.3608 91.7732 15.0194 92.8751 16.0795C93.0383 16.2369 93.207 16.3807 93.3796 16.5096C93.5142 16.6104 93.651 16.7013 93.7904 16.7824C94.0302 16.9221 94.2642 17.0251 94.49 17.0925C94.7502 17.1708 94.9993 17.2022 95.2333 17.1892C95.5801 17.1715 95.8943 17.0568 96.1633 16.8556C96.3414 16.7232 96.4995 16.5525 96.6344 16.3466C96.6651 16.2993 96.6947 16.2501 96.7232 16.1995C96.8547 15.9643 96.9594 15.6904 97.0319 15.3804V15.3799C97.0563 15.276 97.0772 15.1682 97.0945 15.0566C97.1118 14.9445 97.1255 14.8286 97.1351 14.7086C97.1463 14.5701 97.1519 14.4266 97.1526 14.2785C97.1533 14.0976 97.1456 13.9142 97.13 13.7296C97.1197 13.6008 97.1056 13.4714 97.0873 13.3411C96.8238 11.4314 95.7853 9.44563 94.4655 8.33155C94.3758 8.25523 94.2846 8.18371 94.1924 8.11627C94.0698 8.02651 93.9455 7.94491 93.8192 7.87099C93.6983 7.80019 93.579 7.73923 93.4611 7.68763C93.3671 7.64563 93.2739 7.60987 93.1823 7.58059C93.0911 7.55059 93.0008 7.52635 92.9123 7.50787C92.6483 7.45219 92.3977 7.44691 92.1639 7.48747C92.1135 7.49635 92.0639 7.50715 92.0152 7.51987C91.8023 7.57747 91.6059 7.67443 91.4293 7.80979C91.1622 8.01403 90.9402 8.30467 90.7765 8.67283C90.6659 8.92147 90.5812 9.20467 90.5276 9.52051C90.4823 9.78427 90.458 10.0694 90.4571 10.3752Z" fill="#F68C1F"/>
<path opacity="0.1" d="M90.4571 10.3752C90.4563 10.5732 90.4657 10.7745 90.4839 10.9768C90.5058 11.2192 90.5406 11.4645 90.5881 11.7098C90.9056 13.3608 91.7732 15.0194 92.8751 16.0795C93.0383 16.2369 93.207 16.3807 93.3796 16.5096C93.5142 16.6104 93.651 16.7013 93.7904 16.7824C94.0302 16.9221 94.2642 17.0251 94.49 17.0925C94.7502 17.1708 94.9993 17.2022 95.2333 17.1892C95.5801 17.1715 95.8943 17.0568 96.1633 16.8556C96.3414 16.7232 96.4995 16.5525 96.6344 16.3466C96.6651 16.2993 96.6947 16.2501 96.7232 16.1995C96.8547 15.9643 96.9594 15.6904 97.0319 15.3804V15.3799C97.0563 15.276 97.0772 15.1682 97.0945 15.0566C97.1118 14.9445 97.1255 14.8286 97.1351 14.7086C97.1463 14.5701 97.1519 14.4266 97.1526 14.2785C97.1533 14.0976 97.1456 13.9142 97.13 13.7296C97.1197 13.6008 97.1056 13.4714 97.0873 13.3411C96.8238 11.4314 95.7853 9.44563 94.4655 8.33155C94.3758 8.25523 94.2846 8.18371 94.1924 8.11627C94.0698 8.02651 93.9455 7.94491 93.8192 7.87099C93.6983 7.80019 93.579 7.73923 93.4611 7.68763C93.3671 7.64563 93.2739 7.60987 93.1823 7.58059C93.0911 7.55059 93.0008 7.52635 92.9123 7.50787C92.6483 7.45219 92.3977 7.44691 92.1639 7.48747C92.1135 7.49635 92.0639 7.50715 92.0152 7.51987C91.8023 7.57747 91.6059 7.67443 91.4293 7.80979C91.1622 8.01403 90.9402 8.30467 90.7765 8.67283C90.6659 8.92147 90.5812 9.20467 90.5276 9.52051C90.4823 9.78427 90.458 10.0694 90.4571 10.3752Z" fill="white"/>
<path opacity="0.05" d="M97.0222 12.9453C97.0476 13.0776 97.0697 13.2098 97.0879 13.3416C97.1062 13.4719 97.1203 13.6012 97.1307 13.7301C97.1463 13.9147 97.1539 14.098 97.1532 14.279C97.1525 14.4271 97.147 14.5706 97.1357 14.7091C97.1261 14.8291 97.1124 14.945 97.0951 15.0571C97.0779 15.1687 97.057 15.2764 97.0325 15.3804V15.3808C96.96 15.6907 96.8554 15.9648 96.7239 16.2C96.6953 16.2506 96.6658 16.3 96.6351 16.3471C96.5002 16.553 96.342 16.7239 96.1639 16.8561C95.8951 17.0572 95.5807 17.172 95.2339 17.1897C94.9999 17.2027 94.7508 17.1712 94.4907 17.093C94.2648 17.0253 94.0308 16.9226 93.7911 16.7829C93.6672 16.7107 93.5458 16.6296 93.4258 16.542L97.0222 12.9453Z" fill="#3E78B2"/>
<path opacity="0.05" d="M96.9687 15.6094C96.9027 15.8261 96.8202 16.0227 96.7222 16.1974C96.6937 16.248 96.6642 16.2975 96.6334 16.3445C96.4986 16.5504 96.3404 16.7213 96.1623 16.8535C95.9403 17.0196 95.6869 17.1257 95.4102 17.1679L96.9687 15.6094Z" fill="#3E78B2"/>
<path opacity="0.15" d="M96.5633 11.3906C96.6704 11.6599 96.7644 11.9347 96.8444 12.2117L92.9278 16.1285C92.91 16.1119 92.8921 16.0956 92.8745 16.0785C92.7087 15.9189 92.5489 15.7442 92.3945 15.5594L96.5633 11.3906Z" fill="white"/>
<path opacity="0.15" d="M95.2829 9.17188C95.4593 9.38979 95.6268 9.62283 95.784 9.86739L91.4729 14.1785C91.3325 13.9157 91.2046 13.6433 91.0898 13.3652L95.2829 9.17188Z" fill="white"/>
<path opacity="0.15" d="M94.7946 8.63281C94.8983 8.73529 94.9999 8.84305 95.0987 8.95561L90.977 13.0774C90.9194 12.9231 90.8651 12.7678 90.8164 12.6108L94.7946 8.63281Z" fill="white"/>
<path opacity="0.15" d="M90.4668 10.076C90.4711 9.99635 90.4776 9.91835 90.485 9.84179C90.4877 9.81635 90.4901 9.79068 90.493 9.76548C90.4958 9.73932 90.4992 9.71363 90.5026 9.68795C90.51 9.63131 90.5182 9.57516 90.5275 9.52044C90.5813 9.20436 90.6658 8.92139 90.7764 8.67275C90.9401 8.30435 91.1621 8.01395 91.4292 7.80971C91.6058 7.67435 91.8022 7.57715 92.015 7.51979C92.0638 7.50683 92.1134 7.49627 92.1638 7.48739C92.3976 7.44683 92.6482 7.45235 92.9122 7.50779C92.945 7.51451 92.9784 7.52315 93.0115 7.53155L90.4668 10.076Z" fill="white"/>
<path d="M91.3105 10.8886C91.3105 12.6507 92.338 14.6852 93.6378 15.5504C93.693 15.5871 93.7492 15.6221 93.8053 15.6545C95.1832 16.4499 96.2997 15.6058 96.2997 13.7689C96.2997 11.9319 95.1832 9.79782 93.8053 9.00246C93.7492 8.97006 93.693 8.9403 93.6378 8.91342C92.3377 8.27742 91.3105 9.1263 91.3105 10.8886Z" fill="#F68C1F"/>
<path opacity="0.4" d="M91.3105 10.8886C91.3105 12.6507 92.338 14.6852 93.6378 15.5504C93.693 15.5871 93.7492 15.6221 93.8053 15.6545C95.1832 16.4499 96.2997 15.6058 96.2997 13.7689C96.2997 11.9319 95.1832 9.79782 93.8053 9.00246C93.7492 8.97006 93.693 8.9403 93.6378 8.91342C92.3377 8.27742 91.3105 9.1263 91.3105 10.8886Z" fill="#3E78B2"/>
<path d="M91.4219 10.9551C91.4219 11.0118 91.4228 11.0689 91.4255 11.1265C91.4884 12.7688 92.4452 14.6103 93.6457 15.4095C93.6568 15.4167 93.6673 15.4237 93.6781 15.4309C93.7201 15.4582 93.7626 15.4846 93.8053 15.5094C94.0669 15.6603 94.3189 15.7498 94.5544 15.7818C95.1136 15.8581 95.5811 15.613 95.8712 15.1112C96.0409 14.8167 96.1501 14.4337 96.1799 13.9748C96.1859 13.8884 96.1888 13.7996 96.1888 13.7077C96.1888 13.6232 96.1864 13.5387 96.1816 13.4533C96.1717 13.2742 96.1511 13.093 96.1208 12.9116C95.9106 11.6427 95.2333 10.3484 94.3727 9.57129C94.2496 9.45993 94.1226 9.35937 93.9928 9.27105C93.9311 9.22881 93.8684 9.18945 93.8053 9.15321C93.7516 9.12225 93.6978 9.09393 93.6455 9.06801C93.6306 9.06081 93.6157 9.05337 93.6008 9.04713C93.2437 8.88129 92.9096 8.83329 92.6152 8.88993C92.1133 8.98641 91.7267 9.38649 91.5416 10.0256C91.4639 10.2946 91.4219 10.6064 91.4219 10.9551Z" fill="#F68C1F"/>
<path opacity="0.5" d="M91.4219 10.9551C91.4219 11.0118 91.4228 11.0689 91.4255 11.1265C91.4884 12.7688 92.4452 14.6103 93.6457 15.4095C93.6568 15.4167 93.6673 15.4237 93.6781 15.4309C93.7201 15.4582 93.7626 15.4846 93.8053 15.5094C94.0669 15.6603 94.3189 15.7498 94.5544 15.7818C95.1136 15.8581 95.5811 15.613 95.8712 15.1112C96.0409 14.8167 96.1501 14.4337 96.1799 13.9748C96.1859 13.8884 96.1888 13.7996 96.1888 13.7077C96.1888 13.6232 96.1864 13.5387 96.1816 13.4533C96.1717 13.2742 96.1511 13.093 96.1208 12.9116C95.9106 11.6427 95.2333 10.3484 94.3727 9.57129C94.2496 9.45993 94.1226 9.35937 93.9928 9.27105C93.9311 9.22881 93.8684 9.18945 93.8053 9.15321C93.7516 9.12225 93.6978 9.09393 93.6455 9.06801C93.6306 9.06081 93.6157 9.05337 93.6008 9.04713C93.2437 8.88129 92.9096 8.83329 92.6152 8.88993C92.1133 8.98641 91.7267 9.38649 91.5416 10.0256C91.4639 10.2946 91.4219 10.6064 91.4219 10.9551Z" fill="#3E78B2"/>
<path d="M91.82 10.8967C91.8174 10.8391 91.8164 10.7817 91.8164 10.7253C91.8164 10.3766 91.8586 10.0649 91.9364 9.79559C92.0444 9.42287 92.2213 9.13199 92.4495 8.93471C92.503 8.91623 92.558 8.90087 92.6144 8.89007C92.9089 8.83319 93.243 8.88119 93.6001 9.04727C93.615 9.05375 93.6298 9.06095 93.6447 9.06815C93.697 9.09407 93.7508 9.12239 93.8046 9.15335C93.8675 9.18983 93.9301 9.22895 93.992 9.27119C94.1218 9.35951 94.2488 9.46031 94.3719 9.57143C95.2326 10.3485 95.9098 11.6429 96.1201 12.9117C96.1503 13.0932 96.1707 13.2744 96.1808 13.4534C96.1859 13.5389 96.188 13.6233 96.188 13.7078C96.188 13.7997 96.1851 13.8888 96.1791 13.9749C96.1494 14.4338 96.0402 14.8169 95.8705 15.1113C95.7817 15.2649 95.6763 15.3941 95.5568 15.4975C95.3715 15.5618 95.1675 15.5817 94.9491 15.552C94.7137 15.5201 94.4617 15.4305 94.2001 15.2796C94.1574 15.2549 94.1149 15.2287 94.0729 15.2011C94.0618 15.1939 94.0513 15.1869 94.0405 15.1797C92.84 14.3803 91.8831 12.539 91.82 10.8967Z" fill="#F68C1F"/>
<path opacity="0.25" d="M91.82 10.8967C91.8174 10.8391 91.8164 10.7817 91.8164 10.7253C91.8164 10.3766 91.8586 10.0649 91.9364 9.79559C92.0444 9.42287 92.2213 9.13199 92.4495 8.93471C92.503 8.91623 92.558 8.90087 92.6144 8.89007C92.9089 8.83319 93.243 8.88119 93.6001 9.04727C93.615 9.05375 93.6298 9.06095 93.6447 9.06815C93.697 9.09407 93.7508 9.12239 93.8046 9.15335C93.8675 9.18983 93.9301 9.22895 93.992 9.27119C94.1218 9.35951 94.2488 9.46031 94.3719 9.57143C95.2326 10.3485 95.9098 11.6429 96.1201 12.9117C96.1503 13.0932 96.1707 13.2744 96.1808 13.4534C96.1859 13.5389 96.188 13.6233 96.188 13.7078C96.188 13.7997 96.1851 13.8888 96.1791 13.9749C96.1494 14.4338 96.0402 14.8169 95.8705 15.1113C95.7817 15.2649 95.6763 15.3941 95.5568 15.4975C95.3715 15.5618 95.1675 15.5817 94.9491 15.552C94.7137 15.5201 94.4617 15.4305 94.2001 15.2796C94.1574 15.2549 94.1149 15.2287 94.0729 15.2011C94.0618 15.1939 94.0513 15.1869 94.0405 15.1797C92.84 14.3803 91.8831 12.539 91.82 10.8967Z" fill="#3E78B2"/>
<path d="M92.1641 7.49189C93.6048 7.32917 94.7762 8.52245 95.5586 9.59525C96.6883 11.2599 97.4037 13.3685 97.0133 15.3843L97.0137 15.38C96.8863 15.9404 96.63 16.5029 96.1634 16.8596C96.6401 16.5101 96.9165 15.9483 97.0509 15.3838L97.0507 15.3874C97.4105 13.7374 96.9581 12.0036 96.203 10.5274C95.3945 9.06653 94.0236 7.29317 92.1641 7.49189Z" fill="#F5F5F5"/>
<path d="M95.5871 13.7245C95.5633 13.084 95.2297 12.6354 94.8366 12.2641L95.0252 12.3129L95.57 11.9982C95.5455 11.8758 95.5115 11.7594 95.4721 11.6497C95.3991 11.451 95.3015 11.271 95.1887 11.1093C94.9883 10.8222 94.7389 10.5923 94.4905 10.4154L94.4699 9.8507L93.7955 9.46094L93.2507 9.77558L93.255 9.9191L93.2562 9.95006C93.2125 9.96398 93.1679 9.98366 93.123 10.0108C93.1076 10.0199 93.0947 10.0297 93.0817 10.0393C93.0181 10.0859 92.7039 10.2498 92.5782 10.3252C92.5628 10.3343 92.5499 10.3441 92.5369 10.3537C92.3931 10.4593 92.3151 10.6624 92.3276 10.9773C92.3262 10.978 92.3262 10.978 92.3262 10.978C92.3396 11.3133 92.4457 11.601 92.5998 11.8499C92.6127 11.871 92.6281 11.8926 92.6413 11.9137L92.6456 11.9207C92.661 11.9423 92.6763 11.9641 92.6915 11.9857C92.7051 12.0047 92.7186 12.0234 92.7337 12.0414C92.7404 12.0491 92.7455 12.0575 92.7512 12.0637C92.7623 12.0784 92.7731 12.093 92.7846 12.1055C92.8796 12.2221 92.9833 12.3277 93.087 12.4276C93.1338 12.472 93.1818 12.5154 93.2303 12.5574L92.9819 12.4953L92.4371 12.8099C92.5823 13.3885 92.9319 13.8945 93.464 14.2833L93.4859 14.847L94.1665 15.2238L94.7113 14.9092L94.7043 14.7328C94.7437 14.722 94.7809 14.7073 94.8138 14.6867L94.8179 14.6843C94.9002 14.6308 95.2647 14.4309 95.3586 14.3723L95.3629 14.3699C95.5191 14.2689 95.5998 14.0584 95.5871 13.7245Z" fill="#F68C1F"/>
<path opacity="0.15" d="M92.6035 10.3143C92.7425 10.2327 93.0221 10.0858 93.0814 10.0426C93.0958 10.033 93.1085 10.0234 93.1229 10.0138C93.1675 9.98672 93.2124 9.96753 93.257 9.95312L93.2714 10.359C93.2714 10.359 92.9534 10.1242 92.6035 10.3143Z" fill="#3E78B2"/>
<path opacity="0.45" d="M94.1535 13.604C94.16 13.7734 94.0625 13.8579 93.7796 13.7031C93.4791 13.5354 93.3034 13.2862 93.2523 13.0177L92.4375 12.8132L92.9823 12.5L93.23 12.5607C93.2348 12.5655 93.2396 12.5686 93.2444 12.5734C93.3195 12.6406 93.3946 12.7045 93.4664 12.7652C93.4966 12.7892 93.5254 12.8132 93.5525 12.8372C93.7587 13.0066 93.9104 13.136 94.0061 13.2558C94.0685 13.3309 94.1101 13.4012 94.1324 13.4778C94.1453 13.5176 94.1518 13.5608 94.1535 13.604Z" fill="#3E78B2"/>
<path opacity="0.2" d="M94.7037 14.7375L94.7102 14.9132L94.1654 15.2264L94.1445 14.6641C94.3668 14.7505 94.5569 14.7776 94.7037 14.7375Z" fill="#3E78B2"/>
<path opacity="0.15" d="M93.9242 10.1653L93.25 9.77558L93.7948 9.46094L94.4706 9.8507L94.4898 10.4147C94.7392 10.5921 94.9883 10.8222 95.188 11.1097C95.3015 11.271 95.399 11.4515 95.4724 11.6497C95.5108 11.7599 95.5458 11.8751 95.5698 11.998L95.025 12.3126C95.001 12.1895 94.966 12.0729 94.9276 11.9644C94.8542 11.7647 94.7567 11.5857 94.6432 11.4244C94.4435 11.1369 94.1942 10.9067 93.945 10.7293L93.9242 10.1653Z" fill="#3E78B2"/>
<path opacity="0.2" d="M94.4902 10.4141C94.724 10.5461 94.9321 10.7256 95.1032 10.9351C95.2722 11.1456 95.4073 11.388 95.4728 11.6491C95.3535 11.4086 95.2134 11.1854 95.0466 10.9809C94.9642 10.878 94.8745 10.7815 94.7821 10.6867C94.689 10.5926 94.5901 10.5041 94.4902 10.4141Z" fill="#3E78B2"/>
<path opacity="0.35" d="M95.3633 14.3703L95.3601 14.372C95.2658 14.4311 94.9017 14.6307 94.8185 14.6852C94.9749 14.583 95.0565 14.3737 95.0438 14.0399C95.015 13.2971 94.5725 12.813 94.1028 12.4071C93.665 12.0318 93.2784 11.7985 93.264 11.439C93.2561 11.2136 93.4029 11.1944 93.6249 11.3175C93.9811 11.5141 94.1313 11.8703 94.1666 12.0908L94.8377 12.2634L94.8393 12.2651C95.2325 12.6373 95.5646 13.0863 95.5886 13.7252C95.6013 14.0588 95.5197 14.2679 95.3633 14.3703Z" fill="#3E78B2"/>
<path d="M93.7976 12.6959L93.2525 13.0103L92.4375 12.8068L92.9823 12.4922L93.7976 12.6959Z" fill="#F68C1F"/>
<path opacity="0.15" d="M93.7976 12.6959L93.2525 13.0103L92.4375 12.8068L92.9823 12.4922L93.7976 12.6959Z" fill="#3E78B2"/>
<path d="M94.1666 15.2281L94.1445 14.6641L94.7047 14.7368L94.7114 14.9134L94.1666 15.2281Z" fill="#F68C1F"/>
<path opacity="0.45" d="M94.1666 15.2281L94.1445 14.6641L94.7047 14.7368L94.7114 14.9134L94.1666 15.2281Z" fill="#3E78B2"/>
<path d="M93.2555 9.9172L93.2708 10.3538C93.2708 10.3538 92.9377 10.108 92.5784 10.3235C92.5631 10.3326 92.5501 10.3425 92.5371 10.3521C92.3931 10.4577 92.3154 10.6607 92.3276 10.9756C92.3262 10.9763 92.3262 10.9763 92.3262 10.9763C92.3396 11.3116 92.4457 11.5994 92.5998 11.8482C92.6127 11.8694 92.6281 11.891 92.6413 11.9121L92.6456 11.919C92.661 11.9406 92.6763 11.9625 92.6915 11.9841C92.7051 12.003 92.7186 12.0218 92.7337 12.0398C92.7404 12.0474 92.7455 12.0558 92.7512 12.0621C92.7623 12.0767 92.7731 12.0914 92.7846 12.1038C92.8796 12.2205 92.9833 12.3261 93.087 12.4259C93.1378 12.4744 93.1904 12.5222 93.2432 12.5675C93.3188 12.6342 93.3949 12.6986 93.4669 12.7595C93.4971 12.7838 93.5252 12.8075 93.5531 12.8313C93.759 13.001 93.9097 13.1306 94.0064 13.2498C94.0681 13.3247 94.1103 13.396 94.1324 13.4714C94.1444 13.5124 94.1516 13.5544 94.1535 13.5976C94.1598 13.7675 94.0623 13.853 93.7791 13.6967C93.4779 13.5302 93.3023 13.2806 93.2519 13.0118L92.4368 12.8082C92.582 13.3869 92.9317 13.8928 93.4638 14.2816L93.4856 14.8454L94.1662 15.2222L94.1444 14.6584C94.4286 14.7698 94.6587 14.782 94.8138 14.685L94.8178 14.6826C94.9738 14.5811 95.0547 14.3706 95.042 14.0368C95.0144 13.295 94.5714 12.8102 94.1017 12.4053C93.6635 12.0297 93.2773 11.7964 93.2634 11.4362C93.2555 11.2113 93.4019 11.1928 93.6246 11.3159C93.98 11.5118 94.13 11.8674 94.1662 12.089L95.025 12.3107C95.0005 12.1883 94.9664 12.0719 94.9271 11.9622C94.8539 11.7635 94.7564 11.5835 94.6436 11.4218C94.443 11.1347 94.1939 10.9048 93.9455 10.7279L93.925 10.1632L93.2506 9.77344L93.2555 9.9172Z" fill="#F68C1F"/>
<path opacity="0.1" d="M93.2555 9.9172L93.2708 10.3538C93.2708 10.3538 92.9377 10.108 92.5784 10.3235C92.5631 10.3326 92.5501 10.3425 92.5371 10.3521C92.3931 10.4577 92.3154 10.6607 92.3276 10.9756C92.3262 10.9763 92.3262 10.9763 92.3262 10.9763C92.3396 11.3116 92.4457 11.5994 92.5998 11.8482C92.6127 11.8694 92.6281 11.891 92.6413 11.9121L92.6456 11.919C92.661 11.9406 92.6763 11.9625 92.6915 11.9841C92.7051 12.003 92.7186 12.0218 92.7337 12.0398C92.7404 12.0474 92.7455 12.0558 92.7512 12.0621C92.7623 12.0767 92.7731 12.0914 92.7846 12.1038C92.8796 12.2205 92.9833 12.3261 93.087 12.4259C93.1378 12.4744 93.1904 12.5222 93.2432 12.5675C93.3188 12.6342 93.3949 12.6986 93.4669 12.7595C93.4971 12.7838 93.5252 12.8075 93.5531 12.8313C93.759 13.001 93.9097 13.1306 94.0064 13.2498C94.0681 13.3247 94.1103 13.396 94.1324 13.4714C94.1444 13.5124 94.1516 13.5544 94.1535 13.5976C94.1598 13.7675 94.0623 13.853 93.7791 13.6967C93.4779 13.5302 93.3023 13.2806 93.2519 13.0118L92.4368 12.8082C92.582 13.3869 92.9317 13.8928 93.4638 14.2816L93.4856 14.8454L94.1662 15.2222L94.1444 14.6584C94.4286 14.7698 94.6587 14.782 94.8138 14.685L94.8178 14.6826C94.9738 14.5811 95.0547 14.3706 95.042 14.0368C95.0144 13.295 94.5714 12.8102 94.1017 12.4053C93.6635 12.0297 93.2773 11.7964 93.2634 11.4362C93.2555 11.2113 93.4019 11.1928 93.6246 11.3159C93.98 11.5118 94.13 11.8674 94.1662 12.089L95.025 12.3107C95.0005 12.1883 94.9664 12.0719 94.9271 11.9622C94.8539 11.7635 94.7564 11.5835 94.6436 11.4218C94.443 11.1347 94.1939 10.9048 93.9455 10.7279L93.925 10.1632L93.2506 9.77344L93.2555 9.9172Z" fill="white"/>
<path d="M95.0426 14.0384C95.0241 13.7672 94.9499 13.5013 94.8191 13.2651C94.6912 13.0273 94.5143 12.8192 94.3197 12.6322C94.1274 12.4414 93.9129 12.2751 93.7053 12.0989C93.6023 12.0099 93.5003 11.918 93.4137 11.8117C93.329 11.7046 93.2656 11.575 93.2637 11.4375C93.2726 11.5748 93.3407 11.6981 93.4288 11.7992C93.5171 11.9012 93.6201 11.9895 93.725 12.0752C93.9357 12.2456 94.1512 12.4131 94.3475 12.6034C94.5414 12.7945 94.7219 13.0057 94.8462 13.2507C94.9082 13.3726 94.9588 13.5008 94.9919 13.6335C95.0231 13.7667 95.039 13.9025 95.0426 14.0384Z" fill="white"/>
<path d="M93.9258 10.1662L94.4706 9.85156L94.4912 10.416L93.9462 10.7307L93.9258 10.1662Z" fill="#F68C1F"/>
<path opacity="0.35" d="M93.9258 10.1662L94.4706 9.85156L94.4912 10.416L93.9462 10.7307L93.9258 10.1662Z" fill="#3E78B2"/>
<path d="M93.252 9.77344L93.8644 10.1961L93.947 10.7277L93.9266 10.1632L93.252 9.77344Z" fill="#FAFAFA"/>
<path d="M93.4648 14.2812L93.5419 14.8097L94.1676 15.2221L93.4867 14.845L93.4648 14.2812Z" fill="#FAFAFA"/>
<path opacity="0.15" d="M92.4355 12.8125C92.4617 12.9167 92.4967 13.0175 92.5359 13.1163L92.7591 12.8931L92.4355 12.8125Z" fill="white"/>
<path opacity="0.15" d="M95.0396 14.0162C95.0233 13.6898 94.9261 13.4136 94.7818 13.1719L93.4707 14.483L93.4849 14.85L93.949 15.1068L94.153 14.9028L94.1437 14.663C94.2097 14.6889 94.2723 14.7088 94.3321 14.7237L95.0396 14.0162Z" fill="white"/>
<path opacity="0.15" d="M92.334 11.0907C92.3527 11.2704 92.3985 11.4356 92.4633 11.5882L93.9 10.1516L93.5025 9.92188L93.263 10.1614L93.27 10.3563C93.27 10.3563 93.2196 10.3196 93.1377 10.2869L92.334 11.0907Z" fill="white"/>
<path opacity="0.15" d="M92.6457 11.9196C92.6611 11.9412 92.6764 11.9631 92.6916 11.9847C92.7052 12.0036 92.7187 12.0223 92.7338 12.0403C92.7405 12.048 92.7456 12.0564 92.7513 12.0627C92.7624 12.0773 92.7732 12.0919 92.7847 12.1044C92.8797 12.2211 92.9834 12.3267 93.0871 12.4265C93.1106 12.4488 93.1348 12.4697 93.1586 12.4915L93.6336 12.0166C93.42 11.8299 93.2721 11.6571 93.2637 11.4367C93.2558 11.2119 93.4022 11.1934 93.6249 11.3165C93.7879 11.4063 93.906 11.5301 93.9914 11.6587L94.4596 11.1905C94.2996 11.0088 94.1229 10.8545 93.9458 10.7285L93.9381 10.5156L92.6016 11.8522C92.6143 11.8723 92.6287 11.893 92.6409 11.9129L92.6457 11.9196Z" fill="white"/>
<path opacity="0.6" d="M26.5407 107.726C33.5465 107.726 39.2259 104.447 39.2259 100.402C39.2259 96.3571 33.5465 93.0781 26.5407 93.0781C19.5348 93.0781 13.8555 96.3571 13.8555 100.402C13.8555 104.447 19.5348 107.726 26.5407 107.726Z" fill="#F68C1F"/>
<path d="M17.5363 65.0222L19.4301 60.2059L19.1373 54.2812C17.9352 54.3806 17.0923 54.8172 16.4575 56.3042C15.8227 57.7915 14.5514 62.5816 14.3083 63.6969C14.0704 64.9512 14.0332 65.4381 14.0894 66.6506C14.1477 67.9137 14.7021 70.1973 14.9112 71.4403C15.0079 72.0153 15.0592 72.5709 15.1161 73.1563C15.1754 73.7666 15.3912 74.3376 15.5335 74.9344C15.5992 75.21 15.7672 75.4764 15.966 75.6775C16.0968 75.8097 16.2849 75.8381 16.4092 75.9626C16.5379 76.0915 16.5499 76.2852 16.7272 76.3929C16.9245 76.5127 17.1662 76.4676 17.3373 76.5883C17.5164 76.7145 17.6618 76.8888 17.8634 76.997C18.0448 77.0945 18.1816 77.1386 18.3117 77.3078C18.4185 77.4465 18.5085 77.7441 18.7224 77.7405C18.9621 77.7365 19.0192 77.5097 19.0478 77.3119C19.0982 76.9632 18.9444 76.5045 18.7579 76.2108C18.5419 75.8702 18.408 75.4838 18.1528 75.1692C17.9217 74.8843 17.807 74.482 17.7285 74.1225C17.6738 73.871 17.7225 73.5585 18.0278 73.728C18.3873 73.9277 18.7533 74.3165 19.2074 74.2761C19.5216 74.2483 19.5588 74.0057 19.3948 73.787C19.1203 73.4205 18.8892 73.055 18.6691 72.6494C18.4502 72.246 18.2767 71.8226 18.047 71.4264C17.9277 71.2205 17.7808 71.0217 17.6337 70.8316C17.2226 70.3003 17.2956 69.6273 17.2956 68.9966C17.2958 68.1158 17.4573 66.1466 17.5363 65.0222Z" fill="#C8856A"/>
<path d="M19.1733 53.9531C17.4249 54.105 16.5554 55.216 15.9626 56.9685C15.3549 58.7644 14.4643 61.9859 14.2843 62.8406C14.1045 63.6952 13.8672 64.6955 13.9168 65.993C13.9651 67.2539 14.3664 69.353 14.3664 69.353C14.3664 69.353 14.8243 69.629 15.7992 69.6141C17.1609 69.5934 17.4307 69.1799 17.4307 69.1799L17.6628 65.0464L19.5751 60.2714L19.1733 53.9531Z" fill="#3E78B2"/>
<path d="M17.8 99.2864C17.8 99.5955 17.7426 99.7153 18.1216 99.9944C18.5005 100.274 19.3223 100.402 19.9468 100.234C20.494 100.086 20.6925 99.9296 20.9557 99.625C21.255 99.279 21.4321 98.8813 21.5418 98.7416C21.6515 98.6019 22.1596 98.3353 22.6499 98.1174C23.1659 97.8879 24.1554 97.4312 24.5097 96.5934C24.8641 95.7555 24.6196 95.1562 24.6196 95.1562L17.8 99.2864Z" fill="#001F3F"/>
<path d="M21.0992 95.0326C20.0994 95.6859 19.2587 97.3251 17.8911 96.8271C17.8227 97.6296 17.6094 98.4951 17.7999 99.2842C18.3831 100.004 19.6595 100.142 20.3939 99.624C20.7637 99.3092 20.9711 98.9393 21.3289 98.6064C21.6121 98.3432 21.9416 98.1783 22.3119 98.0072C22.6508 97.8504 23.2256 97.538 23.5014 97.3486C25.7111 95.7192 24.6145 92.7358 21.0992 95.0326Z" fill="#455A64"/>
<path d="M24.623 103.037C24.623 103.372 24.6451 103.624 24.8501 103.766C25.055 103.908 26.5877 104.16 26.9954 104.207C27.4032 104.255 27.462 103.987 27.7478 104.081C28.0337 104.176 28.6999 104.665 29.6983 104.885C30.697 105.106 31.5163 105.342 32.9033 104.885C34.2902 104.428 34.427 103.891 34.4088 103.422C34.3906 102.953 24.623 103.037 24.623 103.037Z" fill="#001F3F"/>
<path d="M24.8241 99.9102C24.6006 100.871 24.3633 102.309 24.6237 103.041C24.9026 103.318 25.8398 103.48 26.6567 103.59C27.424 103.694 28.1217 103.895 28.8184 104.264C30.4038 104.925 33.1919 105.166 34.3029 103.674C35.4119 101.681 29.6399 102.171 28.9319 99.8656C28.6742 99.026 25.8724 100.137 24.8241 99.9102Z" fill="#455A64"/>
<path d="M17.3573 88.58C18.1289 80.3878 17.7308 73.8421 18.4669 67.2469C18.4669 67.2469 29.9715 66.9605 30.2542 70.8677C30.2542 70.8677 30.4292 84.7978 30.3387 86.5191C30.2979 88.2632 29.2532 99.1385 29.2532 100.368C26.395 101.786 24.6236 100.715 24.6236 100.715C24.6416 99.128 23.4005 92.9614 24.0733 89.0921L23.6163 82.5241C23.6163 82.5241 21.655 94.2874 21.3241 97.4602C20.4797 98.7113 18.085 98.4195 17.6857 97.664C17.6857 97.664 17.0866 90.9915 17.3573 88.58Z" fill="#3E78B2"/>
<path d="M23.6171 82.5266L23.1099 76.2012C23.1099 76.2012 20.9437 75.8021 19.6895 74.2344C20.0315 75.4886 21.3925 76.5775 22.2548 76.8835L23.1162 82.2528L22.7591 87.2167L23.6171 82.5266Z" fill="#001F3F"/>
<path d="M22.0868 81.2806C21.9514 83.4497 21.811 84.7167 21.6214 85.7756C21.3255 87.4282 20.4908 96.1212 20.2949 98.1797C20.3604 98.1591 20.4248 98.1361 20.4876 98.1101C20.6974 95.9053 21.5129 87.4316 21.8036 85.8084C21.9951 84.739 22.1357 83.4665 22.2716 81.2924C22.374 79.6556 22.4705 78.1095 22.5778 77.3057L22.394 77.2812C22.2862 78.0912 22.1895 79.6402 22.0868 81.2806Z" fill="#001F3F"/>
<path d="M27.8002 100.913C28.0479 97.203 28.6404 88.7807 28.5924 85.0283C28.5353 80.5478 28.3848 73.5746 28.0217 70.6797L27.8379 70.7027C28.2 73.5885 28.35 80.5538 28.4072 85.0307C28.4554 88.797 27.8564 97.2911 27.6113 100.958C27.6737 100.944 27.7364 100.93 27.8002 100.913Z" fill="#001F3F"/>
<path d="M28.2014 75.2934C29.214 74.2724 29.0738 72.1359 28.9836 70.8042C28.9761 70.6928 28.9689 70.587 28.9629 70.4878L29.1477 70.4766C29.1537 70.5752 29.1609 70.6806 29.1684 70.7917C29.2641 72.2118 29.4199 74.5251 28.2012 75.5516L28.2014 75.2934Z" fill="#001F3F"/>
<path d="M25.857 52.8206L25.395 55.6008L21.3066 55.6363L21.9566 52.6406L25.857 52.8206Z" fill="#C8856A"/>
<path d="M27.0918 47.875C27.3942 48.2393 28.3348 49.3385 28.3753 49.5528L27.6436 50.0278L27.0918 47.875Z" fill="#AF6152"/>
<path d="M24.9007 45.1125C26.0743 44.9551 26.8594 45.7694 27.2674 48.2649C27.2832 48.3626 27.4327 48.5128 27.5525 48.8848C28.0663 50.4801 27.8427 52.0176 27.5815 52.4318C26.9141 52.998 26.1615 53.2224 25.0608 53.1578C24.2218 53.1086 22.081 52.9104 20.9686 51.809C19.6606 50.513 18.9651 48.5263 19.842 47.4631C21.0763 45.9669 24.2542 45.1994 24.9007 45.1125Z" fill="#C8856A"/>
<path d="M27.582 52.4297C27.4372 52.6589 26.603 53.1643 25.7949 53.1857L25.8568 52.7438C25.8568 52.7438 26.6628 52.7446 27.582 52.4297Z" fill="#AF6152"/>
<path d="M25.2178 49.5796C25.1516 49.772 24.9538 49.7903 24.8355 49.6532C24.6936 49.4886 24.5811 49.31 24.4035 49.1783C24.198 49.0259 23.9412 48.9308 23.6866 48.9568C22.7237 49.0554 22.9925 50.3202 23.4778 50.75C24.272 51.4535 24.6675 50.8175 24.6675 50.8175C24.6675 50.8175 25.256 52.0324 24.464 52.772C24.464 52.772 23.0144 53.188 21.9058 52.8755C21.0596 52.0105 20.5599 51.6918 19.9868 50.9437C18.6288 49.1713 18.398 46.9096 19.225 46.3763C19.1609 45.7362 19.4828 44.7635 20.7848 44.1724C22.0256 43.6091 22.8665 43.6396 23.7749 43.6662C24.6833 43.6928 25.8092 44.0773 26.6326 43.3516C26.857 43.8508 26.8188 44.4592 26.5342 44.9264C26.7989 44.799 27.1546 44.9188 27.2885 45.1804C27.4224 45.4417 27.3113 45.8005 27.0533 45.9407C27.2412 46.0278 27.3339 46.2683 27.2727 46.4663C27.2115 46.6643 27.0164 46.8064 26.8102 46.827C26.592 46.8488 26.455 46.8313 26.2392 46.8056C25.9942 47.5537 25.1648 47.8348 24.6672 47.8163C25.2497 48.4801 25.338 49.2304 25.2178 49.5796Z" fill="#001F3F"/>
<path d="M26.5475 55.6963C25.6955 54.9293 25.9528 54.8878 25.3999 54.4332C24.712 53.8678 21.7022 53.1643 21.4605 53.4096C21.0011 53.8762 20.5723 54.0681 20.5723 54.0681C20.5723 54.0681 20.7153 54.5301 22.5321 54.9698C24.2651 55.3891 24.9499 55.3308 26.5475 55.6963Z" fill="#F0F0F0"/>
<path d="M21.118 53.7188C22.1178 53.8863 23.9219 54.3723 24.8711 54.6312C25.8203 54.8902 27.1199 55.7503 27.1199 55.7503C27.1199 55.7503 28.9429 56.5433 29.1678 56.7931C29.3927 57.043 29.8504 58.1921 30.0337 60.69C30.2171 63.1879 30.3642 72.6641 30.3642 72.6641C30.3642 72.6641 29.6646 72.8729 29.1582 72.9584L28.8105 70.1156L28.426 73.0966C28.426 73.0966 24.9959 73.3296 22.1231 72.7301C19.2503 72.1306 17.9764 70.2821 17.9764 70.2821C17.9764 70.2821 18.4043 65.2368 18.2903 64.2125C18.1763 63.1884 17.277 58.8668 17.3769 57.168C17.4767 55.4693 18.1237 54.1109 19.1725 53.9554C20.4498 53.7656 21.118 53.7188 21.118 53.7188Z" fill="#455A64"/>
<path d="M20.6309 54.2344C20.8903 54.3361 21.1569 54.4151 21.4245 54.4919C21.6909 54.5718 21.9585 54.6479 22.2271 54.7201C22.764 54.8656 23.3006 55.012 23.8399 55.1449C24.3777 55.2841 24.9209 55.3842 25.47 55.4783L27.119 55.7476C26.5615 55.7209 26.0061 55.6672 25.452 55.5985C24.8985 55.5328 24.3439 55.4349 23.8017 55.2983C23.2603 55.1605 22.7227 55.0098 22.1923 54.8361C21.6641 54.6597 21.1289 54.4902 20.6309 54.2344Z" fill="#3E78B2"/>
<path d="M21.666 57.7031C21.8962 58.8273 22.0771 59.9622 22.1971 61.1051C22.3157 62.2475 22.3659 63.4012 22.3073 64.5513L22.1139 67.9869L22.0042 69.7041L21.8779 71.4203L21.9269 69.7L21.9924 67.9806L22.1496 64.5431C22.2209 63.4019 22.1688 62.2571 22.0767 61.1162C22.0308 60.5454 21.9689 59.9759 21.8974 59.4074C21.8307 58.8383 21.7476 58.271 21.666 57.7031Z" fill="#3E78B2"/>
<path d="M28.9473 69.0985C29.9339 68.9406 30.2675 68.625 30.2675 68.625V69.3551C30.2675 69.3551 29.5393 69.736 28.9473 69.7626V69.0985Z" fill="#3E78B2"/>
<path d="M25.6196 79.9L25.5898 88.7492C25.5884 89.1784 25.891 89.4272 26.2611 89.6468L27.1902 90.188C27.4467 90.3376 27.5898 90.3882 27.9166 90.3332C28.0597 90.3104 28.2999 90.1948 28.4142 90.1314C28.4219 90.1295 28.4276 90.1256 28.4336 90.1218L28.484 90.093L38.0144 84.6332C38.7109 84.2344 39.1415 83.4942 39.1441 82.6916L39.1715 74.6336C39.1722 74.45 39.0433 74.2254 38.8832 74.1323L37.298 73.2112C37.1399 73.1178 36.8809 73.1171 36.7222 73.2092L25.9112 79.4027C25.8298 79.4468 25.7581 79.5277 25.7058 79.6165C25.6532 79.7068 25.6198 79.8092 25.6196 79.9Z" fill="#3E78B2"/>
<path d="M25.6196 79.9009L25.5898 88.7502C25.5884 89.1793 25.891 89.4281 26.2611 89.6477L27.1902 90.1889C27.4467 90.3385 27.5898 90.3891 27.9166 90.3342C28.0597 90.3114 28.2999 90.1957 28.4142 90.1323V90.1285C28.0427 90.301 27.7513 90.1069 27.753 89.6684L27.781 81.3305C27.7815 81.1913 27.8302 81.037 27.9102 80.9L25.7058 79.6172C25.6532 79.7077 25.6198 79.8101 25.6196 79.9009Z" fill="#001F3F"/>
<path d="M27.78 81.3316C27.781 81.0544 27.9785 80.7146 28.2192 80.5768L38.4372 74.7232C38.8412 74.4919 39.1702 74.6834 39.1688 75.1487L39.144 82.6929C39.1414 83.4955 38.7108 84.2359 38.0144 84.6347L28.4835 90.0952C28.0796 90.3266 27.7505 90.1351 27.752 89.6697L27.78 81.3316Z" fill="#455A64"/>
<path d="M37.811 73.5078L26.9808 79.774C26.6707 79.9535 26.4772 80.2873 26.476 80.6454L26.4453 89.7529L26.6097 89.8487L26.6407 80.6459C26.6416 80.3461 26.8036 80.0668 27.0631 79.9163L37.9747 73.6029L37.811 73.5078Z" fill="#F68C1F"/>
<path d="M33.9674 74.6259L33.9629 75.9963L34.4979 76.3076L34.5039 74.4879C34.5041 74.3939 34.439 74.3562 34.3574 74.4027L33.9674 74.6259Z" fill="#F68C1F"/>
<path opacity="0.3" d="M33.9674 74.6259L33.9629 75.9963L34.4979 76.3076L34.5039 74.4879C34.5041 74.3939 34.439 74.3562 34.3574 74.4027L33.9674 74.6259Z" fill="#3E78B2"/>
<path d="M30.1969 75.9702L30.1895 78.1888L30.6999 78.4866L31.0451 78.2884L31.0511 76.4687C31.0513 76.3753 31.118 76.2611 31.1987 76.2145L33.8142 74.7167L34.3573 74.4054C34.4389 74.3591 34.5042 74.3965 34.5037 74.4906L34.4977 76.3103L34.8438 76.1121L34.8512 73.8945C34.8512 73.8851 34.8505 73.875 34.8488 73.8654C34.838 73.7781 34.7773 73.6811 34.7043 73.6393L34.4867 73.5121C34.4063 73.4651 34.2747 73.4646 34.1931 73.5112L30.3443 75.7158C30.2629 75.7633 30.1971 75.8769 30.1969 75.9702Z" fill="#F68C1F"/>
<path opacity="0.2" d="M30.7067 76.2679L30.6992 78.4865L31.0443 78.2883L31.0503 76.4686C31.0506 76.3752 31.1173 76.261 31.1979 76.2144L33.8135 74.7166L34.3566 74.4053C34.4382 74.359 34.5035 74.3964 34.503 74.4905L34.497 76.3102L34.8431 76.1119L34.8505 73.8944C34.8505 73.885 34.8498 73.8749 34.8481 73.8653C34.8356 73.7933 34.7754 73.7674 34.7031 73.8089L30.8543 76.0135C30.7736 76.0611 30.7071 76.1746 30.7067 76.2679Z" fill="#3E78B2"/>
<path d="M34.1791 74.1601C33.886 73.1104 33.8318 72.7969 33.701 72.05C33.5704 71.3032 33.6077 70.5481 33.5378 69.1484L30.3379 69.9673C30.3379 69.9673 30.6552 70.994 30.8419 72.021C30.978 72.7691 30.7099 73.4447 30.7147 74.1853C30.7169 74.5165 30.7884 74.8556 30.9741 75.13C31.074 75.2773 31.2038 75.4021 31.3027 75.55C31.4971 75.8404 31.4894 76.046 31.1997 76.2114C31.0176 76.3153 31.0519 76.5575 31.0519 76.5575C31.1378 76.6624 31.2696 76.7416 31.398 76.7797C31.4549 76.7965 31.5139 76.8056 31.5732 76.8064C31.6336 76.8071 31.703 76.7766 31.7599 76.7809C31.8194 76.7855 31.876 76.828 31.9425 76.832C32.0097 76.8364 32.0779 76.8241 32.1434 76.8114C32.2682 76.7872 32.4005 76.7576 32.4909 76.6684C32.5814 76.5791 32.6184 76.4401 32.7242 76.37C32.8694 76.2738 33.0626 76.3518 33.2366 76.3408C33.4087 76.3297 33.5709 76.22 33.6453 76.0643C33.684 75.9834 33.7034 75.8872 33.7737 75.8315C33.8462 75.7739 33.9492 75.7787 34.0349 75.7444C34.1364 75.7036 34.2088 75.609 34.2477 75.5068C34.4126 75.0757 34.2986 74.5885 34.1791 74.1601Z" fill="#C8856A"/>
<path d="M30.0517 57.1027C30.8955 57.5287 31.1079 57.7027 31.5706 58.6452C32.0334 59.5874 32.6473 62.1705 32.8251 63.7248C33.003 65.2788 33.4609 66.7718 33.5732 68.3532C33.6855 69.9345 33.6723 71.2094 33.6723 71.2094C33.6723 71.2094 33.2014 71.5008 32.2098 71.6246C31.2183 71.7485 30.6752 71.6246 30.6752 71.6246C30.6752 71.6246 29.4927 67.2614 29.1855 66.0677C28.8786 64.8741 27.7724 61.6349 27.7724 61.6349C27.4006 59.5279 27.9152 57.1562 28.4938 56.3906C28.4938 56.3906 29.2078 56.6767 30.0517 57.1027Z" fill="#3E78B2"/>
<path d="M28.5833 33.2152C28.5864 34.6166 28.0418 35.8924 27.155 36.8469L26.7156 37.2659C25.7899 38.0562 24.5914 38.5372 23.2822 38.5403C20.3522 38.5466 17.9633 36.1691 17.957 33.2392C17.9539 31.93 18.4296 30.7283 19.2151 29.8002L19.6339 29.3594C20.5829 28.4668 21.8568 27.9172 23.2582 27.9141C26.1881 27.9076 28.577 30.285 28.5833 33.2152Z" fill="white"/>
<path d="M23.256 27.461C20.078 27.4679 17.497 30.0602 17.5059 33.2378C17.5121 36.0892 19.5994 38.4568 22.3227 38.9082L22.9733 40.5765C23.0844 40.8614 23.4879 40.8604 23.5978 40.575L24.2412 38.9037C26.9628 38.4393 29.0391 36.0623 29.0324 33.2123C29.0252 30.0342 26.4341 27.454 23.256 27.461ZM28.5824 33.2126C28.5855 34.6139 28.0409 35.8898 27.1541 36.8442L26.7147 37.2633C25.7892 38.0536 24.5904 38.5346 23.2812 38.5377C20.3513 38.5439 17.9624 36.1665 17.9561 33.2366C17.953 31.9274 18.4287 30.7254 19.2142 29.7976L19.633 29.3567C20.582 28.4642 21.8559 27.9146 23.2572 27.9114C26.1872 27.905 28.5761 30.2824 28.5824 33.2126Z" fill="#455A64"/>
<path opacity="0.7" d="M28.5833 33.2152C28.5864 34.6166 28.0418 35.8924 27.155 36.8469L26.7156 37.2659C25.7902 38.0562 24.5914 38.5372 23.2822 38.5403C20.3522 38.5466 17.9633 36.1691 17.957 33.2392C17.9539 31.93 18.4296 30.7281 19.2151 29.8002L19.6339 29.3594C20.5829 28.4668 21.8568 27.9172 23.2582 27.9141C26.1881 27.9076 28.577 30.285 28.5833 33.2152Z" fill="white"/>
<path d="M23.3903 30.3395L24.1211 32.1544L26.073 32.2888C26.1903 32.2969 26.2379 32.4436 26.1479 32.5192L24.6476 33.7751L25.1231 35.673C25.1516 35.787 25.0268 35.8777 24.9272 35.8153L23.2693 34.7766L21.6114 35.8153C21.5118 35.8777 21.387 35.787 21.4155 35.673L21.891 33.7751L20.3907 32.5192C20.3005 32.4438 20.3483 32.2969 20.4656 32.2888L22.4175 32.1546L23.1483 30.3397C23.192 30.2305 23.3463 30.2305 23.3903 30.3395Z" fill="#F68C1F"/>
</svg>
