<svg width="76" height="58" viewBox="0 0 76 58" fill="none" xmlns="http://www.w3.org/2000/svg">
<path d="M67.6067 5H66.4734H57.0658H51.1078H40.5669H34.5968H24.0558H18.0979H8.69008H7.5568C6.1336 5 5 6.08416 5 7.44512V8.69008V12.8662V18.3797V22.8434V27.7339V32.2093V37.0998V41.575V46.4771V49.2691V50.9408C5 52.0595 5.9408 52.9594 7.09856 52.9594H8.69024H18.5442H23.6096H35.0552H40.1086H51.5542H56.6197H66.4736H68.0653C69.223 52.9594 70.1638 52.0597 70.1638 50.9408V49.2691V46.4771V41.575V37.0998V32.2093V27.7339V22.8434V18.3797V12.8662V8.69008V7.44512C70.1635 6.084 69.0299 5 67.6067 5Z" fill="white" stroke="white" stroke-width="10" stroke-miterlimit="10"/>
<path d="M7.5568 5H18.0978C19.5088 5 20.6546 6.08416 20.6546 7.44512V12.8662C20.6546 14.2157 19.5088 15.3114 18.0978 15.3114H7.5568C6.1336 15.3114 5 14.2157 5 12.8662V7.44512C5 6.084 6.1336 5 7.5568 5Z" fill="#1F9900"/>
<path d="M7.09856 16.3594H18.5442C19.7141 16.3594 20.6547 17.2591 20.6547 18.3779V22.8416C20.6547 23.9603 19.7139 24.8602 18.5442 24.8602H7.09856C5.9408 24.8602 5 23.9605 5 22.8416V18.3779C5.00016 17.2591 5.9408 16.3594 7.09856 16.3594Z" fill="#69AD36"/>
<path d="M7.09856 25.7266H18.5442C19.7141 25.7266 20.6547 26.6262 20.6547 27.7334V32.2088C20.6547 33.3275 19.7139 34.2157 18.5442 34.2157H7.09856C5.9408 34.2157 5 33.3275 5 32.2088V27.7334C5.00016 26.6262 5.9408 25.7266 7.09856 25.7266Z" fill="#69AD36"/>
<path d="M7.09856 35.0938H18.5442C19.7141 35.0938 20.6547 35.9819 20.6547 37.1008V41.576C20.6547 42.6834 19.7139 43.583 18.5442 43.583H7.09856C5.9408 43.583 5 42.6834 5 41.576V37.1008C5.00016 35.9819 5.9408 35.0938 7.09856 35.0938Z" fill="#69AD36"/>
<path d="M24.0568 5H34.5978C36.021 5 37.1546 6.08416 37.1546 7.44512V12.8662C37.1546 14.2157 36.0208 15.3114 34.5978 15.3114H24.0568C22.6458 15.3114 21.5 14.2157 21.5 12.8662V7.44512C21.5 6.084 22.6458 5 24.0568 5Z" fill="#1F9900"/>
<path d="M23.6106 16.3594H35.0562C36.2139 16.3594 37.1547 17.2591 37.1547 18.3779V22.8416C37.1547 23.9603 36.2139 24.8602 35.0562 24.8602H23.6106C22.4406 24.8602 21.5 23.9605 21.5 22.8416V18.3779C21.5 17.2591 22.4408 16.3594 23.6106 16.3594Z" fill="#C0DBA4"/>
<path d="M23.6106 25.7266H35.0562C36.2139 25.7266 37.1547 26.6262 37.1547 27.7334V32.2088C37.1547 33.3275 36.2139 34.2157 35.0562 34.2157H23.6106C22.4406 34.2157 21.5 33.3275 21.5 32.2088V27.7334C21.5 26.6262 22.4408 25.7266 23.6106 25.7266Z" fill="#C0DBA4"/>
<path d="M23.6106 35.0938H35.0562C36.2139 35.0938 37.1547 35.9819 37.1547 37.1008V41.576C37.1547 42.6834 36.2139 43.583 35.0562 43.583H23.6106C22.4406 43.583 21.5 42.6834 21.5 41.576V37.1008C21.5 35.9819 22.4408 35.0938 23.6106 35.0938Z" fill="#C0DBA4"/>
<path d="M40.5666 5H51.1075C52.5186 5 53.6643 6.08416 53.6643 7.44512V12.8662C53.6643 14.2157 52.5186 15.3114 51.1075 15.3114H40.5666C39.1434 15.3114 38.0098 14.2157 38.0098 12.8662V7.44512C38.0098 6.084 39.1435 5 40.5666 5Z" fill="#1F9900"/>
<path d="M40.1083 16.3594H51.5539C52.7238 16.3594 53.6645 17.2591 53.6645 18.3779V22.8416C53.6645 23.9603 52.7237 24.8602 51.5539 24.8602H40.1083C38.9506 24.8602 38.0098 23.9605 38.0098 22.8416V18.3779C38.0098 17.2591 38.9506 16.3594 40.1083 16.3594Z" fill="#C0DBA4"/>
<path d="M40.1083 25.7266H51.5539C52.7238 25.7266 53.6645 26.6262 53.6645 27.7334V32.2088C53.6645 33.3275 52.7237 34.2157 51.5539 34.2157H40.1083C38.9506 34.2157 38.0098 33.3275 38.0098 32.2088V27.7334C38.0098 26.6262 38.9506 25.7266 40.1083 25.7266Z" fill="#C0DBA4"/>
<path d="M40.1083 35.0938H51.5539C52.7238 35.0938 53.6645 35.9819 53.6645 37.1008V41.576C53.6645 42.6834 52.7237 43.583 51.5539 43.583H40.1083C38.9506 43.583 38.0098 42.6834 38.0098 41.576V37.1008C38.0098 35.9819 38.9506 35.0938 40.1083 35.0938Z" fill="#C0DBA4"/>
<path d="M57.0666 5H67.6075C69.0307 5 70.1643 6.08416 70.1643 7.44512V12.8662C70.1643 14.2157 69.0306 15.3114 67.6075 15.3114H57.0666C55.6555 15.3114 54.5098 14.2157 54.5098 12.8662V7.44512C54.5096 6.084 55.6554 5 57.0666 5Z" fill="#1F9900"/>
<path d="M56.6203 16.3594H68.0659C69.2237 16.3594 70.1645 17.2591 70.1645 18.3779V22.8416C70.1645 23.9603 69.2237 24.8602 68.0659 24.8602H56.6203C55.4504 24.8602 54.5098 23.9605 54.5098 22.8416V18.3779C54.5096 17.2591 55.4504 16.3594 56.6203 16.3594Z" fill="#C0DBA4"/>
<path d="M56.6203 25.7266H68.0659C69.2237 25.7266 70.1645 26.6262 70.1645 27.7334V32.2088C70.1645 33.3275 69.2237 34.2157 68.0659 34.2157H56.6203C55.4504 34.2157 54.5098 33.3275 54.5098 32.2088V27.7334C54.5096 26.6262 55.4504 25.7266 56.6203 25.7266Z" fill="#C0DBA4"/>
<path d="M56.6203 35.0938H68.0659C69.2237 35.0938 70.1645 35.9819 70.1645 37.1008V41.576C70.1645 42.6834 69.2237 43.583 68.0659 43.583H56.6203C55.4504 43.583 54.5098 42.6834 54.5098 41.576V37.1008C54.5096 35.9819 55.4504 35.0938 56.6203 35.0938Z" fill="#C0DBA4"/>
<path d="M7.09856 44.4609H18.5442C19.7141 44.4609 20.6547 45.3606 20.6547 46.4795V50.9433C20.6547 52.0621 19.7139 52.9619 18.5442 52.9619H7.09856C5.9408 52.9619 5 52.0622 5 50.9433V46.4795C5.00016 45.3606 5.9408 44.4609 7.09856 44.4609Z" fill="#69AD36"/>
<path d="M23.6106 44.4609H35.0562C36.2139 44.4609 37.1547 45.3606 37.1547 46.4795V50.9433C37.1547 52.0621 36.2139 52.9619 35.0562 52.9619H23.6106C22.4406 52.9619 21.5 52.0622 21.5 50.9433V46.4795C21.5 45.3606 22.4408 44.4609 23.6106 44.4609Z" fill="#C0DBA4"/>
<path d="M40.1083 44.4609H51.5539C52.7238 44.4609 53.6645 45.3606 53.6645 46.4795V50.9433C53.6645 52.0621 52.7237 52.9619 51.5539 52.9619H40.1083C38.9506 52.9619 38.0098 52.0622 38.0098 50.9433V46.4795C38.0098 45.3606 38.9506 44.4609 40.1083 44.4609Z" fill="#C0DBA4"/>
<path d="M56.6203 44.4609H68.0659C69.2237 44.4609 70.1645 45.3606 70.1645 46.4795V50.9433C70.1645 52.0621 69.2237 52.9619 68.0659 52.9619H56.6203C55.4504 52.9619 54.5098 52.0622 54.5098 50.9433V46.4795C54.5096 45.3606 55.4504 44.4609 56.6203 44.4609Z" fill="#C0DBA4"/>
</svg>
