<svg width="120" height="120" viewBox="0 0 120 120" fill="none" xmlns="http://www.w3.org/2000/svg">
<path fill-rule="evenodd" clip-rule="evenodd" d="M33.9207 22.4465C32.4114 22.6615 24.463 23.6959 24.4582 23.6883C22.6947 23.9218 20.9264 24.1627 19.1557 24.3852C18.7904 24.4308 18.7784 24.6317 18.8163 24.9154C19.4665 29.7984 20.1195 34.6815 20.7519 39.5669C20.8167 40.0639 20.9948 40.2214 21.4918 40.1417C22.508 39.9795 23.5311 39.8631 24.5514 39.7282C28.3314 39.2275 32.1114 38.7274 35.8909 38.2263C36.5806 38.1348 36.5802 38.1331 36.487 37.434C36.345 36.3636 36.2029 35.2935 36.0606 34.2231C35.9794 33.6101 35.8981 32.9969 35.8023 32.2726C35.5671 32.5035 35.4349 32.6566 35.2801 32.7807C34.3258 33.5463 33.2713 33.6903 32.1541 33.2141C31.1007 32.7648 30.4078 31.6407 30.4419 30.5206C30.513 28.1993 32.7793 26.8901 34.8464 27.9723C34.9532 28.0282 35.0581 28.1914 35.1958 28.0829C35.2988 28.0015 35.2165 27.8626 35.2016 27.7507C34.9909 26.1449 34.7612 24.541 34.5769 22.9325C34.5238 22.4691 34.3366 22.3875 33.9207 22.4465Z" fill="#9BB2DC"/>
<path d="M12.8846 40.3509C12.8846 40.3509 12.8846 38.7698 12.1468 38.0318L11.6198 38.3481C11.6198 38.3481 10.8818 36.8724 10.3547 37.0831C9.82768 37.2941 7.71928 38.6645 12.5685 41.6162" fill="#3E78B2"/>
<path d="M21.2577 82.4609C21.2577 82.4609 20.5708 83.8424 20.7919 84.505C20.7919 84.505 21.4545 85.3887 22.4486 85.4989C22.4486 85.4989 23.5531 88.5915 25.4306 88.1497C25.4306 88.1497 25.9828 86.8244 24.6573 85.3887C23.3323 83.9528 23.2216 82.6273 23.2216 82.6273" fill="#9BB2DC"/>
<path d="M25.4869 60.375C25.4869 60.375 26.8326 69.3436 26.421 72.0868C26.421 72.0868 24.5267 80.5384 23.018 83.1448C23.018 83.1448 21.5091 83.1448 21.2348 82.4588C20.9607 81.7729 22.1262 74.2628 23.2237 71.794C23.2237 71.794 20.8235 66.1364 20.9608 63.1187" fill="#9BB2DC"/>
<path d="M8.24585 72.4958C8.22905 72.5109 7.21337 73.8765 6.98393 73.8683L5.55257 73.1922C4.47089 73.1769 3.62681 73.2856 2.82713 72.466C2.59817 72.2306 1.26689 70.6278 2.20001 70.5234C2.20001 70.5234 3.16337 70.6276 4.00673 70.7469C4.84985 70.8669 5.72441 71.6034 5.72441 71.6034L7.84721 71.6469" fill="#9BB2DC"/>
<path d="M22.3613 63.8552C22.3613 63.8552 21.2745 65.7142 14.2327 65.3619C14.2327 65.3619 13.1762 69.235 7.89503 72.7561L6.31055 71.5234C6.31055 71.5234 11.2397 63.0735 13.7045 62.0173C13.7045 62.0173 20.1542 60.2662 21.7387 60.7947C21.7387 60.7947 23.2416 63.6788 22.3613 63.8552Z" fill="#9BB2DC"/>
<path d="M33.1943 43.5802C33.9673 38.4502 32.8537 39.2936 32.7021 39.188C32.2475 38.8716 31.5426 39.2933 31.5426 39.2933C31.4373 44.0369 26.8693 50.0456 26.8693 50.0456C26.8693 50.0456 23.9178 50.3266 23.4961 50.0456C23.0744 49.7645 20.5446 50.0456 20.5446 50.0456C19.5608 48.3588 12.9896 39.9257 12.9896 39.9257C12.568 39.504 11.7246 41.7178 11.7246 41.7178C12.4273 43.9668 17.8739 51.17 17.8739 51.17C17.8739 51.17 18.8576 51.732 19.5606 54.685C19.9151 56.1742 19.5157 57.5818 19.0693 58.9992C18.6493 60.3334 18.0995 61.1398 19.2654 62.1442C20.6673 63.3516 24.9196 64.8142 26.2986 63.6521C27.6717 62.4948 27.2773 58.1482 27.6745 56.5073C27.9769 55.2579 28.2364 53.9895 28.4154 52.7163C30.6644 51.3108 33.0253 44.701 33.1943 43.5802Z" fill="#9BB2DC"/>
<path opacity="0.2" d="M32.9125 39.1953C32.8849 47.7604 27.6569 51.2863 27.7664 52.1613C27.8888 53.1393 27.0329 56.0736 27.0329 56.0736C27.6442 61.2086 25.5658 63.0424 25.5658 63.0424C23.2381 63.6633 20.3701 62.2161 18.584 61.0756C18.6392 61.4299 18.8348 61.7743 19.2661 62.146C20.6679 63.3535 24.9202 64.816 26.2993 63.654C27.6723 62.4967 27.278 58.15 27.6752 56.5091C27.9776 55.2597 28.237 53.9913 28.4161 52.7181C30.6649 51.3124 33.026 44.7026 33.1949 43.5818C33.7973 39.582 33.2533 39.2136 32.9125 39.1953Z" fill="#3E78B2"/>
<path d="M26.7755 49.2314C26.7719 49.7858 25.6919 50.4703 25.3223 49.8907L26.1008 48.6014C26.4349 48.2337 26.7771 48.8839 26.7755 49.2314Z" fill="#6E7C87"/>
<path d="M21.0863 48.4607L21.8171 49.778C21.4257 50.3435 20.3725 49.6184 20.3889 49.0657C20.4001 48.717 20.7666 48.0812 21.0863 48.4607Z" fill="#6E7C87"/>
<path d="M20.6626 46.6123C20.5755 45.0554 22.8667 44.2087 23.863 44.1811V44.1797V44.1804V44.1811C24.522 44.233 26.6964 45.1694 26.5495 46.723C26.5495 46.723 26.6057 51.9967 23.2894 52.0428L23.2875 52.0682C23.2875 52.0682 23.2973 51.9396 23.2973 51.9394C23.2973 51.9396 23.2973 51.9398 23.2973 51.9398L23.2891 52.0426C20.557 51.8431 20.6626 46.6123 20.6626 46.6123Z" fill="#3E78B2"/>
<path d="M26.1338 45.1889C26.1338 45.1889 25.5228 46.8197 20.5298 48.2457C20.5298 48.2457 19.5105 47.0232 20.4276 45.9021C20.4276 45.9021 20.1218 43.9661 20.9371 43.4563C20.9371 43.4563 23.9942 42.03 26.4396 43.5583C26.4396 43.5583 26.8471 44.9851 26.1338 45.1889Z" fill="#9BB2DC"/>
<path d="M26.3381 44.0703C26.3381 44.0703 28.1724 45.0894 26.3381 48.6558C26.3381 48.6558 25.3193 46.9234 25.523 45.4969" fill="#9BB2DC"/>
<path d="M29.5112 26.7807C29.5311 27.0853 29.2928 27.3389 29.0053 27.3579L27.0932 27.4837L27.6625 36.1311C27.6826 36.4357 27.4611 36.6881 27.1566 36.7083C26.852 36.7285 26.599 36.5072 26.5794 36.2024L26.0098 27.5549L24.098 27.6809C23.7934 27.7006 23.541 27.4793 23.5208 27.175C23.5006 26.8705 23.7219 26.618 24.0262 26.5978L28.9338 26.2745C29.2215 26.2558 29.4913 26.4761 29.5112 26.7807Z" fill="#3E78B2"/>
<path d="M31.7662 39.7441C31.7662 39.7441 28.6287 38.2287 29.3703 38.0437C29.8563 37.9223 30.8129 38.3864 30.8129 38.3864L32.5023 38.5955C32.5023 38.5955 34.4532 38.8943 33.0279 39.6539" fill="#3E78B2"/>
<path fill-rule="evenodd" clip-rule="evenodd" d="M83.1087 38.0828C82.9662 37.0124 82.8243 35.9422 82.6822 34.8716C82.6011 34.2586 82.5193 33.6454 82.424 32.9208C82.1888 33.152 82.0565 33.3051 81.9013 33.4292C80.9475 34.1948 79.8927 34.0942 78.7755 33.618C77.7222 33.169 77.2736 32.2892 77.3081 31.1691C77.3792 28.8476 79.4009 27.5384 81.4678 28.6205C81.5746 28.6764 81.6798 28.8394 81.8173 28.7312C81.9207 28.6498 81.8379 28.5108 81.8228 28.399C81.6125 26.7932 81.3826 25.189 81.1983 23.5808C81.1453 23.1178 80.9583 23.0357 80.5419 23.095C79.0328 23.31 71.0845 24.3444 71.0797 24.3368C69.3159 24.5703 67.5476 24.8115 65.7766 25.034C65.4116 25.0796 65.3993 25.2804 65.4375 25.5639C65.6583 27.2232 65.8791 28.8828 66.0997 30.5422C66.6109 30.1445 67.2514 30.1498 67.9489 30.1498C69.6142 30.1498 70.7202 31.2557 70.7202 32.9211C70.7202 34.5864 69.6145 35.9367 67.9489 35.9367C67.5349 35.9367 67.1406 35.8529 66.781 35.7017C66.979 37.206 67.1785 38.7104 67.3734 40.2154C67.4382 40.7124 67.616 40.8699 68.1135 40.7902C69.1292 40.628 70.1526 40.5116 71.1728 40.3767C74.9526 39.876 78.7328 39.3759 82.5128 38.8748C83.2023 38.7836 83.2018 38.7819 83.1087 38.0828Z" fill="#9BB2DC"/>
<path d="M71.5364 37.5278C71.5145 37.3811 73.0366 28.4654 73.1616 27.7461C73.1895 27.4917 73.4009 27.3434 73.6126 27.3112C73.8245 27.2795 74.0537 27.3614 74.1723 27.5937C74.2558 27.8143 74.7456 28.7407 75.3447 29.9507C76.6688 32.5353 78.5938 36.346 78.6111 36.4598C78.6504 36.7209 78.4289 37.0211 78.168 37.0605C77.9561 37.0922 77.7058 36.9803 77.606 36.7617L76.0306 33.6151L73.1619 34.0478C72.9756 35.243 72.7577 36.3429 72.5691 37.522C72.5218 37.7625 72.3483 37.9384 72.1364 37.9706C71.8438 38.015 71.576 37.7884 71.5364 37.5278ZM73.3472 32.9531L75.5151 32.626L73.9349 29.4467L73.3472 32.9531Z" fill="#3E78B2"/>
<path d="M74.2568 53.6428L76.1512 53.0853L76.0249 48.6484L74.703 48.7387L74.2568 53.6428Z" fill="#6E7C87"/>
<path d="M73.8955 43.6406L77.0023 43.6941L78.0446 45.8565C78.0167 47.802 77.6966 50.9839 75.4948 51.0881C75.4488 51.0912 75.232 51.09 75.1869 51.0866C73.0483 51.0852 72.6902 47.8017 72.6621 45.8565L73.8955 43.6406Z" fill="#3E78B2"/>
<path d="M73.392 53.7603C73.3968 52.7184 70.0728 50.4305 68.5778 48.5851C68.5778 48.5851 69.6014 46.0747 69.6921 41.2656L68.1571 41.9652C67.6008 44.3038 66.006 47.1694 66.9453 49.3755C66.9453 49.3755 69.6804 54.3276 72.3847 55.5168C75.0888 56.7055 73.3889 54.4239 73.392 53.7603Z" fill="#3E78B2"/>
<path d="M78.2088 53.4056C78.0051 52.3841 80.8313 49.5039 81.9461 47.4068C81.9461 47.4068 81.1916 45.5585 80.1845 40.8555L81.0956 40.8281C82.088 43.0176 84.2007 45.5259 83.6996 47.8707C83.6996 47.8707 81.9603 53.2536 79.5329 54.9375C77.1053 56.6208 78.3384 54.0567 78.2088 53.4056Z" fill="#3E78B2"/>
<path d="M81.3936 83.5518C81.3936 83.5518 82.8575 85.6014 83.2972 86.1875C83.7362 86.7729 84.3218 89.116 84.9076 88.5304C85.4932 87.9446 85.4932 86.6265 84.6148 85.3091C83.7362 83.9913 83.8824 83.2595 83.8824 83.2595C83.8824 83.2595 83.1506 82.8203 81.9792 82.8203" fill="#9BB2DC"/>
<path d="M85.2217 82.2076C85.2217 82.2076 86.3926 84.4382 86.7478 85.0783C87.1028 85.7188 87.3632 88.1193 88.0232 87.6189C88.6834 87.1187 88.8632 85.8136 88.1725 84.388C87.4825 82.9627 87.7273 82.2575 87.7273 82.2575C87.7273 82.2575 87.0625 81.7226 85.9021 81.5625" fill="#9BB2DC"/>
<path d="M73.4878 64.519C73.4878 64.519 73.0486 73.0112 75.0982 75.5C75.0982 75.5 80.808 83.6986 81.6867 84.1381C81.6867 84.1381 83.0043 83.2597 82.7117 82.6736C82.4189 82.0882 79.4907 75.4995 77.88 75.2067C77.88 75.2067 77.4408 65.3974 76.416 63.6406" fill="#9BB2DC"/>
<path d="M77.8802 75.2067C77.8802 75.2067 77.441 65.3974 76.4162 63.6406L75.977 64.8118C76.0005 66.2473 75.3878 73.8421 77.4045 75.9881C77.4045 75.9881 79.0809 77.7152 80.8279 79.4391C79.8955 77.4459 78.7416 75.3632 77.8802 75.2067Z" fill="#3E78B2"/>
<path d="M76.0186 63.8133C76.0186 63.8133 76.075 73.6403 78.283 75.9899C78.283 75.9899 84.576 82.4742 85.4813 82.8549C85.4813 82.8549 86.4756 82.3497 86.1449 81.784C85.8144 81.2193 82.1414 74.3711 80.5154 74.1839C80.5154 74.1839 82.2722 62.325 78.883 62.7453" fill="#9BB2DC"/>
<path d="M78.8262 55.7938C78.8262 55.7938 81.0975 53.6465 81.3906 52.4751C81.3906 52.4751 80.1258 51.5201 80.419 50.2028C77.8009 51.6773 75.3855 51.8636 72.4839 51.0068C71.8702 50.8256 71.0984 50.4219 70.3798 50.1953C70.5176 50.2388 69.2014 52.3356 69.2012 52.4242C69.1954 53.3907 70.243 53.708 70.7638 54.5093C72.3176 56.8997 73.0851 60.6704 73.341 63.4937L73.4871 65.1041C73.4871 65.1041 80.2225 63.6399 80.3689 62.9079C80.3689 62.9079 79.6364 61.1511 78.9044 59.9801C78.1729 58.8084 78.3865 57.8432 78.8262 55.7938Z" fill="#9BB2DC"/>
<path d="M77.1027 45.9999C78.1215 47.2774 78.0296 48.7222 77.4135 50.1512C81.6219 50.4416 80.3994 41.1848 75.6262 41.4591C74.3581 41.5321 72.7882 42.7541 73.7552 43.9921C74.4644 44.9 76.2459 44.9259 77.1027 45.9999Z" fill="#3E78B2"/>
<path d="M74.6031 42.3672C72.4368 42.4754 70.8584 43.9937 71.4728 46.4061C71.6576 47.1317 71.9772 48.078 72.024 48.8565C72.0581 49.4268 72.0063 49.6893 71.9103 50.1897C72.12 50.3061 72.6819 50.454 72.9058 50.4905C73.0049 50.3772 73.105 50.2764 73.2226 50.1823C73.7662 49.7467 72.0543 46.3452 73.4588 45.1109C74.3636 44.3162 75.8528 43.9598 77.0019 43.6913" fill="#3E78B2"/>
<path d="M68.1575 41.9675C68.1575 41.9675 66.9107 39.0491 67.9662 38.4458C67.9662 38.4458 70.2287 37.39 69.9272 38.4458L69.1727 39.3508C69.1727 39.3508 69.0217 39.9542 69.4746 40.1051C69.9272 40.2559 69.609 40.9223 69.6925 41.2679C69.7765 41.6135 68.871 42.9712 68.871 42.9712" fill="#3E78B2"/>
<path d="M81.3312 41.741C81.3312 41.741 82.5784 38.8228 81.5224 38.2192C81.5224 38.2192 79.2602 37.1635 79.5619 38.2192L80.316 39.1243C80.316 39.1243 80.4669 39.7276 80.0145 39.8786C79.5619 40.0293 79.8801 40.6958 79.7964 41.0416C79.7126 41.387 80.6176 42.7447 80.6176 42.7447" fill="#3E78B2"/>
<path d="M49.146 41.928C49.146 41.928 50.245 40.922 50.2882 39.9399L49.733 39.7748C49.733 39.7748 50.2889 38.3228 49.8072 38.0907C49.325 37.8584 47.0316 37.2653 48.0658 42.5134" fill="#3E78B2"/>
<path fill-rule="evenodd" clip-rule="evenodd" d="M64.3495 33.9456C64.4575 33.0547 64.144 32.2445 63.3866 31.7875C62.6047 31.3162 61.7056 31.0466 60.8004 31.5722C60.4536 31.7736 60.113 31.8749 59.7681 31.6109C59.4511 31.3678 59.519 31.0373 59.5732 30.6914C59.8411 28.9994 60.1792 27.3228 60.5796 25.6577C60.7046 25.1369 60.5589 24.9302 60.0144 24.8198C58.3526 24.4838 56.6906 24.1471 55.0276 23.8198C54.6662 23.749 50.3306 22.8746 49.9456 22.7966C48.3883 22.4798 46.8295 22.1676 45.2707 21.8568C44.3661 21.6763 44.3532 21.6876 44.1667 22.6123C43.8388 24.2395 43.5096 25.8667 43.1834 27.4946C43.1212 27.8045 43.0106 28.0649 42.6679 28.1611C42.3096 28.2614 42.0535 28.1196 41.8329 27.8539C41.7211 27.7183 41.603 27.5854 41.4741 27.4661C40.7755 26.8174 39.6724 26.6609 38.8087 27.0821C37.9032 27.5237 37.356 28.458 37.4224 29.4492C37.4882 30.4303 38.1427 31.2473 39.0928 31.5504C39.7819 31.7702 40.4376 31.7429 41.076 31.3697C41.3544 31.2072 41.6546 31.1148 41.9688 31.3411C42.2954 31.5766 42.3084 31.8754 42.2373 32.233C42.1063 32.8896 42.0122 33.5539 41.8886 34.2127C41.657 35.4444 41.4151 36.6746 41.1782 37.9051C41.2036 37.9423 41.2298 37.9795 41.2557 38.0162C41.2905 38.0338 41.3253 38.051 41.3604 38.0683C43.2127 38.4326 45.065 38.7962 46.9171 39.161C47.2564 39.2278 51.5287 40.038 51.953 40.1998C53.5476 40.5211 55.1414 40.8422 56.7362 41.1636C56.806 41.178 56.8773 41.1924 56.9479 41.2068C57.4411 41.2682 57.5337 40.9363 57.5918 40.5598C57.863 38.7972 58.2187 37.0505 58.6562 35.3222C58.8036 34.7381 59.4177 34.5852 59.85 35.005C59.9635 35.1151 60.0542 35.2488 60.166 35.3602C60.8822 36.0698 61.7491 36.2899 62.6952 36.007C63.6921 35.7084 64.2268 34.9543 64.3495 33.9456Z" fill="#9BB2DC"/>
<path d="M53.4961 92.5469C53.5137 92.5646 54.2937 93.5369 54.2937 93.7944L53.5902 95.4252C53.6142 96.6384 53.7673 97.5799 52.8798 98.5087C52.6247 98.7744 50.8785 100.327 50.7256 99.2851C50.7256 99.2851 50.8055 98.2018 50.9073 97.2509C51.0095 96.3012 51.8017 95.2934 51.8017 95.2934L51.7696 92.9112" fill="#9BB2DC"/>
<path d="M57.6779 89.5859C57.6625 89.6056 57.0028 90.6633 57.0333 90.9191L57.9244 92.4554C58.0441 93.6626 58.0031 94.6159 58.9941 95.4331C59.2792 95.6666 61.1965 97.0024 61.2251 95.9495C61.2251 95.9495 61.018 94.8835 60.8039 93.9511C60.5901 93.0201 59.6843 92.1131 59.6843 92.1131L59.4352 89.7439" fill="#9BB2DC"/>
<path d="M49.7254 64.9731C49.7254 64.9731 51.3918 62.9494 53.4152 64.4969C54.5139 65.3372 55.1542 66.3862 55.55 67.2663C55.9964 66.5806 56.5213 66.3651 57.1052 67.1156C57.1052 67.1156 61.5723 75.4863 60.8581 79.0572L59.2849 90.3934C59.2849 90.3934 57.6094 92.1082 57.2715 89.9789C56.5352 85.3368 56.7205 82.1026 57.4347 80.198C58.0417 78.5796 54.7491 75.5429 54.1345 73.7782C54.1393 75.6245 54.6634 78.7308 53.6852 82.1134C55.2634 88.9332 53.9874 89.0549 53.5225 93.2391C53.5225 93.2391 51.9234 93.596 51.5662 93.2391C51.5662 93.2391 50.1121 84.9041 50.5882 82.6431C50.5882 82.6431 49.2493 69.9723 49.7254 64.9731Z" fill="#3E78B2"/>
<g opacity="0.3">
<path d="M57.4341 80.1946C56.7199 82.099 56.5346 85.3335 57.2709 89.9756C57.4348 91.009 57.9141 91.136 58.3636 90.9939C57.7012 88.1201 57.5013 82.2351 57.4497 80.1406C57.4444 80.1586 57.4408 80.1773 57.4341 80.1946Z" fill="#9BB2DC"/>
<path d="M53.5219 93.2343C53.9868 89.0499 55.2629 88.9285 53.6847 82.1086C54.6629 78.7258 54.1387 75.6198 54.1339 73.7734C54.1339 73.7734 53.3587 77.7481 53.0328 80.1932C52.7069 82.6383 53.1958 84.1057 53.1958 84.1057C54.3766 88.3038 52.9184 92.0778 52.3037 93.3915C52.8689 93.3793 53.5219 93.2343 53.5219 93.2343Z" fill="#9BB2DC"/>
</g>
<path d="M62.3945 70.6118C62.3945 70.6118 62.4845 72.0377 63.1918 72.6617L63.6495 72.3466C63.6495 72.3466 64.3988 73.6356 64.8622 73.4155C65.3256 73.1952 67.1489 71.8397 62.6079 69.4531" fill="#3E78B2"/>
<path d="M57.4453 66.389L58.0866 67.1954L58.8203 69.7629C58.8203 69.7629 50.1032 72.2298 49.6506 70.9854C49.6506 70.9854 48.8471 62.4292 48.734 60.2798C48.6208 58.1301 47.7157 54.2836 47.7157 54.2836C47.7157 54.2836 46.5844 43.1963 47.7157 41.0469L49.7521 41.6126C49.7521 41.6126 49.6388 47.722 49.9782 49.4188C50.3176 51.1156 50.4308 52.8126 51.3359 55.7543C51.3359 55.7543 57.1055 55.8674 58.0108 57.225C58.9158 58.5825 61.2652 64.6281 61.2652 64.6281C61.2652 64.6281 63.3282 68.3121 63.6676 69.8958C63.6676 69.8958 63.2149 71.1405 62.5364 71.0274C61.8575 70.9142 59.4815 67.7464 58.3504 65.2576C57.219 62.7686 57.332 62.7686 57.332 63.1079" fill="#9BB2DC"/>
<path opacity="0.3" d="M54.5004 58.1864C54.5004 58.1864 55.7741 57.5489 56.5543 56.4109C54.8467 55.9037 52.2703 55.7825 51.5391 55.7578C52.0512 57.1916 52.9524 58.2397 54.5004 58.1864Z" fill="#6E7C87"/>
<path opacity="0.3" d="M47.5615 52.5781C47.6477 53.6173 47.7158 54.286 47.7158 54.286C47.7158 54.286 48.6209 58.1324 48.7342 60.2821C48.7747 61.0525 48.9041 62.6461 49.0531 64.3734C49.2773 62.7066 49.7736 58.3232 49.1213 56.2352C48.7841 55.1564 48.168 53.7995 47.5615 52.5781Z" fill="#6E7C87"/>
<path opacity="0.3" d="M58.8199 69.7626L58.0865 67.195L57.4452 66.3886L57.3321 63.1076C57.3321 62.7682 57.2189 62.7682 58.3505 65.2573C59.4816 67.7461 61.8576 70.9138 62.5366 71.0271C62.9045 71.0886 63.2052 70.7506 63.4042 70.4286C61.3327 68.5542 58.7385 63.079 58.7385 63.079L56.2934 60.7969L56.7826 65.5242L55.3154 68.1322L57.1051 67.1127C58.1477 67.0117 58.3066 68.7488 58.2982 69.9058C58.6253 69.8175 58.8199 69.7626 58.8199 69.7626Z" fill="#6E7C87"/>
<path d="M56.6549 53.4526C57.0103 53.0602 57.3751 53.7533 57.3732 54.1239C57.3698 54.7138 56.2186 55.4439 55.8252 54.8266" fill="#3E78B2"/>
<path d="M51.3114 53.3043C50.9708 52.8997 50.5801 53.5781 50.5686 53.9492C50.5503 54.5381 51.6731 55.3109 52.0899 54.7085" fill="#3E78B2"/>
<path d="M50.86 51.3347C50.7671 49.6746 53.2089 48.7734 54.2699 48.7434V48.7422V48.7429V48.7436C54.9726 48.7991 57.2896 49.797 57.1331 51.4518C57.1331 51.4518 57.1929 57.0723 53.6591 57.1208L53.6567 57.1484C53.6567 57.1484 53.6675 57.0109 53.6675 57.0104C53.6675 57.0111 53.6673 57.0119 53.6673 57.0119L53.6589 57.1208C50.7467 56.9079 50.86 51.3347 50.86 51.3347Z" fill="#3E78B2"/>
<path d="M47.9864 35.3362L49.4545 26.1723C49.4975 25.9061 49.7728 25.6772 50.072 25.7252L54.28 26.3996C54.5792 26.4473 54.7696 26.7507 54.7268 27.0168C54.6786 27.3164 54.4086 27.512 54.1096 27.4642L50.4335 26.8752L49.9273 30.0353L52.2227 30.4032C52.5049 30.4484 52.7123 30.7541 52.6693 31.0208C52.6213 31.32 52.3345 31.513 52.052 31.4674L49.7567 31.0997L49.1358 34.9748L52.8116 35.5637C53.1109 35.6117 53.3065 35.8815 53.2583 36.1812C53.2156 36.4472 52.9403 36.6759 52.641 36.6284L48.4331 35.9535C48.134 35.906 47.9437 35.6024 47.9864 35.3362Z" fill="#3E78B2"/>
<path d="M49.7076 41.3121C49.9716 40.9466 50.5064 40.3341 50.6957 39.9405C51.1884 38.9157 49.7331 40.0001 49.7331 40.0001L49.4736 40.9512C49.65 40.9776 49.5557 41.2286 49.7076 41.3121Z" fill="#3E78B2"/>
<path opacity="0.1" d="M28.0709 100.09C28.0709 101.555 23.7771 102.743 18.4803 102.743C13.1835 102.743 8.88965 101.556 8.88965 100.09C8.88965 98.625 13.1835 97.4375 18.4803 97.4375C23.7771 97.4375 28.0709 98.625 28.0709 100.09Z" fill="#3E78B2"/>
<path opacity="0.1" d="M68.1604 100.085C68.1604 102.01 62.5213 103.569 55.5652 103.569C48.6088 103.569 42.9697 102.01 42.9697 100.085C42.9697 98.1611 48.6088 96.6016 55.5652 96.6016C62.5213 96.6016 68.1604 98.1611 68.1604 100.085Z" fill="#3E78B2"/>
<path opacity="0.1" d="M92.3995 100.089C92.3995 101.391 88.5871 102.445 83.8843 102.445C79.1815 102.445 75.3691 101.39 75.3691 100.089C75.3691 98.7887 79.1815 97.7344 83.8843 97.7344C88.5871 97.7344 92.3995 98.7887 92.3995 100.089Z" fill="#3E78B2"/>
<path opacity="0.1" d="M114.239 100.089C114.239 101.391 110.427 102.445 105.724 102.445C101.021 102.445 97.209 101.39 97.209 100.089C97.209 98.7887 101.021 97.7344 105.724 97.7344C110.427 97.7341 114.239 98.7887 114.239 100.089Z" fill="#3E78B2"/>
<path d="M101.092 41.6241C101.092 41.6241 99.5536 40.5868 99.3203 39.3851L99.9731 39.0796C99.9731 39.0796 99.0225 37.3941 99.573 37.0202C100.124 36.6455 102.839 35.4947 102.529 42.1454" fill="#3E78B2"/>
<path fill-rule="evenodd" clip-rule="evenodd" d="M104.793 29.5946C104.82 27.9801 104.915 26.3709 105.069 24.7641C105.117 24.2616 104.954 24.0878 104.431 24.0566C102.836 23.9618 101.241 23.867 99.6456 23.7806C99.2993 23.7621 95.1379 23.5176 94.7686 23.4955C93.2731 23.4053 91.7775 23.3196 90.2818 23.2346C89.4137 23.1854 89.4031 23.1974 89.3513 24.0852C89.2594 25.6471 89.1665 27.2088 89.0767 28.7709C89.0592 29.0683 88.9906 29.3258 88.6829 29.4609C88.362 29.6016 88.1047 29.5029 87.8635 29.2841C87.7411 29.1722 87.6135 29.0635 87.4776 28.9692C86.7403 28.4561 85.6903 28.4553 84.9399 28.9622C84.1531 29.4938 83.7653 30.4377 83.958 31.3541C84.1486 32.261 84.8669 32.9371 85.7931 33.0948C86.4653 33.2093 87.0737 33.0972 87.6204 32.6647C87.8583 32.4765 88.1263 32.3508 88.4496 32.5207C88.7854 32.6973 88.8372 32.9743 88.8178 33.3173C88.7823 33.9475 88.7818 34.5797 88.753 35.2109C88.6992 36.3907 88.6359 37.5708 88.5766 38.7504C88.6051 38.7816 88.6347 38.813 88.6637 38.8437C88.698 38.8555 88.7333 38.867 88.7679 38.8785C90.5441 38.9743 92.3215 39.0696 94.0978 39.1658C94.423 39.1836 98.5167 39.3768 98.9343 39.4716C100.465 39.5613 101.995 39.6511 103.525 39.7409C103.593 39.7449 103.661 39.749 103.729 39.7531C104.197 39.7454 104.24 39.4236 104.244 39.0643C104.265 37.3843 104.788 29.9244 104.793 29.5946Z" fill="#9BB2DC"/>
<path d="M93.1661 36.2809L93.2937 27.1031C93.2981 26.8038 93.534 26.5739 93.8335 26.5782C94.0661 26.5813 94.3128 26.8009 94.3764 27.0181V27.0015L97.0637 34.6559C98.0299 32.1246 99.0475 29.5283 99.9969 27.0133V27.0296C100.084 26.798 100.268 26.6677 100.517 26.6713C100.783 26.6754 101.046 26.9113 101.043 27.2106L100.914 36.3889C100.91 36.6882 100.641 36.9174 100.375 36.9138C100.076 36.9095 99.8462 36.6735 99.8503 36.374L99.9362 30.189C99.1428 32.2571 98.3664 34.2584 97.5888 36.3258C97.536 36.5749 97.3169 36.7878 97.0509 36.7844C96.8349 36.7813 96.6374 36.6289 96.557 36.3947V36.4117C95.6292 33.7544 95.2442 32.7512 94.3169 30.0774L94.2302 36.2958C94.2261 36.5953 93.9902 36.8247 93.6912 36.8204C93.3919 36.8163 93.1622 36.5804 93.1661 36.2809Z" fill="#3E78B2"/>
<path d="M101.52 78.4789C101.52 78.4789 103.9 78.0745 103.97 78.3596C104.04 78.645 104.907 83.1486 103.791 84.5122C103.791 84.5122 102.068 84.3915 102.147 82.256C102.147 82.256 102.383 80.0202 101.544 79.5615" fill="#3E78B2"/>
<path d="M108.223 69.5974C108.223 69.5974 109.925 67.8859 110.148 68.0775C110.37 68.269 113.693 71.4315 113.576 73.1895C113.576 73.1895 112.103 74.0926 110.927 72.3075C110.927 72.3075 109.821 70.3507 108.871 70.4647" fill="#3E78B2"/>
<path d="M89.3439 55.4373C89.3439 55.4373 89.5712 54.029 89.0199 53.2658L88.5047 53.4715C88.5047 53.4715 88.0597 52.0505 87.56 52.1625C87.0601 52.2749 84.9855 53.1921 88.8803 56.5185" fill="#3E78B2"/>
<path d="M90.7891 47.0635C90.7891 47.0635 91.6401 57.0115 96.7622 55.0464C97.2861 54.8453 101.609 54.3187 102.997 53.3268C104.384 52.3351 106.703 49.9959 109.194 52.434C109.194 52.434 109.082 50.3914 105.91 50.2296C105.91 50.2296 106.486 49.3368 107.448 49.3565C107.448 49.3565 106.019 47.7487 103.6 49.2771C101.182 50.8059 99.9561 43.0032 96.4238 44.3933" fill="#3E78B2"/>
<path d="M93.0799 50.2188C93.0799 50.2188 92.5142 50.6488 92.945 51.2143C93.3756 51.7797 94.283 51.2935 94.283 51.2935" fill="#3E78B2"/>
<path d="M97.4409 48.5788C97.4409 48.5788 98.1494 48.5306 98.1974 49.2395C98.2456 49.9487 97.2422 50.1799 97.2422 50.1799" fill="#3E78B2"/>
<path d="M98.3092 54.1457L96.3925 54.2856L94.9883 50.1989L96.2248 49.8281L98.3092 54.1457Z" fill="#3E78B2"/>
<path d="M95.2152 44.9062L92.4014 46.0191L92.1914 48.3467C92.8833 50.1099 94.264 52.9011 96.3067 52.2423C96.3499 52.2303 96.5462 52.1545 96.587 52.1358C98.5353 51.4028 97.7383 48.2869 97.0977 46.5039L95.2152 44.9062Z" fill="#3E78B2"/>
<path d="M97.4689 44.8413C93.7199 41.7621 90.9078 45.9688 90.7893 47.0637C90.6714 48.1574 91.4663 49.1469 91.4663 49.1469C92.787 49.1664 94.618 48.4932 96.0251 47.8699L95.9757 46.5722L96.5137 47.6472C97.4572 47.2075 98.1138 46.8422 98.1138 46.8422C98.2031 45.99 97.4689 44.8413 97.4689 44.8413Z" fill="#3E78B2"/>
<path d="M109.215 69.6774C105.687 69.0153 102.848 69.7542 101.432 70.2525C101.923 66.7283 102.524 59.3692 99.5926 56.3438L96.5691 56.9769C96.5691 56.9769 94.9877 60.76 94.5759 63.0038C94.2464 64.7966 91.9409 69.3541 91.6592 72.297L91.6152 72.315C91.6191 72.4461 91.6248 72.5742 91.6313 72.7014C91.6203 73.0746 91.652 73.4125 91.7302 73.7092C91.856 74.5461 92.0921 75.2322 92.4975 75.6513C92.4975 75.6513 97.1672 79.7425 101.973 79.9389L102.429 78.5661C102.429 78.5661 97.7487 75.2951 95.5697 74.1253C95.7077 74.1621 95.845 74.2022 95.9799 74.2466C95.646 73.8928 95.8652 73.5582 95.6093 73.3206C95.6093 73.3206 97.226 68.4222 97.381 67.444C97.381 67.444 97.3431 72.7185 98.4809 73.7793C98.5834 73.7793 98.6866 73.7903 98.791 73.8071C98.953 73.9696 99.1148 74.0764 99.2744 74.1073C99.2744 74.1073 108.833 72.3626 109.865 70.601C109.865 70.6014 109.935 69.8128 109.215 69.6774Z" fill="#9BB2DC"/>
<g opacity="0.3">
<path d="M97.4082 66.5291C97.4178 66.4739 97.4243 66.4223 97.4262 66.375C97.4262 66.375 97.4195 66.4326 97.4082 66.5291Z" fill="#6E7C87"/>
</g>
<path d="M101.68 55.4351C101.553 54.9638 101.476 54.5037 101.473 54.0318C101.42 53.9157 101.369 53.8024 101.323 53.6968C101.002 52.9739 101.252 52.3557 101.722 51.9784C100.172 51.3806 99.6853 51.465 99.6853 51.465C99.6853 51.465 95.8335 52.4826 94.2414 54.0477C92.6497 55.613 90.9524 58.5618 90.9524 58.5618L89.3446 55.4382C89.3446 55.4382 88.2214 54.7132 87.9152 55.5734C87.6087 56.4333 89.4274 61.8261 90.4556 62.3865C90.4556 62.3865 93.0207 61.4637 94.3916 57.5255C94.3916 57.5255 94.8147 59.873 94.3695 61.8472C93.9246 63.821 93.0922 64.8021 93.8007 64.9902C94.509 65.1782 96.4448 61.6127 101.665 63.7694C102.91 64.2834 101.771 59.5739 101.86 58.055C101.949 56.5362 101.579 55.3845 101.579 55.3845C101.613 55.4027 101.645 55.4178 101.68 55.4351Z" fill="#3E78B2"/>
<path opacity="0.1" d="M101.679 55.4356C101.607 55.1704 101.552 54.9088 101.516 54.6467C101.224 54.4871 101.036 54.375 101.036 54.375L100.9 56.1608C100.9 56.1608 101.208 59.6612 101.086 61.5632C100.964 63.465 98.4844 62.4697 98.4844 62.4697L99.6009 62.9236L99.7924 63.2C100.364 63.3076 100.986 63.4897 101.664 63.77C102.909 64.2841 101.769 59.5746 101.859 58.0556C101.948 56.5369 101.577 55.3852 101.577 55.3852C101.612 55.4032 101.644 55.4183 101.679 55.4356Z" fill="#9BB2DC"/>
<path d="M102.447 40.5391C102.447 40.5391 100.86 41.1369 101.018 41.5375C101.175 41.9378 101.981 46.1507 102.4 46.8659C102.393 46.8537 101.638 48.3909 101.581 48.5049C100.967 49.7179 100.176 50.0267 99.4733 52.1342C99.3507 52.5026 101.747 54.335 101.517 54.6487C101.876 54.1583 103.5 51.8995 104.52 47.7446C104.52 47.7446 105.947 46.0053 102.447 40.5391Z" fill="#3E78B2"/>
<path opacity="0.3" d="M98.889 72.5019C98.3034 71.5652 97.8354 66.4141 97.8354 66.4141L95.4937 66.5314L96.4302 67.3508L95.1426 72.6188L95.6108 73.3213C95.6108 73.3213 97.2275 68.4229 97.3825 67.4446C97.3825 67.4446 97.3446 72.7191 98.4824 73.7799C98.5849 73.7799 98.6881 73.7909 98.7925 73.8077C98.9545 73.9702 99.1163 74.077 99.2759 74.108C99.2759 74.108 108.834 72.3632 109.866 70.6016C109.866 70.6016 109.889 70.3335 109.766 70.0832C102.707 72.8084 99.441 73.3856 98.889 72.5019Z" fill="#6E7C87"/>
<path d="M99.3976 38.5156C99.6782 38.885 100.243 39.502 100.447 39.9023C100.979 40.9442 99.4557 39.8644 99.4557 39.8644L99.166 38.8927C99.3467 38.861 99.2435 38.6049 99.3976 38.5156Z" fill="#3E78B2"/>
</svg>
