<svg width="60" height="60" viewBox="0 0 60 60" fill="none" xmlns="http://www.w3.org/2000/svg">
<path d="M30 60C46.5685 60 60 46.5685 60 30C60 13.4315 46.5685 0 30 0C13.4315 0 0 13.4315 0 30C0 46.5685 13.4315 60 30 60Z" fill="#FAD24D"/>
<path d="M20.805 8.25H42.1582L47.7851 13.877V42.8773H20.8047V8.25H20.805Z" fill="white"/>
<path d="M24.8713 15.6719H43.7149V16.0967H24.8713V15.6719ZM24.8713 20.2494H43.7149V20.6747H24.8713V20.2494ZM24.8713 21.038H43.7149V21.463H24.8713V21.038ZM24.8713 21.8263H43.7149V22.2513H24.8713V21.8263ZM24.8713 22.6146H43.7159V23.0394H24.8713V22.6146ZM24.8713 16.4605H43.7149V16.8856H24.8713V16.4605ZM24.8713 17.2489H43.7149V17.6741H24.8713V17.2489ZM24.8713 18.0372H43.7159V18.462H24.8713V18.0372ZM24.8711 18.8255H39.305V19.2505H24.8711V18.8255ZM24.8711 23.4033H39.305V23.8286H24.8711V23.4033Z" fill="#C9CACC"/>
<path d="M42.1562 8.25V13.877H47.7832L42.1562 8.25Z" fill="#20D0C2"/>
<path d="M47.783 19.5017V13.875H42.1562L47.783 19.5017Z" fill="#F7FAFA"/>
<path d="M24.8713 26.125H43.7149V26.5498H24.8713V26.125ZM24.8713 30.7024H43.7149V31.1277H24.8713V30.7024ZM24.8713 31.4908H43.7149V31.916H24.8713V31.4908ZM24.8713 32.2791H43.7149V32.7041H24.8713V32.2791ZM24.8713 33.0675H43.7159V33.4923H24.8713V33.0675ZM24.8713 26.9131H43.7149V27.3384H24.8713V26.9131ZM24.8713 27.7014H43.7149V28.1264H24.8713V27.7014ZM24.8713 28.4897H43.7159V28.9148H24.8713V28.4897ZM24.8711 29.278H39.305V29.7031H24.8711V29.278ZM24.8711 33.8556H39.305V34.2809H24.8711V33.8556Z" fill="#C9CACC"/>
<path d="M12.2151 17.125H33.5682L39.1952 22.752V51.7523H12.2148V17.125H12.2151Z" fill="white"/>
<path d="M16.2815 24.5469H35.125V24.9717H16.2815V24.5469ZM16.2815 29.1244H35.125V29.5497H16.2815V29.1244ZM16.2815 29.9129H35.125V30.3379H16.2815V29.9129ZM16.2815 30.7012H35.125V31.1262H16.2815V30.7012ZM16.2815 31.4896H35.1261V31.9144H16.2815V31.4896ZM16.2815 25.3355H35.125V25.7606H16.2815V25.3355ZM16.2815 26.1237H35.125V26.549H16.2815V26.1237ZM16.2815 26.9121H35.1261V27.3369H16.2815V26.9121ZM16.2812 27.7004H30.7152V28.1254H16.2812V27.7004ZM16.2812 32.2782H30.7152V32.7034H16.2812V32.2782Z" fill="#C9CACC"/>
<path d="M33.5664 17.125V22.752H39.1934L33.5664 17.125Z" fill="#20D0C2"/>
<path d="M39.1931 28.3767V22.75H33.5664L39.1931 28.3767Z" fill="#F7FAFA"/>
<path d="M16.2815 35H35.125V35.4248H16.2815V35ZM16.2815 39.5774H35.125V40.0027H16.2815V39.5774ZM16.2815 40.3658H35.125V40.791H16.2815V40.3658ZM16.2815 41.1542H35.125V41.5792H16.2815V41.1542ZM16.2815 41.9424H35.1261V42.3672H16.2815V41.9424ZM16.2815 35.7881H35.125V36.2134H16.2815V35.7881ZM16.2815 36.5764H35.125V37.0014H16.2815V36.5764ZM16.2815 37.3647H35.1261V37.7898H16.2815V37.3647ZM16.2812 38.1529H30.7152V38.578H16.2812V38.1529ZM16.2812 42.7305H30.7152V43.1558H16.2812V42.7305Z" fill="#C9CACC"/>
<path d="M26.7621 46.2725L31.7535 44.2474L31.6806 46.1975C37.4082 47.4098 44.3561 44.9709 43.446 39.2344C44.8781 46.127 39.9199 51.1326 31.4951 48.7883L31.4588 50.9266L26.7617 46.272L26.7621 46.2725Z" fill="#FF5B62"/>
</svg>
