<svg width="400" height="400" viewBox="0 0 400 400" fill="none" xmlns="http://www.w3.org/2000/svg">
<path d="M116.896 149.367L132.752 140.215L116.896 131.062L100.896 140.215L116.896 149.367Z" stroke="#EBEBEB" stroke-width="1.08419" stroke-linecap="round" stroke-linejoin="round"/>
<path d="M104.584 140.225L116.904 104.617V147.337L104.584 140.225Z" fill="#E0E0E0"/>
<path d="M116.904 147.337L129.216 140.225L116.904 104.617V147.337Z" fill="#E6E6E6"/>
<path d="M97.5195 160.531L113.376 151.379L97.5195 142.227L81.5195 151.379L97.5195 160.531Z" stroke="#EBEBEB" stroke-width="1.08419" stroke-linecap="round" stroke-linejoin="round"/>
<path d="M85.207 151.388L97.519 98.5078V158.5L85.207 151.388Z" fill="#E0E0E0"/>
<path d="M97.5195 158.5L109.832 151.388L97.5195 98.5078V158.5Z" fill="#E6E6E6"/>
<path d="M78.1447 171.702L94.0007 162.55L78.1447 153.398L62.1367 162.55L78.1447 171.702Z" stroke="#EBEBEB" stroke-width="1.08419" stroke-linecap="round" stroke-linejoin="round"/>
<path d="M65.832 162.558L78.144 131.062V169.67L65.832 162.558Z" fill="#E0E0E0"/>
<path d="M78.1445 169.67L90.4565 162.558L78.1445 131.062V169.67Z" fill="#E6E6E6"/>
<path d="M58.7678 182.866L74.6238 173.714L58.7678 164.562L42.7598 173.714L58.7678 182.866Z" stroke="#EBEBEB" stroke-width="1.08419" stroke-linecap="round" stroke-linejoin="round"/>
<path d="M46.4473 173.722L58.7673 120.25V180.834L46.4473 173.722Z" fill="#E0E0E0"/>
<path d="M58.7676 180.834L71.0796 173.722L58.7676 120.25V180.834Z" fill="#E6E6E6"/>
<path d="M270.088 137.195L354.648 186.011" stroke="#EBEBEB" stroke-width="1.08419" stroke-miterlimit="10" stroke-linecap="round"/>
<path d="M354.647 180.839C354.544 174.711 354.115 168.593 353.359 162.511C352.559 155.903 350.959 144.751 344.599 141.071C338.239 137.391 335.839 144.047 334.919 147.319C333.719 151.567 327.487 148.879 326.623 141.879C325.759 134.879 325.191 112.575 317.719 108.279C310.247 103.983 307.839 114.343 306.991 117.239C305.319 122.927 300.415 121.359 298.815 117.591C297.215 113.823 292.847 112.903 291.199 118.207C289.551 123.511 288.535 129.599 283.199 126.471C278.511 123.727 280.663 118.727 276.095 116.351C272.479 114.479 270.799 123.407 270.799 132.439L354.647 180.839Z" fill="#E0E0E0"/>
<path d="M348.503 134.289C348.503 135.265 347.623 135.545 346.551 134.929L340.151 131.217C339.625 130.919 339.175 130.503 338.837 130.002C338.498 129.501 338.28 128.929 338.199 128.329C338.199 127.361 339.079 127.073 340.151 127.697L346.551 131.409C347.077 131.706 347.527 132.12 347.866 132.62C348.204 133.12 348.423 133.691 348.503 134.289Z" fill="#E6E6E6"/>
<path d="M322.232 102.899C322.232 103.875 321.36 104.155 320.28 103.539L313.88 99.8267C313.352 99.53 312.902 99.1145 312.563 98.6132C312.224 98.1119 312.007 97.5386 311.928 96.9387C311.928 95.9707 312.8 95.6827 313.88 96.3067L320.28 100.019C320.806 100.314 321.257 100.728 321.596 101.228C321.935 101.728 322.152 102.3 322.232 102.899Z" fill="#E6E6E6"/>
<path d="M301.423 108.68C301.423 109.656 300.551 109.936 299.479 109.32L293.079 105.608C292.552 105.311 292.101 104.896 291.762 104.394C291.423 103.893 291.206 103.32 291.127 102.72C291.127 101.752 291.999 101.464 293.079 102.088L299.479 105.8C300.004 106.097 300.452 106.512 300.79 107.011C301.127 107.511 301.344 108.082 301.423 108.68Z" fill="#E6E6E6"/>
<path d="M281.696 110.586C281.696 111.562 280.824 111.842 279.744 111.218L273.344 107.514C272.819 107.216 272.371 106.799 272.033 106.298C271.696 105.797 271.479 105.225 271.4 104.626C271.4 103.658 272.272 103.37 273.344 103.994L279.744 107.698C280.271 107.996 280.721 108.412 281.06 108.913C281.399 109.414 281.616 109.987 281.696 110.586Z" fill="#E6E6E6"/>
<path d="M266.568 129.99V77.1016" stroke="#EBEBEB" stroke-width="1.08419" stroke-miterlimit="10" stroke-linecap="round"/>
<path d="M257.791 176.799C256.719 173.087 254.802 169.672 252.191 166.823C249.105 163.458 245.496 160.613 241.503 158.399C236.867 155.773 231.937 153.703 226.815 152.231C221.174 150.603 215.386 149.531 209.535 149.031C203.492 148.479 197.411 148.479 191.367 149.031C185.519 149.531 179.734 150.603 174.095 152.231C168.971 153.701 164.038 155.771 159.399 158.399C155.406 160.633 151.8 163.496 148.719 166.879C146.111 169.73 144.194 173.144 143.119 176.855C142.163 180.289 142.163 183.918 143.119 187.351C144.186 191.064 146.103 194.477 148.719 197.319C151.802 200.705 155.411 203.572 159.407 205.807C164.04 208.433 168.968 210.501 174.087 211.967C179.729 213.603 185.516 214.685 191.367 215.199C197.411 215.743 203.491 215.743 209.535 215.199C215.389 214.683 221.179 213.598 226.823 211.959C231.943 210.493 236.87 208.425 241.503 205.799C245.501 203.566 249.11 200.699 252.191 197.311C254.804 194.466 256.721 191.054 257.791 187.343C258.748 183.894 258.748 180.249 257.791 176.799Z" fill="#37474F"/>
<path d="M142.4 176.82H258.504V182.74L142.4 182.412V176.82Z" fill="#37474F"/>
<path d="M191.368 143.734L200.44 176.806L174.096 146.966C179.734 145.327 185.519 144.245 191.368 143.734Z" fill="#3E78B2"/>
<path d="M209.537 143.733L200.465 176.805L191.393 143.717C197.429 143.172 203.502 143.178 209.537 143.733Z" fill="#3E78B2"/>
<path d="M226.817 146.967L200.465 176.807L209.537 143.719C215.389 144.234 221.177 145.322 226.817 146.967Z" fill="#3E78B2"/>
<path d="M252.185 161.602C254.794 164.455 256.71 167.871 257.785 171.586L200.473 176.802L252.185 161.602Z" fill="#3E78B2"/>
<path d="M257.793 171.594C258.741 175.025 258.741 178.65 257.793 182.082L200.473 176.802L257.793 171.594Z" fill="#3E78B2"/>
<path d="M257.793 182.083C256.721 185.796 254.804 189.211 252.193 192.059L200.473 176.859L257.793 182.083Z" fill="#3E78B2"/>
<path d="M252.191 192.061C249.11 195.446 245.5 198.31 241.503 200.541L200.455 176.805L252.191 192.061Z" fill="#3E78B2"/>
<path d="M200.463 176.844L226.823 206.708C221.179 208.337 215.388 209.409 209.535 209.908L200.455 176.82L200.463 176.844Z" fill="#3E78B2"/>
<path d="M200.455 176.852L209.535 209.94C203.492 210.492 197.411 210.492 191.367 209.94L200.455 176.852Z" fill="#3E78B2"/>
<path d="M200.44 176.844L191.352 209.932C185.499 209.433 179.709 208.361 174.064 206.732L200.44 176.844Z" fill="#3E78B2"/>
<path d="M200.439 176.844L174.039 206.708C168.921 205.235 163.994 203.165 159.359 200.54L200.439 176.844Z" fill="#3E78B2"/>
<path d="M200.431 176.805L148.711 192.005C146.097 189.158 144.179 185.743 143.111 182.029L200.431 176.805Z" fill="#3E78B2"/>
<path d="M200.431 176.802L143.119 182.082C142.163 178.651 142.163 175.024 143.119 171.594L200.431 176.802Z" fill="#3E78B2"/>
<path d="M200.431 176.802L143.119 171.562C144.196 167.849 146.112 164.433 148.719 161.578L200.431 176.802Z" fill="#3E78B2"/>
<path d="M159.401 153.141L200.433 176.805L148.721 161.605C151.802 158.227 155.409 155.369 159.401 153.141Z" fill="#3E78B2"/>
<path d="M241.505 153.137L200.465 176.801L226.817 146.945C231.941 148.421 236.871 150.499 241.505 153.137Z" fill="#3E78B2"/>
<path d="M241.505 153.141C245.498 155.367 249.105 158.225 252.185 161.605L200.473 176.805L241.505 153.141Z" fill="#3E78B2"/>
<path d="M200.439 176.805L159.383 200.509C155.387 198.276 151.778 195.412 148.695 192.029L200.415 176.829L200.439 176.805Z" fill="#3E78B2"/>
<path d="M174.096 146.961L200.44 176.801L159.4 153.105C164.039 150.482 168.972 148.42 174.096 146.961Z" fill="#3E78B2"/>
<path d="M200.465 176.844L241.505 200.54C236.871 203.165 231.943 205.235 226.825 206.708L200.465 176.844Z" fill="#3E78B2"/>
<path d="M165.344 143.425L197.944 162.241L196.344 135.641C184.352 136.153 174.168 138.713 165.344 143.425Z" fill="#F46036"/>
<path opacity="0.2" d="M165.344 143.425L197.944 162.241L196.344 135.641C184.352 136.153 174.168 138.713 165.344 143.425Z" fill="white"/>
<path d="M197.944 162.246V172.518L165.344 153.694V143.43L197.944 162.246Z" fill="#F46036"/>
<path opacity="0.1" d="M197.944 162.246V172.518L165.344 153.694V143.43L197.944 162.246Z" fill="black"/>
<path d="M240.209 146.07L202.793 162.95V173.214L240.209 156.334V146.07Z" fill="#F46036"/>
<path opacity="0.3" d="M240.209 146.07L202.793 162.95V173.214L240.209 156.334V146.07Z" fill="black"/>
<path d="M240.209 146.067C230.137 139.211 216.705 135.595 201.137 135.547L202.137 152.179L202.793 162.947L240.209 146.067Z" fill="#F46036"/>
<path opacity="0.1" d="M240.209 146.067C230.137 139.211 216.705 135.595 201.137 135.547L202.137 152.179L202.793 162.947L240.209 146.067Z" fill="black"/>
<path d="M201.129 135.547V145.811L202.793 173.211V162.947L201.129 135.547Z" fill="#263238"/>
<path d="M210.401 182.715L229.529 201.115C230.601 200.707 231.593 200.315 232.729 199.771C245.905 193.835 252.793 184.939 252.785 175.963V165.803C251.337 161.939 247.353 161.947 243.185 158.547L204.121 176.147L203.729 176.323L210.401 182.715Z" fill="#F46036"/>
<path opacity="0.6" d="M210.401 182.715L229.529 201.115C230.601 200.707 231.593 200.315 232.729 199.771C245.905 193.835 252.793 184.939 252.785 175.963V165.803C251.337 161.939 247.353 161.947 243.185 158.547L204.121 176.147L203.729 176.323L210.401 182.715Z" fill="white"/>
<path d="M210.4 172.45L229.528 190.85C230.6 190.442 231.592 190.05 232.728 189.498C254.784 179.538 259.2 161.298 243.2 148.25L204.136 165.85L203.744 166.026L210.4 172.45Z" fill="#F46036"/>
<path opacity="0.8" d="M210.4 172.45L229.528 190.85C230.6 190.442 231.592 190.05 232.728 189.498C254.784 179.538 259.2 161.298 243.2 148.25L204.136 165.85L203.744 166.026L210.4 172.45Z" fill="white"/>
<path d="M229.495 201.103V190.831L203.703 166.055V176.319L229.495 201.103Z" fill="#F46036"/>
<path opacity="0.6" d="M229.495 201.103V190.831L203.703 166.055V176.319L229.495 201.103Z" fill="white"/>
<path d="M161.953 155.648C156.457 159.112 150.353 161.296 148.129 165.504V175.776C148.129 181.128 150.617 186.552 155.777 191.512C162.977 198.416 174.377 203.296 187.921 205.24C200.455 207.091 213.243 206.159 225.377 202.512V192.248L208.537 186.328L198.649 176.8L161.953 155.648Z" fill="#F46036"/>
<path opacity="0.6" d="M161.953 155.648C156.457 159.112 150.353 161.296 148.129 165.504V175.776C148.129 181.128 150.617 186.552 155.777 191.512C162.977 198.416 174.377 203.296 187.921 205.24C200.455 207.091 213.243 206.159 225.377 202.512V192.248L208.537 186.328L198.649 176.8L161.953 155.648Z" fill="black"/>
<path d="M161.951 145.391C146.159 155.327 143.615 169.567 155.775 181.247C162.975 188.159 174.375 193.031 187.919 194.983C200.454 196.829 213.241 195.897 225.375 192.255L208.535 176.071L198.647 166.575L161.951 145.391Z" fill="#F46036"/>
<path opacity="0.3" d="M161.951 145.391C146.159 155.327 143.615 169.567 155.775 181.247C162.975 188.159 174.375 193.031 187.919 194.983C200.454 196.829 213.241 195.897 225.375 192.255L208.535 176.071L198.647 166.575L161.951 145.391Z" fill="black"/>
<path d="M345.191 257.324C344.119 253.611 342.202 250.197 339.591 247.348C336.512 243.964 332.906 241.1 328.911 238.868C324.275 236.242 319.345 234.171 314.223 232.7C308.582 231.072 302.794 230 296.943 229.5C290.9 228.948 284.819 228.948 278.775 229.5C272.927 230.001 267.143 231.072 261.503 232.7C256.382 234.171 251.452 236.242 246.815 238.868C242.818 241.099 239.209 243.963 236.127 247.348C233.519 250.199 231.602 253.612 230.527 257.324C229.572 260.757 229.572 264.387 230.527 267.82C231.594 271.533 233.511 274.946 236.127 277.788C239.21 281.174 242.819 284.04 246.815 286.276C251.45 288.899 256.377 290.966 261.495 292.436C267.141 294.06 272.931 295.132 278.783 295.636C284.827 296.18 290.908 296.18 296.951 295.636C302.804 295.133 308.594 294.061 314.239 292.436C319.36 290.97 324.288 288.899 328.919 286.268C332.919 284.037 336.531 281.174 339.615 277.788C342.226 274.942 344.142 271.53 345.215 267.82C346.16 264.384 346.151 260.756 345.191 257.324Z" fill="#37474F"/>
<path d="M229.801 257.312H345.905V263.232L229.801 262.904V257.312Z" fill="#37474F"/>
<path d="M278.768 224.227L287.848 257.315L261.496 227.459C267.134 225.82 272.919 224.738 278.768 224.227Z" fill="#3E78B2"/>
<path d="M296.935 224.226L287.863 257.314L278.783 224.226C284.821 223.675 290.897 223.675 296.935 224.226Z" fill="#3E78B2"/>
<path d="M314.215 227.459L287.863 257.315L296.935 224.227C302.787 224.737 308.575 225.819 314.215 227.459Z" fill="#3E78B2"/>
<path d="M339.583 242.109C342.194 244.961 344.111 248.378 345.183 252.093L287.871 257.333L339.583 242.109Z" fill="#3E78B2"/>
<path d="M345.193 252.094C346.145 255.525 346.145 259.151 345.193 262.582L287.881 257.334L345.193 252.094Z" fill="#3E78B2"/>
<path d="M345.191 262.576C344.117 266.287 342.2 269.701 339.591 272.552L287.871 257.352L345.191 262.576Z" fill="#3E78B2"/>
<path d="M339.599 272.552C336.511 275.933 332.9 278.797 328.903 281.032L287.855 257.328L339.599 272.552Z" fill="#3E78B2"/>
<path d="M287.863 257.336L314.223 287.2C308.578 288.826 302.788 289.898 296.935 290.4L287.855 257.312L287.863 257.336Z" fill="#3E78B2"/>
<path d="M287.856 257.344L296.936 290.4C290.892 290.948 284.811 290.948 278.768 290.4L287.856 257.344Z" fill="#3E78B2"/>
<path d="M287.848 257.336L278.768 290.4C272.916 289.896 267.126 288.824 261.48 287.2L287.848 257.336Z" fill="#3E78B2"/>
<path d="M287.848 257.336L261.448 287.2C256.33 285.724 251.403 283.654 246.768 281.032L287.848 257.336Z" fill="#3E78B2"/>
<path d="M287.832 257.328L236.112 272.528C233.497 269.682 231.58 266.267 230.512 262.552L287.832 257.328Z" fill="#3E78B2"/>
<path d="M287.832 257.334L230.52 262.582C229.564 259.151 229.564 255.524 230.52 252.094L287.832 257.334Z" fill="#3E78B2"/>
<path d="M287.832 257.326L230.52 252.086C231.594 248.371 233.511 244.955 236.12 242.102L287.832 257.326Z" fill="#3E78B2"/>
<path d="M246.807 233.602L287.831 257.29L236.119 242.09C239.2 238.702 242.809 235.835 246.807 233.602Z" fill="#3E78B2"/>
<path d="M328.903 233.605L287.863 257.293L314.215 227.438C319.338 228.905 324.268 230.976 328.903 233.605Z" fill="#3E78B2"/>
<path d="M328.905 233.602C332.899 235.83 336.506 238.691 339.585 242.074L287.881 257.274L328.905 233.602Z" fill="#3E78B2"/>
<path d="M287.847 257.32L246.799 281.032C242.805 278.797 239.197 275.934 236.111 272.552L287.831 257.352L287.847 257.32Z" fill="#3E78B2"/>
<path d="M261.497 227.461L287.849 257.317L246.809 233.605C251.445 230.984 256.375 228.921 261.497 227.461Z" fill="#3E78B2"/>
<path d="M287.863 257.336L328.903 281.032C324.269 283.657 319.342 285.727 314.223 287.2L287.863 257.336Z" fill="#3E78B2"/>
<path d="M236.712 244.328V260.952C236.291 259.433 236.076 257.864 236.072 256.288V244.328H236.712Z" fill="#F46036"/>
<path opacity="0.3" d="M236.712 244.328V260.952C236.291 259.433 236.076 257.864 236.072 256.288V244.328H236.712Z" fill="black"/>
<path d="M287.832 244.344L236.712 249.016C235.864 245.956 235.864 242.724 236.712 239.664L287.832 244.344Z" fill="#F46036"/>
<path d="M287.833 244.334L236.713 239.654C237.674 236.341 239.385 233.295 241.713 230.75L287.833 244.334Z" fill="#F46036"/>
<path d="M251.241 223.203L287.833 244.331L241.713 230.731C244.464 227.726 247.681 225.184 251.241 223.203Z" fill="#F46036"/>
<path d="M264.344 217.695L287.848 244.319L251.24 223.199C255.376 220.854 259.774 219.006 264.344 217.695Z" fill="#F46036"/>
<path d="M279.752 214.82L287.848 244.324L264.344 217.7C269.373 216.237 274.534 215.273 279.752 214.82Z" fill="#F46036"/>
<path d="M296 214.818L287.864 244.322L279.768 214.818C285.167 214.321 290.6 214.321 296 214.818Z" fill="#F46036"/>
<path d="M311.367 217.7L287.863 244.324L295.999 214.82C301.204 215.275 306.351 216.24 311.367 217.7Z" fill="#F46036"/>
<g opacity="0.2">
<path d="M287.832 244.344L236.712 249.016C235.864 245.956 235.864 242.724 236.712 239.664L287.832 244.344Z" fill="white"/>
<path d="M287.833 244.334L236.713 239.654C237.674 236.341 239.385 233.295 241.713 230.75L287.833 244.334Z" fill="white"/>
<path d="M251.241 223.203L287.833 244.331L241.713 230.731C244.464 227.726 247.681 225.184 251.241 223.203Z" fill="white"/>
<path d="M264.344 217.695L287.848 244.319L251.24 223.199C255.376 220.854 259.774 219.006 264.344 217.695Z" fill="white"/>
<path d="M279.752 214.82L287.848 244.324L264.344 217.7C269.373 216.237 274.534 215.273 279.752 214.82Z" fill="white"/>
<path d="M296 214.818L287.864 244.322L279.768 214.818C285.167 214.321 290.6 214.321 296 214.818Z" fill="white"/>
<path d="M311.369 217.7L287.865 244.324L296.001 214.82C301.206 215.275 306.353 216.24 311.369 217.7Z" fill="white"/>
</g>
<path d="M331.201 252.312L323.529 259.512L317.697 265.024L312.137 270.256L311.393 270.952V282.896C315.962 281.586 320.36 279.742 324.497 277.4C328.06 275.402 331.28 272.844 334.033 269.824C336.36 267.287 338.066 264.245 339.017 260.936C339.441 259.417 339.658 257.849 339.665 256.272V244.336L331.201 252.312Z" fill="#F46036"/>
<path opacity="0.3" d="M331.201 252.312L323.529 259.512L317.697 265.024L312.137 270.256L311.393 270.952V282.896C315.962 281.586 320.36 279.742 324.497 277.4C328.06 275.402 331.28 272.844 334.033 269.824C336.36 267.287 338.066 264.245 339.017 260.936C339.441 259.417 339.658 257.849 339.665 256.272V244.336L331.201 252.312Z" fill="black"/>
<path d="M333.999 230.766C336.324 233.312 338.035 236.358 338.999 239.67L287.871 244.35L333.999 230.766Z" fill="#F46036"/>
<path d="M339.639 244.353C339.633 245.932 339.415 247.504 338.991 249.025L323.503 247.601L287.871 244.337L331.175 240.337L338.991 239.625C339.419 241.165 339.637 242.755 339.639 244.353Z" fill="#F46036"/>
<path d="M338.991 249.024C338.039 252.333 336.333 255.375 334.007 257.913L317.671 253.113L287.871 244.312L323.503 247.576L338.991 249.024Z" fill="#F46036"/>
<path d="M334.009 257.912C331.256 260.931 328.037 263.489 324.473 265.488L312.113 258.336L287.881 244.352L317.681 253.152L334.009 257.912Z" fill="#F46036"/>
<path d="M324.471 223.207L287.863 244.343L311.367 217.719C315.936 219.027 320.334 220.869 324.471 223.207Z" fill="#F46036"/>
<path d="M324.471 223.203C328.032 225.196 331.249 227.749 333.999 230.763L287.871 244.363L324.471 223.203Z" fill="#F46036"/>
<path d="M324.473 265.488C320.336 267.827 315.938 269.669 311.369 270.976L287.881 244.352L312.113 258.336L324.473 265.488Z" fill="#F46036"/>
<g opacity="0.2">
<path d="M333.999 230.766C336.324 233.312 338.035 236.358 338.999 239.67L287.871 244.35L333.999 230.766Z" fill="white"/>
<path d="M339.639 244.361C339.633 245.94 339.415 247.511 338.991 249.033L323.503 247.609L287.871 244.345L331.175 240.345L338.991 239.633C339.419 241.172 339.637 242.763 339.639 244.361Z" fill="white"/>
<path d="M338.991 249.032C338.039 252.34 336.333 255.383 334.007 257.92L317.671 253.12L287.871 244.32L323.503 247.584L338.991 249.032Z" fill="white"/>
<path d="M334.007 257.919C331.254 260.939 328.035 263.497 324.471 265.495L312.111 258.343L287.879 244.359L317.679 253.159L334.007 257.919Z" fill="white"/>
<path d="M324.471 223.207L287.863 244.343L311.367 217.719C315.936 219.027 320.334 220.869 324.471 223.207Z" fill="white"/>
<path d="M324.471 223.203C328.032 225.196 331.249 227.749 333.999 230.763L287.871 244.363L324.471 223.203Z" fill="white"/>
<path d="M324.471 265.495C320.334 267.834 315.936 269.677 311.367 270.983L287.879 244.359L312.111 258.343L324.471 265.495Z" fill="white"/>
</g>
<path d="M311.376 270.984V282.928L287.848 256.272V244.32L311.376 270.984Z" fill="#263238"/>
<path d="M287.849 256.272L236.713 260.968V249.016L287.849 244.32V256.272Z" fill="#F46036"/>
<path opacity="0.1" d="M287.849 256.272L236.713 260.968V249.016L287.849 244.32V256.272Z" fill="black"/>
<path d="M170.401 257.324C169.329 253.611 167.412 250.197 164.801 247.348C161.72 243.965 158.114 241.101 154.121 238.868C149.482 236.24 144.549 234.17 139.425 232.7C133.786 231.072 128.001 230 122.153 229.5C116.109 228.948 110.028 228.948 103.985 229.5C98.1343 230.001 92.3468 231.072 86.7049 232.7C81.5779 234.17 76.6424 236.24 72.0009 238.868C68.0067 241.1 64.4 243.964 61.3209 247.348C58.7099 250.197 56.7933 253.611 55.7209 257.324C54.7727 260.758 54.7727 264.386 55.7209 267.82C56.7914 271.531 58.7084 274.943 61.3209 277.788C64.3994 281.175 68.0061 284.042 72.0009 286.276C76.6339 288.902 81.5615 290.969 86.6809 292.436C92.326 294.061 98.116 295.133 103.969 295.636C110.013 296.18 116.093 296.18 122.137 295.636C127.99 295.133 133.78 294.061 139.425 292.436C144.546 290.97 149.474 288.899 154.105 286.268C158.105 284.038 161.718 281.174 164.801 277.788C167.413 274.943 169.33 271.531 170.401 267.82C171.349 264.386 171.349 260.758 170.401 257.324Z" fill="#37474F"/>
<path d="M55 257.312H171.104V263.232L55 262.904V257.312Z" fill="#37474F"/>
<path d="M104.001 224.227L113.073 257.315L86.7207 227.459C92.3615 225.82 98.1491 224.738 104.001 224.227Z" fill="#3E78B2"/>
<path d="M122.136 224.225L113.064 257.313L104 224.225C110.033 223.675 116.103 223.675 122.136 224.225Z" fill="#3E78B2"/>
<path d="M139.408 227.459L113.064 257.315L122.136 224.227C127.986 224.737 133.771 225.819 139.408 227.459Z" fill="#3E78B2"/>
<path d="M164.8 242.109C167.411 244.961 169.328 248.378 170.4 252.093L113.08 257.333L164.8 242.109Z" fill="#3E78B2"/>
<path d="M170.4 252.094C171.348 255.525 171.348 259.15 170.4 262.582L113.08 257.334L170.4 252.094Z" fill="#3E78B2"/>
<path d="M170.4 262.576C169.328 266.288 167.411 269.703 164.8 272.552L113.08 257.352L170.4 262.576Z" fill="#3E78B2"/>
<path d="M164.801 272.552C161.715 275.933 158.107 278.797 154.113 281.032L113.057 257.328L164.801 272.552Z" fill="#3E78B2"/>
<path d="M113.065 257.336L139.425 287.2C133.78 288.826 127.99 289.898 122.137 290.4L113.049 257.312L113.065 257.336Z" fill="#3E78B2"/>
<path d="M113.048 257.344L122.136 290.4C116.103 290.946 110.033 290.946 104 290.4L113.048 257.344Z" fill="#3E78B2"/>
<path d="M113.041 257.336L104.001 290.4C98.148 289.897 92.358 288.825 86.7129 287.2L113.041 257.336Z" fill="#3E78B2"/>
<path d="M113.04 257.336L86.64 287.2C81.5354 285.724 76.6217 283.654 72 281.032L113.04 257.336Z" fill="#3E78B2"/>
<path d="M113.033 257.328L61.3129 272.528C58.7017 269.679 56.785 266.265 55.7129 262.552L113.033 257.328Z" fill="#3E78B2"/>
<path d="M113.033 257.334L55.7129 262.582C54.765 259.15 54.765 255.525 55.7129 252.094L113.033 257.334Z" fill="#3E78B2"/>
<path d="M113.033 257.326L55.7129 252.086C56.7852 248.37 58.7018 244.954 61.3129 242.102L113.033 257.326Z" fill="#3E78B2"/>
<path d="M72.0003 233.602L113.032 257.29L61.3203 242.09C64.3982 238.702 68.005 235.835 72.0003 233.602Z" fill="#3E78B2"/>
<path d="M154.104 233.605L113.064 257.293L139.408 227.438C144.534 228.904 149.467 230.975 154.104 233.605Z" fill="#3E78B2"/>
<path d="M154.104 233.602C158.105 235.841 161.717 238.712 164.8 242.106L113.088 257.306L154.104 233.602Z" fill="#3E78B2"/>
<path d="M113.041 257.32L72.0005 281.032C68.005 278.799 64.396 275.935 61.3125 272.552L113.032 257.352L113.041 257.32Z" fill="#3E78B2"/>
<path d="M86.688 227.461L113.04 257.317L72 233.605C76.636 230.984 81.5664 228.921 86.688 227.461Z" fill="#3E78B2"/>
<path d="M113.064 257.336L154.104 281.032C149.47 283.657 144.543 285.727 139.424 287.2L113.064 257.336Z" fill="#3E78B2"/>
<path d="M128.487 236.803L135.103 229.299C135.103 220.499 124.351 220.283 119.599 219.859C114.847 219.435 106.695 216.707 106.695 226.723L108.967 235.011C115.528 234.589 122.113 235.194 128.487 236.803Z" fill="#F46036"/>
<path opacity="0.6" d="M128.487 236.803L135.103 229.299C135.103 220.499 124.351 220.283 119.599 219.859C114.847 219.435 106.695 216.707 106.695 226.723L108.967 235.011C115.528 234.589 122.113 235.194 128.487 236.803Z" fill="white"/>
<path d="M128.487 225.02L135.103 217.524C125.839 215.113 116.242 214.243 106.695 214.948L108.967 223.204C115.529 222.79 122.115 223.403 128.487 225.02Z" fill="#F46036"/>
<path opacity="0.8" d="M128.487 225.02L135.103 217.524C125.839 215.113 116.242 214.243 106.695 214.948L108.967 223.204C115.529 222.79 122.115 223.403 128.487 225.02Z" fill="white"/>
<path d="M108.967 223.233V235.025L106.695 226.737V214.945L108.967 223.233Z" fill="#F46036"/>
<path d="M135.104 217.523L128.488 225.019V236.819L135.104 229.315V217.523Z" fill="#F46036"/>
<g opacity="0.6">
<path d="M108.967 223.233V235.025L106.695 226.737V214.945L108.967 223.233Z" fill="white"/>
<path d="M135.104 217.523L128.488 225.019V236.819L135.104 229.315V217.523Z" fill="white"/>
</g>
<path d="M131.721 225.971V237.763C134.481 238.654 137.145 239.82 139.673 241.243C141.878 242.495 143.905 244.04 145.697 245.835L158.673 242.019C156.093 239.386 153.154 237.129 149.945 235.315C146.401 233.283 142.609 225.043 131.721 225.971Z" fill="#F46036"/>
<path opacity="0.6" d="M131.721 225.971V237.763C134.481 238.654 137.145 239.82 139.673 241.243C141.878 242.495 143.905 244.04 145.697 245.835L158.673 242.019C156.093 239.386 153.154 237.129 149.945 235.315C146.401 233.283 142.609 225.043 131.721 225.971Z" fill="black"/>
<path d="M138.337 218.484L131.721 225.972C134.484 226.857 137.148 228.023 139.673 229.452C141.878 230.705 143.905 232.249 145.697 234.044L158.673 230.228C156.097 227.59 153.158 225.333 149.945 223.524C146.267 221.434 142.375 219.744 138.337 218.484Z" fill="#F46036"/>
<path opacity="0.3" d="M138.337 218.484L131.721 225.972C134.484 226.857 137.148 228.023 139.673 229.452C141.878 230.705 143.905 232.249 145.697 234.044L158.673 230.228C156.097 227.59 153.158 225.333 149.945 223.524C146.267 221.434 142.375 219.744 138.337 218.484Z" fill="black"/>
<path d="M145.695 234.043L158.671 230.219V242.019L145.695 245.835V234.043Z" fill="#F46036"/>
<path opacity="0.6" d="M145.695 234.043L158.671 230.219V242.019L145.695 245.835V234.043Z" fill="black"/>
<path d="M165.184 244.507H160.8C160.64 244.299 160.504 244.091 160.344 243.883L147.352 235.883V247.683C150.12 251.243 151.168 255.131 150.448 258.947L164.8 260.283C165.042 259.093 165.163 257.881 165.16 256.667L165.184 244.507Z" fill="#F46036"/>
<path opacity="0.6" d="M165.184 244.507H160.8C160.64 244.299 160.504 244.091 160.344 243.883L147.352 235.883V247.683C150.12 251.243 151.168 255.131 150.448 258.947L164.8 260.283C165.042 259.093 165.163 257.881 165.16 256.667L165.184 244.507Z" fill="black"/>
<path d="M150.44 247.206L164.8 248.494C165.968 242.95 164.488 237.246 160.336 232.094L147.344 235.91C150.112 239.47 151.2 243.366 150.44 247.206Z" fill="#F46036"/>
<path opacity="0.3" d="M150.44 247.206L164.8 248.494C165.968 242.95 164.488 237.246 160.336 232.094L147.344 235.91C150.112 239.47 151.2 243.366 150.44 247.206Z" fill="black"/>
<path d="M164.799 248.492V260.292L150.439 258.972V247.18L164.799 248.492Z" fill="#F46036"/>
<path opacity="0.6" d="M164.799 248.492V260.292L150.439 258.972V247.18L164.799 248.492Z" fill="black"/>
<path d="M105.384 235.363V223.563C97.3841 219.875 82.4881 223.619 77.4961 234.603L87.7681 240.539C93.2855 237.78 99.251 236.027 105.384 235.363Z" fill="#F46036"/>
<path opacity="0.3" d="M105.384 235.363V223.563C97.3841 219.875 82.4881 223.619 77.4961 234.603L87.7681 240.539C93.2855 237.78 99.251 236.027 105.384 235.363Z" fill="black"/>
<path d="M105.384 223.562L103.104 215.25C93.4319 216.338 84.5759 219.002 77.5039 222.81L87.7759 228.738C93.2908 225.979 99.2535 224.227 105.384 223.562Z" fill="#F46036"/>
<path opacity="0.1" d="M105.384 223.562L103.104 215.25C93.4319 216.338 84.5759 219.002 77.5039 222.81L87.7759 228.738C93.2908 225.979 99.2535 224.227 105.384 223.562Z" fill="black"/>
<path d="M87.7681 228.741V240.541L77.4961 234.604V222.812L87.7681 228.741Z" fill="#263238"/>
<path d="M77.0235 230.227L74.9115 236.075C68.0075 240.347 63.6475 245.491 61.8555 250.875L76.2555 252.187C77.5755 248.499 80.5835 244.987 85.2395 242.027V230.227H77.0235Z" fill="#F46036"/>
<path opacity="0.3" d="M77.0235 230.227L74.9115 236.075C68.0075 240.347 63.6475 245.491 61.8555 250.875L76.2555 252.187C77.5755 248.499 80.5835 244.987 85.2395 242.027V230.227H77.0235Z" fill="black"/>
<path d="M85.2075 230.225L74.9115 224.281C68.0075 228.545 63.6475 233.697 61.8555 239.073L76.2555 240.393C77.5435 236.705 80.5515 233.185 85.2075 230.225Z" fill="#F46036"/>
<path opacity="0.1" d="M85.2075 230.225L74.9115 224.281C68.0075 228.545 63.6475 233.697 61.8555 239.073L76.2555 240.393C77.5435 236.705 80.5515 233.185 85.2075 230.225Z" fill="black"/>
<path d="M61.8555 239.078V250.878L76.2235 252.19V240.398L61.8555 239.078Z" fill="#263238"/>
<path d="M75.6559 254.262V242.462L71.3839 242.078L60.9199 244.806V256.59C60.9869 261.272 62.6844 265.785 65.7199 269.35L78.7119 265.534C75.9999 261.974 74.9439 258.078 75.6559 254.262Z" fill="#F46036"/>
<path opacity="0.3" d="M75.6559 254.262V242.462L71.3839 242.078L60.9199 244.806V256.59C60.9869 261.272 62.6844 265.785 65.7199 269.35L78.7119 265.534C75.9999 261.974 74.9439 258.078 75.6559 254.262Z" fill="black"/>
<path d="M65.7676 257.558L78.7596 253.734V265.534L65.7676 269.35V257.558Z" fill="#263238"/>
<path d="M75.6631 242.46L61.2631 241.148C60.0951 246.7 61.5751 252.396 65.7271 257.556L78.7191 253.732C75.9991 250.172 74.9431 246.276 75.6631 242.46Z" fill="#F46036"/>
<path opacity="0.1" d="M75.6631 242.46L61.2631 241.148C60.0951 246.7 61.5751 252.396 65.7271 257.556L78.7191 253.732C75.9991 250.172 74.9431 246.276 75.6631 242.46Z" fill="black"/>
<path d="M91.0323 269.333C84.9443 265.821 81.9043 261.221 81.9043 256.621V244.805H144.2V256.597C144.2 261.205 141.16 265.805 135.072 269.317C122.912 276.357 103.2 276.357 91.0323 269.333Z" fill="#37474F"/>
<path d="M113.056 262.804C130.256 262.804 144.2 254.752 144.2 244.82C144.2 234.888 130.256 226.836 113.056 226.836C95.8558 226.836 81.9121 234.888 81.9121 244.82C81.9121 254.752 95.8558 262.804 113.056 262.804Z" fill="#3E78B2"/>
<path d="M87.7678 272.71V271.206L67.4238 259.422V271.206C70.0047 273.842 72.9459 276.099 76.1598 277.91C79.8378 280 83.7294 281.69 87.7678 282.95L94.3758 275.462C92.1033 274.722 89.8936 273.802 87.7678 272.71Z" fill="#F46036"/>
<path opacity="0.3" d="M87.7678 272.71V271.206L67.4238 259.422V271.206C70.0047 273.842 72.9459 276.099 76.1598 277.91C79.8378 280 83.7294 281.69 87.7678 282.95L94.3758 275.462C92.1033 274.722 89.8936 273.802 87.7678 272.71Z" fill="black"/>
<path d="M86.4006 260.186C84.1924 258.937 82.1634 257.395 80.3686 255.602L67.3926 259.418C69.9756 262.051 72.9164 264.308 76.1286 266.122C79.8082 268.209 83.6994 269.898 87.7366 271.162L94.3446 263.666C91.5842 262.781 88.9221 261.615 86.4006 260.186Z" fill="#F46036"/>
<path opacity="0.1" d="M86.4006 260.186C84.1924 258.937 82.1634 257.395 80.3686 255.602L67.3926 259.418C69.9756 262.051 72.9164 264.308 76.1286 266.122C79.8082 268.209 83.6994 269.898 87.7366 271.162L94.3446 263.666C91.5842 262.781 88.9221 261.615 86.4006 260.186Z" fill="black"/>
<path d="M87.7676 282.952V271.16L94.3756 263.664V275.464L87.7676 282.952Z" fill="#263238"/>
<path d="M91 272.117V283.917C100.264 286.328 109.861 287.198 119.408 286.493V274.701L91 272.117Z" fill="#F46036"/>
<path opacity="0.1" d="M91 272.117V283.917C100.264 286.328 109.861 287.198 119.408 286.493V274.701L91 272.117Z" fill="black"/>
<path d="M97.6004 264.617L90.9844 272.113C100.249 274.523 109.845 275.396 119.392 274.697L117.136 266.401C110.571 266.827 103.98 266.225 97.6004 264.617Z" fill="#F46036"/>
<path opacity="0.2" d="M97.6004 264.617L90.9844 272.113C100.249 274.523 109.845 275.396 119.392 274.697L117.136 266.401C110.571 266.827 103.98 266.225 97.6004 264.617Z" fill="white"/>
<path d="M140.896 271.202L151.2 277.154C158.104 272.89 162.464 267.738 164.256 262.354V250.562L149.856 261.042C148.56 264.73 145.552 268.25 140.896 271.202Z" fill="#F46036"/>
<path opacity="0.1" d="M140.896 271.202L151.2 277.154C158.104 272.89 162.464 267.738 164.256 262.354V250.562L149.856 261.042C148.56 264.73 145.552 268.25 140.896 271.202Z" fill="black"/>
<path d="M140.896 259.41L151.2 265.362C158.104 261.09 162.464 255.946 164.256 250.562L149.856 249.25C148.56 252.938 145.552 256.45 140.896 259.41Z" fill="#F46036"/>
<path opacity="0.2" d="M140.896 259.41L151.2 265.362C158.104 261.09 162.464 255.946 164.256 250.562L149.856 249.25C148.56 252.938 145.552 256.45 140.896 259.41Z" fill="white"/>
<path d="M151.192 265.366V277.158L140.896 271.214V259.414L151.192 265.366Z" fill="#F46036"/>
<path opacity="0.3" d="M151.192 265.366V277.158L140.896 271.214V259.414L151.192 265.366Z" fill="black"/>
<path d="M123.001 274.404V277.604C122.241 277.724 121.489 277.828 120.721 277.916L123.001 286.22C132.321 285.18 141.233 282.66 148.601 278.676V266.844L123.001 274.404Z" fill="#F46036"/>
<path opacity="0.1" d="M123.001 274.404V277.604C122.241 277.724 121.489 277.828 120.721 277.916L123.001 286.22C132.321 285.18 141.233 282.66 148.601 278.676V266.844L123.001 274.404Z" fill="black"/>
<path d="M120.721 266.082L123.001 274.402C132.321 273.362 141.233 270.85 148.601 266.866L138.305 260.914C132.801 263.679 126.845 265.429 120.721 266.082Z" fill="#F46036"/>
<path opacity="0.2" d="M120.721 266.082L123.001 274.402C132.321 273.362 141.233 270.85 148.601 266.866L138.305 260.914C132.801 263.679 126.845 265.429 120.721 266.082Z" fill="white"/>
<path d="M123.001 274.382V286.174L120.721 277.886V266.086L123.001 274.382Z" fill="#F46036"/>
<path opacity="0.3" d="M123.001 274.382V286.174L120.721 277.886V266.086L123.001 274.382Z" fill="black"/>
</svg>
