<svg width="109" height="110" viewBox="0 0 109 110" fill="none" xmlns="http://www.w3.org/2000/svg">
<rect y="9.5" width="100" height="100" rx="50" fill="#E5E5EA"/>
<rect x="69.5" y="1.25" width="38" height="38" rx="19" fill="#E3EFFF"/>
<rect x="69.5" y="1.25" width="38" height="38" rx="19" stroke="white" stroke-width="2"/>
<path d="M88.5 13.25V27.25M81.5 20.25H95.5" stroke="#1E1E1E" stroke-width="2.5" stroke-linecap="round" stroke-linejoin="round"/>
<path d="M67.1875 41.25H34.375V83.4375H67.1875V41.25Z" fill="#E1E5E5"/>
<path d="M65.625 42.8125H35.9375V81.875H65.625V42.8125Z" fill="#FDFFFF"/>
<path d="M43.75 45.9375L65.625 67.8125V50.625L57.8125 42.8125H56.25V45.9375H43.75Z" fill="#E1E5E5"/>
<path d="M56.25 39.6875V45.9375H43.75V39.6875H46.875C46.875 37.9609 48.2734 36.5625 50 36.5625C51.7266 36.5625 53.125 37.9609 53.125 39.6875H56.25ZM53.125 53.75H58.2703L54.9172 57.1031L56.0219 58.2078L59.375 54.8547V60H60.9375V52.1875H53.125V53.75Z" fill="#001F3F"/>
<path d="M54.6875 72.5H45.3125V70.9375H54.6875V72.5ZM54.6875 74.0625H45.3125V75.625H54.6875V74.0625ZM54.6875 77.1875H45.3125V78.75H54.6875V77.1875ZM37.5 83.4375H67.1875V44.375L65.625 42.8125V81.875H35.9375L37.5 83.4375ZM56.25 41.25V42.8125H57.8125L56.25 41.25ZM54.9156 57.1031L50 62.0203L46.875 58.8953L38.8109 66.9594L39.9156 68.0641L46.875 61.1047L50 64.2297L56.0219 58.2078L54.9156 57.1031Z" fill="#001F3F"/>
</svg>
