<svg width="20" height="20" viewBox="0 0 20 20" fill="none" xmlns="http://www.w3.org/2000/svg">
<path d="M19.9905 10.1873C19.9905 9.36792 19.9224 8.76998 19.7752 8.1499H10.1992V11.8482H15.8201C15.7068 12.7673 15.0948 14.1514 13.7349 15.0815L13.7159 15.2053L16.7436 17.4972L16.9534 17.5176C18.8798 15.7791 19.9905 13.2213 19.9905 10.1873Z" fill="#4285F4"/>
<path d="M10.1992 19.9312C12.953 19.9312 15.2648 19.0453 16.9534 17.5173L13.7349 15.0812C12.8737 15.6681 11.7177 16.0777 10.1992 16.0777C7.50211 16.0777 5.21297 14.3393 4.39695 11.9365L4.27734 11.9464L1.12906 14.3271L1.08789 14.439C2.76508 17.6944 6.21016 19.9312 10.1992 19.9312Z" fill="#34A853"/>
<path d="M4.39695 11.9368C4.18164 11.3167 4.05703 10.6523 4.05703 9.96583C4.05703 9.27927 4.18164 8.61492 4.38562 7.99484L4.37992 7.86278L1.19219 5.44385L1.08789 5.49232C0.396641 6.84324 0 8.36026 0 9.96583C0 11.5714 0.396641 13.0884 1.08789 14.4393L4.39695 11.9368Z" fill="#FBBC05"/>
<path d="M10.1992 3.85336C12.1144 3.85336 13.4062 4.66168 14.1429 5.33718L17.0213 2.59107C15.2535 0.985496 12.953 0 10.1992 0C6.21016 0 2.76508 2.23672 1.08789 5.49214L4.38563 7.99466C5.21297 5.59183 7.50211 3.85336 10.1992 3.85336Z" fill="#EB4335"/>
</svg>
