<svg width="100" height="61" viewBox="0 0 100 61" fill="none" xmlns="http://www.w3.org/2000/svg">
<rect y="0.5" width="100" height="60" rx="2" fill="black"/>
<rect x="3" y="19.5" width="20" height="5" rx="1" fill="white"/>
<rect x="3" y="3.5" width="20" height="6" rx="1" fill="white"/>
<rect x="26" y="3.5" width="20" height="6" rx="1" fill="#FF8D28"/>
<rect x="91" y="3.5" width="5" height="5" rx="1" fill="white"/>
<rect x="84" y="3.5" width="5" height="5" rx="1" fill="#FF8D28"/>
<rect x="26" y="12.5" width="70" height="45" rx="1.5" fill="#292929"/>
<rect x="3" y="26.5" width="20" height="5" rx="1" fill="white"/>
<rect x="3" y="33.5" width="20" height="5" rx="1" fill="white"/>
<rect x="3" y="52.5" width="20" height="5" rx="1" fill="white"/>
<rect x="69" y="20" width="20" height="5" rx="1" fill="#FF8D28"/>
<path d="M16.5127 4.70386L18.0272 4.69531L18.0355 4.70386V5.25924L18.0189 5.27632H16.809V5.87443H17.9116L17.9199 5.88297V6.44689H16.809V7.28004C16.8091 7.3362 16.7938 7.36113 16.7279 7.36113C16.662 7.36113 16.3326 7.36113 16.292 7.36113C16.2515 7.36113 16.2114 7.31398 16.2109 7.28004V5.06114C16.2109 4.92409 16.2631 4.75541 16.5127 4.70386Z" fill="#FD9024"/>
<path d="M6.18969 4.68506H6.25366C6.36971 4.68506 6.4856 4.69329 6.60048 4.7097C6.69894 4.73705 6.79525 4.77161 6.88862 4.81311L6.89625 4.8165L6.91075 4.82423C6.98314 4.86284 7.05245 4.90694 7.11808 4.95616L7.2331 5.05474L7.33991 5.16975L7.38356 5.23211C7.39279 5.24529 7.40103 5.25913 7.40823 5.27352L7.42185 5.30077C7.42744 5.31195 7.43133 5.32389 7.43338 5.33622C7.43674 5.35638 7.43512 5.37706 7.42865 5.39645L7.42421 5.40979C7.41737 5.4303 7.40661 5.4493 7.39254 5.46572C7.37418 5.48713 7.35071 5.50355 7.3243 5.51346L7.31947 5.51527C7.30576 5.52041 7.29149 5.52393 7.27695 5.52574L7.2331 5.53122H6.9562C6.9437 5.53122 6.93128 5.52921 6.91943 5.52526C6.89891 5.51842 6.8807 5.50599 6.86685 5.48938L6.85963 5.4807C6.85121 5.47061 6.84411 5.45949 6.83848 5.44762L6.7981 5.36237C6.78144 5.3272 6.76055 5.29418 6.7359 5.26406C6.71144 5.23416 6.68345 5.20733 6.65254 5.18415L6.64867 5.18125C6.61665 5.15724 6.58196 5.13701 6.54529 5.12097L6.50906 5.10512C6.48245 5.09347 6.45466 5.08473 6.42618 5.07903C6.40004 5.07381 6.37344 5.07117 6.34678 5.07117H6.29809C6.2534 5.07117 6.2089 5.077 6.16571 5.08852L6.16433 5.08889C6.12659 5.09895 6.09016 5.11339 6.05577 5.1319C6.01921 5.15158 5.98524 5.17573 5.95463 5.20378L5.93133 5.22515C5.9119 5.24296 5.894 5.26236 5.87782 5.28317C5.85576 5.31152 5.83702 5.34231 5.82196 5.37493L5.79533 5.43264L5.77924 5.48624C5.77354 5.50525 5.76927 5.52466 5.76646 5.5443C5.7638 5.56294 5.76246 5.58175 5.76246 5.60058V5.63408C5.76246 5.6367 5.76265 5.63932 5.76302 5.64192L5.76416 5.64992C5.76778 5.67528 5.7505 5.69889 5.72523 5.7031C5.72267 5.70353 5.72008 5.70374 5.71748 5.70374H5.05202C5.04917 5.70374 5.04635 5.70308 5.0438 5.7018C5.03639 5.6981 5.03238 5.68989 5.034 5.68177L5.03947 5.65445L5.09698 5.49015L5.1627 5.3587L5.22843 5.25191L5.30237 5.15332L5.39275 5.05474C5.43103 5.01646 5.47215 4.98111 5.51574 4.94899L5.60636 4.88222L5.67543 4.84386C5.72791 4.8147 5.7824 4.78935 5.8385 4.76798C5.89727 4.74559 5.95763 4.72764 6.01909 4.71428L6.11574 4.69327L6.18969 4.68506Z" fill="#001F3F"/>
<path d="M6.86354 6.29492H7.58653L7.57832 6.35243L7.52902 6.49209L7.46329 6.63174L7.38935 6.74676L7.32362 6.82891L7.24968 6.91106L7.16752 6.99321L7.02785 7.0918L6.91283 7.15752L6.78959 7.21502L6.62528 7.26431L6.51025 7.28896L6.44453 7.29718H6.16519L6.02552 7.27253L5.90228 7.23967L5.73796 7.17395L5.59008 7.0918L5.48327 7.00964L5.38468 6.91928L5.31895 6.85355L5.22858 6.73854L5.1875 6.65639V6.59067L5.22858 6.50852L5.29431 6.45923L5.31895 6.45101H5.7051L5.74618 6.46744L5.77904 6.50852L5.83655 6.63996L5.9105 6.73854L5.98444 6.80426L6.08303 6.86177L6.1734 6.89463L6.26378 6.91106H6.3788L6.50204 6.8782L6.63349 6.81248L6.73208 6.72211L6.79781 6.63174L6.8471 6.50852L6.86354 6.41815V6.29492Z" fill="#FD9024"/>
<path d="M6.24149 5.24365H6.38937L6.47153 5.2683L6.56191 5.3258L6.62763 5.39974L6.72622 5.59691L6.80017 5.66263L6.87411 5.69549L6.98091 5.7037H7.48208L7.53959 5.72835L7.60532 5.78585L7.5971 5.80229H6.11003L6.04431 5.76942L5.97036 5.7037L5.9375 5.63798V5.57226L5.96215 5.48189L6.00323 5.39974L6.06895 5.3258L6.1429 5.27651L6.24149 5.24365Z" fill="#FD9024"/>
<path d="M5.03906 6.18848L6.559 6.19669L6.63294 6.24598L6.68224 6.3117L6.69045 6.32813V6.4185L6.65759 6.5253L6.60008 6.61567L6.53435 6.67317L6.45219 6.71425L6.34539 6.73889H6.27144L6.17285 6.71425L6.10712 6.68139L6.02497 6.60745L5.97567 6.53351L5.90994 6.38564L5.87708 6.34457L5.80314 6.30349L5.76206 6.28706L5.71276 6.27884L5.12122 6.27063L5.06371 6.23777L5.03906 6.20491V6.18848Z" fill="#001F3F"/>
<path d="M5 5.99951H6.11736L6.31454 6.08166L6.33919 6.09809V6.11452L5.01643 6.10631L5 6.08166V5.99951Z" fill="#001F3F"/>
<path d="M6.32812 5.89307H7.61802L7.62623 5.9095V5.99986L6.58282 6.00808L6.4185 5.94236L6.32812 5.90128V5.89307Z" fill="#FD9024"/>
<path d="M5.01643 5.79443H5.81337L5.87088 5.85194L5.92018 5.89302V5.90123H5.00822L5 5.87659L5.01643 5.79443Z" fill="#001F3F"/>
<path d="M6.73438 6.08984L7.62169 6.09806L7.61347 6.19664L7.60526 6.20486H6.83297L6.73438 6.10627V6.08984Z" fill="#FD9024"/>
<path d="M13.0156 8.21206C13.0156 8.19025 13.0209 8.17493 13.0315 8.16609C13.0421 8.15725 13.0548 8.15283 13.0695 8.15283C13.0849 8.15283 13.0978 8.15725 13.1084 8.16609C13.1196 8.17493 13.1252 8.19025 13.1252 8.21206C13.1252 8.23327 13.1196 8.24859 13.1084 8.25802C13.0978 8.26745 13.0849 8.27217 13.0695 8.27217C13.0548 8.27217 13.0421 8.26745 13.0315 8.25802C13.0209 8.24859 13.0156 8.23327 13.0156 8.21206Z" fill="#001F3F"/>
<path d="M10.4094 7.646L10.2414 8.27715H10.161L10.0381 7.86345C10.0346 7.85108 10.031 7.83841 10.0275 7.82544C10.024 7.81248 10.0207 7.8001 10.0178 7.78831C10.0148 7.77653 10.0122 7.76651 10.0098 7.75826C10.008 7.74942 10.0069 7.74294 10.0063 7.73881C10.0057 7.74294 10.0045 7.74942 10.0027 7.75826C10.0016 7.76651 9.9995 7.77653 9.99655 7.78831C9.9936 7.8001 9.99036 7.81277 9.98683 7.82632C9.98388 7.83929 9.98035 7.85255 9.97622 7.8661L9.85689 8.27715H9.77644L9.60938 7.646H9.69247L9.79059 8.0314C9.79412 8.04496 9.79736 8.05851 9.80031 8.07207C9.80326 8.08503 9.80591 8.098 9.80827 8.11096C9.81121 8.12334 9.81357 8.13542 9.81534 8.1472C9.81711 8.15899 9.81887 8.17048 9.82064 8.18168C9.82241 8.16989 9.82418 8.15781 9.82595 8.14544C9.8283 8.13306 9.83096 8.12039 9.8339 8.10743C9.83685 8.09387 9.84009 8.08032 9.84363 8.06676C9.84716 8.05321 9.8507 8.03995 9.85423 8.02698L9.96561 7.646H10.0478L10.1636 8.02964C10.1677 8.04319 10.1716 8.05704 10.1751 8.07118C10.1786 8.08474 10.1819 8.098 10.1848 8.11096C10.1878 8.12393 10.1901 8.1366 10.1919 8.14897C10.1943 8.16076 10.1963 8.17166 10.1981 8.18168C10.1999 8.16695 10.2022 8.15162 10.2052 8.13571C10.2081 8.11921 10.2116 8.10212 10.2158 8.08444C10.2199 8.06676 10.2243 8.04879 10.229 8.03052L10.3263 7.646H10.4094Z" fill="#001F3F"/>
<path d="M11.1528 7.9499C11.1528 7.99882 11.1467 8.04331 11.1343 8.08338C11.1219 8.12287 11.1033 8.15705 11.0786 8.18592C11.0544 8.2148 11.0241 8.2369 10.9875 8.25222C10.9516 8.26754 10.9098 8.2752 10.862 8.2752C10.8125 8.2752 10.7695 8.26754 10.733 8.25222C10.6964 8.23631 10.6661 8.21421 10.6419 8.18592C10.6178 8.15705 10.5998 8.12257 10.588 8.0825C10.5762 8.04242 10.5703 7.99793 10.5703 7.94902C10.5703 7.8842 10.5809 7.82762 10.6021 7.7793C10.6234 7.73097 10.6555 7.69326 10.6985 7.66615C10.7421 7.63904 10.7969 7.62549 10.8629 7.62549C10.926 7.62549 10.979 7.63904 11.022 7.66615C11.065 7.69267 11.0975 7.73039 11.1193 7.7793C11.1416 7.82762 11.1528 7.88449 11.1528 7.9499ZM10.6543 7.9499C10.6543 8.00294 10.6617 8.04861 10.6764 8.08692C10.6911 8.12522 10.7138 8.15469 10.7445 8.17531C10.7757 8.19594 10.8149 8.20625 10.862 8.20625C10.9098 8.20625 10.9486 8.19594 10.9787 8.17531C11.0093 8.15469 11.032 8.12522 11.0468 8.08692C11.0615 8.04861 11.0689 8.00294 11.0689 7.9499C11.0689 7.87035 11.0524 7.80817 11.0194 7.76339C10.9864 7.71801 10.9342 7.69532 10.8629 7.69532C10.8152 7.69532 10.7757 7.70563 10.7445 7.72626C10.7138 7.7463 10.6911 7.77547 10.6764 7.81377C10.6617 7.85149 10.6543 7.89687 10.6543 7.9499Z" fill="#001F3F"/>
<path d="M11.5726 7.646C11.625 7.646 11.668 7.65277 11.7016 7.66633C11.7358 7.67929 11.7612 7.69903 11.7777 7.72555C11.7942 7.75207 11.8024 7.78537 11.8024 7.82544C11.8024 7.85903 11.7962 7.88702 11.7838 7.90942C11.7715 7.93181 11.7556 7.94979 11.7361 7.96334C11.7173 7.9763 11.6972 7.98662 11.676 7.99428L11.8493 8.27715H11.7564L11.6035 8.01638H11.478V8.27715H11.3984V7.646H11.5726ZM11.5682 7.71495H11.478V7.9492H11.5726C11.6068 7.9492 11.6348 7.94478 11.6566 7.93594C11.6784 7.92651 11.6943 7.91295 11.7043 7.89527C11.7149 7.87759 11.7202 7.8555 11.7202 7.82898C11.7202 7.80128 11.7146 7.77918 11.7034 7.76268C11.6928 7.74618 11.6763 7.7341 11.6539 7.72644C11.6315 7.71878 11.6029 7.71495 11.5682 7.71495Z" fill="#001F3F"/>
<path d="M12.5083 8.27715H12.4146L12.191 7.97571L12.1264 8.03229V8.27715H12.0469V7.646H12.1264V7.95715C12.1441 7.93712 12.1621 7.91708 12.1804 7.89704C12.1986 7.87701 12.2169 7.85697 12.2352 7.83693L12.4058 7.646H12.4986L12.2484 7.92091L12.5083 8.27715Z" fill="#001F3F"/>
<path d="M13.8936 7.646C13.9761 7.646 14.0362 7.6622 14.074 7.69461C14.1117 7.72703 14.1305 7.7727 14.1305 7.83163C14.1305 7.85756 14.1261 7.8826 14.1173 7.90677C14.109 7.93034 14.0952 7.95155 14.0757 7.97041C14.0563 7.98927 14.0304 8.0043 13.9979 8.01549C13.9655 8.0261 13.9257 8.0314 13.8786 8.0314H13.8061V8.27715H13.7266V7.646H13.8936ZM13.8866 7.71406H13.8061V7.96334H13.8698C13.9098 7.96334 13.9431 7.95921 13.9697 7.95096C13.9962 7.94212 14.0159 7.92828 14.0289 7.90942C14.0418 7.89056 14.0483 7.86581 14.0483 7.83516C14.0483 7.7945 14.0354 7.76415 14.0094 7.74412C13.9835 7.72408 13.9425 7.71406 13.8866 7.71406Z" fill="#001F3F"/>
<path d="M14.7199 8.27715H14.3672V7.646H14.7199V7.71583H14.4467V7.91295H14.704V7.9819H14.4467V8.20731H14.7199V8.27715Z" fill="#001F3F"/>
<path d="M15.1507 7.646C15.2032 7.646 15.2462 7.65277 15.2798 7.66633C15.3139 7.67929 15.3393 7.69903 15.3558 7.72555C15.3723 7.75207 15.3805 7.78537 15.3805 7.82544C15.3805 7.85903 15.3743 7.88702 15.362 7.90942C15.3496 7.93181 15.3337 7.94979 15.3142 7.96334C15.2954 7.9763 15.2753 7.98662 15.2541 7.99428L15.4274 8.27715H15.3346L15.1816 8.01638H15.0561V8.27715H14.9766V7.646H15.1507ZM15.1463 7.71495H15.0561V7.9492H15.1507C15.1849 7.9492 15.2129 7.94478 15.2347 7.93594C15.2565 7.92651 15.2724 7.91295 15.2824 7.89527C15.293 7.87759 15.2983 7.8555 15.2983 7.82898C15.2983 7.80128 15.2927 7.77918 15.2815 7.76268C15.2709 7.74618 15.2544 7.7341 15.232 7.72644C15.2096 7.71878 15.1811 7.71495 15.1463 7.71495Z" fill="#001F3F"/>
<path d="M15.7046 8.27715H15.625V7.646H15.9777V7.71583H15.7046V7.93947H15.9609V8.00931H15.7046V8.27715Z" fill="#001F3F"/>
<path d="M16.5636 8.27715H16.2109V7.646H16.5636V7.71583H16.2905V7.91295H16.5477V7.9819H16.2905V8.20731H16.5636V8.27715Z" fill="#001F3F"/>
<path d="M17.0914 7.69532C17.0578 7.69532 17.0274 7.70121 17.0003 7.713C16.9732 7.7242 16.9502 7.74099 16.9314 7.76339C16.9125 7.78519 16.8981 7.812 16.8881 7.84383C16.878 7.87506 16.873 7.91042 16.873 7.9499C16.873 8.00176 16.881 8.04684 16.8969 8.08515C16.9134 8.12345 16.9376 8.15292 16.9694 8.17355C17.0018 8.19417 17.0422 8.20448 17.0905 8.20448C17.1182 8.20448 17.1444 8.20213 17.1692 8.19741C17.1939 8.1927 17.2181 8.18681 17.2417 8.17973V8.24868C17.2181 8.25752 17.1936 8.26401 17.1683 8.26813C17.1435 8.27226 17.1138 8.27432 17.079 8.27432C17.0148 8.27432 16.9611 8.26106 16.9181 8.23454C16.8751 8.20802 16.8427 8.17031 16.8209 8.12139C16.7997 8.07248 16.7891 8.01502 16.7891 7.94902C16.7891 7.90129 16.7955 7.85768 16.8085 7.81819C16.8221 7.77871 16.8415 7.74453 16.8669 7.71565C16.8928 7.68678 16.9246 7.66468 16.9623 7.64936C17 7.63344 17.0433 7.62549 17.0923 7.62549C17.1247 7.62549 17.1559 7.62873 17.186 7.63521C17.216 7.64169 17.2428 7.65083 17.2664 7.66261L17.2346 7.7298C17.2151 7.72096 17.1933 7.713 17.1692 7.70593C17.1456 7.69886 17.1197 7.69532 17.0914 7.69532Z" fill="#001F3F"/>
<path d="M17.7376 8.27715H17.6581V7.71583H17.4609V7.646H17.9339V7.71583H17.7376V8.27715Z" fill="#001F3F"/>
<path d="M18.5011 8.27715H18.1484V7.646H18.5011V7.71583H18.228V7.91295H18.4852V7.9819H18.228V8.20731H18.5011V8.27715Z" fill="#001F3F"/>
<path d="M19.2556 7.95538C19.2556 8.0261 19.2424 8.08533 19.2158 8.13306C19.1899 8.18079 19.1525 8.21674 19.1036 8.2409C19.0547 8.26507 18.9954 8.27715 18.9259 8.27715H18.75V7.646H18.9445C19.0081 7.646 19.0632 7.65778 19.1098 7.68135C19.1563 7.70493 19.1923 7.7397 19.2176 7.78566C19.243 7.83104 19.2556 7.88761 19.2556 7.95538ZM19.1717 7.95804C19.1717 7.90205 19.1622 7.85608 19.1434 7.82014C19.1251 7.78419 19.098 7.75767 19.062 7.74058C19.0267 7.7229 18.9837 7.71406 18.933 7.71406H18.8296V8.20908H18.9153C19.0008 8.20908 19.0647 8.18816 19.1071 8.14632C19.1501 8.10389 19.1717 8.04113 19.1717 7.95804Z" fill="#001F3F"/>
<path d="M9.38859 5.50037C9.38168 5.41399 9.34929 5.3466 9.29141 5.29823C9.23439 5.24985 9.14757 5.22566 9.03095 5.22566C8.95665 5.22566 8.89575 5.23473 8.84824 5.25287C8.80159 5.27015 8.76703 5.29391 8.74457 5.32414C8.72211 5.35438 8.71045 5.38893 8.70958 5.42781C8.70786 5.45977 8.71347 5.48871 8.72643 5.51463C8.74025 5.53968 8.76185 5.56257 8.79122 5.58331C8.82059 5.60318 8.85817 5.62132 8.90396 5.63773C8.94974 5.65414 9.00417 5.66883 9.06723 5.68179L9.28493 5.72844C9.43179 5.75954 9.55748 5.80057 9.66201 5.85154C9.76654 5.90251 9.85207 5.96255 9.91859 6.03166C9.9851 6.09991 10.0339 6.17679 10.065 6.26232C10.097 6.34784 10.1134 6.44114 10.1143 6.54221C10.1134 6.71672 10.0698 6.86444 9.98338 6.98538C9.89699 7.10633 9.77345 7.19833 9.61277 7.26139C9.45295 7.32446 9.26074 7.35599 9.03613 7.35599C8.80547 7.35599 8.60419 7.32187 8.43228 7.25362C8.26123 7.18537 8.12819 7.08041 8.03317 6.93874C7.939 6.79619 7.89149 6.61392 7.89062 6.3919H8.57482C8.57914 6.4731 8.59944 6.54135 8.63572 6.59664C8.67201 6.65193 8.72297 6.69383 8.78863 6.72233C8.85515 6.75084 8.93419 6.76509 9.02576 6.76509C9.10265 6.76509 9.16701 6.75559 9.21884 6.73659C9.27067 6.71758 9.30998 6.69123 9.33676 6.65754C9.36354 6.62385 9.37736 6.58541 9.37823 6.54221C9.37736 6.50161 9.36397 6.46619 9.33806 6.43596C9.313 6.40486 9.27154 6.37721 9.21366 6.35302C9.15578 6.32797 9.0776 6.30465 8.97911 6.28305L8.71477 6.22603C8.47979 6.17506 8.29449 6.08997 8.15886 5.97076C8.02409 5.85068 7.95714 5.68697 7.95801 5.47964C7.95714 5.31118 8.00207 5.16389 8.09277 5.03777C8.18434 4.91078 8.3109 4.81186 8.47245 4.74102C8.63486 4.67018 8.82102 4.63477 9.03095 4.63477C9.24519 4.63477 9.43049 4.67062 9.58685 4.74232C9.74322 4.81402 9.86373 4.91509 9.94839 5.04554C10.0339 5.17512 10.0771 5.32673 10.078 5.50037H9.38859Z" fill="#001F3F"/>
<path d="M10.5686 4.69678C10.7661 4.69678 10.9262 4.8569 10.9262 5.05442V6.99297C10.9262 7.19049 10.7661 7.35062 10.5686 7.35062C10.3711 7.35062 10.2109 7.19049 10.2109 6.99297V5.05442C10.2109 4.8569 10.3711 4.69678 10.5686 4.69678Z" fill="#001F3F"/>
<path d="M18.4748 4.69678C18.6724 4.69678 18.8325 4.8569 18.8325 5.05442V6.99297C18.8325 7.19049 18.6724 7.35062 18.4748 7.35062C18.2773 7.35062 18.1172 7.19049 18.1172 6.99297V5.05442C18.1172 4.8569 18.2773 4.69678 18.4748 4.69678Z" fill="#FD9024"/>
<path d="M11.4905 7.35081C11.2929 7.35081 11.1328 7.19068 11.1328 6.99316V5.71807C11.1328 5.52055 11.2929 5.36043 11.4905 5.36043C11.688 5.36043 11.8481 5.52055 11.8481 5.71807V6.99316C11.8481 7.19068 11.688 7.35081 11.4905 7.35081ZM11.4905 5.15309C11.3937 5.15309 11.3108 5.12113 11.2417 5.0572C11.1726 4.99328 11.138 4.91639 11.138 4.82655C11.138 4.7367 11.1726 4.65982 11.2417 4.59589C11.3108 4.53196 11.3937 4.5 11.4905 4.5C11.5881 4.5 11.671 4.53196 11.7393 4.59589C11.8084 4.65982 11.8429 4.7367 11.8429 4.82655C11.8429 4.91639 11.8084 4.99328 11.7393 5.0572C11.671 5.12113 11.5881 5.15309 11.4905 5.15309Z" fill="#001F3F"/>
<path d="M12.9924 7.3558C12.7764 7.3558 12.5916 7.31304 12.4378 7.22752C12.284 7.14113 12.1661 7.02105 12.084 6.86728C12.002 6.71264 11.9609 6.53339 11.9609 6.32951C11.9609 6.12564 12.002 5.94681 12.084 5.79304C12.1661 5.63841 12.284 5.51833 12.4378 5.4328C12.5916 5.34642 12.7764 5.30322 12.9924 5.30322C13.1876 5.30322 13.3565 5.33864 13.4991 5.40948C13.6425 5.47945 13.7535 5.5788 13.8321 5.70752C13.9107 5.83537 13.9401 5.87612 13.9513 6.0535L13.2879 6.15846C13.2784 6.05394 13.2481 5.97446 13.1972 5.92003C13.147 5.86475 13.0823 5.8371 13.0028 5.8371C12.9406 5.8371 12.8862 5.85524 12.8395 5.89153C12.7929 5.92694 12.7566 5.98094 12.7307 6.0535C12.7047 6.12521 12.6918 6.21548 12.6918 6.32433C12.6918 6.43318 12.7047 6.52389 12.7307 6.59645C12.7566 6.66815 12.7929 6.72215 12.8395 6.75843C12.8862 6.79385 12.9406 6.81156 13.0028 6.81156C13.0555 6.81156 13.1021 6.79946 13.1427 6.77528C13.1833 6.75022 13.2162 6.71394 13.2412 6.66643C13.2671 6.61805 13.2827 6.55931 13.2879 6.49019L13.9513 6.57532C13.9351 6.74256 13.9086 6.81847 13.8308 6.94892C13.7531 7.0785 13.6429 7.17871 13.5004 7.24955C13.3587 7.32038 13.1894 7.3558 12.9924 7.3558Z" fill="#001F3F"/>
<path d="M15.0497 7.3558C14.8372 7.3558 14.6541 7.3152 14.5003 7.234C14.3474 7.15193 14.2295 7.03444 14.1465 6.88153C14.0645 6.72776 14.0234 6.54376 14.0234 6.32951C14.0234 6.12391 14.0649 5.94422 14.1478 5.79045C14.2308 5.63668 14.3478 5.51703 14.499 5.43151C14.6502 5.34598 14.8286 5.30322 15.0342 5.30322C15.1845 5.30322 15.3206 5.32655 15.4424 5.3732C15.5642 5.41985 15.6683 5.48766 15.7547 5.57664C15.841 5.66476 15.9076 5.77188 15.9542 5.898C16.0009 6.02413 16.0242 6.16624 16.0242 6.32433V6.49019H14.2463V6.09627H15.3659C15.365 6.03925 15.3504 5.98914 15.3219 5.94595C15.2942 5.90189 15.2566 5.86777 15.2091 5.84358C15.1625 5.81853 15.1093 5.806 15.0497 5.806C14.9918 5.806 14.9387 5.81853 14.8903 5.84358C14.842 5.86777 14.8031 5.90146 14.7737 5.94465C14.7452 5.98785 14.7301 6.03839 14.7284 6.09627V6.52129C14.7284 6.58522 14.7418 6.64224 14.7685 6.69234C14.7953 6.74245 14.8338 6.78175 14.8839 6.81026C14.934 6.83877 14.9944 6.85302 15.0653 6.85302C15.1145 6.85302 15.1594 6.84611 15.2 6.83229C15.2415 6.81847 15.2769 6.7986 15.3063 6.77268C15.3357 6.7459 15.3573 6.71394 15.3711 6.67679L16.0242 6.77268C15.9773 6.90474 15.9486 6.93509 15.8648 7.03703C15.781 7.13811 15.67 7.21672 15.5318 7.27287C15.3944 7.32816 15.2337 7.3558 15.0497 7.3558Z" fill="#001F3F"/>
<path d="M19.969 7.35629C19.753 7.35629 19.5681 7.31353 19.4144 7.22801C19.2606 7.14162 19.1427 7.02154 19.0606 6.86777C18.9785 6.71313 18.9375 6.53388 18.9375 6.33C18.9375 6.12613 18.9785 5.9473 19.0606 5.79353C19.1427 5.6389 19.2606 5.51882 19.4144 5.43329C19.5681 5.3469 19.753 5.30371 19.969 5.30371C20.1849 5.30371 20.3698 5.3469 20.5236 5.43329C20.6774 5.51882 20.7953 5.6389 20.8773 5.79353C20.9594 5.9473 21.0004 6.12613 21.0004 6.33C21.0004 6.53388 20.9594 6.71313 20.8773 6.86777C20.7953 7.02154 20.6774 7.14162 20.5236 7.22801C20.3698 7.31353 20.1849 7.35629 19.969 7.35629ZM19.9742 6.8276C20.0346 6.8276 20.0869 6.8073 20.131 6.76669C20.175 6.72609 20.2091 6.66821 20.2333 6.59305C20.2575 6.5179 20.2696 6.42848 20.2696 6.32482C20.2696 6.22029 20.2575 6.13088 20.2333 6.05658C20.2091 5.98143 20.175 5.92355 20.131 5.88294C20.0869 5.84234 20.0346 5.82204 19.9742 5.82204C19.9102 5.82204 19.8554 5.84234 19.8096 5.88294C19.7638 5.92355 19.7288 5.98143 19.7046 6.05658C19.6804 6.13088 19.6683 6.22029 19.6683 6.32482C19.6683 6.42848 19.6804 6.5179 19.7046 6.59305C19.7288 6.66821 19.7638 6.72609 19.8096 6.76669C19.8554 6.8073 19.9102 6.8276 19.9742 6.8276Z" fill="#FD9024"/>
<rect x="69" y="27" width="20" height="5" rx="1" fill="#FF8D28"/>
<rect x="69" y="34" width="20" height="5" rx="1" fill="#FF8D28"/>
</svg>
