<svg width="100" height="61" viewBox="0 0 100 61" fill="none" xmlns="http://www.w3.org/2000/svg">
<rect y="0.5" width="100" height="60" rx="2" fill="#001F3F" fill-opacity="0.8"/>
<rect x="3" y="19.5" width="20" height="5" rx="1" fill="#001F3F"/>
<rect x="3" y="3.5" width="20" height="6" rx="1" fill="white"/>
<rect x="26" y="3.5" width="20" height="6" rx="1" fill="#001F3F"/>
<rect x="91" y="3.5" width="5" height="5" rx="1" fill="white"/>
<rect x="84" y="3.5" width="5" height="5" rx="1" fill="#001F3F"/>
<rect x="26" y="12.5" width="70" height="45" rx="1.5" fill="#001F3F"/>
<rect x="3" y="26.5" width="20" height="5" rx="1" fill="#001F3F"/>
<rect x="3" y="33.5" width="20" height="5" rx="1" fill="#001F3F"/>
<rect x="3" y="52.5" width="20" height="5" rx="1" fill="white"/>
<rect x="69" y="20" width="20" height="5" rx="1" fill="#334C65"/>
<path d="M16.5166 4.70386L18.0311 4.69531L18.0394 4.70386V5.25924L18.0228 5.27632H16.8129V5.87443H17.9155L17.9238 5.88297V6.44689H16.8129V7.28004C16.813 7.3362 16.7977 7.36113 16.7318 7.36113C16.6659 7.36113 16.3365 7.36113 16.2959 7.36113C16.2554 7.36113 16.2153 7.31398 16.2148 7.28004V5.06114C16.2148 4.92409 16.267 4.75541 16.5166 4.70386Z" fill="#FD9024"/>
<path d="M6.18969 4.68555H6.25366C6.36971 4.68555 6.4856 4.69378 6.60048 4.71019C6.69894 4.73754 6.79525 4.7721 6.88862 4.8136L6.89625 4.81699L6.91075 4.82472C6.98314 4.86332 7.05245 4.90743 7.11808 4.95665L7.2331 5.05523L7.33991 5.17024L7.38356 5.2326C7.39279 5.24578 7.40103 5.25962 7.40823 5.27401L7.42185 5.30126C7.42744 5.31244 7.43133 5.32438 7.43338 5.3367C7.43674 5.35687 7.43512 5.37755 7.42865 5.39694L7.42421 5.41027C7.41737 5.43079 7.40661 5.44979 7.39254 5.46621C7.37418 5.48762 7.35071 5.50404 7.3243 5.51394L7.31947 5.51576C7.30576 5.5209 7.29149 5.52441 7.27695 5.52623L7.2331 5.53171H6.9562C6.9437 5.53171 6.93128 5.5297 6.91943 5.52574C6.89891 5.5189 6.8807 5.50648 6.86685 5.48986L6.85963 5.48119C6.85121 5.4711 6.84411 5.45998 6.83848 5.44811L6.7981 5.36286C6.78144 5.32769 6.76055 5.29467 6.7359 5.26455C6.71144 5.23465 6.68345 5.20782 6.65254 5.18464L6.64867 5.18174C6.61665 5.15773 6.58196 5.1375 6.54529 5.12145L6.50906 5.1056C6.48245 5.09396 6.45466 5.08522 6.42618 5.07952C6.40004 5.07429 6.37344 5.07166 6.34678 5.07166H6.29809C6.2534 5.07166 6.2089 5.07749 6.16571 5.08901L6.16433 5.08938C6.12659 5.09944 6.09016 5.11387 6.05577 5.13239C6.01921 5.15207 5.98524 5.17622 5.95463 5.20427L5.93133 5.22564C5.9119 5.24344 5.894 5.26285 5.87782 5.28365C5.85576 5.31201 5.83702 5.3428 5.82196 5.37542L5.79533 5.43313L5.77924 5.48673C5.77354 5.50574 5.76927 5.52515 5.76646 5.54479C5.7638 5.56343 5.76246 5.58224 5.76246 5.60107V5.63457C5.76246 5.63719 5.76265 5.63981 5.76302 5.64241L5.76416 5.65041C5.76778 5.67576 5.7505 5.69938 5.72523 5.70359C5.72267 5.70402 5.72008 5.70423 5.71748 5.70423H5.05202C5.04917 5.70423 5.04635 5.70357 5.0438 5.70229C5.03639 5.69859 5.03238 5.69038 5.034 5.68225L5.03947 5.65494L5.09698 5.49064L5.1627 5.35919L5.22843 5.25239L5.30237 5.15381L5.39275 5.05523C5.43103 5.01695 5.47215 4.9816 5.51574 4.94948L5.60636 4.88271L5.67543 4.84434C5.72791 4.81519 5.7824 4.78983 5.8385 4.76846C5.89727 4.74608 5.95763 4.72813 6.01909 4.71477L6.11574 4.69376L6.18969 4.68555Z" fill="#001F3F"/>
<path d="M6.86354 6.2959H7.58653L7.57832 6.3534L7.52902 6.49306L7.46329 6.63272L7.38935 6.74773L7.32362 6.82989L7.24968 6.91204L7.16752 6.99419L7.02785 7.09277L6.91283 7.15849L6.78959 7.216L6.62528 7.26529L6.51025 7.28994L6.44453 7.29815H6.16519L6.02552 7.27351L5.90228 7.24065L5.73796 7.17492L5.59008 7.09277L5.48327 7.01062L5.38468 6.92025L5.31895 6.85453L5.22858 6.73952L5.1875 6.65737V6.59165L5.22858 6.50949L5.29431 6.4602L5.31895 6.45199H5.7051L5.74618 6.46842L5.77904 6.50949L5.83655 6.64094L5.9105 6.73952L5.98444 6.80524L6.08303 6.86275L6.1734 6.89561L6.26378 6.91204H6.3788L6.50204 6.87918L6.63349 6.81346L6.73208 6.72309L6.79781 6.63272L6.8471 6.50949L6.86354 6.41913V6.2959Z" fill="#FD9024"/>
<path d="M6.24149 5.24414H6.38937L6.47153 5.26879L6.56191 5.32629L6.62763 5.40023L6.72622 5.59739L6.80017 5.66312L6.87411 5.69598L6.98091 5.70419H7.48208L7.53959 5.72884L7.60532 5.78634L7.5971 5.80277H6.11003L6.04431 5.76991L5.97036 5.70419L5.9375 5.63847V5.57275L5.96215 5.48238L6.00323 5.40023L6.06895 5.32629L6.1429 5.277L6.24149 5.24414Z" fill="#FD9024"/>
<path d="M5.03906 6.18945L6.559 6.19767L6.63294 6.24696L6.68224 6.31268L6.69045 6.32911V6.41948L6.65759 6.52628L6.60008 6.61664L6.53435 6.67415L6.45219 6.71523L6.34539 6.73987H6.27144L6.17285 6.71523L6.10712 6.68236L6.02497 6.60843L5.97567 6.53449L5.90994 6.38662L5.87708 6.34554L5.80314 6.30447L5.76206 6.28804L5.71276 6.27982L5.12122 6.27161L5.06371 6.23874L5.03906 6.20588V6.18945Z" fill="#001F3F"/>
<path d="M5 6H6.11736L6.31454 6.08215L6.33919 6.09858V6.11501L5.01643 6.1068L5 6.08215V6Z" fill="#001F3F"/>
<path d="M6.32812 5.89355H7.61802L7.62623 5.90999V6.00035L6.58282 6.00857L6.4185 5.94285L6.32812 5.90177V5.89355Z" fill="#FD9024"/>
<path d="M5.01643 5.79492H5.81337L5.87088 5.85243L5.92018 5.8935V5.90172H5.00822L5 5.87707L5.01643 5.79492Z" fill="#001F3F"/>
<path d="M6.73047 6.09082L7.61778 6.09904L7.60957 6.19762L7.60135 6.20583H6.82906L6.73047 6.10725V6.09082Z" fill="#FD9024"/>
<path d="M13.0117 8.21157C13.0117 8.18976 13.017 8.17444 13.0276 8.1656C13.0382 8.15676 13.0509 8.15234 13.0656 8.15234C13.081 8.15234 13.0939 8.15676 13.1045 8.1656C13.1157 8.17444 13.1213 8.18976 13.1213 8.21157C13.1213 8.23278 13.1157 8.24811 13.1045 8.25754C13.0939 8.26696 13.081 8.27168 13.0656 8.27168C13.0509 8.27168 13.0382 8.26696 13.0276 8.25754C13.017 8.24811 13.0117 8.23278 13.0117 8.21157Z" fill="#001F3F"/>
<path d="M10.4055 7.64551L10.2375 8.27666H10.1571L10.0342 7.86296C10.0307 7.85059 10.0271 7.83792 10.0236 7.82495C10.02 7.81199 10.0168 7.79961 10.0139 7.78783C10.0109 7.77604 10.0083 7.76602 10.0059 7.75777C10.0041 7.74893 10.003 7.74245 10.0024 7.73832C10.0018 7.74245 10.0006 7.74893 9.99883 7.75777C9.99765 7.76602 9.99559 7.77604 9.99265 7.78783C9.9897 7.79961 9.98646 7.81228 9.98292 7.82584C9.97997 7.8388 9.97644 7.85206 9.97231 7.86561L9.85298 8.27666H9.77254L9.60547 7.64551H9.68856L9.78668 8.03092C9.79022 8.04447 9.79346 8.05802 9.79641 8.07158C9.79935 8.08454 9.802 8.09751 9.80436 8.11047C9.80731 8.12285 9.80966 8.13493 9.81143 8.14672C9.8132 8.1585 9.81497 8.16999 9.81674 8.18119C9.8185 8.1694 9.82027 8.15732 9.82204 8.14495C9.8244 8.13257 9.82705 8.1199 9.83 8.10694C9.83294 8.09338 9.83618 8.07983 9.83972 8.06627C9.84326 8.05272 9.84679 8.03946 9.85033 8.0265L9.96171 7.64551H10.0439L10.1597 8.02915C10.1638 8.0427 10.1677 8.05655 10.1712 8.07069C10.1747 8.08425 10.178 8.09751 10.1809 8.11047C10.1839 8.12344 10.1862 8.13611 10.188 8.14848C10.1904 8.16027 10.1924 8.17117 10.1942 8.18119C10.196 8.16646 10.1983 8.15114 10.2013 8.13522C10.2042 8.11872 10.2077 8.10163 10.2119 8.08395C10.216 8.06627 10.2204 8.0483 10.2251 8.03003L10.3224 7.64551H10.4055Z" fill="#001F3F"/>
<path d="M11.1528 7.94941C11.1528 7.99833 11.1467 8.04282 11.1343 8.08289C11.1219 8.12238 11.1033 8.15656 11.0786 8.18543C11.0544 8.21431 11.0241 8.23641 10.9875 8.25173C10.9516 8.26705 10.9098 8.27471 10.862 8.27471C10.8125 8.27471 10.7695 8.26705 10.733 8.25173C10.6964 8.23582 10.6661 8.21372 10.6419 8.18543C10.6178 8.15656 10.5998 8.12208 10.588 8.08201C10.5762 8.04194 10.5703 7.99744 10.5703 7.94853C10.5703 7.88371 10.5809 7.82713 10.6021 7.77881C10.6234 7.73049 10.6555 7.69277 10.6985 7.66566C10.7421 7.63855 10.7969 7.625 10.8629 7.625C10.926 7.625 10.979 7.63855 11.022 7.66566C11.065 7.69218 11.0975 7.7299 11.1193 7.77881C11.1416 7.82713 11.1528 7.884 11.1528 7.94941ZM10.6543 7.94941C10.6543 8.00245 10.6617 8.04812 10.6764 8.08643C10.6911 8.12473 10.7138 8.1542 10.7445 8.17483C10.7757 8.19545 10.8149 8.20576 10.862 8.20576C10.9098 8.20576 10.9486 8.19545 10.9787 8.17483C11.0093 8.1542 11.032 8.12473 11.0468 8.08643C11.0615 8.04812 11.0689 8.00245 11.0689 7.94941C11.0689 7.86986 11.0524 7.80769 11.0194 7.7629C10.9864 7.71752 10.9342 7.69483 10.8629 7.69483C10.8152 7.69483 10.7757 7.70515 10.7445 7.72577C10.7138 7.74581 10.6911 7.77498 10.6764 7.81328C10.6617 7.851 10.6543 7.89638 10.6543 7.94941Z" fill="#001F3F"/>
<path d="M11.5687 7.64551C11.6211 7.64551 11.6641 7.65228 11.6977 7.66584C11.7319 7.6788 11.7573 7.69855 11.7738 7.72506C11.7903 7.75158 11.7985 7.78488 11.7985 7.82495C11.7985 7.85854 11.7923 7.88654 11.7799 7.90893C11.7676 7.93132 11.7517 7.9493 11.7322 7.96285C11.7133 7.97582 11.6933 7.98613 11.6721 7.99379L11.8454 8.27666H11.7525L11.5996 8.01589H11.4741V8.27666H11.3945V7.64551H11.5687ZM11.5643 7.71446H11.4741V7.94871H11.5687C11.6029 7.94871 11.6308 7.94429 11.6526 7.93545C11.6745 7.92602 11.6904 7.91247 11.7004 7.89479C11.711 7.87711 11.7163 7.85501 11.7163 7.82849C11.7163 7.80079 11.7107 7.77869 11.6995 7.76219C11.6889 7.74569 11.6724 7.73361 11.65 7.72595C11.6276 7.71829 11.599 7.71446 11.5643 7.71446Z" fill="#001F3F"/>
<path d="M12.5044 8.27666H12.4107L12.1871 7.97523L12.1225 8.0318V8.27666H12.043V7.64551H12.1225V7.95666C12.1402 7.93663 12.1582 7.91659 12.1764 7.89655C12.1947 7.87652 12.213 7.85648 12.2313 7.83644L12.4019 7.64551H12.4947L12.2445 7.92042L12.5044 8.27666Z" fill="#001F3F"/>
<path d="M13.8936 7.64551C13.9761 7.64551 14.0362 7.66171 14.074 7.69413C14.1117 7.72654 14.1305 7.77221 14.1305 7.83114C14.1305 7.85707 14.1261 7.88212 14.1173 7.90628C14.109 7.92985 14.0952 7.95106 14.0757 7.96992C14.0563 7.98878 14.0304 8.00381 13.9979 8.015C13.9655 8.02561 13.9257 8.03092 13.8786 8.03092H13.8061V8.27666H13.7266V7.64551H13.8936ZM13.8866 7.71357H13.8061V7.96285H13.8698C13.9098 7.96285 13.9431 7.95873 13.9697 7.95048C13.9962 7.94164 14.0159 7.92779 14.0289 7.90893C14.0418 7.89007 14.0483 7.86532 14.0483 7.83468C14.0483 7.79401 14.0354 7.76366 14.0094 7.74363C13.9835 7.72359 13.9425 7.71357 13.8866 7.71357Z" fill="#001F3F"/>
<path d="M14.716 8.27666H14.3633V7.64551H14.716V7.71534H14.4428V7.91247H14.7001V7.98141H14.4428V8.20683H14.716V8.27666Z" fill="#001F3F"/>
<path d="M15.1429 7.64551C15.1953 7.64551 15.2384 7.65228 15.2719 7.66584C15.3061 7.6788 15.3315 7.69855 15.348 7.72506C15.3645 7.75158 15.3727 7.78488 15.3727 7.82495C15.3727 7.85854 15.3665 7.88654 15.3542 7.90893C15.3418 7.93132 15.3259 7.9493 15.3064 7.96285C15.2876 7.97582 15.2675 7.98613 15.2463 7.99379L15.4196 8.27666H15.3268L15.1738 8.01589H15.0483V8.27666H14.9688V7.64551H15.1429ZM15.1385 7.71446H15.0483V7.94871H15.1429C15.1771 7.94871 15.2051 7.94429 15.2269 7.93545C15.2487 7.92602 15.2646 7.91247 15.2746 7.89479C15.2852 7.87711 15.2905 7.85501 15.2905 7.82849C15.2905 7.80079 15.2849 7.77869 15.2737 7.76219C15.2631 7.74569 15.2466 7.73361 15.2242 7.72595C15.2018 7.71829 15.1732 7.71446 15.1385 7.71446Z" fill="#001F3F"/>
<path d="M15.7007 8.27666H15.6211V7.64551H15.9738V7.71534H15.7007V7.93898H15.957V8.00882H15.7007V8.27666Z" fill="#001F3F"/>
<path d="M16.5597 8.27666H16.207V7.64551H16.5597V7.71534H16.2866V7.91247H16.5438V7.98141H16.2866V8.20683H16.5597V8.27666Z" fill="#001F3F"/>
<path d="M17.0875 7.69483C17.0539 7.69483 17.0235 7.70073 16.9964 7.71251C16.9693 7.72371 16.9463 7.7405 16.9275 7.7629C16.9086 7.7847 16.8942 7.81152 16.8842 7.84334C16.8741 7.87457 16.8691 7.90993 16.8691 7.94941C16.8691 8.00127 16.8771 8.04636 16.893 8.08466C16.9095 8.12297 16.9337 8.15243 16.9655 8.17306C16.9979 8.19368 17.0383 8.204 17.0866 8.204C17.1143 8.204 17.1405 8.20164 17.1653 8.19692C17.19 8.19221 17.2142 8.18632 17.2377 8.17925V8.24819C17.2142 8.25703 17.1897 8.26352 17.1644 8.26764C17.1396 8.27177 17.1099 8.27383 17.0751 8.27383C17.0109 8.27383 16.9572 8.26057 16.9142 8.23405C16.8712 8.20753 16.8388 8.16982 16.817 8.1209C16.7958 8.07199 16.7852 8.01453 16.7852 7.94853C16.7852 7.9008 16.7916 7.85719 16.8046 7.8177C16.8182 7.77822 16.8376 7.74404 16.8629 7.71516C16.8889 7.68629 16.9207 7.66419 16.9584 7.64887C16.9961 7.63296 17.0394 7.625 17.0884 7.625C17.1208 7.625 17.152 7.62824 17.1821 7.63472C17.2121 7.64121 17.2389 7.65034 17.2625 7.66213L17.2307 7.72931C17.2112 7.72047 17.1894 7.71251 17.1653 7.70544C17.1417 7.69837 17.1158 7.69483 17.0875 7.69483Z" fill="#001F3F"/>
<path d="M17.7376 8.27666H17.6581V7.71534H17.4609V7.64551H17.9339V7.71534H17.7376V8.27666Z" fill="#001F3F"/>
<path d="M18.4972 8.27666H18.1445V7.64551H18.4972V7.71534H18.2241V7.91247H18.4813V7.98141H18.2241V8.20683H18.4972V8.27666Z" fill="#001F3F"/>
<path d="M19.2478 7.9549C19.2478 8.02561 19.2346 8.08484 19.208 8.13257C19.1821 8.18031 19.1447 8.21625 19.0958 8.24042C19.0469 8.26458 18.9876 8.27666 18.9181 8.27666H18.7422V7.64551H18.9367C19.0003 7.64551 19.0554 7.65729 19.102 7.68087C19.1485 7.70444 19.1845 7.73921 19.2098 7.78517C19.2351 7.83055 19.2478 7.88712 19.2478 7.9549ZM19.1638 7.95755C19.1638 7.90156 19.1544 7.8556 19.1356 7.81965C19.1173 7.7837 19.0902 7.75718 19.0542 7.74009C19.0189 7.72241 18.9758 7.71357 18.9252 7.71357H18.8217V8.20859H18.9075C18.9929 8.20859 19.0569 8.18767 19.0993 8.14583C19.1423 8.1034 19.1638 8.04064 19.1638 7.95755Z" fill="#001F3F"/>
<path d="M9.3925 5.50037C9.38559 5.41399 9.35319 5.3466 9.29531 5.29823C9.2383 5.24985 9.15148 5.22566 9.03485 5.22566C8.96056 5.22566 8.89966 5.23473 8.85214 5.25287C8.80549 5.27015 8.77094 5.29391 8.74848 5.32414C8.72602 5.35438 8.71435 5.38893 8.71349 5.42781C8.71176 5.45977 8.71738 5.48871 8.73034 5.51463C8.74416 5.53968 8.76575 5.56257 8.79513 5.58331C8.8245 5.60318 8.86208 5.62132 8.90786 5.63773C8.95365 5.65414 9.00807 5.66883 9.07114 5.68179L9.28883 5.72844C9.43569 5.75954 9.56139 5.80057 9.66592 5.85154C9.77045 5.90251 9.85597 5.96255 9.92249 6.03166C9.98901 6.09991 10.0378 6.17679 10.0689 6.26232C10.1009 6.34784 10.1173 6.44114 10.1182 6.54221C10.1173 6.71672 10.0737 6.86444 9.98728 6.98538C9.90089 7.10633 9.77736 7.19833 9.61668 7.26139C9.45686 7.32446 9.26465 7.35599 9.04004 7.35599C8.80938 7.35599 8.6081 7.32187 8.43618 7.25362C8.26514 7.18537 8.1321 7.08041 8.03707 6.93874C7.94291 6.79619 7.8954 6.61392 7.89453 6.3919H8.57872C8.58304 6.4731 8.60335 6.54135 8.63963 6.59664C8.67591 6.65193 8.72688 6.69383 8.79254 6.72233C8.85905 6.75084 8.9381 6.76509 9.02967 6.76509C9.10656 6.76509 9.17092 6.75559 9.22275 6.73659C9.27458 6.71758 9.31389 6.69123 9.34067 6.65754C9.36745 6.62385 9.38127 6.58541 9.38213 6.54221C9.38127 6.50161 9.36788 6.46619 9.34196 6.43596C9.31691 6.40486 9.27544 6.37721 9.21756 6.35302C9.15968 6.32797 9.0815 6.30465 8.98302 6.28305L8.71867 6.22603C8.4837 6.17506 8.2984 6.08997 8.16277 5.97076C8.028 5.85068 7.96105 5.68697 7.96191 5.47964C7.96105 5.31118 8.00597 5.16389 8.09668 5.03777C8.18825 4.91078 8.31481 4.81186 8.47635 4.74102C8.63876 4.67018 8.82493 4.63477 9.03485 4.63477C9.2491 4.63477 9.4344 4.67062 9.59076 4.74232C9.74712 4.81402 9.86764 4.91509 9.9523 5.04554C10.0378 5.17512 10.081 5.32673 10.0819 5.50037H9.3925Z" fill="#001F3F"/>
<path d="M10.5686 4.69727C10.7661 4.69727 10.9262 4.85739 10.9262 5.05491V6.99346C10.9262 7.19098 10.7661 7.35111 10.5686 7.35111C10.3711 7.35111 10.2109 7.19098 10.2109 6.99346V5.05491C10.2109 4.85739 10.3711 4.69727 10.5686 4.69727Z" fill="#001F3F"/>
<path d="M18.4748 4.69727C18.6724 4.69727 18.8325 4.85739 18.8325 5.05491V6.99346C18.8325 7.19098 18.6724 7.35111 18.4748 7.35111C18.2773 7.35111 18.1172 7.19098 18.1172 6.99346V5.05491C18.1172 4.85739 18.2773 4.69727 18.4748 4.69727Z" fill="#FD9024"/>
<path d="M11.4905 7.35081C11.2929 7.35081 11.1328 7.19068 11.1328 6.99316V5.71807C11.1328 5.52055 11.2929 5.36043 11.4905 5.36043C11.688 5.36043 11.8481 5.52055 11.8481 5.71807V6.99316C11.8481 7.19068 11.688 7.35081 11.4905 7.35081ZM11.4905 5.15309C11.3937 5.15309 11.3108 5.12113 11.2417 5.0572C11.1726 4.99328 11.138 4.91639 11.138 4.82655C11.138 4.7367 11.1726 4.65982 11.2417 4.59589C11.3108 4.53196 11.3937 4.5 11.4905 4.5C11.5881 4.5 11.671 4.53196 11.7393 4.59589C11.8084 4.65982 11.8429 4.7367 11.8429 4.82655C11.8429 4.91639 11.8084 4.99328 11.7393 5.0572C11.671 5.12113 11.5881 5.15309 11.4905 5.15309Z" fill="#001F3F"/>
<path d="M12.9963 7.35532C12.7803 7.35532 12.5955 7.31255 12.4417 7.22703C12.2879 7.14064 12.17 7.02056 12.0879 6.86679C12.0059 6.71216 11.9648 6.5329 11.9648 6.32902C11.9648 6.12515 12.0059 5.94633 12.0879 5.79255C12.17 5.63792 12.2879 5.51784 12.4417 5.43232C12.5955 5.34593 12.7803 5.30273 12.9963 5.30273C13.1916 5.30273 13.3604 5.33815 13.503 5.40899C13.6464 5.47897 13.7574 5.57831 13.836 5.70703C13.9146 5.83488 13.9441 5.87563 13.9552 6.05301L13.2918 6.15798C13.2823 6.05345 13.252 5.97397 13.2011 5.91955C13.151 5.86426 13.0862 5.83661 13.0067 5.83661C12.9445 5.83661 12.8901 5.85475 12.8434 5.89104C12.7968 5.92646 12.7605 5.98045 12.7346 6.05301C12.7086 6.12472 12.6957 6.21499 12.6957 6.32384C12.6957 6.43269 12.7086 6.5234 12.7346 6.59596C12.7605 6.66767 12.7968 6.72166 12.8434 6.75794C12.8901 6.79336 12.9445 6.81107 13.0067 6.81107C13.0594 6.81107 13.106 6.79898 13.1466 6.77479C13.1872 6.74973 13.2201 6.71345 13.2451 6.66594C13.271 6.61756 13.2866 6.55882 13.2918 6.48971L13.9552 6.57483C13.939 6.74208 13.9125 6.81798 13.8347 6.94843C13.757 7.07801 13.6468 7.17822 13.5043 7.24906C13.3626 7.3199 13.1933 7.35532 12.9963 7.35532Z" fill="#001F3F"/>
<path d="M15.0458 7.35532C14.8333 7.35532 14.6502 7.31471 14.4964 7.23351C14.3435 7.15144 14.2256 7.03395 14.1426 6.88104C14.0606 6.72727 14.0195 6.54327 14.0195 6.32902C14.0195 6.12342 14.061 5.94373 14.1439 5.78996C14.2269 5.63619 14.3439 5.51654 14.4951 5.43102C14.6463 5.3455 14.8247 5.30273 15.0303 5.30273C15.1806 5.30273 15.3166 5.32606 15.4385 5.37271C15.5603 5.41936 15.6644 5.48717 15.7507 5.57615C15.8371 5.66427 15.9037 5.77139 15.9503 5.89752C15.997 6.02364 16.0203 6.16575 16.0203 6.32384V6.48971H14.2424V6.09578H15.362C15.3611 6.03876 15.3465 5.98866 15.3179 5.94546C15.2903 5.9014 15.2527 5.86728 15.2052 5.84309C15.1586 5.81804 15.1054 5.80551 15.0458 5.80551C14.9879 5.80551 14.9348 5.81804 14.8864 5.84309C14.8381 5.86728 14.7992 5.90097 14.7698 5.94417C14.7413 5.98736 14.7262 6.0379 14.7245 6.09578V6.52081C14.7245 6.58473 14.7378 6.64175 14.7646 6.69185C14.7914 6.74196 14.8299 6.78127 14.88 6.80977C14.9301 6.83828 14.9905 6.85254 15.0614 6.85254C15.1106 6.85254 15.1555 6.84563 15.1961 6.8318C15.2376 6.81798 15.273 6.79811 15.3024 6.7722C15.3318 6.74542 15.3534 6.71345 15.3672 6.6763L16.0203 6.7722C15.9734 6.90425 15.9447 6.93461 15.8609 7.03654C15.7771 7.13762 15.6661 7.21623 15.5279 7.27238C15.3905 7.32767 15.2298 7.35532 15.0458 7.35532Z" fill="#001F3F"/>
<path d="M19.969 7.35629C19.753 7.35629 19.5681 7.31353 19.4144 7.22801C19.2606 7.14162 19.1427 7.02154 19.0606 6.86777C18.9785 6.71313 18.9375 6.53388 18.9375 6.33C18.9375 6.12613 18.9785 5.9473 19.0606 5.79353C19.1427 5.6389 19.2606 5.51882 19.4144 5.43329C19.5681 5.3469 19.753 5.30371 19.969 5.30371C20.1849 5.30371 20.3698 5.3469 20.5236 5.43329C20.6774 5.51882 20.7953 5.6389 20.8773 5.79353C20.9594 5.9473 21.0004 6.12613 21.0004 6.33C21.0004 6.53388 20.9594 6.71313 20.8773 6.86777C20.7953 7.02154 20.6774 7.14162 20.5236 7.22801C20.3698 7.31353 20.1849 7.35629 19.969 7.35629ZM19.9742 6.8276C20.0346 6.8276 20.0869 6.8073 20.131 6.76669C20.175 6.72609 20.2091 6.66821 20.2333 6.59305C20.2575 6.5179 20.2696 6.42848 20.2696 6.32482C20.2696 6.22029 20.2575 6.13088 20.2333 6.05658C20.2091 5.98143 20.175 5.92355 20.131 5.88294C20.0869 5.84234 20.0346 5.82204 19.9742 5.82204C19.9102 5.82204 19.8554 5.84234 19.8096 5.88294C19.7638 5.92355 19.7288 5.98143 19.7046 6.05658C19.6804 6.13088 19.6683 6.22029 19.6683 6.32482C19.6683 6.42848 19.6804 6.5179 19.7046 6.59305C19.7288 6.66821 19.7638 6.72609 19.8096 6.76669C19.8554 6.8073 19.9102 6.8276 19.9742 6.8276Z" fill="#FD9024"/>
<rect x="69" y="27" width="20" height="5" rx="1" fill="#334C65"/>
<rect x="69" y="34" width="20" height="5" rx="1" fill="#334C65"/>
</svg>
