<svg width="104" height="65" viewBox="0 0 104 65" fill="none" xmlns="http://www.w3.org/2000/svg">
<g filter="url(#filter0_d_7112_63449)">
<rect x="2" y="2.5" width="100" height="60" rx="2" fill="white"/>
<path d="M52 2.5H100C101.105 2.5 102 3.39543 102 4.5V60.5C102 61.6046 101.105 62.5 100 62.5H52V2.5Z" fill="#001F3F" fill-opacity="0.8"/>
<rect x="5" y="21.5" width="20" height="5" rx="1" fill="#D9D9D9"/>
<rect x="5" y="5.5" width="20" height="6" rx="1" fill="#001F3F"/>
<rect x="28" y="5.5" width="20" height="6" rx="1" fill="#D9D9D9"/>
<rect x="86" y="5.5" width="5" height="5" rx="1" fill="#001F3F"/>
<rect x="93" y="5.5" width="5" height="5" rx="1" fill="#D9D9D9"/>
<rect x="28" y="14.5" width="70" height="45" rx="1.5" fill="#D9D9D9"/>
<rect x="5" y="28.5" width="20" height="5" rx="1" fill="#D9D9D9"/>
<rect x="5" y="35.5" width="20" height="5" rx="1" fill="#D9D9D9"/>
<rect x="5" y="54.5" width="20" height="5" rx="1" fill="#001F3F"/>
<path d="M18.5166 6.70386L20.0311 6.69531L20.0394 6.70386V7.25924L20.0228 7.27632H18.8129V7.87443H19.9155L19.9238 7.88297V8.44689H18.8129V9.28004C18.813 9.3362 18.7977 9.36113 18.7318 9.36113C18.6659 9.36113 18.3365 9.36113 18.2959 9.36113C18.2554 9.36113 18.2153 9.31398 18.2148 9.28004V7.06114C18.2148 6.92409 18.267 6.75541 18.5166 6.70386Z" fill="#FD9024"/>
<path d="M8.18969 6.68555H8.25366C8.36971 6.68555 8.4856 6.69378 8.60048 6.71019C8.69894 6.73754 8.79525 6.7721 8.88862 6.8136L8.89625 6.81699L8.91075 6.82472C8.98314 6.86332 9.05245 6.90743 9.11808 6.95665L9.2331 7.05523L9.33991 7.17024L9.38356 7.2326C9.39279 7.24578 9.40103 7.25962 9.40823 7.27401L9.42185 7.30126C9.42744 7.31244 9.43133 7.32438 9.43338 7.3367C9.43674 7.35687 9.43512 7.37755 9.42865 7.39694L9.42421 7.41027C9.41737 7.43079 9.40661 7.44979 9.39254 7.46621C9.37418 7.48762 9.35071 7.50404 9.3243 7.51394L9.31947 7.51576C9.30576 7.5209 9.29149 7.52441 9.27695 7.52623L9.2331 7.53171H8.9562C8.9437 7.53171 8.93128 7.5297 8.91943 7.52574C8.89891 7.5189 8.8807 7.50648 8.86685 7.48986L8.85963 7.48119C8.85121 7.4711 8.84411 7.45998 8.83848 7.44811L8.7981 7.36286C8.78144 7.32769 8.76055 7.29467 8.7359 7.26455C8.71144 7.23465 8.68345 7.20782 8.65254 7.18464L8.64867 7.18174C8.61665 7.15773 8.58196 7.1375 8.54529 7.12145L8.50906 7.1056C8.48245 7.09396 8.45466 7.08522 8.42618 7.07952C8.40004 7.07429 8.37344 7.07166 8.34678 7.07166H8.29809C8.2534 7.07166 8.2089 7.07749 8.16571 7.08901L8.16433 7.08938C8.12659 7.09944 8.09016 7.11387 8.05577 7.13239C8.01921 7.15207 7.98524 7.17622 7.95463 7.20427L7.93133 7.22564C7.9119 7.24344 7.894 7.26285 7.87782 7.28365C7.85576 7.31201 7.83702 7.3428 7.82196 7.37542L7.79533 7.43313L7.77924 7.48673C7.77354 7.50574 7.76927 7.52515 7.76646 7.54479C7.7638 7.56343 7.76246 7.58224 7.76246 7.60107V7.63457C7.76246 7.63719 7.76265 7.63981 7.76302 7.64241L7.76416 7.65041C7.76778 7.67576 7.7505 7.69938 7.72523 7.70359C7.72267 7.70402 7.72008 7.70423 7.71748 7.70423H7.05202C7.04917 7.70423 7.04635 7.70357 7.0438 7.70229C7.03639 7.69859 7.03238 7.69038 7.034 7.68225L7.03947 7.65494L7.09698 7.49064L7.1627 7.35919L7.22843 7.25239L7.30237 7.15381L7.39275 7.05523C7.43103 7.01695 7.47215 6.9816 7.51574 6.94948L7.60636 6.88271L7.67543 6.84434C7.72791 6.81519 7.7824 6.78983 7.8385 6.76846C7.89727 6.74608 7.95763 6.72813 8.01909 6.71477L8.11574 6.69376L8.18969 6.68555Z" fill="white"/>
<path d="M8.86354 8.2959H9.58653L9.57832 8.3534L9.52902 8.49306L9.46329 8.63272L9.38935 8.74773L9.32362 8.82989L9.24968 8.91204L9.16752 8.99419L9.02785 9.09277L8.91283 9.15849L8.78959 9.216L8.62528 9.26529L8.51025 9.28994L8.44453 9.29815H8.16519L8.02552 9.27351L7.90228 9.24065L7.73796 9.17492L7.59008 9.09277L7.48327 9.01062L7.38468 8.92025L7.31895 8.85453L7.22858 8.73952L7.1875 8.65737V8.59165L7.22858 8.50949L7.29431 8.4602L7.31895 8.45199H7.7051L7.74618 8.46842L7.77904 8.50949L7.83655 8.64094L7.9105 8.73952L7.98444 8.80524L8.08303 8.86275L8.1734 8.89561L8.26378 8.91204H8.3788L8.50204 8.87918L8.63349 8.81346L8.73208 8.72309L8.79781 8.63272L8.8471 8.50949L8.86354 8.41913V8.2959Z" fill="#FD9024"/>
<path d="M8.24149 7.24414H8.38937L8.47153 7.26879L8.56191 7.32629L8.62763 7.40023L8.72622 7.59739L8.80017 7.66312L8.87411 7.69598L8.98091 7.70419H9.48208L9.53959 7.72884L9.60532 7.78634L9.5971 7.80277H8.11003L8.04431 7.76991L7.97036 7.70419L7.9375 7.63847V7.57275L7.96215 7.48238L8.00323 7.40023L8.06895 7.32629L8.1429 7.277L8.24149 7.24414Z" fill="#FD9024"/>
<path d="M7.03906 8.18945L8.559 8.19767L8.63294 8.24696L8.68224 8.31268L8.69045 8.32911V8.41948L8.65759 8.52628L8.60008 8.61664L8.53435 8.67415L8.45219 8.71523L8.34539 8.73987H8.27144L8.17285 8.71523L8.10712 8.68236L8.02497 8.60843L7.97567 8.53449L7.90994 8.38662L7.87708 8.34554L7.80314 8.30447L7.76206 8.28804L7.71276 8.27982L7.12122 8.27161L7.06371 8.23874L7.03906 8.20588V8.18945Z" fill="white"/>
<path d="M7 8H8.11736L8.31454 8.08215L8.33919 8.09858V8.11501L7.01643 8.1068L7 8.08215V8Z" fill="white"/>
<path d="M8.32812 7.89355H9.61802L9.62623 7.90999V8.00035L8.58282 8.00857L8.4185 7.94285L8.32812 7.90177V7.89355Z" fill="#FD9024"/>
<path d="M7.01643 7.79492H7.81337L7.87088 7.85243L7.92018 7.8935V7.90172H7.00822L7 7.87707L7.01643 7.79492Z" fill="white"/>
<path d="M8.73047 8.09082L9.61778 8.09904L9.60957 8.19762L9.60135 8.20583H8.82906L8.73047 8.10725V8.09082Z" fill="#FD9024"/>
<path d="M15.0117 10.2116C15.0117 10.1898 15.017 10.1744 15.0276 10.1656C15.0382 10.1568 15.0509 10.1523 15.0656 10.1523C15.081 10.1523 15.0939 10.1568 15.1045 10.1656C15.1157 10.1744 15.1213 10.1898 15.1213 10.2116C15.1213 10.2328 15.1157 10.2481 15.1045 10.2575C15.0939 10.267 15.081 10.2717 15.0656 10.2717C15.0509 10.2717 15.0382 10.267 15.0276 10.2575C15.017 10.2481 15.0117 10.2328 15.0117 10.2116Z" fill="white"/>
<path d="M12.4055 9.64551L12.2375 10.2767H12.1571L12.0342 9.86296C12.0307 9.85059 12.0271 9.83792 12.0236 9.82495C12.02 9.81199 12.0168 9.79961 12.0139 9.78783C12.0109 9.77604 12.0083 9.76602 12.0059 9.75777C12.0041 9.74893 12.003 9.74245 12.0024 9.73832C12.0018 9.74245 12.0006 9.74893 11.9988 9.75777C11.9977 9.76602 11.9956 9.77604 11.9926 9.78783C11.9897 9.79961 11.9865 9.81228 11.9829 9.82584C11.98 9.8388 11.9764 9.85206 11.9723 9.86561L11.853 10.2767H11.7725L11.6055 9.64551H11.6886L11.7867 10.0309C11.7902 10.0445 11.7935 10.058 11.7964 10.0716C11.7994 10.0845 11.802 10.0975 11.8044 10.1105C11.8073 10.1228 11.8097 10.1349 11.8114 10.1467C11.8132 10.1585 11.815 10.17 11.8167 10.1812C11.8185 10.1694 11.8203 10.1573 11.822 10.1449C11.8244 10.1326 11.827 10.1199 11.83 10.1069C11.8329 10.0934 11.8362 10.0798 11.8397 10.0663C11.8433 10.0527 11.8468 10.0395 11.8503 10.0265L11.9617 9.64551H12.0439L12.1597 10.0291C12.1638 10.0427 12.1677 10.0566 12.1712 10.0707C12.1747 10.0842 12.178 10.0975 12.1809 10.1105C12.1839 10.1234 12.1862 10.1361 12.188 10.1485C12.1904 10.1603 12.1924 10.1712 12.1942 10.1812C12.196 10.1665 12.1983 10.1511 12.2013 10.1352C12.2042 10.1187 12.2077 10.1016 12.2119 10.084C12.216 10.0663 12.2204 10.0483 12.2251 10.03L12.3224 9.64551H12.4055Z" fill="white"/>
<path d="M13.1528 9.94941C13.1528 9.99833 13.1467 10.0428 13.1343 10.0829C13.1219 10.1224 13.1033 10.1566 13.0786 10.1854C13.0544 10.2143 13.0241 10.2364 12.9875 10.2517C12.9516 10.2671 12.9098 10.2747 12.862 10.2747C12.8125 10.2747 12.7695 10.2671 12.733 10.2517C12.6964 10.2358 12.6661 10.2137 12.6419 10.1854C12.6178 10.1566 12.5998 10.1221 12.588 10.082C12.5762 10.0419 12.5703 9.99744 12.5703 9.94853C12.5703 9.88371 12.5809 9.82713 12.6021 9.77881C12.6234 9.73049 12.6555 9.69277 12.6985 9.66566C12.7421 9.63855 12.7969 9.625 12.8629 9.625C12.926 9.625 12.979 9.63855 13.022 9.66566C13.065 9.69218 13.0975 9.7299 13.1193 9.77881C13.1416 9.82713 13.1528 9.884 13.1528 9.94941ZM12.6543 9.94941C12.6543 10.0025 12.6617 10.0481 12.6764 10.0864C12.6911 10.1247 12.7138 10.1542 12.7445 10.1748C12.7757 10.1955 12.8149 10.2058 12.862 10.2058C12.9098 10.2058 12.9486 10.1955 12.9787 10.1748C13.0093 10.1542 13.032 10.1247 13.0468 10.0864C13.0615 10.0481 13.0689 10.0025 13.0689 9.94941C13.0689 9.86986 13.0524 9.80769 13.0194 9.7629C12.9864 9.71752 12.9342 9.69483 12.8629 9.69483C12.8152 9.69483 12.7757 9.70515 12.7445 9.72577C12.7138 9.74581 12.6911 9.77498 12.6764 9.81328C12.6617 9.851 12.6543 9.89638 12.6543 9.94941Z" fill="white"/>
<path d="M13.5687 9.64551C13.6211 9.64551 13.6641 9.65228 13.6977 9.66584C13.7319 9.6788 13.7573 9.69855 13.7738 9.72506C13.7903 9.75158 13.7985 9.78488 13.7985 9.82495C13.7985 9.85854 13.7923 9.88654 13.7799 9.90893C13.7676 9.93132 13.7517 9.9493 13.7322 9.96285C13.7133 9.97582 13.6933 9.98613 13.6721 9.99379L13.8454 10.2767H13.7525L13.5996 10.0159H13.4741V10.2767H13.3945V9.64551H13.5687ZM13.5643 9.71446H13.4741V9.94871H13.5687C13.6029 9.94871 13.6308 9.94429 13.6526 9.93545C13.6745 9.92602 13.6904 9.91247 13.7004 9.89479C13.711 9.87711 13.7163 9.85501 13.7163 9.82849C13.7163 9.80079 13.7107 9.77869 13.6995 9.76219C13.6889 9.74569 13.6724 9.73361 13.65 9.72595C13.6276 9.71829 13.599 9.71446 13.5643 9.71446Z" fill="white"/>
<path d="M14.5044 10.2767H14.4107L14.1871 9.97523L14.1225 10.0318V10.2767H14.043V9.64551H14.1225V9.95666C14.1402 9.93663 14.1582 9.91659 14.1764 9.89655C14.1947 9.87652 14.213 9.85648 14.2313 9.83644L14.4019 9.64551H14.4947L14.2445 9.92042L14.5044 10.2767Z" fill="white"/>
<path d="M15.8936 9.64551C15.9761 9.64551 16.0362 9.66171 16.074 9.69413C16.1117 9.72654 16.1305 9.77221 16.1305 9.83114C16.1305 9.85707 16.1261 9.88212 16.1173 9.90628C16.109 9.92985 16.0952 9.95106 16.0757 9.96992C16.0563 9.98878 16.0304 10.0038 15.9979 10.015C15.9655 10.0256 15.9257 10.0309 15.8786 10.0309H15.8061V10.2767H15.7266V9.64551H15.8936ZM15.8866 9.71357H15.8061V9.96285H15.8698C15.9098 9.96285 15.9431 9.95873 15.9697 9.95048C15.9962 9.94164 16.0159 9.92779 16.0289 9.90893C16.0418 9.89007 16.0483 9.86532 16.0483 9.83468C16.0483 9.79401 16.0354 9.76366 16.0094 9.74363C15.9835 9.72359 15.9425 9.71357 15.8866 9.71357Z" fill="white"/>
<path d="M16.716 10.2767H16.3633V9.64551H16.716V9.71534H16.4428V9.91247H16.7001V9.98141H16.4428V10.2068H16.716V10.2767Z" fill="white"/>
<path d="M17.1429 9.64551C17.1953 9.64551 17.2384 9.65228 17.2719 9.66584C17.3061 9.6788 17.3315 9.69855 17.348 9.72506C17.3645 9.75158 17.3727 9.78488 17.3727 9.82495C17.3727 9.85854 17.3665 9.88654 17.3542 9.90893C17.3418 9.93132 17.3259 9.9493 17.3064 9.96285C17.2876 9.97582 17.2675 9.98613 17.2463 9.99379L17.4196 10.2767H17.3268L17.1738 10.0159H17.0483V10.2767H16.9688V9.64551H17.1429ZM17.1385 9.71446H17.0483V9.94871H17.1429C17.1771 9.94871 17.2051 9.94429 17.2269 9.93545C17.2487 9.92602 17.2646 9.91247 17.2746 9.89479C17.2852 9.87711 17.2905 9.85501 17.2905 9.82849C17.2905 9.80079 17.2849 9.77869 17.2737 9.76219C17.2631 9.74569 17.2466 9.73361 17.2242 9.72595C17.2018 9.71829 17.1732 9.71446 17.1385 9.71446Z" fill="white"/>
<path d="M17.7007 10.2767H17.6211V9.64551H17.9738V9.71534H17.7007V9.93898H17.957V10.0088H17.7007V10.2767Z" fill="white"/>
<path d="M18.5597 10.2767H18.207V9.64551H18.5597V9.71534H18.2866V9.91247H18.5438V9.98141H18.2866V10.2068H18.5597V10.2767Z" fill="white"/>
<path d="M19.0875 9.69483C19.0539 9.69483 19.0235 9.70073 18.9964 9.71251C18.9693 9.72371 18.9463 9.7405 18.9275 9.7629C18.9086 9.7847 18.8942 9.81152 18.8842 9.84334C18.8741 9.87457 18.8691 9.90993 18.8691 9.94941C18.8691 10.0013 18.8771 10.0464 18.893 10.0847C18.9095 10.123 18.9337 10.1524 18.9655 10.1731C18.9979 10.1937 19.0383 10.204 19.0866 10.204C19.1143 10.204 19.1405 10.2016 19.1653 10.1969C19.19 10.1922 19.2142 10.1863 19.2377 10.1792V10.2482C19.2142 10.257 19.1897 10.2635 19.1644 10.2676C19.1396 10.2718 19.1099 10.2738 19.0751 10.2738C19.0109 10.2738 18.9572 10.2606 18.9142 10.2341C18.8712 10.2075 18.8388 10.1698 18.817 10.1209C18.7958 10.072 18.7852 10.0145 18.7852 9.94853C18.7852 9.9008 18.7916 9.85719 18.8046 9.8177C18.8182 9.77822 18.8376 9.74404 18.8629 9.71516C18.8889 9.68629 18.9207 9.66419 18.9584 9.64887C18.9961 9.63296 19.0394 9.625 19.0884 9.625C19.1208 9.625 19.152 9.62824 19.1821 9.63472C19.2121 9.64121 19.2389 9.65034 19.2625 9.66213L19.2307 9.72931C19.2112 9.72047 19.1894 9.71251 19.1653 9.70544C19.1417 9.69837 19.1158 9.69483 19.0875 9.69483Z" fill="white"/>
<path d="M19.7376 10.2767H19.6581V9.71534H19.4609V9.64551H19.9339V9.71534H19.7376V10.2767Z" fill="white"/>
<path d="M20.4972 10.2767H20.1445V9.64551H20.4972V9.71534H20.2241V9.91247H20.4813V9.98141H20.2241V10.2068H20.4972V10.2767Z" fill="white"/>
<path d="M21.2478 9.9549C21.2478 10.0256 21.2346 10.0848 21.208 10.1326C21.1821 10.1803 21.1447 10.2163 21.0958 10.2404C21.0469 10.2646 20.9876 10.2767 20.9181 10.2767H20.7422V9.64551H20.9367C21.0003 9.64551 21.0554 9.65729 21.102 9.68087C21.1485 9.70444 21.1845 9.73921 21.2098 9.78517C21.2351 9.83055 21.2478 9.88712 21.2478 9.9549ZM21.1638 9.95755C21.1638 9.90156 21.1544 9.8556 21.1356 9.81965C21.1173 9.7837 21.0902 9.75718 21.0542 9.74009C21.0189 9.72241 20.9758 9.71357 20.9252 9.71357H20.8217V10.2086H20.9075C20.9929 10.2086 21.0569 10.1877 21.0993 10.1458C21.1423 10.1034 21.1638 10.0406 21.1638 9.95755Z" fill="white"/>
<path d="M11.3925 7.50037C11.3856 7.41399 11.3532 7.3466 11.2953 7.29823C11.2383 7.24985 11.1515 7.22566 11.0349 7.22566C10.9606 7.22566 10.8997 7.23473 10.8521 7.25287C10.8055 7.27015 10.7709 7.29391 10.7485 7.32414C10.726 7.35438 10.7144 7.38893 10.7135 7.42781C10.7118 7.45977 10.7174 7.48871 10.7303 7.51463C10.7442 7.53968 10.7658 7.56257 10.7951 7.58331C10.8245 7.60318 10.8621 7.62132 10.9079 7.63773C10.9536 7.65414 11.0081 7.66883 11.0711 7.68179L11.2888 7.72844C11.4357 7.75954 11.5614 7.80057 11.6659 7.85154C11.7704 7.90251 11.856 7.96255 11.9225 8.03166C11.989 8.09991 12.0378 8.17679 12.0689 8.26232C12.1009 8.34784 12.1173 8.44114 12.1182 8.54221C12.1173 8.71672 12.0737 8.86444 11.9873 8.98538C11.9009 9.10633 11.7774 9.19833 11.6167 9.26139C11.4569 9.32446 11.2646 9.35599 11.04 9.35599C10.8094 9.35599 10.6081 9.32187 10.4362 9.25362C10.2651 9.18537 10.1321 9.08041 10.0371 8.93874C9.94291 8.79619 9.8954 8.61392 9.89453 8.3919H10.5787C10.583 8.4731 10.6033 8.54135 10.6396 8.59664C10.6759 8.65193 10.7269 8.69383 10.7925 8.72233C10.8591 8.75084 10.9381 8.76509 11.0297 8.76509C11.1066 8.76509 11.1709 8.75559 11.2227 8.73659C11.2746 8.71758 11.3139 8.69123 11.3407 8.65754C11.3674 8.62385 11.3813 8.58541 11.3821 8.54221C11.3813 8.50161 11.3679 8.46619 11.342 8.43596C11.3169 8.40486 11.2754 8.37721 11.2176 8.35302C11.1597 8.32797 11.0815 8.30465 10.983 8.28305L10.7187 8.22603C10.4837 8.17506 10.2984 8.08997 10.1628 7.97076C10.028 7.85068 9.96105 7.68697 9.96191 7.47964C9.96105 7.31118 10.006 7.16389 10.0967 7.03777C10.1883 6.91078 10.3148 6.81186 10.4764 6.74102C10.6388 6.67018 10.8249 6.63477 11.0349 6.63477C11.2491 6.63477 11.4344 6.67062 11.5908 6.74232C11.7471 6.81402 11.8676 6.91509 11.9523 7.04554C12.0378 7.17512 12.081 7.32673 12.0819 7.50037H11.3925Z" fill="white"/>
<path d="M12.5686 6.69727C12.7661 6.69727 12.9262 6.85739 12.9262 7.05491V8.99346C12.9262 9.19098 12.7661 9.35111 12.5686 9.35111C12.3711 9.35111 12.2109 9.19098 12.2109 8.99346V7.05491C12.2109 6.85739 12.3711 6.69727 12.5686 6.69727Z" fill="white"/>
<path d="M20.4748 6.69727C20.6724 6.69727 20.8325 6.85739 20.8325 7.05491V8.99346C20.8325 9.19098 20.6724 9.35111 20.4748 9.35111C20.2773 9.35111 20.1172 9.19098 20.1172 8.99346V7.05491C20.1172 6.85739 20.2773 6.69727 20.4748 6.69727Z" fill="#FD9024"/>
<path d="M13.4905 9.35081C13.2929 9.35081 13.1328 9.19068 13.1328 8.99316V7.71807C13.1328 7.52055 13.2929 7.36043 13.4905 7.36043C13.688 7.36043 13.8481 7.52055 13.8481 7.71807V8.99316C13.8481 9.19068 13.688 9.35081 13.4905 9.35081ZM13.4905 7.15309C13.3937 7.15309 13.3108 7.12113 13.2417 7.0572C13.1726 6.99328 13.138 6.91639 13.138 6.82655C13.138 6.7367 13.1726 6.65982 13.2417 6.59589C13.3108 6.53196 13.3937 6.5 13.4905 6.5C13.5881 6.5 13.671 6.53196 13.7393 6.59589C13.8084 6.65982 13.8429 6.7367 13.8429 6.82655C13.8429 6.91639 13.8084 6.99328 13.7393 7.0572C13.671 7.12113 13.5881 7.15309 13.4905 7.15309Z" fill="white"/>
<path d="M14.9963 9.35532C14.7803 9.35532 14.5955 9.31255 14.4417 9.22703C14.2879 9.14064 14.17 9.02056 14.0879 8.86679C14.0059 8.71216 13.9648 8.5329 13.9648 8.32902C13.9648 8.12515 14.0059 7.94633 14.0879 7.79255C14.17 7.63792 14.2879 7.51784 14.4417 7.43232C14.5955 7.34593 14.7803 7.30273 14.9963 7.30273C15.1916 7.30273 15.3604 7.33815 15.503 7.40899C15.6464 7.47897 15.7574 7.57831 15.836 7.70703C15.9146 7.83488 15.9441 7.87563 15.9552 8.05301L15.2918 8.15798C15.2823 8.05345 15.252 7.97397 15.2011 7.91955C15.151 7.86426 15.0862 7.83661 15.0067 7.83661C14.9445 7.83661 14.8901 7.85475 14.8434 7.89104C14.7968 7.92646 14.7605 7.98045 14.7346 8.05301C14.7086 8.12472 14.6957 8.21499 14.6957 8.32384C14.6957 8.43269 14.7086 8.5234 14.7346 8.59596C14.7605 8.66767 14.7968 8.72166 14.8434 8.75794C14.8901 8.79336 14.9445 8.81107 15.0067 8.81107C15.0594 8.81107 15.106 8.79898 15.1466 8.77479C15.1872 8.74973 15.2201 8.71345 15.2451 8.66594C15.271 8.61756 15.2866 8.55882 15.2918 8.48971L15.9552 8.57483C15.939 8.74208 15.9125 8.81798 15.8347 8.94843C15.757 9.07801 15.6468 9.17822 15.5043 9.24906C15.3626 9.3199 15.1933 9.35532 14.9963 9.35532Z" fill="white"/>
<path d="M17.0458 9.35532C16.8333 9.35532 16.6502 9.31471 16.4964 9.23351C16.3435 9.15144 16.2256 9.03395 16.1426 8.88104C16.0606 8.72727 16.0195 8.54327 16.0195 8.32902C16.0195 8.12342 16.061 7.94373 16.1439 7.78996C16.2269 7.63619 16.3439 7.51654 16.4951 7.43102C16.6463 7.3455 16.8247 7.30273 17.0303 7.30273C17.1806 7.30273 17.3166 7.32606 17.4385 7.37271C17.5603 7.41936 17.6644 7.48717 17.7507 7.57615C17.8371 7.66427 17.9037 7.77139 17.9503 7.89752C17.997 8.02364 18.0203 8.16575 18.0203 8.32384V8.48971H16.2424V8.09578H17.362C17.3611 8.03876 17.3465 7.98866 17.3179 7.94546C17.2903 7.9014 17.2527 7.86728 17.2052 7.84309C17.1586 7.81804 17.1054 7.80551 17.0458 7.80551C16.9879 7.80551 16.9348 7.81804 16.8864 7.84309C16.8381 7.86728 16.7992 7.90097 16.7698 7.94417C16.7413 7.98736 16.7262 8.0379 16.7245 8.09578V8.52081C16.7245 8.58473 16.7378 8.64175 16.7646 8.69185C16.7914 8.74196 16.8299 8.78127 16.88 8.80977C16.9301 8.83828 16.9905 8.85254 17.0614 8.85254C17.1106 8.85254 17.1555 8.84563 17.1961 8.8318C17.2376 8.81798 17.273 8.79811 17.3024 8.7722C17.3318 8.74542 17.3534 8.71345 17.3672 8.6763L18.0203 8.7722C17.9734 8.90425 17.9447 8.93461 17.8609 9.03654C17.7771 9.13762 17.6661 9.21623 17.5279 9.27238C17.3905 9.32767 17.2298 9.35532 17.0458 9.35532Z" fill="white"/>
<path d="M21.969 9.35629C21.753 9.35629 21.5681 9.31353 21.4144 9.22801C21.2606 9.14162 21.1427 9.02154 21.0606 8.86777C20.9785 8.71313 20.9375 8.53388 20.9375 8.33C20.9375 8.12613 20.9785 7.9473 21.0606 7.79353C21.1427 7.6389 21.2606 7.51882 21.4144 7.43329C21.5681 7.3469 21.753 7.30371 21.969 7.30371C22.1849 7.30371 22.3698 7.3469 22.5236 7.43329C22.6774 7.51882 22.7953 7.6389 22.8773 7.79353C22.9594 7.9473 23.0004 8.12613 23.0004 8.33C23.0004 8.53388 22.9594 8.71313 22.8773 8.86777C22.7953 9.02154 22.6774 9.14162 22.5236 9.22801C22.3698 9.31353 22.1849 9.35629 21.969 9.35629ZM21.9742 8.8276C22.0346 8.8276 22.0869 8.8073 22.131 8.76669C22.175 8.72609 22.2091 8.66821 22.2333 8.59305C22.2575 8.5179 22.2696 8.42848 22.2696 8.32482C22.2696 8.22029 22.2575 8.13088 22.2333 8.05658C22.2091 7.98143 22.175 7.92355 22.131 7.88294C22.0869 7.84234 22.0346 7.82204 21.9742 7.82204C21.9102 7.82204 21.8554 7.84234 21.8096 7.88294C21.7638 7.92355 21.7288 7.98143 21.7046 8.05658C21.6804 8.13088 21.6683 8.22029 21.6683 8.32482C21.6683 8.42848 21.6804 8.5179 21.7046 8.59305C21.7288 8.66821 21.7638 8.72609 21.8096 8.76669C21.8554 8.8073 21.9102 8.8276 21.9742 8.8276Z" fill="#FD9024"/>
<path d="M52 14.5H96.5C97.3284 14.5 98 15.1716 98 16V58C98 58.8284 97.3284 59.5 96.5 59.5H52V14.5Z" fill="#001F3F"/>
<rect x="71" y="21.5" width="20" height="5" rx="1" fill="#334C65"/>
<rect x="71" y="28.5" width="20" height="5" rx="1" fill="#334C65"/>
<rect x="71" y="35.5" width="20" height="5" rx="1" fill="#334C65"/>
</g>
<defs>
<filter id="filter0_d_7112_63449" x="0" y="0.5" width="104" height="64" filterUnits="userSpaceOnUse" color-interpolation-filters="sRGB">
<feFlood flood-opacity="0" result="BackgroundImageFix"/>
<feColorMatrix in="SourceAlpha" type="matrix" values="0 0 0 0 0 0 0 0 0 0 0 0 0 0 0 0 0 0 127 0" result="hardAlpha"/>
<feOffset/>
<feGaussianBlur stdDeviation="1"/>
<feComposite in2="hardAlpha" operator="out"/>
<feColorMatrix type="matrix" values="0 0 0 0 0 0 0 0 0 0 0 0 0 0 0 0 0 0 0.25 0"/>
<feBlend mode="normal" in2="BackgroundImageFix" result="effect1_dropShadow_7112_63449"/>
<feBlend mode="normal" in="SourceGraphic" in2="effect1_dropShadow_7112_63449" result="shape"/>
</filter>
</defs>
</svg>
