<svg width="104" height="65" viewBox="0 0 104 65" fill="none" xmlns="http://www.w3.org/2000/svg">
<g filter="url(#filter0_d_10456_79083)">
<rect x="2" y="2.5" width="100" height="60" rx="2" fill="white"/>
</g>
<rect x="5" y="21" width="20" height="5" rx="1" fill="black"/>
<rect x="5" y="5.5" width="20" height="6" rx="1" fill="#001F3F"/>
<rect x="28" y="5.5" width="20" height="6" rx="1" fill="#FF8D28"/>
<rect x="93" y="5.5" width="5" height="5" rx="1" fill="#001F3F"/>
<rect x="86" y="5.5" width="5" height="5" rx="1" fill="#FF8D28"/>
<rect x="28" y="14.5" width="70" height="45" rx="1.5" fill="#F2F2F7"/>
<rect x="5" y="28" width="20" height="5" rx="1" fill="black"/>
<rect x="71" y="21" width="20" height="5" rx="1" fill="#FF8D28"/>
<rect x="71" y="28" width="20" height="5" rx="1" fill="#FF8D28"/>
<rect x="71" y="35" width="20" height="5" rx="1" fill="#FF8D28"/>
<rect x="5" y="35" width="20" height="5" rx="1" fill="black"/>
<rect x="5" y="54.5" width="20" height="5" rx="1" fill="#001F3F"/>
<path d="M18.5127 6.70386L20.0272 6.69531L20.0355 6.70386V7.25924L20.0189 7.27632H18.809V7.87443H19.9116L19.9199 7.88297V8.44689H18.809V9.28004C18.8091 9.3362 18.7938 9.36113 18.7279 9.36113C18.662 9.36113 18.3326 9.36113 18.292 9.36113C18.2515 9.36113 18.2114 9.31398 18.2109 9.28004V7.06114C18.2109 6.92409 18.2631 6.75541 18.5127 6.70386Z" fill="#FD9024"/>
<path d="M8.18969 6.68506H8.25366C8.36971 6.68506 8.4856 6.69329 8.60048 6.7097C8.69894 6.73705 8.79525 6.77161 8.88862 6.81311L8.89625 6.8165L8.91075 6.82423C8.98314 6.86284 9.05245 6.90694 9.11808 6.95616L9.2331 7.05474L9.33991 7.16975L9.38356 7.23211C9.39279 7.24529 9.40103 7.25913 9.40823 7.27352L9.42185 7.30077C9.42744 7.31195 9.43133 7.32389 9.43338 7.33622C9.43674 7.35638 9.43512 7.37706 9.42865 7.39645L9.42421 7.40979C9.41737 7.4303 9.40661 7.4493 9.39254 7.46572C9.37418 7.48713 9.35071 7.50355 9.3243 7.51346L9.31947 7.51527C9.30576 7.52041 9.29149 7.52393 9.27695 7.52574L9.2331 7.53122H8.9562C8.9437 7.53122 8.93128 7.52921 8.91943 7.52526C8.89891 7.51842 8.8807 7.50599 8.86685 7.48938L8.85963 7.4807C8.85121 7.47061 8.84411 7.45949 8.83848 7.44762L8.7981 7.36237C8.78144 7.3272 8.76055 7.29418 8.7359 7.26406C8.71144 7.23416 8.68345 7.20733 8.65254 7.18415L8.64867 7.18125C8.61665 7.15724 8.58196 7.13701 8.54529 7.12097L8.50906 7.10512C8.48245 7.09347 8.45466 7.08473 8.42618 7.07903C8.40004 7.07381 8.37344 7.07117 8.34678 7.07117H8.29809C8.2534 7.07117 8.2089 7.077 8.16571 7.08852L8.16433 7.08889C8.12659 7.09895 8.09016 7.11339 8.05577 7.1319C8.01921 7.15158 7.98524 7.17573 7.95463 7.20378L7.93133 7.22515C7.9119 7.24296 7.894 7.26236 7.87782 7.28317C7.85576 7.31152 7.83702 7.34231 7.82196 7.37493L7.79533 7.43264L7.77924 7.48624C7.77354 7.50525 7.76927 7.52466 7.76646 7.5443C7.7638 7.56294 7.76246 7.58175 7.76246 7.60058V7.63408C7.76246 7.6367 7.76265 7.63932 7.76302 7.64192L7.76416 7.64992C7.76778 7.67528 7.7505 7.69889 7.72523 7.7031C7.72267 7.70353 7.72008 7.70374 7.71748 7.70374H7.05202C7.04917 7.70374 7.04635 7.70308 7.0438 7.7018C7.03639 7.6981 7.03238 7.68989 7.034 7.68177L7.03947 7.65445L7.09698 7.49015L7.1627 7.3587L7.22843 7.25191L7.30237 7.15332L7.39275 7.05474C7.43103 7.01646 7.47215 6.98111 7.51574 6.94899L7.60636 6.88222L7.67543 6.84386C7.72791 6.8147 7.7824 6.78935 7.8385 6.76798C7.89727 6.74559 7.95763 6.72764 8.01909 6.71428L8.11574 6.69327L8.18969 6.68506Z" fill="white"/>
<path d="M8.86354 8.29492H9.58653L9.57832 8.35243L9.52902 8.49209L9.46329 8.63174L9.38935 8.74676L9.32362 8.82891L9.24968 8.91106L9.16752 8.99321L9.02785 9.0918L8.91283 9.15752L8.78959 9.21502L8.62528 9.26431L8.51025 9.28896L8.44453 9.29718H8.16519L8.02552 9.27253L7.90228 9.23967L7.73796 9.17395L7.59008 9.0918L7.48327 9.00964L7.38468 8.91928L7.31895 8.85355L7.22858 8.73854L7.1875 8.65639V8.59067L7.22858 8.50852L7.29431 8.45923L7.31895 8.45101H7.7051L7.74618 8.46744L7.77904 8.50852L7.83655 8.63996L7.9105 8.73854L7.98444 8.80426L8.08303 8.86177L8.1734 8.89463L8.26378 8.91106H8.3788L8.50204 8.8782L8.63349 8.81248L8.73208 8.72211L8.79781 8.63174L8.8471 8.50852L8.86354 8.41815V8.29492Z" fill="#FD9024"/>
<path d="M8.24149 7.24365H8.38937L8.47153 7.2683L8.56191 7.3258L8.62763 7.39974L8.72622 7.59691L8.80017 7.66263L8.87411 7.69549L8.98091 7.7037H9.48208L9.53959 7.72835L9.60532 7.78585L9.5971 7.80229H8.11003L8.04431 7.76942L7.97036 7.7037L7.9375 7.63798V7.57226L7.96215 7.48189L8.00323 7.39974L8.06895 7.3258L8.1429 7.27651L8.24149 7.24365Z" fill="#FD9024"/>
<path d="M7.03906 8.18848L8.559 8.19669L8.63294 8.24598L8.68224 8.3117L8.69045 8.32813V8.4185L8.65759 8.5253L8.60008 8.61567L8.53435 8.67317L8.45219 8.71425L8.34539 8.73889H8.27144L8.17285 8.71425L8.10712 8.68139L8.02497 8.60745L7.97567 8.53351L7.90994 8.38564L7.87708 8.34457L7.80314 8.30349L7.76206 8.28706L7.71276 8.27884L7.12122 8.27063L7.06371 8.23777L7.03906 8.20491V8.18848Z" fill="white"/>
<path d="M7 7.99951H8.11736L8.31454 8.08166L8.33919 8.09809V8.11452L7.01643 8.10631L7 8.08166V7.99951Z" fill="white"/>
<path d="M8.32812 7.89307H9.61802L9.62623 7.9095V7.99986L8.58282 8.00808L8.4185 7.94236L8.32812 7.90128V7.89307Z" fill="#FD9024"/>
<path d="M7.01643 7.79443H7.81337L7.87088 7.85194L7.92018 7.89302V7.90123H7.00822L7 7.87659L7.01643 7.79443Z" fill="white"/>
<path d="M8.73438 8.08984L9.62169 8.09806L9.61347 8.19664L9.60526 8.20486H8.83297L8.73438 8.10627V8.08984Z" fill="#FD9024"/>
<path d="M15.0156 10.2121C15.0156 10.1903 15.0209 10.1749 15.0315 10.1661C15.0421 10.1573 15.0548 10.1528 15.0695 10.1528C15.0849 10.1528 15.0978 10.1573 15.1084 10.1661C15.1196 10.1749 15.1252 10.1903 15.1252 10.2121C15.1252 10.2333 15.1196 10.2486 15.1084 10.258C15.0978 10.2675 15.0849 10.2722 15.0695 10.2722C15.0548 10.2722 15.0421 10.2675 15.0315 10.258C15.0209 10.2486 15.0156 10.2333 15.0156 10.2121Z" fill="white"/>
<path d="M12.4094 9.646L12.2414 10.2771H12.161L12.0381 9.86345C12.0346 9.85108 12.031 9.83841 12.0275 9.82544C12.024 9.81248 12.0207 9.8001 12.0178 9.78831C12.0148 9.77653 12.0122 9.76651 12.0098 9.75826C12.008 9.74942 12.0069 9.74294 12.0063 9.73881C12.0057 9.74294 12.0045 9.74942 12.0027 9.75826C12.0016 9.76651 11.9995 9.77653 11.9966 9.78831C11.9936 9.8001 11.9904 9.81277 11.9868 9.82632C11.9839 9.83929 11.9803 9.85255 11.9762 9.8661L11.8569 10.2771H11.7764L11.6094 9.646H11.6925L11.7906 10.0314C11.7941 10.045 11.7974 10.0585 11.8003 10.0721C11.8033 10.085 11.8059 10.098 11.8083 10.111C11.8112 10.1233 11.8136 10.1354 11.8153 10.1472C11.8171 10.159 11.8189 10.1705 11.8206 10.1817C11.8224 10.1699 11.8242 10.1578 11.8259 10.1454C11.8283 10.1331 11.831 10.1204 11.8339 10.1074C11.8368 10.0939 11.8401 10.0803 11.8436 10.0668C11.8472 10.0532 11.8507 10.0399 11.8542 10.027L11.9656 9.646H12.0478L12.1636 10.0296C12.1677 10.0432 12.1716 10.057 12.1751 10.0712C12.1786 10.0847 12.1819 10.098 12.1848 10.111C12.1878 10.1239 12.1901 10.1366 12.1919 10.149C12.1943 10.1608 12.1963 10.1717 12.1981 10.1817C12.1999 10.1669 12.2022 10.1516 12.2052 10.1357C12.2081 10.1192 12.2116 10.1021 12.2158 10.0844C12.2199 10.0668 12.2243 10.0488 12.229 10.0305L12.3263 9.646H12.4094Z" fill="white"/>
<path d="M13.1528 9.9499C13.1528 9.99882 13.1467 10.0433 13.1343 10.0834C13.1219 10.1229 13.1033 10.157 13.0786 10.1859C13.0544 10.2148 13.0241 10.2369 12.9875 10.2522C12.9516 10.2675 12.9098 10.2752 12.862 10.2752C12.8125 10.2752 12.7695 10.2675 12.733 10.2522C12.6964 10.2363 12.6661 10.2142 12.6419 10.1859C12.6178 10.157 12.5998 10.1226 12.588 10.0825C12.5762 10.0424 12.5703 9.99793 12.5703 9.94902C12.5703 9.8842 12.5809 9.82762 12.6021 9.7793C12.6234 9.73097 12.6555 9.69326 12.6985 9.66615C12.7421 9.63904 12.7969 9.62549 12.8629 9.62549C12.926 9.62549 12.979 9.63904 13.022 9.66615C13.065 9.69267 13.0975 9.73039 13.1193 9.7793C13.1416 9.82762 13.1528 9.88449 13.1528 9.9499ZM12.6543 9.9499C12.6543 10.0029 12.6617 10.0486 12.6764 10.0869C12.6911 10.1252 12.7138 10.1547 12.7445 10.1753C12.7757 10.1959 12.8149 10.2063 12.862 10.2063C12.9098 10.2063 12.9486 10.1959 12.9787 10.1753C13.0093 10.1547 13.032 10.1252 13.0468 10.0869C13.0615 10.0486 13.0689 10.0029 13.0689 9.9499C13.0689 9.87035 13.0524 9.80817 13.0194 9.76339C12.9864 9.71801 12.9342 9.69532 12.8629 9.69532C12.8152 9.69532 12.7757 9.70563 12.7445 9.72626C12.7138 9.7463 12.6911 9.77547 12.6764 9.81377C12.6617 9.85149 12.6543 9.89687 12.6543 9.9499Z" fill="white"/>
<path d="M13.5726 9.646C13.625 9.646 13.668 9.65277 13.7016 9.66633C13.7358 9.67929 13.7612 9.69903 13.7777 9.72555C13.7942 9.75207 13.8024 9.78537 13.8024 9.82544C13.8024 9.85903 13.7962 9.88702 13.7838 9.90942C13.7715 9.93181 13.7556 9.94979 13.7361 9.96334C13.7173 9.9763 13.6972 9.98662 13.676 9.99428L13.8493 10.2771H13.7564L13.6035 10.0164H13.478V10.2771H13.3984V9.646H13.5726ZM13.5682 9.71495H13.478V9.9492H13.5726C13.6068 9.9492 13.6348 9.94478 13.6566 9.93594C13.6784 9.92651 13.6943 9.91295 13.7043 9.89527C13.7149 9.87759 13.7202 9.8555 13.7202 9.82898C13.7202 9.80128 13.7146 9.77918 13.7034 9.76268C13.6928 9.74618 13.6763 9.7341 13.6539 9.72644C13.6315 9.71878 13.6029 9.71495 13.5682 9.71495Z" fill="white"/>
<path d="M14.5083 10.2771H14.4146L14.191 9.97571L14.1264 10.0323V10.2771H14.0469V9.646H14.1264V9.95715C14.1441 9.93712 14.1621 9.91708 14.1804 9.89704C14.1986 9.87701 14.2169 9.85697 14.2352 9.83693L14.4058 9.646H14.4986L14.2484 9.92091L14.5083 10.2771Z" fill="white"/>
<path d="M15.8936 9.646C15.9761 9.646 16.0362 9.6622 16.074 9.69461C16.1117 9.72703 16.1305 9.7727 16.1305 9.83163C16.1305 9.85756 16.1261 9.8826 16.1173 9.90677C16.109 9.93034 16.0952 9.95155 16.0757 9.97041C16.0563 9.98927 16.0304 10.0043 15.9979 10.0155C15.9655 10.0261 15.9257 10.0314 15.8786 10.0314H15.8061V10.2771H15.7266V9.646H15.8936ZM15.8866 9.71406H15.8061V9.96334H15.8698C15.9098 9.96334 15.9431 9.95921 15.9697 9.95096C15.9962 9.94212 16.0159 9.92828 16.0289 9.90942C16.0418 9.89056 16.0483 9.86581 16.0483 9.83516C16.0483 9.7945 16.0354 9.76415 16.0094 9.74412C15.9835 9.72408 15.9425 9.71406 15.8866 9.71406Z" fill="white"/>
<path d="M16.7199 10.2771H16.3672V9.646H16.7199V9.71583H16.4467V9.91295H16.704V9.9819H16.4467V10.2073H16.7199V10.2771Z" fill="white"/>
<path d="M17.1507 9.646C17.2032 9.646 17.2462 9.65277 17.2798 9.66633C17.3139 9.67929 17.3393 9.69903 17.3558 9.72555C17.3723 9.75207 17.3805 9.78537 17.3805 9.82544C17.3805 9.85903 17.3743 9.88702 17.362 9.90942C17.3496 9.93181 17.3337 9.94979 17.3142 9.96334C17.2954 9.9763 17.2753 9.98662 17.2541 9.99428L17.4274 10.2771H17.3346L17.1816 10.0164H17.0561V10.2771H16.9766V9.646H17.1507ZM17.1463 9.71495H17.0561V9.9492H17.1507C17.1849 9.9492 17.2129 9.94478 17.2347 9.93594C17.2565 9.92651 17.2724 9.91295 17.2824 9.89527C17.293 9.87759 17.2983 9.8555 17.2983 9.82898C17.2983 9.80128 17.2927 9.77918 17.2815 9.76268C17.2709 9.74618 17.2544 9.7341 17.232 9.72644C17.2096 9.71878 17.1811 9.71495 17.1463 9.71495Z" fill="white"/>
<path d="M17.7046 10.2771H17.625V9.646H17.9777V9.71583H17.7046V9.93947H17.9609V10.0093H17.7046V10.2771Z" fill="white"/>
<path d="M18.5636 10.2771H18.2109V9.646H18.5636V9.71583H18.2905V9.91295H18.5477V9.9819H18.2905V10.2073H18.5636V10.2771Z" fill="white"/>
<path d="M19.0914 9.69532C19.0578 9.69532 19.0274 9.70121 19.0003 9.713C18.9732 9.7242 18.9502 9.74099 18.9314 9.76339C18.9125 9.78519 18.8981 9.812 18.8881 9.84383C18.878 9.87506 18.873 9.91042 18.873 9.9499C18.873 10.0018 18.881 10.0468 18.8969 10.0851C18.9134 10.1235 18.9376 10.1529 18.9694 10.1735C19.0018 10.1942 19.0422 10.2045 19.0905 10.2045C19.1182 10.2045 19.1444 10.2021 19.1692 10.1974C19.1939 10.1927 19.2181 10.1868 19.2417 10.1797V10.2487C19.2181 10.2575 19.1936 10.264 19.1683 10.2681C19.1435 10.2723 19.1138 10.2743 19.079 10.2743C19.0148 10.2743 18.9611 10.2611 18.9181 10.2345C18.8751 10.208 18.8427 10.1703 18.8209 10.1214C18.7997 10.0725 18.7891 10.015 18.7891 9.94902C18.7891 9.90129 18.7955 9.85768 18.8085 9.81819C18.8221 9.77871 18.8415 9.74453 18.8669 9.71565C18.8928 9.68678 18.9246 9.66468 18.9623 9.64936C19 9.63344 19.0433 9.62549 19.0923 9.62549C19.1247 9.62549 19.1559 9.62873 19.186 9.63521C19.216 9.64169 19.2428 9.65083 19.2664 9.66261L19.2346 9.7298C19.2151 9.72096 19.1933 9.713 19.1692 9.70593C19.1456 9.69886 19.1197 9.69532 19.0914 9.69532Z" fill="white"/>
<path d="M19.7376 10.2771H19.6581V9.71583H19.4609V9.646H19.9339V9.71583H19.7376V10.2771Z" fill="white"/>
<path d="M20.5011 10.2771H20.1484V9.646H20.5011V9.71583H20.228V9.91295H20.4852V9.9819H20.228V10.2073H20.5011V10.2771Z" fill="white"/>
<path d="M21.2556 9.95538C21.2556 10.0261 21.2424 10.0853 21.2158 10.1331C21.1899 10.1808 21.1525 10.2167 21.1036 10.2409C21.0547 10.2651 20.9954 10.2771 20.9259 10.2771H20.75V9.646H20.9445C21.0081 9.646 21.0632 9.65778 21.1098 9.68135C21.1563 9.70493 21.1923 9.7397 21.2176 9.78566C21.243 9.83104 21.2556 9.88761 21.2556 9.95538ZM21.1717 9.95804C21.1717 9.90205 21.1622 9.85608 21.1434 9.82014C21.1251 9.78419 21.098 9.75767 21.062 9.74058C21.0267 9.7229 20.9837 9.71406 20.933 9.71406H20.8296V10.2091H20.9153C21.0008 10.2091 21.0647 10.1882 21.1071 10.1463C21.1501 10.1039 21.1717 10.0411 21.1717 9.95804Z" fill="white"/>
<path d="M11.3886 7.50037C11.3817 7.41399 11.3493 7.3466 11.2914 7.29823C11.2344 7.24985 11.1476 7.22566 11.0309 7.22566C10.9567 7.22566 10.8958 7.23473 10.8482 7.25287C10.8016 7.27015 10.767 7.29391 10.7446 7.32414C10.7221 7.35438 10.7104 7.38893 10.7096 7.42781C10.7079 7.45977 10.7135 7.48871 10.7264 7.51463C10.7403 7.53968 10.7618 7.56257 10.7912 7.58331C10.8206 7.60318 10.8582 7.62132 10.904 7.63773C10.9497 7.65414 11.0042 7.66883 11.0672 7.68179L11.2849 7.72844C11.4318 7.75954 11.5575 7.80057 11.662 7.85154C11.7665 7.90251 11.8521 7.96255 11.9186 8.03166C11.9851 8.09991 12.0339 8.17679 12.065 8.26232C12.097 8.34784 12.1134 8.44114 12.1143 8.54221C12.1134 8.71672 12.0698 8.86444 11.9834 8.98538C11.897 9.10633 11.7735 9.19833 11.6128 9.26139C11.453 9.32446 11.2607 9.35599 11.0361 9.35599C10.8055 9.35599 10.6042 9.32187 10.4323 9.25362C10.2612 9.18537 10.1282 9.08041 10.0332 8.93874C9.939 8.79619 9.89149 8.61392 9.89062 8.3919H10.5748C10.5791 8.4731 10.5994 8.54135 10.6357 8.59664C10.672 8.65193 10.723 8.69383 10.7886 8.72233C10.8551 8.75084 10.9342 8.76509 11.0258 8.76509C11.1026 8.76509 11.167 8.75559 11.2188 8.73659C11.2707 8.71758 11.31 8.69123 11.3368 8.65754C11.3635 8.62385 11.3774 8.58541 11.3782 8.54221C11.3774 8.50161 11.364 8.46619 11.3381 8.43596C11.313 8.40486 11.2715 8.37721 11.2137 8.35302C11.1558 8.32797 11.0776 8.30465 10.9791 8.28305L10.7148 8.22603C10.4798 8.17506 10.2945 8.08997 10.1589 7.97076C10.0241 7.85068 9.95714 7.68697 9.95801 7.47964C9.95714 7.31118 10.0021 7.16389 10.0928 7.03777C10.1843 6.91078 10.3109 6.81186 10.4724 6.74102C10.6349 6.67018 10.821 6.63477 11.0309 6.63477C11.2452 6.63477 11.4305 6.67062 11.5869 6.74232C11.7432 6.81402 11.8637 6.91509 11.9484 7.04554C12.0339 7.17512 12.0771 7.32673 12.078 7.50037H11.3886Z" fill="white"/>
<path d="M12.5686 6.69678C12.7661 6.69678 12.9262 6.8569 12.9262 7.05442V8.99297C12.9262 9.19049 12.7661 9.35062 12.5686 9.35062C12.3711 9.35062 12.2109 9.19049 12.2109 8.99297V7.05442C12.2109 6.8569 12.3711 6.69678 12.5686 6.69678Z" fill="white"/>
<path d="M20.4748 6.69678C20.6724 6.69678 20.8325 6.8569 20.8325 7.05442V8.99297C20.8325 9.19049 20.6724 9.35062 20.4748 9.35062C20.2773 9.35062 20.1172 9.19049 20.1172 8.99297V7.05442C20.1172 6.8569 20.2773 6.69678 20.4748 6.69678Z" fill="#FD9024"/>
<path d="M13.4905 9.35081C13.2929 9.35081 13.1328 9.19068 13.1328 8.99316V7.71807C13.1328 7.52055 13.2929 7.36043 13.4905 7.36043C13.688 7.36043 13.8481 7.52055 13.8481 7.71807V8.99316C13.8481 9.19068 13.688 9.35081 13.4905 9.35081ZM13.4905 7.15309C13.3937 7.15309 13.3108 7.12113 13.2417 7.0572C13.1726 6.99328 13.138 6.91639 13.138 6.82655C13.138 6.7367 13.1726 6.65982 13.2417 6.59589C13.3108 6.53196 13.3937 6.5 13.4905 6.5C13.5881 6.5 13.671 6.53196 13.7393 6.59589C13.8084 6.65982 13.8429 6.7367 13.8429 6.82655C13.8429 6.91639 13.8084 6.99328 13.7393 7.0572C13.671 7.12113 13.5881 7.15309 13.4905 7.15309Z" fill="white"/>
<path d="M14.9924 9.3558C14.7764 9.3558 14.5916 9.31304 14.4378 9.22752C14.284 9.14113 14.1661 9.02105 14.084 8.86728C14.002 8.71264 13.9609 8.53339 13.9609 8.32951C13.9609 8.12564 14.002 7.94681 14.084 7.79304C14.1661 7.63841 14.284 7.51833 14.4378 7.4328C14.5916 7.34642 14.7764 7.30322 14.9924 7.30322C15.1876 7.30322 15.3565 7.33864 15.4991 7.40948C15.6425 7.47945 15.7535 7.5788 15.8321 7.70752C15.9107 7.83537 15.9401 7.87612 15.9513 8.0535L15.2879 8.15846C15.2784 8.05394 15.2481 7.97446 15.1972 7.92003C15.147 7.86475 15.0823 7.8371 15.0028 7.8371C14.9406 7.8371 14.8862 7.85524 14.8395 7.89153C14.7929 7.92694 14.7566 7.98094 14.7307 8.0535C14.7047 8.12521 14.6918 8.21548 14.6918 8.32433C14.6918 8.43318 14.7047 8.52389 14.7307 8.59645C14.7566 8.66815 14.7929 8.72215 14.8395 8.75843C14.8862 8.79385 14.9406 8.81156 15.0028 8.81156C15.0555 8.81156 15.1021 8.79946 15.1427 8.77528C15.1833 8.75022 15.2162 8.71394 15.2412 8.66643C15.2671 8.61805 15.2827 8.55931 15.2879 8.49019L15.9513 8.57532C15.9351 8.74256 15.9086 8.81847 15.8308 8.94892C15.7531 9.0785 15.6429 9.17871 15.5004 9.24955C15.3587 9.32038 15.1894 9.3558 14.9924 9.3558Z" fill="white"/>
<path d="M17.0497 9.3558C16.8372 9.3558 16.6541 9.3152 16.5003 9.234C16.3474 9.15193 16.2295 9.03444 16.1465 8.88153C16.0645 8.72776 16.0234 8.54376 16.0234 8.32951C16.0234 8.12391 16.0649 7.94422 16.1478 7.79045C16.2308 7.63668 16.3478 7.51703 16.499 7.43151C16.6502 7.34598 16.8286 7.30322 17.0342 7.30322C17.1845 7.30322 17.3206 7.32655 17.4424 7.3732C17.5642 7.41985 17.6683 7.48766 17.7547 7.57664C17.841 7.66476 17.9076 7.77188 17.9542 7.898C18.0009 8.02413 18.0242 8.16624 18.0242 8.32433V8.49019H16.2463V8.09627H17.3659C17.365 8.03925 17.3504 7.98914 17.3219 7.94595C17.2942 7.90189 17.2566 7.86777 17.2091 7.84358C17.1625 7.81853 17.1093 7.806 17.0497 7.806C16.9918 7.806 16.9387 7.81853 16.8903 7.84358C16.842 7.86777 16.8031 7.90146 16.7737 7.94465C16.7452 7.98785 16.7301 8.03839 16.7284 8.09627V8.52129C16.7284 8.58522 16.7418 8.64224 16.7685 8.69234C16.7953 8.74245 16.8338 8.78175 16.8839 8.81026C16.934 8.83877 16.9944 8.85302 17.0653 8.85302C17.1145 8.85302 17.1594 8.84611 17.2 8.83229C17.2415 8.81847 17.2769 8.7986 17.3063 8.77268C17.3357 8.7459 17.3573 8.71394 17.3711 8.67679L18.0242 8.77268C17.9773 8.90474 17.9486 8.93509 17.8648 9.03703C17.781 9.13811 17.67 9.21672 17.5318 9.27287C17.3944 9.32816 17.2337 9.3558 17.0497 9.3558Z" fill="white"/>
<path d="M21.969 9.35629C21.753 9.35629 21.5681 9.31353 21.4144 9.22801C21.2606 9.14162 21.1427 9.02154 21.0606 8.86777C20.9785 8.71313 20.9375 8.53388 20.9375 8.33C20.9375 8.12613 20.9785 7.9473 21.0606 7.79353C21.1427 7.6389 21.2606 7.51882 21.4144 7.43329C21.5681 7.3469 21.753 7.30371 21.969 7.30371C22.1849 7.30371 22.3698 7.3469 22.5236 7.43329C22.6774 7.51882 22.7953 7.6389 22.8773 7.79353C22.9594 7.9473 23.0004 8.12613 23.0004 8.33C23.0004 8.53388 22.9594 8.71313 22.8773 8.86777C22.7953 9.02154 22.6774 9.14162 22.5236 9.22801C22.3698 9.31353 22.1849 9.35629 21.969 9.35629ZM21.9742 8.8276C22.0346 8.8276 22.0869 8.8073 22.131 8.76669C22.175 8.72609 22.2091 8.66821 22.2333 8.59305C22.2575 8.5179 22.2696 8.42848 22.2696 8.32482C22.2696 8.22029 22.2575 8.13088 22.2333 8.05658C22.2091 7.98143 22.175 7.92355 22.131 7.88294C22.0869 7.84234 22.0346 7.82204 21.9742 7.82204C21.9102 7.82204 21.8554 7.84234 21.8096 7.88294C21.7638 7.92355 21.7288 7.98143 21.7046 8.05658C21.6804 8.13088 21.6683 8.22029 21.6683 8.32482C21.6683 8.42848 21.6804 8.5179 21.7046 8.59305C21.7288 8.66821 21.7638 8.72609 21.8096 8.76669C21.8554 8.8073 21.9102 8.8276 21.9742 8.8276Z" fill="#FD9024"/>
<defs>
<filter id="filter0_d_10456_79083" x="0" y="0.5" width="104" height="64" filterUnits="userSpaceOnUse" color-interpolation-filters="sRGB">
<feFlood flood-opacity="0" result="BackgroundImageFix"/>
<feColorMatrix in="SourceAlpha" type="matrix" values="0 0 0 0 0 0 0 0 0 0 0 0 0 0 0 0 0 0 127 0" result="hardAlpha"/>
<feOffset/>
<feGaussianBlur stdDeviation="1"/>
<feComposite in2="hardAlpha" operator="out"/>
<feColorMatrix type="matrix" values="0 0 0 0 0 0 0 0 0 0 0 0 0 0 0 0 0 0 0.25 0"/>
<feBlend mode="normal" in2="BackgroundImageFix" result="effect1_dropShadow_10456_79083"/>
<feBlend mode="normal" in="SourceGraphic" in2="effect1_dropShadow_10456_79083" result="shape"/>
</filter>
</defs>
</svg>
