<svg width="30" height="30" viewBox="0 0 30 30" fill="none" xmlns="http://www.w3.org/2000/svg">
<g clip-path="url(#clip0_20351_57172)">
<path d="M15 3.75014C17.225 3.75014 19.4001 4.40994 21.2502 5.64611C23.1002 6.88228 24.5422 8.63929 25.3937 10.695C26.2451 12.7506 26.4679 15.0126 26.0338 17.1949C25.5998 19.3772 24.5283 21.3818 22.955 22.9551C21.3816 24.5284 19.3771 25.5999 17.1948 26.034C15.0125 26.4681 12.7505 26.2453 10.6948 25.3938C8.63915 24.5423 6.88214 23.1004 5.64597 21.2503C4.40981 19.4003 3.75001 17.2252 3.75001 15.0001C3.76642 12.0215 4.95695 9.16956 7.06319 7.06333C9.16943 4.95709 12.0214 3.76655 15 3.75014ZM15 1.25014C12.2805 1.25014 9.62209 2.05657 7.36092 3.56744C5.09974 5.07831 3.33737 7.22576 2.29666 9.73825C1.25596 12.2507 0.983662 15.0154 1.51421 17.6826C2.04476 20.3499 3.35432 22.7999 5.27729 24.7229C7.20026 26.6458 9.65028 27.9554 12.3175 28.4859C14.9848 29.0165 17.7494 28.7442 20.2619 27.7035C22.7744 26.6628 24.9218 24.9004 26.4327 22.6392C27.9436 20.3781 28.75 17.7196 28.75 15.0001C28.7583 13.1922 28.4083 11.4004 27.7202 9.72847C27.0321 8.05651 26.0196 6.53743 24.7412 5.25898C23.4627 3.98052 21.9436 2.96802 20.2717 2.27995C18.5997 1.59187 16.808 1.24187 15 1.25014Z" fill="#B3B3B3"/>
<path d="M11.6243 20.25L7.87433 16.5625C7.65778 16.3412 7.52646 16.0504 7.50359 15.7416C7.48071 15.4328 7.56776 15.1258 7.74933 14.875C7.8505 14.7244 7.98483 14.5989 8.14203 14.5083C8.29923 14.4177 8.4751 14.3643 8.65614 14.3522C8.83719 14.3401 9.0186 14.3697 9.18643 14.4387C9.35427 14.5076 9.50407 14.6141 9.62433 14.75L12.4993 17.625L20.3743 9.75C20.615 9.56947 20.9128 9.48182 21.2129 9.50315C21.5131 9.52448 21.7955 9.65335 22.0082 9.86612C22.221 10.0789 22.3499 10.3613 22.3712 10.6614C22.3925 10.9615 22.3049 11.2593 22.1243 11.5L13.3743 20.25C13.2631 20.3712 13.1279 20.468 12.9772 20.5343C12.8266 20.6005 12.6639 20.6347 12.4993 20.6347C12.3348 20.6347 12.172 20.6005 12.0214 20.5343C11.8708 20.468 11.7356 20.3712 11.6243 20.25Z" fill="#B3B3B3"/>
</g>
<defs>
<clipPath id="clip0_20351_57172">
<rect width="30" height="30" fill="white"/>
</clipPath>
</defs>
</svg>
