<svg width="301" height="258" viewBox="0 0 301 258" fill="none" xmlns="http://www.w3.org/2000/svg">
<path d="M128.672 257.143C199.735 257.143 257.344 199.579 257.344 128.571C257.344 57.5634 199.735 0 128.672 0C57.6084 0 0 57.5634 0 128.571C0 199.579 57.6084 257.143 128.672 257.143Z" fill="#F2F2F7"/>
<path d="M42.8906 61.7121C61.8409 61.7121 77.2031 57.107 77.2031 51.4263C77.2031 45.7457 61.8409 41.1406 42.8906 41.1406C23.9404 41.1406 8.57812 45.7457 8.57812 51.4263C8.57812 57.107 23.9404 61.7121 42.8906 61.7121Z" fill="#98A2B3"/>
<path d="M231.609 68.5686C248.191 68.5686 261.633 64.7311 261.633 59.9972C261.633 55.2633 248.191 51.4258 231.609 51.4258C215.028 51.4258 201.586 55.2633 201.586 59.9972C201.586 64.7311 215.028 68.5686 231.609 68.5686Z" fill="#98A2B3"/>
<path d="M233.325 77.1406H41.175C32.6474 77.1406 25.7344 84.0482 25.7344 92.5692V207.426C25.7344 215.947 32.6474 222.855 41.175 222.855H233.325C241.853 222.855 248.766 215.947 248.766 207.426V92.5692C248.766 84.0482 241.853 77.1406 233.325 77.1406Z" fill="#98A2B3"/>
<path d="M233.325 77.1406H41.175C32.6474 77.1406 25.7344 84.0482 25.7344 92.5692V104.569C25.7344 113.09 32.6474 119.998 41.175 119.998H233.325C241.853 119.998 248.766 113.09 248.766 104.569V92.5692C248.766 84.0482 241.853 77.1406 233.325 77.1406Z" fill="url(#paint0_linear_21886_32459)"/>
<path d="M70.3406 65.1429C70.3406 62.3025 68.0363 60 65.1937 60C62.3512 60 60.0469 62.3025 60.0469 65.1429V80.5714C60.0469 83.4117 62.3512 85.7143 65.1937 85.7143C68.0363 85.7143 70.3406 83.4117 70.3406 80.5714V65.1429Z" fill="#98A2B3"/>
<path d="M133.819 65.1429C133.819 62.3025 131.515 60 128.672 60C125.83 60 123.525 62.3025 123.525 65.1429V80.5714C123.525 83.4117 125.83 85.7143 128.672 85.7143C131.515 85.7143 133.819 83.4117 133.819 80.5714V65.1429Z" fill="#98A2B3"/>
<path d="M197.298 65.1429C197.298 62.3025 194.993 60 192.151 60C189.308 60 187.004 62.3025 187.004 65.1429V80.5714C187.004 83.4117 189.308 85.7143 192.151 85.7143C194.993 85.7143 197.298 83.4117 197.298 80.5714V65.1429Z" fill="#98A2B3"/>
<path d="M56.6156 132.855H46.3219C44.4268 132.855 42.8906 134.39 42.8906 136.284V146.57C42.8906 148.463 44.4268 149.998 46.3219 149.998H56.6156C58.5107 149.998 60.0469 148.463 60.0469 146.57V136.284C60.0469 134.39 58.5107 132.855 56.6156 132.855Z" fill="white"/>
<path d="M82.35 132.855H72.0563C70.1612 132.855 68.625 134.39 68.625 136.284V146.57C68.625 148.463 70.1612 149.998 72.0563 149.998H82.35C84.245 149.998 85.7812 148.463 85.7812 146.57V136.284C85.7812 134.39 84.245 132.855 82.35 132.855Z" fill="white"/>
<path d="M108.084 132.855H97.7906C95.8956 132.855 94.3594 134.39 94.3594 136.284V146.57C94.3594 148.463 95.8956 149.998 97.7906 149.998H108.084C109.979 149.998 111.516 148.463 111.516 146.57V136.284C111.516 134.39 109.979 132.855 108.084 132.855Z" fill="white"/>
<path d="M133.819 132.855H123.525C121.63 132.855 120.094 134.39 120.094 136.284V146.57C120.094 148.463 121.63 149.998 123.525 149.998H133.819C135.714 149.998 137.25 148.463 137.25 146.57V136.284C137.25 134.39 135.714 132.855 133.819 132.855Z" fill="white"/>
<path d="M159.553 132.855H149.259C147.364 132.855 145.828 134.39 145.828 136.284V146.57C145.828 148.463 147.364 149.998 149.259 149.998H159.553C161.448 149.998 162.984 148.463 162.984 146.57V136.284C162.984 134.39 161.448 132.855 159.553 132.855Z" fill="white"/>
<path d="M185.288 132.855H174.994C173.099 132.855 171.562 134.39 171.562 136.284V146.57C171.562 148.463 173.099 149.998 174.994 149.998H185.288C187.183 149.998 188.719 148.463 188.719 146.57V136.284C188.719 134.39 187.183 132.855 185.288 132.855Z" fill="white"/>
<path d="M56.6156 158.57H46.3219C44.4268 158.57 42.8906 160.105 42.8906 161.999V172.285C42.8906 174.178 44.4268 175.713 46.3219 175.713H56.6156C58.5107 175.713 60.0469 174.178 60.0469 172.285V161.999C60.0469 160.105 58.5107 158.57 56.6156 158.57Z" fill="white"/>
<path d="M82.35 158.57H72.0563C70.1612 158.57 68.625 160.105 68.625 161.999V172.285C68.625 174.178 70.1612 175.713 72.0563 175.713H82.35C84.245 175.713 85.7812 174.178 85.7812 172.285V161.999C85.7812 160.105 84.245 158.57 82.35 158.57Z" fill="white"/>
<path d="M108.084 158.57H97.7906C95.8956 158.57 94.3594 160.105 94.3594 161.999V172.285C94.3594 174.178 95.8956 175.713 97.7906 175.713H108.084C109.979 175.713 111.516 174.178 111.516 172.285V161.999C111.516 160.105 109.979 158.57 108.084 158.57Z" fill="white"/>
<path d="M133.819 158.57H123.525C121.63 158.57 120.094 160.105 120.094 161.999V172.285C120.094 174.178 121.63 175.713 123.525 175.713H133.819C135.714 175.713 137.25 174.178 137.25 172.285V161.999C137.25 160.105 135.714 158.57 133.819 158.57Z" fill="white"/>
<path d="M159.553 158.57H149.259C147.364 158.57 145.828 160.105 145.828 161.999V172.285C145.828 174.178 147.364 175.713 149.259 175.713H159.553C161.448 175.713 162.984 174.178 162.984 172.285V161.999C162.984 160.105 161.448 158.57 159.553 158.57Z" fill="white"/>
<path d="M185.288 158.57H174.994C173.099 158.57 171.562 160.105 171.562 161.999V172.285C171.562 174.178 173.099 175.713 174.994 175.713H185.288C187.183 175.713 188.719 174.178 188.719 172.285V161.999C188.719 160.105 187.183 158.57 185.288 158.57Z" fill="white"/>
<path d="M56.6156 184.285H46.3219C44.4268 184.285 42.8906 185.82 42.8906 187.714V197.999C42.8906 199.893 44.4268 201.428 46.3219 201.428H56.6156C58.5107 201.428 60.0469 199.893 60.0469 197.999V187.714C60.0469 185.82 58.5107 184.285 56.6156 184.285Z" fill="white"/>
<path d="M82.35 184.285H72.0563C70.1612 184.285 68.625 185.82 68.625 187.714V197.999C68.625 199.893 70.1612 201.428 72.0563 201.428H82.35C84.245 201.428 85.7812 199.893 85.7812 197.999V187.714C85.7812 185.82 84.245 184.285 82.35 184.285Z" fill="white"/>
<path d="M108.084 184.285H97.7906C95.8956 184.285 94.3594 185.82 94.3594 187.714V197.999C94.3594 199.893 95.8956 201.428 97.7906 201.428H108.084C109.979 201.428 111.516 199.893 111.516 197.999V187.714C111.516 185.82 109.979 184.285 108.084 184.285Z" fill="white"/>
<path d="M133.819 184.285H123.525C121.63 184.285 120.094 185.82 120.094 187.714V197.999C120.094 199.893 121.63 201.428 123.525 201.428H133.819C135.714 201.428 137.25 199.893 137.25 197.999V187.714C137.25 185.82 135.714 184.285 133.819 184.285Z" fill="white"/>
<path d="M159.553 184.285H149.259C147.364 184.285 145.828 185.82 145.828 187.714V197.999C145.828 199.893 147.364 201.428 149.259 201.428H159.553C161.448 201.428 162.984 199.893 162.984 197.999V187.714C162.984 185.82 161.448 184.285 159.553 184.285Z" fill="white"/>
<path d="M185.288 184.285H174.994C173.099 184.285 171.562 185.82 171.562 187.714V197.999C171.562 199.893 173.099 201.428 174.994 201.428H185.288C187.183 201.428 188.719 199.893 188.719 197.999V187.714C188.719 185.82 187.183 184.285 185.288 184.285Z" fill="white"/>
<path d="M288.225 137.141H174.994C168.361 137.141 162.984 142.513 162.984 149.141V206.569C162.984 213.197 168.361 218.569 174.994 218.569H288.225C294.858 218.569 300.234 213.197 300.234 206.569V149.141C300.234 142.513 294.858 137.141 288.225 137.141Z" fill="white" stroke="#D0D5DD"/>
<path d="M188.718 186.857C197.246 186.857 204.159 179.95 204.159 171.429C204.159 162.908 197.246 156 188.718 156C180.19 156 173.277 162.908 173.277 171.429C173.277 179.95 180.19 186.857 188.718 186.857Z" stroke="#98A2B3" stroke-width="2"/>
<path d="M188.719 171.426V161.141" stroke="#98A2B3" stroke-width="2"/>
<path d="M188.719 171.426H199.012" stroke="#98A2B3" stroke-width="2"/>
<path d="M271.927 158.57H217.027C215.605 158.57 214.453 159.722 214.453 161.142C214.453 162.562 215.605 163.713 217.027 163.713H271.927C273.348 163.713 274.5 162.562 274.5 161.142C274.5 159.722 273.348 158.57 271.927 158.57Z" fill="#98A2B3"/>
<path d="M289.083 171.426H217.027C215.605 171.426 214.453 172.577 214.453 173.997C214.453 175.417 215.605 176.569 217.027 176.569H289.083C290.504 176.569 291.656 175.417 291.656 173.997C291.656 172.577 290.504 171.426 289.083 171.426Z" fill="#98A2B3"/>
<path d="M263.348 184.285H217.027C215.605 184.285 214.453 185.436 214.453 186.857C214.453 188.277 215.605 189.428 217.027 189.428H263.348C264.77 189.428 265.922 188.277 265.922 186.857C265.922 185.436 264.77 184.285 263.348 184.285Z" fill="#98A2B3"/>
<path d="M23.1609 192.855H12.8672C10.4984 192.855 8.57812 194.774 8.57812 197.141V215.998C8.57812 218.365 10.4984 220.284 12.8672 220.284H23.1609C25.5297 220.284 27.45 218.365 27.45 215.998V197.141C27.45 194.774 25.5297 192.855 23.1609 192.855Z" fill="#98A2B3"/>
<path d="M17.157 186C22.8421 186 27.4508 183.314 27.4508 180C27.4508 176.686 22.8421 174 17.157 174C11.472 174 6.86328 176.686 6.86328 180C6.86328 183.314 11.472 186 17.157 186Z" fill="#D0D5DD"/>
<path d="M30.0234 172.286C34.761 172.286 38.6016 169.983 38.6016 167.143C38.6016 164.303 34.761 162 30.0234 162C25.2859 162 21.4453 164.303 21.4453 167.143C21.4453 169.983 25.2859 172.286 30.0234 172.286Z" fill="#D0D5DD"/>
<path d="M265.921 77.1406C254.484 88.5692 257.343 99.9978 274.499 111.426C291.655 122.855 294.515 134.283 283.077 145.712" stroke="#98A2B3" stroke-width="2" stroke-dasharray="5 5"/>
<g clip-path="url(#clip0_21886_32459)">
<path fill-rule="evenodd" clip-rule="evenodd" d="M300.234 45.8047L283.389 87.8914L272.859 77.3728L274.963 83.6833L270.049 87.9035V77.6329L294.131 52.8625L267.073 72.8107L251.793 68.9536L300.234 45.8047Z" fill="#98A2B3"/>
</g>
<defs>
<linearGradient id="paint0_linear_21886_32459" x1="25.7344" y1="98.5692" x2="248.766" y2="98.5692" gradientUnits="userSpaceOnUse">
<stop stop-color="white"/>
<stop offset="1" stop-color="#98A2B3"/>
</linearGradient>
<clipPath id="clip0_21886_32459">
<rect width="51.4688" height="51.4286" fill="white" transform="translate(248.766 41.1406)"/>
</clipPath>
</defs>
</svg>
