<svg width="100" height="100" viewBox="0 0 100 100" fill="none" xmlns="http://www.w3.org/2000/svg">
<path d="M50 0C44.8438 0 40.625 4.21875 40.625 9.375C40.625 14.5312 44.8438 18.75 50 18.75C55.1562 18.75 59.375 14.5312 59.375 9.375C59.375 4.21875 55.1562 0 50 0ZM50 16.0938C46.25 16.0938 43.2813 13.125 43.2813 9.375C43.2813 5.625 46.25 2.65625 50 2.65625C53.75 2.65625 56.7187 5.625 56.7187 9.375C56.7187 13.125 53.75 16.0938 50 16.0938Z" fill="#D2D3D5"/>
<path d="M47.6562 13.4375H52.3438V23.5938H47.6562V13.4375Z" fill="#D2D3D5"/>
<path d="M53.9062 18.125H46.0938V9.21875C46.0938 6.875 53.9062 6.875 53.9062 9.21875V18.125Z" fill="#87CEEB"/>
<path d="M16.7773 32.3203L21.4164 27.6797L26.057 32.3187L21.4195 36.9594L16.7773 32.3203Z" fill="#D2D3D5"/>
<path d="M24.375 27.5L16.5625 35.3125L11.7188 30.4688C10.7812 29.5312 10.7812 27.9687 11.7188 27.0312L16.0938 22.6562C17.0313 21.7187 18.5937 21.7187 19.5312 22.6562L24.375 27.5Z" fill="#87CEEB"/>
<path d="M73.9746 32.3516L78.6152 27.7109L83.2559 32.3516L78.6152 36.9922L73.9746 32.3516Z" fill="#D2D3D5"/>
<path d="M83.4375 35.3125L75.625 27.5L80.4687 22.6562C81.4062 21.7187 82.9687 21.7187 83.9062 22.6562L88.2812 27.0312C89.2187 27.9687 89.2187 29.5312 88.2812 30.4688L83.4375 35.3125Z" fill="#87CEEB"/>
<path d="M50 100C71.5736 100 89.0625 82.5111 89.0625 60.9375C89.0625 39.3639 71.5736 21.875 50 21.875C28.4264 21.875 10.9375 39.3639 10.9375 60.9375C10.9375 82.5111 28.4264 100 50 100Z" fill="#87CEEB"/>
<path d="M50 94.8438C68.7259 94.8438 83.9062 79.6634 83.9062 60.9375C83.9062 42.2116 68.7259 27.0312 50 27.0312C31.2741 27.0312 16.0938 42.2116 16.0938 60.9375C16.0938 79.6634 31.2741 94.8438 50 94.8438Z" fill="#D2D3D5"/>
<path d="M50 92.1875C67.2589 92.1875 81.25 78.1964 81.25 60.9375C81.25 43.6786 67.2589 29.6875 50 29.6875C32.7411 29.6875 18.75 43.6786 18.75 60.9375C18.75 78.1964 32.7411 92.1875 50 92.1875Z" fill="white"/>
<path d="M81.25 60.9375C81.25 69.5312 77.8125 77.3437 72.1875 82.9687L50 60.9375V29.6875C67.1875 29.6875 81.25 43.75 81.25 60.9375Z" fill="#ED4C5C"/>
<path d="M67.9688 78.75L52.0312 59.8438L48.9062 62.9688L67.9688 78.75Z" fill="#3E4347"/>
<path d="M48.9062 32.3438H51.0938V41.0937H48.9062V32.3438Z" fill="#3E4347"/>
<path d="M48.9062 80.7812H51.0938V89.5312H48.9062V80.7812Z" fill="#3E4347"/>
<path d="M21.4062 59.8438H30.1562V62.0313H21.4062V59.8438Z" fill="#3E4347"/>
<path d="M69.8438 59.8438H78.5937V62.0313H69.8438V59.8438Z" fill="#3E4347"/>
<path d="M34.6523 36.6602L36.5477 35.5664L38.7352 39.3555L36.8398 40.4492L34.6523 36.6602Z" fill="#3E4347"/>
<path d="M24.5742 47.5969L25.668 45.7031L29.457 47.8906L28.3633 49.7859L24.5742 47.5969Z" fill="#3E4347"/>
<path d="M24.627 74.3938L28.4145 72.2031L29.5082 74.0969L25.7223 76.2875L24.627 74.3938Z" fill="#3E4347"/>
<path d="M34.7695 85.2734L36.957 81.4844L38.8508 82.5781L36.6633 86.3672L34.7695 85.2734Z" fill="#3E4347"/>
<path d="M61.1836 82.3828L63.0773 81.2891L65.2648 85.0781L63.3727 86.1719L61.1836 82.3828Z" fill="#3E4347"/>
<path d="M70.4688 74.1102L71.5625 72.2148L75.3516 74.4039L74.2578 76.2992L70.4688 74.1102Z" fill="#3E4347"/>
<path d="M70.3535 47.8555L74.141 45.668L75.2348 47.5617L71.4473 49.7492L70.3535 47.8555Z" fill="#3E4347"/>
<path d="M61.1504 39.2953L63.3394 35.5078L65.2332 36.6016L63.0457 40.3906L61.1504 39.2953Z" fill="#3E4347"/>
<path d="M50 65.3125C52.4162 65.3125 54.375 63.3537 54.375 60.9375C54.375 58.5213 52.4162 56.5625 50 56.5625C47.5838 56.5625 45.625 58.5213 45.625 60.9375C45.625 63.3537 47.5838 65.3125 50 65.3125Z" fill="#3E4347"/>
</svg>
