<svg width="20" height="20" viewBox="0 0 20 20" fill="none" xmlns="http://www.w3.org/2000/svg">
<path d="M10 2C14.4183 2 18 5.58172 18 10C18 14.4183 14.4183 18 10 18C5.58172 18 2 14.4183 2 10C2 5.58172 5.58172 2 10 2ZM9.79688 4.39941C8.14004 4.39941 6.79688 5.57502 6.79688 7.02441C6.79692 7.2276 6.82309 7.42541 6.87305 7.61523C6.92305 7.80524 7.36301 8.08976 7.7832 7.96875C8.20336 7.84782 8.29762 7.42171 8.26855 7.2959C8.24811 7.2083 8.23734 7.11731 8.2373 7.02441C8.2373 6.27073 8.93531 5.65918 9.79688 5.65918C10.6584 5.65918 11.3564 6.27075 11.3564 7.02441C11.3559 9.43814 6.79701 8.10888 6.79688 11.4678V14.6875C6.79715 15.1913 7.26388 15.5995 7.83984 15.5996H11.7539C12.3299 15.5995 12.7966 15.1913 12.7969 14.6875V7.02441C12.7969 5.57502 11.4537 4.39941 9.79688 4.39941Z" fill="#900B09"/>
</svg>
