<svg width="20" height="20" viewBox="0 0 20 20" fill="none" xmlns="http://www.w3.org/2000/svg">
<path d="M10 2C14.4183 2 18 5.58172 18 10C18 14.4183 14.4183 18 10 18C5.58172 18 2 14.4183 2 10C2 5.58172 5.58172 2 10 2ZM11.2471 11.0684C11.1556 10.985 11.0085 10.9851 10.917 11.0684L10.1123 11.8027C10.0575 11.8527 9.94759 11.8525 9.89258 11.8027L9.08691 11.0684C8.99552 10.9853 8.84928 10.9854 8.75781 11.0684L8.42773 11.3691C8.33655 11.4525 8.33653 11.5856 8.42773 11.6689L9.2334 12.4023C9.28823 12.4523 9.28807 12.5524 9.2334 12.6025L8.42773 13.3369C8.33657 13.4202 8.33651 13.5534 8.42773 13.6367L8.75781 13.9365C8.84933 14.0199 8.9954 14.0199 9.08691 13.9365L9.89258 13.2031C9.94757 13.1533 10.0575 13.1532 10.1123 13.2031L10.917 13.9365C11.0085 14.0199 11.1556 14.0199 11.2471 13.9365L11.5762 13.6367C11.6675 13.5534 11.6675 13.4203 11.5762 13.3369L10.7705 12.6025C10.7159 12.5524 10.7157 12.4523 10.7705 12.4023L11.5762 11.6689C11.6675 11.5856 11.6675 11.4525 11.5762 11.3691L11.2471 11.0684ZM9.99707 8.33398C9.22859 8.33407 8.49677 8.63457 7.98438 9.16797C7.9113 9.23455 7.92908 9.35121 8.00195 9.41797L8.58789 9.81836C8.6611 9.86839 8.77126 9.86846 8.82617 9.80176C9.13723 9.50174 9.55798 9.33505 9.99707 9.33496C10.4363 9.33496 10.8575 9.5017 11.1504 9.78516C11.2053 9.85186 11.3155 9.85178 11.3887 9.80176L11.9736 9.40137C12.0651 9.33466 12.0654 9.23475 11.9922 9.15137C11.498 8.63453 10.7657 8.33398 9.99707 8.33398ZM10 6C8.48099 6 7.05351 6.56692 6.04688 7.58398C5.97381 7.65056 5.9916 7.76719 6.06445 7.81738L6.61426 8.25098C6.68747 8.31764 6.79692 8.30107 6.87012 8.23438C7.67544 7.45063 8.81033 7.00098 10 7.00098C11.1897 7.00098 12.3246 7.45063 13.1299 8.23438C13.2031 8.30105 13.3125 8.30095 13.3857 8.25098L13.9355 7.81738C14.0084 7.75068 14.0262 7.65057 13.9531 7.58398C12.9465 6.56692 11.519 6 10 6Z" fill="#A2845E"/>
</svg>
