<svg width="20" height="20" viewBox="0 0 20 20" fill="none" xmlns="http://www.w3.org/2000/svg">
<path d="M10 2C14.4183 2 18 5.58172 18 10C18 14.4183 14.4183 18 10 18C5.58172 18 2 14.4183 2 10C2 5.58172 5.58172 2 10 2ZM7.08301 5.20117C6.56306 5.2012 6.11957 5.38434 5.75293 5.75098C5.38639 6.11761 5.20312 6.56115 5.20312 7.08105V8.64062L6.45312 7.86035V7.08105C6.45312 6.90776 6.51286 6.76061 6.63281 6.64062C6.75278 6.52065 6.90307 6.45786 7.08301 6.45117H13.333C13.4997 6.45117 13.6468 6.51396 13.7734 6.64062C13.9001 6.76727 13.9598 6.91442 13.9531 7.08105V13.3311C13.9531 13.5041 13.8932 13.6506 13.7734 13.7705C13.6534 13.8905 13.5063 13.9512 13.333 13.9512H7.08301C6.90972 13.9511 6.75945 13.8905 6.63281 13.7705C6.50642 13.6506 6.44654 13.5041 6.45312 13.3311V12.5508L5.20312 11.7705V13.3311C5.20319 13.8508 5.38652 14.2905 5.75293 14.6504C6.11957 15.0104 6.56306 15.1945 7.08301 15.2012H13.333C13.8463 15.2012 14.2867 15.0171 14.6533 14.6504C15.0197 14.2838 15.2031 13.8441 15.2031 13.3311V7.08105C15.2031 6.56115 15.0199 6.11761 14.6533 5.75098C14.2867 5.38431 13.8463 5.20117 13.333 5.20117H7.08301ZM5.20312 10.2012L7.70312 12.0811V10.8311H10.2031V9.58105H7.70312V8.33105L5.20312 10.2012Z" fill="#FF2D55"/>
</svg>
